G04 #@! TF.GenerationSoftware,KiCad,Pcbnew,7.0.5*
G04 #@! TF.CreationDate,2023-07-24T04:44:54-06:00*
G04 #@! TF.ProjectId,Project-Supernova-PCB,50726f6a-6563-4742-9d53-757065726e6f,rev?*
G04 #@! TF.SameCoordinates,Original*
G04 #@! TF.FileFunction,Legend,Bot*
G04 #@! TF.FilePolarity,Positive*
%FSLAX46Y46*%
G04 Gerber Fmt 4.6, Leading zero omitted, Abs format (unit mm)*
G04 Created by KiCad (PCBNEW 7.0.5) date 2023-07-24 04:44:54*
%MOMM*%
%LPD*%
G01*
G04 APERTURE LIST*
%ADD10C,0.150000*%
%ADD11C,0.500000*%
%ADD12C,0.300000*%
%ADD13C,0.350000*%
%ADD14C,3.500000*%
%ADD15R,1.900000X1.900000*%
%ADD16C,2.000000*%
%ADD17R,1.700000X1.700000*%
%ADD18O,1.700000X1.700000*%
%ADD19O,3.500000X2.200000*%
%ADD20R,2.500000X1.500000*%
%ADD21O,2.500000X1.500000*%
%ADD22R,3.000000X3.000000*%
%ADD23C,3.000000*%
%ADD24C,5.600000*%
%ADD25C,1.524000*%
%ADD26C,2.050000*%
%ADD27C,2.250000*%
%ADD28R,2.000000X2.000000*%
G04 APERTURE END LIST*
D10*
X123571000Y-58166000D02*
X169545000Y-58166000D01*
X169545000Y-114300000D01*
X123571000Y-114300000D01*
X123571000Y-58166000D01*
G36*
X123571000Y-58166000D02*
G01*
X169545000Y-58166000D01*
X169545000Y-114300000D01*
X123571000Y-114300000D01*
X123571000Y-58166000D01*
G37*
D11*
X158305500Y-116205000D02*
X176974500Y-116205000D01*
X176974500Y-126365000D01*
X158305500Y-126365000D01*
X158305500Y-116205000D01*
D12*
X172200242Y-62159774D02*
X172271671Y-62302632D01*
X172271671Y-62302632D02*
X172271671Y-62516917D01*
X172271671Y-62516917D02*
X172200242Y-62731203D01*
X172200242Y-62731203D02*
X172057385Y-62874060D01*
X172057385Y-62874060D02*
X171914528Y-62945489D01*
X171914528Y-62945489D02*
X171628814Y-63016917D01*
X171628814Y-63016917D02*
X171414528Y-63016917D01*
X171414528Y-63016917D02*
X171128814Y-62945489D01*
X171128814Y-62945489D02*
X170985957Y-62874060D01*
X170985957Y-62874060D02*
X170843100Y-62731203D01*
X170843100Y-62731203D02*
X170771671Y-62516917D01*
X170771671Y-62516917D02*
X170771671Y-62374060D01*
X170771671Y-62374060D02*
X170843100Y-62159774D01*
X170843100Y-62159774D02*
X170914528Y-62088346D01*
X170914528Y-62088346D02*
X171414528Y-62088346D01*
X171414528Y-62088346D02*
X171414528Y-62374060D01*
X170771671Y-61445489D02*
X172271671Y-61445489D01*
X172271671Y-61445489D02*
X170771671Y-60588346D01*
X170771671Y-60588346D02*
X172271671Y-60588346D01*
X170771671Y-59874060D02*
X172271671Y-59874060D01*
X172271671Y-59874060D02*
X172271671Y-59516917D01*
X172271671Y-59516917D02*
X172200242Y-59302631D01*
X172200242Y-59302631D02*
X172057385Y-59159774D01*
X172057385Y-59159774D02*
X171914528Y-59088345D01*
X171914528Y-59088345D02*
X171628814Y-59016917D01*
X171628814Y-59016917D02*
X171414528Y-59016917D01*
X171414528Y-59016917D02*
X171128814Y-59088345D01*
X171128814Y-59088345D02*
X170985957Y-59159774D01*
X170985957Y-59159774D02*
X170843100Y-59302631D01*
X170843100Y-59302631D02*
X170771671Y-59516917D01*
X170771671Y-59516917D02*
X170771671Y-59874060D01*
D13*
X174733046Y-119316253D02*
X175299713Y-118506729D01*
X175704475Y-119316253D02*
X175704475Y-117616253D01*
X175704475Y-117616253D02*
X175056856Y-117616253D01*
X175056856Y-117616253D02*
X174894951Y-117697205D01*
X174894951Y-117697205D02*
X174813998Y-117778158D01*
X174813998Y-117778158D02*
X174733046Y-117940062D01*
X174733046Y-117940062D02*
X174733046Y-118182920D01*
X174733046Y-118182920D02*
X174813998Y-118344824D01*
X174813998Y-118344824D02*
X174894951Y-118425777D01*
X174894951Y-118425777D02*
X175056856Y-118506729D01*
X175056856Y-118506729D02*
X175704475Y-118506729D01*
X174004475Y-118425777D02*
X173437808Y-118425777D01*
X173194951Y-119316253D02*
X174004475Y-119316253D01*
X174004475Y-119316253D02*
X174004475Y-117616253D01*
X174004475Y-117616253D02*
X173194951Y-117616253D01*
X172709237Y-117616253D02*
X172142570Y-119316253D01*
X172142570Y-119316253D02*
X171575903Y-117616253D01*
X169794951Y-117778158D02*
X169713999Y-117697205D01*
X169713999Y-117697205D02*
X169552094Y-117616253D01*
X169552094Y-117616253D02*
X169147332Y-117616253D01*
X169147332Y-117616253D02*
X168985427Y-117697205D01*
X168985427Y-117697205D02*
X168904475Y-117778158D01*
X168904475Y-117778158D02*
X168823522Y-117940062D01*
X168823522Y-117940062D02*
X168823522Y-118101967D01*
X168823522Y-118101967D02*
X168904475Y-118344824D01*
X168904475Y-118344824D02*
X169875903Y-119316253D01*
X169875903Y-119316253D02*
X168823522Y-119316253D01*
X175785427Y-120515158D02*
X175704475Y-120434205D01*
X175704475Y-120434205D02*
X175542570Y-120353253D01*
X175542570Y-120353253D02*
X175137808Y-120353253D01*
X175137808Y-120353253D02*
X174975903Y-120434205D01*
X174975903Y-120434205D02*
X174894951Y-120515158D01*
X174894951Y-120515158D02*
X174813998Y-120677062D01*
X174813998Y-120677062D02*
X174813998Y-120838967D01*
X174813998Y-120838967D02*
X174894951Y-121081824D01*
X174894951Y-121081824D02*
X175866379Y-122053253D01*
X175866379Y-122053253D02*
X174813998Y-122053253D01*
X173761617Y-120353253D02*
X173599712Y-120353253D01*
X173599712Y-120353253D02*
X173437808Y-120434205D01*
X173437808Y-120434205D02*
X173356855Y-120515158D01*
X173356855Y-120515158D02*
X173275903Y-120677062D01*
X173275903Y-120677062D02*
X173194950Y-121000872D01*
X173194950Y-121000872D02*
X173194950Y-121405634D01*
X173194950Y-121405634D02*
X173275903Y-121729443D01*
X173275903Y-121729443D02*
X173356855Y-121891348D01*
X173356855Y-121891348D02*
X173437808Y-121972301D01*
X173437808Y-121972301D02*
X173599712Y-122053253D01*
X173599712Y-122053253D02*
X173761617Y-122053253D01*
X173761617Y-122053253D02*
X173923522Y-121972301D01*
X173923522Y-121972301D02*
X174004474Y-121891348D01*
X174004474Y-121891348D02*
X174085427Y-121729443D01*
X174085427Y-121729443D02*
X174166379Y-121405634D01*
X174166379Y-121405634D02*
X174166379Y-121000872D01*
X174166379Y-121000872D02*
X174085427Y-120677062D01*
X174085427Y-120677062D02*
X174004474Y-120515158D01*
X174004474Y-120515158D02*
X173923522Y-120434205D01*
X173923522Y-120434205D02*
X173761617Y-120353253D01*
X172547331Y-120515158D02*
X172466379Y-120434205D01*
X172466379Y-120434205D02*
X172304474Y-120353253D01*
X172304474Y-120353253D02*
X171899712Y-120353253D01*
X171899712Y-120353253D02*
X171737807Y-120434205D01*
X171737807Y-120434205D02*
X171656855Y-120515158D01*
X171656855Y-120515158D02*
X171575902Y-120677062D01*
X171575902Y-120677062D02*
X171575902Y-120838967D01*
X171575902Y-120838967D02*
X171656855Y-121081824D01*
X171656855Y-121081824D02*
X172628283Y-122053253D01*
X172628283Y-122053253D02*
X171575902Y-122053253D01*
X171009235Y-120353253D02*
X169956854Y-120353253D01*
X169956854Y-120353253D02*
X170523521Y-121000872D01*
X170523521Y-121000872D02*
X170280664Y-121000872D01*
X170280664Y-121000872D02*
X170118759Y-121081824D01*
X170118759Y-121081824D02*
X170037807Y-121162777D01*
X170037807Y-121162777D02*
X169956854Y-121324681D01*
X169956854Y-121324681D02*
X169956854Y-121729443D01*
X169956854Y-121729443D02*
X170037807Y-121891348D01*
X170037807Y-121891348D02*
X170118759Y-121972301D01*
X170118759Y-121972301D02*
X170280664Y-122053253D01*
X170280664Y-122053253D02*
X170766378Y-122053253D01*
X170766378Y-122053253D02*
X170928283Y-121972301D01*
X170928283Y-121972301D02*
X171009235Y-121891348D01*
X169228283Y-121405634D02*
X167933045Y-121405634D01*
X166799711Y-120353253D02*
X166637806Y-120353253D01*
X166637806Y-120353253D02*
X166475902Y-120434205D01*
X166475902Y-120434205D02*
X166394949Y-120515158D01*
X166394949Y-120515158D02*
X166313997Y-120677062D01*
X166313997Y-120677062D02*
X166233044Y-121000872D01*
X166233044Y-121000872D02*
X166233044Y-121405634D01*
X166233044Y-121405634D02*
X166313997Y-121729443D01*
X166313997Y-121729443D02*
X166394949Y-121891348D01*
X166394949Y-121891348D02*
X166475902Y-121972301D01*
X166475902Y-121972301D02*
X166637806Y-122053253D01*
X166637806Y-122053253D02*
X166799711Y-122053253D01*
X166799711Y-122053253D02*
X166961616Y-121972301D01*
X166961616Y-121972301D02*
X167042568Y-121891348D01*
X167042568Y-121891348D02*
X167123521Y-121729443D01*
X167123521Y-121729443D02*
X167204473Y-121405634D01*
X167204473Y-121405634D02*
X167204473Y-121000872D01*
X167204473Y-121000872D02*
X167123521Y-120677062D01*
X167123521Y-120677062D02*
X167042568Y-120515158D01*
X167042568Y-120515158D02*
X166961616Y-120434205D01*
X166961616Y-120434205D02*
X166799711Y-120353253D01*
X165666377Y-120353253D02*
X164533044Y-120353253D01*
X164533044Y-120353253D02*
X165261615Y-122053253D01*
X163885425Y-121405634D02*
X162590187Y-121405634D01*
X161861615Y-120515158D02*
X161780663Y-120434205D01*
X161780663Y-120434205D02*
X161618758Y-120353253D01*
X161618758Y-120353253D02*
X161213996Y-120353253D01*
X161213996Y-120353253D02*
X161052091Y-120434205D01*
X161052091Y-120434205D02*
X160971139Y-120515158D01*
X160971139Y-120515158D02*
X160890186Y-120677062D01*
X160890186Y-120677062D02*
X160890186Y-120838967D01*
X160890186Y-120838967D02*
X160971139Y-121081824D01*
X160971139Y-121081824D02*
X161942567Y-122053253D01*
X161942567Y-122053253D02*
X160890186Y-122053253D01*
X160242567Y-120515158D02*
X160161615Y-120434205D01*
X160161615Y-120434205D02*
X159999710Y-120353253D01*
X159999710Y-120353253D02*
X159594948Y-120353253D01*
X159594948Y-120353253D02*
X159433043Y-120434205D01*
X159433043Y-120434205D02*
X159352091Y-120515158D01*
X159352091Y-120515158D02*
X159271138Y-120677062D01*
X159271138Y-120677062D02*
X159271138Y-120838967D01*
X159271138Y-120838967D02*
X159352091Y-121081824D01*
X159352091Y-121081824D02*
X160323519Y-122053253D01*
X160323519Y-122053253D02*
X159271138Y-122053253D01*
X175137808Y-123899777D02*
X174894951Y-123980729D01*
X174894951Y-123980729D02*
X174813998Y-124061681D01*
X174813998Y-124061681D02*
X174733046Y-124223586D01*
X174733046Y-124223586D02*
X174733046Y-124466443D01*
X174733046Y-124466443D02*
X174813998Y-124628348D01*
X174813998Y-124628348D02*
X174894951Y-124709301D01*
X174894951Y-124709301D02*
X175056856Y-124790253D01*
X175056856Y-124790253D02*
X175704475Y-124790253D01*
X175704475Y-124790253D02*
X175704475Y-123090253D01*
X175704475Y-123090253D02*
X175137808Y-123090253D01*
X175137808Y-123090253D02*
X174975903Y-123171205D01*
X174975903Y-123171205D02*
X174894951Y-123252158D01*
X174894951Y-123252158D02*
X174813998Y-123414062D01*
X174813998Y-123414062D02*
X174813998Y-123575967D01*
X174813998Y-123575967D02*
X174894951Y-123737872D01*
X174894951Y-123737872D02*
X174975903Y-123818824D01*
X174975903Y-123818824D02*
X175137808Y-123899777D01*
X175137808Y-123899777D02*
X175704475Y-123899777D01*
X173275903Y-124790253D02*
X173275903Y-123899777D01*
X173275903Y-123899777D02*
X173356856Y-123737872D01*
X173356856Y-123737872D02*
X173518760Y-123656920D01*
X173518760Y-123656920D02*
X173842570Y-123656920D01*
X173842570Y-123656920D02*
X174004475Y-123737872D01*
X173275903Y-124709301D02*
X173437808Y-124790253D01*
X173437808Y-124790253D02*
X173842570Y-124790253D01*
X173842570Y-124790253D02*
X174004475Y-124709301D01*
X174004475Y-124709301D02*
X174085427Y-124547396D01*
X174085427Y-124547396D02*
X174085427Y-124385491D01*
X174085427Y-124385491D02*
X174004475Y-124223586D01*
X174004475Y-124223586D02*
X173842570Y-124142634D01*
X173842570Y-124142634D02*
X173437808Y-124142634D01*
X173437808Y-124142634D02*
X173275903Y-124061681D01*
X172223522Y-124790253D02*
X172385427Y-124709301D01*
X172385427Y-124709301D02*
X172466380Y-124547396D01*
X172466380Y-124547396D02*
X172466380Y-123090253D01*
X171333046Y-124790253D02*
X171494951Y-124709301D01*
X171494951Y-124709301D02*
X171575904Y-124547396D01*
X171575904Y-124547396D02*
X171575904Y-123090253D01*
X170442570Y-124790253D02*
X170604475Y-124709301D01*
X170604475Y-124709301D02*
X170685428Y-124628348D01*
X170685428Y-124628348D02*
X170766380Y-124466443D01*
X170766380Y-124466443D02*
X170766380Y-123980729D01*
X170766380Y-123980729D02*
X170685428Y-123818824D01*
X170685428Y-123818824D02*
X170604475Y-123737872D01*
X170604475Y-123737872D02*
X170442570Y-123656920D01*
X170442570Y-123656920D02*
X170199713Y-123656920D01*
X170199713Y-123656920D02*
X170037809Y-123737872D01*
X170037809Y-123737872D02*
X169956856Y-123818824D01*
X169956856Y-123818824D02*
X169875904Y-123980729D01*
X169875904Y-123980729D02*
X169875904Y-124466443D01*
X169875904Y-124466443D02*
X169956856Y-124628348D01*
X169956856Y-124628348D02*
X170037809Y-124709301D01*
X170037809Y-124709301D02*
X170199713Y-124790253D01*
X170199713Y-124790253D02*
X170442570Y-124790253D01*
X168904475Y-124790253D02*
X169066380Y-124709301D01*
X169066380Y-124709301D02*
X169147333Y-124628348D01*
X169147333Y-124628348D02*
X169228285Y-124466443D01*
X169228285Y-124466443D02*
X169228285Y-123980729D01*
X169228285Y-123980729D02*
X169147333Y-123818824D01*
X169147333Y-123818824D02*
X169066380Y-123737872D01*
X169066380Y-123737872D02*
X168904475Y-123656920D01*
X168904475Y-123656920D02*
X168661618Y-123656920D01*
X168661618Y-123656920D02*
X168499714Y-123737872D01*
X168499714Y-123737872D02*
X168418761Y-123818824D01*
X168418761Y-123818824D02*
X168337809Y-123980729D01*
X168337809Y-123980729D02*
X168337809Y-124466443D01*
X168337809Y-124466443D02*
X168418761Y-124628348D01*
X168418761Y-124628348D02*
X168499714Y-124709301D01*
X168499714Y-124709301D02*
X168661618Y-124790253D01*
X168661618Y-124790253D02*
X168904475Y-124790253D01*
X167609238Y-123656920D02*
X167609238Y-124790253D01*
X167609238Y-123818824D02*
X167528285Y-123737872D01*
X167528285Y-123737872D02*
X167366380Y-123656920D01*
X167366380Y-123656920D02*
X167123523Y-123656920D01*
X167123523Y-123656920D02*
X166961619Y-123737872D01*
X166961619Y-123737872D02*
X166880666Y-123899777D01*
X166880666Y-123899777D02*
X166880666Y-124790253D01*
X164775905Y-124790253D02*
X164775905Y-123090253D01*
X164775905Y-123090253D02*
X164128286Y-123090253D01*
X164128286Y-123090253D02*
X163966381Y-123171205D01*
X163966381Y-123171205D02*
X163885428Y-123252158D01*
X163885428Y-123252158D02*
X163804476Y-123414062D01*
X163804476Y-123414062D02*
X163804476Y-123656920D01*
X163804476Y-123656920D02*
X163885428Y-123818824D01*
X163885428Y-123818824D02*
X163966381Y-123899777D01*
X163966381Y-123899777D02*
X164128286Y-123980729D01*
X164128286Y-123980729D02*
X164775905Y-123980729D01*
X162347333Y-124790253D02*
X162347333Y-123899777D01*
X162347333Y-123899777D02*
X162428286Y-123737872D01*
X162428286Y-123737872D02*
X162590190Y-123656920D01*
X162590190Y-123656920D02*
X162914000Y-123656920D01*
X162914000Y-123656920D02*
X163075905Y-123737872D01*
X162347333Y-124709301D02*
X162509238Y-124790253D01*
X162509238Y-124790253D02*
X162914000Y-124790253D01*
X162914000Y-124790253D02*
X163075905Y-124709301D01*
X163075905Y-124709301D02*
X163156857Y-124547396D01*
X163156857Y-124547396D02*
X163156857Y-124385491D01*
X163156857Y-124385491D02*
X163075905Y-124223586D01*
X163075905Y-124223586D02*
X162914000Y-124142634D01*
X162914000Y-124142634D02*
X162509238Y-124142634D01*
X162509238Y-124142634D02*
X162347333Y-124061681D01*
X161294952Y-124790253D02*
X161456857Y-124709301D01*
X161456857Y-124709301D02*
X161537810Y-124547396D01*
X161537810Y-124547396D02*
X161537810Y-123090253D01*
X160728286Y-124709301D02*
X160566381Y-124790253D01*
X160566381Y-124790253D02*
X160242572Y-124790253D01*
X160242572Y-124790253D02*
X160080667Y-124709301D01*
X160080667Y-124709301D02*
X159999715Y-124547396D01*
X159999715Y-124547396D02*
X159999715Y-124466443D01*
X159999715Y-124466443D02*
X160080667Y-124304539D01*
X160080667Y-124304539D02*
X160242572Y-124223586D01*
X160242572Y-124223586D02*
X160485429Y-124223586D01*
X160485429Y-124223586D02*
X160647334Y-124142634D01*
X160647334Y-124142634D02*
X160728286Y-123980729D01*
X160728286Y-123980729D02*
X160728286Y-123899777D01*
X160728286Y-123899777D02*
X160647334Y-123737872D01*
X160647334Y-123737872D02*
X160485429Y-123656920D01*
X160485429Y-123656920D02*
X160242572Y-123656920D01*
X160242572Y-123656920D02*
X160080667Y-123737872D01*
D12*
X182431671Y-79669774D02*
X180931671Y-79169774D01*
X180931671Y-79169774D02*
X182431671Y-78669774D01*
X180788814Y-78526918D02*
X180788814Y-77384060D01*
X181717385Y-76526918D02*
X181645957Y-76312632D01*
X181645957Y-76312632D02*
X181574528Y-76241203D01*
X181574528Y-76241203D02*
X181431671Y-76169775D01*
X181431671Y-76169775D02*
X181217385Y-76169775D01*
X181217385Y-76169775D02*
X181074528Y-76241203D01*
X181074528Y-76241203D02*
X181003100Y-76312632D01*
X181003100Y-76312632D02*
X180931671Y-76455489D01*
X180931671Y-76455489D02*
X180931671Y-77026918D01*
X180931671Y-77026918D02*
X182431671Y-77026918D01*
X182431671Y-77026918D02*
X182431671Y-76526918D01*
X182431671Y-76526918D02*
X182360242Y-76384061D01*
X182360242Y-76384061D02*
X182288814Y-76312632D01*
X182288814Y-76312632D02*
X182145957Y-76241203D01*
X182145957Y-76241203D02*
X182003100Y-76241203D01*
X182003100Y-76241203D02*
X181860242Y-76312632D01*
X181860242Y-76312632D02*
X181788814Y-76384061D01*
X181788814Y-76384061D02*
X181717385Y-76526918D01*
X181717385Y-76526918D02*
X181717385Y-77026918D01*
X181360242Y-75598346D02*
X181360242Y-74884061D01*
X180931671Y-75741203D02*
X182431671Y-75241203D01*
X182431671Y-75241203D02*
X180931671Y-74741203D01*
X182431671Y-74455489D02*
X182431671Y-73598347D01*
X180931671Y-74026918D02*
X182431671Y-74026918D01*
X182431671Y-73312632D02*
X182431671Y-72455490D01*
X180931671Y-72884061D02*
X182431671Y-72884061D01*
X182431671Y-63088346D02*
X182431671Y-62159774D01*
X182431671Y-62159774D02*
X181860242Y-62659774D01*
X181860242Y-62659774D02*
X181860242Y-62445489D01*
X181860242Y-62445489D02*
X181788814Y-62302632D01*
X181788814Y-62302632D02*
X181717385Y-62231203D01*
X181717385Y-62231203D02*
X181574528Y-62159774D01*
X181574528Y-62159774D02*
X181217385Y-62159774D01*
X181217385Y-62159774D02*
X181074528Y-62231203D01*
X181074528Y-62231203D02*
X181003100Y-62302632D01*
X181003100Y-62302632D02*
X180931671Y-62445489D01*
X180931671Y-62445489D02*
X180931671Y-62874060D01*
X180931671Y-62874060D02*
X181003100Y-63016917D01*
X181003100Y-63016917D02*
X181074528Y-63088346D01*
X182431671Y-61731203D02*
X180931671Y-61231203D01*
X180931671Y-61231203D02*
X182431671Y-60731203D01*
X182431671Y-60374061D02*
X182431671Y-59445489D01*
X182431671Y-59445489D02*
X181860242Y-59945489D01*
X181860242Y-59945489D02*
X181860242Y-59731204D01*
X181860242Y-59731204D02*
X181788814Y-59588347D01*
X181788814Y-59588347D02*
X181717385Y-59516918D01*
X181717385Y-59516918D02*
X181574528Y-59445489D01*
X181574528Y-59445489D02*
X181217385Y-59445489D01*
X181217385Y-59445489D02*
X181074528Y-59516918D01*
X181074528Y-59516918D02*
X181003100Y-59588347D01*
X181003100Y-59588347D02*
X180931671Y-59731204D01*
X180931671Y-59731204D02*
X180931671Y-60159775D01*
X180931671Y-60159775D02*
X181003100Y-60302632D01*
X181003100Y-60302632D02*
X181074528Y-60374061D01*
%LPC*%
D14*
X166380000Y-67310000D03*
X166380000Y-77470000D03*
D15*
X158750000Y-66040000D03*
D16*
X158750000Y-68580000D03*
X158750000Y-71120000D03*
X158750000Y-73660000D03*
X158750000Y-76200000D03*
X158750000Y-78740000D03*
X182372000Y-100584000D03*
D17*
X173472500Y-91900000D03*
D18*
X173472500Y-94440000D03*
D19*
X122555000Y-128655000D03*
X122555000Y-120455000D03*
D20*
X122555000Y-126555000D03*
D21*
X122555000Y-124555000D03*
X122555000Y-122555000D03*
D17*
X143256000Y-55372000D03*
D18*
X145796000Y-55372000D03*
X148336000Y-55372000D03*
X150876000Y-55372000D03*
D17*
X173472500Y-100790000D03*
D18*
X173472500Y-103330000D03*
D22*
X149860000Y-127000000D03*
D23*
X154940000Y-127000000D03*
D24*
X88900000Y-129540000D03*
X180340000Y-129540000D03*
D17*
X166751000Y-55626000D03*
D18*
X164211000Y-55626000D03*
X161671000Y-55626000D03*
X159131000Y-55626000D03*
D19*
X130175000Y-128655000D03*
X130175000Y-120455000D03*
D20*
X130175000Y-126555000D03*
D21*
X130175000Y-124555000D03*
X130175000Y-122555000D03*
D16*
X182372000Y-103632000D03*
D25*
X125730000Y-68580000D03*
X125730000Y-71120000D03*
X125730000Y-73660000D03*
X125730000Y-76200000D03*
X125730000Y-78740000D03*
X125730000Y-81280000D03*
X125730000Y-83820000D03*
X125730000Y-86360000D03*
X125730000Y-88900000D03*
X125730000Y-91440000D03*
X125730000Y-93980000D03*
X125730000Y-96520000D03*
X125730000Y-99060000D03*
X125730000Y-101600000D03*
X125730000Y-104140000D03*
X151130000Y-104140000D03*
X151130000Y-101600000D03*
X151130000Y-99060000D03*
X151130000Y-96520000D03*
X151130000Y-93980000D03*
X151130000Y-91440000D03*
X151130000Y-88900000D03*
X151130000Y-86360000D03*
X151130000Y-83820000D03*
X151130000Y-81280000D03*
X151130000Y-78740000D03*
X151130000Y-76200000D03*
X151130000Y-73660000D03*
X151130000Y-71120000D03*
X151130000Y-68580000D03*
D16*
X177800000Y-91440000D03*
D26*
X89916000Y-63500000D03*
D27*
X87376000Y-60960000D03*
X87376000Y-66040000D03*
X92456000Y-60960000D03*
X92456000Y-66040000D03*
D14*
X119380000Y-78740000D03*
X88900000Y-78740000D03*
X119380000Y-99060000D03*
X88900000Y-99060000D03*
D28*
X120650000Y-85090000D03*
D16*
X120650000Y-87630000D03*
X120650000Y-90170000D03*
X120650000Y-92710000D03*
D24*
X180340000Y-49530000D03*
D16*
X177800000Y-100584000D03*
D17*
X87630000Y-109220000D03*
D18*
X87630000Y-111760000D03*
X87630000Y-114300000D03*
X87630000Y-116840000D03*
D22*
X108585000Y-127000000D03*
D23*
X113665000Y-127000000D03*
D17*
X97790000Y-118110000D03*
D18*
X100330000Y-118110000D03*
D22*
X96520000Y-127000000D03*
D23*
X101600000Y-127000000D03*
D17*
X179070000Y-57150000D03*
D18*
X179070000Y-59690000D03*
X179070000Y-62230000D03*
X179070000Y-64770000D03*
D16*
X182372000Y-94488000D03*
D17*
X179070000Y-72400000D03*
D18*
X179070000Y-74940000D03*
X179070000Y-77480000D03*
X179070000Y-80020000D03*
D16*
X177800000Y-94488000D03*
D17*
X110490000Y-118110000D03*
D18*
X113030000Y-118110000D03*
D16*
X177800000Y-103632000D03*
D22*
X138430000Y-127000000D03*
D23*
X143510000Y-127000000D03*
D24*
X88900000Y-49530000D03*
D17*
X173990000Y-57150000D03*
D18*
X173990000Y-59690000D03*
X173990000Y-62230000D03*
X173990000Y-64770000D03*
D16*
X182372000Y-91440000D03*
%LPD*%
M02*
