M48
; DRILL file {KiCad 7.0.5} date Sat Jul 22 19:45:39 2023
; FORMAT={-:-/ absolute / metric / decimal}
; #@! TF.CreationDate,2023-07-22T19:45:39-06:00
; #@! TF.GenerationSoftware,Kicad,Pcbnew,7.0.5
; #@! TF.FileFunction,Plated,1,2,PTH
FMAT,2
METRIC
; #@! TA.AperFunction,Plated,PTH,ViaDrill
T1C0.400
; #@! TA.AperFunction,Plated,PTH,ComponentDrill
T2C0.762
; #@! TA.AperFunction,Plated,PTH,ComponentDrill
T3C0.800
; #@! TA.AperFunction,Plated,PTH,ComponentDrill
T4C1.000
; #@! TA.AperFunction,Plated,PTH,ComponentDrill
T5C1.500
; #@! TA.AperFunction,Plated,PTH,ComponentDrill
T6C1.520
; #@! TA.AperFunction,Plated,PTH,ComponentDrill
T7C1.700
; #@! TA.AperFunction,Plated,PTH,ComponentDrill
T8C3.200
%
G90
G05
T1
X86.36Y-56.642
X86.36Y-70.485
X87.63Y-56.642
X87.63Y-70.485
X88.9Y-56.642
X88.9Y-70.485
X90.17Y-56.642
X90.17Y-70.485
X91.44Y-56.642
X91.44Y-70.485
X92.71Y-55.88
X92.71Y-70.485
X93.345Y-54.61
X93.98Y-70.485
X94.615Y-53.975
X95.25Y-69.85
X95.885Y-53.975
X96.52Y-69.215
X97.155Y-53.975
X97.79Y-68.58
X98.425Y-53.975
X99.06Y-67.945
X99.695Y-53.975
X100.965Y-54.61
X102.235Y-55.88
X103.505Y-57.15
X103.505Y-58.42
X115.57Y-109.22
X120.8Y-115.2
X121.92Y-73.025
X122.375Y-111.76
X123.952Y-110.49
X125.5Y-54.0
X132.08Y-50.546
X132.584Y-52.074
X133.096Y-117.602
X133.261Y-77.47
X133.985Y-70.739
X135.852Y-80.772
X136.144Y-85.852
X141.149Y-111.2
X142.748Y-91.948
X148.246Y-93.472
X155.349Y-98.926
X155.725Y-98.0
X156.972Y-92.799
X157.226Y-88.646
X158.75Y-62.23
X161.925Y-62.23
X162.649Y-67.31
X163.068Y-92.748
X163.4Y-99.2
X164.465Y-62.23
X167.347Y-100.33
X167.64Y-62.23
X178.435Y-108.966
X179.68Y-108.931
X180.975Y-108.966
T2
X125.73Y-68.58
X125.73Y-71.12
X125.73Y-73.66
X125.73Y-76.2
X125.73Y-78.74
X125.73Y-81.28
X125.73Y-83.82
X125.73Y-86.36
X125.73Y-88.9
X125.73Y-91.44
X125.73Y-93.98
X125.73Y-96.52
X125.73Y-99.06
X125.73Y-101.6
X125.73Y-104.14
X151.13Y-68.58
X151.13Y-71.12
X151.13Y-73.66
X151.13Y-76.2
X151.13Y-78.74
X151.13Y-81.28
X151.13Y-83.82
X151.13Y-86.36
X151.13Y-88.9
X151.13Y-91.44
X151.13Y-93.98
X151.13Y-96.52
X151.13Y-99.06
X151.13Y-101.6
X151.13Y-104.14
T3
X122.555Y-122.555
X122.555Y-124.555
X122.555Y-126.555
X130.175Y-122.555
X130.175Y-124.555
X130.175Y-126.555
T4
X87.63Y-109.22
X87.63Y-111.76
X87.63Y-114.3
X87.63Y-116.84
X97.79Y-118.11
X100.33Y-118.11
X110.49Y-118.11
X113.03Y-118.11
X120.65Y-85.09
X120.65Y-87.63
X120.65Y-90.17
X120.65Y-92.71
X143.256Y-55.372
X145.796Y-55.372
X148.336Y-55.372
X150.876Y-55.372
X158.75Y-66.04
X158.75Y-68.58
X158.75Y-71.12
X158.75Y-73.66
X158.75Y-76.2
X158.75Y-78.74
X159.131Y-55.626
X161.671Y-55.626
X164.211Y-55.626
X166.751Y-55.626
X173.472Y-91.9
X173.472Y-94.44
X173.472Y-100.79
X173.472Y-103.33
X173.99Y-57.15
X173.99Y-59.69
X173.99Y-62.23
X173.99Y-64.77
X179.07Y-57.15
X179.07Y-59.69
X179.07Y-62.23
X179.07Y-64.77
X179.07Y-72.4
X179.07Y-74.94
X179.07Y-77.48
X179.07Y-80.02
T5
X89.916Y-63.5
X122.555Y-120.455
X122.555Y-128.655
X130.175Y-120.455
X130.175Y-128.655
T6
X96.52Y-127.0
X101.6Y-127.0
X108.585Y-127.0
X113.665Y-127.0
X138.43Y-127.0
X143.51Y-127.0
X149.86Y-127.0
X154.94Y-127.0
T7
X87.376Y-60.96
X87.376Y-66.04
X92.456Y-60.96
X92.456Y-66.04
T8
X88.9Y-49.53
X88.9Y-129.54
X180.34Y-49.53
X180.34Y-129.54
T0
M30
