G04 #@! TF.GenerationSoftware,KiCad,Pcbnew,7.0.2*
G04 #@! TF.CreationDate,2023-05-21T00:08:36-06:00*
G04 #@! TF.ProjectId,Project-Supernova-PCB,50726f6a-6563-4742-9d53-757065726e6f,rev?*
G04 #@! TF.SameCoordinates,Original*
G04 #@! TF.FileFunction,Legend,Bot*
G04 #@! TF.FilePolarity,Positive*
%FSLAX46Y46*%
G04 Gerber Fmt 4.6, Leading zero omitted, Abs format (unit mm)*
G04 Created by KiCad (PCBNEW 7.0.2) date 2023-05-21 00:08:36*
%MOMM*%
%LPD*%
G01*
G04 APERTURE LIST*
%ADD10C,0.350000*%
%ADD11C,0.500000*%
%ADD12C,0.150000*%
%ADD13C,3.500000*%
%ADD14R,1.900000X1.900000*%
%ADD15C,2.000000*%
%ADD16R,1.700000X1.700000*%
%ADD17O,1.700000X1.700000*%
%ADD18O,3.500000X2.200000*%
%ADD19R,2.500000X1.500000*%
%ADD20O,2.500000X1.500000*%
%ADD21R,3.000000X3.000000*%
%ADD22C,3.000000*%
%ADD23C,5.600000*%
%ADD24C,1.524000*%
%ADD25C,2.050000*%
%ADD26C,2.250000*%
%ADD27R,2.000000X2.000000*%
G04 APERTURE END LIST*
D10*
X174963309Y-119317453D02*
X175529976Y-118507929D01*
X175934738Y-119317453D02*
X175934738Y-117617453D01*
X175934738Y-117617453D02*
X175287119Y-117617453D01*
X175287119Y-117617453D02*
X175125214Y-117698405D01*
X175125214Y-117698405D02*
X175044261Y-117779358D01*
X175044261Y-117779358D02*
X174963309Y-117941262D01*
X174963309Y-117941262D02*
X174963309Y-118184120D01*
X174963309Y-118184120D02*
X175044261Y-118346024D01*
X175044261Y-118346024D02*
X175125214Y-118426977D01*
X175125214Y-118426977D02*
X175287119Y-118507929D01*
X175287119Y-118507929D02*
X175934738Y-118507929D01*
X174234738Y-118426977D02*
X173668071Y-118426977D01*
X173425214Y-119317453D02*
X174234738Y-119317453D01*
X174234738Y-119317453D02*
X174234738Y-117617453D01*
X174234738Y-117617453D02*
X173425214Y-117617453D01*
X172939500Y-117617453D02*
X172372833Y-119317453D01*
X172372833Y-119317453D02*
X171806166Y-117617453D01*
X169053785Y-119317453D02*
X170025214Y-119317453D01*
X169539500Y-119317453D02*
X169539500Y-117617453D01*
X169539500Y-117617453D02*
X169701404Y-117860310D01*
X169701404Y-117860310D02*
X169863309Y-118022215D01*
X169863309Y-118022215D02*
X170025214Y-118103167D01*
X176015690Y-120533358D02*
X175934738Y-120452405D01*
X175934738Y-120452405D02*
X175772833Y-120371453D01*
X175772833Y-120371453D02*
X175368071Y-120371453D01*
X175368071Y-120371453D02*
X175206166Y-120452405D01*
X175206166Y-120452405D02*
X175125214Y-120533358D01*
X175125214Y-120533358D02*
X175044261Y-120695262D01*
X175044261Y-120695262D02*
X175044261Y-120857167D01*
X175044261Y-120857167D02*
X175125214Y-121100024D01*
X175125214Y-121100024D02*
X176096642Y-122071453D01*
X176096642Y-122071453D02*
X175044261Y-122071453D01*
X173991880Y-120371453D02*
X173829975Y-120371453D01*
X173829975Y-120371453D02*
X173668071Y-120452405D01*
X173668071Y-120452405D02*
X173587118Y-120533358D01*
X173587118Y-120533358D02*
X173506166Y-120695262D01*
X173506166Y-120695262D02*
X173425213Y-121019072D01*
X173425213Y-121019072D02*
X173425213Y-121423834D01*
X173425213Y-121423834D02*
X173506166Y-121747643D01*
X173506166Y-121747643D02*
X173587118Y-121909548D01*
X173587118Y-121909548D02*
X173668071Y-121990501D01*
X173668071Y-121990501D02*
X173829975Y-122071453D01*
X173829975Y-122071453D02*
X173991880Y-122071453D01*
X173991880Y-122071453D02*
X174153785Y-121990501D01*
X174153785Y-121990501D02*
X174234737Y-121909548D01*
X174234737Y-121909548D02*
X174315690Y-121747643D01*
X174315690Y-121747643D02*
X174396642Y-121423834D01*
X174396642Y-121423834D02*
X174396642Y-121019072D01*
X174396642Y-121019072D02*
X174315690Y-120695262D01*
X174315690Y-120695262D02*
X174234737Y-120533358D01*
X174234737Y-120533358D02*
X174153785Y-120452405D01*
X174153785Y-120452405D02*
X173991880Y-120371453D01*
X172777594Y-120533358D02*
X172696642Y-120452405D01*
X172696642Y-120452405D02*
X172534737Y-120371453D01*
X172534737Y-120371453D02*
X172129975Y-120371453D01*
X172129975Y-120371453D02*
X171968070Y-120452405D01*
X171968070Y-120452405D02*
X171887118Y-120533358D01*
X171887118Y-120533358D02*
X171806165Y-120695262D01*
X171806165Y-120695262D02*
X171806165Y-120857167D01*
X171806165Y-120857167D02*
X171887118Y-121100024D01*
X171887118Y-121100024D02*
X172858546Y-122071453D01*
X172858546Y-122071453D02*
X171806165Y-122071453D01*
X171239498Y-120371453D02*
X170187117Y-120371453D01*
X170187117Y-120371453D02*
X170753784Y-121019072D01*
X170753784Y-121019072D02*
X170510927Y-121019072D01*
X170510927Y-121019072D02*
X170349022Y-121100024D01*
X170349022Y-121100024D02*
X170268070Y-121180977D01*
X170268070Y-121180977D02*
X170187117Y-121342881D01*
X170187117Y-121342881D02*
X170187117Y-121747643D01*
X170187117Y-121747643D02*
X170268070Y-121909548D01*
X170268070Y-121909548D02*
X170349022Y-121990501D01*
X170349022Y-121990501D02*
X170510927Y-122071453D01*
X170510927Y-122071453D02*
X170996641Y-122071453D01*
X170996641Y-122071453D02*
X171158546Y-121990501D01*
X171158546Y-121990501D02*
X171239498Y-121909548D01*
X169458546Y-121423834D02*
X168163308Y-121423834D01*
X167029974Y-120371453D02*
X166868069Y-120371453D01*
X166868069Y-120371453D02*
X166706165Y-120452405D01*
X166706165Y-120452405D02*
X166625212Y-120533358D01*
X166625212Y-120533358D02*
X166544260Y-120695262D01*
X166544260Y-120695262D02*
X166463307Y-121019072D01*
X166463307Y-121019072D02*
X166463307Y-121423834D01*
X166463307Y-121423834D02*
X166544260Y-121747643D01*
X166544260Y-121747643D02*
X166625212Y-121909548D01*
X166625212Y-121909548D02*
X166706165Y-121990501D01*
X166706165Y-121990501D02*
X166868069Y-122071453D01*
X166868069Y-122071453D02*
X167029974Y-122071453D01*
X167029974Y-122071453D02*
X167191879Y-121990501D01*
X167191879Y-121990501D02*
X167272831Y-121909548D01*
X167272831Y-121909548D02*
X167353784Y-121747643D01*
X167353784Y-121747643D02*
X167434736Y-121423834D01*
X167434736Y-121423834D02*
X167434736Y-121019072D01*
X167434736Y-121019072D02*
X167353784Y-120695262D01*
X167353784Y-120695262D02*
X167272831Y-120533358D01*
X167272831Y-120533358D02*
X167191879Y-120452405D01*
X167191879Y-120452405D02*
X167029974Y-120371453D01*
X164925212Y-120371453D02*
X165734736Y-120371453D01*
X165734736Y-120371453D02*
X165815688Y-121180977D01*
X165815688Y-121180977D02*
X165734736Y-121100024D01*
X165734736Y-121100024D02*
X165572831Y-121019072D01*
X165572831Y-121019072D02*
X165168069Y-121019072D01*
X165168069Y-121019072D02*
X165006164Y-121100024D01*
X165006164Y-121100024D02*
X164925212Y-121180977D01*
X164925212Y-121180977D02*
X164844259Y-121342881D01*
X164844259Y-121342881D02*
X164844259Y-121747643D01*
X164844259Y-121747643D02*
X164925212Y-121909548D01*
X164925212Y-121909548D02*
X165006164Y-121990501D01*
X165006164Y-121990501D02*
X165168069Y-122071453D01*
X165168069Y-122071453D02*
X165572831Y-122071453D01*
X165572831Y-122071453D02*
X165734736Y-121990501D01*
X165734736Y-121990501D02*
X165815688Y-121909548D01*
X164115688Y-121423834D02*
X162820450Y-121423834D01*
X162091878Y-120533358D02*
X162010926Y-120452405D01*
X162010926Y-120452405D02*
X161849021Y-120371453D01*
X161849021Y-120371453D02*
X161444259Y-120371453D01*
X161444259Y-120371453D02*
X161282354Y-120452405D01*
X161282354Y-120452405D02*
X161201402Y-120533358D01*
X161201402Y-120533358D02*
X161120449Y-120695262D01*
X161120449Y-120695262D02*
X161120449Y-120857167D01*
X161120449Y-120857167D02*
X161201402Y-121100024D01*
X161201402Y-121100024D02*
X162172830Y-122071453D01*
X162172830Y-122071453D02*
X161120449Y-122071453D01*
X159501401Y-122071453D02*
X160472830Y-122071453D01*
X159987116Y-122071453D02*
X159987116Y-120371453D01*
X159987116Y-120371453D02*
X160149020Y-120614310D01*
X160149020Y-120614310D02*
X160310925Y-120776215D01*
X160310925Y-120776215D02*
X160472830Y-120857167D01*
X175368071Y-123934977D02*
X175125214Y-124015929D01*
X175125214Y-124015929D02*
X175044261Y-124096881D01*
X175044261Y-124096881D02*
X174963309Y-124258786D01*
X174963309Y-124258786D02*
X174963309Y-124501643D01*
X174963309Y-124501643D02*
X175044261Y-124663548D01*
X175044261Y-124663548D02*
X175125214Y-124744501D01*
X175125214Y-124744501D02*
X175287119Y-124825453D01*
X175287119Y-124825453D02*
X175934738Y-124825453D01*
X175934738Y-124825453D02*
X175934738Y-123125453D01*
X175934738Y-123125453D02*
X175368071Y-123125453D01*
X175368071Y-123125453D02*
X175206166Y-123206405D01*
X175206166Y-123206405D02*
X175125214Y-123287358D01*
X175125214Y-123287358D02*
X175044261Y-123449262D01*
X175044261Y-123449262D02*
X175044261Y-123611167D01*
X175044261Y-123611167D02*
X175125214Y-123773072D01*
X175125214Y-123773072D02*
X175206166Y-123854024D01*
X175206166Y-123854024D02*
X175368071Y-123934977D01*
X175368071Y-123934977D02*
X175934738Y-123934977D01*
X173506166Y-124825453D02*
X173506166Y-123934977D01*
X173506166Y-123934977D02*
X173587119Y-123773072D01*
X173587119Y-123773072D02*
X173749023Y-123692120D01*
X173749023Y-123692120D02*
X174072833Y-123692120D01*
X174072833Y-123692120D02*
X174234738Y-123773072D01*
X173506166Y-124744501D02*
X173668071Y-124825453D01*
X173668071Y-124825453D02*
X174072833Y-124825453D01*
X174072833Y-124825453D02*
X174234738Y-124744501D01*
X174234738Y-124744501D02*
X174315690Y-124582596D01*
X174315690Y-124582596D02*
X174315690Y-124420691D01*
X174315690Y-124420691D02*
X174234738Y-124258786D01*
X174234738Y-124258786D02*
X174072833Y-124177834D01*
X174072833Y-124177834D02*
X173668071Y-124177834D01*
X173668071Y-124177834D02*
X173506166Y-124096881D01*
X172453785Y-124825453D02*
X172615690Y-124744501D01*
X172615690Y-124744501D02*
X172696643Y-124582596D01*
X172696643Y-124582596D02*
X172696643Y-123125453D01*
X171563309Y-124825453D02*
X171725214Y-124744501D01*
X171725214Y-124744501D02*
X171806167Y-124582596D01*
X171806167Y-124582596D02*
X171806167Y-123125453D01*
X170672833Y-124825453D02*
X170834738Y-124744501D01*
X170834738Y-124744501D02*
X170915691Y-124663548D01*
X170915691Y-124663548D02*
X170996643Y-124501643D01*
X170996643Y-124501643D02*
X170996643Y-124015929D01*
X170996643Y-124015929D02*
X170915691Y-123854024D01*
X170915691Y-123854024D02*
X170834738Y-123773072D01*
X170834738Y-123773072D02*
X170672833Y-123692120D01*
X170672833Y-123692120D02*
X170429976Y-123692120D01*
X170429976Y-123692120D02*
X170268072Y-123773072D01*
X170268072Y-123773072D02*
X170187119Y-123854024D01*
X170187119Y-123854024D02*
X170106167Y-124015929D01*
X170106167Y-124015929D02*
X170106167Y-124501643D01*
X170106167Y-124501643D02*
X170187119Y-124663548D01*
X170187119Y-124663548D02*
X170268072Y-124744501D01*
X170268072Y-124744501D02*
X170429976Y-124825453D01*
X170429976Y-124825453D02*
X170672833Y-124825453D01*
X169134738Y-124825453D02*
X169296643Y-124744501D01*
X169296643Y-124744501D02*
X169377596Y-124663548D01*
X169377596Y-124663548D02*
X169458548Y-124501643D01*
X169458548Y-124501643D02*
X169458548Y-124015929D01*
X169458548Y-124015929D02*
X169377596Y-123854024D01*
X169377596Y-123854024D02*
X169296643Y-123773072D01*
X169296643Y-123773072D02*
X169134738Y-123692120D01*
X169134738Y-123692120D02*
X168891881Y-123692120D01*
X168891881Y-123692120D02*
X168729977Y-123773072D01*
X168729977Y-123773072D02*
X168649024Y-123854024D01*
X168649024Y-123854024D02*
X168568072Y-124015929D01*
X168568072Y-124015929D02*
X168568072Y-124501643D01*
X168568072Y-124501643D02*
X168649024Y-124663548D01*
X168649024Y-124663548D02*
X168729977Y-124744501D01*
X168729977Y-124744501D02*
X168891881Y-124825453D01*
X168891881Y-124825453D02*
X169134738Y-124825453D01*
X167839501Y-123692120D02*
X167839501Y-124825453D01*
X167839501Y-123854024D02*
X167758548Y-123773072D01*
X167758548Y-123773072D02*
X167596643Y-123692120D01*
X167596643Y-123692120D02*
X167353786Y-123692120D01*
X167353786Y-123692120D02*
X167191882Y-123773072D01*
X167191882Y-123773072D02*
X167110929Y-123934977D01*
X167110929Y-123934977D02*
X167110929Y-124825453D01*
X165006168Y-124825453D02*
X165006168Y-123125453D01*
X165006168Y-123125453D02*
X164358549Y-123125453D01*
X164358549Y-123125453D02*
X164196644Y-123206405D01*
X164196644Y-123206405D02*
X164115691Y-123287358D01*
X164115691Y-123287358D02*
X164034739Y-123449262D01*
X164034739Y-123449262D02*
X164034739Y-123692120D01*
X164034739Y-123692120D02*
X164115691Y-123854024D01*
X164115691Y-123854024D02*
X164196644Y-123934977D01*
X164196644Y-123934977D02*
X164358549Y-124015929D01*
X164358549Y-124015929D02*
X165006168Y-124015929D01*
X162577596Y-124825453D02*
X162577596Y-123934977D01*
X162577596Y-123934977D02*
X162658549Y-123773072D01*
X162658549Y-123773072D02*
X162820453Y-123692120D01*
X162820453Y-123692120D02*
X163144263Y-123692120D01*
X163144263Y-123692120D02*
X163306168Y-123773072D01*
X162577596Y-124744501D02*
X162739501Y-124825453D01*
X162739501Y-124825453D02*
X163144263Y-124825453D01*
X163144263Y-124825453D02*
X163306168Y-124744501D01*
X163306168Y-124744501D02*
X163387120Y-124582596D01*
X163387120Y-124582596D02*
X163387120Y-124420691D01*
X163387120Y-124420691D02*
X163306168Y-124258786D01*
X163306168Y-124258786D02*
X163144263Y-124177834D01*
X163144263Y-124177834D02*
X162739501Y-124177834D01*
X162739501Y-124177834D02*
X162577596Y-124096881D01*
X161525215Y-124825453D02*
X161687120Y-124744501D01*
X161687120Y-124744501D02*
X161768073Y-124582596D01*
X161768073Y-124582596D02*
X161768073Y-123125453D01*
X160958549Y-124744501D02*
X160796644Y-124825453D01*
X160796644Y-124825453D02*
X160472835Y-124825453D01*
X160472835Y-124825453D02*
X160310930Y-124744501D01*
X160310930Y-124744501D02*
X160229978Y-124582596D01*
X160229978Y-124582596D02*
X160229978Y-124501643D01*
X160229978Y-124501643D02*
X160310930Y-124339739D01*
X160310930Y-124339739D02*
X160472835Y-124258786D01*
X160472835Y-124258786D02*
X160715692Y-124258786D01*
X160715692Y-124258786D02*
X160877597Y-124177834D01*
X160877597Y-124177834D02*
X160958549Y-124015929D01*
X160958549Y-124015929D02*
X160958549Y-123934977D01*
X160958549Y-123934977D02*
X160877597Y-123773072D01*
X160877597Y-123773072D02*
X160715692Y-123692120D01*
X160715692Y-123692120D02*
X160472835Y-123692120D01*
X160472835Y-123692120D02*
X160310930Y-123773072D01*
D11*
X158305500Y-126365000D02*
X176974500Y-126365000D01*
X176974500Y-116205000D01*
X158305500Y-116205000D01*
X158305500Y-126365000D01*
D12*
X123571000Y-51816000D02*
X180975000Y-51816000D01*
X180975000Y-114300000D01*
X123571000Y-114300000D01*
X123571000Y-51816000D01*
G36*
X123571000Y-51816000D02*
G01*
X180975000Y-51816000D01*
X180975000Y-114300000D01*
X123571000Y-114300000D01*
X123571000Y-51816000D01*
G37*
%LPC*%
D13*
X166380000Y-67310000D03*
X166380000Y-77470000D03*
D14*
X158750000Y-66040000D03*
D15*
X158750000Y-68580000D03*
X158750000Y-71120000D03*
X158750000Y-73660000D03*
X158750000Y-76200000D03*
X158750000Y-78740000D03*
D16*
X173472500Y-91900000D03*
D17*
X173472500Y-94440000D03*
D18*
X122555000Y-128655000D03*
X122555000Y-120455000D03*
D19*
X122555000Y-126555000D03*
D20*
X122555000Y-124555000D03*
X122555000Y-122555000D03*
D16*
X173472500Y-100790000D03*
D17*
X173472500Y-103330000D03*
D21*
X149860000Y-127000000D03*
D22*
X154940000Y-127000000D03*
D16*
X146065000Y-55880000D03*
D17*
X148605000Y-55880000D03*
X151145000Y-55880000D03*
D16*
X99060000Y-104140000D03*
D17*
X99060000Y-106680000D03*
D23*
X88900000Y-129540000D03*
X180340000Y-129540000D03*
D16*
X166751000Y-55626000D03*
D17*
X164211000Y-55626000D03*
X161671000Y-55626000D03*
X159131000Y-55626000D03*
D18*
X130175000Y-128655000D03*
X130175000Y-120455000D03*
D19*
X130175000Y-126555000D03*
D20*
X130175000Y-124555000D03*
X130175000Y-122555000D03*
D24*
X125730000Y-68580000D03*
X125730000Y-71120000D03*
X125730000Y-73660000D03*
X125730000Y-76200000D03*
X125730000Y-78740000D03*
X125730000Y-81280000D03*
X125730000Y-83820000D03*
X125730000Y-86360000D03*
X125730000Y-88900000D03*
X125730000Y-91440000D03*
X125730000Y-93980000D03*
X125730000Y-96520000D03*
X125730000Y-99060000D03*
X125730000Y-101600000D03*
X125730000Y-104140000D03*
X151130000Y-104140000D03*
X151130000Y-101600000D03*
X151130000Y-99060000D03*
X151130000Y-96520000D03*
X151130000Y-93980000D03*
X151130000Y-91440000D03*
X151130000Y-88900000D03*
X151130000Y-86360000D03*
X151130000Y-83820000D03*
X151130000Y-81280000D03*
X151130000Y-78740000D03*
X151130000Y-76200000D03*
X151130000Y-73660000D03*
X151130000Y-71120000D03*
X151130000Y-68580000D03*
D22*
X179705000Y-92685000D03*
D25*
X89916000Y-63500000D03*
D26*
X87376000Y-60960000D03*
X87376000Y-66040000D03*
X92456000Y-60960000D03*
X92456000Y-66040000D03*
D13*
X119380000Y-78740000D03*
X88900000Y-78740000D03*
X119380000Y-99060000D03*
X88900000Y-99060000D03*
D27*
X120650000Y-85090000D03*
D15*
X120650000Y-87630000D03*
X120650000Y-90170000D03*
X120650000Y-92710000D03*
D23*
X180340000Y-49530000D03*
D16*
X87630000Y-109220000D03*
D17*
X87630000Y-111760000D03*
X87630000Y-114300000D03*
X87630000Y-116840000D03*
D21*
X108585000Y-127000000D03*
D22*
X113665000Y-127000000D03*
D16*
X97790000Y-118110000D03*
D17*
X100330000Y-118110000D03*
D21*
X96520000Y-127000000D03*
D22*
X101600000Y-127000000D03*
X179705000Y-102235000D03*
D16*
X110490000Y-118110000D03*
D17*
X113030000Y-118110000D03*
D21*
X138430000Y-127000000D03*
D22*
X143510000Y-127000000D03*
D23*
X88900000Y-49530000D03*
%LPD*%
M02*
