%TF.GenerationSoftware,KiCad,Pcbnew,7.0.5*%
%TF.CreationDate,2023-07-24T05:32:39-06:00*%
%TF.ProjectId,Project-Supernova-PCB,50726f6a-6563-4742-9d53-757065726e6f,rev?*%
%TF.SameCoordinates,Original*%
%TF.FileFunction,Drillmap*%
%TF.FilePolarity,Positive*%
%FSLAX45Y45*%
G04 Gerber Fmt 4.5, Leading zero omitted, Abs format (unit mm)*
G04 Created by KiCad (PCBNEW 7.0.5) date 2023-07-24 05:32:39*
%MOMM*%
%LPD*%
G01*
G04 APERTURE LIST*
%ADD10C,0.100000*%
%ADD11C,0.200000*%
%ADD12C,0.040000*%
%ADD13C,0.076200*%
%ADD14C,0.080000*%
%ADD15C,0.150000*%
%ADD16C,0.152000*%
%ADD17C,0.170000*%
%ADD18C,0.320000*%
G04 APERTURE END LIST*
D10*
X8509000Y-4572000D02*
X18415000Y-4572000D01*
X18415000Y-13335000D01*
X8509000Y-13335000D01*
X8509000Y-4572000D01*
D11*
D12*
X8616000Y-5644200D02*
X8656000Y-5684200D01*
X8656000Y-5644200D02*
X8616000Y-5684200D01*
X8616000Y-7028500D02*
X8656000Y-7068500D01*
X8656000Y-7028500D02*
X8616000Y-7068500D01*
X8743000Y-5644200D02*
X8783000Y-5684200D01*
X8783000Y-5644200D02*
X8743000Y-5684200D01*
X8743000Y-7028500D02*
X8783000Y-7068500D01*
X8783000Y-7028500D02*
X8743000Y-7068500D01*
X8870000Y-5644200D02*
X8910000Y-5684200D01*
X8910000Y-5644200D02*
X8870000Y-5684200D01*
X8870000Y-7028500D02*
X8910000Y-7068500D01*
X8910000Y-7028500D02*
X8870000Y-7068500D01*
X8997000Y-5644200D02*
X9037000Y-5684200D01*
X9037000Y-5644200D02*
X8997000Y-5684200D01*
X8997000Y-7028500D02*
X9037000Y-7068500D01*
X9037000Y-7028500D02*
X8997000Y-7068500D01*
X9124000Y-5644200D02*
X9164000Y-5684200D01*
X9164000Y-5644200D02*
X9124000Y-5684200D01*
X9124000Y-7028500D02*
X9164000Y-7068500D01*
X9164000Y-7028500D02*
X9124000Y-7068500D01*
X9251000Y-5568000D02*
X9291000Y-5608000D01*
X9291000Y-5568000D02*
X9251000Y-5608000D01*
X9251000Y-7028500D02*
X9291000Y-7068500D01*
X9291000Y-7028500D02*
X9251000Y-7068500D01*
X9314500Y-5441000D02*
X9354500Y-5481000D01*
X9354500Y-5441000D02*
X9314500Y-5481000D01*
X9378000Y-7028500D02*
X9418000Y-7068500D01*
X9418000Y-7028500D02*
X9378000Y-7068500D01*
X9441500Y-5377500D02*
X9481500Y-5417500D01*
X9481500Y-5377500D02*
X9441500Y-5417500D01*
X9505000Y-6965000D02*
X9545000Y-7005000D01*
X9545000Y-6965000D02*
X9505000Y-7005000D01*
X9568500Y-5377500D02*
X9608500Y-5417500D01*
X9608500Y-5377500D02*
X9568500Y-5417500D01*
X9632000Y-6901500D02*
X9672000Y-6941500D01*
X9672000Y-6901500D02*
X9632000Y-6941500D01*
X9695500Y-5377500D02*
X9735500Y-5417500D01*
X9735500Y-5377500D02*
X9695500Y-5417500D01*
X9759000Y-6838000D02*
X9799000Y-6878000D01*
X9799000Y-6838000D02*
X9759000Y-6878000D01*
X9822500Y-5377500D02*
X9862500Y-5417500D01*
X9862500Y-5377500D02*
X9822500Y-5417500D01*
X9886000Y-6774500D02*
X9926000Y-6814500D01*
X9926000Y-6774500D02*
X9886000Y-6814500D01*
X9949500Y-5377500D02*
X9989500Y-5417500D01*
X9989500Y-5377500D02*
X9949500Y-5417500D01*
X10076500Y-5441000D02*
X10116500Y-5481000D01*
X10116500Y-5441000D02*
X10076500Y-5481000D01*
X10203500Y-5568000D02*
X10243500Y-5608000D01*
X10243500Y-5568000D02*
X10203500Y-5608000D01*
X10330500Y-5695000D02*
X10370500Y-5735000D01*
X10370500Y-5695000D02*
X10330500Y-5735000D01*
X10330500Y-5822000D02*
X10370500Y-5862000D01*
X10370500Y-5822000D02*
X10330500Y-5862000D01*
X11537000Y-10902000D02*
X11577000Y-10942000D01*
X11577000Y-10902000D02*
X11537000Y-10942000D01*
X12060000Y-11500000D02*
X12100000Y-11540000D01*
X12100000Y-11500000D02*
X12060000Y-11540000D01*
X12172000Y-7282500D02*
X12212000Y-7322500D01*
X12212000Y-7282500D02*
X12172000Y-7322500D01*
X12217550Y-11156000D02*
X12257550Y-11196000D01*
X12257550Y-11156000D02*
X12217550Y-11196000D01*
X12375200Y-11029000D02*
X12415200Y-11069000D01*
X12415200Y-11029000D02*
X12375200Y-11069000D01*
X12530000Y-5380000D02*
X12570000Y-5420000D01*
X12570000Y-5380000D02*
X12530000Y-5420000D01*
X13188000Y-5034600D02*
X13228000Y-5074600D01*
X13228000Y-5034600D02*
X13188000Y-5074600D01*
X13238370Y-5187430D02*
X13278370Y-5227430D01*
X13278370Y-5187430D02*
X13238370Y-5227430D01*
X13289600Y-11740200D02*
X13329600Y-11780200D01*
X13329600Y-11740200D02*
X13289600Y-11780200D01*
X13306050Y-7727000D02*
X13346050Y-7767000D01*
X13346050Y-7727000D02*
X13306050Y-7767000D01*
X13378500Y-7053900D02*
X13418500Y-7093900D01*
X13418500Y-7053900D02*
X13378500Y-7093900D01*
X13565250Y-8057200D02*
X13605250Y-8097200D01*
X13605250Y-8057200D02*
X13565250Y-8097200D01*
X13594400Y-8565200D02*
X13634400Y-8605200D01*
X13634400Y-8565200D02*
X13594400Y-8605200D01*
X14094900Y-11100000D02*
X14134900Y-11140000D01*
X14134900Y-11100000D02*
X14094900Y-11140000D01*
X14254800Y-9174800D02*
X14294800Y-9214800D01*
X14294800Y-9174800D02*
X14254800Y-9214800D01*
X14804650Y-9327200D02*
X14844650Y-9367200D01*
X14844650Y-9327200D02*
X14804650Y-9367200D01*
X15514881Y-9872621D02*
X15554881Y-9912621D01*
X15554881Y-9872621D02*
X15514881Y-9912621D01*
X15552450Y-9780000D02*
X15592450Y-9820000D01*
X15592450Y-9780000D02*
X15552450Y-9820000D01*
X15677200Y-9259950D02*
X15717200Y-9299950D01*
X15717200Y-9259950D02*
X15677200Y-9299950D01*
X15702600Y-8844600D02*
X15742600Y-8884600D01*
X15742600Y-8844600D02*
X15702600Y-8884600D01*
X15855000Y-6203000D02*
X15895000Y-6243000D01*
X15895000Y-6203000D02*
X15855000Y-6243000D01*
X15982000Y-9378000D02*
X16022000Y-9418000D01*
X16022000Y-9378000D02*
X15982000Y-9418000D01*
X16109000Y-8997000D02*
X16149000Y-9037000D01*
X16149000Y-8997000D02*
X16109000Y-9037000D01*
X16172500Y-6203000D02*
X16212500Y-6243000D01*
X16212500Y-6203000D02*
X16172500Y-6243000D01*
X16244950Y-6711000D02*
X16284950Y-6751000D01*
X16284950Y-6711000D02*
X16244950Y-6751000D01*
X16286800Y-9254750D02*
X16326800Y-9294750D01*
X16326800Y-9254750D02*
X16286800Y-9294750D01*
X16320000Y-9900000D02*
X16360000Y-9940000D01*
X16360000Y-9900000D02*
X16320000Y-9940000D01*
X16426500Y-6203000D02*
X16466500Y-6243000D01*
X16466500Y-6203000D02*
X16426500Y-6243000D01*
X16714750Y-10013000D02*
X16754750Y-10053000D01*
X16754750Y-10013000D02*
X16714750Y-10053000D01*
X16744000Y-6203000D02*
X16784000Y-6243000D01*
X16784000Y-6203000D02*
X16744000Y-6243000D01*
X17823500Y-10876600D02*
X17863500Y-10916600D01*
X17863500Y-10876600D02*
X17823500Y-10916600D01*
X17948000Y-10873100D02*
X17988000Y-10913100D01*
X17988000Y-10873100D02*
X17948000Y-10913100D01*
X18077500Y-10876600D02*
X18117500Y-10916600D01*
X18117500Y-10876600D02*
X18077500Y-10916600D01*
D13*
X12611100Y-6858000D02*
G75*
G03*
X12611100Y-6858000I-38100J0D01*
G01*
X12611100Y-7112000D02*
G75*
G03*
X12611100Y-7112000I-38100J0D01*
G01*
X12611100Y-7366000D02*
G75*
G03*
X12611100Y-7366000I-38100J0D01*
G01*
X12611100Y-7620000D02*
G75*
G03*
X12611100Y-7620000I-38100J0D01*
G01*
X12611100Y-7874000D02*
G75*
G03*
X12611100Y-7874000I-38100J0D01*
G01*
X12611100Y-8128000D02*
G75*
G03*
X12611100Y-8128000I-38100J0D01*
G01*
X12611100Y-8382000D02*
G75*
G03*
X12611100Y-8382000I-38100J0D01*
G01*
X12611100Y-8636000D02*
G75*
G03*
X12611100Y-8636000I-38100J0D01*
G01*
X12611100Y-8890000D02*
G75*
G03*
X12611100Y-8890000I-38100J0D01*
G01*
X12611100Y-9144000D02*
G75*
G03*
X12611100Y-9144000I-38100J0D01*
G01*
X12611100Y-9398000D02*
G75*
G03*
X12611100Y-9398000I-38100J0D01*
G01*
X12611100Y-9652000D02*
G75*
G03*
X12611100Y-9652000I-38100J0D01*
G01*
X12611100Y-9906000D02*
G75*
G03*
X12611100Y-9906000I-38100J0D01*
G01*
X12611100Y-10160000D02*
G75*
G03*
X12611100Y-10160000I-38100J0D01*
G01*
X12611100Y-10414000D02*
G75*
G03*
X12611100Y-10414000I-38100J0D01*
G01*
X15151100Y-6858000D02*
G75*
G03*
X15151100Y-6858000I-38100J0D01*
G01*
X15151100Y-7112000D02*
G75*
G03*
X15151100Y-7112000I-38100J0D01*
G01*
X15151100Y-7366000D02*
G75*
G03*
X15151100Y-7366000I-38100J0D01*
G01*
X15151100Y-7620000D02*
G75*
G03*
X15151100Y-7620000I-38100J0D01*
G01*
X15151100Y-7874000D02*
G75*
G03*
X15151100Y-7874000I-38100J0D01*
G01*
X15151100Y-8128000D02*
G75*
G03*
X15151100Y-8128000I-38100J0D01*
G01*
X15151100Y-8382000D02*
G75*
G03*
X15151100Y-8382000I-38100J0D01*
G01*
X15151100Y-8636000D02*
G75*
G03*
X15151100Y-8636000I-38100J0D01*
G01*
X15151100Y-8890000D02*
G75*
G03*
X15151100Y-8890000I-38100J0D01*
G01*
X15151100Y-9144000D02*
G75*
G03*
X15151100Y-9144000I-38100J0D01*
G01*
X15151100Y-9398000D02*
G75*
G03*
X15151100Y-9398000I-38100J0D01*
G01*
X15151100Y-9652000D02*
G75*
G03*
X15151100Y-9652000I-38100J0D01*
G01*
X15151100Y-9906000D02*
G75*
G03*
X15151100Y-9906000I-38100J0D01*
G01*
X15151100Y-10160000D02*
G75*
G03*
X15151100Y-10160000I-38100J0D01*
G01*
X15151100Y-10414000D02*
G75*
G03*
X15151100Y-10414000I-38100J0D01*
G01*
D14*
X12255500Y-12215500D02*
X12255500Y-12295500D01*
X12215500Y-12255500D02*
X12295500Y-12255500D01*
X12255500Y-12415500D02*
X12255500Y-12495500D01*
X12215500Y-12455500D02*
X12295500Y-12455500D01*
X12255500Y-12615500D02*
X12255500Y-12695500D01*
X12215500Y-12655500D02*
X12295500Y-12655500D01*
X13017500Y-12215500D02*
X13017500Y-12295500D01*
X12977500Y-12255500D02*
X13057500Y-12255500D01*
X13017500Y-12415500D02*
X13017500Y-12495500D01*
X12977500Y-12455500D02*
X13057500Y-12455500D01*
X13017500Y-12615500D02*
X13017500Y-12695500D01*
X12977500Y-12655500D02*
X13057500Y-12655500D01*
D10*
X8798356Y-10957356D02*
X8798356Y-10886644D01*
X8727644Y-10886644D01*
X8727644Y-10957356D01*
X8798356Y-10957356D01*
X8798356Y-11211356D02*
X8798356Y-11140644D01*
X8727644Y-11140644D01*
X8727644Y-11211356D01*
X8798356Y-11211356D01*
X8798356Y-11465356D02*
X8798356Y-11394644D01*
X8727644Y-11394644D01*
X8727644Y-11465356D01*
X8798356Y-11465356D01*
X8798356Y-11719356D02*
X8798356Y-11648644D01*
X8727644Y-11648644D01*
X8727644Y-11719356D01*
X8798356Y-11719356D01*
X9814356Y-11846356D02*
X9814356Y-11775644D01*
X9743644Y-11775644D01*
X9743644Y-11846356D01*
X9814356Y-11846356D01*
X10068356Y-11846356D02*
X10068356Y-11775644D01*
X9997644Y-11775644D01*
X9997644Y-11846356D01*
X10068356Y-11846356D01*
X11084356Y-11846356D02*
X11084356Y-11775644D01*
X11013644Y-11775644D01*
X11013644Y-11846356D01*
X11084356Y-11846356D01*
X11338356Y-11846356D02*
X11338356Y-11775644D01*
X11267644Y-11775644D01*
X11267644Y-11846356D01*
X11338356Y-11846356D01*
X12100356Y-8544356D02*
X12100356Y-8473644D01*
X12029644Y-8473644D01*
X12029644Y-8544356D01*
X12100356Y-8544356D01*
X12100356Y-8798356D02*
X12100356Y-8727644D01*
X12029644Y-8727644D01*
X12029644Y-8798356D01*
X12100356Y-8798356D01*
X12100356Y-9052356D02*
X12100356Y-8981644D01*
X12029644Y-8981644D01*
X12029644Y-9052356D01*
X12100356Y-9052356D01*
X12100356Y-9306356D02*
X12100356Y-9235644D01*
X12029644Y-9235644D01*
X12029644Y-9306356D01*
X12100356Y-9306356D01*
X14360956Y-5572556D02*
X14360956Y-5501844D01*
X14290244Y-5501844D01*
X14290244Y-5572556D01*
X14360956Y-5572556D01*
X14614956Y-5572556D02*
X14614956Y-5501844D01*
X14544244Y-5501844D01*
X14544244Y-5572556D01*
X14614956Y-5572556D01*
X14868956Y-5572556D02*
X14868956Y-5501844D01*
X14798244Y-5501844D01*
X14798244Y-5572556D01*
X14868956Y-5572556D01*
X15122956Y-5572556D02*
X15122956Y-5501844D01*
X15052244Y-5501844D01*
X15052244Y-5572556D01*
X15122956Y-5572556D01*
X15910356Y-6639356D02*
X15910356Y-6568644D01*
X15839644Y-6568644D01*
X15839644Y-6639356D01*
X15910356Y-6639356D01*
X15910356Y-6893356D02*
X15910356Y-6822644D01*
X15839644Y-6822644D01*
X15839644Y-6893356D01*
X15910356Y-6893356D01*
X15910356Y-7147356D02*
X15910356Y-7076644D01*
X15839644Y-7076644D01*
X15839644Y-7147356D01*
X15910356Y-7147356D01*
X15910356Y-7401356D02*
X15910356Y-7330644D01*
X15839644Y-7330644D01*
X15839644Y-7401356D01*
X15910356Y-7401356D01*
X15910356Y-7655356D02*
X15910356Y-7584644D01*
X15839644Y-7584644D01*
X15839644Y-7655356D01*
X15910356Y-7655356D01*
X15910356Y-7909356D02*
X15910356Y-7838644D01*
X15839644Y-7838644D01*
X15839644Y-7909356D01*
X15910356Y-7909356D01*
X15948456Y-5597956D02*
X15948456Y-5527244D01*
X15877744Y-5527244D01*
X15877744Y-5597956D01*
X15948456Y-5597956D01*
X16202456Y-5597956D02*
X16202456Y-5527244D01*
X16131744Y-5527244D01*
X16131744Y-5597956D01*
X16202456Y-5597956D01*
X16456456Y-5597956D02*
X16456456Y-5527244D01*
X16385744Y-5527244D01*
X16385744Y-5597956D01*
X16456456Y-5597956D01*
X16710456Y-5597956D02*
X16710456Y-5527244D01*
X16639744Y-5527244D01*
X16639744Y-5597956D01*
X16710456Y-5597956D01*
X17382606Y-9225356D02*
X17382606Y-9154644D01*
X17311894Y-9154644D01*
X17311894Y-9225356D01*
X17382606Y-9225356D01*
X17382606Y-9479356D02*
X17382606Y-9408644D01*
X17311894Y-9408644D01*
X17311894Y-9479356D01*
X17382606Y-9479356D01*
X17382606Y-10114356D02*
X17382606Y-10043644D01*
X17311894Y-10043644D01*
X17311894Y-10114356D01*
X17382606Y-10114356D01*
X17382606Y-10368356D02*
X17382606Y-10297644D01*
X17311894Y-10297644D01*
X17311894Y-10368356D01*
X17382606Y-10368356D01*
X17434356Y-5750356D02*
X17434356Y-5679644D01*
X17363644Y-5679644D01*
X17363644Y-5750356D01*
X17434356Y-5750356D01*
X17434356Y-6004356D02*
X17434356Y-5933644D01*
X17363644Y-5933644D01*
X17363644Y-6004356D01*
X17434356Y-6004356D01*
X17434356Y-6258356D02*
X17434356Y-6187644D01*
X17363644Y-6187644D01*
X17363644Y-6258356D01*
X17434356Y-6258356D01*
X17434356Y-6512356D02*
X17434356Y-6441644D01*
X17363644Y-6441644D01*
X17363644Y-6512356D01*
X17434356Y-6512356D01*
X17942356Y-5750356D02*
X17942356Y-5679644D01*
X17871644Y-5679644D01*
X17871644Y-5750356D01*
X17942356Y-5750356D01*
X17942356Y-6004356D02*
X17942356Y-5933644D01*
X17871644Y-5933644D01*
X17871644Y-6004356D01*
X17942356Y-6004356D01*
X17942356Y-6258356D02*
X17942356Y-6187644D01*
X17871644Y-6187644D01*
X17871644Y-6258356D01*
X17942356Y-6258356D01*
X17942356Y-6512356D02*
X17942356Y-6441644D01*
X17871644Y-6441644D01*
X17871644Y-6512356D01*
X17942356Y-6512356D01*
X17942356Y-7275356D02*
X17942356Y-7204644D01*
X17871644Y-7204644D01*
X17871644Y-7275356D01*
X17942356Y-7275356D01*
X17942356Y-7529356D02*
X17942356Y-7458644D01*
X17871644Y-7458644D01*
X17871644Y-7529356D01*
X17942356Y-7529356D01*
X17942356Y-7783356D02*
X17942356Y-7712644D01*
X17871644Y-7712644D01*
X17871644Y-7783356D01*
X17942356Y-7783356D01*
X17942356Y-8037356D02*
X17942356Y-7966644D01*
X17871644Y-7966644D01*
X17871644Y-8037356D01*
X17942356Y-8037356D01*
D15*
X8991600Y-6425000D02*
X9066600Y-6350000D01*
X8991600Y-6275000D01*
X8916600Y-6350000D01*
X8991600Y-6425000D01*
X12255500Y-12120500D02*
X12330500Y-12045500D01*
X12255500Y-11970500D01*
X12180500Y-12045500D01*
X12255500Y-12120500D01*
X12255500Y-12940500D02*
X12330500Y-12865500D01*
X12255500Y-12790500D01*
X12180500Y-12865500D01*
X12255500Y-12940500D01*
X13017500Y-12120500D02*
X13092500Y-12045500D01*
X13017500Y-11970500D01*
X12942500Y-12045500D01*
X13017500Y-12120500D01*
X13017500Y-12940500D02*
X13092500Y-12865500D01*
X13017500Y-12790500D01*
X12942500Y-12865500D01*
X13017500Y-12940500D01*
D16*
X9576000Y-12624000D02*
X9728000Y-12776000D01*
X9728000Y-12624000D02*
X9576000Y-12776000D01*
X9728000Y-12700000D02*
G75*
G03*
X9728000Y-12700000I-76000J0D01*
G01*
X10084000Y-12624000D02*
X10236000Y-12776000D01*
X10236000Y-12624000D02*
X10084000Y-12776000D01*
X10236000Y-12700000D02*
G75*
G03*
X10236000Y-12700000I-76000J0D01*
G01*
X10782500Y-12624000D02*
X10934500Y-12776000D01*
X10934500Y-12624000D02*
X10782500Y-12776000D01*
X10934500Y-12700000D02*
G75*
G03*
X10934500Y-12700000I-76000J0D01*
G01*
X11290500Y-12624000D02*
X11442500Y-12776000D01*
X11442500Y-12624000D02*
X11290500Y-12776000D01*
X11442500Y-12700000D02*
G75*
G03*
X11442500Y-12700000I-76000J0D01*
G01*
X13767000Y-12624000D02*
X13919000Y-12776000D01*
X13919000Y-12624000D02*
X13767000Y-12776000D01*
X13919000Y-12700000D02*
G75*
G03*
X13919000Y-12700000I-76000J0D01*
G01*
X14275000Y-12624000D02*
X14427000Y-12776000D01*
X14427000Y-12624000D02*
X14275000Y-12776000D01*
X14427000Y-12700000D02*
G75*
G03*
X14427000Y-12700000I-76000J0D01*
G01*
X14910000Y-12624000D02*
X15062000Y-12776000D01*
X15062000Y-12624000D02*
X14910000Y-12776000D01*
X15062000Y-12700000D02*
G75*
G03*
X15062000Y-12700000I-76000J0D01*
G01*
X15418000Y-12624000D02*
X15570000Y-12776000D01*
X15570000Y-12624000D02*
X15418000Y-12776000D01*
X15570000Y-12700000D02*
G75*
G03*
X15570000Y-12700000I-76000J0D01*
G01*
D17*
X8652600Y-6011000D02*
X8822600Y-6181000D01*
X8822600Y-6011000D02*
X8652600Y-6181000D01*
X8737600Y-6011000D02*
X8737600Y-6181000D01*
X8652600Y-6096000D02*
X8822600Y-6096000D01*
X8652600Y-6519000D02*
X8822600Y-6689000D01*
X8822600Y-6519000D02*
X8652600Y-6689000D01*
X8737600Y-6519000D02*
X8737600Y-6689000D01*
X8652600Y-6604000D02*
X8822600Y-6604000D01*
X9160600Y-6011000D02*
X9330600Y-6181000D01*
X9330600Y-6011000D02*
X9160600Y-6181000D01*
X9245600Y-6011000D02*
X9245600Y-6181000D01*
X9160600Y-6096000D02*
X9330600Y-6096000D01*
X9160600Y-6519000D02*
X9330600Y-6689000D01*
X9330600Y-6519000D02*
X9160600Y-6689000D01*
X9245600Y-6519000D02*
X9245600Y-6689000D01*
X9160600Y-6604000D02*
X9330600Y-6604000D01*
D18*
X8730000Y-4793000D02*
X9050000Y-5113000D01*
X9050000Y-4793000D02*
X8730000Y-5113000D01*
X9003138Y-5066138D02*
X9003138Y-4839862D01*
X8776862Y-4839862D01*
X8776862Y-5066138D01*
X9003138Y-5066138D01*
X8730000Y-12794000D02*
X9050000Y-13114000D01*
X9050000Y-12794000D02*
X8730000Y-13114000D01*
X9003138Y-13067138D02*
X9003138Y-12840862D01*
X8776862Y-12840862D01*
X8776862Y-13067138D01*
X9003138Y-13067138D01*
X17874000Y-4793000D02*
X18194000Y-5113000D01*
X18194000Y-4793000D02*
X17874000Y-5113000D01*
X18147138Y-5066138D02*
X18147138Y-4839862D01*
X17920862Y-4839862D01*
X17920862Y-5066138D01*
X18147138Y-5066138D01*
X17874000Y-12794000D02*
X18194000Y-13114000D01*
X18194000Y-12794000D02*
X17874000Y-13114000D01*
X18147138Y-13067138D02*
X18147138Y-12840862D01*
X17920862Y-12840862D01*
X17920862Y-13067138D01*
X18147138Y-13067138D01*
D11*
X8764777Y-13651484D02*
X8764777Y-13451484D01*
X8764777Y-13451484D02*
X8812396Y-13451484D01*
X8812396Y-13451484D02*
X8840967Y-13461008D01*
X8840967Y-13461008D02*
X8860015Y-13480055D01*
X8860015Y-13480055D02*
X8869539Y-13499103D01*
X8869539Y-13499103D02*
X8879063Y-13537198D01*
X8879063Y-13537198D02*
X8879063Y-13565769D01*
X8879063Y-13565769D02*
X8869539Y-13603865D01*
X8869539Y-13603865D02*
X8860015Y-13622912D01*
X8860015Y-13622912D02*
X8840967Y-13641960D01*
X8840967Y-13641960D02*
X8812396Y-13651484D01*
X8812396Y-13651484D02*
X8764777Y-13651484D01*
X8964777Y-13651484D02*
X8964777Y-13518150D01*
X8964777Y-13556246D02*
X8974301Y-13537198D01*
X8974301Y-13537198D02*
X8983824Y-13527674D01*
X8983824Y-13527674D02*
X9002872Y-13518150D01*
X9002872Y-13518150D02*
X9021920Y-13518150D01*
X9088586Y-13651484D02*
X9088586Y-13518150D01*
X9088586Y-13451484D02*
X9079063Y-13461008D01*
X9079063Y-13461008D02*
X9088586Y-13470531D01*
X9088586Y-13470531D02*
X9098110Y-13461008D01*
X9098110Y-13461008D02*
X9088586Y-13451484D01*
X9088586Y-13451484D02*
X9088586Y-13470531D01*
X9212396Y-13651484D02*
X9193348Y-13641960D01*
X9193348Y-13641960D02*
X9183824Y-13622912D01*
X9183824Y-13622912D02*
X9183824Y-13451484D01*
X9317158Y-13651484D02*
X9298110Y-13641960D01*
X9298110Y-13641960D02*
X9288586Y-13622912D01*
X9288586Y-13622912D02*
X9288586Y-13451484D01*
X9545729Y-13651484D02*
X9545729Y-13451484D01*
X9545729Y-13451484D02*
X9612396Y-13594341D01*
X9612396Y-13594341D02*
X9679063Y-13451484D01*
X9679063Y-13451484D02*
X9679063Y-13651484D01*
X9860015Y-13651484D02*
X9860015Y-13546722D01*
X9860015Y-13546722D02*
X9850491Y-13527674D01*
X9850491Y-13527674D02*
X9831444Y-13518150D01*
X9831444Y-13518150D02*
X9793348Y-13518150D01*
X9793348Y-13518150D02*
X9774301Y-13527674D01*
X9860015Y-13641960D02*
X9840967Y-13651484D01*
X9840967Y-13651484D02*
X9793348Y-13651484D01*
X9793348Y-13651484D02*
X9774301Y-13641960D01*
X9774301Y-13641960D02*
X9764777Y-13622912D01*
X9764777Y-13622912D02*
X9764777Y-13603865D01*
X9764777Y-13603865D02*
X9774301Y-13584817D01*
X9774301Y-13584817D02*
X9793348Y-13575293D01*
X9793348Y-13575293D02*
X9840967Y-13575293D01*
X9840967Y-13575293D02*
X9860015Y-13565769D01*
X9955253Y-13518150D02*
X9955253Y-13718150D01*
X9955253Y-13527674D02*
X9974301Y-13518150D01*
X9974301Y-13518150D02*
X10012396Y-13518150D01*
X10012396Y-13518150D02*
X10031444Y-13527674D01*
X10031444Y-13527674D02*
X10040967Y-13537198D01*
X10040967Y-13537198D02*
X10050491Y-13556246D01*
X10050491Y-13556246D02*
X10050491Y-13613388D01*
X10050491Y-13613388D02*
X10040967Y-13632436D01*
X10040967Y-13632436D02*
X10031444Y-13641960D01*
X10031444Y-13641960D02*
X10012396Y-13651484D01*
X10012396Y-13651484D02*
X9974301Y-13651484D01*
X9974301Y-13651484D02*
X9955253Y-13641960D01*
X10136205Y-13632436D02*
X10145729Y-13641960D01*
X10145729Y-13641960D02*
X10136205Y-13651484D01*
X10136205Y-13651484D02*
X10126682Y-13641960D01*
X10126682Y-13641960D02*
X10136205Y-13632436D01*
X10136205Y-13632436D02*
X10136205Y-13651484D01*
X10136205Y-13527674D02*
X10145729Y-13537198D01*
X10145729Y-13537198D02*
X10136205Y-13546722D01*
X10136205Y-13546722D02*
X10126682Y-13537198D01*
X10126682Y-13537198D02*
X10136205Y-13527674D01*
X10136205Y-13527674D02*
X10136205Y-13546722D01*
D12*
X8464000Y-13960000D02*
X8504000Y-14000000D01*
X8504000Y-13960000D02*
X8464000Y-14000000D01*
D11*
X8802872Y-13871484D02*
X8821920Y-13871484D01*
X8821920Y-13871484D02*
X8840967Y-13881008D01*
X8840967Y-13881008D02*
X8850491Y-13890531D01*
X8850491Y-13890531D02*
X8860015Y-13909579D01*
X8860015Y-13909579D02*
X8869539Y-13947674D01*
X8869539Y-13947674D02*
X8869539Y-13995293D01*
X8869539Y-13995293D02*
X8860015Y-14033388D01*
X8860015Y-14033388D02*
X8850491Y-14052436D01*
X8850491Y-14052436D02*
X8840967Y-14061960D01*
X8840967Y-14061960D02*
X8821920Y-14071484D01*
X8821920Y-14071484D02*
X8802872Y-14071484D01*
X8802872Y-14071484D02*
X8783824Y-14061960D01*
X8783824Y-14061960D02*
X8774301Y-14052436D01*
X8774301Y-14052436D02*
X8764777Y-14033388D01*
X8764777Y-14033388D02*
X8755253Y-13995293D01*
X8755253Y-13995293D02*
X8755253Y-13947674D01*
X8755253Y-13947674D02*
X8764777Y-13909579D01*
X8764777Y-13909579D02*
X8774301Y-13890531D01*
X8774301Y-13890531D02*
X8783824Y-13881008D01*
X8783824Y-13881008D02*
X8802872Y-13871484D01*
X8955253Y-14052436D02*
X8964777Y-14061960D01*
X8964777Y-14061960D02*
X8955253Y-14071484D01*
X8955253Y-14071484D02*
X8945729Y-14061960D01*
X8945729Y-14061960D02*
X8955253Y-14052436D01*
X8955253Y-14052436D02*
X8955253Y-14071484D01*
X9136205Y-13938150D02*
X9136205Y-14071484D01*
X9088586Y-13861960D02*
X9040967Y-14004817D01*
X9040967Y-14004817D02*
X9164777Y-14004817D01*
X9279063Y-13871484D02*
X9298110Y-13871484D01*
X9298110Y-13871484D02*
X9317158Y-13881008D01*
X9317158Y-13881008D02*
X9326682Y-13890531D01*
X9326682Y-13890531D02*
X9336205Y-13909579D01*
X9336205Y-13909579D02*
X9345729Y-13947674D01*
X9345729Y-13947674D02*
X9345729Y-13995293D01*
X9345729Y-13995293D02*
X9336205Y-14033388D01*
X9336205Y-14033388D02*
X9326682Y-14052436D01*
X9326682Y-14052436D02*
X9317158Y-14061960D01*
X9317158Y-14061960D02*
X9298110Y-14071484D01*
X9298110Y-14071484D02*
X9279063Y-14071484D01*
X9279063Y-14071484D02*
X9260015Y-14061960D01*
X9260015Y-14061960D02*
X9250491Y-14052436D01*
X9250491Y-14052436D02*
X9240967Y-14033388D01*
X9240967Y-14033388D02*
X9231444Y-13995293D01*
X9231444Y-13995293D02*
X9231444Y-13947674D01*
X9231444Y-13947674D02*
X9240967Y-13909579D01*
X9240967Y-13909579D02*
X9250491Y-13890531D01*
X9250491Y-13890531D02*
X9260015Y-13881008D01*
X9260015Y-13881008D02*
X9279063Y-13871484D01*
X9469539Y-13871484D02*
X9488586Y-13871484D01*
X9488586Y-13871484D02*
X9507634Y-13881008D01*
X9507634Y-13881008D02*
X9517158Y-13890531D01*
X9517158Y-13890531D02*
X9526682Y-13909579D01*
X9526682Y-13909579D02*
X9536205Y-13947674D01*
X9536205Y-13947674D02*
X9536205Y-13995293D01*
X9536205Y-13995293D02*
X9526682Y-14033388D01*
X9526682Y-14033388D02*
X9517158Y-14052436D01*
X9517158Y-14052436D02*
X9507634Y-14061960D01*
X9507634Y-14061960D02*
X9488586Y-14071484D01*
X9488586Y-14071484D02*
X9469539Y-14071484D01*
X9469539Y-14071484D02*
X9450491Y-14061960D01*
X9450491Y-14061960D02*
X9440967Y-14052436D01*
X9440967Y-14052436D02*
X9431444Y-14033388D01*
X9431444Y-14033388D02*
X9421920Y-13995293D01*
X9421920Y-13995293D02*
X9421920Y-13947674D01*
X9421920Y-13947674D02*
X9431444Y-13909579D01*
X9431444Y-13909579D02*
X9440967Y-13890531D01*
X9440967Y-13890531D02*
X9450491Y-13881008D01*
X9450491Y-13881008D02*
X9469539Y-13871484D01*
X9621920Y-14071484D02*
X9621920Y-13938150D01*
X9621920Y-13957198D02*
X9631444Y-13947674D01*
X9631444Y-13947674D02*
X9650491Y-13938150D01*
X9650491Y-13938150D02*
X9679063Y-13938150D01*
X9679063Y-13938150D02*
X9698110Y-13947674D01*
X9698110Y-13947674D02*
X9707634Y-13966722D01*
X9707634Y-13966722D02*
X9707634Y-14071484D01*
X9707634Y-13966722D02*
X9717158Y-13947674D01*
X9717158Y-13947674D02*
X9736205Y-13938150D01*
X9736205Y-13938150D02*
X9764777Y-13938150D01*
X9764777Y-13938150D02*
X9783825Y-13947674D01*
X9783825Y-13947674D02*
X9793348Y-13966722D01*
X9793348Y-13966722D02*
X9793348Y-14071484D01*
X9888586Y-14071484D02*
X9888586Y-13938150D01*
X9888586Y-13957198D02*
X9898110Y-13947674D01*
X9898110Y-13947674D02*
X9917158Y-13938150D01*
X9917158Y-13938150D02*
X9945729Y-13938150D01*
X9945729Y-13938150D02*
X9964777Y-13947674D01*
X9964777Y-13947674D02*
X9974301Y-13966722D01*
X9974301Y-13966722D02*
X9974301Y-14071484D01*
X9974301Y-13966722D02*
X9983825Y-13947674D01*
X9983825Y-13947674D02*
X10002872Y-13938150D01*
X10002872Y-13938150D02*
X10031444Y-13938150D01*
X10031444Y-13938150D02*
X10050491Y-13947674D01*
X10050491Y-13947674D02*
X10060015Y-13966722D01*
X10060015Y-13966722D02*
X10060015Y-14071484D01*
X10450491Y-13861960D02*
X10279063Y-14119103D01*
X10707634Y-13871484D02*
X10726682Y-13871484D01*
X10726682Y-13871484D02*
X10745729Y-13881008D01*
X10745729Y-13881008D02*
X10755253Y-13890531D01*
X10755253Y-13890531D02*
X10764777Y-13909579D01*
X10764777Y-13909579D02*
X10774301Y-13947674D01*
X10774301Y-13947674D02*
X10774301Y-13995293D01*
X10774301Y-13995293D02*
X10764777Y-14033388D01*
X10764777Y-14033388D02*
X10755253Y-14052436D01*
X10755253Y-14052436D02*
X10745729Y-14061960D01*
X10745729Y-14061960D02*
X10726682Y-14071484D01*
X10726682Y-14071484D02*
X10707634Y-14071484D01*
X10707634Y-14071484D02*
X10688587Y-14061960D01*
X10688587Y-14061960D02*
X10679063Y-14052436D01*
X10679063Y-14052436D02*
X10669539Y-14033388D01*
X10669539Y-14033388D02*
X10660015Y-13995293D01*
X10660015Y-13995293D02*
X10660015Y-13947674D01*
X10660015Y-13947674D02*
X10669539Y-13909579D01*
X10669539Y-13909579D02*
X10679063Y-13890531D01*
X10679063Y-13890531D02*
X10688587Y-13881008D01*
X10688587Y-13881008D02*
X10707634Y-13871484D01*
X10860015Y-14052436D02*
X10869539Y-14061960D01*
X10869539Y-14061960D02*
X10860015Y-14071484D01*
X10860015Y-14071484D02*
X10850491Y-14061960D01*
X10850491Y-14061960D02*
X10860015Y-14052436D01*
X10860015Y-14052436D02*
X10860015Y-14071484D01*
X10993348Y-13871484D02*
X11012396Y-13871484D01*
X11012396Y-13871484D02*
X11031444Y-13881008D01*
X11031444Y-13881008D02*
X11040968Y-13890531D01*
X11040968Y-13890531D02*
X11050491Y-13909579D01*
X11050491Y-13909579D02*
X11060015Y-13947674D01*
X11060015Y-13947674D02*
X11060015Y-13995293D01*
X11060015Y-13995293D02*
X11050491Y-14033388D01*
X11050491Y-14033388D02*
X11040968Y-14052436D01*
X11040968Y-14052436D02*
X11031444Y-14061960D01*
X11031444Y-14061960D02*
X11012396Y-14071484D01*
X11012396Y-14071484D02*
X10993348Y-14071484D01*
X10993348Y-14071484D02*
X10974301Y-14061960D01*
X10974301Y-14061960D02*
X10964777Y-14052436D01*
X10964777Y-14052436D02*
X10955253Y-14033388D01*
X10955253Y-14033388D02*
X10945729Y-13995293D01*
X10945729Y-13995293D02*
X10945729Y-13947674D01*
X10945729Y-13947674D02*
X10955253Y-13909579D01*
X10955253Y-13909579D02*
X10964777Y-13890531D01*
X10964777Y-13890531D02*
X10974301Y-13881008D01*
X10974301Y-13881008D02*
X10993348Y-13871484D01*
X11250491Y-14071484D02*
X11136206Y-14071484D01*
X11193348Y-14071484D02*
X11193348Y-13871484D01*
X11193348Y-13871484D02*
X11174301Y-13900055D01*
X11174301Y-13900055D02*
X11155253Y-13919103D01*
X11155253Y-13919103D02*
X11136206Y-13928627D01*
X11431444Y-13871484D02*
X11336206Y-13871484D01*
X11336206Y-13871484D02*
X11326682Y-13966722D01*
X11326682Y-13966722D02*
X11336206Y-13957198D01*
X11336206Y-13957198D02*
X11355253Y-13947674D01*
X11355253Y-13947674D02*
X11402872Y-13947674D01*
X11402872Y-13947674D02*
X11421920Y-13957198D01*
X11421920Y-13957198D02*
X11431444Y-13966722D01*
X11431444Y-13966722D02*
X11440967Y-13985769D01*
X11440967Y-13985769D02*
X11440967Y-14033388D01*
X11440967Y-14033388D02*
X11431444Y-14052436D01*
X11431444Y-14052436D02*
X11421920Y-14061960D01*
X11421920Y-14061960D02*
X11402872Y-14071484D01*
X11402872Y-14071484D02*
X11355253Y-14071484D01*
X11355253Y-14071484D02*
X11336206Y-14061960D01*
X11336206Y-14061960D02*
X11326682Y-14052436D01*
X11507634Y-13871484D02*
X11640967Y-13871484D01*
X11640967Y-13871484D02*
X11555253Y-14071484D01*
X11707634Y-13871484D02*
X11707634Y-13909579D01*
X11783825Y-13871484D02*
X11783825Y-13909579D01*
X12079063Y-14147674D02*
X12069539Y-14138150D01*
X12069539Y-14138150D02*
X12050491Y-14109579D01*
X12050491Y-14109579D02*
X12040968Y-14090531D01*
X12040968Y-14090531D02*
X12031444Y-14061960D01*
X12031444Y-14061960D02*
X12021920Y-14014341D01*
X12021920Y-14014341D02*
X12021920Y-13976246D01*
X12021920Y-13976246D02*
X12031444Y-13928627D01*
X12031444Y-13928627D02*
X12040968Y-13900055D01*
X12040968Y-13900055D02*
X12050491Y-13881008D01*
X12050491Y-13881008D02*
X12069539Y-13852436D01*
X12069539Y-13852436D02*
X12079063Y-13842912D01*
X12240968Y-13871484D02*
X12202872Y-13871484D01*
X12202872Y-13871484D02*
X12183825Y-13881008D01*
X12183825Y-13881008D02*
X12174301Y-13890531D01*
X12174301Y-13890531D02*
X12155253Y-13919103D01*
X12155253Y-13919103D02*
X12145729Y-13957198D01*
X12145729Y-13957198D02*
X12145729Y-14033388D01*
X12145729Y-14033388D02*
X12155253Y-14052436D01*
X12155253Y-14052436D02*
X12164777Y-14061960D01*
X12164777Y-14061960D02*
X12183825Y-14071484D01*
X12183825Y-14071484D02*
X12221920Y-14071484D01*
X12221920Y-14071484D02*
X12240968Y-14061960D01*
X12240968Y-14061960D02*
X12250491Y-14052436D01*
X12250491Y-14052436D02*
X12260015Y-14033388D01*
X12260015Y-14033388D02*
X12260015Y-13985769D01*
X12260015Y-13985769D02*
X12250491Y-13966722D01*
X12250491Y-13966722D02*
X12240968Y-13957198D01*
X12240968Y-13957198D02*
X12221920Y-13947674D01*
X12221920Y-13947674D02*
X12183825Y-13947674D01*
X12183825Y-13947674D02*
X12164777Y-13957198D01*
X12164777Y-13957198D02*
X12155253Y-13966722D01*
X12155253Y-13966722D02*
X12145729Y-13985769D01*
X12383825Y-13871484D02*
X12402872Y-13871484D01*
X12402872Y-13871484D02*
X12421920Y-13881008D01*
X12421920Y-13881008D02*
X12431444Y-13890531D01*
X12431444Y-13890531D02*
X12440968Y-13909579D01*
X12440968Y-13909579D02*
X12450491Y-13947674D01*
X12450491Y-13947674D02*
X12450491Y-13995293D01*
X12450491Y-13995293D02*
X12440968Y-14033388D01*
X12440968Y-14033388D02*
X12431444Y-14052436D01*
X12431444Y-14052436D02*
X12421920Y-14061960D01*
X12421920Y-14061960D02*
X12402872Y-14071484D01*
X12402872Y-14071484D02*
X12383825Y-14071484D01*
X12383825Y-14071484D02*
X12364777Y-14061960D01*
X12364777Y-14061960D02*
X12355253Y-14052436D01*
X12355253Y-14052436D02*
X12345729Y-14033388D01*
X12345729Y-14033388D02*
X12336206Y-13995293D01*
X12336206Y-13995293D02*
X12336206Y-13947674D01*
X12336206Y-13947674D02*
X12345729Y-13909579D01*
X12345729Y-13909579D02*
X12355253Y-13890531D01*
X12355253Y-13890531D02*
X12364777Y-13881008D01*
X12364777Y-13881008D02*
X12383825Y-13871484D01*
X12688587Y-14071484D02*
X12688587Y-13871484D01*
X12774301Y-14071484D02*
X12774301Y-13966722D01*
X12774301Y-13966722D02*
X12764777Y-13947674D01*
X12764777Y-13947674D02*
X12745730Y-13938150D01*
X12745730Y-13938150D02*
X12717158Y-13938150D01*
X12717158Y-13938150D02*
X12698110Y-13947674D01*
X12698110Y-13947674D02*
X12688587Y-13957198D01*
X12898110Y-14071484D02*
X12879063Y-14061960D01*
X12879063Y-14061960D02*
X12869539Y-14052436D01*
X12869539Y-14052436D02*
X12860015Y-14033388D01*
X12860015Y-14033388D02*
X12860015Y-13976246D01*
X12860015Y-13976246D02*
X12869539Y-13957198D01*
X12869539Y-13957198D02*
X12879063Y-13947674D01*
X12879063Y-13947674D02*
X12898110Y-13938150D01*
X12898110Y-13938150D02*
X12926682Y-13938150D01*
X12926682Y-13938150D02*
X12945730Y-13947674D01*
X12945730Y-13947674D02*
X12955253Y-13957198D01*
X12955253Y-13957198D02*
X12964777Y-13976246D01*
X12964777Y-13976246D02*
X12964777Y-14033388D01*
X12964777Y-14033388D02*
X12955253Y-14052436D01*
X12955253Y-14052436D02*
X12945730Y-14061960D01*
X12945730Y-14061960D02*
X12926682Y-14071484D01*
X12926682Y-14071484D02*
X12898110Y-14071484D01*
X13079063Y-14071484D02*
X13060015Y-14061960D01*
X13060015Y-14061960D02*
X13050491Y-14042912D01*
X13050491Y-14042912D02*
X13050491Y-13871484D01*
X13231444Y-14061960D02*
X13212396Y-14071484D01*
X13212396Y-14071484D02*
X13174301Y-14071484D01*
X13174301Y-14071484D02*
X13155253Y-14061960D01*
X13155253Y-14061960D02*
X13145730Y-14042912D01*
X13145730Y-14042912D02*
X13145730Y-13966722D01*
X13145730Y-13966722D02*
X13155253Y-13947674D01*
X13155253Y-13947674D02*
X13174301Y-13938150D01*
X13174301Y-13938150D02*
X13212396Y-13938150D01*
X13212396Y-13938150D02*
X13231444Y-13947674D01*
X13231444Y-13947674D02*
X13240968Y-13966722D01*
X13240968Y-13966722D02*
X13240968Y-13985769D01*
X13240968Y-13985769D02*
X13145730Y-14004817D01*
X13317158Y-14061960D02*
X13336206Y-14071484D01*
X13336206Y-14071484D02*
X13374301Y-14071484D01*
X13374301Y-14071484D02*
X13393349Y-14061960D01*
X13393349Y-14061960D02*
X13402872Y-14042912D01*
X13402872Y-14042912D02*
X13402872Y-14033388D01*
X13402872Y-14033388D02*
X13393349Y-14014341D01*
X13393349Y-14014341D02*
X13374301Y-14004817D01*
X13374301Y-14004817D02*
X13345730Y-14004817D01*
X13345730Y-14004817D02*
X13326682Y-13995293D01*
X13326682Y-13995293D02*
X13317158Y-13976246D01*
X13317158Y-13976246D02*
X13317158Y-13966722D01*
X13317158Y-13966722D02*
X13326682Y-13947674D01*
X13326682Y-13947674D02*
X13345730Y-13938150D01*
X13345730Y-13938150D02*
X13374301Y-13938150D01*
X13374301Y-13938150D02*
X13393349Y-13947674D01*
X13469539Y-14147674D02*
X13479063Y-14138150D01*
X13479063Y-14138150D02*
X13498111Y-14109579D01*
X13498111Y-14109579D02*
X13507634Y-14090531D01*
X13507634Y-14090531D02*
X13517158Y-14061960D01*
X13517158Y-14061960D02*
X13526682Y-14014341D01*
X13526682Y-14014341D02*
X13526682Y-13976246D01*
X13526682Y-13976246D02*
X13517158Y-13928627D01*
X13517158Y-13928627D02*
X13507634Y-13900055D01*
X13507634Y-13900055D02*
X13498111Y-13881008D01*
X13498111Y-13881008D02*
X13479063Y-13852436D01*
X13479063Y-13852436D02*
X13469539Y-13842912D01*
D13*
X8504000Y-14244000D02*
G75*
G03*
X8504000Y-14244000I-38100J0D01*
G01*
D11*
X8802872Y-14135484D02*
X8821920Y-14135484D01*
X8821920Y-14135484D02*
X8840967Y-14145008D01*
X8840967Y-14145008D02*
X8850491Y-14154531D01*
X8850491Y-14154531D02*
X8860015Y-14173579D01*
X8860015Y-14173579D02*
X8869539Y-14211674D01*
X8869539Y-14211674D02*
X8869539Y-14259293D01*
X8869539Y-14259293D02*
X8860015Y-14297388D01*
X8860015Y-14297388D02*
X8850491Y-14316436D01*
X8850491Y-14316436D02*
X8840967Y-14325960D01*
X8840967Y-14325960D02*
X8821920Y-14335484D01*
X8821920Y-14335484D02*
X8802872Y-14335484D01*
X8802872Y-14335484D02*
X8783824Y-14325960D01*
X8783824Y-14325960D02*
X8774301Y-14316436D01*
X8774301Y-14316436D02*
X8764777Y-14297388D01*
X8764777Y-14297388D02*
X8755253Y-14259293D01*
X8755253Y-14259293D02*
X8755253Y-14211674D01*
X8755253Y-14211674D02*
X8764777Y-14173579D01*
X8764777Y-14173579D02*
X8774301Y-14154531D01*
X8774301Y-14154531D02*
X8783824Y-14145008D01*
X8783824Y-14145008D02*
X8802872Y-14135484D01*
X8955253Y-14316436D02*
X8964777Y-14325960D01*
X8964777Y-14325960D02*
X8955253Y-14335484D01*
X8955253Y-14335484D02*
X8945729Y-14325960D01*
X8945729Y-14325960D02*
X8955253Y-14316436D01*
X8955253Y-14316436D02*
X8955253Y-14335484D01*
X9031444Y-14135484D02*
X9164777Y-14135484D01*
X9164777Y-14135484D02*
X9079063Y-14335484D01*
X9326682Y-14135484D02*
X9288586Y-14135484D01*
X9288586Y-14135484D02*
X9269539Y-14145008D01*
X9269539Y-14145008D02*
X9260015Y-14154531D01*
X9260015Y-14154531D02*
X9240967Y-14183103D01*
X9240967Y-14183103D02*
X9231444Y-14221198D01*
X9231444Y-14221198D02*
X9231444Y-14297388D01*
X9231444Y-14297388D02*
X9240967Y-14316436D01*
X9240967Y-14316436D02*
X9250491Y-14325960D01*
X9250491Y-14325960D02*
X9269539Y-14335484D01*
X9269539Y-14335484D02*
X9307634Y-14335484D01*
X9307634Y-14335484D02*
X9326682Y-14325960D01*
X9326682Y-14325960D02*
X9336205Y-14316436D01*
X9336205Y-14316436D02*
X9345729Y-14297388D01*
X9345729Y-14297388D02*
X9345729Y-14249769D01*
X9345729Y-14249769D02*
X9336205Y-14230722D01*
X9336205Y-14230722D02*
X9326682Y-14221198D01*
X9326682Y-14221198D02*
X9307634Y-14211674D01*
X9307634Y-14211674D02*
X9269539Y-14211674D01*
X9269539Y-14211674D02*
X9250491Y-14221198D01*
X9250491Y-14221198D02*
X9240967Y-14230722D01*
X9240967Y-14230722D02*
X9231444Y-14249769D01*
X9421920Y-14154531D02*
X9431444Y-14145008D01*
X9431444Y-14145008D02*
X9450491Y-14135484D01*
X9450491Y-14135484D02*
X9498110Y-14135484D01*
X9498110Y-14135484D02*
X9517158Y-14145008D01*
X9517158Y-14145008D02*
X9526682Y-14154531D01*
X9526682Y-14154531D02*
X9536205Y-14173579D01*
X9536205Y-14173579D02*
X9536205Y-14192627D01*
X9536205Y-14192627D02*
X9526682Y-14221198D01*
X9526682Y-14221198D02*
X9412396Y-14335484D01*
X9412396Y-14335484D02*
X9536205Y-14335484D01*
X9621920Y-14335484D02*
X9621920Y-14202150D01*
X9621920Y-14221198D02*
X9631444Y-14211674D01*
X9631444Y-14211674D02*
X9650491Y-14202150D01*
X9650491Y-14202150D02*
X9679063Y-14202150D01*
X9679063Y-14202150D02*
X9698110Y-14211674D01*
X9698110Y-14211674D02*
X9707634Y-14230722D01*
X9707634Y-14230722D02*
X9707634Y-14335484D01*
X9707634Y-14230722D02*
X9717158Y-14211674D01*
X9717158Y-14211674D02*
X9736205Y-14202150D01*
X9736205Y-14202150D02*
X9764777Y-14202150D01*
X9764777Y-14202150D02*
X9783825Y-14211674D01*
X9783825Y-14211674D02*
X9793348Y-14230722D01*
X9793348Y-14230722D02*
X9793348Y-14335484D01*
X9888586Y-14335484D02*
X9888586Y-14202150D01*
X9888586Y-14221198D02*
X9898110Y-14211674D01*
X9898110Y-14211674D02*
X9917158Y-14202150D01*
X9917158Y-14202150D02*
X9945729Y-14202150D01*
X9945729Y-14202150D02*
X9964777Y-14211674D01*
X9964777Y-14211674D02*
X9974301Y-14230722D01*
X9974301Y-14230722D02*
X9974301Y-14335484D01*
X9974301Y-14230722D02*
X9983825Y-14211674D01*
X9983825Y-14211674D02*
X10002872Y-14202150D01*
X10002872Y-14202150D02*
X10031444Y-14202150D01*
X10031444Y-14202150D02*
X10050491Y-14211674D01*
X10050491Y-14211674D02*
X10060015Y-14230722D01*
X10060015Y-14230722D02*
X10060015Y-14335484D01*
X10450491Y-14125960D02*
X10279063Y-14383103D01*
X10707634Y-14135484D02*
X10726682Y-14135484D01*
X10726682Y-14135484D02*
X10745729Y-14145008D01*
X10745729Y-14145008D02*
X10755253Y-14154531D01*
X10755253Y-14154531D02*
X10764777Y-14173579D01*
X10764777Y-14173579D02*
X10774301Y-14211674D01*
X10774301Y-14211674D02*
X10774301Y-14259293D01*
X10774301Y-14259293D02*
X10764777Y-14297388D01*
X10764777Y-14297388D02*
X10755253Y-14316436D01*
X10755253Y-14316436D02*
X10745729Y-14325960D01*
X10745729Y-14325960D02*
X10726682Y-14335484D01*
X10726682Y-14335484D02*
X10707634Y-14335484D01*
X10707634Y-14335484D02*
X10688587Y-14325960D01*
X10688587Y-14325960D02*
X10679063Y-14316436D01*
X10679063Y-14316436D02*
X10669539Y-14297388D01*
X10669539Y-14297388D02*
X10660015Y-14259293D01*
X10660015Y-14259293D02*
X10660015Y-14211674D01*
X10660015Y-14211674D02*
X10669539Y-14173579D01*
X10669539Y-14173579D02*
X10679063Y-14154531D01*
X10679063Y-14154531D02*
X10688587Y-14145008D01*
X10688587Y-14145008D02*
X10707634Y-14135484D01*
X10860015Y-14316436D02*
X10869539Y-14325960D01*
X10869539Y-14325960D02*
X10860015Y-14335484D01*
X10860015Y-14335484D02*
X10850491Y-14325960D01*
X10850491Y-14325960D02*
X10860015Y-14316436D01*
X10860015Y-14316436D02*
X10860015Y-14335484D01*
X10993348Y-14135484D02*
X11012396Y-14135484D01*
X11012396Y-14135484D02*
X11031444Y-14145008D01*
X11031444Y-14145008D02*
X11040968Y-14154531D01*
X11040968Y-14154531D02*
X11050491Y-14173579D01*
X11050491Y-14173579D02*
X11060015Y-14211674D01*
X11060015Y-14211674D02*
X11060015Y-14259293D01*
X11060015Y-14259293D02*
X11050491Y-14297388D01*
X11050491Y-14297388D02*
X11040968Y-14316436D01*
X11040968Y-14316436D02*
X11031444Y-14325960D01*
X11031444Y-14325960D02*
X11012396Y-14335484D01*
X11012396Y-14335484D02*
X10993348Y-14335484D01*
X10993348Y-14335484D02*
X10974301Y-14325960D01*
X10974301Y-14325960D02*
X10964777Y-14316436D01*
X10964777Y-14316436D02*
X10955253Y-14297388D01*
X10955253Y-14297388D02*
X10945729Y-14259293D01*
X10945729Y-14259293D02*
X10945729Y-14211674D01*
X10945729Y-14211674D02*
X10955253Y-14173579D01*
X10955253Y-14173579D02*
X10964777Y-14154531D01*
X10964777Y-14154531D02*
X10974301Y-14145008D01*
X10974301Y-14145008D02*
X10993348Y-14135484D01*
X11126682Y-14135484D02*
X11250491Y-14135484D01*
X11250491Y-14135484D02*
X11183825Y-14211674D01*
X11183825Y-14211674D02*
X11212396Y-14211674D01*
X11212396Y-14211674D02*
X11231444Y-14221198D01*
X11231444Y-14221198D02*
X11240967Y-14230722D01*
X11240967Y-14230722D02*
X11250491Y-14249769D01*
X11250491Y-14249769D02*
X11250491Y-14297388D01*
X11250491Y-14297388D02*
X11240967Y-14316436D01*
X11240967Y-14316436D02*
X11231444Y-14325960D01*
X11231444Y-14325960D02*
X11212396Y-14335484D01*
X11212396Y-14335484D02*
X11155253Y-14335484D01*
X11155253Y-14335484D02*
X11136206Y-14325960D01*
X11136206Y-14325960D02*
X11126682Y-14316436D01*
X11374301Y-14135484D02*
X11393348Y-14135484D01*
X11393348Y-14135484D02*
X11412396Y-14145008D01*
X11412396Y-14145008D02*
X11421920Y-14154531D01*
X11421920Y-14154531D02*
X11431444Y-14173579D01*
X11431444Y-14173579D02*
X11440967Y-14211674D01*
X11440967Y-14211674D02*
X11440967Y-14259293D01*
X11440967Y-14259293D02*
X11431444Y-14297388D01*
X11431444Y-14297388D02*
X11421920Y-14316436D01*
X11421920Y-14316436D02*
X11412396Y-14325960D01*
X11412396Y-14325960D02*
X11393348Y-14335484D01*
X11393348Y-14335484D02*
X11374301Y-14335484D01*
X11374301Y-14335484D02*
X11355253Y-14325960D01*
X11355253Y-14325960D02*
X11345729Y-14316436D01*
X11345729Y-14316436D02*
X11336206Y-14297388D01*
X11336206Y-14297388D02*
X11326682Y-14259293D01*
X11326682Y-14259293D02*
X11326682Y-14211674D01*
X11326682Y-14211674D02*
X11336206Y-14173579D01*
X11336206Y-14173579D02*
X11345729Y-14154531D01*
X11345729Y-14154531D02*
X11355253Y-14145008D01*
X11355253Y-14145008D02*
X11374301Y-14135484D01*
X11564777Y-14135484D02*
X11583825Y-14135484D01*
X11583825Y-14135484D02*
X11602872Y-14145008D01*
X11602872Y-14145008D02*
X11612396Y-14154531D01*
X11612396Y-14154531D02*
X11621920Y-14173579D01*
X11621920Y-14173579D02*
X11631444Y-14211674D01*
X11631444Y-14211674D02*
X11631444Y-14259293D01*
X11631444Y-14259293D02*
X11621920Y-14297388D01*
X11621920Y-14297388D02*
X11612396Y-14316436D01*
X11612396Y-14316436D02*
X11602872Y-14325960D01*
X11602872Y-14325960D02*
X11583825Y-14335484D01*
X11583825Y-14335484D02*
X11564777Y-14335484D01*
X11564777Y-14335484D02*
X11545729Y-14325960D01*
X11545729Y-14325960D02*
X11536206Y-14316436D01*
X11536206Y-14316436D02*
X11526682Y-14297388D01*
X11526682Y-14297388D02*
X11517158Y-14259293D01*
X11517158Y-14259293D02*
X11517158Y-14211674D01*
X11517158Y-14211674D02*
X11526682Y-14173579D01*
X11526682Y-14173579D02*
X11536206Y-14154531D01*
X11536206Y-14154531D02*
X11545729Y-14145008D01*
X11545729Y-14145008D02*
X11564777Y-14135484D01*
X11707634Y-14135484D02*
X11707634Y-14173579D01*
X11783825Y-14135484D02*
X11783825Y-14173579D01*
X12079063Y-14411674D02*
X12069539Y-14402150D01*
X12069539Y-14402150D02*
X12050491Y-14373579D01*
X12050491Y-14373579D02*
X12040968Y-14354531D01*
X12040968Y-14354531D02*
X12031444Y-14325960D01*
X12031444Y-14325960D02*
X12021920Y-14278341D01*
X12021920Y-14278341D02*
X12021920Y-14240246D01*
X12021920Y-14240246D02*
X12031444Y-14192627D01*
X12031444Y-14192627D02*
X12040968Y-14164055D01*
X12040968Y-14164055D02*
X12050491Y-14145008D01*
X12050491Y-14145008D02*
X12069539Y-14116436D01*
X12069539Y-14116436D02*
X12079063Y-14106912D01*
X12136206Y-14135484D02*
X12260015Y-14135484D01*
X12260015Y-14135484D02*
X12193348Y-14211674D01*
X12193348Y-14211674D02*
X12221920Y-14211674D01*
X12221920Y-14211674D02*
X12240968Y-14221198D01*
X12240968Y-14221198D02*
X12250491Y-14230722D01*
X12250491Y-14230722D02*
X12260015Y-14249769D01*
X12260015Y-14249769D02*
X12260015Y-14297388D01*
X12260015Y-14297388D02*
X12250491Y-14316436D01*
X12250491Y-14316436D02*
X12240968Y-14325960D01*
X12240968Y-14325960D02*
X12221920Y-14335484D01*
X12221920Y-14335484D02*
X12164777Y-14335484D01*
X12164777Y-14335484D02*
X12145729Y-14325960D01*
X12145729Y-14325960D02*
X12136206Y-14316436D01*
X12383825Y-14135484D02*
X12402872Y-14135484D01*
X12402872Y-14135484D02*
X12421920Y-14145008D01*
X12421920Y-14145008D02*
X12431444Y-14154531D01*
X12431444Y-14154531D02*
X12440968Y-14173579D01*
X12440968Y-14173579D02*
X12450491Y-14211674D01*
X12450491Y-14211674D02*
X12450491Y-14259293D01*
X12450491Y-14259293D02*
X12440968Y-14297388D01*
X12440968Y-14297388D02*
X12431444Y-14316436D01*
X12431444Y-14316436D02*
X12421920Y-14325960D01*
X12421920Y-14325960D02*
X12402872Y-14335484D01*
X12402872Y-14335484D02*
X12383825Y-14335484D01*
X12383825Y-14335484D02*
X12364777Y-14325960D01*
X12364777Y-14325960D02*
X12355253Y-14316436D01*
X12355253Y-14316436D02*
X12345729Y-14297388D01*
X12345729Y-14297388D02*
X12336206Y-14259293D01*
X12336206Y-14259293D02*
X12336206Y-14211674D01*
X12336206Y-14211674D02*
X12345729Y-14173579D01*
X12345729Y-14173579D02*
X12355253Y-14154531D01*
X12355253Y-14154531D02*
X12364777Y-14145008D01*
X12364777Y-14145008D02*
X12383825Y-14135484D01*
X12688587Y-14335484D02*
X12688587Y-14135484D01*
X12774301Y-14335484D02*
X12774301Y-14230722D01*
X12774301Y-14230722D02*
X12764777Y-14211674D01*
X12764777Y-14211674D02*
X12745730Y-14202150D01*
X12745730Y-14202150D02*
X12717158Y-14202150D01*
X12717158Y-14202150D02*
X12698110Y-14211674D01*
X12698110Y-14211674D02*
X12688587Y-14221198D01*
X12898110Y-14335484D02*
X12879063Y-14325960D01*
X12879063Y-14325960D02*
X12869539Y-14316436D01*
X12869539Y-14316436D02*
X12860015Y-14297388D01*
X12860015Y-14297388D02*
X12860015Y-14240246D01*
X12860015Y-14240246D02*
X12869539Y-14221198D01*
X12869539Y-14221198D02*
X12879063Y-14211674D01*
X12879063Y-14211674D02*
X12898110Y-14202150D01*
X12898110Y-14202150D02*
X12926682Y-14202150D01*
X12926682Y-14202150D02*
X12945730Y-14211674D01*
X12945730Y-14211674D02*
X12955253Y-14221198D01*
X12955253Y-14221198D02*
X12964777Y-14240246D01*
X12964777Y-14240246D02*
X12964777Y-14297388D01*
X12964777Y-14297388D02*
X12955253Y-14316436D01*
X12955253Y-14316436D02*
X12945730Y-14325960D01*
X12945730Y-14325960D02*
X12926682Y-14335484D01*
X12926682Y-14335484D02*
X12898110Y-14335484D01*
X13079063Y-14335484D02*
X13060015Y-14325960D01*
X13060015Y-14325960D02*
X13050491Y-14306912D01*
X13050491Y-14306912D02*
X13050491Y-14135484D01*
X13231444Y-14325960D02*
X13212396Y-14335484D01*
X13212396Y-14335484D02*
X13174301Y-14335484D01*
X13174301Y-14335484D02*
X13155253Y-14325960D01*
X13155253Y-14325960D02*
X13145730Y-14306912D01*
X13145730Y-14306912D02*
X13145730Y-14230722D01*
X13145730Y-14230722D02*
X13155253Y-14211674D01*
X13155253Y-14211674D02*
X13174301Y-14202150D01*
X13174301Y-14202150D02*
X13212396Y-14202150D01*
X13212396Y-14202150D02*
X13231444Y-14211674D01*
X13231444Y-14211674D02*
X13240968Y-14230722D01*
X13240968Y-14230722D02*
X13240968Y-14249769D01*
X13240968Y-14249769D02*
X13145730Y-14268817D01*
X13317158Y-14325960D02*
X13336206Y-14335484D01*
X13336206Y-14335484D02*
X13374301Y-14335484D01*
X13374301Y-14335484D02*
X13393349Y-14325960D01*
X13393349Y-14325960D02*
X13402872Y-14306912D01*
X13402872Y-14306912D02*
X13402872Y-14297388D01*
X13402872Y-14297388D02*
X13393349Y-14278341D01*
X13393349Y-14278341D02*
X13374301Y-14268817D01*
X13374301Y-14268817D02*
X13345730Y-14268817D01*
X13345730Y-14268817D02*
X13326682Y-14259293D01*
X13326682Y-14259293D02*
X13317158Y-14240246D01*
X13317158Y-14240246D02*
X13317158Y-14230722D01*
X13317158Y-14230722D02*
X13326682Y-14211674D01*
X13326682Y-14211674D02*
X13345730Y-14202150D01*
X13345730Y-14202150D02*
X13374301Y-14202150D01*
X13374301Y-14202150D02*
X13393349Y-14211674D01*
X13469539Y-14411674D02*
X13479063Y-14402150D01*
X13479063Y-14402150D02*
X13498111Y-14373579D01*
X13498111Y-14373579D02*
X13507634Y-14354531D01*
X13507634Y-14354531D02*
X13517158Y-14325960D01*
X13517158Y-14325960D02*
X13526682Y-14278341D01*
X13526682Y-14278341D02*
X13526682Y-14240246D01*
X13526682Y-14240246D02*
X13517158Y-14192627D01*
X13517158Y-14192627D02*
X13507634Y-14164055D01*
X13507634Y-14164055D02*
X13498111Y-14145008D01*
X13498111Y-14145008D02*
X13479063Y-14116436D01*
X13479063Y-14116436D02*
X13469539Y-14106912D01*
D14*
X8464000Y-14468000D02*
X8464000Y-14548000D01*
X8424000Y-14508000D02*
X8504000Y-14508000D01*
D11*
X8802872Y-14399484D02*
X8821920Y-14399484D01*
X8821920Y-14399484D02*
X8840967Y-14409008D01*
X8840967Y-14409008D02*
X8850491Y-14418531D01*
X8850491Y-14418531D02*
X8860015Y-14437579D01*
X8860015Y-14437579D02*
X8869539Y-14475674D01*
X8869539Y-14475674D02*
X8869539Y-14523293D01*
X8869539Y-14523293D02*
X8860015Y-14561388D01*
X8860015Y-14561388D02*
X8850491Y-14580436D01*
X8850491Y-14580436D02*
X8840967Y-14589960D01*
X8840967Y-14589960D02*
X8821920Y-14599484D01*
X8821920Y-14599484D02*
X8802872Y-14599484D01*
X8802872Y-14599484D02*
X8783824Y-14589960D01*
X8783824Y-14589960D02*
X8774301Y-14580436D01*
X8774301Y-14580436D02*
X8764777Y-14561388D01*
X8764777Y-14561388D02*
X8755253Y-14523293D01*
X8755253Y-14523293D02*
X8755253Y-14475674D01*
X8755253Y-14475674D02*
X8764777Y-14437579D01*
X8764777Y-14437579D02*
X8774301Y-14418531D01*
X8774301Y-14418531D02*
X8783824Y-14409008D01*
X8783824Y-14409008D02*
X8802872Y-14399484D01*
X8955253Y-14580436D02*
X8964777Y-14589960D01*
X8964777Y-14589960D02*
X8955253Y-14599484D01*
X8955253Y-14599484D02*
X8945729Y-14589960D01*
X8945729Y-14589960D02*
X8955253Y-14580436D01*
X8955253Y-14580436D02*
X8955253Y-14599484D01*
X9079063Y-14485198D02*
X9060015Y-14475674D01*
X9060015Y-14475674D02*
X9050491Y-14466150D01*
X9050491Y-14466150D02*
X9040967Y-14447103D01*
X9040967Y-14447103D02*
X9040967Y-14437579D01*
X9040967Y-14437579D02*
X9050491Y-14418531D01*
X9050491Y-14418531D02*
X9060015Y-14409008D01*
X9060015Y-14409008D02*
X9079063Y-14399484D01*
X9079063Y-14399484D02*
X9117158Y-14399484D01*
X9117158Y-14399484D02*
X9136205Y-14409008D01*
X9136205Y-14409008D02*
X9145729Y-14418531D01*
X9145729Y-14418531D02*
X9155253Y-14437579D01*
X9155253Y-14437579D02*
X9155253Y-14447103D01*
X9155253Y-14447103D02*
X9145729Y-14466150D01*
X9145729Y-14466150D02*
X9136205Y-14475674D01*
X9136205Y-14475674D02*
X9117158Y-14485198D01*
X9117158Y-14485198D02*
X9079063Y-14485198D01*
X9079063Y-14485198D02*
X9060015Y-14494722D01*
X9060015Y-14494722D02*
X9050491Y-14504246D01*
X9050491Y-14504246D02*
X9040967Y-14523293D01*
X9040967Y-14523293D02*
X9040967Y-14561388D01*
X9040967Y-14561388D02*
X9050491Y-14580436D01*
X9050491Y-14580436D02*
X9060015Y-14589960D01*
X9060015Y-14589960D02*
X9079063Y-14599484D01*
X9079063Y-14599484D02*
X9117158Y-14599484D01*
X9117158Y-14599484D02*
X9136205Y-14589960D01*
X9136205Y-14589960D02*
X9145729Y-14580436D01*
X9145729Y-14580436D02*
X9155253Y-14561388D01*
X9155253Y-14561388D02*
X9155253Y-14523293D01*
X9155253Y-14523293D02*
X9145729Y-14504246D01*
X9145729Y-14504246D02*
X9136205Y-14494722D01*
X9136205Y-14494722D02*
X9117158Y-14485198D01*
X9279063Y-14399484D02*
X9298110Y-14399484D01*
X9298110Y-14399484D02*
X9317158Y-14409008D01*
X9317158Y-14409008D02*
X9326682Y-14418531D01*
X9326682Y-14418531D02*
X9336205Y-14437579D01*
X9336205Y-14437579D02*
X9345729Y-14475674D01*
X9345729Y-14475674D02*
X9345729Y-14523293D01*
X9345729Y-14523293D02*
X9336205Y-14561388D01*
X9336205Y-14561388D02*
X9326682Y-14580436D01*
X9326682Y-14580436D02*
X9317158Y-14589960D01*
X9317158Y-14589960D02*
X9298110Y-14599484D01*
X9298110Y-14599484D02*
X9279063Y-14599484D01*
X9279063Y-14599484D02*
X9260015Y-14589960D01*
X9260015Y-14589960D02*
X9250491Y-14580436D01*
X9250491Y-14580436D02*
X9240967Y-14561388D01*
X9240967Y-14561388D02*
X9231444Y-14523293D01*
X9231444Y-14523293D02*
X9231444Y-14475674D01*
X9231444Y-14475674D02*
X9240967Y-14437579D01*
X9240967Y-14437579D02*
X9250491Y-14418531D01*
X9250491Y-14418531D02*
X9260015Y-14409008D01*
X9260015Y-14409008D02*
X9279063Y-14399484D01*
X9469539Y-14399484D02*
X9488586Y-14399484D01*
X9488586Y-14399484D02*
X9507634Y-14409008D01*
X9507634Y-14409008D02*
X9517158Y-14418531D01*
X9517158Y-14418531D02*
X9526682Y-14437579D01*
X9526682Y-14437579D02*
X9536205Y-14475674D01*
X9536205Y-14475674D02*
X9536205Y-14523293D01*
X9536205Y-14523293D02*
X9526682Y-14561388D01*
X9526682Y-14561388D02*
X9517158Y-14580436D01*
X9517158Y-14580436D02*
X9507634Y-14589960D01*
X9507634Y-14589960D02*
X9488586Y-14599484D01*
X9488586Y-14599484D02*
X9469539Y-14599484D01*
X9469539Y-14599484D02*
X9450491Y-14589960D01*
X9450491Y-14589960D02*
X9440967Y-14580436D01*
X9440967Y-14580436D02*
X9431444Y-14561388D01*
X9431444Y-14561388D02*
X9421920Y-14523293D01*
X9421920Y-14523293D02*
X9421920Y-14475674D01*
X9421920Y-14475674D02*
X9431444Y-14437579D01*
X9431444Y-14437579D02*
X9440967Y-14418531D01*
X9440967Y-14418531D02*
X9450491Y-14409008D01*
X9450491Y-14409008D02*
X9469539Y-14399484D01*
X9621920Y-14599484D02*
X9621920Y-14466150D01*
X9621920Y-14485198D02*
X9631444Y-14475674D01*
X9631444Y-14475674D02*
X9650491Y-14466150D01*
X9650491Y-14466150D02*
X9679063Y-14466150D01*
X9679063Y-14466150D02*
X9698110Y-14475674D01*
X9698110Y-14475674D02*
X9707634Y-14494722D01*
X9707634Y-14494722D02*
X9707634Y-14599484D01*
X9707634Y-14494722D02*
X9717158Y-14475674D01*
X9717158Y-14475674D02*
X9736205Y-14466150D01*
X9736205Y-14466150D02*
X9764777Y-14466150D01*
X9764777Y-14466150D02*
X9783825Y-14475674D01*
X9783825Y-14475674D02*
X9793348Y-14494722D01*
X9793348Y-14494722D02*
X9793348Y-14599484D01*
X9888586Y-14599484D02*
X9888586Y-14466150D01*
X9888586Y-14485198D02*
X9898110Y-14475674D01*
X9898110Y-14475674D02*
X9917158Y-14466150D01*
X9917158Y-14466150D02*
X9945729Y-14466150D01*
X9945729Y-14466150D02*
X9964777Y-14475674D01*
X9964777Y-14475674D02*
X9974301Y-14494722D01*
X9974301Y-14494722D02*
X9974301Y-14599484D01*
X9974301Y-14494722D02*
X9983825Y-14475674D01*
X9983825Y-14475674D02*
X10002872Y-14466150D01*
X10002872Y-14466150D02*
X10031444Y-14466150D01*
X10031444Y-14466150D02*
X10050491Y-14475674D01*
X10050491Y-14475674D02*
X10060015Y-14494722D01*
X10060015Y-14494722D02*
X10060015Y-14599484D01*
X10450491Y-14389960D02*
X10279063Y-14647103D01*
X10707634Y-14399484D02*
X10726682Y-14399484D01*
X10726682Y-14399484D02*
X10745729Y-14409008D01*
X10745729Y-14409008D02*
X10755253Y-14418531D01*
X10755253Y-14418531D02*
X10764777Y-14437579D01*
X10764777Y-14437579D02*
X10774301Y-14475674D01*
X10774301Y-14475674D02*
X10774301Y-14523293D01*
X10774301Y-14523293D02*
X10764777Y-14561388D01*
X10764777Y-14561388D02*
X10755253Y-14580436D01*
X10755253Y-14580436D02*
X10745729Y-14589960D01*
X10745729Y-14589960D02*
X10726682Y-14599484D01*
X10726682Y-14599484D02*
X10707634Y-14599484D01*
X10707634Y-14599484D02*
X10688587Y-14589960D01*
X10688587Y-14589960D02*
X10679063Y-14580436D01*
X10679063Y-14580436D02*
X10669539Y-14561388D01*
X10669539Y-14561388D02*
X10660015Y-14523293D01*
X10660015Y-14523293D02*
X10660015Y-14475674D01*
X10660015Y-14475674D02*
X10669539Y-14437579D01*
X10669539Y-14437579D02*
X10679063Y-14418531D01*
X10679063Y-14418531D02*
X10688587Y-14409008D01*
X10688587Y-14409008D02*
X10707634Y-14399484D01*
X10860015Y-14580436D02*
X10869539Y-14589960D01*
X10869539Y-14589960D02*
X10860015Y-14599484D01*
X10860015Y-14599484D02*
X10850491Y-14589960D01*
X10850491Y-14589960D02*
X10860015Y-14580436D01*
X10860015Y-14580436D02*
X10860015Y-14599484D01*
X10993348Y-14399484D02*
X11012396Y-14399484D01*
X11012396Y-14399484D02*
X11031444Y-14409008D01*
X11031444Y-14409008D02*
X11040968Y-14418531D01*
X11040968Y-14418531D02*
X11050491Y-14437579D01*
X11050491Y-14437579D02*
X11060015Y-14475674D01*
X11060015Y-14475674D02*
X11060015Y-14523293D01*
X11060015Y-14523293D02*
X11050491Y-14561388D01*
X11050491Y-14561388D02*
X11040968Y-14580436D01*
X11040968Y-14580436D02*
X11031444Y-14589960D01*
X11031444Y-14589960D02*
X11012396Y-14599484D01*
X11012396Y-14599484D02*
X10993348Y-14599484D01*
X10993348Y-14599484D02*
X10974301Y-14589960D01*
X10974301Y-14589960D02*
X10964777Y-14580436D01*
X10964777Y-14580436D02*
X10955253Y-14561388D01*
X10955253Y-14561388D02*
X10945729Y-14523293D01*
X10945729Y-14523293D02*
X10945729Y-14475674D01*
X10945729Y-14475674D02*
X10955253Y-14437579D01*
X10955253Y-14437579D02*
X10964777Y-14418531D01*
X10964777Y-14418531D02*
X10974301Y-14409008D01*
X10974301Y-14409008D02*
X10993348Y-14399484D01*
X11126682Y-14399484D02*
X11250491Y-14399484D01*
X11250491Y-14399484D02*
X11183825Y-14475674D01*
X11183825Y-14475674D02*
X11212396Y-14475674D01*
X11212396Y-14475674D02*
X11231444Y-14485198D01*
X11231444Y-14485198D02*
X11240967Y-14494722D01*
X11240967Y-14494722D02*
X11250491Y-14513769D01*
X11250491Y-14513769D02*
X11250491Y-14561388D01*
X11250491Y-14561388D02*
X11240967Y-14580436D01*
X11240967Y-14580436D02*
X11231444Y-14589960D01*
X11231444Y-14589960D02*
X11212396Y-14599484D01*
X11212396Y-14599484D02*
X11155253Y-14599484D01*
X11155253Y-14599484D02*
X11136206Y-14589960D01*
X11136206Y-14589960D02*
X11126682Y-14580436D01*
X11440967Y-14599484D02*
X11326682Y-14599484D01*
X11383825Y-14599484D02*
X11383825Y-14399484D01*
X11383825Y-14399484D02*
X11364777Y-14428055D01*
X11364777Y-14428055D02*
X11345729Y-14447103D01*
X11345729Y-14447103D02*
X11326682Y-14456627D01*
X11621920Y-14399484D02*
X11526682Y-14399484D01*
X11526682Y-14399484D02*
X11517158Y-14494722D01*
X11517158Y-14494722D02*
X11526682Y-14485198D01*
X11526682Y-14485198D02*
X11545729Y-14475674D01*
X11545729Y-14475674D02*
X11593348Y-14475674D01*
X11593348Y-14475674D02*
X11612396Y-14485198D01*
X11612396Y-14485198D02*
X11621920Y-14494722D01*
X11621920Y-14494722D02*
X11631444Y-14513769D01*
X11631444Y-14513769D02*
X11631444Y-14561388D01*
X11631444Y-14561388D02*
X11621920Y-14580436D01*
X11621920Y-14580436D02*
X11612396Y-14589960D01*
X11612396Y-14589960D02*
X11593348Y-14599484D01*
X11593348Y-14599484D02*
X11545729Y-14599484D01*
X11545729Y-14599484D02*
X11526682Y-14589960D01*
X11526682Y-14589960D02*
X11517158Y-14580436D01*
X11707634Y-14399484D02*
X11707634Y-14437579D01*
X11783825Y-14399484D02*
X11783825Y-14437579D01*
X12079063Y-14675674D02*
X12069539Y-14666150D01*
X12069539Y-14666150D02*
X12050491Y-14637579D01*
X12050491Y-14637579D02*
X12040968Y-14618531D01*
X12040968Y-14618531D02*
X12031444Y-14589960D01*
X12031444Y-14589960D02*
X12021920Y-14542341D01*
X12021920Y-14542341D02*
X12021920Y-14504246D01*
X12021920Y-14504246D02*
X12031444Y-14456627D01*
X12031444Y-14456627D02*
X12040968Y-14428055D01*
X12040968Y-14428055D02*
X12050491Y-14409008D01*
X12050491Y-14409008D02*
X12069539Y-14380436D01*
X12069539Y-14380436D02*
X12079063Y-14370912D01*
X12240968Y-14399484D02*
X12202872Y-14399484D01*
X12202872Y-14399484D02*
X12183825Y-14409008D01*
X12183825Y-14409008D02*
X12174301Y-14418531D01*
X12174301Y-14418531D02*
X12155253Y-14447103D01*
X12155253Y-14447103D02*
X12145729Y-14485198D01*
X12145729Y-14485198D02*
X12145729Y-14561388D01*
X12145729Y-14561388D02*
X12155253Y-14580436D01*
X12155253Y-14580436D02*
X12164777Y-14589960D01*
X12164777Y-14589960D02*
X12183825Y-14599484D01*
X12183825Y-14599484D02*
X12221920Y-14599484D01*
X12221920Y-14599484D02*
X12240968Y-14589960D01*
X12240968Y-14589960D02*
X12250491Y-14580436D01*
X12250491Y-14580436D02*
X12260015Y-14561388D01*
X12260015Y-14561388D02*
X12260015Y-14513769D01*
X12260015Y-14513769D02*
X12250491Y-14494722D01*
X12250491Y-14494722D02*
X12240968Y-14485198D01*
X12240968Y-14485198D02*
X12221920Y-14475674D01*
X12221920Y-14475674D02*
X12183825Y-14475674D01*
X12183825Y-14475674D02*
X12164777Y-14485198D01*
X12164777Y-14485198D02*
X12155253Y-14494722D01*
X12155253Y-14494722D02*
X12145729Y-14513769D01*
X12498110Y-14599484D02*
X12498110Y-14399484D01*
X12583825Y-14599484D02*
X12583825Y-14494722D01*
X12583825Y-14494722D02*
X12574301Y-14475674D01*
X12574301Y-14475674D02*
X12555253Y-14466150D01*
X12555253Y-14466150D02*
X12526682Y-14466150D01*
X12526682Y-14466150D02*
X12507634Y-14475674D01*
X12507634Y-14475674D02*
X12498110Y-14485198D01*
X12707634Y-14599484D02*
X12688587Y-14589960D01*
X12688587Y-14589960D02*
X12679063Y-14580436D01*
X12679063Y-14580436D02*
X12669539Y-14561388D01*
X12669539Y-14561388D02*
X12669539Y-14504246D01*
X12669539Y-14504246D02*
X12679063Y-14485198D01*
X12679063Y-14485198D02*
X12688587Y-14475674D01*
X12688587Y-14475674D02*
X12707634Y-14466150D01*
X12707634Y-14466150D02*
X12736206Y-14466150D01*
X12736206Y-14466150D02*
X12755253Y-14475674D01*
X12755253Y-14475674D02*
X12764777Y-14485198D01*
X12764777Y-14485198D02*
X12774301Y-14504246D01*
X12774301Y-14504246D02*
X12774301Y-14561388D01*
X12774301Y-14561388D02*
X12764777Y-14580436D01*
X12764777Y-14580436D02*
X12755253Y-14589960D01*
X12755253Y-14589960D02*
X12736206Y-14599484D01*
X12736206Y-14599484D02*
X12707634Y-14599484D01*
X12888587Y-14599484D02*
X12869539Y-14589960D01*
X12869539Y-14589960D02*
X12860015Y-14570912D01*
X12860015Y-14570912D02*
X12860015Y-14399484D01*
X13040968Y-14589960D02*
X13021920Y-14599484D01*
X13021920Y-14599484D02*
X12983825Y-14599484D01*
X12983825Y-14599484D02*
X12964777Y-14589960D01*
X12964777Y-14589960D02*
X12955253Y-14570912D01*
X12955253Y-14570912D02*
X12955253Y-14494722D01*
X12955253Y-14494722D02*
X12964777Y-14475674D01*
X12964777Y-14475674D02*
X12983825Y-14466150D01*
X12983825Y-14466150D02*
X13021920Y-14466150D01*
X13021920Y-14466150D02*
X13040968Y-14475674D01*
X13040968Y-14475674D02*
X13050491Y-14494722D01*
X13050491Y-14494722D02*
X13050491Y-14513769D01*
X13050491Y-14513769D02*
X12955253Y-14532817D01*
X13126682Y-14589960D02*
X13145730Y-14599484D01*
X13145730Y-14599484D02*
X13183825Y-14599484D01*
X13183825Y-14599484D02*
X13202872Y-14589960D01*
X13202872Y-14589960D02*
X13212396Y-14570912D01*
X13212396Y-14570912D02*
X13212396Y-14561388D01*
X13212396Y-14561388D02*
X13202872Y-14542341D01*
X13202872Y-14542341D02*
X13183825Y-14532817D01*
X13183825Y-14532817D02*
X13155253Y-14532817D01*
X13155253Y-14532817D02*
X13136206Y-14523293D01*
X13136206Y-14523293D02*
X13126682Y-14504246D01*
X13126682Y-14504246D02*
X13126682Y-14494722D01*
X13126682Y-14494722D02*
X13136206Y-14475674D01*
X13136206Y-14475674D02*
X13155253Y-14466150D01*
X13155253Y-14466150D02*
X13183825Y-14466150D01*
X13183825Y-14466150D02*
X13202872Y-14475674D01*
X13279063Y-14675674D02*
X13288587Y-14666150D01*
X13288587Y-14666150D02*
X13307634Y-14637579D01*
X13307634Y-14637579D02*
X13317158Y-14618531D01*
X13317158Y-14618531D02*
X13326682Y-14589960D01*
X13326682Y-14589960D02*
X13336206Y-14542341D01*
X13336206Y-14542341D02*
X13336206Y-14504246D01*
X13336206Y-14504246D02*
X13326682Y-14456627D01*
X13326682Y-14456627D02*
X13317158Y-14428055D01*
X13317158Y-14428055D02*
X13307634Y-14409008D01*
X13307634Y-14409008D02*
X13288587Y-14380436D01*
X13288587Y-14380436D02*
X13279063Y-14370912D01*
D10*
X8489356Y-14807356D02*
X8489356Y-14736644D01*
X8418644Y-14736644D01*
X8418644Y-14807356D01*
X8489356Y-14807356D01*
D11*
X8869539Y-14863484D02*
X8755253Y-14863484D01*
X8812396Y-14863484D02*
X8812396Y-14663484D01*
X8812396Y-14663484D02*
X8793348Y-14692055D01*
X8793348Y-14692055D02*
X8774301Y-14711103D01*
X8774301Y-14711103D02*
X8755253Y-14720627D01*
X8955253Y-14844436D02*
X8964777Y-14853960D01*
X8964777Y-14853960D02*
X8955253Y-14863484D01*
X8955253Y-14863484D02*
X8945729Y-14853960D01*
X8945729Y-14853960D02*
X8955253Y-14844436D01*
X8955253Y-14844436D02*
X8955253Y-14863484D01*
X9088586Y-14663484D02*
X9107634Y-14663484D01*
X9107634Y-14663484D02*
X9126682Y-14673008D01*
X9126682Y-14673008D02*
X9136205Y-14682531D01*
X9136205Y-14682531D02*
X9145729Y-14701579D01*
X9145729Y-14701579D02*
X9155253Y-14739674D01*
X9155253Y-14739674D02*
X9155253Y-14787293D01*
X9155253Y-14787293D02*
X9145729Y-14825388D01*
X9145729Y-14825388D02*
X9136205Y-14844436D01*
X9136205Y-14844436D02*
X9126682Y-14853960D01*
X9126682Y-14853960D02*
X9107634Y-14863484D01*
X9107634Y-14863484D02*
X9088586Y-14863484D01*
X9088586Y-14863484D02*
X9069539Y-14853960D01*
X9069539Y-14853960D02*
X9060015Y-14844436D01*
X9060015Y-14844436D02*
X9050491Y-14825388D01*
X9050491Y-14825388D02*
X9040967Y-14787293D01*
X9040967Y-14787293D02*
X9040967Y-14739674D01*
X9040967Y-14739674D02*
X9050491Y-14701579D01*
X9050491Y-14701579D02*
X9060015Y-14682531D01*
X9060015Y-14682531D02*
X9069539Y-14673008D01*
X9069539Y-14673008D02*
X9088586Y-14663484D01*
X9279063Y-14663484D02*
X9298110Y-14663484D01*
X9298110Y-14663484D02*
X9317158Y-14673008D01*
X9317158Y-14673008D02*
X9326682Y-14682531D01*
X9326682Y-14682531D02*
X9336205Y-14701579D01*
X9336205Y-14701579D02*
X9345729Y-14739674D01*
X9345729Y-14739674D02*
X9345729Y-14787293D01*
X9345729Y-14787293D02*
X9336205Y-14825388D01*
X9336205Y-14825388D02*
X9326682Y-14844436D01*
X9326682Y-14844436D02*
X9317158Y-14853960D01*
X9317158Y-14853960D02*
X9298110Y-14863484D01*
X9298110Y-14863484D02*
X9279063Y-14863484D01*
X9279063Y-14863484D02*
X9260015Y-14853960D01*
X9260015Y-14853960D02*
X9250491Y-14844436D01*
X9250491Y-14844436D02*
X9240967Y-14825388D01*
X9240967Y-14825388D02*
X9231444Y-14787293D01*
X9231444Y-14787293D02*
X9231444Y-14739674D01*
X9231444Y-14739674D02*
X9240967Y-14701579D01*
X9240967Y-14701579D02*
X9250491Y-14682531D01*
X9250491Y-14682531D02*
X9260015Y-14673008D01*
X9260015Y-14673008D02*
X9279063Y-14663484D01*
X9469539Y-14663484D02*
X9488586Y-14663484D01*
X9488586Y-14663484D02*
X9507634Y-14673008D01*
X9507634Y-14673008D02*
X9517158Y-14682531D01*
X9517158Y-14682531D02*
X9526682Y-14701579D01*
X9526682Y-14701579D02*
X9536205Y-14739674D01*
X9536205Y-14739674D02*
X9536205Y-14787293D01*
X9536205Y-14787293D02*
X9526682Y-14825388D01*
X9526682Y-14825388D02*
X9517158Y-14844436D01*
X9517158Y-14844436D02*
X9507634Y-14853960D01*
X9507634Y-14853960D02*
X9488586Y-14863484D01*
X9488586Y-14863484D02*
X9469539Y-14863484D01*
X9469539Y-14863484D02*
X9450491Y-14853960D01*
X9450491Y-14853960D02*
X9440967Y-14844436D01*
X9440967Y-14844436D02*
X9431444Y-14825388D01*
X9431444Y-14825388D02*
X9421920Y-14787293D01*
X9421920Y-14787293D02*
X9421920Y-14739674D01*
X9421920Y-14739674D02*
X9431444Y-14701579D01*
X9431444Y-14701579D02*
X9440967Y-14682531D01*
X9440967Y-14682531D02*
X9450491Y-14673008D01*
X9450491Y-14673008D02*
X9469539Y-14663484D01*
X9621920Y-14863484D02*
X9621920Y-14730150D01*
X9621920Y-14749198D02*
X9631444Y-14739674D01*
X9631444Y-14739674D02*
X9650491Y-14730150D01*
X9650491Y-14730150D02*
X9679063Y-14730150D01*
X9679063Y-14730150D02*
X9698110Y-14739674D01*
X9698110Y-14739674D02*
X9707634Y-14758722D01*
X9707634Y-14758722D02*
X9707634Y-14863484D01*
X9707634Y-14758722D02*
X9717158Y-14739674D01*
X9717158Y-14739674D02*
X9736205Y-14730150D01*
X9736205Y-14730150D02*
X9764777Y-14730150D01*
X9764777Y-14730150D02*
X9783825Y-14739674D01*
X9783825Y-14739674D02*
X9793348Y-14758722D01*
X9793348Y-14758722D02*
X9793348Y-14863484D01*
X9888586Y-14863484D02*
X9888586Y-14730150D01*
X9888586Y-14749198D02*
X9898110Y-14739674D01*
X9898110Y-14739674D02*
X9917158Y-14730150D01*
X9917158Y-14730150D02*
X9945729Y-14730150D01*
X9945729Y-14730150D02*
X9964777Y-14739674D01*
X9964777Y-14739674D02*
X9974301Y-14758722D01*
X9974301Y-14758722D02*
X9974301Y-14863484D01*
X9974301Y-14758722D02*
X9983825Y-14739674D01*
X9983825Y-14739674D02*
X10002872Y-14730150D01*
X10002872Y-14730150D02*
X10031444Y-14730150D01*
X10031444Y-14730150D02*
X10050491Y-14739674D01*
X10050491Y-14739674D02*
X10060015Y-14758722D01*
X10060015Y-14758722D02*
X10060015Y-14863484D01*
X10450491Y-14653960D02*
X10279063Y-14911103D01*
X10707634Y-14663484D02*
X10726682Y-14663484D01*
X10726682Y-14663484D02*
X10745729Y-14673008D01*
X10745729Y-14673008D02*
X10755253Y-14682531D01*
X10755253Y-14682531D02*
X10764777Y-14701579D01*
X10764777Y-14701579D02*
X10774301Y-14739674D01*
X10774301Y-14739674D02*
X10774301Y-14787293D01*
X10774301Y-14787293D02*
X10764777Y-14825388D01*
X10764777Y-14825388D02*
X10755253Y-14844436D01*
X10755253Y-14844436D02*
X10745729Y-14853960D01*
X10745729Y-14853960D02*
X10726682Y-14863484D01*
X10726682Y-14863484D02*
X10707634Y-14863484D01*
X10707634Y-14863484D02*
X10688587Y-14853960D01*
X10688587Y-14853960D02*
X10679063Y-14844436D01*
X10679063Y-14844436D02*
X10669539Y-14825388D01*
X10669539Y-14825388D02*
X10660015Y-14787293D01*
X10660015Y-14787293D02*
X10660015Y-14739674D01*
X10660015Y-14739674D02*
X10669539Y-14701579D01*
X10669539Y-14701579D02*
X10679063Y-14682531D01*
X10679063Y-14682531D02*
X10688587Y-14673008D01*
X10688587Y-14673008D02*
X10707634Y-14663484D01*
X10860015Y-14844436D02*
X10869539Y-14853960D01*
X10869539Y-14853960D02*
X10860015Y-14863484D01*
X10860015Y-14863484D02*
X10850491Y-14853960D01*
X10850491Y-14853960D02*
X10860015Y-14844436D01*
X10860015Y-14844436D02*
X10860015Y-14863484D01*
X10993348Y-14663484D02*
X11012396Y-14663484D01*
X11012396Y-14663484D02*
X11031444Y-14673008D01*
X11031444Y-14673008D02*
X11040968Y-14682531D01*
X11040968Y-14682531D02*
X11050491Y-14701579D01*
X11050491Y-14701579D02*
X11060015Y-14739674D01*
X11060015Y-14739674D02*
X11060015Y-14787293D01*
X11060015Y-14787293D02*
X11050491Y-14825388D01*
X11050491Y-14825388D02*
X11040968Y-14844436D01*
X11040968Y-14844436D02*
X11031444Y-14853960D01*
X11031444Y-14853960D02*
X11012396Y-14863484D01*
X11012396Y-14863484D02*
X10993348Y-14863484D01*
X10993348Y-14863484D02*
X10974301Y-14853960D01*
X10974301Y-14853960D02*
X10964777Y-14844436D01*
X10964777Y-14844436D02*
X10955253Y-14825388D01*
X10955253Y-14825388D02*
X10945729Y-14787293D01*
X10945729Y-14787293D02*
X10945729Y-14739674D01*
X10945729Y-14739674D02*
X10955253Y-14701579D01*
X10955253Y-14701579D02*
X10964777Y-14682531D01*
X10964777Y-14682531D02*
X10974301Y-14673008D01*
X10974301Y-14673008D02*
X10993348Y-14663484D01*
X11126682Y-14663484D02*
X11250491Y-14663484D01*
X11250491Y-14663484D02*
X11183825Y-14739674D01*
X11183825Y-14739674D02*
X11212396Y-14739674D01*
X11212396Y-14739674D02*
X11231444Y-14749198D01*
X11231444Y-14749198D02*
X11240967Y-14758722D01*
X11240967Y-14758722D02*
X11250491Y-14777769D01*
X11250491Y-14777769D02*
X11250491Y-14825388D01*
X11250491Y-14825388D02*
X11240967Y-14844436D01*
X11240967Y-14844436D02*
X11231444Y-14853960D01*
X11231444Y-14853960D02*
X11212396Y-14863484D01*
X11212396Y-14863484D02*
X11155253Y-14863484D01*
X11155253Y-14863484D02*
X11136206Y-14853960D01*
X11136206Y-14853960D02*
X11126682Y-14844436D01*
X11345729Y-14863484D02*
X11383825Y-14863484D01*
X11383825Y-14863484D02*
X11402872Y-14853960D01*
X11402872Y-14853960D02*
X11412396Y-14844436D01*
X11412396Y-14844436D02*
X11431444Y-14815865D01*
X11431444Y-14815865D02*
X11440967Y-14777769D01*
X11440967Y-14777769D02*
X11440967Y-14701579D01*
X11440967Y-14701579D02*
X11431444Y-14682531D01*
X11431444Y-14682531D02*
X11421920Y-14673008D01*
X11421920Y-14673008D02*
X11402872Y-14663484D01*
X11402872Y-14663484D02*
X11364777Y-14663484D01*
X11364777Y-14663484D02*
X11345729Y-14673008D01*
X11345729Y-14673008D02*
X11336206Y-14682531D01*
X11336206Y-14682531D02*
X11326682Y-14701579D01*
X11326682Y-14701579D02*
X11326682Y-14749198D01*
X11326682Y-14749198D02*
X11336206Y-14768246D01*
X11336206Y-14768246D02*
X11345729Y-14777769D01*
X11345729Y-14777769D02*
X11364777Y-14787293D01*
X11364777Y-14787293D02*
X11402872Y-14787293D01*
X11402872Y-14787293D02*
X11421920Y-14777769D01*
X11421920Y-14777769D02*
X11431444Y-14768246D01*
X11431444Y-14768246D02*
X11440967Y-14749198D01*
X11612396Y-14730150D02*
X11612396Y-14863484D01*
X11564777Y-14653960D02*
X11517158Y-14796817D01*
X11517158Y-14796817D02*
X11640967Y-14796817D01*
X11707634Y-14663484D02*
X11707634Y-14701579D01*
X11783825Y-14663484D02*
X11783825Y-14701579D01*
X12079063Y-14939674D02*
X12069539Y-14930150D01*
X12069539Y-14930150D02*
X12050491Y-14901579D01*
X12050491Y-14901579D02*
X12040968Y-14882531D01*
X12040968Y-14882531D02*
X12031444Y-14853960D01*
X12031444Y-14853960D02*
X12021920Y-14806341D01*
X12021920Y-14806341D02*
X12021920Y-14768246D01*
X12021920Y-14768246D02*
X12031444Y-14720627D01*
X12031444Y-14720627D02*
X12040968Y-14692055D01*
X12040968Y-14692055D02*
X12050491Y-14673008D01*
X12050491Y-14673008D02*
X12069539Y-14644436D01*
X12069539Y-14644436D02*
X12079063Y-14634912D01*
X12240968Y-14730150D02*
X12240968Y-14863484D01*
X12193348Y-14653960D02*
X12145729Y-14796817D01*
X12145729Y-14796817D02*
X12269539Y-14796817D01*
X12336206Y-14682531D02*
X12345729Y-14673008D01*
X12345729Y-14673008D02*
X12364777Y-14663484D01*
X12364777Y-14663484D02*
X12412396Y-14663484D01*
X12412396Y-14663484D02*
X12431444Y-14673008D01*
X12431444Y-14673008D02*
X12440968Y-14682531D01*
X12440968Y-14682531D02*
X12450491Y-14701579D01*
X12450491Y-14701579D02*
X12450491Y-14720627D01*
X12450491Y-14720627D02*
X12440968Y-14749198D01*
X12440968Y-14749198D02*
X12326682Y-14863484D01*
X12326682Y-14863484D02*
X12450491Y-14863484D01*
X12688587Y-14863484D02*
X12688587Y-14663484D01*
X12774301Y-14863484D02*
X12774301Y-14758722D01*
X12774301Y-14758722D02*
X12764777Y-14739674D01*
X12764777Y-14739674D02*
X12745730Y-14730150D01*
X12745730Y-14730150D02*
X12717158Y-14730150D01*
X12717158Y-14730150D02*
X12698110Y-14739674D01*
X12698110Y-14739674D02*
X12688587Y-14749198D01*
X12898110Y-14863484D02*
X12879063Y-14853960D01*
X12879063Y-14853960D02*
X12869539Y-14844436D01*
X12869539Y-14844436D02*
X12860015Y-14825388D01*
X12860015Y-14825388D02*
X12860015Y-14768246D01*
X12860015Y-14768246D02*
X12869539Y-14749198D01*
X12869539Y-14749198D02*
X12879063Y-14739674D01*
X12879063Y-14739674D02*
X12898110Y-14730150D01*
X12898110Y-14730150D02*
X12926682Y-14730150D01*
X12926682Y-14730150D02*
X12945730Y-14739674D01*
X12945730Y-14739674D02*
X12955253Y-14749198D01*
X12955253Y-14749198D02*
X12964777Y-14768246D01*
X12964777Y-14768246D02*
X12964777Y-14825388D01*
X12964777Y-14825388D02*
X12955253Y-14844436D01*
X12955253Y-14844436D02*
X12945730Y-14853960D01*
X12945730Y-14853960D02*
X12926682Y-14863484D01*
X12926682Y-14863484D02*
X12898110Y-14863484D01*
X13079063Y-14863484D02*
X13060015Y-14853960D01*
X13060015Y-14853960D02*
X13050491Y-14834912D01*
X13050491Y-14834912D02*
X13050491Y-14663484D01*
X13231444Y-14853960D02*
X13212396Y-14863484D01*
X13212396Y-14863484D02*
X13174301Y-14863484D01*
X13174301Y-14863484D02*
X13155253Y-14853960D01*
X13155253Y-14853960D02*
X13145730Y-14834912D01*
X13145730Y-14834912D02*
X13145730Y-14758722D01*
X13145730Y-14758722D02*
X13155253Y-14739674D01*
X13155253Y-14739674D02*
X13174301Y-14730150D01*
X13174301Y-14730150D02*
X13212396Y-14730150D01*
X13212396Y-14730150D02*
X13231444Y-14739674D01*
X13231444Y-14739674D02*
X13240968Y-14758722D01*
X13240968Y-14758722D02*
X13240968Y-14777769D01*
X13240968Y-14777769D02*
X13145730Y-14796817D01*
X13317158Y-14853960D02*
X13336206Y-14863484D01*
X13336206Y-14863484D02*
X13374301Y-14863484D01*
X13374301Y-14863484D02*
X13393349Y-14853960D01*
X13393349Y-14853960D02*
X13402872Y-14834912D01*
X13402872Y-14834912D02*
X13402872Y-14825388D01*
X13402872Y-14825388D02*
X13393349Y-14806341D01*
X13393349Y-14806341D02*
X13374301Y-14796817D01*
X13374301Y-14796817D02*
X13345730Y-14796817D01*
X13345730Y-14796817D02*
X13326682Y-14787293D01*
X13326682Y-14787293D02*
X13317158Y-14768246D01*
X13317158Y-14768246D02*
X13317158Y-14758722D01*
X13317158Y-14758722D02*
X13326682Y-14739674D01*
X13326682Y-14739674D02*
X13345730Y-14730150D01*
X13345730Y-14730150D02*
X13374301Y-14730150D01*
X13374301Y-14730150D02*
X13393349Y-14739674D01*
X13469539Y-14939674D02*
X13479063Y-14930150D01*
X13479063Y-14930150D02*
X13498111Y-14901579D01*
X13498111Y-14901579D02*
X13507634Y-14882531D01*
X13507634Y-14882531D02*
X13517158Y-14853960D01*
X13517158Y-14853960D02*
X13526682Y-14806341D01*
X13526682Y-14806341D02*
X13526682Y-14768246D01*
X13526682Y-14768246D02*
X13517158Y-14720627D01*
X13517158Y-14720627D02*
X13507634Y-14692055D01*
X13507634Y-14692055D02*
X13498111Y-14673008D01*
X13498111Y-14673008D02*
X13479063Y-14644436D01*
X13479063Y-14644436D02*
X13469539Y-14634912D01*
D15*
X8429000Y-15111000D02*
X8504000Y-15036000D01*
X8429000Y-14961000D01*
X8354000Y-15036000D01*
X8429000Y-15111000D01*
D11*
X8869539Y-15127484D02*
X8755253Y-15127484D01*
X8812396Y-15127484D02*
X8812396Y-14927484D01*
X8812396Y-14927484D02*
X8793348Y-14956055D01*
X8793348Y-14956055D02*
X8774301Y-14975103D01*
X8774301Y-14975103D02*
X8755253Y-14984627D01*
X8955253Y-15108436D02*
X8964777Y-15117960D01*
X8964777Y-15117960D02*
X8955253Y-15127484D01*
X8955253Y-15127484D02*
X8945729Y-15117960D01*
X8945729Y-15117960D02*
X8955253Y-15108436D01*
X8955253Y-15108436D02*
X8955253Y-15127484D01*
X9145729Y-14927484D02*
X9050491Y-14927484D01*
X9050491Y-14927484D02*
X9040967Y-15022722D01*
X9040967Y-15022722D02*
X9050491Y-15013198D01*
X9050491Y-15013198D02*
X9069539Y-15003674D01*
X9069539Y-15003674D02*
X9117158Y-15003674D01*
X9117158Y-15003674D02*
X9136205Y-15013198D01*
X9136205Y-15013198D02*
X9145729Y-15022722D01*
X9145729Y-15022722D02*
X9155253Y-15041769D01*
X9155253Y-15041769D02*
X9155253Y-15089388D01*
X9155253Y-15089388D02*
X9145729Y-15108436D01*
X9145729Y-15108436D02*
X9136205Y-15117960D01*
X9136205Y-15117960D02*
X9117158Y-15127484D01*
X9117158Y-15127484D02*
X9069539Y-15127484D01*
X9069539Y-15127484D02*
X9050491Y-15117960D01*
X9050491Y-15117960D02*
X9040967Y-15108436D01*
X9279063Y-14927484D02*
X9298110Y-14927484D01*
X9298110Y-14927484D02*
X9317158Y-14937008D01*
X9317158Y-14937008D02*
X9326682Y-14946531D01*
X9326682Y-14946531D02*
X9336205Y-14965579D01*
X9336205Y-14965579D02*
X9345729Y-15003674D01*
X9345729Y-15003674D02*
X9345729Y-15051293D01*
X9345729Y-15051293D02*
X9336205Y-15089388D01*
X9336205Y-15089388D02*
X9326682Y-15108436D01*
X9326682Y-15108436D02*
X9317158Y-15117960D01*
X9317158Y-15117960D02*
X9298110Y-15127484D01*
X9298110Y-15127484D02*
X9279063Y-15127484D01*
X9279063Y-15127484D02*
X9260015Y-15117960D01*
X9260015Y-15117960D02*
X9250491Y-15108436D01*
X9250491Y-15108436D02*
X9240967Y-15089388D01*
X9240967Y-15089388D02*
X9231444Y-15051293D01*
X9231444Y-15051293D02*
X9231444Y-15003674D01*
X9231444Y-15003674D02*
X9240967Y-14965579D01*
X9240967Y-14965579D02*
X9250491Y-14946531D01*
X9250491Y-14946531D02*
X9260015Y-14937008D01*
X9260015Y-14937008D02*
X9279063Y-14927484D01*
X9469539Y-14927484D02*
X9488586Y-14927484D01*
X9488586Y-14927484D02*
X9507634Y-14937008D01*
X9507634Y-14937008D02*
X9517158Y-14946531D01*
X9517158Y-14946531D02*
X9526682Y-14965579D01*
X9526682Y-14965579D02*
X9536205Y-15003674D01*
X9536205Y-15003674D02*
X9536205Y-15051293D01*
X9536205Y-15051293D02*
X9526682Y-15089388D01*
X9526682Y-15089388D02*
X9517158Y-15108436D01*
X9517158Y-15108436D02*
X9507634Y-15117960D01*
X9507634Y-15117960D02*
X9488586Y-15127484D01*
X9488586Y-15127484D02*
X9469539Y-15127484D01*
X9469539Y-15127484D02*
X9450491Y-15117960D01*
X9450491Y-15117960D02*
X9440967Y-15108436D01*
X9440967Y-15108436D02*
X9431444Y-15089388D01*
X9431444Y-15089388D02*
X9421920Y-15051293D01*
X9421920Y-15051293D02*
X9421920Y-15003674D01*
X9421920Y-15003674D02*
X9431444Y-14965579D01*
X9431444Y-14965579D02*
X9440967Y-14946531D01*
X9440967Y-14946531D02*
X9450491Y-14937008D01*
X9450491Y-14937008D02*
X9469539Y-14927484D01*
X9621920Y-15127484D02*
X9621920Y-14994150D01*
X9621920Y-15013198D02*
X9631444Y-15003674D01*
X9631444Y-15003674D02*
X9650491Y-14994150D01*
X9650491Y-14994150D02*
X9679063Y-14994150D01*
X9679063Y-14994150D02*
X9698110Y-15003674D01*
X9698110Y-15003674D02*
X9707634Y-15022722D01*
X9707634Y-15022722D02*
X9707634Y-15127484D01*
X9707634Y-15022722D02*
X9717158Y-15003674D01*
X9717158Y-15003674D02*
X9736205Y-14994150D01*
X9736205Y-14994150D02*
X9764777Y-14994150D01*
X9764777Y-14994150D02*
X9783825Y-15003674D01*
X9783825Y-15003674D02*
X9793348Y-15022722D01*
X9793348Y-15022722D02*
X9793348Y-15127484D01*
X9888586Y-15127484D02*
X9888586Y-14994150D01*
X9888586Y-15013198D02*
X9898110Y-15003674D01*
X9898110Y-15003674D02*
X9917158Y-14994150D01*
X9917158Y-14994150D02*
X9945729Y-14994150D01*
X9945729Y-14994150D02*
X9964777Y-15003674D01*
X9964777Y-15003674D02*
X9974301Y-15022722D01*
X9974301Y-15022722D02*
X9974301Y-15127484D01*
X9974301Y-15022722D02*
X9983825Y-15003674D01*
X9983825Y-15003674D02*
X10002872Y-14994150D01*
X10002872Y-14994150D02*
X10031444Y-14994150D01*
X10031444Y-14994150D02*
X10050491Y-15003674D01*
X10050491Y-15003674D02*
X10060015Y-15022722D01*
X10060015Y-15022722D02*
X10060015Y-15127484D01*
X10450491Y-14917960D02*
X10279063Y-15175103D01*
X10707634Y-14927484D02*
X10726682Y-14927484D01*
X10726682Y-14927484D02*
X10745729Y-14937008D01*
X10745729Y-14937008D02*
X10755253Y-14946531D01*
X10755253Y-14946531D02*
X10764777Y-14965579D01*
X10764777Y-14965579D02*
X10774301Y-15003674D01*
X10774301Y-15003674D02*
X10774301Y-15051293D01*
X10774301Y-15051293D02*
X10764777Y-15089388D01*
X10764777Y-15089388D02*
X10755253Y-15108436D01*
X10755253Y-15108436D02*
X10745729Y-15117960D01*
X10745729Y-15117960D02*
X10726682Y-15127484D01*
X10726682Y-15127484D02*
X10707634Y-15127484D01*
X10707634Y-15127484D02*
X10688587Y-15117960D01*
X10688587Y-15117960D02*
X10679063Y-15108436D01*
X10679063Y-15108436D02*
X10669539Y-15089388D01*
X10669539Y-15089388D02*
X10660015Y-15051293D01*
X10660015Y-15051293D02*
X10660015Y-15003674D01*
X10660015Y-15003674D02*
X10669539Y-14965579D01*
X10669539Y-14965579D02*
X10679063Y-14946531D01*
X10679063Y-14946531D02*
X10688587Y-14937008D01*
X10688587Y-14937008D02*
X10707634Y-14927484D01*
X10860015Y-15108436D02*
X10869539Y-15117960D01*
X10869539Y-15117960D02*
X10860015Y-15127484D01*
X10860015Y-15127484D02*
X10850491Y-15117960D01*
X10850491Y-15117960D02*
X10860015Y-15108436D01*
X10860015Y-15108436D02*
X10860015Y-15127484D01*
X10993348Y-14927484D02*
X11012396Y-14927484D01*
X11012396Y-14927484D02*
X11031444Y-14937008D01*
X11031444Y-14937008D02*
X11040968Y-14946531D01*
X11040968Y-14946531D02*
X11050491Y-14965579D01*
X11050491Y-14965579D02*
X11060015Y-15003674D01*
X11060015Y-15003674D02*
X11060015Y-15051293D01*
X11060015Y-15051293D02*
X11050491Y-15089388D01*
X11050491Y-15089388D02*
X11040968Y-15108436D01*
X11040968Y-15108436D02*
X11031444Y-15117960D01*
X11031444Y-15117960D02*
X11012396Y-15127484D01*
X11012396Y-15127484D02*
X10993348Y-15127484D01*
X10993348Y-15127484D02*
X10974301Y-15117960D01*
X10974301Y-15117960D02*
X10964777Y-15108436D01*
X10964777Y-15108436D02*
X10955253Y-15089388D01*
X10955253Y-15089388D02*
X10945729Y-15051293D01*
X10945729Y-15051293D02*
X10945729Y-15003674D01*
X10945729Y-15003674D02*
X10955253Y-14965579D01*
X10955253Y-14965579D02*
X10964777Y-14946531D01*
X10964777Y-14946531D02*
X10974301Y-14937008D01*
X10974301Y-14937008D02*
X10993348Y-14927484D01*
X11240967Y-14927484D02*
X11145729Y-14927484D01*
X11145729Y-14927484D02*
X11136206Y-15022722D01*
X11136206Y-15022722D02*
X11145729Y-15013198D01*
X11145729Y-15013198D02*
X11164777Y-15003674D01*
X11164777Y-15003674D02*
X11212396Y-15003674D01*
X11212396Y-15003674D02*
X11231444Y-15013198D01*
X11231444Y-15013198D02*
X11240967Y-15022722D01*
X11240967Y-15022722D02*
X11250491Y-15041769D01*
X11250491Y-15041769D02*
X11250491Y-15089388D01*
X11250491Y-15089388D02*
X11240967Y-15108436D01*
X11240967Y-15108436D02*
X11231444Y-15117960D01*
X11231444Y-15117960D02*
X11212396Y-15127484D01*
X11212396Y-15127484D02*
X11164777Y-15127484D01*
X11164777Y-15127484D02*
X11145729Y-15117960D01*
X11145729Y-15117960D02*
X11136206Y-15108436D01*
X11345729Y-15127484D02*
X11383825Y-15127484D01*
X11383825Y-15127484D02*
X11402872Y-15117960D01*
X11402872Y-15117960D02*
X11412396Y-15108436D01*
X11412396Y-15108436D02*
X11431444Y-15079865D01*
X11431444Y-15079865D02*
X11440967Y-15041769D01*
X11440967Y-15041769D02*
X11440967Y-14965579D01*
X11440967Y-14965579D02*
X11431444Y-14946531D01*
X11431444Y-14946531D02*
X11421920Y-14937008D01*
X11421920Y-14937008D02*
X11402872Y-14927484D01*
X11402872Y-14927484D02*
X11364777Y-14927484D01*
X11364777Y-14927484D02*
X11345729Y-14937008D01*
X11345729Y-14937008D02*
X11336206Y-14946531D01*
X11336206Y-14946531D02*
X11326682Y-14965579D01*
X11326682Y-14965579D02*
X11326682Y-15013198D01*
X11326682Y-15013198D02*
X11336206Y-15032246D01*
X11336206Y-15032246D02*
X11345729Y-15041769D01*
X11345729Y-15041769D02*
X11364777Y-15051293D01*
X11364777Y-15051293D02*
X11402872Y-15051293D01*
X11402872Y-15051293D02*
X11421920Y-15041769D01*
X11421920Y-15041769D02*
X11431444Y-15032246D01*
X11431444Y-15032246D02*
X11440967Y-15013198D01*
X11631444Y-15127484D02*
X11517158Y-15127484D01*
X11574301Y-15127484D02*
X11574301Y-14927484D01*
X11574301Y-14927484D02*
X11555253Y-14956055D01*
X11555253Y-14956055D02*
X11536206Y-14975103D01*
X11536206Y-14975103D02*
X11517158Y-14984627D01*
X11707634Y-14927484D02*
X11707634Y-14965579D01*
X11783825Y-14927484D02*
X11783825Y-14965579D01*
X12079063Y-15203674D02*
X12069539Y-15194150D01*
X12069539Y-15194150D02*
X12050491Y-15165579D01*
X12050491Y-15165579D02*
X12040968Y-15146531D01*
X12040968Y-15146531D02*
X12031444Y-15117960D01*
X12031444Y-15117960D02*
X12021920Y-15070341D01*
X12021920Y-15070341D02*
X12021920Y-15032246D01*
X12021920Y-15032246D02*
X12031444Y-14984627D01*
X12031444Y-14984627D02*
X12040968Y-14956055D01*
X12040968Y-14956055D02*
X12050491Y-14937008D01*
X12050491Y-14937008D02*
X12069539Y-14908436D01*
X12069539Y-14908436D02*
X12079063Y-14898912D01*
X12250491Y-14927484D02*
X12155253Y-14927484D01*
X12155253Y-14927484D02*
X12145729Y-15022722D01*
X12145729Y-15022722D02*
X12155253Y-15013198D01*
X12155253Y-15013198D02*
X12174301Y-15003674D01*
X12174301Y-15003674D02*
X12221920Y-15003674D01*
X12221920Y-15003674D02*
X12240968Y-15013198D01*
X12240968Y-15013198D02*
X12250491Y-15022722D01*
X12250491Y-15022722D02*
X12260015Y-15041769D01*
X12260015Y-15041769D02*
X12260015Y-15089388D01*
X12260015Y-15089388D02*
X12250491Y-15108436D01*
X12250491Y-15108436D02*
X12240968Y-15117960D01*
X12240968Y-15117960D02*
X12221920Y-15127484D01*
X12221920Y-15127484D02*
X12174301Y-15127484D01*
X12174301Y-15127484D02*
X12155253Y-15117960D01*
X12155253Y-15117960D02*
X12145729Y-15108436D01*
X12498110Y-15127484D02*
X12498110Y-14927484D01*
X12583825Y-15127484D02*
X12583825Y-15022722D01*
X12583825Y-15022722D02*
X12574301Y-15003674D01*
X12574301Y-15003674D02*
X12555253Y-14994150D01*
X12555253Y-14994150D02*
X12526682Y-14994150D01*
X12526682Y-14994150D02*
X12507634Y-15003674D01*
X12507634Y-15003674D02*
X12498110Y-15013198D01*
X12707634Y-15127484D02*
X12688587Y-15117960D01*
X12688587Y-15117960D02*
X12679063Y-15108436D01*
X12679063Y-15108436D02*
X12669539Y-15089388D01*
X12669539Y-15089388D02*
X12669539Y-15032246D01*
X12669539Y-15032246D02*
X12679063Y-15013198D01*
X12679063Y-15013198D02*
X12688587Y-15003674D01*
X12688587Y-15003674D02*
X12707634Y-14994150D01*
X12707634Y-14994150D02*
X12736206Y-14994150D01*
X12736206Y-14994150D02*
X12755253Y-15003674D01*
X12755253Y-15003674D02*
X12764777Y-15013198D01*
X12764777Y-15013198D02*
X12774301Y-15032246D01*
X12774301Y-15032246D02*
X12774301Y-15089388D01*
X12774301Y-15089388D02*
X12764777Y-15108436D01*
X12764777Y-15108436D02*
X12755253Y-15117960D01*
X12755253Y-15117960D02*
X12736206Y-15127484D01*
X12736206Y-15127484D02*
X12707634Y-15127484D01*
X12888587Y-15127484D02*
X12869539Y-15117960D01*
X12869539Y-15117960D02*
X12860015Y-15098912D01*
X12860015Y-15098912D02*
X12860015Y-14927484D01*
X13040968Y-15117960D02*
X13021920Y-15127484D01*
X13021920Y-15127484D02*
X12983825Y-15127484D01*
X12983825Y-15127484D02*
X12964777Y-15117960D01*
X12964777Y-15117960D02*
X12955253Y-15098912D01*
X12955253Y-15098912D02*
X12955253Y-15022722D01*
X12955253Y-15022722D02*
X12964777Y-15003674D01*
X12964777Y-15003674D02*
X12983825Y-14994150D01*
X12983825Y-14994150D02*
X13021920Y-14994150D01*
X13021920Y-14994150D02*
X13040968Y-15003674D01*
X13040968Y-15003674D02*
X13050491Y-15022722D01*
X13050491Y-15022722D02*
X13050491Y-15041769D01*
X13050491Y-15041769D02*
X12955253Y-15060817D01*
X13126682Y-15117960D02*
X13145730Y-15127484D01*
X13145730Y-15127484D02*
X13183825Y-15127484D01*
X13183825Y-15127484D02*
X13202872Y-15117960D01*
X13202872Y-15117960D02*
X13212396Y-15098912D01*
X13212396Y-15098912D02*
X13212396Y-15089388D01*
X13212396Y-15089388D02*
X13202872Y-15070341D01*
X13202872Y-15070341D02*
X13183825Y-15060817D01*
X13183825Y-15060817D02*
X13155253Y-15060817D01*
X13155253Y-15060817D02*
X13136206Y-15051293D01*
X13136206Y-15051293D02*
X13126682Y-15032246D01*
X13126682Y-15032246D02*
X13126682Y-15022722D01*
X13126682Y-15022722D02*
X13136206Y-15003674D01*
X13136206Y-15003674D02*
X13155253Y-14994150D01*
X13155253Y-14994150D02*
X13183825Y-14994150D01*
X13183825Y-14994150D02*
X13202872Y-15003674D01*
X13279063Y-15203674D02*
X13288587Y-15194150D01*
X13288587Y-15194150D02*
X13307634Y-15165579D01*
X13307634Y-15165579D02*
X13317158Y-15146531D01*
X13317158Y-15146531D02*
X13326682Y-15117960D01*
X13326682Y-15117960D02*
X13336206Y-15070341D01*
X13336206Y-15070341D02*
X13336206Y-15032246D01*
X13336206Y-15032246D02*
X13326682Y-14984627D01*
X13326682Y-14984627D02*
X13317158Y-14956055D01*
X13317158Y-14956055D02*
X13307634Y-14937008D01*
X13307634Y-14937008D02*
X13288587Y-14908436D01*
X13288587Y-14908436D02*
X13279063Y-14898912D01*
D16*
X8352000Y-15230000D02*
X8504000Y-15382000D01*
X8504000Y-15230000D02*
X8352000Y-15382000D01*
X8504000Y-15306000D02*
G75*
G03*
X8504000Y-15306000I-76000J0D01*
G01*
D11*
X8869539Y-15397484D02*
X8755253Y-15397484D01*
X8812396Y-15397484D02*
X8812396Y-15197484D01*
X8812396Y-15197484D02*
X8793348Y-15226055D01*
X8793348Y-15226055D02*
X8774301Y-15245103D01*
X8774301Y-15245103D02*
X8755253Y-15254627D01*
X8955253Y-15378436D02*
X8964777Y-15387960D01*
X8964777Y-15387960D02*
X8955253Y-15397484D01*
X8955253Y-15397484D02*
X8945729Y-15387960D01*
X8945729Y-15387960D02*
X8955253Y-15378436D01*
X8955253Y-15378436D02*
X8955253Y-15397484D01*
X9145729Y-15197484D02*
X9050491Y-15197484D01*
X9050491Y-15197484D02*
X9040967Y-15292722D01*
X9040967Y-15292722D02*
X9050491Y-15283198D01*
X9050491Y-15283198D02*
X9069539Y-15273674D01*
X9069539Y-15273674D02*
X9117158Y-15273674D01*
X9117158Y-15273674D02*
X9136205Y-15283198D01*
X9136205Y-15283198D02*
X9145729Y-15292722D01*
X9145729Y-15292722D02*
X9155253Y-15311769D01*
X9155253Y-15311769D02*
X9155253Y-15359388D01*
X9155253Y-15359388D02*
X9145729Y-15378436D01*
X9145729Y-15378436D02*
X9136205Y-15387960D01*
X9136205Y-15387960D02*
X9117158Y-15397484D01*
X9117158Y-15397484D02*
X9069539Y-15397484D01*
X9069539Y-15397484D02*
X9050491Y-15387960D01*
X9050491Y-15387960D02*
X9040967Y-15378436D01*
X9231444Y-15216531D02*
X9240967Y-15207008D01*
X9240967Y-15207008D02*
X9260015Y-15197484D01*
X9260015Y-15197484D02*
X9307634Y-15197484D01*
X9307634Y-15197484D02*
X9326682Y-15207008D01*
X9326682Y-15207008D02*
X9336205Y-15216531D01*
X9336205Y-15216531D02*
X9345729Y-15235579D01*
X9345729Y-15235579D02*
X9345729Y-15254627D01*
X9345729Y-15254627D02*
X9336205Y-15283198D01*
X9336205Y-15283198D02*
X9221920Y-15397484D01*
X9221920Y-15397484D02*
X9345729Y-15397484D01*
X9469539Y-15197484D02*
X9488586Y-15197484D01*
X9488586Y-15197484D02*
X9507634Y-15207008D01*
X9507634Y-15207008D02*
X9517158Y-15216531D01*
X9517158Y-15216531D02*
X9526682Y-15235579D01*
X9526682Y-15235579D02*
X9536205Y-15273674D01*
X9536205Y-15273674D02*
X9536205Y-15321293D01*
X9536205Y-15321293D02*
X9526682Y-15359388D01*
X9526682Y-15359388D02*
X9517158Y-15378436D01*
X9517158Y-15378436D02*
X9507634Y-15387960D01*
X9507634Y-15387960D02*
X9488586Y-15397484D01*
X9488586Y-15397484D02*
X9469539Y-15397484D01*
X9469539Y-15397484D02*
X9450491Y-15387960D01*
X9450491Y-15387960D02*
X9440967Y-15378436D01*
X9440967Y-15378436D02*
X9431444Y-15359388D01*
X9431444Y-15359388D02*
X9421920Y-15321293D01*
X9421920Y-15321293D02*
X9421920Y-15273674D01*
X9421920Y-15273674D02*
X9431444Y-15235579D01*
X9431444Y-15235579D02*
X9440967Y-15216531D01*
X9440967Y-15216531D02*
X9450491Y-15207008D01*
X9450491Y-15207008D02*
X9469539Y-15197484D01*
X9621920Y-15397484D02*
X9621920Y-15264150D01*
X9621920Y-15283198D02*
X9631444Y-15273674D01*
X9631444Y-15273674D02*
X9650491Y-15264150D01*
X9650491Y-15264150D02*
X9679063Y-15264150D01*
X9679063Y-15264150D02*
X9698110Y-15273674D01*
X9698110Y-15273674D02*
X9707634Y-15292722D01*
X9707634Y-15292722D02*
X9707634Y-15397484D01*
X9707634Y-15292722D02*
X9717158Y-15273674D01*
X9717158Y-15273674D02*
X9736205Y-15264150D01*
X9736205Y-15264150D02*
X9764777Y-15264150D01*
X9764777Y-15264150D02*
X9783825Y-15273674D01*
X9783825Y-15273674D02*
X9793348Y-15292722D01*
X9793348Y-15292722D02*
X9793348Y-15397484D01*
X9888586Y-15397484D02*
X9888586Y-15264150D01*
X9888586Y-15283198D02*
X9898110Y-15273674D01*
X9898110Y-15273674D02*
X9917158Y-15264150D01*
X9917158Y-15264150D02*
X9945729Y-15264150D01*
X9945729Y-15264150D02*
X9964777Y-15273674D01*
X9964777Y-15273674D02*
X9974301Y-15292722D01*
X9974301Y-15292722D02*
X9974301Y-15397484D01*
X9974301Y-15292722D02*
X9983825Y-15273674D01*
X9983825Y-15273674D02*
X10002872Y-15264150D01*
X10002872Y-15264150D02*
X10031444Y-15264150D01*
X10031444Y-15264150D02*
X10050491Y-15273674D01*
X10050491Y-15273674D02*
X10060015Y-15292722D01*
X10060015Y-15292722D02*
X10060015Y-15397484D01*
X10450491Y-15187960D02*
X10279063Y-15445103D01*
X10707634Y-15197484D02*
X10726682Y-15197484D01*
X10726682Y-15197484D02*
X10745729Y-15207008D01*
X10745729Y-15207008D02*
X10755253Y-15216531D01*
X10755253Y-15216531D02*
X10764777Y-15235579D01*
X10764777Y-15235579D02*
X10774301Y-15273674D01*
X10774301Y-15273674D02*
X10774301Y-15321293D01*
X10774301Y-15321293D02*
X10764777Y-15359388D01*
X10764777Y-15359388D02*
X10755253Y-15378436D01*
X10755253Y-15378436D02*
X10745729Y-15387960D01*
X10745729Y-15387960D02*
X10726682Y-15397484D01*
X10726682Y-15397484D02*
X10707634Y-15397484D01*
X10707634Y-15397484D02*
X10688587Y-15387960D01*
X10688587Y-15387960D02*
X10679063Y-15378436D01*
X10679063Y-15378436D02*
X10669539Y-15359388D01*
X10669539Y-15359388D02*
X10660015Y-15321293D01*
X10660015Y-15321293D02*
X10660015Y-15273674D01*
X10660015Y-15273674D02*
X10669539Y-15235579D01*
X10669539Y-15235579D02*
X10679063Y-15216531D01*
X10679063Y-15216531D02*
X10688587Y-15207008D01*
X10688587Y-15207008D02*
X10707634Y-15197484D01*
X10860015Y-15378436D02*
X10869539Y-15387960D01*
X10869539Y-15387960D02*
X10860015Y-15397484D01*
X10860015Y-15397484D02*
X10850491Y-15387960D01*
X10850491Y-15387960D02*
X10860015Y-15378436D01*
X10860015Y-15378436D02*
X10860015Y-15397484D01*
X10993348Y-15197484D02*
X11012396Y-15197484D01*
X11012396Y-15197484D02*
X11031444Y-15207008D01*
X11031444Y-15207008D02*
X11040968Y-15216531D01*
X11040968Y-15216531D02*
X11050491Y-15235579D01*
X11050491Y-15235579D02*
X11060015Y-15273674D01*
X11060015Y-15273674D02*
X11060015Y-15321293D01*
X11060015Y-15321293D02*
X11050491Y-15359388D01*
X11050491Y-15359388D02*
X11040968Y-15378436D01*
X11040968Y-15378436D02*
X11031444Y-15387960D01*
X11031444Y-15387960D02*
X11012396Y-15397484D01*
X11012396Y-15397484D02*
X10993348Y-15397484D01*
X10993348Y-15397484D02*
X10974301Y-15387960D01*
X10974301Y-15387960D02*
X10964777Y-15378436D01*
X10964777Y-15378436D02*
X10955253Y-15359388D01*
X10955253Y-15359388D02*
X10945729Y-15321293D01*
X10945729Y-15321293D02*
X10945729Y-15273674D01*
X10945729Y-15273674D02*
X10955253Y-15235579D01*
X10955253Y-15235579D02*
X10964777Y-15216531D01*
X10964777Y-15216531D02*
X10974301Y-15207008D01*
X10974301Y-15207008D02*
X10993348Y-15197484D01*
X11240967Y-15197484D02*
X11145729Y-15197484D01*
X11145729Y-15197484D02*
X11136206Y-15292722D01*
X11136206Y-15292722D02*
X11145729Y-15283198D01*
X11145729Y-15283198D02*
X11164777Y-15273674D01*
X11164777Y-15273674D02*
X11212396Y-15273674D01*
X11212396Y-15273674D02*
X11231444Y-15283198D01*
X11231444Y-15283198D02*
X11240967Y-15292722D01*
X11240967Y-15292722D02*
X11250491Y-15311769D01*
X11250491Y-15311769D02*
X11250491Y-15359388D01*
X11250491Y-15359388D02*
X11240967Y-15378436D01*
X11240967Y-15378436D02*
X11231444Y-15387960D01*
X11231444Y-15387960D02*
X11212396Y-15397484D01*
X11212396Y-15397484D02*
X11164777Y-15397484D01*
X11164777Y-15397484D02*
X11145729Y-15387960D01*
X11145729Y-15387960D02*
X11136206Y-15378436D01*
X11345729Y-15397484D02*
X11383825Y-15397484D01*
X11383825Y-15397484D02*
X11402872Y-15387960D01*
X11402872Y-15387960D02*
X11412396Y-15378436D01*
X11412396Y-15378436D02*
X11431444Y-15349865D01*
X11431444Y-15349865D02*
X11440967Y-15311769D01*
X11440967Y-15311769D02*
X11440967Y-15235579D01*
X11440967Y-15235579D02*
X11431444Y-15216531D01*
X11431444Y-15216531D02*
X11421920Y-15207008D01*
X11421920Y-15207008D02*
X11402872Y-15197484D01*
X11402872Y-15197484D02*
X11364777Y-15197484D01*
X11364777Y-15197484D02*
X11345729Y-15207008D01*
X11345729Y-15207008D02*
X11336206Y-15216531D01*
X11336206Y-15216531D02*
X11326682Y-15235579D01*
X11326682Y-15235579D02*
X11326682Y-15283198D01*
X11326682Y-15283198D02*
X11336206Y-15302246D01*
X11336206Y-15302246D02*
X11345729Y-15311769D01*
X11345729Y-15311769D02*
X11364777Y-15321293D01*
X11364777Y-15321293D02*
X11402872Y-15321293D01*
X11402872Y-15321293D02*
X11421920Y-15311769D01*
X11421920Y-15311769D02*
X11431444Y-15302246D01*
X11431444Y-15302246D02*
X11440967Y-15283198D01*
X11555253Y-15283198D02*
X11536206Y-15273674D01*
X11536206Y-15273674D02*
X11526682Y-15264150D01*
X11526682Y-15264150D02*
X11517158Y-15245103D01*
X11517158Y-15245103D02*
X11517158Y-15235579D01*
X11517158Y-15235579D02*
X11526682Y-15216531D01*
X11526682Y-15216531D02*
X11536206Y-15207008D01*
X11536206Y-15207008D02*
X11555253Y-15197484D01*
X11555253Y-15197484D02*
X11593348Y-15197484D01*
X11593348Y-15197484D02*
X11612396Y-15207008D01*
X11612396Y-15207008D02*
X11621920Y-15216531D01*
X11621920Y-15216531D02*
X11631444Y-15235579D01*
X11631444Y-15235579D02*
X11631444Y-15245103D01*
X11631444Y-15245103D02*
X11621920Y-15264150D01*
X11621920Y-15264150D02*
X11612396Y-15273674D01*
X11612396Y-15273674D02*
X11593348Y-15283198D01*
X11593348Y-15283198D02*
X11555253Y-15283198D01*
X11555253Y-15283198D02*
X11536206Y-15292722D01*
X11536206Y-15292722D02*
X11526682Y-15302246D01*
X11526682Y-15302246D02*
X11517158Y-15321293D01*
X11517158Y-15321293D02*
X11517158Y-15359388D01*
X11517158Y-15359388D02*
X11526682Y-15378436D01*
X11526682Y-15378436D02*
X11536206Y-15387960D01*
X11536206Y-15387960D02*
X11555253Y-15397484D01*
X11555253Y-15397484D02*
X11593348Y-15397484D01*
X11593348Y-15397484D02*
X11612396Y-15387960D01*
X11612396Y-15387960D02*
X11621920Y-15378436D01*
X11621920Y-15378436D02*
X11631444Y-15359388D01*
X11631444Y-15359388D02*
X11631444Y-15321293D01*
X11631444Y-15321293D02*
X11621920Y-15302246D01*
X11621920Y-15302246D02*
X11612396Y-15292722D01*
X11612396Y-15292722D02*
X11593348Y-15283198D01*
X11707634Y-15197484D02*
X11707634Y-15235579D01*
X11783825Y-15197484D02*
X11783825Y-15235579D01*
X12079063Y-15473674D02*
X12069539Y-15464150D01*
X12069539Y-15464150D02*
X12050491Y-15435579D01*
X12050491Y-15435579D02*
X12040968Y-15416531D01*
X12040968Y-15416531D02*
X12031444Y-15387960D01*
X12031444Y-15387960D02*
X12021920Y-15340341D01*
X12021920Y-15340341D02*
X12021920Y-15302246D01*
X12021920Y-15302246D02*
X12031444Y-15254627D01*
X12031444Y-15254627D02*
X12040968Y-15226055D01*
X12040968Y-15226055D02*
X12050491Y-15207008D01*
X12050491Y-15207008D02*
X12069539Y-15178436D01*
X12069539Y-15178436D02*
X12079063Y-15168912D01*
X12183825Y-15283198D02*
X12164777Y-15273674D01*
X12164777Y-15273674D02*
X12155253Y-15264150D01*
X12155253Y-15264150D02*
X12145729Y-15245103D01*
X12145729Y-15245103D02*
X12145729Y-15235579D01*
X12145729Y-15235579D02*
X12155253Y-15216531D01*
X12155253Y-15216531D02*
X12164777Y-15207008D01*
X12164777Y-15207008D02*
X12183825Y-15197484D01*
X12183825Y-15197484D02*
X12221920Y-15197484D01*
X12221920Y-15197484D02*
X12240968Y-15207008D01*
X12240968Y-15207008D02*
X12250491Y-15216531D01*
X12250491Y-15216531D02*
X12260015Y-15235579D01*
X12260015Y-15235579D02*
X12260015Y-15245103D01*
X12260015Y-15245103D02*
X12250491Y-15264150D01*
X12250491Y-15264150D02*
X12240968Y-15273674D01*
X12240968Y-15273674D02*
X12221920Y-15283198D01*
X12221920Y-15283198D02*
X12183825Y-15283198D01*
X12183825Y-15283198D02*
X12164777Y-15292722D01*
X12164777Y-15292722D02*
X12155253Y-15302246D01*
X12155253Y-15302246D02*
X12145729Y-15321293D01*
X12145729Y-15321293D02*
X12145729Y-15359388D01*
X12145729Y-15359388D02*
X12155253Y-15378436D01*
X12155253Y-15378436D02*
X12164777Y-15387960D01*
X12164777Y-15387960D02*
X12183825Y-15397484D01*
X12183825Y-15397484D02*
X12221920Y-15397484D01*
X12221920Y-15397484D02*
X12240968Y-15387960D01*
X12240968Y-15387960D02*
X12250491Y-15378436D01*
X12250491Y-15378436D02*
X12260015Y-15359388D01*
X12260015Y-15359388D02*
X12260015Y-15321293D01*
X12260015Y-15321293D02*
X12250491Y-15302246D01*
X12250491Y-15302246D02*
X12240968Y-15292722D01*
X12240968Y-15292722D02*
X12221920Y-15283198D01*
X12498110Y-15397484D02*
X12498110Y-15197484D01*
X12583825Y-15397484D02*
X12583825Y-15292722D01*
X12583825Y-15292722D02*
X12574301Y-15273674D01*
X12574301Y-15273674D02*
X12555253Y-15264150D01*
X12555253Y-15264150D02*
X12526682Y-15264150D01*
X12526682Y-15264150D02*
X12507634Y-15273674D01*
X12507634Y-15273674D02*
X12498110Y-15283198D01*
X12707634Y-15397484D02*
X12688587Y-15387960D01*
X12688587Y-15387960D02*
X12679063Y-15378436D01*
X12679063Y-15378436D02*
X12669539Y-15359388D01*
X12669539Y-15359388D02*
X12669539Y-15302246D01*
X12669539Y-15302246D02*
X12679063Y-15283198D01*
X12679063Y-15283198D02*
X12688587Y-15273674D01*
X12688587Y-15273674D02*
X12707634Y-15264150D01*
X12707634Y-15264150D02*
X12736206Y-15264150D01*
X12736206Y-15264150D02*
X12755253Y-15273674D01*
X12755253Y-15273674D02*
X12764777Y-15283198D01*
X12764777Y-15283198D02*
X12774301Y-15302246D01*
X12774301Y-15302246D02*
X12774301Y-15359388D01*
X12774301Y-15359388D02*
X12764777Y-15378436D01*
X12764777Y-15378436D02*
X12755253Y-15387960D01*
X12755253Y-15387960D02*
X12736206Y-15397484D01*
X12736206Y-15397484D02*
X12707634Y-15397484D01*
X12888587Y-15397484D02*
X12869539Y-15387960D01*
X12869539Y-15387960D02*
X12860015Y-15368912D01*
X12860015Y-15368912D02*
X12860015Y-15197484D01*
X13040968Y-15387960D02*
X13021920Y-15397484D01*
X13021920Y-15397484D02*
X12983825Y-15397484D01*
X12983825Y-15397484D02*
X12964777Y-15387960D01*
X12964777Y-15387960D02*
X12955253Y-15368912D01*
X12955253Y-15368912D02*
X12955253Y-15292722D01*
X12955253Y-15292722D02*
X12964777Y-15273674D01*
X12964777Y-15273674D02*
X12983825Y-15264150D01*
X12983825Y-15264150D02*
X13021920Y-15264150D01*
X13021920Y-15264150D02*
X13040968Y-15273674D01*
X13040968Y-15273674D02*
X13050491Y-15292722D01*
X13050491Y-15292722D02*
X13050491Y-15311769D01*
X13050491Y-15311769D02*
X12955253Y-15330817D01*
X13126682Y-15387960D02*
X13145730Y-15397484D01*
X13145730Y-15397484D02*
X13183825Y-15397484D01*
X13183825Y-15397484D02*
X13202872Y-15387960D01*
X13202872Y-15387960D02*
X13212396Y-15368912D01*
X13212396Y-15368912D02*
X13212396Y-15359388D01*
X13212396Y-15359388D02*
X13202872Y-15340341D01*
X13202872Y-15340341D02*
X13183825Y-15330817D01*
X13183825Y-15330817D02*
X13155253Y-15330817D01*
X13155253Y-15330817D02*
X13136206Y-15321293D01*
X13136206Y-15321293D02*
X13126682Y-15302246D01*
X13126682Y-15302246D02*
X13126682Y-15292722D01*
X13126682Y-15292722D02*
X13136206Y-15273674D01*
X13136206Y-15273674D02*
X13155253Y-15264150D01*
X13155253Y-15264150D02*
X13183825Y-15264150D01*
X13183825Y-15264150D02*
X13202872Y-15273674D01*
X13279063Y-15473674D02*
X13288587Y-15464150D01*
X13288587Y-15464150D02*
X13307634Y-15435579D01*
X13307634Y-15435579D02*
X13317158Y-15416531D01*
X13317158Y-15416531D02*
X13326682Y-15387960D01*
X13326682Y-15387960D02*
X13336206Y-15340341D01*
X13336206Y-15340341D02*
X13336206Y-15302246D01*
X13336206Y-15302246D02*
X13326682Y-15254627D01*
X13326682Y-15254627D02*
X13317158Y-15226055D01*
X13317158Y-15226055D02*
X13307634Y-15207008D01*
X13307634Y-15207008D02*
X13288587Y-15178436D01*
X13288587Y-15178436D02*
X13279063Y-15168912D01*
D17*
X8334000Y-15493000D02*
X8504000Y-15663000D01*
X8504000Y-15493000D02*
X8334000Y-15663000D01*
X8419000Y-15493000D02*
X8419000Y-15663000D01*
X8334000Y-15578000D02*
X8504000Y-15578000D01*
D11*
X8869539Y-15669484D02*
X8755253Y-15669484D01*
X8812396Y-15669484D02*
X8812396Y-15469484D01*
X8812396Y-15469484D02*
X8793348Y-15498055D01*
X8793348Y-15498055D02*
X8774301Y-15517103D01*
X8774301Y-15517103D02*
X8755253Y-15526627D01*
X8955253Y-15650436D02*
X8964777Y-15659960D01*
X8964777Y-15659960D02*
X8955253Y-15669484D01*
X8955253Y-15669484D02*
X8945729Y-15659960D01*
X8945729Y-15659960D02*
X8955253Y-15650436D01*
X8955253Y-15650436D02*
X8955253Y-15669484D01*
X9031444Y-15469484D02*
X9164777Y-15469484D01*
X9164777Y-15469484D02*
X9079063Y-15669484D01*
X9279063Y-15469484D02*
X9298110Y-15469484D01*
X9298110Y-15469484D02*
X9317158Y-15479008D01*
X9317158Y-15479008D02*
X9326682Y-15488531D01*
X9326682Y-15488531D02*
X9336205Y-15507579D01*
X9336205Y-15507579D02*
X9345729Y-15545674D01*
X9345729Y-15545674D02*
X9345729Y-15593293D01*
X9345729Y-15593293D02*
X9336205Y-15631388D01*
X9336205Y-15631388D02*
X9326682Y-15650436D01*
X9326682Y-15650436D02*
X9317158Y-15659960D01*
X9317158Y-15659960D02*
X9298110Y-15669484D01*
X9298110Y-15669484D02*
X9279063Y-15669484D01*
X9279063Y-15669484D02*
X9260015Y-15659960D01*
X9260015Y-15659960D02*
X9250491Y-15650436D01*
X9250491Y-15650436D02*
X9240967Y-15631388D01*
X9240967Y-15631388D02*
X9231444Y-15593293D01*
X9231444Y-15593293D02*
X9231444Y-15545674D01*
X9231444Y-15545674D02*
X9240967Y-15507579D01*
X9240967Y-15507579D02*
X9250491Y-15488531D01*
X9250491Y-15488531D02*
X9260015Y-15479008D01*
X9260015Y-15479008D02*
X9279063Y-15469484D01*
X9469539Y-15469484D02*
X9488586Y-15469484D01*
X9488586Y-15469484D02*
X9507634Y-15479008D01*
X9507634Y-15479008D02*
X9517158Y-15488531D01*
X9517158Y-15488531D02*
X9526682Y-15507579D01*
X9526682Y-15507579D02*
X9536205Y-15545674D01*
X9536205Y-15545674D02*
X9536205Y-15593293D01*
X9536205Y-15593293D02*
X9526682Y-15631388D01*
X9526682Y-15631388D02*
X9517158Y-15650436D01*
X9517158Y-15650436D02*
X9507634Y-15659960D01*
X9507634Y-15659960D02*
X9488586Y-15669484D01*
X9488586Y-15669484D02*
X9469539Y-15669484D01*
X9469539Y-15669484D02*
X9450491Y-15659960D01*
X9450491Y-15659960D02*
X9440967Y-15650436D01*
X9440967Y-15650436D02*
X9431444Y-15631388D01*
X9431444Y-15631388D02*
X9421920Y-15593293D01*
X9421920Y-15593293D02*
X9421920Y-15545674D01*
X9421920Y-15545674D02*
X9431444Y-15507579D01*
X9431444Y-15507579D02*
X9440967Y-15488531D01*
X9440967Y-15488531D02*
X9450491Y-15479008D01*
X9450491Y-15479008D02*
X9469539Y-15469484D01*
X9621920Y-15669484D02*
X9621920Y-15536150D01*
X9621920Y-15555198D02*
X9631444Y-15545674D01*
X9631444Y-15545674D02*
X9650491Y-15536150D01*
X9650491Y-15536150D02*
X9679063Y-15536150D01*
X9679063Y-15536150D02*
X9698110Y-15545674D01*
X9698110Y-15545674D02*
X9707634Y-15564722D01*
X9707634Y-15564722D02*
X9707634Y-15669484D01*
X9707634Y-15564722D02*
X9717158Y-15545674D01*
X9717158Y-15545674D02*
X9736205Y-15536150D01*
X9736205Y-15536150D02*
X9764777Y-15536150D01*
X9764777Y-15536150D02*
X9783825Y-15545674D01*
X9783825Y-15545674D02*
X9793348Y-15564722D01*
X9793348Y-15564722D02*
X9793348Y-15669484D01*
X9888586Y-15669484D02*
X9888586Y-15536150D01*
X9888586Y-15555198D02*
X9898110Y-15545674D01*
X9898110Y-15545674D02*
X9917158Y-15536150D01*
X9917158Y-15536150D02*
X9945729Y-15536150D01*
X9945729Y-15536150D02*
X9964777Y-15545674D01*
X9964777Y-15545674D02*
X9974301Y-15564722D01*
X9974301Y-15564722D02*
X9974301Y-15669484D01*
X9974301Y-15564722D02*
X9983825Y-15545674D01*
X9983825Y-15545674D02*
X10002872Y-15536150D01*
X10002872Y-15536150D02*
X10031444Y-15536150D01*
X10031444Y-15536150D02*
X10050491Y-15545674D01*
X10050491Y-15545674D02*
X10060015Y-15564722D01*
X10060015Y-15564722D02*
X10060015Y-15669484D01*
X10450491Y-15459960D02*
X10279063Y-15717103D01*
X10707634Y-15469484D02*
X10726682Y-15469484D01*
X10726682Y-15469484D02*
X10745729Y-15479008D01*
X10745729Y-15479008D02*
X10755253Y-15488531D01*
X10755253Y-15488531D02*
X10764777Y-15507579D01*
X10764777Y-15507579D02*
X10774301Y-15545674D01*
X10774301Y-15545674D02*
X10774301Y-15593293D01*
X10774301Y-15593293D02*
X10764777Y-15631388D01*
X10764777Y-15631388D02*
X10755253Y-15650436D01*
X10755253Y-15650436D02*
X10745729Y-15659960D01*
X10745729Y-15659960D02*
X10726682Y-15669484D01*
X10726682Y-15669484D02*
X10707634Y-15669484D01*
X10707634Y-15669484D02*
X10688587Y-15659960D01*
X10688587Y-15659960D02*
X10679063Y-15650436D01*
X10679063Y-15650436D02*
X10669539Y-15631388D01*
X10669539Y-15631388D02*
X10660015Y-15593293D01*
X10660015Y-15593293D02*
X10660015Y-15545674D01*
X10660015Y-15545674D02*
X10669539Y-15507579D01*
X10669539Y-15507579D02*
X10679063Y-15488531D01*
X10679063Y-15488531D02*
X10688587Y-15479008D01*
X10688587Y-15479008D02*
X10707634Y-15469484D01*
X10860015Y-15650436D02*
X10869539Y-15659960D01*
X10869539Y-15659960D02*
X10860015Y-15669484D01*
X10860015Y-15669484D02*
X10850491Y-15659960D01*
X10850491Y-15659960D02*
X10860015Y-15650436D01*
X10860015Y-15650436D02*
X10860015Y-15669484D01*
X10993348Y-15469484D02*
X11012396Y-15469484D01*
X11012396Y-15469484D02*
X11031444Y-15479008D01*
X11031444Y-15479008D02*
X11040968Y-15488531D01*
X11040968Y-15488531D02*
X11050491Y-15507579D01*
X11050491Y-15507579D02*
X11060015Y-15545674D01*
X11060015Y-15545674D02*
X11060015Y-15593293D01*
X11060015Y-15593293D02*
X11050491Y-15631388D01*
X11050491Y-15631388D02*
X11040968Y-15650436D01*
X11040968Y-15650436D02*
X11031444Y-15659960D01*
X11031444Y-15659960D02*
X11012396Y-15669484D01*
X11012396Y-15669484D02*
X10993348Y-15669484D01*
X10993348Y-15669484D02*
X10974301Y-15659960D01*
X10974301Y-15659960D02*
X10964777Y-15650436D01*
X10964777Y-15650436D02*
X10955253Y-15631388D01*
X10955253Y-15631388D02*
X10945729Y-15593293D01*
X10945729Y-15593293D02*
X10945729Y-15545674D01*
X10945729Y-15545674D02*
X10955253Y-15507579D01*
X10955253Y-15507579D02*
X10964777Y-15488531D01*
X10964777Y-15488531D02*
X10974301Y-15479008D01*
X10974301Y-15479008D02*
X10993348Y-15469484D01*
X11231444Y-15469484D02*
X11193348Y-15469484D01*
X11193348Y-15469484D02*
X11174301Y-15479008D01*
X11174301Y-15479008D02*
X11164777Y-15488531D01*
X11164777Y-15488531D02*
X11145729Y-15517103D01*
X11145729Y-15517103D02*
X11136206Y-15555198D01*
X11136206Y-15555198D02*
X11136206Y-15631388D01*
X11136206Y-15631388D02*
X11145729Y-15650436D01*
X11145729Y-15650436D02*
X11155253Y-15659960D01*
X11155253Y-15659960D02*
X11174301Y-15669484D01*
X11174301Y-15669484D02*
X11212396Y-15669484D01*
X11212396Y-15669484D02*
X11231444Y-15659960D01*
X11231444Y-15659960D02*
X11240967Y-15650436D01*
X11240967Y-15650436D02*
X11250491Y-15631388D01*
X11250491Y-15631388D02*
X11250491Y-15583769D01*
X11250491Y-15583769D02*
X11240967Y-15564722D01*
X11240967Y-15564722D02*
X11231444Y-15555198D01*
X11231444Y-15555198D02*
X11212396Y-15545674D01*
X11212396Y-15545674D02*
X11174301Y-15545674D01*
X11174301Y-15545674D02*
X11155253Y-15555198D01*
X11155253Y-15555198D02*
X11145729Y-15564722D01*
X11145729Y-15564722D02*
X11136206Y-15583769D01*
X11421920Y-15469484D02*
X11383825Y-15469484D01*
X11383825Y-15469484D02*
X11364777Y-15479008D01*
X11364777Y-15479008D02*
X11355253Y-15488531D01*
X11355253Y-15488531D02*
X11336206Y-15517103D01*
X11336206Y-15517103D02*
X11326682Y-15555198D01*
X11326682Y-15555198D02*
X11326682Y-15631388D01*
X11326682Y-15631388D02*
X11336206Y-15650436D01*
X11336206Y-15650436D02*
X11345729Y-15659960D01*
X11345729Y-15659960D02*
X11364777Y-15669484D01*
X11364777Y-15669484D02*
X11402872Y-15669484D01*
X11402872Y-15669484D02*
X11421920Y-15659960D01*
X11421920Y-15659960D02*
X11431444Y-15650436D01*
X11431444Y-15650436D02*
X11440967Y-15631388D01*
X11440967Y-15631388D02*
X11440967Y-15583769D01*
X11440967Y-15583769D02*
X11431444Y-15564722D01*
X11431444Y-15564722D02*
X11421920Y-15555198D01*
X11421920Y-15555198D02*
X11402872Y-15545674D01*
X11402872Y-15545674D02*
X11364777Y-15545674D01*
X11364777Y-15545674D02*
X11345729Y-15555198D01*
X11345729Y-15555198D02*
X11336206Y-15564722D01*
X11336206Y-15564722D02*
X11326682Y-15583769D01*
X11536206Y-15669484D02*
X11574301Y-15669484D01*
X11574301Y-15669484D02*
X11593348Y-15659960D01*
X11593348Y-15659960D02*
X11602872Y-15650436D01*
X11602872Y-15650436D02*
X11621920Y-15621865D01*
X11621920Y-15621865D02*
X11631444Y-15583769D01*
X11631444Y-15583769D02*
X11631444Y-15507579D01*
X11631444Y-15507579D02*
X11621920Y-15488531D01*
X11621920Y-15488531D02*
X11612396Y-15479008D01*
X11612396Y-15479008D02*
X11593348Y-15469484D01*
X11593348Y-15469484D02*
X11555253Y-15469484D01*
X11555253Y-15469484D02*
X11536206Y-15479008D01*
X11536206Y-15479008D02*
X11526682Y-15488531D01*
X11526682Y-15488531D02*
X11517158Y-15507579D01*
X11517158Y-15507579D02*
X11517158Y-15555198D01*
X11517158Y-15555198D02*
X11526682Y-15574246D01*
X11526682Y-15574246D02*
X11536206Y-15583769D01*
X11536206Y-15583769D02*
X11555253Y-15593293D01*
X11555253Y-15593293D02*
X11593348Y-15593293D01*
X11593348Y-15593293D02*
X11612396Y-15583769D01*
X11612396Y-15583769D02*
X11621920Y-15574246D01*
X11621920Y-15574246D02*
X11631444Y-15555198D01*
X11707634Y-15469484D02*
X11707634Y-15507579D01*
X11783825Y-15469484D02*
X11783825Y-15507579D01*
X12079063Y-15745674D02*
X12069539Y-15736150D01*
X12069539Y-15736150D02*
X12050491Y-15707579D01*
X12050491Y-15707579D02*
X12040968Y-15688531D01*
X12040968Y-15688531D02*
X12031444Y-15659960D01*
X12031444Y-15659960D02*
X12021920Y-15612341D01*
X12021920Y-15612341D02*
X12021920Y-15574246D01*
X12021920Y-15574246D02*
X12031444Y-15526627D01*
X12031444Y-15526627D02*
X12040968Y-15498055D01*
X12040968Y-15498055D02*
X12050491Y-15479008D01*
X12050491Y-15479008D02*
X12069539Y-15450436D01*
X12069539Y-15450436D02*
X12079063Y-15440912D01*
X12240968Y-15536150D02*
X12240968Y-15669484D01*
X12193348Y-15459960D02*
X12145729Y-15602817D01*
X12145729Y-15602817D02*
X12269539Y-15602817D01*
X12498110Y-15669484D02*
X12498110Y-15469484D01*
X12583825Y-15669484D02*
X12583825Y-15564722D01*
X12583825Y-15564722D02*
X12574301Y-15545674D01*
X12574301Y-15545674D02*
X12555253Y-15536150D01*
X12555253Y-15536150D02*
X12526682Y-15536150D01*
X12526682Y-15536150D02*
X12507634Y-15545674D01*
X12507634Y-15545674D02*
X12498110Y-15555198D01*
X12707634Y-15669484D02*
X12688587Y-15659960D01*
X12688587Y-15659960D02*
X12679063Y-15650436D01*
X12679063Y-15650436D02*
X12669539Y-15631388D01*
X12669539Y-15631388D02*
X12669539Y-15574246D01*
X12669539Y-15574246D02*
X12679063Y-15555198D01*
X12679063Y-15555198D02*
X12688587Y-15545674D01*
X12688587Y-15545674D02*
X12707634Y-15536150D01*
X12707634Y-15536150D02*
X12736206Y-15536150D01*
X12736206Y-15536150D02*
X12755253Y-15545674D01*
X12755253Y-15545674D02*
X12764777Y-15555198D01*
X12764777Y-15555198D02*
X12774301Y-15574246D01*
X12774301Y-15574246D02*
X12774301Y-15631388D01*
X12774301Y-15631388D02*
X12764777Y-15650436D01*
X12764777Y-15650436D02*
X12755253Y-15659960D01*
X12755253Y-15659960D02*
X12736206Y-15669484D01*
X12736206Y-15669484D02*
X12707634Y-15669484D01*
X12888587Y-15669484D02*
X12869539Y-15659960D01*
X12869539Y-15659960D02*
X12860015Y-15640912D01*
X12860015Y-15640912D02*
X12860015Y-15469484D01*
X13040968Y-15659960D02*
X13021920Y-15669484D01*
X13021920Y-15669484D02*
X12983825Y-15669484D01*
X12983825Y-15669484D02*
X12964777Y-15659960D01*
X12964777Y-15659960D02*
X12955253Y-15640912D01*
X12955253Y-15640912D02*
X12955253Y-15564722D01*
X12955253Y-15564722D02*
X12964777Y-15545674D01*
X12964777Y-15545674D02*
X12983825Y-15536150D01*
X12983825Y-15536150D02*
X13021920Y-15536150D01*
X13021920Y-15536150D02*
X13040968Y-15545674D01*
X13040968Y-15545674D02*
X13050491Y-15564722D01*
X13050491Y-15564722D02*
X13050491Y-15583769D01*
X13050491Y-15583769D02*
X12955253Y-15602817D01*
X13126682Y-15659960D02*
X13145730Y-15669484D01*
X13145730Y-15669484D02*
X13183825Y-15669484D01*
X13183825Y-15669484D02*
X13202872Y-15659960D01*
X13202872Y-15659960D02*
X13212396Y-15640912D01*
X13212396Y-15640912D02*
X13212396Y-15631388D01*
X13212396Y-15631388D02*
X13202872Y-15612341D01*
X13202872Y-15612341D02*
X13183825Y-15602817D01*
X13183825Y-15602817D02*
X13155253Y-15602817D01*
X13155253Y-15602817D02*
X13136206Y-15593293D01*
X13136206Y-15593293D02*
X13126682Y-15574246D01*
X13126682Y-15574246D02*
X13126682Y-15564722D01*
X13126682Y-15564722D02*
X13136206Y-15545674D01*
X13136206Y-15545674D02*
X13155253Y-15536150D01*
X13155253Y-15536150D02*
X13183825Y-15536150D01*
X13183825Y-15536150D02*
X13202872Y-15545674D01*
X13279063Y-15745674D02*
X13288587Y-15736150D01*
X13288587Y-15736150D02*
X13307634Y-15707579D01*
X13307634Y-15707579D02*
X13317158Y-15688531D01*
X13317158Y-15688531D02*
X13326682Y-15659960D01*
X13326682Y-15659960D02*
X13336206Y-15612341D01*
X13336206Y-15612341D02*
X13336206Y-15574246D01*
X13336206Y-15574246D02*
X13326682Y-15526627D01*
X13326682Y-15526627D02*
X13317158Y-15498055D01*
X13317158Y-15498055D02*
X13307634Y-15479008D01*
X13307634Y-15479008D02*
X13288587Y-15450436D01*
X13288587Y-15450436D02*
X13279063Y-15440912D01*
X8304000Y-15768000D02*
X8504000Y-15968000D01*
X8504000Y-15768000D02*
X8304000Y-15968000D01*
X8474711Y-15938711D02*
X8474711Y-15797289D01*
X8333289Y-15797289D01*
X8333289Y-15938711D01*
X8474711Y-15938711D01*
X8745729Y-15759484D02*
X8869539Y-15759484D01*
X8869539Y-15759484D02*
X8802872Y-15835674D01*
X8802872Y-15835674D02*
X8831444Y-15835674D01*
X8831444Y-15835674D02*
X8850491Y-15845198D01*
X8850491Y-15845198D02*
X8860015Y-15854722D01*
X8860015Y-15854722D02*
X8869539Y-15873769D01*
X8869539Y-15873769D02*
X8869539Y-15921388D01*
X8869539Y-15921388D02*
X8860015Y-15940436D01*
X8860015Y-15940436D02*
X8850491Y-15949960D01*
X8850491Y-15949960D02*
X8831444Y-15959484D01*
X8831444Y-15959484D02*
X8774301Y-15959484D01*
X8774301Y-15959484D02*
X8755253Y-15949960D01*
X8755253Y-15949960D02*
X8745729Y-15940436D01*
X8955253Y-15940436D02*
X8964777Y-15949960D01*
X8964777Y-15949960D02*
X8955253Y-15959484D01*
X8955253Y-15959484D02*
X8945729Y-15949960D01*
X8945729Y-15949960D02*
X8955253Y-15940436D01*
X8955253Y-15940436D02*
X8955253Y-15959484D01*
X9040967Y-15778531D02*
X9050491Y-15769008D01*
X9050491Y-15769008D02*
X9069539Y-15759484D01*
X9069539Y-15759484D02*
X9117158Y-15759484D01*
X9117158Y-15759484D02*
X9136205Y-15769008D01*
X9136205Y-15769008D02*
X9145729Y-15778531D01*
X9145729Y-15778531D02*
X9155253Y-15797579D01*
X9155253Y-15797579D02*
X9155253Y-15816627D01*
X9155253Y-15816627D02*
X9145729Y-15845198D01*
X9145729Y-15845198D02*
X9031444Y-15959484D01*
X9031444Y-15959484D02*
X9155253Y-15959484D01*
X9279063Y-15759484D02*
X9298110Y-15759484D01*
X9298110Y-15759484D02*
X9317158Y-15769008D01*
X9317158Y-15769008D02*
X9326682Y-15778531D01*
X9326682Y-15778531D02*
X9336205Y-15797579D01*
X9336205Y-15797579D02*
X9345729Y-15835674D01*
X9345729Y-15835674D02*
X9345729Y-15883293D01*
X9345729Y-15883293D02*
X9336205Y-15921388D01*
X9336205Y-15921388D02*
X9326682Y-15940436D01*
X9326682Y-15940436D02*
X9317158Y-15949960D01*
X9317158Y-15949960D02*
X9298110Y-15959484D01*
X9298110Y-15959484D02*
X9279063Y-15959484D01*
X9279063Y-15959484D02*
X9260015Y-15949960D01*
X9260015Y-15949960D02*
X9250491Y-15940436D01*
X9250491Y-15940436D02*
X9240967Y-15921388D01*
X9240967Y-15921388D02*
X9231444Y-15883293D01*
X9231444Y-15883293D02*
X9231444Y-15835674D01*
X9231444Y-15835674D02*
X9240967Y-15797579D01*
X9240967Y-15797579D02*
X9250491Y-15778531D01*
X9250491Y-15778531D02*
X9260015Y-15769008D01*
X9260015Y-15769008D02*
X9279063Y-15759484D01*
X9469539Y-15759484D02*
X9488586Y-15759484D01*
X9488586Y-15759484D02*
X9507634Y-15769008D01*
X9507634Y-15769008D02*
X9517158Y-15778531D01*
X9517158Y-15778531D02*
X9526682Y-15797579D01*
X9526682Y-15797579D02*
X9536205Y-15835674D01*
X9536205Y-15835674D02*
X9536205Y-15883293D01*
X9536205Y-15883293D02*
X9526682Y-15921388D01*
X9526682Y-15921388D02*
X9517158Y-15940436D01*
X9517158Y-15940436D02*
X9507634Y-15949960D01*
X9507634Y-15949960D02*
X9488586Y-15959484D01*
X9488586Y-15959484D02*
X9469539Y-15959484D01*
X9469539Y-15959484D02*
X9450491Y-15949960D01*
X9450491Y-15949960D02*
X9440967Y-15940436D01*
X9440967Y-15940436D02*
X9431444Y-15921388D01*
X9431444Y-15921388D02*
X9421920Y-15883293D01*
X9421920Y-15883293D02*
X9421920Y-15835674D01*
X9421920Y-15835674D02*
X9431444Y-15797579D01*
X9431444Y-15797579D02*
X9440967Y-15778531D01*
X9440967Y-15778531D02*
X9450491Y-15769008D01*
X9450491Y-15769008D02*
X9469539Y-15759484D01*
X9621920Y-15959484D02*
X9621920Y-15826150D01*
X9621920Y-15845198D02*
X9631444Y-15835674D01*
X9631444Y-15835674D02*
X9650491Y-15826150D01*
X9650491Y-15826150D02*
X9679063Y-15826150D01*
X9679063Y-15826150D02*
X9698110Y-15835674D01*
X9698110Y-15835674D02*
X9707634Y-15854722D01*
X9707634Y-15854722D02*
X9707634Y-15959484D01*
X9707634Y-15854722D02*
X9717158Y-15835674D01*
X9717158Y-15835674D02*
X9736205Y-15826150D01*
X9736205Y-15826150D02*
X9764777Y-15826150D01*
X9764777Y-15826150D02*
X9783825Y-15835674D01*
X9783825Y-15835674D02*
X9793348Y-15854722D01*
X9793348Y-15854722D02*
X9793348Y-15959484D01*
X9888586Y-15959484D02*
X9888586Y-15826150D01*
X9888586Y-15845198D02*
X9898110Y-15835674D01*
X9898110Y-15835674D02*
X9917158Y-15826150D01*
X9917158Y-15826150D02*
X9945729Y-15826150D01*
X9945729Y-15826150D02*
X9964777Y-15835674D01*
X9964777Y-15835674D02*
X9974301Y-15854722D01*
X9974301Y-15854722D02*
X9974301Y-15959484D01*
X9974301Y-15854722D02*
X9983825Y-15835674D01*
X9983825Y-15835674D02*
X10002872Y-15826150D01*
X10002872Y-15826150D02*
X10031444Y-15826150D01*
X10031444Y-15826150D02*
X10050491Y-15835674D01*
X10050491Y-15835674D02*
X10060015Y-15854722D01*
X10060015Y-15854722D02*
X10060015Y-15959484D01*
X10450491Y-15749960D02*
X10279063Y-16007103D01*
X10707634Y-15759484D02*
X10726682Y-15759484D01*
X10726682Y-15759484D02*
X10745729Y-15769008D01*
X10745729Y-15769008D02*
X10755253Y-15778531D01*
X10755253Y-15778531D02*
X10764777Y-15797579D01*
X10764777Y-15797579D02*
X10774301Y-15835674D01*
X10774301Y-15835674D02*
X10774301Y-15883293D01*
X10774301Y-15883293D02*
X10764777Y-15921388D01*
X10764777Y-15921388D02*
X10755253Y-15940436D01*
X10755253Y-15940436D02*
X10745729Y-15949960D01*
X10745729Y-15949960D02*
X10726682Y-15959484D01*
X10726682Y-15959484D02*
X10707634Y-15959484D01*
X10707634Y-15959484D02*
X10688587Y-15949960D01*
X10688587Y-15949960D02*
X10679063Y-15940436D01*
X10679063Y-15940436D02*
X10669539Y-15921388D01*
X10669539Y-15921388D02*
X10660015Y-15883293D01*
X10660015Y-15883293D02*
X10660015Y-15835674D01*
X10660015Y-15835674D02*
X10669539Y-15797579D01*
X10669539Y-15797579D02*
X10679063Y-15778531D01*
X10679063Y-15778531D02*
X10688587Y-15769008D01*
X10688587Y-15769008D02*
X10707634Y-15759484D01*
X10860015Y-15940436D02*
X10869539Y-15949960D01*
X10869539Y-15949960D02*
X10860015Y-15959484D01*
X10860015Y-15959484D02*
X10850491Y-15949960D01*
X10850491Y-15949960D02*
X10860015Y-15940436D01*
X10860015Y-15940436D02*
X10860015Y-15959484D01*
X11060015Y-15959484D02*
X10945729Y-15959484D01*
X11002872Y-15959484D02*
X11002872Y-15759484D01*
X11002872Y-15759484D02*
X10983825Y-15788055D01*
X10983825Y-15788055D02*
X10964777Y-15807103D01*
X10964777Y-15807103D02*
X10945729Y-15816627D01*
X11136206Y-15778531D02*
X11145729Y-15769008D01*
X11145729Y-15769008D02*
X11164777Y-15759484D01*
X11164777Y-15759484D02*
X11212396Y-15759484D01*
X11212396Y-15759484D02*
X11231444Y-15769008D01*
X11231444Y-15769008D02*
X11240967Y-15778531D01*
X11240967Y-15778531D02*
X11250491Y-15797579D01*
X11250491Y-15797579D02*
X11250491Y-15816627D01*
X11250491Y-15816627D02*
X11240967Y-15845198D01*
X11240967Y-15845198D02*
X11126682Y-15959484D01*
X11126682Y-15959484D02*
X11250491Y-15959484D01*
X11421920Y-15759484D02*
X11383825Y-15759484D01*
X11383825Y-15759484D02*
X11364777Y-15769008D01*
X11364777Y-15769008D02*
X11355253Y-15778531D01*
X11355253Y-15778531D02*
X11336206Y-15807103D01*
X11336206Y-15807103D02*
X11326682Y-15845198D01*
X11326682Y-15845198D02*
X11326682Y-15921388D01*
X11326682Y-15921388D02*
X11336206Y-15940436D01*
X11336206Y-15940436D02*
X11345729Y-15949960D01*
X11345729Y-15949960D02*
X11364777Y-15959484D01*
X11364777Y-15959484D02*
X11402872Y-15959484D01*
X11402872Y-15959484D02*
X11421920Y-15949960D01*
X11421920Y-15949960D02*
X11431444Y-15940436D01*
X11431444Y-15940436D02*
X11440967Y-15921388D01*
X11440967Y-15921388D02*
X11440967Y-15873769D01*
X11440967Y-15873769D02*
X11431444Y-15854722D01*
X11431444Y-15854722D02*
X11421920Y-15845198D01*
X11421920Y-15845198D02*
X11402872Y-15835674D01*
X11402872Y-15835674D02*
X11364777Y-15835674D01*
X11364777Y-15835674D02*
X11345729Y-15845198D01*
X11345729Y-15845198D02*
X11336206Y-15854722D01*
X11336206Y-15854722D02*
X11326682Y-15873769D01*
X11564777Y-15759484D02*
X11583825Y-15759484D01*
X11583825Y-15759484D02*
X11602872Y-15769008D01*
X11602872Y-15769008D02*
X11612396Y-15778531D01*
X11612396Y-15778531D02*
X11621920Y-15797579D01*
X11621920Y-15797579D02*
X11631444Y-15835674D01*
X11631444Y-15835674D02*
X11631444Y-15883293D01*
X11631444Y-15883293D02*
X11621920Y-15921388D01*
X11621920Y-15921388D02*
X11612396Y-15940436D01*
X11612396Y-15940436D02*
X11602872Y-15949960D01*
X11602872Y-15949960D02*
X11583825Y-15959484D01*
X11583825Y-15959484D02*
X11564777Y-15959484D01*
X11564777Y-15959484D02*
X11545729Y-15949960D01*
X11545729Y-15949960D02*
X11536206Y-15940436D01*
X11536206Y-15940436D02*
X11526682Y-15921388D01*
X11526682Y-15921388D02*
X11517158Y-15883293D01*
X11517158Y-15883293D02*
X11517158Y-15835674D01*
X11517158Y-15835674D02*
X11526682Y-15797579D01*
X11526682Y-15797579D02*
X11536206Y-15778531D01*
X11536206Y-15778531D02*
X11545729Y-15769008D01*
X11545729Y-15769008D02*
X11564777Y-15759484D01*
X11707634Y-15759484D02*
X11707634Y-15797579D01*
X11783825Y-15759484D02*
X11783825Y-15797579D01*
X12079063Y-16035674D02*
X12069539Y-16026150D01*
X12069539Y-16026150D02*
X12050491Y-15997579D01*
X12050491Y-15997579D02*
X12040968Y-15978531D01*
X12040968Y-15978531D02*
X12031444Y-15949960D01*
X12031444Y-15949960D02*
X12021920Y-15902341D01*
X12021920Y-15902341D02*
X12021920Y-15864246D01*
X12021920Y-15864246D02*
X12031444Y-15816627D01*
X12031444Y-15816627D02*
X12040968Y-15788055D01*
X12040968Y-15788055D02*
X12050491Y-15769008D01*
X12050491Y-15769008D02*
X12069539Y-15740436D01*
X12069539Y-15740436D02*
X12079063Y-15730912D01*
X12240968Y-15826150D02*
X12240968Y-15959484D01*
X12193348Y-15749960D02*
X12145729Y-15892817D01*
X12145729Y-15892817D02*
X12269539Y-15892817D01*
X12498110Y-15959484D02*
X12498110Y-15759484D01*
X12583825Y-15959484D02*
X12583825Y-15854722D01*
X12583825Y-15854722D02*
X12574301Y-15835674D01*
X12574301Y-15835674D02*
X12555253Y-15826150D01*
X12555253Y-15826150D02*
X12526682Y-15826150D01*
X12526682Y-15826150D02*
X12507634Y-15835674D01*
X12507634Y-15835674D02*
X12498110Y-15845198D01*
X12707634Y-15959484D02*
X12688587Y-15949960D01*
X12688587Y-15949960D02*
X12679063Y-15940436D01*
X12679063Y-15940436D02*
X12669539Y-15921388D01*
X12669539Y-15921388D02*
X12669539Y-15864246D01*
X12669539Y-15864246D02*
X12679063Y-15845198D01*
X12679063Y-15845198D02*
X12688587Y-15835674D01*
X12688587Y-15835674D02*
X12707634Y-15826150D01*
X12707634Y-15826150D02*
X12736206Y-15826150D01*
X12736206Y-15826150D02*
X12755253Y-15835674D01*
X12755253Y-15835674D02*
X12764777Y-15845198D01*
X12764777Y-15845198D02*
X12774301Y-15864246D01*
X12774301Y-15864246D02*
X12774301Y-15921388D01*
X12774301Y-15921388D02*
X12764777Y-15940436D01*
X12764777Y-15940436D02*
X12755253Y-15949960D01*
X12755253Y-15949960D02*
X12736206Y-15959484D01*
X12736206Y-15959484D02*
X12707634Y-15959484D01*
X12888587Y-15959484D02*
X12869539Y-15949960D01*
X12869539Y-15949960D02*
X12860015Y-15930912D01*
X12860015Y-15930912D02*
X12860015Y-15759484D01*
X13040968Y-15949960D02*
X13021920Y-15959484D01*
X13021920Y-15959484D02*
X12983825Y-15959484D01*
X12983825Y-15959484D02*
X12964777Y-15949960D01*
X12964777Y-15949960D02*
X12955253Y-15930912D01*
X12955253Y-15930912D02*
X12955253Y-15854722D01*
X12955253Y-15854722D02*
X12964777Y-15835674D01*
X12964777Y-15835674D02*
X12983825Y-15826150D01*
X12983825Y-15826150D02*
X13021920Y-15826150D01*
X13021920Y-15826150D02*
X13040968Y-15835674D01*
X13040968Y-15835674D02*
X13050491Y-15854722D01*
X13050491Y-15854722D02*
X13050491Y-15873769D01*
X13050491Y-15873769D02*
X12955253Y-15892817D01*
X13126682Y-15949960D02*
X13145730Y-15959484D01*
X13145730Y-15959484D02*
X13183825Y-15959484D01*
X13183825Y-15959484D02*
X13202872Y-15949960D01*
X13202872Y-15949960D02*
X13212396Y-15930912D01*
X13212396Y-15930912D02*
X13212396Y-15921388D01*
X13212396Y-15921388D02*
X13202872Y-15902341D01*
X13202872Y-15902341D02*
X13183825Y-15892817D01*
X13183825Y-15892817D02*
X13155253Y-15892817D01*
X13155253Y-15892817D02*
X13136206Y-15883293D01*
X13136206Y-15883293D02*
X13126682Y-15864246D01*
X13126682Y-15864246D02*
X13126682Y-15854722D01*
X13126682Y-15854722D02*
X13136206Y-15835674D01*
X13136206Y-15835674D02*
X13155253Y-15826150D01*
X13155253Y-15826150D02*
X13183825Y-15826150D01*
X13183825Y-15826150D02*
X13202872Y-15835674D01*
X13279063Y-16035674D02*
X13288587Y-16026150D01*
X13288587Y-16026150D02*
X13307634Y-15997579D01*
X13307634Y-15997579D02*
X13317158Y-15978531D01*
X13317158Y-15978531D02*
X13326682Y-15949960D01*
X13326682Y-15949960D02*
X13336206Y-15902341D01*
X13336206Y-15902341D02*
X13336206Y-15864246D01*
X13336206Y-15864246D02*
X13326682Y-15816627D01*
X13326682Y-15816627D02*
X13317158Y-15788055D01*
X13317158Y-15788055D02*
X13307634Y-15769008D01*
X13307634Y-15769008D02*
X13288587Y-15740436D01*
X13288587Y-15740436D02*
X13279063Y-15730912D01*
M02*
