G04 #@! TF.GenerationSoftware,KiCad,Pcbnew,7.0.2*
G04 #@! TF.CreationDate,2023-05-21T00:08:36-06:00*
G04 #@! TF.ProjectId,Project-Supernova-PCB,50726f6a-6563-4742-9d53-757065726e6f,rev?*
G04 #@! TF.SameCoordinates,Original*
G04 #@! TF.FileFunction,Legend,Top*
G04 #@! TF.FilePolarity,Positive*
%FSLAX46Y46*%
G04 Gerber Fmt 4.6, Leading zero omitted, Abs format (unit mm)*
G04 Created by KiCad (PCBNEW 7.0.2) date 2023-05-21 00:08:36*
%MOMM*%
%LPD*%
G01*
G04 APERTURE LIST*
G04 Aperture macros list*
%AMRoundRect*
0 Rectangle with rounded corners*
0 $1 Rounding radius*
0 $2 $3 $4 $5 $6 $7 $8 $9 X,Y pos of 4 corners*
0 Add a 4 corners polygon primitive as box body*
4,1,4,$2,$3,$4,$5,$6,$7,$8,$9,$2,$3,0*
0 Add four circle primitives for the rounded corners*
1,1,$1+$1,$2,$3*
1,1,$1+$1,$4,$5*
1,1,$1+$1,$6,$7*
1,1,$1+$1,$8,$9*
0 Add four rect primitives between the rounded corners*
20,1,$1+$1,$2,$3,$4,$5,0*
20,1,$1+$1,$4,$5,$6,$7,0*
20,1,$1+$1,$6,$7,$8,$9,0*
20,1,$1+$1,$8,$9,$2,$3,0*%
G04 Aperture macros list end*
%ADD10C,0.500000*%
%ADD11C,0.150000*%
%ADD12C,0.350000*%
%ADD13C,0.300000*%
%ADD14C,0.200000*%
%ADD15C,0.100000*%
%ADD16C,0.120000*%
%ADD17C,0.250000*%
%ADD18C,0.437353*%
%ADD19C,3.500000*%
%ADD20R,1.900000X1.900000*%
%ADD21C,2.000000*%
%ADD22RoundRect,0.250000X-0.400000X-0.625000X0.400000X-0.625000X0.400000X0.625000X-0.400000X0.625000X0*%
%ADD23RoundRect,0.250001X-0.462499X-0.624999X0.462499X-0.624999X0.462499X0.624999X-0.462499X0.624999X0*%
%ADD24R,1.700000X1.700000*%
%ADD25O,1.700000X1.700000*%
%ADD26RoundRect,0.150000X-0.587500X-0.150000X0.587500X-0.150000X0.587500X0.150000X-0.587500X0.150000X0*%
%ADD27C,3.000000*%
%ADD28O,3.500000X2.200000*%
%ADD29R,2.500000X1.500000*%
%ADD30O,2.500000X1.500000*%
%ADD31RoundRect,0.250001X0.462499X0.624999X-0.462499X0.624999X-0.462499X-0.624999X0.462499X-0.624999X0*%
%ADD32C,4.000000*%
%ADD33R,3.000000X3.000000*%
%ADD34RoundRect,0.250000X0.650000X-0.412500X0.650000X0.412500X-0.650000X0.412500X-0.650000X-0.412500X0*%
%ADD35RoundRect,0.250000X-0.412500X-0.650000X0.412500X-0.650000X0.412500X0.650000X-0.412500X0.650000X0*%
%ADD36C,5.600000*%
%ADD37C,1.524000*%
%ADD38C,2.050000*%
%ADD39C,2.250000*%
%ADD40R,2.000000X2.000000*%
%ADD41R,2.300000X0.800000*%
%ADD42R,0.800000X2.300000*%
%ADD43RoundRect,0.150000X-0.825000X-0.150000X0.825000X-0.150000X0.825000X0.150000X-0.825000X0.150000X0*%
%ADD44RoundRect,0.381000X-1.369000X-0.381000X1.369000X-0.381000X1.369000X0.381000X-1.369000X0.381000X0*%
G04 APERTURE END LIST*
D10*
X158115000Y-122555000D02*
X176784000Y-122555000D01*
X176784000Y-132715000D01*
X158115000Y-132715000D01*
X158115000Y-122555000D01*
D11*
X170180000Y-54610000D02*
X180975000Y-54610000D01*
X180975000Y-87630000D01*
X170180000Y-87630000D01*
X170180000Y-54610000D01*
G36*
X170180000Y-54610000D02*
G01*
X180975000Y-54610000D01*
X180975000Y-87630000D01*
X170180000Y-87630000D01*
X170180000Y-54610000D01*
G37*
D12*
X160126190Y-125667453D02*
X159559523Y-124857929D01*
X159154761Y-125667453D02*
X159154761Y-123967453D01*
X159154761Y-123967453D02*
X159802380Y-123967453D01*
X159802380Y-123967453D02*
X159964285Y-124048405D01*
X159964285Y-124048405D02*
X160045238Y-124129358D01*
X160045238Y-124129358D02*
X160126190Y-124291262D01*
X160126190Y-124291262D02*
X160126190Y-124534120D01*
X160126190Y-124534120D02*
X160045238Y-124696024D01*
X160045238Y-124696024D02*
X159964285Y-124776977D01*
X159964285Y-124776977D02*
X159802380Y-124857929D01*
X159802380Y-124857929D02*
X159154761Y-124857929D01*
X160854761Y-124776977D02*
X161421428Y-124776977D01*
X161664285Y-125667453D02*
X160854761Y-125667453D01*
X160854761Y-125667453D02*
X160854761Y-123967453D01*
X160854761Y-123967453D02*
X161664285Y-123967453D01*
X162149999Y-123967453D02*
X162716666Y-125667453D01*
X162716666Y-125667453D02*
X163283333Y-123967453D01*
X166035714Y-125667453D02*
X165064285Y-125667453D01*
X165549999Y-125667453D02*
X165549999Y-123967453D01*
X165549999Y-123967453D02*
X165388095Y-124210310D01*
X165388095Y-124210310D02*
X165226190Y-124372215D01*
X165226190Y-124372215D02*
X165064285Y-124453167D01*
X159073809Y-126883358D02*
X159154761Y-126802405D01*
X159154761Y-126802405D02*
X159316666Y-126721453D01*
X159316666Y-126721453D02*
X159721428Y-126721453D01*
X159721428Y-126721453D02*
X159883333Y-126802405D01*
X159883333Y-126802405D02*
X159964285Y-126883358D01*
X159964285Y-126883358D02*
X160045238Y-127045262D01*
X160045238Y-127045262D02*
X160045238Y-127207167D01*
X160045238Y-127207167D02*
X159964285Y-127450024D01*
X159964285Y-127450024D02*
X158992857Y-128421453D01*
X158992857Y-128421453D02*
X160045238Y-128421453D01*
X161097619Y-126721453D02*
X161259524Y-126721453D01*
X161259524Y-126721453D02*
X161421428Y-126802405D01*
X161421428Y-126802405D02*
X161502381Y-126883358D01*
X161502381Y-126883358D02*
X161583333Y-127045262D01*
X161583333Y-127045262D02*
X161664286Y-127369072D01*
X161664286Y-127369072D02*
X161664286Y-127773834D01*
X161664286Y-127773834D02*
X161583333Y-128097643D01*
X161583333Y-128097643D02*
X161502381Y-128259548D01*
X161502381Y-128259548D02*
X161421428Y-128340501D01*
X161421428Y-128340501D02*
X161259524Y-128421453D01*
X161259524Y-128421453D02*
X161097619Y-128421453D01*
X161097619Y-128421453D02*
X160935714Y-128340501D01*
X160935714Y-128340501D02*
X160854762Y-128259548D01*
X160854762Y-128259548D02*
X160773809Y-128097643D01*
X160773809Y-128097643D02*
X160692857Y-127773834D01*
X160692857Y-127773834D02*
X160692857Y-127369072D01*
X160692857Y-127369072D02*
X160773809Y-127045262D01*
X160773809Y-127045262D02*
X160854762Y-126883358D01*
X160854762Y-126883358D02*
X160935714Y-126802405D01*
X160935714Y-126802405D02*
X161097619Y-126721453D01*
X162311905Y-126883358D02*
X162392857Y-126802405D01*
X162392857Y-126802405D02*
X162554762Y-126721453D01*
X162554762Y-126721453D02*
X162959524Y-126721453D01*
X162959524Y-126721453D02*
X163121429Y-126802405D01*
X163121429Y-126802405D02*
X163202381Y-126883358D01*
X163202381Y-126883358D02*
X163283334Y-127045262D01*
X163283334Y-127045262D02*
X163283334Y-127207167D01*
X163283334Y-127207167D02*
X163202381Y-127450024D01*
X163202381Y-127450024D02*
X162230953Y-128421453D01*
X162230953Y-128421453D02*
X163283334Y-128421453D01*
X163850001Y-126721453D02*
X164902382Y-126721453D01*
X164902382Y-126721453D02*
X164335715Y-127369072D01*
X164335715Y-127369072D02*
X164578572Y-127369072D01*
X164578572Y-127369072D02*
X164740477Y-127450024D01*
X164740477Y-127450024D02*
X164821429Y-127530977D01*
X164821429Y-127530977D02*
X164902382Y-127692881D01*
X164902382Y-127692881D02*
X164902382Y-128097643D01*
X164902382Y-128097643D02*
X164821429Y-128259548D01*
X164821429Y-128259548D02*
X164740477Y-128340501D01*
X164740477Y-128340501D02*
X164578572Y-128421453D01*
X164578572Y-128421453D02*
X164092858Y-128421453D01*
X164092858Y-128421453D02*
X163930953Y-128340501D01*
X163930953Y-128340501D02*
X163850001Y-128259548D01*
X165630953Y-127773834D02*
X166926192Y-127773834D01*
X168059525Y-126721453D02*
X168221430Y-126721453D01*
X168221430Y-126721453D02*
X168383334Y-126802405D01*
X168383334Y-126802405D02*
X168464287Y-126883358D01*
X168464287Y-126883358D02*
X168545239Y-127045262D01*
X168545239Y-127045262D02*
X168626192Y-127369072D01*
X168626192Y-127369072D02*
X168626192Y-127773834D01*
X168626192Y-127773834D02*
X168545239Y-128097643D01*
X168545239Y-128097643D02*
X168464287Y-128259548D01*
X168464287Y-128259548D02*
X168383334Y-128340501D01*
X168383334Y-128340501D02*
X168221430Y-128421453D01*
X168221430Y-128421453D02*
X168059525Y-128421453D01*
X168059525Y-128421453D02*
X167897620Y-128340501D01*
X167897620Y-128340501D02*
X167816668Y-128259548D01*
X167816668Y-128259548D02*
X167735715Y-128097643D01*
X167735715Y-128097643D02*
X167654763Y-127773834D01*
X167654763Y-127773834D02*
X167654763Y-127369072D01*
X167654763Y-127369072D02*
X167735715Y-127045262D01*
X167735715Y-127045262D02*
X167816668Y-126883358D01*
X167816668Y-126883358D02*
X167897620Y-126802405D01*
X167897620Y-126802405D02*
X168059525Y-126721453D01*
X170164287Y-126721453D02*
X169354763Y-126721453D01*
X169354763Y-126721453D02*
X169273811Y-127530977D01*
X169273811Y-127530977D02*
X169354763Y-127450024D01*
X169354763Y-127450024D02*
X169516668Y-127369072D01*
X169516668Y-127369072D02*
X169921430Y-127369072D01*
X169921430Y-127369072D02*
X170083335Y-127450024D01*
X170083335Y-127450024D02*
X170164287Y-127530977D01*
X170164287Y-127530977D02*
X170245240Y-127692881D01*
X170245240Y-127692881D02*
X170245240Y-128097643D01*
X170245240Y-128097643D02*
X170164287Y-128259548D01*
X170164287Y-128259548D02*
X170083335Y-128340501D01*
X170083335Y-128340501D02*
X169921430Y-128421453D01*
X169921430Y-128421453D02*
X169516668Y-128421453D01*
X169516668Y-128421453D02*
X169354763Y-128340501D01*
X169354763Y-128340501D02*
X169273811Y-128259548D01*
X170973811Y-127773834D02*
X172269050Y-127773834D01*
X172997621Y-126883358D02*
X173078573Y-126802405D01*
X173078573Y-126802405D02*
X173240478Y-126721453D01*
X173240478Y-126721453D02*
X173645240Y-126721453D01*
X173645240Y-126721453D02*
X173807145Y-126802405D01*
X173807145Y-126802405D02*
X173888097Y-126883358D01*
X173888097Y-126883358D02*
X173969050Y-127045262D01*
X173969050Y-127045262D02*
X173969050Y-127207167D01*
X173969050Y-127207167D02*
X173888097Y-127450024D01*
X173888097Y-127450024D02*
X172916669Y-128421453D01*
X172916669Y-128421453D02*
X173969050Y-128421453D01*
X175588098Y-128421453D02*
X174616669Y-128421453D01*
X175102383Y-128421453D02*
X175102383Y-126721453D01*
X175102383Y-126721453D02*
X174940479Y-126964310D01*
X174940479Y-126964310D02*
X174778574Y-127126215D01*
X174778574Y-127126215D02*
X174616669Y-127207167D01*
X159721428Y-130284977D02*
X159964285Y-130365929D01*
X159964285Y-130365929D02*
X160045238Y-130446881D01*
X160045238Y-130446881D02*
X160126190Y-130608786D01*
X160126190Y-130608786D02*
X160126190Y-130851643D01*
X160126190Y-130851643D02*
X160045238Y-131013548D01*
X160045238Y-131013548D02*
X159964285Y-131094501D01*
X159964285Y-131094501D02*
X159802380Y-131175453D01*
X159802380Y-131175453D02*
X159154761Y-131175453D01*
X159154761Y-131175453D02*
X159154761Y-129475453D01*
X159154761Y-129475453D02*
X159721428Y-129475453D01*
X159721428Y-129475453D02*
X159883333Y-129556405D01*
X159883333Y-129556405D02*
X159964285Y-129637358D01*
X159964285Y-129637358D02*
X160045238Y-129799262D01*
X160045238Y-129799262D02*
X160045238Y-129961167D01*
X160045238Y-129961167D02*
X159964285Y-130123072D01*
X159964285Y-130123072D02*
X159883333Y-130204024D01*
X159883333Y-130204024D02*
X159721428Y-130284977D01*
X159721428Y-130284977D02*
X159154761Y-130284977D01*
X161583333Y-131175453D02*
X161583333Y-130284977D01*
X161583333Y-130284977D02*
X161502380Y-130123072D01*
X161502380Y-130123072D02*
X161340476Y-130042120D01*
X161340476Y-130042120D02*
X161016666Y-130042120D01*
X161016666Y-130042120D02*
X160854761Y-130123072D01*
X161583333Y-131094501D02*
X161421428Y-131175453D01*
X161421428Y-131175453D02*
X161016666Y-131175453D01*
X161016666Y-131175453D02*
X160854761Y-131094501D01*
X160854761Y-131094501D02*
X160773809Y-130932596D01*
X160773809Y-130932596D02*
X160773809Y-130770691D01*
X160773809Y-130770691D02*
X160854761Y-130608786D01*
X160854761Y-130608786D02*
X161016666Y-130527834D01*
X161016666Y-130527834D02*
X161421428Y-130527834D01*
X161421428Y-130527834D02*
X161583333Y-130446881D01*
X162635714Y-131175453D02*
X162473809Y-131094501D01*
X162473809Y-131094501D02*
X162392856Y-130932596D01*
X162392856Y-130932596D02*
X162392856Y-129475453D01*
X163526190Y-131175453D02*
X163364285Y-131094501D01*
X163364285Y-131094501D02*
X163283332Y-130932596D01*
X163283332Y-130932596D02*
X163283332Y-129475453D01*
X164416666Y-131175453D02*
X164254761Y-131094501D01*
X164254761Y-131094501D02*
X164173808Y-131013548D01*
X164173808Y-131013548D02*
X164092856Y-130851643D01*
X164092856Y-130851643D02*
X164092856Y-130365929D01*
X164092856Y-130365929D02*
X164173808Y-130204024D01*
X164173808Y-130204024D02*
X164254761Y-130123072D01*
X164254761Y-130123072D02*
X164416666Y-130042120D01*
X164416666Y-130042120D02*
X164659523Y-130042120D01*
X164659523Y-130042120D02*
X164821427Y-130123072D01*
X164821427Y-130123072D02*
X164902380Y-130204024D01*
X164902380Y-130204024D02*
X164983332Y-130365929D01*
X164983332Y-130365929D02*
X164983332Y-130851643D01*
X164983332Y-130851643D02*
X164902380Y-131013548D01*
X164902380Y-131013548D02*
X164821427Y-131094501D01*
X164821427Y-131094501D02*
X164659523Y-131175453D01*
X164659523Y-131175453D02*
X164416666Y-131175453D01*
X165954761Y-131175453D02*
X165792856Y-131094501D01*
X165792856Y-131094501D02*
X165711903Y-131013548D01*
X165711903Y-131013548D02*
X165630951Y-130851643D01*
X165630951Y-130851643D02*
X165630951Y-130365929D01*
X165630951Y-130365929D02*
X165711903Y-130204024D01*
X165711903Y-130204024D02*
X165792856Y-130123072D01*
X165792856Y-130123072D02*
X165954761Y-130042120D01*
X165954761Y-130042120D02*
X166197618Y-130042120D01*
X166197618Y-130042120D02*
X166359522Y-130123072D01*
X166359522Y-130123072D02*
X166440475Y-130204024D01*
X166440475Y-130204024D02*
X166521427Y-130365929D01*
X166521427Y-130365929D02*
X166521427Y-130851643D01*
X166521427Y-130851643D02*
X166440475Y-131013548D01*
X166440475Y-131013548D02*
X166359522Y-131094501D01*
X166359522Y-131094501D02*
X166197618Y-131175453D01*
X166197618Y-131175453D02*
X165954761Y-131175453D01*
X167249998Y-130042120D02*
X167249998Y-131175453D01*
X167249998Y-130204024D02*
X167330951Y-130123072D01*
X167330951Y-130123072D02*
X167492856Y-130042120D01*
X167492856Y-130042120D02*
X167735713Y-130042120D01*
X167735713Y-130042120D02*
X167897617Y-130123072D01*
X167897617Y-130123072D02*
X167978570Y-130284977D01*
X167978570Y-130284977D02*
X167978570Y-131175453D01*
X170083331Y-131175453D02*
X170083331Y-129475453D01*
X170083331Y-129475453D02*
X170730950Y-129475453D01*
X170730950Y-129475453D02*
X170892855Y-129556405D01*
X170892855Y-129556405D02*
X170973808Y-129637358D01*
X170973808Y-129637358D02*
X171054760Y-129799262D01*
X171054760Y-129799262D02*
X171054760Y-130042120D01*
X171054760Y-130042120D02*
X170973808Y-130204024D01*
X170973808Y-130204024D02*
X170892855Y-130284977D01*
X170892855Y-130284977D02*
X170730950Y-130365929D01*
X170730950Y-130365929D02*
X170083331Y-130365929D01*
X172511903Y-131175453D02*
X172511903Y-130284977D01*
X172511903Y-130284977D02*
X172430950Y-130123072D01*
X172430950Y-130123072D02*
X172269046Y-130042120D01*
X172269046Y-130042120D02*
X171945236Y-130042120D01*
X171945236Y-130042120D02*
X171783331Y-130123072D01*
X172511903Y-131094501D02*
X172349998Y-131175453D01*
X172349998Y-131175453D02*
X171945236Y-131175453D01*
X171945236Y-131175453D02*
X171783331Y-131094501D01*
X171783331Y-131094501D02*
X171702379Y-130932596D01*
X171702379Y-130932596D02*
X171702379Y-130770691D01*
X171702379Y-130770691D02*
X171783331Y-130608786D01*
X171783331Y-130608786D02*
X171945236Y-130527834D01*
X171945236Y-130527834D02*
X172349998Y-130527834D01*
X172349998Y-130527834D02*
X172511903Y-130446881D01*
X173564284Y-131175453D02*
X173402379Y-131094501D01*
X173402379Y-131094501D02*
X173321426Y-130932596D01*
X173321426Y-130932596D02*
X173321426Y-129475453D01*
X174130950Y-131094501D02*
X174292855Y-131175453D01*
X174292855Y-131175453D02*
X174616664Y-131175453D01*
X174616664Y-131175453D02*
X174778569Y-131094501D01*
X174778569Y-131094501D02*
X174859521Y-130932596D01*
X174859521Y-130932596D02*
X174859521Y-130851643D01*
X174859521Y-130851643D02*
X174778569Y-130689739D01*
X174778569Y-130689739D02*
X174616664Y-130608786D01*
X174616664Y-130608786D02*
X174373807Y-130608786D01*
X174373807Y-130608786D02*
X174211902Y-130527834D01*
X174211902Y-130527834D02*
X174130950Y-130365929D01*
X174130950Y-130365929D02*
X174130950Y-130284977D01*
X174130950Y-130284977D02*
X174211902Y-130123072D01*
X174211902Y-130123072D02*
X174373807Y-130042120D01*
X174373807Y-130042120D02*
X174616664Y-130042120D01*
X174616664Y-130042120D02*
X174778569Y-130123072D01*
D13*
X147040476Y-120942857D02*
X146916666Y-120871428D01*
X146916666Y-120871428D02*
X146730952Y-120871428D01*
X146730952Y-120871428D02*
X146545238Y-120942857D01*
X146545238Y-120942857D02*
X146421428Y-121085714D01*
X146421428Y-121085714D02*
X146359523Y-121228571D01*
X146359523Y-121228571D02*
X146297619Y-121514285D01*
X146297619Y-121514285D02*
X146297619Y-121728571D01*
X146297619Y-121728571D02*
X146359523Y-122014285D01*
X146359523Y-122014285D02*
X146421428Y-122157142D01*
X146421428Y-122157142D02*
X146545238Y-122300000D01*
X146545238Y-122300000D02*
X146730952Y-122371428D01*
X146730952Y-122371428D02*
X146854761Y-122371428D01*
X146854761Y-122371428D02*
X147040476Y-122300000D01*
X147040476Y-122300000D02*
X147102380Y-122228571D01*
X147102380Y-122228571D02*
X147102380Y-121728571D01*
X147102380Y-121728571D02*
X146854761Y-121728571D01*
X147659523Y-122371428D02*
X147659523Y-120871428D01*
X147659523Y-120871428D02*
X148402380Y-122371428D01*
X148402380Y-122371428D02*
X148402380Y-120871428D01*
X149021428Y-122371428D02*
X149021428Y-120871428D01*
X149021428Y-120871428D02*
X149330952Y-120871428D01*
X149330952Y-120871428D02*
X149516666Y-120942857D01*
X149516666Y-120942857D02*
X149640476Y-121085714D01*
X149640476Y-121085714D02*
X149702381Y-121228571D01*
X149702381Y-121228571D02*
X149764285Y-121514285D01*
X149764285Y-121514285D02*
X149764285Y-121728571D01*
X149764285Y-121728571D02*
X149702381Y-122014285D01*
X149702381Y-122014285D02*
X149640476Y-122157142D01*
X149640476Y-122157142D02*
X149516666Y-122300000D01*
X149516666Y-122300000D02*
X149330952Y-122371428D01*
X149330952Y-122371428D02*
X149021428Y-122371428D01*
X150630952Y-122871428D02*
X150630952Y-120728571D01*
X152116666Y-121371428D02*
X152116666Y-122371428D01*
X151559523Y-121371428D02*
X151559523Y-122157142D01*
X151559523Y-122157142D02*
X151621428Y-122300000D01*
X151621428Y-122300000D02*
X151745238Y-122371428D01*
X151745238Y-122371428D02*
X151930952Y-122371428D01*
X151930952Y-122371428D02*
X152054761Y-122300000D01*
X152054761Y-122300000D02*
X152116666Y-122228571D01*
X153478570Y-122228571D02*
X153416666Y-122300000D01*
X153416666Y-122300000D02*
X153230951Y-122371428D01*
X153230951Y-122371428D02*
X153107142Y-122371428D01*
X153107142Y-122371428D02*
X152921428Y-122300000D01*
X152921428Y-122300000D02*
X152797618Y-122157142D01*
X152797618Y-122157142D02*
X152735713Y-122014285D01*
X152735713Y-122014285D02*
X152673809Y-121728571D01*
X152673809Y-121728571D02*
X152673809Y-121514285D01*
X152673809Y-121514285D02*
X152735713Y-121228571D01*
X152735713Y-121228571D02*
X152797618Y-121085714D01*
X152797618Y-121085714D02*
X152921428Y-120942857D01*
X152921428Y-120942857D02*
X153107142Y-120871428D01*
X153107142Y-120871428D02*
X153230951Y-120871428D01*
X153230951Y-120871428D02*
X153416666Y-120942857D01*
X153416666Y-120942857D02*
X153478570Y-121014285D01*
X153726190Y-122514285D02*
X154716666Y-122514285D01*
X154840475Y-120871428D02*
X155273808Y-122371428D01*
X155273808Y-122371428D02*
X155707142Y-120871428D01*
X156140475Y-122371428D02*
X156140475Y-120871428D01*
X156759523Y-122371428D02*
X156759523Y-120871428D01*
X156759523Y-120871428D02*
X157502380Y-122371428D01*
X157502380Y-122371428D02*
X157502380Y-120871428D01*
X102698928Y-117967142D02*
X104198928Y-117467142D01*
X104198928Y-117467142D02*
X102698928Y-116967142D01*
X104341785Y-116824286D02*
X104341785Y-115681428D01*
X103413214Y-114824286D02*
X103484642Y-114610000D01*
X103484642Y-114610000D02*
X103556071Y-114538571D01*
X103556071Y-114538571D02*
X103698928Y-114467143D01*
X103698928Y-114467143D02*
X103913214Y-114467143D01*
X103913214Y-114467143D02*
X104056071Y-114538571D01*
X104056071Y-114538571D02*
X104127500Y-114610000D01*
X104127500Y-114610000D02*
X104198928Y-114752857D01*
X104198928Y-114752857D02*
X104198928Y-115324286D01*
X104198928Y-115324286D02*
X102698928Y-115324286D01*
X102698928Y-115324286D02*
X102698928Y-114824286D01*
X102698928Y-114824286D02*
X102770357Y-114681429D01*
X102770357Y-114681429D02*
X102841785Y-114610000D01*
X102841785Y-114610000D02*
X102984642Y-114538571D01*
X102984642Y-114538571D02*
X103127500Y-114538571D01*
X103127500Y-114538571D02*
X103270357Y-114610000D01*
X103270357Y-114610000D02*
X103341785Y-114681429D01*
X103341785Y-114681429D02*
X103413214Y-114824286D01*
X103413214Y-114824286D02*
X103413214Y-115324286D01*
X103770357Y-113895714D02*
X103770357Y-113181429D01*
X104198928Y-114038571D02*
X102698928Y-113538571D01*
X102698928Y-113538571D02*
X104198928Y-113038571D01*
X102698928Y-112752857D02*
X102698928Y-111895715D01*
X104198928Y-112324286D02*
X102698928Y-112324286D01*
X102698928Y-111610000D02*
X102698928Y-110752858D01*
X104198928Y-111181429D02*
X102698928Y-111181429D01*
D11*
X101599904Y-106317238D02*
X101504666Y-106269619D01*
X101504666Y-106269619D02*
X101361809Y-106269619D01*
X101361809Y-106269619D02*
X101218952Y-106317238D01*
X101218952Y-106317238D02*
X101123714Y-106412476D01*
X101123714Y-106412476D02*
X101076095Y-106507714D01*
X101076095Y-106507714D02*
X101028476Y-106698190D01*
X101028476Y-106698190D02*
X101028476Y-106841047D01*
X101028476Y-106841047D02*
X101076095Y-107031523D01*
X101076095Y-107031523D02*
X101123714Y-107126761D01*
X101123714Y-107126761D02*
X101218952Y-107222000D01*
X101218952Y-107222000D02*
X101361809Y-107269619D01*
X101361809Y-107269619D02*
X101457047Y-107269619D01*
X101457047Y-107269619D02*
X101599904Y-107222000D01*
X101599904Y-107222000D02*
X101647523Y-107174380D01*
X101647523Y-107174380D02*
X101647523Y-106841047D01*
X101647523Y-106841047D02*
X101457047Y-106841047D01*
X102076095Y-107269619D02*
X102076095Y-106269619D01*
X102076095Y-106269619D02*
X102457047Y-106269619D01*
X102457047Y-106269619D02*
X102552285Y-106317238D01*
X102552285Y-106317238D02*
X102599904Y-106364857D01*
X102599904Y-106364857D02*
X102647523Y-106460095D01*
X102647523Y-106460095D02*
X102647523Y-106602952D01*
X102647523Y-106602952D02*
X102599904Y-106698190D01*
X102599904Y-106698190D02*
X102552285Y-106745809D01*
X102552285Y-106745809D02*
X102457047Y-106793428D01*
X102457047Y-106793428D02*
X102076095Y-106793428D01*
X103028476Y-107222000D02*
X103171333Y-107269619D01*
X103171333Y-107269619D02*
X103409428Y-107269619D01*
X103409428Y-107269619D02*
X103504666Y-107222000D01*
X103504666Y-107222000D02*
X103552285Y-107174380D01*
X103552285Y-107174380D02*
X103599904Y-107079142D01*
X103599904Y-107079142D02*
X103599904Y-106983904D01*
X103599904Y-106983904D02*
X103552285Y-106888666D01*
X103552285Y-106888666D02*
X103504666Y-106841047D01*
X103504666Y-106841047D02*
X103409428Y-106793428D01*
X103409428Y-106793428D02*
X103218952Y-106745809D01*
X103218952Y-106745809D02*
X103123714Y-106698190D01*
X103123714Y-106698190D02*
X103076095Y-106650571D01*
X103076095Y-106650571D02*
X103028476Y-106555333D01*
X103028476Y-106555333D02*
X103028476Y-106460095D01*
X103028476Y-106460095D02*
X103076095Y-106364857D01*
X103076095Y-106364857D02*
X103123714Y-106317238D01*
X103123714Y-106317238D02*
X103218952Y-106269619D01*
X103218952Y-106269619D02*
X103457047Y-106269619D01*
X103457047Y-106269619D02*
X103599904Y-106317238D01*
X103790381Y-107364857D02*
X104552285Y-107364857D01*
X104790381Y-107269619D02*
X104790381Y-106269619D01*
X104790381Y-106269619D02*
X105123714Y-106983904D01*
X105123714Y-106983904D02*
X105457047Y-106269619D01*
X105457047Y-106269619D02*
X105457047Y-107269619D01*
X106123714Y-106269619D02*
X106314190Y-106269619D01*
X106314190Y-106269619D02*
X106409428Y-106317238D01*
X106409428Y-106317238D02*
X106504666Y-106412476D01*
X106504666Y-106412476D02*
X106552285Y-106602952D01*
X106552285Y-106602952D02*
X106552285Y-106936285D01*
X106552285Y-106936285D02*
X106504666Y-107126761D01*
X106504666Y-107126761D02*
X106409428Y-107222000D01*
X106409428Y-107222000D02*
X106314190Y-107269619D01*
X106314190Y-107269619D02*
X106123714Y-107269619D01*
X106123714Y-107269619D02*
X106028476Y-107222000D01*
X106028476Y-107222000D02*
X105933238Y-107126761D01*
X105933238Y-107126761D02*
X105885619Y-106936285D01*
X105885619Y-106936285D02*
X105885619Y-106602952D01*
X105885619Y-106602952D02*
X105933238Y-106412476D01*
X105933238Y-106412476D02*
X106028476Y-106317238D01*
X106028476Y-106317238D02*
X106123714Y-106269619D01*
X106933238Y-107222000D02*
X107076095Y-107269619D01*
X107076095Y-107269619D02*
X107314190Y-107269619D01*
X107314190Y-107269619D02*
X107409428Y-107222000D01*
X107409428Y-107222000D02*
X107457047Y-107174380D01*
X107457047Y-107174380D02*
X107504666Y-107079142D01*
X107504666Y-107079142D02*
X107504666Y-106983904D01*
X107504666Y-106983904D02*
X107457047Y-106888666D01*
X107457047Y-106888666D02*
X107409428Y-106841047D01*
X107409428Y-106841047D02*
X107314190Y-106793428D01*
X107314190Y-106793428D02*
X107123714Y-106745809D01*
X107123714Y-106745809D02*
X107028476Y-106698190D01*
X107028476Y-106698190D02*
X106980857Y-106650571D01*
X106980857Y-106650571D02*
X106933238Y-106555333D01*
X106933238Y-106555333D02*
X106933238Y-106460095D01*
X106933238Y-106460095D02*
X106980857Y-106364857D01*
X106980857Y-106364857D02*
X107028476Y-106317238D01*
X107028476Y-106317238D02*
X107123714Y-106269619D01*
X107123714Y-106269619D02*
X107361809Y-106269619D01*
X107361809Y-106269619D02*
X107504666Y-106317238D01*
X107933238Y-107269619D02*
X107933238Y-106269619D01*
D13*
X149283928Y-53617857D02*
X147783928Y-53617857D01*
X147783928Y-53617857D02*
X147783928Y-53260714D01*
X147783928Y-53260714D02*
X147855357Y-53046428D01*
X147855357Y-53046428D02*
X147998214Y-52903571D01*
X147998214Y-52903571D02*
X148141071Y-52832142D01*
X148141071Y-52832142D02*
X148426785Y-52760714D01*
X148426785Y-52760714D02*
X148641071Y-52760714D01*
X148641071Y-52760714D02*
X148926785Y-52832142D01*
X148926785Y-52832142D02*
X149069642Y-52903571D01*
X149069642Y-52903571D02*
X149212500Y-53046428D01*
X149212500Y-53046428D02*
X149283928Y-53260714D01*
X149283928Y-53260714D02*
X149283928Y-53617857D01*
X147926785Y-52189285D02*
X147855357Y-52117857D01*
X147855357Y-52117857D02*
X147783928Y-51975000D01*
X147783928Y-51975000D02*
X147783928Y-51617857D01*
X147783928Y-51617857D02*
X147855357Y-51475000D01*
X147855357Y-51475000D02*
X147926785Y-51403571D01*
X147926785Y-51403571D02*
X148069642Y-51332142D01*
X148069642Y-51332142D02*
X148212500Y-51332142D01*
X148212500Y-51332142D02*
X148426785Y-51403571D01*
X148426785Y-51403571D02*
X149283928Y-52260714D01*
X149283928Y-52260714D02*
X149283928Y-51332142D01*
X147783928Y-49975000D02*
X147783928Y-50689286D01*
X147783928Y-50689286D02*
X148498214Y-50760714D01*
X148498214Y-50760714D02*
X148426785Y-50689286D01*
X148426785Y-50689286D02*
X148355357Y-50546429D01*
X148355357Y-50546429D02*
X148355357Y-50189286D01*
X148355357Y-50189286D02*
X148426785Y-50046429D01*
X148426785Y-50046429D02*
X148498214Y-49975000D01*
X148498214Y-49975000D02*
X148641071Y-49903571D01*
X148641071Y-49903571D02*
X148998214Y-49903571D01*
X148998214Y-49903571D02*
X149141071Y-49975000D01*
X149141071Y-49975000D02*
X149212500Y-50046429D01*
X149212500Y-50046429D02*
X149283928Y-50189286D01*
X149283928Y-50189286D02*
X149283928Y-50546429D01*
X149283928Y-50546429D02*
X149212500Y-50689286D01*
X149212500Y-50689286D02*
X149141071Y-50760714D01*
D11*
X101599904Y-103650238D02*
X101504666Y-103602619D01*
X101504666Y-103602619D02*
X101361809Y-103602619D01*
X101361809Y-103602619D02*
X101218952Y-103650238D01*
X101218952Y-103650238D02*
X101123714Y-103745476D01*
X101123714Y-103745476D02*
X101076095Y-103840714D01*
X101076095Y-103840714D02*
X101028476Y-104031190D01*
X101028476Y-104031190D02*
X101028476Y-104174047D01*
X101028476Y-104174047D02*
X101076095Y-104364523D01*
X101076095Y-104364523D02*
X101123714Y-104459761D01*
X101123714Y-104459761D02*
X101218952Y-104555000D01*
X101218952Y-104555000D02*
X101361809Y-104602619D01*
X101361809Y-104602619D02*
X101457047Y-104602619D01*
X101457047Y-104602619D02*
X101599904Y-104555000D01*
X101599904Y-104555000D02*
X101647523Y-104507380D01*
X101647523Y-104507380D02*
X101647523Y-104174047D01*
X101647523Y-104174047D02*
X101457047Y-104174047D01*
X102076095Y-104602619D02*
X102076095Y-103602619D01*
X102076095Y-103602619D02*
X102457047Y-103602619D01*
X102457047Y-103602619D02*
X102552285Y-103650238D01*
X102552285Y-103650238D02*
X102599904Y-103697857D01*
X102599904Y-103697857D02*
X102647523Y-103793095D01*
X102647523Y-103793095D02*
X102647523Y-103935952D01*
X102647523Y-103935952D02*
X102599904Y-104031190D01*
X102599904Y-104031190D02*
X102552285Y-104078809D01*
X102552285Y-104078809D02*
X102457047Y-104126428D01*
X102457047Y-104126428D02*
X102076095Y-104126428D01*
X103028476Y-104555000D02*
X103171333Y-104602619D01*
X103171333Y-104602619D02*
X103409428Y-104602619D01*
X103409428Y-104602619D02*
X103504666Y-104555000D01*
X103504666Y-104555000D02*
X103552285Y-104507380D01*
X103552285Y-104507380D02*
X103599904Y-104412142D01*
X103599904Y-104412142D02*
X103599904Y-104316904D01*
X103599904Y-104316904D02*
X103552285Y-104221666D01*
X103552285Y-104221666D02*
X103504666Y-104174047D01*
X103504666Y-104174047D02*
X103409428Y-104126428D01*
X103409428Y-104126428D02*
X103218952Y-104078809D01*
X103218952Y-104078809D02*
X103123714Y-104031190D01*
X103123714Y-104031190D02*
X103076095Y-103983571D01*
X103076095Y-103983571D02*
X103028476Y-103888333D01*
X103028476Y-103888333D02*
X103028476Y-103793095D01*
X103028476Y-103793095D02*
X103076095Y-103697857D01*
X103076095Y-103697857D02*
X103123714Y-103650238D01*
X103123714Y-103650238D02*
X103218952Y-103602619D01*
X103218952Y-103602619D02*
X103457047Y-103602619D01*
X103457047Y-103602619D02*
X103599904Y-103650238D01*
X103790381Y-104697857D02*
X104552285Y-104697857D01*
X104790381Y-104602619D02*
X104790381Y-103602619D01*
X104790381Y-103602619D02*
X105123714Y-104316904D01*
X105123714Y-104316904D02*
X105457047Y-103602619D01*
X105457047Y-103602619D02*
X105457047Y-104602619D01*
X105933238Y-104602619D02*
X105933238Y-103602619D01*
X106361809Y-104555000D02*
X106504666Y-104602619D01*
X106504666Y-104602619D02*
X106742761Y-104602619D01*
X106742761Y-104602619D02*
X106837999Y-104555000D01*
X106837999Y-104555000D02*
X106885618Y-104507380D01*
X106885618Y-104507380D02*
X106933237Y-104412142D01*
X106933237Y-104412142D02*
X106933237Y-104316904D01*
X106933237Y-104316904D02*
X106885618Y-104221666D01*
X106885618Y-104221666D02*
X106837999Y-104174047D01*
X106837999Y-104174047D02*
X106742761Y-104126428D01*
X106742761Y-104126428D02*
X106552285Y-104078809D01*
X106552285Y-104078809D02*
X106457047Y-104031190D01*
X106457047Y-104031190D02*
X106409428Y-103983571D01*
X106409428Y-103983571D02*
X106361809Y-103888333D01*
X106361809Y-103888333D02*
X106361809Y-103793095D01*
X106361809Y-103793095D02*
X106409428Y-103697857D01*
X106409428Y-103697857D02*
X106457047Y-103650238D01*
X106457047Y-103650238D02*
X106552285Y-103602619D01*
X106552285Y-103602619D02*
X106790380Y-103602619D01*
X106790380Y-103602619D02*
X106933237Y-103650238D01*
X107552285Y-103602619D02*
X107742761Y-103602619D01*
X107742761Y-103602619D02*
X107837999Y-103650238D01*
X107837999Y-103650238D02*
X107933237Y-103745476D01*
X107933237Y-103745476D02*
X107980856Y-103935952D01*
X107980856Y-103935952D02*
X107980856Y-104269285D01*
X107980856Y-104269285D02*
X107933237Y-104459761D01*
X107933237Y-104459761D02*
X107837999Y-104555000D01*
X107837999Y-104555000D02*
X107742761Y-104602619D01*
X107742761Y-104602619D02*
X107552285Y-104602619D01*
X107552285Y-104602619D02*
X107457047Y-104555000D01*
X107457047Y-104555000D02*
X107361809Y-104459761D01*
X107361809Y-104459761D02*
X107314190Y-104269285D01*
X107314190Y-104269285D02*
X107314190Y-103935952D01*
X107314190Y-103935952D02*
X107361809Y-103745476D01*
X107361809Y-103745476D02*
X107457047Y-103650238D01*
X107457047Y-103650238D02*
X107552285Y-103602619D01*
D13*
X175383809Y-94836428D02*
X176126666Y-94836428D01*
X175755238Y-96336428D02*
X175755238Y-94836428D01*
X177055237Y-96265000D02*
X176931428Y-96336428D01*
X176931428Y-96336428D02*
X176683809Y-96336428D01*
X176683809Y-96336428D02*
X176559999Y-96265000D01*
X176559999Y-96265000D02*
X176498095Y-96122142D01*
X176498095Y-96122142D02*
X176498095Y-95550714D01*
X176498095Y-95550714D02*
X176559999Y-95407857D01*
X176559999Y-95407857D02*
X176683809Y-95336428D01*
X176683809Y-95336428D02*
X176931428Y-95336428D01*
X176931428Y-95336428D02*
X177055237Y-95407857D01*
X177055237Y-95407857D02*
X177117142Y-95550714D01*
X177117142Y-95550714D02*
X177117142Y-95693571D01*
X177117142Y-95693571D02*
X176498095Y-95836428D01*
X177674285Y-96336428D02*
X177674285Y-95336428D01*
X177674285Y-95479285D02*
X177736190Y-95407857D01*
X177736190Y-95407857D02*
X177860000Y-95336428D01*
X177860000Y-95336428D02*
X178045714Y-95336428D01*
X178045714Y-95336428D02*
X178169523Y-95407857D01*
X178169523Y-95407857D02*
X178231428Y-95550714D01*
X178231428Y-95550714D02*
X178231428Y-96336428D01*
X178231428Y-95550714D02*
X178293333Y-95407857D01*
X178293333Y-95407857D02*
X178417142Y-95336428D01*
X178417142Y-95336428D02*
X178602857Y-95336428D01*
X178602857Y-95336428D02*
X178726666Y-95407857D01*
X178726666Y-95407857D02*
X178788571Y-95550714D01*
X178788571Y-95550714D02*
X178788571Y-96336428D01*
X179407618Y-95336428D02*
X179407618Y-96836428D01*
X179407618Y-95407857D02*
X179531428Y-95336428D01*
X179531428Y-95336428D02*
X179779047Y-95336428D01*
X179779047Y-95336428D02*
X179902856Y-95407857D01*
X179902856Y-95407857D02*
X179964761Y-95479285D01*
X179964761Y-95479285D02*
X180026666Y-95622142D01*
X180026666Y-95622142D02*
X180026666Y-96050714D01*
X180026666Y-96050714D02*
X179964761Y-96193571D01*
X179964761Y-96193571D02*
X179902856Y-96265000D01*
X179902856Y-96265000D02*
X179779047Y-96336428D01*
X179779047Y-96336428D02*
X179531428Y-96336428D01*
X179531428Y-96336428D02*
X179407618Y-96265000D01*
X181512380Y-95336428D02*
X182440951Y-95336428D01*
X181883808Y-94693571D02*
X181512380Y-96622142D01*
X182317141Y-95979285D02*
X181388570Y-95979285D01*
X181945713Y-96622142D02*
X182317141Y-94693571D01*
X182812380Y-94979285D02*
X182874284Y-94907857D01*
X182874284Y-94907857D02*
X182998094Y-94836428D01*
X182998094Y-94836428D02*
X183307618Y-94836428D01*
X183307618Y-94836428D02*
X183431427Y-94907857D01*
X183431427Y-94907857D02*
X183493332Y-94979285D01*
X183493332Y-94979285D02*
X183555237Y-95122142D01*
X183555237Y-95122142D02*
X183555237Y-95265000D01*
X183555237Y-95265000D02*
X183493332Y-95479285D01*
X183493332Y-95479285D02*
X182750475Y-96336428D01*
X182750475Y-96336428D02*
X183555237Y-96336428D01*
X146743928Y-53617857D02*
X145243928Y-53617857D01*
X145243928Y-53617857D02*
X145243928Y-53260714D01*
X145243928Y-53260714D02*
X145315357Y-53046428D01*
X145315357Y-53046428D02*
X145458214Y-52903571D01*
X145458214Y-52903571D02*
X145601071Y-52832142D01*
X145601071Y-52832142D02*
X145886785Y-52760714D01*
X145886785Y-52760714D02*
X146101071Y-52760714D01*
X146101071Y-52760714D02*
X146386785Y-52832142D01*
X146386785Y-52832142D02*
X146529642Y-52903571D01*
X146529642Y-52903571D02*
X146672500Y-53046428D01*
X146672500Y-53046428D02*
X146743928Y-53260714D01*
X146743928Y-53260714D02*
X146743928Y-53617857D01*
X145386785Y-52189285D02*
X145315357Y-52117857D01*
X145315357Y-52117857D02*
X145243928Y-51975000D01*
X145243928Y-51975000D02*
X145243928Y-51617857D01*
X145243928Y-51617857D02*
X145315357Y-51475000D01*
X145315357Y-51475000D02*
X145386785Y-51403571D01*
X145386785Y-51403571D02*
X145529642Y-51332142D01*
X145529642Y-51332142D02*
X145672500Y-51332142D01*
X145672500Y-51332142D02*
X145886785Y-51403571D01*
X145886785Y-51403571D02*
X146743928Y-52260714D01*
X146743928Y-52260714D02*
X146743928Y-51332142D01*
X145243928Y-50832143D02*
X145243928Y-49903571D01*
X145243928Y-49903571D02*
X145815357Y-50403571D01*
X145815357Y-50403571D02*
X145815357Y-50189286D01*
X145815357Y-50189286D02*
X145886785Y-50046429D01*
X145886785Y-50046429D02*
X145958214Y-49975000D01*
X145958214Y-49975000D02*
X146101071Y-49903571D01*
X146101071Y-49903571D02*
X146458214Y-49903571D01*
X146458214Y-49903571D02*
X146601071Y-49975000D01*
X146601071Y-49975000D02*
X146672500Y-50046429D01*
X146672500Y-50046429D02*
X146743928Y-50189286D01*
X146743928Y-50189286D02*
X146743928Y-50617857D01*
X146743928Y-50617857D02*
X146672500Y-50760714D01*
X146672500Y-50760714D02*
X146601071Y-50832143D01*
D11*
X90550904Y-116654238D02*
X90455666Y-116606619D01*
X90455666Y-116606619D02*
X90312809Y-116606619D01*
X90312809Y-116606619D02*
X90169952Y-116654238D01*
X90169952Y-116654238D02*
X90074714Y-116749476D01*
X90074714Y-116749476D02*
X90027095Y-116844714D01*
X90027095Y-116844714D02*
X89979476Y-117035190D01*
X89979476Y-117035190D02*
X89979476Y-117178047D01*
X89979476Y-117178047D02*
X90027095Y-117368523D01*
X90027095Y-117368523D02*
X90074714Y-117463761D01*
X90074714Y-117463761D02*
X90169952Y-117559000D01*
X90169952Y-117559000D02*
X90312809Y-117606619D01*
X90312809Y-117606619D02*
X90408047Y-117606619D01*
X90408047Y-117606619D02*
X90550904Y-117559000D01*
X90550904Y-117559000D02*
X90598523Y-117511380D01*
X90598523Y-117511380D02*
X90598523Y-117178047D01*
X90598523Y-117178047D02*
X90408047Y-117178047D01*
X91027095Y-117606619D02*
X91027095Y-116606619D01*
X91027095Y-116606619D02*
X91598523Y-117606619D01*
X91598523Y-117606619D02*
X91598523Y-116606619D01*
X92074714Y-117606619D02*
X92074714Y-116606619D01*
X92074714Y-116606619D02*
X92312809Y-116606619D01*
X92312809Y-116606619D02*
X92455666Y-116654238D01*
X92455666Y-116654238D02*
X92550904Y-116749476D01*
X92550904Y-116749476D02*
X92598523Y-116844714D01*
X92598523Y-116844714D02*
X92646142Y-117035190D01*
X92646142Y-117035190D02*
X92646142Y-117178047D01*
X92646142Y-117178047D02*
X92598523Y-117368523D01*
X92598523Y-117368523D02*
X92550904Y-117463761D01*
X92550904Y-117463761D02*
X92455666Y-117559000D01*
X92455666Y-117559000D02*
X92312809Y-117606619D01*
X92312809Y-117606619D02*
X92074714Y-117606619D01*
D13*
X181391428Y-85529999D02*
X181391428Y-84672857D01*
X182891428Y-85101428D02*
X181391428Y-85101428D01*
X181391428Y-83887142D02*
X181391428Y-83601428D01*
X181391428Y-83601428D02*
X181462857Y-83458571D01*
X181462857Y-83458571D02*
X181605714Y-83315714D01*
X181605714Y-83315714D02*
X181891428Y-83244285D01*
X181891428Y-83244285D02*
X182391428Y-83244285D01*
X182391428Y-83244285D02*
X182677142Y-83315714D01*
X182677142Y-83315714D02*
X182820000Y-83458571D01*
X182820000Y-83458571D02*
X182891428Y-83601428D01*
X182891428Y-83601428D02*
X182891428Y-83887142D01*
X182891428Y-83887142D02*
X182820000Y-84030000D01*
X182820000Y-84030000D02*
X182677142Y-84172857D01*
X182677142Y-84172857D02*
X182391428Y-84244285D01*
X182391428Y-84244285D02*
X181891428Y-84244285D01*
X181891428Y-84244285D02*
X181605714Y-84172857D01*
X181605714Y-84172857D02*
X181462857Y-84030000D01*
X181462857Y-84030000D02*
X181391428Y-83887142D01*
X181391428Y-82601428D02*
X182605714Y-82601428D01*
X182605714Y-82601428D02*
X182748571Y-82529999D01*
X182748571Y-82529999D02*
X182820000Y-82458571D01*
X182820000Y-82458571D02*
X182891428Y-82315713D01*
X182891428Y-82315713D02*
X182891428Y-82029999D01*
X182891428Y-82029999D02*
X182820000Y-81887142D01*
X182820000Y-81887142D02*
X182748571Y-81815713D01*
X182748571Y-81815713D02*
X182605714Y-81744285D01*
X182605714Y-81744285D02*
X181391428Y-81744285D01*
X182748571Y-80172856D02*
X182820000Y-80244284D01*
X182820000Y-80244284D02*
X182891428Y-80458570D01*
X182891428Y-80458570D02*
X182891428Y-80601427D01*
X182891428Y-80601427D02*
X182820000Y-80815713D01*
X182820000Y-80815713D02*
X182677142Y-80958570D01*
X182677142Y-80958570D02*
X182534285Y-81029999D01*
X182534285Y-81029999D02*
X182248571Y-81101427D01*
X182248571Y-81101427D02*
X182034285Y-81101427D01*
X182034285Y-81101427D02*
X181748571Y-81029999D01*
X181748571Y-81029999D02*
X181605714Y-80958570D01*
X181605714Y-80958570D02*
X181462857Y-80815713D01*
X181462857Y-80815713D02*
X181391428Y-80601427D01*
X181391428Y-80601427D02*
X181391428Y-80458570D01*
X181391428Y-80458570D02*
X181462857Y-80244284D01*
X181462857Y-80244284D02*
X181534285Y-80172856D01*
X182891428Y-79529999D02*
X181391428Y-79529999D01*
X182105714Y-79529999D02*
X182105714Y-78672856D01*
X182891428Y-78672856D02*
X181391428Y-78672856D01*
X181391428Y-78101427D02*
X181391428Y-77172855D01*
X181391428Y-77172855D02*
X181962857Y-77672855D01*
X181962857Y-77672855D02*
X181962857Y-77458570D01*
X181962857Y-77458570D02*
X182034285Y-77315713D01*
X182034285Y-77315713D02*
X182105714Y-77244284D01*
X182105714Y-77244284D02*
X182248571Y-77172855D01*
X182248571Y-77172855D02*
X182605714Y-77172855D01*
X182605714Y-77172855D02*
X182748571Y-77244284D01*
X182748571Y-77244284D02*
X182820000Y-77315713D01*
X182820000Y-77315713D02*
X182891428Y-77458570D01*
X182891428Y-77458570D02*
X182891428Y-77887141D01*
X182891428Y-77887141D02*
X182820000Y-78029998D01*
X182820000Y-78029998D02*
X182748571Y-78101427D01*
X181391428Y-70289999D02*
X181391428Y-69432857D01*
X182891428Y-69861428D02*
X181391428Y-69861428D01*
X181391428Y-68647142D02*
X181391428Y-68361428D01*
X181391428Y-68361428D02*
X181462857Y-68218571D01*
X181462857Y-68218571D02*
X181605714Y-68075714D01*
X181605714Y-68075714D02*
X181891428Y-68004285D01*
X181891428Y-68004285D02*
X182391428Y-68004285D01*
X182391428Y-68004285D02*
X182677142Y-68075714D01*
X182677142Y-68075714D02*
X182820000Y-68218571D01*
X182820000Y-68218571D02*
X182891428Y-68361428D01*
X182891428Y-68361428D02*
X182891428Y-68647142D01*
X182891428Y-68647142D02*
X182820000Y-68790000D01*
X182820000Y-68790000D02*
X182677142Y-68932857D01*
X182677142Y-68932857D02*
X182391428Y-69004285D01*
X182391428Y-69004285D02*
X181891428Y-69004285D01*
X181891428Y-69004285D02*
X181605714Y-68932857D01*
X181605714Y-68932857D02*
X181462857Y-68790000D01*
X181462857Y-68790000D02*
X181391428Y-68647142D01*
X181391428Y-67361428D02*
X182605714Y-67361428D01*
X182605714Y-67361428D02*
X182748571Y-67289999D01*
X182748571Y-67289999D02*
X182820000Y-67218571D01*
X182820000Y-67218571D02*
X182891428Y-67075713D01*
X182891428Y-67075713D02*
X182891428Y-66789999D01*
X182891428Y-66789999D02*
X182820000Y-66647142D01*
X182820000Y-66647142D02*
X182748571Y-66575713D01*
X182748571Y-66575713D02*
X182605714Y-66504285D01*
X182605714Y-66504285D02*
X181391428Y-66504285D01*
X182748571Y-64932856D02*
X182820000Y-65004284D01*
X182820000Y-65004284D02*
X182891428Y-65218570D01*
X182891428Y-65218570D02*
X182891428Y-65361427D01*
X182891428Y-65361427D02*
X182820000Y-65575713D01*
X182820000Y-65575713D02*
X182677142Y-65718570D01*
X182677142Y-65718570D02*
X182534285Y-65789999D01*
X182534285Y-65789999D02*
X182248571Y-65861427D01*
X182248571Y-65861427D02*
X182034285Y-65861427D01*
X182034285Y-65861427D02*
X181748571Y-65789999D01*
X181748571Y-65789999D02*
X181605714Y-65718570D01*
X181605714Y-65718570D02*
X181462857Y-65575713D01*
X181462857Y-65575713D02*
X181391428Y-65361427D01*
X181391428Y-65361427D02*
X181391428Y-65218570D01*
X181391428Y-65218570D02*
X181462857Y-65004284D01*
X181462857Y-65004284D02*
X181534285Y-64932856D01*
X182891428Y-64289999D02*
X181391428Y-64289999D01*
X182105714Y-64289999D02*
X182105714Y-63432856D01*
X182891428Y-63432856D02*
X181391428Y-63432856D01*
X181891428Y-62075713D02*
X182891428Y-62075713D01*
X181320000Y-62432855D02*
X182391428Y-62789998D01*
X182391428Y-62789998D02*
X182391428Y-61861427D01*
D14*
X118588619Y-128154428D02*
X118588619Y-127963952D01*
X118588619Y-127963952D02*
X118636238Y-127868714D01*
X118636238Y-127868714D02*
X118731476Y-127773476D01*
X118731476Y-127773476D02*
X118921952Y-127725857D01*
X118921952Y-127725857D02*
X119255285Y-127725857D01*
X119255285Y-127725857D02*
X119445761Y-127773476D01*
X119445761Y-127773476D02*
X119541000Y-127868714D01*
X119541000Y-127868714D02*
X119588619Y-127963952D01*
X119588619Y-127963952D02*
X119588619Y-128154428D01*
X119588619Y-128154428D02*
X119541000Y-128249666D01*
X119541000Y-128249666D02*
X119445761Y-128344904D01*
X119445761Y-128344904D02*
X119255285Y-128392523D01*
X119255285Y-128392523D02*
X118921952Y-128392523D01*
X118921952Y-128392523D02*
X118731476Y-128344904D01*
X118731476Y-128344904D02*
X118636238Y-128249666D01*
X118636238Y-128249666D02*
X118588619Y-128154428D01*
X119064809Y-126963952D02*
X119064809Y-127297285D01*
X119588619Y-127297285D02*
X118588619Y-127297285D01*
X118588619Y-127297285D02*
X118588619Y-126821095D01*
X119064809Y-126106809D02*
X119064809Y-126440142D01*
X119588619Y-126440142D02*
X118588619Y-126440142D01*
X118588619Y-126440142D02*
X118588619Y-125963952D01*
X119921952Y-124582999D02*
X118493380Y-124582999D01*
X118588619Y-122916332D02*
X118588619Y-122725856D01*
X118588619Y-122725856D02*
X118636238Y-122630618D01*
X118636238Y-122630618D02*
X118731476Y-122535380D01*
X118731476Y-122535380D02*
X118921952Y-122487761D01*
X118921952Y-122487761D02*
X119255285Y-122487761D01*
X119255285Y-122487761D02*
X119445761Y-122535380D01*
X119445761Y-122535380D02*
X119541000Y-122630618D01*
X119541000Y-122630618D02*
X119588619Y-122725856D01*
X119588619Y-122725856D02*
X119588619Y-122916332D01*
X119588619Y-122916332D02*
X119541000Y-123011570D01*
X119541000Y-123011570D02*
X119445761Y-123106808D01*
X119445761Y-123106808D02*
X119255285Y-123154427D01*
X119255285Y-123154427D02*
X118921952Y-123154427D01*
X118921952Y-123154427D02*
X118731476Y-123106808D01*
X118731476Y-123106808D02*
X118636238Y-123011570D01*
X118636238Y-123011570D02*
X118588619Y-122916332D01*
X119588619Y-122059189D02*
X118588619Y-122059189D01*
X118588619Y-122059189D02*
X119588619Y-121487761D01*
X119588619Y-121487761D02*
X118588619Y-121487761D01*
X119969571Y-119963951D02*
X119921952Y-120011570D01*
X119921952Y-120011570D02*
X119779095Y-120106808D01*
X119779095Y-120106808D02*
X119683857Y-120154427D01*
X119683857Y-120154427D02*
X119541000Y-120202046D01*
X119541000Y-120202046D02*
X119302904Y-120249665D01*
X119302904Y-120249665D02*
X119112428Y-120249665D01*
X119112428Y-120249665D02*
X118874333Y-120202046D01*
X118874333Y-120202046D02*
X118731476Y-120154427D01*
X118731476Y-120154427D02*
X118636238Y-120106808D01*
X118636238Y-120106808D02*
X118493380Y-120011570D01*
X118493380Y-120011570D02*
X118445761Y-119963951D01*
X119588619Y-119582998D02*
X118588619Y-119582998D01*
X118588619Y-119582998D02*
X118588619Y-119202046D01*
X118588619Y-119202046D02*
X118636238Y-119106808D01*
X118636238Y-119106808D02*
X118683857Y-119059189D01*
X118683857Y-119059189D02*
X118779095Y-119011570D01*
X118779095Y-119011570D02*
X118921952Y-119011570D01*
X118921952Y-119011570D02*
X119017190Y-119059189D01*
X119017190Y-119059189D02*
X119064809Y-119106808D01*
X119064809Y-119106808D02*
X119112428Y-119202046D01*
X119112428Y-119202046D02*
X119112428Y-119582998D01*
X118588619Y-118678236D02*
X119588619Y-118440141D01*
X119588619Y-118440141D02*
X118874333Y-118249665D01*
X118874333Y-118249665D02*
X119588619Y-118059189D01*
X119588619Y-118059189D02*
X118588619Y-117821094D01*
X119588619Y-116868713D02*
X119112428Y-117202046D01*
X119588619Y-117440141D02*
X118588619Y-117440141D01*
X118588619Y-117440141D02*
X118588619Y-117059189D01*
X118588619Y-117059189D02*
X118636238Y-116963951D01*
X118636238Y-116963951D02*
X118683857Y-116916332D01*
X118683857Y-116916332D02*
X118779095Y-116868713D01*
X118779095Y-116868713D02*
X118921952Y-116868713D01*
X118921952Y-116868713D02*
X119017190Y-116916332D01*
X119017190Y-116916332D02*
X119064809Y-116963951D01*
X119064809Y-116963951D02*
X119112428Y-117059189D01*
X119112428Y-117059189D02*
X119112428Y-117440141D01*
X119969571Y-116535379D02*
X119921952Y-116487760D01*
X119921952Y-116487760D02*
X119779095Y-116392522D01*
X119779095Y-116392522D02*
X119683857Y-116344903D01*
X119683857Y-116344903D02*
X119541000Y-116297284D01*
X119541000Y-116297284D02*
X119302904Y-116249665D01*
X119302904Y-116249665D02*
X119112428Y-116249665D01*
X119112428Y-116249665D02*
X118874333Y-116297284D01*
X118874333Y-116297284D02*
X118731476Y-116344903D01*
X118731476Y-116344903D02*
X118636238Y-116392522D01*
X118636238Y-116392522D02*
X118493380Y-116487760D01*
X118493380Y-116487760D02*
X118445761Y-116535379D01*
D13*
X115398928Y-116625714D02*
X115398928Y-115697142D01*
X115398928Y-115697142D02*
X115970357Y-116197142D01*
X115970357Y-116197142D02*
X115970357Y-115982857D01*
X115970357Y-115982857D02*
X116041785Y-115840000D01*
X116041785Y-115840000D02*
X116113214Y-115768571D01*
X116113214Y-115768571D02*
X116256071Y-115697142D01*
X116256071Y-115697142D02*
X116613214Y-115697142D01*
X116613214Y-115697142D02*
X116756071Y-115768571D01*
X116756071Y-115768571D02*
X116827500Y-115840000D01*
X116827500Y-115840000D02*
X116898928Y-115982857D01*
X116898928Y-115982857D02*
X116898928Y-116411428D01*
X116898928Y-116411428D02*
X116827500Y-116554285D01*
X116827500Y-116554285D02*
X116756071Y-116625714D01*
X115398928Y-115268571D02*
X116898928Y-114768571D01*
X116898928Y-114768571D02*
X115398928Y-114268571D01*
X115398928Y-113911429D02*
X115398928Y-112982857D01*
X115398928Y-112982857D02*
X115970357Y-113482857D01*
X115970357Y-113482857D02*
X115970357Y-113268572D01*
X115970357Y-113268572D02*
X116041785Y-113125715D01*
X116041785Y-113125715D02*
X116113214Y-113054286D01*
X116113214Y-113054286D02*
X116256071Y-112982857D01*
X116256071Y-112982857D02*
X116613214Y-112982857D01*
X116613214Y-112982857D02*
X116756071Y-113054286D01*
X116756071Y-113054286D02*
X116827500Y-113125715D01*
X116827500Y-113125715D02*
X116898928Y-113268572D01*
X116898928Y-113268572D02*
X116898928Y-113697143D01*
X116898928Y-113697143D02*
X116827500Y-113840000D01*
X116827500Y-113840000D02*
X116756071Y-113911429D01*
X107822857Y-120307857D02*
X107680000Y-120236428D01*
X107680000Y-120236428D02*
X107465714Y-120236428D01*
X107465714Y-120236428D02*
X107251428Y-120307857D01*
X107251428Y-120307857D02*
X107108571Y-120450714D01*
X107108571Y-120450714D02*
X107037142Y-120593571D01*
X107037142Y-120593571D02*
X106965714Y-120879285D01*
X106965714Y-120879285D02*
X106965714Y-121093571D01*
X106965714Y-121093571D02*
X107037142Y-121379285D01*
X107037142Y-121379285D02*
X107108571Y-121522142D01*
X107108571Y-121522142D02*
X107251428Y-121665000D01*
X107251428Y-121665000D02*
X107465714Y-121736428D01*
X107465714Y-121736428D02*
X107608571Y-121736428D01*
X107608571Y-121736428D02*
X107822857Y-121665000D01*
X107822857Y-121665000D02*
X107894285Y-121593571D01*
X107894285Y-121593571D02*
X107894285Y-121093571D01*
X107894285Y-121093571D02*
X107608571Y-121093571D01*
X108537142Y-121736428D02*
X108537142Y-120236428D01*
X108537142Y-120236428D02*
X109394285Y-121736428D01*
X109394285Y-121736428D02*
X109394285Y-120236428D01*
X110108571Y-121736428D02*
X110108571Y-120236428D01*
X110108571Y-120236428D02*
X110465714Y-120236428D01*
X110465714Y-120236428D02*
X110680000Y-120307857D01*
X110680000Y-120307857D02*
X110822857Y-120450714D01*
X110822857Y-120450714D02*
X110894286Y-120593571D01*
X110894286Y-120593571D02*
X110965714Y-120879285D01*
X110965714Y-120879285D02*
X110965714Y-121093571D01*
X110965714Y-121093571D02*
X110894286Y-121379285D01*
X110894286Y-121379285D02*
X110822857Y-121522142D01*
X110822857Y-121522142D02*
X110680000Y-121665000D01*
X110680000Y-121665000D02*
X110465714Y-121736428D01*
X110465714Y-121736428D02*
X110108571Y-121736428D01*
X111965714Y-122236428D02*
X111965714Y-120093571D01*
X112894285Y-120236428D02*
X113822857Y-120236428D01*
X113822857Y-120236428D02*
X113322857Y-120807857D01*
X113322857Y-120807857D02*
X113537142Y-120807857D01*
X113537142Y-120807857D02*
X113680000Y-120879285D01*
X113680000Y-120879285D02*
X113751428Y-120950714D01*
X113751428Y-120950714D02*
X113822857Y-121093571D01*
X113822857Y-121093571D02*
X113822857Y-121450714D01*
X113822857Y-121450714D02*
X113751428Y-121593571D01*
X113751428Y-121593571D02*
X113680000Y-121665000D01*
X113680000Y-121665000D02*
X113537142Y-121736428D01*
X113537142Y-121736428D02*
X113108571Y-121736428D01*
X113108571Y-121736428D02*
X112965714Y-121665000D01*
X112965714Y-121665000D02*
X112894285Y-121593571D01*
X114251428Y-120236428D02*
X114751428Y-121736428D01*
X114751428Y-121736428D02*
X115251428Y-120236428D01*
X115608570Y-120236428D02*
X116537142Y-120236428D01*
X116537142Y-120236428D02*
X116037142Y-120807857D01*
X116037142Y-120807857D02*
X116251427Y-120807857D01*
X116251427Y-120807857D02*
X116394285Y-120879285D01*
X116394285Y-120879285D02*
X116465713Y-120950714D01*
X116465713Y-120950714D02*
X116537142Y-121093571D01*
X116537142Y-121093571D02*
X116537142Y-121450714D01*
X116537142Y-121450714D02*
X116465713Y-121593571D01*
X116465713Y-121593571D02*
X116394285Y-121665000D01*
X116394285Y-121665000D02*
X116251427Y-121736428D01*
X116251427Y-121736428D02*
X115822856Y-121736428D01*
X115822856Y-121736428D02*
X115679999Y-121665000D01*
X115679999Y-121665000D02*
X115608570Y-121593571D01*
X167444928Y-52633714D02*
X166730642Y-53133714D01*
X167444928Y-53490857D02*
X165944928Y-53490857D01*
X165944928Y-53490857D02*
X165944928Y-52919428D01*
X165944928Y-52919428D02*
X166016357Y-52776571D01*
X166016357Y-52776571D02*
X166087785Y-52705142D01*
X166087785Y-52705142D02*
X166230642Y-52633714D01*
X166230642Y-52633714D02*
X166444928Y-52633714D01*
X166444928Y-52633714D02*
X166587785Y-52705142D01*
X166587785Y-52705142D02*
X166659214Y-52776571D01*
X166659214Y-52776571D02*
X166730642Y-52919428D01*
X166730642Y-52919428D02*
X166730642Y-53490857D01*
X165944928Y-52133714D02*
X167444928Y-51133714D01*
X165944928Y-51133714D02*
X167444928Y-52133714D01*
X161118928Y-53379714D02*
X161118928Y-52451142D01*
X161118928Y-52451142D02*
X161690357Y-52951142D01*
X161690357Y-52951142D02*
X161690357Y-52736857D01*
X161690357Y-52736857D02*
X161761785Y-52594000D01*
X161761785Y-52594000D02*
X161833214Y-52522571D01*
X161833214Y-52522571D02*
X161976071Y-52451142D01*
X161976071Y-52451142D02*
X162333214Y-52451142D01*
X162333214Y-52451142D02*
X162476071Y-52522571D01*
X162476071Y-52522571D02*
X162547500Y-52594000D01*
X162547500Y-52594000D02*
X162618928Y-52736857D01*
X162618928Y-52736857D02*
X162618928Y-53165428D01*
X162618928Y-53165428D02*
X162547500Y-53308285D01*
X162547500Y-53308285D02*
X162476071Y-53379714D01*
X161118928Y-52022571D02*
X162618928Y-51522571D01*
X162618928Y-51522571D02*
X161118928Y-51022571D01*
X161118928Y-50665429D02*
X161118928Y-49736857D01*
X161118928Y-49736857D02*
X161690357Y-50236857D01*
X161690357Y-50236857D02*
X161690357Y-50022572D01*
X161690357Y-50022572D02*
X161761785Y-49879715D01*
X161761785Y-49879715D02*
X161833214Y-49808286D01*
X161833214Y-49808286D02*
X161976071Y-49736857D01*
X161976071Y-49736857D02*
X162333214Y-49736857D01*
X162333214Y-49736857D02*
X162476071Y-49808286D01*
X162476071Y-49808286D02*
X162547500Y-49879715D01*
X162547500Y-49879715D02*
X162618928Y-50022572D01*
X162618928Y-50022572D02*
X162618928Y-50451143D01*
X162618928Y-50451143D02*
X162547500Y-50594000D01*
X162547500Y-50594000D02*
X162476071Y-50665429D01*
D11*
X88969372Y-108960341D02*
X89407104Y-108522608D01*
X89407104Y-108522608D02*
X89440776Y-109027685D01*
X89440776Y-109027685D02*
X89541791Y-108926669D01*
X89541791Y-108926669D02*
X89642807Y-108892998D01*
X89642807Y-108892998D02*
X89710150Y-108892998D01*
X89710150Y-108892998D02*
X89811165Y-108926669D01*
X89811165Y-108926669D02*
X89979524Y-109095028D01*
X89979524Y-109095028D02*
X90013196Y-109196043D01*
X90013196Y-109196043D02*
X90013196Y-109263387D01*
X90013196Y-109263387D02*
X89979524Y-109364402D01*
X89979524Y-109364402D02*
X89777494Y-109566433D01*
X89777494Y-109566433D02*
X89676478Y-109600104D01*
X89676478Y-109600104D02*
X89609135Y-109600104D01*
X89609135Y-108320578D02*
X90551944Y-108791982D01*
X90551944Y-108791982D02*
X90080539Y-107849173D01*
X90248898Y-107680814D02*
X90686631Y-107243082D01*
X90686631Y-107243082D02*
X90720303Y-107748158D01*
X90720303Y-107748158D02*
X90821318Y-107647143D01*
X90821318Y-107647143D02*
X90922333Y-107613471D01*
X90922333Y-107613471D02*
X90989677Y-107613471D01*
X90989677Y-107613471D02*
X91090692Y-107647143D01*
X91090692Y-107647143D02*
X91259051Y-107815501D01*
X91259051Y-107815501D02*
X91292723Y-107916517D01*
X91292723Y-107916517D02*
X91292723Y-107983860D01*
X91292723Y-107983860D02*
X91259051Y-108084875D01*
X91259051Y-108084875D02*
X91057020Y-108286906D01*
X91057020Y-108286906D02*
X90956005Y-108320578D01*
X90956005Y-108320578D02*
X90888662Y-108320578D01*
X90027095Y-114762619D02*
X90027095Y-113762619D01*
X90027095Y-113762619D02*
X90598523Y-114762619D01*
X90598523Y-114762619D02*
X90598523Y-113762619D01*
X91646142Y-114667380D02*
X91598523Y-114715000D01*
X91598523Y-114715000D02*
X91455666Y-114762619D01*
X91455666Y-114762619D02*
X91360428Y-114762619D01*
X91360428Y-114762619D02*
X91217571Y-114715000D01*
X91217571Y-114715000D02*
X91122333Y-114619761D01*
X91122333Y-114619761D02*
X91074714Y-114524523D01*
X91074714Y-114524523D02*
X91027095Y-114334047D01*
X91027095Y-114334047D02*
X91027095Y-114191190D01*
X91027095Y-114191190D02*
X91074714Y-114000714D01*
X91074714Y-114000714D02*
X91122333Y-113905476D01*
X91122333Y-113905476D02*
X91217571Y-113810238D01*
X91217571Y-113810238D02*
X91360428Y-113762619D01*
X91360428Y-113762619D02*
X91455666Y-113762619D01*
X91455666Y-113762619D02*
X91598523Y-113810238D01*
X91598523Y-113810238D02*
X91646142Y-113857857D01*
X90030479Y-111791762D02*
X89323373Y-111084655D01*
X89323373Y-111084655D02*
X89491731Y-110916296D01*
X89491731Y-110916296D02*
X89626418Y-110848953D01*
X89626418Y-110848953D02*
X89761105Y-110848953D01*
X89761105Y-110848953D02*
X89862121Y-110882625D01*
X89862121Y-110882625D02*
X90030479Y-110983640D01*
X90030479Y-110983640D02*
X90131495Y-111084655D01*
X90131495Y-111084655D02*
X90232510Y-111253014D01*
X90232510Y-111253014D02*
X90266182Y-111354029D01*
X90266182Y-111354029D02*
X90266182Y-111488716D01*
X90266182Y-111488716D02*
X90198838Y-111623403D01*
X90198838Y-111623403D02*
X90030479Y-111791762D01*
X90737586Y-111084655D02*
X90030479Y-110377548D01*
X90367197Y-110714266D02*
X90771258Y-110310205D01*
X91141647Y-110680594D02*
X90434540Y-109973487D01*
X90670243Y-109737785D02*
X91074304Y-109333724D01*
X91579380Y-110242861D02*
X90872273Y-109535754D01*
X91916098Y-110040831D02*
X92454846Y-109502083D01*
X92555861Y-109266380D02*
X91848754Y-108559273D01*
X91848754Y-108559273D02*
X92017113Y-108390915D01*
X92017113Y-108390915D02*
X92151800Y-108323571D01*
X92151800Y-108323571D02*
X92286487Y-108323571D01*
X92286487Y-108323571D02*
X92387502Y-108357243D01*
X92387502Y-108357243D02*
X92555861Y-108458258D01*
X92555861Y-108458258D02*
X92656876Y-108559273D01*
X92656876Y-108559273D02*
X92757891Y-108727632D01*
X92757891Y-108727632D02*
X92791563Y-108828647D01*
X92791563Y-108828647D02*
X92791563Y-108963334D01*
X92791563Y-108963334D02*
X92724220Y-109098021D01*
X92724220Y-109098021D02*
X92555861Y-109266380D01*
X93027266Y-108390915D02*
X93363983Y-108054197D01*
X93161953Y-108660289D02*
X92690548Y-107717480D01*
X92690548Y-107717480D02*
X93633357Y-108188884D01*
X93060937Y-107347090D02*
X93464998Y-106943029D01*
X93970075Y-107852166D02*
X93262968Y-107145060D01*
X94172105Y-107246075D02*
X94508823Y-106909357D01*
X94306792Y-107515449D02*
X93835388Y-106572640D01*
X93835388Y-106572640D02*
X94778197Y-107044044D01*
D13*
X151823928Y-53617857D02*
X150323928Y-53617857D01*
X150323928Y-53617857D02*
X150323928Y-53260714D01*
X150323928Y-53260714D02*
X150395357Y-53046428D01*
X150395357Y-53046428D02*
X150538214Y-52903571D01*
X150538214Y-52903571D02*
X150681071Y-52832142D01*
X150681071Y-52832142D02*
X150966785Y-52760714D01*
X150966785Y-52760714D02*
X151181071Y-52760714D01*
X151181071Y-52760714D02*
X151466785Y-52832142D01*
X151466785Y-52832142D02*
X151609642Y-52903571D01*
X151609642Y-52903571D02*
X151752500Y-53046428D01*
X151752500Y-53046428D02*
X151823928Y-53260714D01*
X151823928Y-53260714D02*
X151823928Y-53617857D01*
X150466785Y-52189285D02*
X150395357Y-52117857D01*
X150395357Y-52117857D02*
X150323928Y-51975000D01*
X150323928Y-51975000D02*
X150323928Y-51617857D01*
X150323928Y-51617857D02*
X150395357Y-51475000D01*
X150395357Y-51475000D02*
X150466785Y-51403571D01*
X150466785Y-51403571D02*
X150609642Y-51332142D01*
X150609642Y-51332142D02*
X150752500Y-51332142D01*
X150752500Y-51332142D02*
X150966785Y-51403571D01*
X150966785Y-51403571D02*
X151823928Y-52260714D01*
X151823928Y-52260714D02*
X151823928Y-51332142D01*
X150323928Y-50046429D02*
X150323928Y-50332143D01*
X150323928Y-50332143D02*
X150395357Y-50475000D01*
X150395357Y-50475000D02*
X150466785Y-50546429D01*
X150466785Y-50546429D02*
X150681071Y-50689286D01*
X150681071Y-50689286D02*
X150966785Y-50760714D01*
X150966785Y-50760714D02*
X151538214Y-50760714D01*
X151538214Y-50760714D02*
X151681071Y-50689286D01*
X151681071Y-50689286D02*
X151752500Y-50617857D01*
X151752500Y-50617857D02*
X151823928Y-50475000D01*
X151823928Y-50475000D02*
X151823928Y-50189286D01*
X151823928Y-50189286D02*
X151752500Y-50046429D01*
X151752500Y-50046429D02*
X151681071Y-49975000D01*
X151681071Y-49975000D02*
X151538214Y-49903571D01*
X151538214Y-49903571D02*
X151181071Y-49903571D01*
X151181071Y-49903571D02*
X151038214Y-49975000D01*
X151038214Y-49975000D02*
X150966785Y-50046429D01*
X150966785Y-50046429D02*
X150895357Y-50189286D01*
X150895357Y-50189286D02*
X150895357Y-50475000D01*
X150895357Y-50475000D02*
X150966785Y-50617857D01*
X150966785Y-50617857D02*
X151038214Y-50689286D01*
X151038214Y-50689286D02*
X151181071Y-50760714D01*
X158396357Y-52451142D02*
X158324928Y-52594000D01*
X158324928Y-52594000D02*
X158324928Y-52808285D01*
X158324928Y-52808285D02*
X158396357Y-53022571D01*
X158396357Y-53022571D02*
X158539214Y-53165428D01*
X158539214Y-53165428D02*
X158682071Y-53236857D01*
X158682071Y-53236857D02*
X158967785Y-53308285D01*
X158967785Y-53308285D02*
X159182071Y-53308285D01*
X159182071Y-53308285D02*
X159467785Y-53236857D01*
X159467785Y-53236857D02*
X159610642Y-53165428D01*
X159610642Y-53165428D02*
X159753500Y-53022571D01*
X159753500Y-53022571D02*
X159824928Y-52808285D01*
X159824928Y-52808285D02*
X159824928Y-52665428D01*
X159824928Y-52665428D02*
X159753500Y-52451142D01*
X159753500Y-52451142D02*
X159682071Y-52379714D01*
X159682071Y-52379714D02*
X159182071Y-52379714D01*
X159182071Y-52379714D02*
X159182071Y-52665428D01*
X159824928Y-51736857D02*
X158324928Y-51736857D01*
X158324928Y-51736857D02*
X159824928Y-50879714D01*
X159824928Y-50879714D02*
X158324928Y-50879714D01*
X159824928Y-50165428D02*
X158324928Y-50165428D01*
X158324928Y-50165428D02*
X158324928Y-49808285D01*
X158324928Y-49808285D02*
X158396357Y-49593999D01*
X158396357Y-49593999D02*
X158539214Y-49451142D01*
X158539214Y-49451142D02*
X158682071Y-49379713D01*
X158682071Y-49379713D02*
X158967785Y-49308285D01*
X158967785Y-49308285D02*
X159182071Y-49308285D01*
X159182071Y-49308285D02*
X159467785Y-49379713D01*
X159467785Y-49379713D02*
X159610642Y-49451142D01*
X159610642Y-49451142D02*
X159753500Y-49593999D01*
X159753500Y-49593999D02*
X159824928Y-49808285D01*
X159824928Y-49808285D02*
X159824928Y-50165428D01*
X175383809Y-104361428D02*
X176126666Y-104361428D01*
X175755238Y-105861428D02*
X175755238Y-104361428D01*
X177055237Y-105790000D02*
X176931428Y-105861428D01*
X176931428Y-105861428D02*
X176683809Y-105861428D01*
X176683809Y-105861428D02*
X176559999Y-105790000D01*
X176559999Y-105790000D02*
X176498095Y-105647142D01*
X176498095Y-105647142D02*
X176498095Y-105075714D01*
X176498095Y-105075714D02*
X176559999Y-104932857D01*
X176559999Y-104932857D02*
X176683809Y-104861428D01*
X176683809Y-104861428D02*
X176931428Y-104861428D01*
X176931428Y-104861428D02*
X177055237Y-104932857D01*
X177055237Y-104932857D02*
X177117142Y-105075714D01*
X177117142Y-105075714D02*
X177117142Y-105218571D01*
X177117142Y-105218571D02*
X176498095Y-105361428D01*
X177674285Y-105861428D02*
X177674285Y-104861428D01*
X177674285Y-105004285D02*
X177736190Y-104932857D01*
X177736190Y-104932857D02*
X177860000Y-104861428D01*
X177860000Y-104861428D02*
X178045714Y-104861428D01*
X178045714Y-104861428D02*
X178169523Y-104932857D01*
X178169523Y-104932857D02*
X178231428Y-105075714D01*
X178231428Y-105075714D02*
X178231428Y-105861428D01*
X178231428Y-105075714D02*
X178293333Y-104932857D01*
X178293333Y-104932857D02*
X178417142Y-104861428D01*
X178417142Y-104861428D02*
X178602857Y-104861428D01*
X178602857Y-104861428D02*
X178726666Y-104932857D01*
X178726666Y-104932857D02*
X178788571Y-105075714D01*
X178788571Y-105075714D02*
X178788571Y-105861428D01*
X179407618Y-104861428D02*
X179407618Y-106361428D01*
X179407618Y-104932857D02*
X179531428Y-104861428D01*
X179531428Y-104861428D02*
X179779047Y-104861428D01*
X179779047Y-104861428D02*
X179902856Y-104932857D01*
X179902856Y-104932857D02*
X179964761Y-105004285D01*
X179964761Y-105004285D02*
X180026666Y-105147142D01*
X180026666Y-105147142D02*
X180026666Y-105575714D01*
X180026666Y-105575714D02*
X179964761Y-105718571D01*
X179964761Y-105718571D02*
X179902856Y-105790000D01*
X179902856Y-105790000D02*
X179779047Y-105861428D01*
X179779047Y-105861428D02*
X179531428Y-105861428D01*
X179531428Y-105861428D02*
X179407618Y-105790000D01*
X181512380Y-104861428D02*
X182440951Y-104861428D01*
X181883808Y-104218571D02*
X181512380Y-106147142D01*
X182317141Y-105504285D02*
X181388570Y-105504285D01*
X181945713Y-106147142D02*
X182317141Y-104218571D01*
X183555237Y-105861428D02*
X182812380Y-105861428D01*
X183183808Y-105861428D02*
X183183808Y-104361428D01*
X183183808Y-104361428D02*
X183059999Y-104575714D01*
X183059999Y-104575714D02*
X182936189Y-104718571D01*
X182936189Y-104718571D02*
X182812380Y-104790000D01*
X163404928Y-53451142D02*
X163404928Y-52594000D01*
X164904928Y-53022571D02*
X163404928Y-53022571D01*
X163404928Y-52236857D02*
X164904928Y-51236857D01*
X163404928Y-51236857D02*
X164904928Y-52236857D01*
X139862857Y-118441428D02*
X140720000Y-118441428D01*
X140291428Y-119941428D02*
X140291428Y-118441428D01*
X141434285Y-119941428D02*
X141291428Y-119870000D01*
X141291428Y-119870000D02*
X141219999Y-119798571D01*
X141219999Y-119798571D02*
X141148571Y-119655714D01*
X141148571Y-119655714D02*
X141148571Y-119227142D01*
X141148571Y-119227142D02*
X141219999Y-119084285D01*
X141219999Y-119084285D02*
X141291428Y-119012857D01*
X141291428Y-119012857D02*
X141434285Y-118941428D01*
X141434285Y-118941428D02*
X141648571Y-118941428D01*
X141648571Y-118941428D02*
X141791428Y-119012857D01*
X141791428Y-119012857D02*
X141862857Y-119084285D01*
X141862857Y-119084285D02*
X141934285Y-119227142D01*
X141934285Y-119227142D02*
X141934285Y-119655714D01*
X141934285Y-119655714D02*
X141862857Y-119798571D01*
X141862857Y-119798571D02*
X141791428Y-119870000D01*
X141791428Y-119870000D02*
X141648571Y-119941428D01*
X141648571Y-119941428D02*
X141434285Y-119941428D01*
X137684285Y-122371428D02*
X137684285Y-120871428D01*
X137684285Y-121585714D02*
X138541428Y-121585714D01*
X138541428Y-122371428D02*
X138541428Y-120871428D01*
X139827143Y-122300000D02*
X139684286Y-122371428D01*
X139684286Y-122371428D02*
X139398572Y-122371428D01*
X139398572Y-122371428D02*
X139255714Y-122300000D01*
X139255714Y-122300000D02*
X139184286Y-122157142D01*
X139184286Y-122157142D02*
X139184286Y-121585714D01*
X139184286Y-121585714D02*
X139255714Y-121442857D01*
X139255714Y-121442857D02*
X139398572Y-121371428D01*
X139398572Y-121371428D02*
X139684286Y-121371428D01*
X139684286Y-121371428D02*
X139827143Y-121442857D01*
X139827143Y-121442857D02*
X139898572Y-121585714D01*
X139898572Y-121585714D02*
X139898572Y-121728571D01*
X139898572Y-121728571D02*
X139184286Y-121871428D01*
X141184286Y-122371428D02*
X141184286Y-121585714D01*
X141184286Y-121585714D02*
X141112857Y-121442857D01*
X141112857Y-121442857D02*
X140970000Y-121371428D01*
X140970000Y-121371428D02*
X140684286Y-121371428D01*
X140684286Y-121371428D02*
X140541428Y-121442857D01*
X141184286Y-122300000D02*
X141041428Y-122371428D01*
X141041428Y-122371428D02*
X140684286Y-122371428D01*
X140684286Y-122371428D02*
X140541428Y-122300000D01*
X140541428Y-122300000D02*
X140470000Y-122157142D01*
X140470000Y-122157142D02*
X140470000Y-122014285D01*
X140470000Y-122014285D02*
X140541428Y-121871428D01*
X140541428Y-121871428D02*
X140684286Y-121800000D01*
X140684286Y-121800000D02*
X141041428Y-121800000D01*
X141041428Y-121800000D02*
X141184286Y-121728571D01*
X141684286Y-121371428D02*
X142255714Y-121371428D01*
X141898571Y-120871428D02*
X141898571Y-122157142D01*
X141898571Y-122157142D02*
X141970000Y-122300000D01*
X141970000Y-122300000D02*
X142112857Y-122371428D01*
X142112857Y-122371428D02*
X142255714Y-122371428D01*
X143327143Y-122300000D02*
X143184286Y-122371428D01*
X143184286Y-122371428D02*
X142898572Y-122371428D01*
X142898572Y-122371428D02*
X142755714Y-122300000D01*
X142755714Y-122300000D02*
X142684286Y-122157142D01*
X142684286Y-122157142D02*
X142684286Y-121585714D01*
X142684286Y-121585714D02*
X142755714Y-121442857D01*
X142755714Y-121442857D02*
X142898572Y-121371428D01*
X142898572Y-121371428D02*
X143184286Y-121371428D01*
X143184286Y-121371428D02*
X143327143Y-121442857D01*
X143327143Y-121442857D02*
X143398572Y-121585714D01*
X143398572Y-121585714D02*
X143398572Y-121728571D01*
X143398572Y-121728571D02*
X142684286Y-121871428D01*
X144041428Y-122371428D02*
X144041428Y-121371428D01*
X144041428Y-121657142D02*
X144112857Y-121514285D01*
X144112857Y-121514285D02*
X144184286Y-121442857D01*
X144184286Y-121442857D02*
X144327143Y-121371428D01*
X144327143Y-121371428D02*
X144470000Y-121371428D01*
X113778928Y-107152142D02*
X112278928Y-107152142D01*
X112278928Y-107152142D02*
X112278928Y-106794999D01*
X112278928Y-106794999D02*
X112350357Y-106580713D01*
X112350357Y-106580713D02*
X112493214Y-106437856D01*
X112493214Y-106437856D02*
X112636071Y-106366427D01*
X112636071Y-106366427D02*
X112921785Y-106294999D01*
X112921785Y-106294999D02*
X113136071Y-106294999D01*
X113136071Y-106294999D02*
X113421785Y-106366427D01*
X113421785Y-106366427D02*
X113564642Y-106437856D01*
X113564642Y-106437856D02*
X113707500Y-106580713D01*
X113707500Y-106580713D02*
X113778928Y-106794999D01*
X113778928Y-106794999D02*
X113778928Y-107152142D01*
X112278928Y-104937856D02*
X112278928Y-105652142D01*
X112278928Y-105652142D02*
X112993214Y-105723570D01*
X112993214Y-105723570D02*
X112921785Y-105652142D01*
X112921785Y-105652142D02*
X112850357Y-105509285D01*
X112850357Y-105509285D02*
X112850357Y-105152142D01*
X112850357Y-105152142D02*
X112921785Y-105009285D01*
X112921785Y-105009285D02*
X112993214Y-104937856D01*
X112993214Y-104937856D02*
X113136071Y-104866427D01*
X113136071Y-104866427D02*
X113493214Y-104866427D01*
X113493214Y-104866427D02*
X113636071Y-104937856D01*
X113636071Y-104937856D02*
X113707500Y-105009285D01*
X113707500Y-105009285D02*
X113778928Y-105152142D01*
X113778928Y-105152142D02*
X113778928Y-105509285D01*
X113778928Y-105509285D02*
X113707500Y-105652142D01*
X113707500Y-105652142D02*
X113636071Y-105723570D01*
X114780357Y-107544999D02*
X114708928Y-107687857D01*
X114708928Y-107687857D02*
X114708928Y-107902142D01*
X114708928Y-107902142D02*
X114780357Y-108116428D01*
X114780357Y-108116428D02*
X114923214Y-108259285D01*
X114923214Y-108259285D02*
X115066071Y-108330714D01*
X115066071Y-108330714D02*
X115351785Y-108402142D01*
X115351785Y-108402142D02*
X115566071Y-108402142D01*
X115566071Y-108402142D02*
X115851785Y-108330714D01*
X115851785Y-108330714D02*
X115994642Y-108259285D01*
X115994642Y-108259285D02*
X116137500Y-108116428D01*
X116137500Y-108116428D02*
X116208928Y-107902142D01*
X116208928Y-107902142D02*
X116208928Y-107759285D01*
X116208928Y-107759285D02*
X116137500Y-107544999D01*
X116137500Y-107544999D02*
X116066071Y-107473571D01*
X116066071Y-107473571D02*
X115566071Y-107473571D01*
X115566071Y-107473571D02*
X115566071Y-107759285D01*
X116208928Y-106830714D02*
X114708928Y-106830714D01*
X114708928Y-106830714D02*
X114708928Y-106259285D01*
X114708928Y-106259285D02*
X114780357Y-106116428D01*
X114780357Y-106116428D02*
X114851785Y-106044999D01*
X114851785Y-106044999D02*
X114994642Y-105973571D01*
X114994642Y-105973571D02*
X115208928Y-105973571D01*
X115208928Y-105973571D02*
X115351785Y-106044999D01*
X115351785Y-106044999D02*
X115423214Y-106116428D01*
X115423214Y-106116428D02*
X115494642Y-106259285D01*
X115494642Y-106259285D02*
X115494642Y-106830714D01*
X116208928Y-105330714D02*
X114708928Y-105330714D01*
X114708928Y-104330713D02*
X114708928Y-104044999D01*
X114708928Y-104044999D02*
X114780357Y-103902142D01*
X114780357Y-103902142D02*
X114923214Y-103759285D01*
X114923214Y-103759285D02*
X115208928Y-103687856D01*
X115208928Y-103687856D02*
X115708928Y-103687856D01*
X115708928Y-103687856D02*
X115994642Y-103759285D01*
X115994642Y-103759285D02*
X116137500Y-103902142D01*
X116137500Y-103902142D02*
X116208928Y-104044999D01*
X116208928Y-104044999D02*
X116208928Y-104330713D01*
X116208928Y-104330713D02*
X116137500Y-104473571D01*
X116137500Y-104473571D02*
X115994642Y-104616428D01*
X115994642Y-104616428D02*
X115708928Y-104687856D01*
X115708928Y-104687856D02*
X115208928Y-104687856D01*
X115208928Y-104687856D02*
X114923214Y-104616428D01*
X114923214Y-104616428D02*
X114780357Y-104473571D01*
X114780357Y-104473571D02*
X114708928Y-104330713D01*
D14*
X126780000Y-128011523D02*
X126827619Y-127868666D01*
X126827619Y-127868666D02*
X126827619Y-127630571D01*
X126827619Y-127630571D02*
X126780000Y-127535333D01*
X126780000Y-127535333D02*
X126732380Y-127487714D01*
X126732380Y-127487714D02*
X126637142Y-127440095D01*
X126637142Y-127440095D02*
X126541904Y-127440095D01*
X126541904Y-127440095D02*
X126446666Y-127487714D01*
X126446666Y-127487714D02*
X126399047Y-127535333D01*
X126399047Y-127535333D02*
X126351428Y-127630571D01*
X126351428Y-127630571D02*
X126303809Y-127821047D01*
X126303809Y-127821047D02*
X126256190Y-127916285D01*
X126256190Y-127916285D02*
X126208571Y-127963904D01*
X126208571Y-127963904D02*
X126113333Y-128011523D01*
X126113333Y-128011523D02*
X126018095Y-128011523D01*
X126018095Y-128011523D02*
X125922857Y-127963904D01*
X125922857Y-127963904D02*
X125875238Y-127916285D01*
X125875238Y-127916285D02*
X125827619Y-127821047D01*
X125827619Y-127821047D02*
X125827619Y-127582952D01*
X125827619Y-127582952D02*
X125875238Y-127440095D01*
X126827619Y-127011523D02*
X125827619Y-127011523D01*
X125827619Y-126678190D02*
X125827619Y-126106762D01*
X126827619Y-126392476D02*
X125827619Y-126392476D01*
X127160952Y-124773428D02*
X125732380Y-124773428D01*
X126303809Y-122963904D02*
X126303809Y-123297237D01*
X126827619Y-123297237D02*
X125827619Y-123297237D01*
X125827619Y-123297237D02*
X125827619Y-122821047D01*
X126827619Y-121963904D02*
X126827619Y-122440094D01*
X126827619Y-122440094D02*
X125827619Y-122440094D01*
X126351428Y-121440094D02*
X126827619Y-121440094D01*
X125827619Y-121773427D02*
X126351428Y-121440094D01*
X126351428Y-121440094D02*
X125827619Y-121106761D01*
X127208571Y-119725808D02*
X127160952Y-119773427D01*
X127160952Y-119773427D02*
X127018095Y-119868665D01*
X127018095Y-119868665D02*
X126922857Y-119916284D01*
X126922857Y-119916284D02*
X126780000Y-119963903D01*
X126780000Y-119963903D02*
X126541904Y-120011522D01*
X126541904Y-120011522D02*
X126351428Y-120011522D01*
X126351428Y-120011522D02*
X126113333Y-119963903D01*
X126113333Y-119963903D02*
X125970476Y-119916284D01*
X125970476Y-119916284D02*
X125875238Y-119868665D01*
X125875238Y-119868665D02*
X125732380Y-119773427D01*
X125732380Y-119773427D02*
X125684761Y-119725808D01*
X126827619Y-118773427D02*
X126351428Y-119106760D01*
X126827619Y-119344855D02*
X125827619Y-119344855D01*
X125827619Y-119344855D02*
X125827619Y-118963903D01*
X125827619Y-118963903D02*
X125875238Y-118868665D01*
X125875238Y-118868665D02*
X125922857Y-118821046D01*
X125922857Y-118821046D02*
X126018095Y-118773427D01*
X126018095Y-118773427D02*
X126160952Y-118773427D01*
X126160952Y-118773427D02*
X126256190Y-118821046D01*
X126256190Y-118821046D02*
X126303809Y-118868665D01*
X126303809Y-118868665D02*
X126351428Y-118963903D01*
X126351428Y-118963903D02*
X126351428Y-119344855D01*
X125827619Y-118487712D02*
X125827619Y-117916284D01*
X126827619Y-118201998D02*
X125827619Y-118201998D01*
X126303809Y-117249617D02*
X126303809Y-117582950D01*
X126827619Y-117582950D02*
X125827619Y-117582950D01*
X125827619Y-117582950D02*
X125827619Y-117106760D01*
X127208571Y-116821045D02*
X127160952Y-116773426D01*
X127160952Y-116773426D02*
X127018095Y-116678188D01*
X127018095Y-116678188D02*
X126922857Y-116630569D01*
X126922857Y-116630569D02*
X126780000Y-116582950D01*
X126780000Y-116582950D02*
X126541904Y-116535331D01*
X126541904Y-116535331D02*
X126351428Y-116535331D01*
X126351428Y-116535331D02*
X126113333Y-116582950D01*
X126113333Y-116582950D02*
X125970476Y-116630569D01*
X125970476Y-116630569D02*
X125875238Y-116678188D01*
X125875238Y-116678188D02*
X125732380Y-116773426D01*
X125732380Y-116773426D02*
X125684761Y-116821045D01*
D13*
X93217857Y-120307857D02*
X93075000Y-120236428D01*
X93075000Y-120236428D02*
X92860714Y-120236428D01*
X92860714Y-120236428D02*
X92646428Y-120307857D01*
X92646428Y-120307857D02*
X92503571Y-120450714D01*
X92503571Y-120450714D02*
X92432142Y-120593571D01*
X92432142Y-120593571D02*
X92360714Y-120879285D01*
X92360714Y-120879285D02*
X92360714Y-121093571D01*
X92360714Y-121093571D02*
X92432142Y-121379285D01*
X92432142Y-121379285D02*
X92503571Y-121522142D01*
X92503571Y-121522142D02*
X92646428Y-121665000D01*
X92646428Y-121665000D02*
X92860714Y-121736428D01*
X92860714Y-121736428D02*
X93003571Y-121736428D01*
X93003571Y-121736428D02*
X93217857Y-121665000D01*
X93217857Y-121665000D02*
X93289285Y-121593571D01*
X93289285Y-121593571D02*
X93289285Y-121093571D01*
X93289285Y-121093571D02*
X93003571Y-121093571D01*
X93932142Y-121736428D02*
X93932142Y-120236428D01*
X93932142Y-120236428D02*
X94789285Y-121736428D01*
X94789285Y-121736428D02*
X94789285Y-120236428D01*
X95503571Y-121736428D02*
X95503571Y-120236428D01*
X95503571Y-120236428D02*
X95860714Y-120236428D01*
X95860714Y-120236428D02*
X96075000Y-120307857D01*
X96075000Y-120307857D02*
X96217857Y-120450714D01*
X96217857Y-120450714D02*
X96289286Y-120593571D01*
X96289286Y-120593571D02*
X96360714Y-120879285D01*
X96360714Y-120879285D02*
X96360714Y-121093571D01*
X96360714Y-121093571D02*
X96289286Y-121379285D01*
X96289286Y-121379285D02*
X96217857Y-121522142D01*
X96217857Y-121522142D02*
X96075000Y-121665000D01*
X96075000Y-121665000D02*
X95860714Y-121736428D01*
X95860714Y-121736428D02*
X95503571Y-121736428D01*
X97360714Y-122236428D02*
X97360714Y-120093571D01*
X98217857Y-120236428D02*
X98717857Y-121736428D01*
X98717857Y-121736428D02*
X99217857Y-120236428D01*
X99360714Y-121879285D02*
X100503571Y-121879285D01*
X101360713Y-120950714D02*
X101574999Y-121022142D01*
X101574999Y-121022142D02*
X101646428Y-121093571D01*
X101646428Y-121093571D02*
X101717856Y-121236428D01*
X101717856Y-121236428D02*
X101717856Y-121450714D01*
X101717856Y-121450714D02*
X101646428Y-121593571D01*
X101646428Y-121593571D02*
X101574999Y-121665000D01*
X101574999Y-121665000D02*
X101432142Y-121736428D01*
X101432142Y-121736428D02*
X100860713Y-121736428D01*
X100860713Y-121736428D02*
X100860713Y-120236428D01*
X100860713Y-120236428D02*
X101360713Y-120236428D01*
X101360713Y-120236428D02*
X101503571Y-120307857D01*
X101503571Y-120307857D02*
X101574999Y-120379285D01*
X101574999Y-120379285D02*
X101646428Y-120522142D01*
X101646428Y-120522142D02*
X101646428Y-120665000D01*
X101646428Y-120665000D02*
X101574999Y-120807857D01*
X101574999Y-120807857D02*
X101503571Y-120879285D01*
X101503571Y-120879285D02*
X101360713Y-120950714D01*
X101360713Y-120950714D02*
X100860713Y-120950714D01*
X102289285Y-121307857D02*
X103003571Y-121307857D01*
X102146428Y-121736428D02*
X102646428Y-120236428D01*
X102646428Y-120236428D02*
X103146428Y-121736428D01*
X103432142Y-120236428D02*
X104289285Y-120236428D01*
X103860713Y-121736428D02*
X103860713Y-120236428D01*
X104574999Y-120236428D02*
X105432142Y-120236428D01*
X105003570Y-121736428D02*
X105003570Y-120236428D01*
D15*
X162718095Y-80512619D02*
X162718095Y-81322142D01*
X162718095Y-81322142D02*
X162765714Y-81417380D01*
X162765714Y-81417380D02*
X162813333Y-81465000D01*
X162813333Y-81465000D02*
X162908571Y-81512619D01*
X162908571Y-81512619D02*
X163099047Y-81512619D01*
X163099047Y-81512619D02*
X163194285Y-81465000D01*
X163194285Y-81465000D02*
X163241904Y-81417380D01*
X163241904Y-81417380D02*
X163289523Y-81322142D01*
X163289523Y-81322142D02*
X163289523Y-80512619D01*
X163718095Y-80607857D02*
X163765714Y-80560238D01*
X163765714Y-80560238D02*
X163860952Y-80512619D01*
X163860952Y-80512619D02*
X164099047Y-80512619D01*
X164099047Y-80512619D02*
X164194285Y-80560238D01*
X164194285Y-80560238D02*
X164241904Y-80607857D01*
X164241904Y-80607857D02*
X164289523Y-80703095D01*
X164289523Y-80703095D02*
X164289523Y-80798333D01*
X164289523Y-80798333D02*
X164241904Y-80941190D01*
X164241904Y-80941190D02*
X163670476Y-81512619D01*
X163670476Y-81512619D02*
X164289523Y-81512619D01*
X155337142Y-76567380D02*
X155289523Y-76615000D01*
X155289523Y-76615000D02*
X155146666Y-76662619D01*
X155146666Y-76662619D02*
X155051428Y-76662619D01*
X155051428Y-76662619D02*
X154908571Y-76615000D01*
X154908571Y-76615000D02*
X154813333Y-76519761D01*
X154813333Y-76519761D02*
X154765714Y-76424523D01*
X154765714Y-76424523D02*
X154718095Y-76234047D01*
X154718095Y-76234047D02*
X154718095Y-76091190D01*
X154718095Y-76091190D02*
X154765714Y-75900714D01*
X154765714Y-75900714D02*
X154813333Y-75805476D01*
X154813333Y-75805476D02*
X154908571Y-75710238D01*
X154908571Y-75710238D02*
X155051428Y-75662619D01*
X155051428Y-75662619D02*
X155146666Y-75662619D01*
X155146666Y-75662619D02*
X155289523Y-75710238D01*
X155289523Y-75710238D02*
X155337142Y-75757857D01*
X155718095Y-76615000D02*
X155860952Y-76662619D01*
X155860952Y-76662619D02*
X156099047Y-76662619D01*
X156099047Y-76662619D02*
X156194285Y-76615000D01*
X156194285Y-76615000D02*
X156241904Y-76567380D01*
X156241904Y-76567380D02*
X156289523Y-76472142D01*
X156289523Y-76472142D02*
X156289523Y-76376904D01*
X156289523Y-76376904D02*
X156241904Y-76281666D01*
X156241904Y-76281666D02*
X156194285Y-76234047D01*
X156194285Y-76234047D02*
X156099047Y-76186428D01*
X156099047Y-76186428D02*
X155908571Y-76138809D01*
X155908571Y-76138809D02*
X155813333Y-76091190D01*
X155813333Y-76091190D02*
X155765714Y-76043571D01*
X155765714Y-76043571D02*
X155718095Y-75948333D01*
X155718095Y-75948333D02*
X155718095Y-75853095D01*
X155718095Y-75853095D02*
X155765714Y-75757857D01*
X155765714Y-75757857D02*
X155813333Y-75710238D01*
X155813333Y-75710238D02*
X155908571Y-75662619D01*
X155908571Y-75662619D02*
X156146666Y-75662619D01*
X156146666Y-75662619D02*
X156289523Y-75710238D01*
X157051428Y-76138809D02*
X157194285Y-76186428D01*
X157194285Y-76186428D02*
X157241904Y-76234047D01*
X157241904Y-76234047D02*
X157289523Y-76329285D01*
X157289523Y-76329285D02*
X157289523Y-76472142D01*
X157289523Y-76472142D02*
X157241904Y-76567380D01*
X157241904Y-76567380D02*
X157194285Y-76615000D01*
X157194285Y-76615000D02*
X157099047Y-76662619D01*
X157099047Y-76662619D02*
X156718095Y-76662619D01*
X156718095Y-76662619D02*
X156718095Y-75662619D01*
X156718095Y-75662619D02*
X157051428Y-75662619D01*
X157051428Y-75662619D02*
X157146666Y-75710238D01*
X157146666Y-75710238D02*
X157194285Y-75757857D01*
X157194285Y-75757857D02*
X157241904Y-75853095D01*
X157241904Y-75853095D02*
X157241904Y-75948333D01*
X157241904Y-75948333D02*
X157194285Y-76043571D01*
X157194285Y-76043571D02*
X157146666Y-76091190D01*
X157146666Y-76091190D02*
X157051428Y-76138809D01*
X157051428Y-76138809D02*
X156718095Y-76138809D01*
X154908571Y-71535000D02*
X155051428Y-71582619D01*
X155051428Y-71582619D02*
X155289523Y-71582619D01*
X155289523Y-71582619D02*
X155384761Y-71535000D01*
X155384761Y-71535000D02*
X155432380Y-71487380D01*
X155432380Y-71487380D02*
X155479999Y-71392142D01*
X155479999Y-71392142D02*
X155479999Y-71296904D01*
X155479999Y-71296904D02*
X155432380Y-71201666D01*
X155432380Y-71201666D02*
X155384761Y-71154047D01*
X155384761Y-71154047D02*
X155289523Y-71106428D01*
X155289523Y-71106428D02*
X155099047Y-71058809D01*
X155099047Y-71058809D02*
X155003809Y-71011190D01*
X155003809Y-71011190D02*
X154956190Y-70963571D01*
X154956190Y-70963571D02*
X154908571Y-70868333D01*
X154908571Y-70868333D02*
X154908571Y-70773095D01*
X154908571Y-70773095D02*
X154956190Y-70677857D01*
X154956190Y-70677857D02*
X155003809Y-70630238D01*
X155003809Y-70630238D02*
X155099047Y-70582619D01*
X155099047Y-70582619D02*
X155337142Y-70582619D01*
X155337142Y-70582619D02*
X155479999Y-70630238D01*
X156479999Y-71487380D02*
X156432380Y-71535000D01*
X156432380Y-71535000D02*
X156289523Y-71582619D01*
X156289523Y-71582619D02*
X156194285Y-71582619D01*
X156194285Y-71582619D02*
X156051428Y-71535000D01*
X156051428Y-71535000D02*
X155956190Y-71439761D01*
X155956190Y-71439761D02*
X155908571Y-71344523D01*
X155908571Y-71344523D02*
X155860952Y-71154047D01*
X155860952Y-71154047D02*
X155860952Y-71011190D01*
X155860952Y-71011190D02*
X155908571Y-70820714D01*
X155908571Y-70820714D02*
X155956190Y-70725476D01*
X155956190Y-70725476D02*
X156051428Y-70630238D01*
X156051428Y-70630238D02*
X156194285Y-70582619D01*
X156194285Y-70582619D02*
X156289523Y-70582619D01*
X156289523Y-70582619D02*
X156432380Y-70630238D01*
X156432380Y-70630238D02*
X156479999Y-70677857D01*
X157384761Y-71582619D02*
X156908571Y-71582619D01*
X156908571Y-71582619D02*
X156908571Y-70582619D01*
X154860952Y-74075000D02*
X155003809Y-74122619D01*
X155003809Y-74122619D02*
X155241904Y-74122619D01*
X155241904Y-74122619D02*
X155337142Y-74075000D01*
X155337142Y-74075000D02*
X155384761Y-74027380D01*
X155384761Y-74027380D02*
X155432380Y-73932142D01*
X155432380Y-73932142D02*
X155432380Y-73836904D01*
X155432380Y-73836904D02*
X155384761Y-73741666D01*
X155384761Y-73741666D02*
X155337142Y-73694047D01*
X155337142Y-73694047D02*
X155241904Y-73646428D01*
X155241904Y-73646428D02*
X155051428Y-73598809D01*
X155051428Y-73598809D02*
X154956190Y-73551190D01*
X154956190Y-73551190D02*
X154908571Y-73503571D01*
X154908571Y-73503571D02*
X154860952Y-73408333D01*
X154860952Y-73408333D02*
X154860952Y-73313095D01*
X154860952Y-73313095D02*
X154908571Y-73217857D01*
X154908571Y-73217857D02*
X154956190Y-73170238D01*
X154956190Y-73170238D02*
X155051428Y-73122619D01*
X155051428Y-73122619D02*
X155289523Y-73122619D01*
X155289523Y-73122619D02*
X155432380Y-73170238D01*
X155860952Y-74122619D02*
X155860952Y-73122619D01*
X155860952Y-73122619D02*
X156099047Y-73122619D01*
X156099047Y-73122619D02*
X156241904Y-73170238D01*
X156241904Y-73170238D02*
X156337142Y-73265476D01*
X156337142Y-73265476D02*
X156384761Y-73360714D01*
X156384761Y-73360714D02*
X156432380Y-73551190D01*
X156432380Y-73551190D02*
X156432380Y-73694047D01*
X156432380Y-73694047D02*
X156384761Y-73884523D01*
X156384761Y-73884523D02*
X156337142Y-73979761D01*
X156337142Y-73979761D02*
X156241904Y-74075000D01*
X156241904Y-74075000D02*
X156099047Y-74122619D01*
X156099047Y-74122619D02*
X155860952Y-74122619D01*
X156813333Y-73836904D02*
X157289523Y-73836904D01*
X156718095Y-74122619D02*
X157051428Y-73122619D01*
X157051428Y-73122619D02*
X157384761Y-74122619D01*
X154765714Y-79155000D02*
X154908571Y-79202619D01*
X154908571Y-79202619D02*
X155146666Y-79202619D01*
X155146666Y-79202619D02*
X155241904Y-79155000D01*
X155241904Y-79155000D02*
X155289523Y-79107380D01*
X155289523Y-79107380D02*
X155337142Y-79012142D01*
X155337142Y-79012142D02*
X155337142Y-78916904D01*
X155337142Y-78916904D02*
X155289523Y-78821666D01*
X155289523Y-78821666D02*
X155241904Y-78774047D01*
X155241904Y-78774047D02*
X155146666Y-78726428D01*
X155146666Y-78726428D02*
X154956190Y-78678809D01*
X154956190Y-78678809D02*
X154860952Y-78631190D01*
X154860952Y-78631190D02*
X154813333Y-78583571D01*
X154813333Y-78583571D02*
X154765714Y-78488333D01*
X154765714Y-78488333D02*
X154765714Y-78393095D01*
X154765714Y-78393095D02*
X154813333Y-78297857D01*
X154813333Y-78297857D02*
X154860952Y-78250238D01*
X154860952Y-78250238D02*
X154956190Y-78202619D01*
X154956190Y-78202619D02*
X155194285Y-78202619D01*
X155194285Y-78202619D02*
X155337142Y-78250238D01*
X155765714Y-79202619D02*
X155765714Y-78202619D01*
X155765714Y-78202619D02*
X156003809Y-78202619D01*
X156003809Y-78202619D02*
X156146666Y-78250238D01*
X156146666Y-78250238D02*
X156241904Y-78345476D01*
X156241904Y-78345476D02*
X156289523Y-78440714D01*
X156289523Y-78440714D02*
X156337142Y-78631190D01*
X156337142Y-78631190D02*
X156337142Y-78774047D01*
X156337142Y-78774047D02*
X156289523Y-78964523D01*
X156289523Y-78964523D02*
X156241904Y-79059761D01*
X156241904Y-79059761D02*
X156146666Y-79155000D01*
X156146666Y-79155000D02*
X156003809Y-79202619D01*
X156003809Y-79202619D02*
X155765714Y-79202619D01*
X156956190Y-78202619D02*
X157051428Y-78202619D01*
X157051428Y-78202619D02*
X157146666Y-78250238D01*
X157146666Y-78250238D02*
X157194285Y-78297857D01*
X157194285Y-78297857D02*
X157241904Y-78393095D01*
X157241904Y-78393095D02*
X157289523Y-78583571D01*
X157289523Y-78583571D02*
X157289523Y-78821666D01*
X157289523Y-78821666D02*
X157241904Y-79012142D01*
X157241904Y-79012142D02*
X157194285Y-79107380D01*
X157194285Y-79107380D02*
X157146666Y-79155000D01*
X157146666Y-79155000D02*
X157051428Y-79202619D01*
X157051428Y-79202619D02*
X156956190Y-79202619D01*
X156956190Y-79202619D02*
X156860952Y-79155000D01*
X156860952Y-79155000D02*
X156813333Y-79107380D01*
X156813333Y-79107380D02*
X156765714Y-79012142D01*
X156765714Y-79012142D02*
X156718095Y-78821666D01*
X156718095Y-78821666D02*
X156718095Y-78583571D01*
X156718095Y-78583571D02*
X156765714Y-78393095D01*
X156765714Y-78393095D02*
X156813333Y-78297857D01*
X156813333Y-78297857D02*
X156860952Y-78250238D01*
X156860952Y-78250238D02*
X156956190Y-78202619D01*
X154718095Y-65502619D02*
X155051428Y-66502619D01*
X155051428Y-66502619D02*
X155384761Y-65502619D01*
X156289523Y-66407380D02*
X156241904Y-66455000D01*
X156241904Y-66455000D02*
X156099047Y-66502619D01*
X156099047Y-66502619D02*
X156003809Y-66502619D01*
X156003809Y-66502619D02*
X155860952Y-66455000D01*
X155860952Y-66455000D02*
X155765714Y-66359761D01*
X155765714Y-66359761D02*
X155718095Y-66264523D01*
X155718095Y-66264523D02*
X155670476Y-66074047D01*
X155670476Y-66074047D02*
X155670476Y-65931190D01*
X155670476Y-65931190D02*
X155718095Y-65740714D01*
X155718095Y-65740714D02*
X155765714Y-65645476D01*
X155765714Y-65645476D02*
X155860952Y-65550238D01*
X155860952Y-65550238D02*
X156003809Y-65502619D01*
X156003809Y-65502619D02*
X156099047Y-65502619D01*
X156099047Y-65502619D02*
X156241904Y-65550238D01*
X156241904Y-65550238D02*
X156289523Y-65597857D01*
X157289523Y-66407380D02*
X157241904Y-66455000D01*
X157241904Y-66455000D02*
X157099047Y-66502619D01*
X157099047Y-66502619D02*
X157003809Y-66502619D01*
X157003809Y-66502619D02*
X156860952Y-66455000D01*
X156860952Y-66455000D02*
X156765714Y-66359761D01*
X156765714Y-66359761D02*
X156718095Y-66264523D01*
X156718095Y-66264523D02*
X156670476Y-66074047D01*
X156670476Y-66074047D02*
X156670476Y-65931190D01*
X156670476Y-65931190D02*
X156718095Y-65740714D01*
X156718095Y-65740714D02*
X156765714Y-65645476D01*
X156765714Y-65645476D02*
X156860952Y-65550238D01*
X156860952Y-65550238D02*
X157003809Y-65502619D01*
X157003809Y-65502619D02*
X157099047Y-65502619D01*
X157099047Y-65502619D02*
X157241904Y-65550238D01*
X157241904Y-65550238D02*
X157289523Y-65597857D01*
X155194285Y-68090238D02*
X155099047Y-68042619D01*
X155099047Y-68042619D02*
X154956190Y-68042619D01*
X154956190Y-68042619D02*
X154813333Y-68090238D01*
X154813333Y-68090238D02*
X154718095Y-68185476D01*
X154718095Y-68185476D02*
X154670476Y-68280714D01*
X154670476Y-68280714D02*
X154622857Y-68471190D01*
X154622857Y-68471190D02*
X154622857Y-68614047D01*
X154622857Y-68614047D02*
X154670476Y-68804523D01*
X154670476Y-68804523D02*
X154718095Y-68899761D01*
X154718095Y-68899761D02*
X154813333Y-68995000D01*
X154813333Y-68995000D02*
X154956190Y-69042619D01*
X154956190Y-69042619D02*
X155051428Y-69042619D01*
X155051428Y-69042619D02*
X155194285Y-68995000D01*
X155194285Y-68995000D02*
X155241904Y-68947380D01*
X155241904Y-68947380D02*
X155241904Y-68614047D01*
X155241904Y-68614047D02*
X155051428Y-68614047D01*
X155670476Y-69042619D02*
X155670476Y-68042619D01*
X155670476Y-68042619D02*
X156241904Y-69042619D01*
X156241904Y-69042619D02*
X156241904Y-68042619D01*
X156718095Y-69042619D02*
X156718095Y-68042619D01*
X156718095Y-68042619D02*
X156956190Y-68042619D01*
X156956190Y-68042619D02*
X157099047Y-68090238D01*
X157099047Y-68090238D02*
X157194285Y-68185476D01*
X157194285Y-68185476D02*
X157241904Y-68280714D01*
X157241904Y-68280714D02*
X157289523Y-68471190D01*
X157289523Y-68471190D02*
X157289523Y-68614047D01*
X157289523Y-68614047D02*
X157241904Y-68804523D01*
X157241904Y-68804523D02*
X157194285Y-68899761D01*
X157194285Y-68899761D02*
X157099047Y-68995000D01*
X157099047Y-68995000D02*
X156956190Y-69042619D01*
X156956190Y-69042619D02*
X156718095Y-69042619D01*
D11*
X168755833Y-102972619D02*
X168422500Y-102496428D01*
X168184405Y-102972619D02*
X168184405Y-101972619D01*
X168184405Y-101972619D02*
X168565357Y-101972619D01*
X168565357Y-101972619D02*
X168660595Y-102020238D01*
X168660595Y-102020238D02*
X168708214Y-102067857D01*
X168708214Y-102067857D02*
X168755833Y-102163095D01*
X168755833Y-102163095D02*
X168755833Y-102305952D01*
X168755833Y-102305952D02*
X168708214Y-102401190D01*
X168708214Y-102401190D02*
X168660595Y-102448809D01*
X168660595Y-102448809D02*
X168565357Y-102496428D01*
X168565357Y-102496428D02*
X168184405Y-102496428D01*
X169136786Y-102067857D02*
X169184405Y-102020238D01*
X169184405Y-102020238D02*
X169279643Y-101972619D01*
X169279643Y-101972619D02*
X169517738Y-101972619D01*
X169517738Y-101972619D02*
X169612976Y-102020238D01*
X169612976Y-102020238D02*
X169660595Y-102067857D01*
X169660595Y-102067857D02*
X169708214Y-102163095D01*
X169708214Y-102163095D02*
X169708214Y-102258333D01*
X169708214Y-102258333D02*
X169660595Y-102401190D01*
X169660595Y-102401190D02*
X169089167Y-102972619D01*
X169089167Y-102972619D02*
X169708214Y-102972619D01*
X165848333Y-60872619D02*
X165515000Y-60396428D01*
X165276905Y-60872619D02*
X165276905Y-59872619D01*
X165276905Y-59872619D02*
X165657857Y-59872619D01*
X165657857Y-59872619D02*
X165753095Y-59920238D01*
X165753095Y-59920238D02*
X165800714Y-59967857D01*
X165800714Y-59967857D02*
X165848333Y-60063095D01*
X165848333Y-60063095D02*
X165848333Y-60205952D01*
X165848333Y-60205952D02*
X165800714Y-60301190D01*
X165800714Y-60301190D02*
X165753095Y-60348809D01*
X165753095Y-60348809D02*
X165657857Y-60396428D01*
X165657857Y-60396428D02*
X165276905Y-60396428D01*
X166181667Y-59872619D02*
X166848333Y-59872619D01*
X166848333Y-59872619D02*
X166419762Y-60872619D01*
X98104405Y-113577619D02*
X98104405Y-112577619D01*
X98104405Y-112577619D02*
X98342500Y-112577619D01*
X98342500Y-112577619D02*
X98485357Y-112625238D01*
X98485357Y-112625238D02*
X98580595Y-112720476D01*
X98580595Y-112720476D02*
X98628214Y-112815714D01*
X98628214Y-112815714D02*
X98675833Y-113006190D01*
X98675833Y-113006190D02*
X98675833Y-113149047D01*
X98675833Y-113149047D02*
X98628214Y-113339523D01*
X98628214Y-113339523D02*
X98580595Y-113434761D01*
X98580595Y-113434761D02*
X98485357Y-113530000D01*
X98485357Y-113530000D02*
X98342500Y-113577619D01*
X98342500Y-113577619D02*
X98104405Y-113577619D01*
X99009167Y-112577619D02*
X99628214Y-112577619D01*
X99628214Y-112577619D02*
X99294881Y-112958571D01*
X99294881Y-112958571D02*
X99437738Y-112958571D01*
X99437738Y-112958571D02*
X99532976Y-113006190D01*
X99532976Y-113006190D02*
X99580595Y-113053809D01*
X99580595Y-113053809D02*
X99628214Y-113149047D01*
X99628214Y-113149047D02*
X99628214Y-113387142D01*
X99628214Y-113387142D02*
X99580595Y-113482380D01*
X99580595Y-113482380D02*
X99532976Y-113530000D01*
X99532976Y-113530000D02*
X99437738Y-113577619D01*
X99437738Y-113577619D02*
X99152024Y-113577619D01*
X99152024Y-113577619D02*
X99056786Y-113530000D01*
X99056786Y-113530000D02*
X99009167Y-113482380D01*
X173139166Y-89032619D02*
X173139166Y-89746904D01*
X173139166Y-89746904D02*
X173091547Y-89889761D01*
X173091547Y-89889761D02*
X172996309Y-89985000D01*
X172996309Y-89985000D02*
X172853452Y-90032619D01*
X172853452Y-90032619D02*
X172758214Y-90032619D01*
X173758214Y-89461190D02*
X173662976Y-89413571D01*
X173662976Y-89413571D02*
X173615357Y-89365952D01*
X173615357Y-89365952D02*
X173567738Y-89270714D01*
X173567738Y-89270714D02*
X173567738Y-89223095D01*
X173567738Y-89223095D02*
X173615357Y-89127857D01*
X173615357Y-89127857D02*
X173662976Y-89080238D01*
X173662976Y-89080238D02*
X173758214Y-89032619D01*
X173758214Y-89032619D02*
X173948690Y-89032619D01*
X173948690Y-89032619D02*
X174043928Y-89080238D01*
X174043928Y-89080238D02*
X174091547Y-89127857D01*
X174091547Y-89127857D02*
X174139166Y-89223095D01*
X174139166Y-89223095D02*
X174139166Y-89270714D01*
X174139166Y-89270714D02*
X174091547Y-89365952D01*
X174091547Y-89365952D02*
X174043928Y-89413571D01*
X174043928Y-89413571D02*
X173948690Y-89461190D01*
X173948690Y-89461190D02*
X173758214Y-89461190D01*
X173758214Y-89461190D02*
X173662976Y-89508809D01*
X173662976Y-89508809D02*
X173615357Y-89556428D01*
X173615357Y-89556428D02*
X173567738Y-89651666D01*
X173567738Y-89651666D02*
X173567738Y-89842142D01*
X173567738Y-89842142D02*
X173615357Y-89937380D01*
X173615357Y-89937380D02*
X173662976Y-89985000D01*
X173662976Y-89985000D02*
X173758214Y-90032619D01*
X173758214Y-90032619D02*
X173948690Y-90032619D01*
X173948690Y-90032619D02*
X174043928Y-89985000D01*
X174043928Y-89985000D02*
X174091547Y-89937380D01*
X174091547Y-89937380D02*
X174139166Y-89842142D01*
X174139166Y-89842142D02*
X174139166Y-89651666D01*
X174139166Y-89651666D02*
X174091547Y-89556428D01*
X174091547Y-89556428D02*
X174043928Y-89508809D01*
X174043928Y-89508809D02*
X173948690Y-89461190D01*
X138667261Y-113727857D02*
X138572023Y-113680238D01*
X138572023Y-113680238D02*
X138476785Y-113585000D01*
X138476785Y-113585000D02*
X138333928Y-113442142D01*
X138333928Y-113442142D02*
X138238690Y-113394523D01*
X138238690Y-113394523D02*
X138143452Y-113394523D01*
X138191071Y-113632619D02*
X138095833Y-113585000D01*
X138095833Y-113585000D02*
X138000595Y-113489761D01*
X138000595Y-113489761D02*
X137952976Y-113299285D01*
X137952976Y-113299285D02*
X137952976Y-112965952D01*
X137952976Y-112965952D02*
X138000595Y-112775476D01*
X138000595Y-112775476D02*
X138095833Y-112680238D01*
X138095833Y-112680238D02*
X138191071Y-112632619D01*
X138191071Y-112632619D02*
X138381547Y-112632619D01*
X138381547Y-112632619D02*
X138476785Y-112680238D01*
X138476785Y-112680238D02*
X138572023Y-112775476D01*
X138572023Y-112775476D02*
X138619642Y-112965952D01*
X138619642Y-112965952D02*
X138619642Y-113299285D01*
X138619642Y-113299285D02*
X138572023Y-113489761D01*
X138572023Y-113489761D02*
X138476785Y-113585000D01*
X138476785Y-113585000D02*
X138381547Y-113632619D01*
X138381547Y-113632619D02*
X138191071Y-113632619D01*
X139572023Y-113632619D02*
X139000595Y-113632619D01*
X139286309Y-113632619D02*
X139286309Y-112632619D01*
X139286309Y-112632619D02*
X139191071Y-112775476D01*
X139191071Y-112775476D02*
X139095833Y-112870714D01*
X139095833Y-112870714D02*
X139000595Y-112918333D01*
X124238095Y-51064619D02*
X124809523Y-51064619D01*
X124523809Y-52064619D02*
X124523809Y-51064619D01*
X125142857Y-52064619D02*
X125142857Y-51064619D01*
X125142857Y-51064619D02*
X125523809Y-51064619D01*
X125523809Y-51064619D02*
X125619047Y-51112238D01*
X125619047Y-51112238D02*
X125666666Y-51159857D01*
X125666666Y-51159857D02*
X125714285Y-51255095D01*
X125714285Y-51255095D02*
X125714285Y-51397952D01*
X125714285Y-51397952D02*
X125666666Y-51493190D01*
X125666666Y-51493190D02*
X125619047Y-51540809D01*
X125619047Y-51540809D02*
X125523809Y-51588428D01*
X125523809Y-51588428D02*
X125142857Y-51588428D01*
X126666666Y-52064619D02*
X126095238Y-52064619D01*
X126380952Y-52064619D02*
X126380952Y-51064619D01*
X126380952Y-51064619D02*
X126285714Y-51207476D01*
X126285714Y-51207476D02*
X126190476Y-51302714D01*
X126190476Y-51302714D02*
X126095238Y-51350333D01*
X118933333Y-108497619D02*
X118600000Y-108021428D01*
X118361905Y-108497619D02*
X118361905Y-107497619D01*
X118361905Y-107497619D02*
X118742857Y-107497619D01*
X118742857Y-107497619D02*
X118838095Y-107545238D01*
X118838095Y-107545238D02*
X118885714Y-107592857D01*
X118885714Y-107592857D02*
X118933333Y-107688095D01*
X118933333Y-107688095D02*
X118933333Y-107830952D01*
X118933333Y-107830952D02*
X118885714Y-107926190D01*
X118885714Y-107926190D02*
X118838095Y-107973809D01*
X118838095Y-107973809D02*
X118742857Y-108021428D01*
X118742857Y-108021428D02*
X118361905Y-108021428D01*
X119504762Y-107926190D02*
X119409524Y-107878571D01*
X119409524Y-107878571D02*
X119361905Y-107830952D01*
X119361905Y-107830952D02*
X119314286Y-107735714D01*
X119314286Y-107735714D02*
X119314286Y-107688095D01*
X119314286Y-107688095D02*
X119361905Y-107592857D01*
X119361905Y-107592857D02*
X119409524Y-107545238D01*
X119409524Y-107545238D02*
X119504762Y-107497619D01*
X119504762Y-107497619D02*
X119695238Y-107497619D01*
X119695238Y-107497619D02*
X119790476Y-107545238D01*
X119790476Y-107545238D02*
X119838095Y-107592857D01*
X119838095Y-107592857D02*
X119885714Y-107688095D01*
X119885714Y-107688095D02*
X119885714Y-107735714D01*
X119885714Y-107735714D02*
X119838095Y-107830952D01*
X119838095Y-107830952D02*
X119790476Y-107878571D01*
X119790476Y-107878571D02*
X119695238Y-107926190D01*
X119695238Y-107926190D02*
X119504762Y-107926190D01*
X119504762Y-107926190D02*
X119409524Y-107973809D01*
X119409524Y-107973809D02*
X119361905Y-108021428D01*
X119361905Y-108021428D02*
X119314286Y-108116666D01*
X119314286Y-108116666D02*
X119314286Y-108307142D01*
X119314286Y-108307142D02*
X119361905Y-108402380D01*
X119361905Y-108402380D02*
X119409524Y-108450000D01*
X119409524Y-108450000D02*
X119504762Y-108497619D01*
X119504762Y-108497619D02*
X119695238Y-108497619D01*
X119695238Y-108497619D02*
X119790476Y-108450000D01*
X119790476Y-108450000D02*
X119838095Y-108402380D01*
X119838095Y-108402380D02*
X119885714Y-108307142D01*
X119885714Y-108307142D02*
X119885714Y-108116666D01*
X119885714Y-108116666D02*
X119838095Y-108021428D01*
X119838095Y-108021428D02*
X119790476Y-107973809D01*
X119790476Y-107973809D02*
X119695238Y-107926190D01*
X120840667Y-131538000D02*
X120983524Y-131585619D01*
X120983524Y-131585619D02*
X121221619Y-131585619D01*
X121221619Y-131585619D02*
X121316857Y-131538000D01*
X121316857Y-131538000D02*
X121364476Y-131490380D01*
X121364476Y-131490380D02*
X121412095Y-131395142D01*
X121412095Y-131395142D02*
X121412095Y-131299904D01*
X121412095Y-131299904D02*
X121364476Y-131204666D01*
X121364476Y-131204666D02*
X121316857Y-131157047D01*
X121316857Y-131157047D02*
X121221619Y-131109428D01*
X121221619Y-131109428D02*
X121031143Y-131061809D01*
X121031143Y-131061809D02*
X120935905Y-131014190D01*
X120935905Y-131014190D02*
X120888286Y-130966571D01*
X120888286Y-130966571D02*
X120840667Y-130871333D01*
X120840667Y-130871333D02*
X120840667Y-130776095D01*
X120840667Y-130776095D02*
X120888286Y-130680857D01*
X120888286Y-130680857D02*
X120935905Y-130633238D01*
X120935905Y-130633238D02*
X121031143Y-130585619D01*
X121031143Y-130585619D02*
X121269238Y-130585619D01*
X121269238Y-130585619D02*
X121412095Y-130633238D01*
X121745429Y-130585619D02*
X121983524Y-131585619D01*
X121983524Y-131585619D02*
X122174000Y-130871333D01*
X122174000Y-130871333D02*
X122364476Y-131585619D01*
X122364476Y-131585619D02*
X122602572Y-130585619D01*
X122935905Y-130680857D02*
X122983524Y-130633238D01*
X122983524Y-130633238D02*
X123078762Y-130585619D01*
X123078762Y-130585619D02*
X123316857Y-130585619D01*
X123316857Y-130585619D02*
X123412095Y-130633238D01*
X123412095Y-130633238D02*
X123459714Y-130680857D01*
X123459714Y-130680857D02*
X123507333Y-130776095D01*
X123507333Y-130776095D02*
X123507333Y-130871333D01*
X123507333Y-130871333D02*
X123459714Y-131014190D01*
X123459714Y-131014190D02*
X122888286Y-131585619D01*
X122888286Y-131585619D02*
X123507333Y-131585619D01*
X168755833Y-94082619D02*
X168422500Y-93606428D01*
X168184405Y-94082619D02*
X168184405Y-93082619D01*
X168184405Y-93082619D02*
X168565357Y-93082619D01*
X168565357Y-93082619D02*
X168660595Y-93130238D01*
X168660595Y-93130238D02*
X168708214Y-93177857D01*
X168708214Y-93177857D02*
X168755833Y-93273095D01*
X168755833Y-93273095D02*
X168755833Y-93415952D01*
X168755833Y-93415952D02*
X168708214Y-93511190D01*
X168708214Y-93511190D02*
X168660595Y-93558809D01*
X168660595Y-93558809D02*
X168565357Y-93606428D01*
X168565357Y-93606428D02*
X168184405Y-93606428D01*
X169089167Y-93082619D02*
X169708214Y-93082619D01*
X169708214Y-93082619D02*
X169374881Y-93463571D01*
X169374881Y-93463571D02*
X169517738Y-93463571D01*
X169517738Y-93463571D02*
X169612976Y-93511190D01*
X169612976Y-93511190D02*
X169660595Y-93558809D01*
X169660595Y-93558809D02*
X169708214Y-93654047D01*
X169708214Y-93654047D02*
X169708214Y-93892142D01*
X169708214Y-93892142D02*
X169660595Y-93987380D01*
X169660595Y-93987380D02*
X169612976Y-94035000D01*
X169612976Y-94035000D02*
X169517738Y-94082619D01*
X169517738Y-94082619D02*
X169232024Y-94082619D01*
X169232024Y-94082619D02*
X169136786Y-94035000D01*
X169136786Y-94035000D02*
X169089167Y-93987380D01*
X97242333Y-65782619D02*
X96766143Y-65782619D01*
X96766143Y-65782619D02*
X96766143Y-64782619D01*
X98099476Y-65782619D02*
X97528048Y-65782619D01*
X97813762Y-65782619D02*
X97813762Y-64782619D01*
X97813762Y-64782619D02*
X97718524Y-64925476D01*
X97718524Y-64925476D02*
X97623286Y-65020714D01*
X97623286Y-65020714D02*
X97528048Y-65068333D01*
X177808095Y-62604619D02*
X178379523Y-62604619D01*
X178093809Y-63604619D02*
X178093809Y-62604619D01*
X178712857Y-63604619D02*
X178712857Y-62604619D01*
X178712857Y-62604619D02*
X179093809Y-62604619D01*
X179093809Y-62604619D02*
X179189047Y-62652238D01*
X179189047Y-62652238D02*
X179236666Y-62699857D01*
X179236666Y-62699857D02*
X179284285Y-62795095D01*
X179284285Y-62795095D02*
X179284285Y-62937952D01*
X179284285Y-62937952D02*
X179236666Y-63033190D01*
X179236666Y-63033190D02*
X179189047Y-63080809D01*
X179189047Y-63080809D02*
X179093809Y-63128428D01*
X179093809Y-63128428D02*
X178712857Y-63128428D01*
X179665238Y-62699857D02*
X179712857Y-62652238D01*
X179712857Y-62652238D02*
X179808095Y-62604619D01*
X179808095Y-62604619D02*
X180046190Y-62604619D01*
X180046190Y-62604619D02*
X180141428Y-62652238D01*
X180141428Y-62652238D02*
X180189047Y-62699857D01*
X180189047Y-62699857D02*
X180236666Y-62795095D01*
X180236666Y-62795095D02*
X180236666Y-62890333D01*
X180236666Y-62890333D02*
X180189047Y-63033190D01*
X180189047Y-63033190D02*
X179617619Y-63604619D01*
X179617619Y-63604619D02*
X180236666Y-63604619D01*
X173139166Y-97922619D02*
X173139166Y-98636904D01*
X173139166Y-98636904D02*
X173091547Y-98779761D01*
X173091547Y-98779761D02*
X172996309Y-98875000D01*
X172996309Y-98875000D02*
X172853452Y-98922619D01*
X172853452Y-98922619D02*
X172758214Y-98922619D01*
X174091547Y-97922619D02*
X173615357Y-97922619D01*
X173615357Y-97922619D02*
X173567738Y-98398809D01*
X173567738Y-98398809D02*
X173615357Y-98351190D01*
X173615357Y-98351190D02*
X173710595Y-98303571D01*
X173710595Y-98303571D02*
X173948690Y-98303571D01*
X173948690Y-98303571D02*
X174043928Y-98351190D01*
X174043928Y-98351190D02*
X174091547Y-98398809D01*
X174091547Y-98398809D02*
X174139166Y-98494047D01*
X174139166Y-98494047D02*
X174139166Y-98732142D01*
X174139166Y-98732142D02*
X174091547Y-98827380D01*
X174091547Y-98827380D02*
X174043928Y-98875000D01*
X174043928Y-98875000D02*
X173948690Y-98922619D01*
X173948690Y-98922619D02*
X173710595Y-98922619D01*
X173710595Y-98922619D02*
X173615357Y-98875000D01*
X173615357Y-98875000D02*
X173567738Y-98827380D01*
X159853333Y-103417619D02*
X159520000Y-102941428D01*
X159281905Y-103417619D02*
X159281905Y-102417619D01*
X159281905Y-102417619D02*
X159662857Y-102417619D01*
X159662857Y-102417619D02*
X159758095Y-102465238D01*
X159758095Y-102465238D02*
X159805714Y-102512857D01*
X159805714Y-102512857D02*
X159853333Y-102608095D01*
X159853333Y-102608095D02*
X159853333Y-102750952D01*
X159853333Y-102750952D02*
X159805714Y-102846190D01*
X159805714Y-102846190D02*
X159758095Y-102893809D01*
X159758095Y-102893809D02*
X159662857Y-102941428D01*
X159662857Y-102941428D02*
X159281905Y-102941428D01*
X160710476Y-102750952D02*
X160710476Y-103417619D01*
X160472381Y-102370000D02*
X160234286Y-103084285D01*
X160234286Y-103084285D02*
X160853333Y-103084285D01*
X155241666Y-131542619D02*
X155241666Y-132256904D01*
X155241666Y-132256904D02*
X155194047Y-132399761D01*
X155194047Y-132399761D02*
X155098809Y-132495000D01*
X155098809Y-132495000D02*
X154955952Y-132542619D01*
X154955952Y-132542619D02*
X154860714Y-132542619D01*
X155622619Y-131542619D02*
X156289285Y-131542619D01*
X156289285Y-131542619D02*
X155860714Y-132542619D01*
X143197619Y-56689523D02*
X143911904Y-56689523D01*
X143911904Y-56689523D02*
X144054761Y-56737142D01*
X144054761Y-56737142D02*
X144150000Y-56832380D01*
X144150000Y-56832380D02*
X144197619Y-56975237D01*
X144197619Y-56975237D02*
X144197619Y-57070475D01*
X144197619Y-55689523D02*
X144197619Y-56260951D01*
X144197619Y-55975237D02*
X143197619Y-55975237D01*
X143197619Y-55975237D02*
X143340476Y-56070475D01*
X143340476Y-56070475D02*
X143435714Y-56165713D01*
X143435714Y-56165713D02*
X143483333Y-56260951D01*
X143197619Y-55356189D02*
X143197619Y-54737142D01*
X143197619Y-54737142D02*
X143578571Y-55070475D01*
X143578571Y-55070475D02*
X143578571Y-54927618D01*
X143578571Y-54927618D02*
X143626190Y-54832380D01*
X143626190Y-54832380D02*
X143673809Y-54784761D01*
X143673809Y-54784761D02*
X143769047Y-54737142D01*
X143769047Y-54737142D02*
X144007142Y-54737142D01*
X144007142Y-54737142D02*
X144102380Y-54784761D01*
X144102380Y-54784761D02*
X144150000Y-54832380D01*
X144150000Y-54832380D02*
X144197619Y-54927618D01*
X144197619Y-54927618D02*
X144197619Y-55213332D01*
X144197619Y-55213332D02*
X144150000Y-55308570D01*
X144150000Y-55308570D02*
X144102380Y-55356189D01*
X118424405Y-104687619D02*
X118424405Y-103687619D01*
X118424405Y-103687619D02*
X118662500Y-103687619D01*
X118662500Y-103687619D02*
X118805357Y-103735238D01*
X118805357Y-103735238D02*
X118900595Y-103830476D01*
X118900595Y-103830476D02*
X118948214Y-103925714D01*
X118948214Y-103925714D02*
X118995833Y-104116190D01*
X118995833Y-104116190D02*
X118995833Y-104259047D01*
X118995833Y-104259047D02*
X118948214Y-104449523D01*
X118948214Y-104449523D02*
X118900595Y-104544761D01*
X118900595Y-104544761D02*
X118805357Y-104640000D01*
X118805357Y-104640000D02*
X118662500Y-104687619D01*
X118662500Y-104687619D02*
X118424405Y-104687619D01*
X119948214Y-104687619D02*
X119376786Y-104687619D01*
X119662500Y-104687619D02*
X119662500Y-103687619D01*
X119662500Y-103687619D02*
X119567262Y-103830476D01*
X119567262Y-103830476D02*
X119472024Y-103925714D01*
X119472024Y-103925714D02*
X119376786Y-103973333D01*
X116800333Y-66661380D02*
X116752714Y-66709000D01*
X116752714Y-66709000D02*
X116609857Y-66756619D01*
X116609857Y-66756619D02*
X116514619Y-66756619D01*
X116514619Y-66756619D02*
X116371762Y-66709000D01*
X116371762Y-66709000D02*
X116276524Y-66613761D01*
X116276524Y-66613761D02*
X116228905Y-66518523D01*
X116228905Y-66518523D02*
X116181286Y-66328047D01*
X116181286Y-66328047D02*
X116181286Y-66185190D01*
X116181286Y-66185190D02*
X116228905Y-65994714D01*
X116228905Y-65994714D02*
X116276524Y-65899476D01*
X116276524Y-65899476D02*
X116371762Y-65804238D01*
X116371762Y-65804238D02*
X116514619Y-65756619D01*
X116514619Y-65756619D02*
X116609857Y-65756619D01*
X116609857Y-65756619D02*
X116752714Y-65804238D01*
X116752714Y-65804238D02*
X116800333Y-65851857D01*
X117133667Y-65756619D02*
X117752714Y-65756619D01*
X117752714Y-65756619D02*
X117419381Y-66137571D01*
X117419381Y-66137571D02*
X117562238Y-66137571D01*
X117562238Y-66137571D02*
X117657476Y-66185190D01*
X117657476Y-66185190D02*
X117705095Y-66232809D01*
X117705095Y-66232809D02*
X117752714Y-66328047D01*
X117752714Y-66328047D02*
X117752714Y-66566142D01*
X117752714Y-66566142D02*
X117705095Y-66661380D01*
X117705095Y-66661380D02*
X117657476Y-66709000D01*
X117657476Y-66709000D02*
X117562238Y-66756619D01*
X117562238Y-66756619D02*
X117276524Y-66756619D01*
X117276524Y-66756619D02*
X117181286Y-66709000D01*
X117181286Y-66709000D02*
X117133667Y-66661380D01*
X168743333Y-89957380D02*
X168695714Y-90005000D01*
X168695714Y-90005000D02*
X168552857Y-90052619D01*
X168552857Y-90052619D02*
X168457619Y-90052619D01*
X168457619Y-90052619D02*
X168314762Y-90005000D01*
X168314762Y-90005000D02*
X168219524Y-89909761D01*
X168219524Y-89909761D02*
X168171905Y-89814523D01*
X168171905Y-89814523D02*
X168124286Y-89624047D01*
X168124286Y-89624047D02*
X168124286Y-89481190D01*
X168124286Y-89481190D02*
X168171905Y-89290714D01*
X168171905Y-89290714D02*
X168219524Y-89195476D01*
X168219524Y-89195476D02*
X168314762Y-89100238D01*
X168314762Y-89100238D02*
X168457619Y-89052619D01*
X168457619Y-89052619D02*
X168552857Y-89052619D01*
X168552857Y-89052619D02*
X168695714Y-89100238D01*
X168695714Y-89100238D02*
X168743333Y-89147857D01*
X169076667Y-89052619D02*
X169743333Y-89052619D01*
X169743333Y-89052619D02*
X169314762Y-90052619D01*
X119848333Y-66788380D02*
X119800714Y-66836000D01*
X119800714Y-66836000D02*
X119657857Y-66883619D01*
X119657857Y-66883619D02*
X119562619Y-66883619D01*
X119562619Y-66883619D02*
X119419762Y-66836000D01*
X119419762Y-66836000D02*
X119324524Y-66740761D01*
X119324524Y-66740761D02*
X119276905Y-66645523D01*
X119276905Y-66645523D02*
X119229286Y-66455047D01*
X119229286Y-66455047D02*
X119229286Y-66312190D01*
X119229286Y-66312190D02*
X119276905Y-66121714D01*
X119276905Y-66121714D02*
X119324524Y-66026476D01*
X119324524Y-66026476D02*
X119419762Y-65931238D01*
X119419762Y-65931238D02*
X119562619Y-65883619D01*
X119562619Y-65883619D02*
X119657857Y-65883619D01*
X119657857Y-65883619D02*
X119800714Y-65931238D01*
X119800714Y-65931238D02*
X119848333Y-65978857D01*
X120800714Y-66883619D02*
X120229286Y-66883619D01*
X120515000Y-66883619D02*
X120515000Y-65883619D01*
X120515000Y-65883619D02*
X120419762Y-66026476D01*
X120419762Y-66026476D02*
X120324524Y-66121714D01*
X120324524Y-66121714D02*
X120229286Y-66169333D01*
X98726666Y-101272619D02*
X98726666Y-101986904D01*
X98726666Y-101986904D02*
X98679047Y-102129761D01*
X98679047Y-102129761D02*
X98583809Y-102225000D01*
X98583809Y-102225000D02*
X98440952Y-102272619D01*
X98440952Y-102272619D02*
X98345714Y-102272619D01*
X99107619Y-101272619D02*
X99726666Y-101272619D01*
X99726666Y-101272619D02*
X99393333Y-101653571D01*
X99393333Y-101653571D02*
X99536190Y-101653571D01*
X99536190Y-101653571D02*
X99631428Y-101701190D01*
X99631428Y-101701190D02*
X99679047Y-101748809D01*
X99679047Y-101748809D02*
X99726666Y-101844047D01*
X99726666Y-101844047D02*
X99726666Y-102082142D01*
X99726666Y-102082142D02*
X99679047Y-102177380D01*
X99679047Y-102177380D02*
X99631428Y-102225000D01*
X99631428Y-102225000D02*
X99536190Y-102272619D01*
X99536190Y-102272619D02*
X99250476Y-102272619D01*
X99250476Y-102272619D02*
X99155238Y-102225000D01*
X99155238Y-102225000D02*
X99107619Y-102177380D01*
X98137142Y-110402619D02*
X97803809Y-109926428D01*
X97565714Y-110402619D02*
X97565714Y-109402619D01*
X97565714Y-109402619D02*
X97946666Y-109402619D01*
X97946666Y-109402619D02*
X98041904Y-109450238D01*
X98041904Y-109450238D02*
X98089523Y-109497857D01*
X98089523Y-109497857D02*
X98137142Y-109593095D01*
X98137142Y-109593095D02*
X98137142Y-109735952D01*
X98137142Y-109735952D02*
X98089523Y-109831190D01*
X98089523Y-109831190D02*
X98041904Y-109878809D01*
X98041904Y-109878809D02*
X97946666Y-109926428D01*
X97946666Y-109926428D02*
X97565714Y-109926428D01*
X99089523Y-110402619D02*
X98518095Y-110402619D01*
X98803809Y-110402619D02*
X98803809Y-109402619D01*
X98803809Y-109402619D02*
X98708571Y-109545476D01*
X98708571Y-109545476D02*
X98613333Y-109640714D01*
X98613333Y-109640714D02*
X98518095Y-109688333D01*
X99708571Y-109402619D02*
X99803809Y-109402619D01*
X99803809Y-109402619D02*
X99899047Y-109450238D01*
X99899047Y-109450238D02*
X99946666Y-109497857D01*
X99946666Y-109497857D02*
X99994285Y-109593095D01*
X99994285Y-109593095D02*
X100041904Y-109783571D01*
X100041904Y-109783571D02*
X100041904Y-110021666D01*
X100041904Y-110021666D02*
X99994285Y-110212142D01*
X99994285Y-110212142D02*
X99946666Y-110307380D01*
X99946666Y-110307380D02*
X99899047Y-110355000D01*
X99899047Y-110355000D02*
X99803809Y-110402619D01*
X99803809Y-110402619D02*
X99708571Y-110402619D01*
X99708571Y-110402619D02*
X99613333Y-110355000D01*
X99613333Y-110355000D02*
X99565714Y-110307380D01*
X99565714Y-110307380D02*
X99518095Y-110212142D01*
X99518095Y-110212142D02*
X99470476Y-110021666D01*
X99470476Y-110021666D02*
X99470476Y-109783571D01*
X99470476Y-109783571D02*
X99518095Y-109593095D01*
X99518095Y-109593095D02*
X99565714Y-109497857D01*
X99565714Y-109497857D02*
X99613333Y-109450238D01*
X99613333Y-109450238D02*
X99708571Y-109402619D01*
X168543619Y-55959333D02*
X169257904Y-55959333D01*
X169257904Y-55959333D02*
X169400761Y-56006952D01*
X169400761Y-56006952D02*
X169496000Y-56102190D01*
X169496000Y-56102190D02*
X169543619Y-56245047D01*
X169543619Y-56245047D02*
X169543619Y-56340285D01*
X169543619Y-54959333D02*
X169543619Y-55530761D01*
X169543619Y-55245047D02*
X168543619Y-55245047D01*
X168543619Y-55245047D02*
X168686476Y-55340285D01*
X168686476Y-55340285D02*
X168781714Y-55435523D01*
X168781714Y-55435523D02*
X168829333Y-55530761D01*
X128841667Y-131538000D02*
X128984524Y-131585619D01*
X128984524Y-131585619D02*
X129222619Y-131585619D01*
X129222619Y-131585619D02*
X129317857Y-131538000D01*
X129317857Y-131538000D02*
X129365476Y-131490380D01*
X129365476Y-131490380D02*
X129413095Y-131395142D01*
X129413095Y-131395142D02*
X129413095Y-131299904D01*
X129413095Y-131299904D02*
X129365476Y-131204666D01*
X129365476Y-131204666D02*
X129317857Y-131157047D01*
X129317857Y-131157047D02*
X129222619Y-131109428D01*
X129222619Y-131109428D02*
X129032143Y-131061809D01*
X129032143Y-131061809D02*
X128936905Y-131014190D01*
X128936905Y-131014190D02*
X128889286Y-130966571D01*
X128889286Y-130966571D02*
X128841667Y-130871333D01*
X128841667Y-130871333D02*
X128841667Y-130776095D01*
X128841667Y-130776095D02*
X128889286Y-130680857D01*
X128889286Y-130680857D02*
X128936905Y-130633238D01*
X128936905Y-130633238D02*
X129032143Y-130585619D01*
X129032143Y-130585619D02*
X129270238Y-130585619D01*
X129270238Y-130585619D02*
X129413095Y-130633238D01*
X129746429Y-130585619D02*
X129984524Y-131585619D01*
X129984524Y-131585619D02*
X130175000Y-130871333D01*
X130175000Y-130871333D02*
X130365476Y-131585619D01*
X130365476Y-131585619D02*
X130603572Y-130585619D01*
X131508333Y-131585619D02*
X130936905Y-131585619D01*
X131222619Y-131585619D02*
X131222619Y-130585619D01*
X131222619Y-130585619D02*
X131127381Y-130728476D01*
X131127381Y-130728476D02*
X131032143Y-130823714D01*
X131032143Y-130823714D02*
X130936905Y-130871333D01*
D15*
X137668095Y-56612619D02*
X137668095Y-57422142D01*
X137668095Y-57422142D02*
X137715714Y-57517380D01*
X137715714Y-57517380D02*
X137763333Y-57565000D01*
X137763333Y-57565000D02*
X137858571Y-57612619D01*
X137858571Y-57612619D02*
X138049047Y-57612619D01*
X138049047Y-57612619D02*
X138144285Y-57565000D01*
X138144285Y-57565000D02*
X138191904Y-57517380D01*
X138191904Y-57517380D02*
X138239523Y-57422142D01*
X138239523Y-57422142D02*
X138239523Y-56612619D01*
X139191904Y-56612619D02*
X138715714Y-56612619D01*
X138715714Y-56612619D02*
X138668095Y-57088809D01*
X138668095Y-57088809D02*
X138715714Y-57041190D01*
X138715714Y-57041190D02*
X138810952Y-56993571D01*
X138810952Y-56993571D02*
X139049047Y-56993571D01*
X139049047Y-56993571D02*
X139144285Y-57041190D01*
X139144285Y-57041190D02*
X139191904Y-57088809D01*
X139191904Y-57088809D02*
X139239523Y-57184047D01*
X139239523Y-57184047D02*
X139239523Y-57422142D01*
X139239523Y-57422142D02*
X139191904Y-57517380D01*
X139191904Y-57517380D02*
X139144285Y-57565000D01*
X139144285Y-57565000D02*
X139049047Y-57612619D01*
X139049047Y-57612619D02*
X138810952Y-57612619D01*
X138810952Y-57612619D02*
X138715714Y-57565000D01*
X138715714Y-57565000D02*
X138668095Y-57517380D01*
X137168095Y-61007619D02*
X137168095Y-61817142D01*
X137168095Y-61817142D02*
X137215714Y-61912380D01*
X137215714Y-61912380D02*
X137263333Y-61960000D01*
X137263333Y-61960000D02*
X137358571Y-62007619D01*
X137358571Y-62007619D02*
X137549047Y-62007619D01*
X137549047Y-62007619D02*
X137644285Y-61960000D01*
X137644285Y-61960000D02*
X137691904Y-61912380D01*
X137691904Y-61912380D02*
X137739523Y-61817142D01*
X137739523Y-61817142D02*
X137739523Y-61007619D01*
X138168095Y-61960000D02*
X138310952Y-62007619D01*
X138310952Y-62007619D02*
X138549047Y-62007619D01*
X138549047Y-62007619D02*
X138644285Y-61960000D01*
X138644285Y-61960000D02*
X138691904Y-61912380D01*
X138691904Y-61912380D02*
X138739523Y-61817142D01*
X138739523Y-61817142D02*
X138739523Y-61721904D01*
X138739523Y-61721904D02*
X138691904Y-61626666D01*
X138691904Y-61626666D02*
X138644285Y-61579047D01*
X138644285Y-61579047D02*
X138549047Y-61531428D01*
X138549047Y-61531428D02*
X138358571Y-61483809D01*
X138358571Y-61483809D02*
X138263333Y-61436190D01*
X138263333Y-61436190D02*
X138215714Y-61388571D01*
X138215714Y-61388571D02*
X138168095Y-61293333D01*
X138168095Y-61293333D02*
X138168095Y-61198095D01*
X138168095Y-61198095D02*
X138215714Y-61102857D01*
X138215714Y-61102857D02*
X138263333Y-61055238D01*
X138263333Y-61055238D02*
X138358571Y-61007619D01*
X138358571Y-61007619D02*
X138596666Y-61007619D01*
X138596666Y-61007619D02*
X138739523Y-61055238D01*
X139501428Y-61483809D02*
X139644285Y-61531428D01*
X139644285Y-61531428D02*
X139691904Y-61579047D01*
X139691904Y-61579047D02*
X139739523Y-61674285D01*
X139739523Y-61674285D02*
X139739523Y-61817142D01*
X139739523Y-61817142D02*
X139691904Y-61912380D01*
X139691904Y-61912380D02*
X139644285Y-61960000D01*
X139644285Y-61960000D02*
X139549047Y-62007619D01*
X139549047Y-62007619D02*
X139168095Y-62007619D01*
X139168095Y-62007619D02*
X139168095Y-61007619D01*
X139168095Y-61007619D02*
X139501428Y-61007619D01*
X139501428Y-61007619D02*
X139596666Y-61055238D01*
X139596666Y-61055238D02*
X139644285Y-61102857D01*
X139644285Y-61102857D02*
X139691904Y-61198095D01*
X139691904Y-61198095D02*
X139691904Y-61293333D01*
X139691904Y-61293333D02*
X139644285Y-61388571D01*
X139644285Y-61388571D02*
X139596666Y-61436190D01*
X139596666Y-61436190D02*
X139501428Y-61483809D01*
X139501428Y-61483809D02*
X139168095Y-61483809D01*
X127238095Y-74122619D02*
X127238095Y-73122619D01*
X127238095Y-73122619D02*
X127476190Y-73122619D01*
X127476190Y-73122619D02*
X127619047Y-73170238D01*
X127619047Y-73170238D02*
X127714285Y-73265476D01*
X127714285Y-73265476D02*
X127761904Y-73360714D01*
X127761904Y-73360714D02*
X127809523Y-73551190D01*
X127809523Y-73551190D02*
X127809523Y-73694047D01*
X127809523Y-73694047D02*
X127761904Y-73884523D01*
X127761904Y-73884523D02*
X127714285Y-73979761D01*
X127714285Y-73979761D02*
X127619047Y-74075000D01*
X127619047Y-74075000D02*
X127476190Y-74122619D01*
X127476190Y-74122619D02*
X127238095Y-74122619D01*
X128761904Y-74122619D02*
X128190476Y-74122619D01*
X128476190Y-74122619D02*
X128476190Y-73122619D01*
X128476190Y-73122619D02*
X128380952Y-73265476D01*
X128380952Y-73265476D02*
X128285714Y-73360714D01*
X128285714Y-73360714D02*
X128190476Y-73408333D01*
X129666666Y-73122619D02*
X129190476Y-73122619D01*
X129190476Y-73122619D02*
X129142857Y-73598809D01*
X129142857Y-73598809D02*
X129190476Y-73551190D01*
X129190476Y-73551190D02*
X129285714Y-73503571D01*
X129285714Y-73503571D02*
X129523809Y-73503571D01*
X129523809Y-73503571D02*
X129619047Y-73551190D01*
X129619047Y-73551190D02*
X129666666Y-73598809D01*
X129666666Y-73598809D02*
X129714285Y-73694047D01*
X129714285Y-73694047D02*
X129714285Y-73932142D01*
X129714285Y-73932142D02*
X129666666Y-74027380D01*
X129666666Y-74027380D02*
X129619047Y-74075000D01*
X129619047Y-74075000D02*
X129523809Y-74122619D01*
X129523809Y-74122619D02*
X129285714Y-74122619D01*
X129285714Y-74122619D02*
X129190476Y-74075000D01*
X129190476Y-74075000D02*
X129142857Y-74027380D01*
X127142857Y-68042619D02*
X127761904Y-68042619D01*
X127761904Y-68042619D02*
X127428571Y-68423571D01*
X127428571Y-68423571D02*
X127571428Y-68423571D01*
X127571428Y-68423571D02*
X127666666Y-68471190D01*
X127666666Y-68471190D02*
X127714285Y-68518809D01*
X127714285Y-68518809D02*
X127761904Y-68614047D01*
X127761904Y-68614047D02*
X127761904Y-68852142D01*
X127761904Y-68852142D02*
X127714285Y-68947380D01*
X127714285Y-68947380D02*
X127666666Y-68995000D01*
X127666666Y-68995000D02*
X127571428Y-69042619D01*
X127571428Y-69042619D02*
X127285714Y-69042619D01*
X127285714Y-69042619D02*
X127190476Y-68995000D01*
X127190476Y-68995000D02*
X127142857Y-68947380D01*
X128047619Y-68042619D02*
X128380952Y-69042619D01*
X128380952Y-69042619D02*
X128714285Y-68042619D01*
X128952381Y-68042619D02*
X129571428Y-68042619D01*
X129571428Y-68042619D02*
X129238095Y-68423571D01*
X129238095Y-68423571D02*
X129380952Y-68423571D01*
X129380952Y-68423571D02*
X129476190Y-68471190D01*
X129476190Y-68471190D02*
X129523809Y-68518809D01*
X129523809Y-68518809D02*
X129571428Y-68614047D01*
X129571428Y-68614047D02*
X129571428Y-68852142D01*
X129571428Y-68852142D02*
X129523809Y-68947380D01*
X129523809Y-68947380D02*
X129476190Y-68995000D01*
X129476190Y-68995000D02*
X129380952Y-69042619D01*
X129380952Y-69042619D02*
X129095238Y-69042619D01*
X129095238Y-69042619D02*
X129000000Y-68995000D01*
X129000000Y-68995000D02*
X128952381Y-68947380D01*
D11*
X158583333Y-87542619D02*
X158250000Y-87066428D01*
X158011905Y-87542619D02*
X158011905Y-86542619D01*
X158011905Y-86542619D02*
X158392857Y-86542619D01*
X158392857Y-86542619D02*
X158488095Y-86590238D01*
X158488095Y-86590238D02*
X158535714Y-86637857D01*
X158535714Y-86637857D02*
X158583333Y-86733095D01*
X158583333Y-86733095D02*
X158583333Y-86875952D01*
X158583333Y-86875952D02*
X158535714Y-86971190D01*
X158535714Y-86971190D02*
X158488095Y-87018809D01*
X158488095Y-87018809D02*
X158392857Y-87066428D01*
X158392857Y-87066428D02*
X158011905Y-87066428D01*
X159535714Y-87542619D02*
X158964286Y-87542619D01*
X159250000Y-87542619D02*
X159250000Y-86542619D01*
X159250000Y-86542619D02*
X159154762Y-86685476D01*
X159154762Y-86685476D02*
X159059524Y-86780714D01*
X159059524Y-86780714D02*
X158964286Y-86828333D01*
X89582666Y-58212619D02*
X89582666Y-58926904D01*
X89582666Y-58926904D02*
X89535047Y-59069761D01*
X89535047Y-59069761D02*
X89439809Y-59165000D01*
X89439809Y-59165000D02*
X89296952Y-59212619D01*
X89296952Y-59212619D02*
X89201714Y-59212619D01*
X90487428Y-58545952D02*
X90487428Y-59212619D01*
X90249333Y-58165000D02*
X90011238Y-58879285D01*
X90011238Y-58879285D02*
X90630285Y-58879285D01*
X168743333Y-98847380D02*
X168695714Y-98895000D01*
X168695714Y-98895000D02*
X168552857Y-98942619D01*
X168552857Y-98942619D02*
X168457619Y-98942619D01*
X168457619Y-98942619D02*
X168314762Y-98895000D01*
X168314762Y-98895000D02*
X168219524Y-98799761D01*
X168219524Y-98799761D02*
X168171905Y-98704523D01*
X168171905Y-98704523D02*
X168124286Y-98514047D01*
X168124286Y-98514047D02*
X168124286Y-98371190D01*
X168124286Y-98371190D02*
X168171905Y-98180714D01*
X168171905Y-98180714D02*
X168219524Y-98085476D01*
X168219524Y-98085476D02*
X168314762Y-97990238D01*
X168314762Y-97990238D02*
X168457619Y-97942619D01*
X168457619Y-97942619D02*
X168552857Y-97942619D01*
X168552857Y-97942619D02*
X168695714Y-97990238D01*
X168695714Y-97990238D02*
X168743333Y-98037857D01*
X169600476Y-97942619D02*
X169410000Y-97942619D01*
X169410000Y-97942619D02*
X169314762Y-97990238D01*
X169314762Y-97990238D02*
X169267143Y-98037857D01*
X169267143Y-98037857D02*
X169171905Y-98180714D01*
X169171905Y-98180714D02*
X169124286Y-98371190D01*
X169124286Y-98371190D02*
X169124286Y-98752142D01*
X169124286Y-98752142D02*
X169171905Y-98847380D01*
X169171905Y-98847380D02*
X169219524Y-98895000D01*
X169219524Y-98895000D02*
X169314762Y-98942619D01*
X169314762Y-98942619D02*
X169505238Y-98942619D01*
X169505238Y-98942619D02*
X169600476Y-98895000D01*
X169600476Y-98895000D02*
X169648095Y-98847380D01*
X169648095Y-98847380D02*
X169695714Y-98752142D01*
X169695714Y-98752142D02*
X169695714Y-98514047D01*
X169695714Y-98514047D02*
X169648095Y-98418809D01*
X169648095Y-98418809D02*
X169600476Y-98371190D01*
X169600476Y-98371190D02*
X169505238Y-98323571D01*
X169505238Y-98323571D02*
X169314762Y-98323571D01*
X169314762Y-98323571D02*
X169219524Y-98371190D01*
X169219524Y-98371190D02*
X169171905Y-98418809D01*
X169171905Y-98418809D02*
X169124286Y-98514047D01*
D15*
X88929380Y-88138095D02*
X88119857Y-88138095D01*
X88119857Y-88138095D02*
X88024619Y-88185714D01*
X88024619Y-88185714D02*
X87977000Y-88233333D01*
X87977000Y-88233333D02*
X87929380Y-88328571D01*
X87929380Y-88328571D02*
X87929380Y-88519047D01*
X87929380Y-88519047D02*
X87977000Y-88614285D01*
X87977000Y-88614285D02*
X88024619Y-88661904D01*
X88024619Y-88661904D02*
X88119857Y-88709523D01*
X88119857Y-88709523D02*
X88929380Y-88709523D01*
X87929380Y-89709523D02*
X87929380Y-89138095D01*
X87929380Y-89423809D02*
X88929380Y-89423809D01*
X88929380Y-89423809D02*
X88786523Y-89328571D01*
X88786523Y-89328571D02*
X88691285Y-89233333D01*
X88691285Y-89233333D02*
X88643666Y-89138095D01*
X91340095Y-93662476D02*
X91340095Y-94138666D01*
X91054380Y-93567238D02*
X92054380Y-93900571D01*
X92054380Y-93900571D02*
X91054380Y-94233904D01*
X91721047Y-94567238D02*
X91054380Y-94567238D01*
X91625809Y-94567238D02*
X91673428Y-94614857D01*
X91673428Y-94614857D02*
X91721047Y-94710095D01*
X91721047Y-94710095D02*
X91721047Y-94852952D01*
X91721047Y-94852952D02*
X91673428Y-94948190D01*
X91673428Y-94948190D02*
X91578190Y-94995809D01*
X91578190Y-94995809D02*
X91054380Y-94995809D01*
X91721047Y-95329143D02*
X91721047Y-95710095D01*
X92054380Y-95472000D02*
X91197238Y-95472000D01*
X91197238Y-95472000D02*
X91102000Y-95519619D01*
X91102000Y-95519619D02*
X91054380Y-95614857D01*
X91054380Y-95614857D02*
X91054380Y-95710095D01*
X118237142Y-88092619D02*
X117903809Y-87616428D01*
X117665714Y-88092619D02*
X117665714Y-87092619D01*
X117665714Y-87092619D02*
X118046666Y-87092619D01*
X118046666Y-87092619D02*
X118141904Y-87140238D01*
X118141904Y-87140238D02*
X118189523Y-87187857D01*
X118189523Y-87187857D02*
X118237142Y-87283095D01*
X118237142Y-87283095D02*
X118237142Y-87425952D01*
X118237142Y-87425952D02*
X118189523Y-87521190D01*
X118189523Y-87521190D02*
X118141904Y-87568809D01*
X118141904Y-87568809D02*
X118046666Y-87616428D01*
X118046666Y-87616428D02*
X117665714Y-87616428D01*
X118570476Y-87092619D02*
X119237142Y-88092619D01*
X119237142Y-87092619D02*
X118570476Y-88092619D01*
X117094285Y-92220238D02*
X116999047Y-92172619D01*
X116999047Y-92172619D02*
X116856190Y-92172619D01*
X116856190Y-92172619D02*
X116713333Y-92220238D01*
X116713333Y-92220238D02*
X116618095Y-92315476D01*
X116618095Y-92315476D02*
X116570476Y-92410714D01*
X116570476Y-92410714D02*
X116522857Y-92601190D01*
X116522857Y-92601190D02*
X116522857Y-92744047D01*
X116522857Y-92744047D02*
X116570476Y-92934523D01*
X116570476Y-92934523D02*
X116618095Y-93029761D01*
X116618095Y-93029761D02*
X116713333Y-93125000D01*
X116713333Y-93125000D02*
X116856190Y-93172619D01*
X116856190Y-93172619D02*
X116951428Y-93172619D01*
X116951428Y-93172619D02*
X117094285Y-93125000D01*
X117094285Y-93125000D02*
X117141904Y-93077380D01*
X117141904Y-93077380D02*
X117141904Y-92744047D01*
X117141904Y-92744047D02*
X116951428Y-92744047D01*
X117570476Y-93172619D02*
X117570476Y-92172619D01*
X117570476Y-92172619D02*
X118141904Y-93172619D01*
X118141904Y-93172619D02*
X118141904Y-92172619D01*
X118618095Y-93172619D02*
X118618095Y-92172619D01*
X118618095Y-92172619D02*
X118856190Y-92172619D01*
X118856190Y-92172619D02*
X118999047Y-92220238D01*
X118999047Y-92220238D02*
X119094285Y-92315476D01*
X119094285Y-92315476D02*
X119141904Y-92410714D01*
X119141904Y-92410714D02*
X119189523Y-92601190D01*
X119189523Y-92601190D02*
X119189523Y-92744047D01*
X119189523Y-92744047D02*
X119141904Y-92934523D01*
X119141904Y-92934523D02*
X119094285Y-93029761D01*
X119094285Y-93029761D02*
X118999047Y-93125000D01*
X118999047Y-93125000D02*
X118856190Y-93172619D01*
X118856190Y-93172619D02*
X118618095Y-93172619D01*
X116618095Y-84552619D02*
X116951428Y-85552619D01*
X116951428Y-85552619D02*
X117284761Y-84552619D01*
X118189523Y-85457380D02*
X118141904Y-85505000D01*
X118141904Y-85505000D02*
X117999047Y-85552619D01*
X117999047Y-85552619D02*
X117903809Y-85552619D01*
X117903809Y-85552619D02*
X117760952Y-85505000D01*
X117760952Y-85505000D02*
X117665714Y-85409761D01*
X117665714Y-85409761D02*
X117618095Y-85314523D01*
X117618095Y-85314523D02*
X117570476Y-85124047D01*
X117570476Y-85124047D02*
X117570476Y-84981190D01*
X117570476Y-84981190D02*
X117618095Y-84790714D01*
X117618095Y-84790714D02*
X117665714Y-84695476D01*
X117665714Y-84695476D02*
X117760952Y-84600238D01*
X117760952Y-84600238D02*
X117903809Y-84552619D01*
X117903809Y-84552619D02*
X117999047Y-84552619D01*
X117999047Y-84552619D02*
X118141904Y-84600238D01*
X118141904Y-84600238D02*
X118189523Y-84647857D01*
X119189523Y-85457380D02*
X119141904Y-85505000D01*
X119141904Y-85505000D02*
X118999047Y-85552619D01*
X118999047Y-85552619D02*
X118903809Y-85552619D01*
X118903809Y-85552619D02*
X118760952Y-85505000D01*
X118760952Y-85505000D02*
X118665714Y-85409761D01*
X118665714Y-85409761D02*
X118618095Y-85314523D01*
X118618095Y-85314523D02*
X118570476Y-85124047D01*
X118570476Y-85124047D02*
X118570476Y-84981190D01*
X118570476Y-84981190D02*
X118618095Y-84790714D01*
X118618095Y-84790714D02*
X118665714Y-84695476D01*
X118665714Y-84695476D02*
X118760952Y-84600238D01*
X118760952Y-84600238D02*
X118903809Y-84552619D01*
X118903809Y-84552619D02*
X118999047Y-84552619D01*
X118999047Y-84552619D02*
X119141904Y-84600238D01*
X119141904Y-84600238D02*
X119189523Y-84647857D01*
X117760952Y-89632619D02*
X118332380Y-89632619D01*
X118046666Y-90632619D02*
X118046666Y-89632619D01*
X118570476Y-89632619D02*
X119237142Y-90632619D01*
X119237142Y-89632619D02*
X118570476Y-90632619D01*
D11*
X110804405Y-113577619D02*
X110804405Y-112577619D01*
X110804405Y-112577619D02*
X111042500Y-112577619D01*
X111042500Y-112577619D02*
X111185357Y-112625238D01*
X111185357Y-112625238D02*
X111280595Y-112720476D01*
X111280595Y-112720476D02*
X111328214Y-112815714D01*
X111328214Y-112815714D02*
X111375833Y-113006190D01*
X111375833Y-113006190D02*
X111375833Y-113149047D01*
X111375833Y-113149047D02*
X111328214Y-113339523D01*
X111328214Y-113339523D02*
X111280595Y-113434761D01*
X111280595Y-113434761D02*
X111185357Y-113530000D01*
X111185357Y-113530000D02*
X111042500Y-113577619D01*
X111042500Y-113577619D02*
X110804405Y-113577619D01*
X111756786Y-112672857D02*
X111804405Y-112625238D01*
X111804405Y-112625238D02*
X111899643Y-112577619D01*
X111899643Y-112577619D02*
X112137738Y-112577619D01*
X112137738Y-112577619D02*
X112232976Y-112625238D01*
X112232976Y-112625238D02*
X112280595Y-112672857D01*
X112280595Y-112672857D02*
X112328214Y-112768095D01*
X112328214Y-112768095D02*
X112328214Y-112863333D01*
X112328214Y-112863333D02*
X112280595Y-113006190D01*
X112280595Y-113006190D02*
X111709167Y-113577619D01*
X111709167Y-113577619D02*
X112328214Y-113577619D01*
X95464333Y-55866380D02*
X95416714Y-55914000D01*
X95416714Y-55914000D02*
X95273857Y-55961619D01*
X95273857Y-55961619D02*
X95178619Y-55961619D01*
X95178619Y-55961619D02*
X95035762Y-55914000D01*
X95035762Y-55914000D02*
X94940524Y-55818761D01*
X94940524Y-55818761D02*
X94892905Y-55723523D01*
X94892905Y-55723523D02*
X94845286Y-55533047D01*
X94845286Y-55533047D02*
X94845286Y-55390190D01*
X94845286Y-55390190D02*
X94892905Y-55199714D01*
X94892905Y-55199714D02*
X94940524Y-55104476D01*
X94940524Y-55104476D02*
X95035762Y-55009238D01*
X95035762Y-55009238D02*
X95178619Y-54961619D01*
X95178619Y-54961619D02*
X95273857Y-54961619D01*
X95273857Y-54961619D02*
X95416714Y-55009238D01*
X95416714Y-55009238D02*
X95464333Y-55056857D01*
X96369095Y-54961619D02*
X95892905Y-54961619D01*
X95892905Y-54961619D02*
X95845286Y-55437809D01*
X95845286Y-55437809D02*
X95892905Y-55390190D01*
X95892905Y-55390190D02*
X95988143Y-55342571D01*
X95988143Y-55342571D02*
X96226238Y-55342571D01*
X96226238Y-55342571D02*
X96321476Y-55390190D01*
X96321476Y-55390190D02*
X96369095Y-55437809D01*
X96369095Y-55437809D02*
X96416714Y-55533047D01*
X96416714Y-55533047D02*
X96416714Y-55771142D01*
X96416714Y-55771142D02*
X96369095Y-55866380D01*
X96369095Y-55866380D02*
X96321476Y-55914000D01*
X96321476Y-55914000D02*
X96226238Y-55961619D01*
X96226238Y-55961619D02*
X95988143Y-55961619D01*
X95988143Y-55961619D02*
X95892905Y-55914000D01*
X95892905Y-55914000D02*
X95845286Y-55866380D01*
X158583333Y-83732619D02*
X158250000Y-83256428D01*
X158011905Y-83732619D02*
X158011905Y-82732619D01*
X158011905Y-82732619D02*
X158392857Y-82732619D01*
X158392857Y-82732619D02*
X158488095Y-82780238D01*
X158488095Y-82780238D02*
X158535714Y-82827857D01*
X158535714Y-82827857D02*
X158583333Y-82923095D01*
X158583333Y-82923095D02*
X158583333Y-83065952D01*
X158583333Y-83065952D02*
X158535714Y-83161190D01*
X158535714Y-83161190D02*
X158488095Y-83208809D01*
X158488095Y-83208809D02*
X158392857Y-83256428D01*
X158392857Y-83256428D02*
X158011905Y-83256428D01*
X159488095Y-82732619D02*
X159011905Y-82732619D01*
X159011905Y-82732619D02*
X158964286Y-83208809D01*
X158964286Y-83208809D02*
X159011905Y-83161190D01*
X159011905Y-83161190D02*
X159107143Y-83113571D01*
X159107143Y-83113571D02*
X159345238Y-83113571D01*
X159345238Y-83113571D02*
X159440476Y-83161190D01*
X159440476Y-83161190D02*
X159488095Y-83208809D01*
X159488095Y-83208809D02*
X159535714Y-83304047D01*
X159535714Y-83304047D02*
X159535714Y-83542142D01*
X159535714Y-83542142D02*
X159488095Y-83637380D01*
X159488095Y-83637380D02*
X159440476Y-83685000D01*
X159440476Y-83685000D02*
X159345238Y-83732619D01*
X159345238Y-83732619D02*
X159107143Y-83732619D01*
X159107143Y-83732619D02*
X159011905Y-83685000D01*
X159011905Y-83685000D02*
X158964286Y-83637380D01*
X87296666Y-106352619D02*
X87296666Y-107066904D01*
X87296666Y-107066904D02*
X87249047Y-107209761D01*
X87249047Y-107209761D02*
X87153809Y-107305000D01*
X87153809Y-107305000D02*
X87010952Y-107352619D01*
X87010952Y-107352619D02*
X86915714Y-107352619D01*
X87725238Y-106447857D02*
X87772857Y-106400238D01*
X87772857Y-106400238D02*
X87868095Y-106352619D01*
X87868095Y-106352619D02*
X88106190Y-106352619D01*
X88106190Y-106352619D02*
X88201428Y-106400238D01*
X88201428Y-106400238D02*
X88249047Y-106447857D01*
X88249047Y-106447857D02*
X88296666Y-106543095D01*
X88296666Y-106543095D02*
X88296666Y-106638333D01*
X88296666Y-106638333D02*
X88249047Y-106781190D01*
X88249047Y-106781190D02*
X87677619Y-107352619D01*
X87677619Y-107352619D02*
X88296666Y-107352619D01*
X113534095Y-74026619D02*
X113534095Y-74836142D01*
X113534095Y-74836142D02*
X113581714Y-74931380D01*
X113581714Y-74931380D02*
X113629333Y-74979000D01*
X113629333Y-74979000D02*
X113724571Y-75026619D01*
X113724571Y-75026619D02*
X113915047Y-75026619D01*
X113915047Y-75026619D02*
X114010285Y-74979000D01*
X114010285Y-74979000D02*
X114057904Y-74931380D01*
X114057904Y-74931380D02*
X114105523Y-74836142D01*
X114105523Y-74836142D02*
X114105523Y-74026619D01*
X114486476Y-74026619D02*
X115105523Y-74026619D01*
X115105523Y-74026619D02*
X114772190Y-74407571D01*
X114772190Y-74407571D02*
X114915047Y-74407571D01*
X114915047Y-74407571D02*
X115010285Y-74455190D01*
X115010285Y-74455190D02*
X115057904Y-74502809D01*
X115057904Y-74502809D02*
X115105523Y-74598047D01*
X115105523Y-74598047D02*
X115105523Y-74836142D01*
X115105523Y-74836142D02*
X115057904Y-74931380D01*
X115057904Y-74931380D02*
X115010285Y-74979000D01*
X115010285Y-74979000D02*
X114915047Y-75026619D01*
X114915047Y-75026619D02*
X114629333Y-75026619D01*
X114629333Y-75026619D02*
X114534095Y-74979000D01*
X114534095Y-74979000D02*
X114486476Y-74931380D01*
D15*
X115557904Y-64701380D02*
X115034095Y-65368047D01*
X115557904Y-65368047D02*
X115034095Y-64701380D01*
X115557904Y-63501380D02*
X115034095Y-64168047D01*
X115557904Y-64168047D02*
X115034095Y-63501380D01*
X107433380Y-59702095D02*
X108100047Y-60225904D01*
X108100047Y-59702095D02*
X107433380Y-60225904D01*
X111033380Y-59702095D02*
X111700047Y-60225904D01*
X111700047Y-59702095D02*
X111033380Y-60225904D01*
X109833380Y-74902095D02*
X110500047Y-75425904D01*
X110500047Y-74902095D02*
X109833380Y-75425904D01*
X108633380Y-74902095D02*
X109300047Y-75425904D01*
X109300047Y-74902095D02*
X108633380Y-75425904D01*
X100357904Y-67101380D02*
X99834095Y-67768047D01*
X100357904Y-67768047D02*
X99834095Y-67101380D01*
X115557904Y-67301380D02*
X115034095Y-67968047D01*
X115557904Y-67968047D02*
X115034095Y-67301380D01*
X106033380Y-59702095D02*
X106700047Y-60225904D01*
X106700047Y-59702095D02*
X106033380Y-60225904D01*
X107433380Y-74902095D02*
X108100047Y-75425904D01*
X108100047Y-74902095D02*
X107433380Y-75425904D01*
X104833380Y-59702095D02*
X105500047Y-60225904D01*
X105500047Y-59702095D02*
X104833380Y-60225904D01*
X115557904Y-68501380D02*
X115034095Y-69168047D01*
X115557904Y-69168047D02*
X115034095Y-68501380D01*
X100357904Y-70901380D02*
X99834095Y-71568047D01*
X100357904Y-71568047D02*
X99834095Y-70901380D01*
X104833380Y-74902095D02*
X105500047Y-75425904D01*
X105500047Y-74902095D02*
X104833380Y-75425904D01*
X100357904Y-68501380D02*
X99834095Y-69168047D01*
X100357904Y-69168047D02*
X99834095Y-68501380D01*
X111233380Y-74902095D02*
X111900047Y-75425904D01*
X111900047Y-74902095D02*
X111233380Y-75425904D01*
X106033380Y-74902095D02*
X106700047Y-75425904D01*
X106700047Y-74902095D02*
X106033380Y-75425904D01*
X115557904Y-66101380D02*
X115034095Y-66768047D01*
X115557904Y-66768047D02*
X115034095Y-66101380D01*
X100357904Y-69701380D02*
X99834095Y-70368047D01*
X100357904Y-70368047D02*
X99834095Y-69701380D01*
X100357904Y-65901380D02*
X99834095Y-66568047D01*
X100357904Y-66568047D02*
X99834095Y-65901380D01*
D11*
X104872619Y-127809523D02*
X105586904Y-127809523D01*
X105586904Y-127809523D02*
X105729761Y-127857142D01*
X105729761Y-127857142D02*
X105825000Y-127952380D01*
X105825000Y-127952380D02*
X105872619Y-128095237D01*
X105872619Y-128095237D02*
X105872619Y-128190475D01*
X105872619Y-126809523D02*
X105872619Y-127380951D01*
X105872619Y-127095237D02*
X104872619Y-127095237D01*
X104872619Y-127095237D02*
X105015476Y-127190475D01*
X105015476Y-127190475D02*
X105110714Y-127285713D01*
X105110714Y-127285713D02*
X105158333Y-127380951D01*
X104967857Y-126428570D02*
X104920238Y-126380951D01*
X104920238Y-126380951D02*
X104872619Y-126285713D01*
X104872619Y-126285713D02*
X104872619Y-126047618D01*
X104872619Y-126047618D02*
X104920238Y-125952380D01*
X104920238Y-125952380D02*
X104967857Y-125904761D01*
X104967857Y-125904761D02*
X105063095Y-125857142D01*
X105063095Y-125857142D02*
X105158333Y-125857142D01*
X105158333Y-125857142D02*
X105301190Y-125904761D01*
X105301190Y-125904761D02*
X105872619Y-126476189D01*
X105872619Y-126476189D02*
X105872619Y-125857142D01*
X98766333Y-55739380D02*
X98718714Y-55787000D01*
X98718714Y-55787000D02*
X98575857Y-55834619D01*
X98575857Y-55834619D02*
X98480619Y-55834619D01*
X98480619Y-55834619D02*
X98337762Y-55787000D01*
X98337762Y-55787000D02*
X98242524Y-55691761D01*
X98242524Y-55691761D02*
X98194905Y-55596523D01*
X98194905Y-55596523D02*
X98147286Y-55406047D01*
X98147286Y-55406047D02*
X98147286Y-55263190D01*
X98147286Y-55263190D02*
X98194905Y-55072714D01*
X98194905Y-55072714D02*
X98242524Y-54977476D01*
X98242524Y-54977476D02*
X98337762Y-54882238D01*
X98337762Y-54882238D02*
X98480619Y-54834619D01*
X98480619Y-54834619D02*
X98575857Y-54834619D01*
X98575857Y-54834619D02*
X98718714Y-54882238D01*
X98718714Y-54882238D02*
X98766333Y-54929857D01*
X99623476Y-55167952D02*
X99623476Y-55834619D01*
X99385381Y-54787000D02*
X99147286Y-55501285D01*
X99147286Y-55501285D02*
X99766333Y-55501285D01*
X159258095Y-95122619D02*
X159258095Y-95932142D01*
X159258095Y-95932142D02*
X159305714Y-96027380D01*
X159305714Y-96027380D02*
X159353333Y-96075000D01*
X159353333Y-96075000D02*
X159448571Y-96122619D01*
X159448571Y-96122619D02*
X159639047Y-96122619D01*
X159639047Y-96122619D02*
X159734285Y-96075000D01*
X159734285Y-96075000D02*
X159781904Y-96027380D01*
X159781904Y-96027380D02*
X159829523Y-95932142D01*
X159829523Y-95932142D02*
X159829523Y-95122619D01*
X160734285Y-95455952D02*
X160734285Y-96122619D01*
X160496190Y-95075000D02*
X160258095Y-95789285D01*
X160258095Y-95789285D02*
X160877142Y-95789285D01*
X94922619Y-118443333D02*
X95636904Y-118443333D01*
X95636904Y-118443333D02*
X95779761Y-118490952D01*
X95779761Y-118490952D02*
X95875000Y-118586190D01*
X95875000Y-118586190D02*
X95922619Y-118729047D01*
X95922619Y-118729047D02*
X95922619Y-118824285D01*
X95922619Y-117919523D02*
X95922619Y-117729047D01*
X95922619Y-117729047D02*
X95875000Y-117633809D01*
X95875000Y-117633809D02*
X95827380Y-117586190D01*
X95827380Y-117586190D02*
X95684523Y-117490952D01*
X95684523Y-117490952D02*
X95494047Y-117443333D01*
X95494047Y-117443333D02*
X95113095Y-117443333D01*
X95113095Y-117443333D02*
X95017857Y-117490952D01*
X95017857Y-117490952D02*
X94970238Y-117538571D01*
X94970238Y-117538571D02*
X94922619Y-117633809D01*
X94922619Y-117633809D02*
X94922619Y-117824285D01*
X94922619Y-117824285D02*
X94970238Y-117919523D01*
X94970238Y-117919523D02*
X95017857Y-117967142D01*
X95017857Y-117967142D02*
X95113095Y-118014761D01*
X95113095Y-118014761D02*
X95351190Y-118014761D01*
X95351190Y-118014761D02*
X95446428Y-117967142D01*
X95446428Y-117967142D02*
X95494047Y-117919523D01*
X95494047Y-117919523D02*
X95541666Y-117824285D01*
X95541666Y-117824285D02*
X95541666Y-117633809D01*
X95541666Y-117633809D02*
X95494047Y-117538571D01*
X95494047Y-117538571D02*
X95446428Y-117490952D01*
X95446428Y-117490952D02*
X95351190Y-117443333D01*
X92172619Y-127809523D02*
X92886904Y-127809523D01*
X92886904Y-127809523D02*
X93029761Y-127857142D01*
X93029761Y-127857142D02*
X93125000Y-127952380D01*
X93125000Y-127952380D02*
X93172619Y-128095237D01*
X93172619Y-128095237D02*
X93172619Y-128190475D01*
X93172619Y-126809523D02*
X93172619Y-127380951D01*
X93172619Y-127095237D02*
X92172619Y-127095237D01*
X92172619Y-127095237D02*
X92315476Y-127190475D01*
X92315476Y-127190475D02*
X92410714Y-127285713D01*
X92410714Y-127285713D02*
X92458333Y-127380951D01*
X93172619Y-125857142D02*
X93172619Y-126428570D01*
X93172619Y-126142856D02*
X92172619Y-126142856D01*
X92172619Y-126142856D02*
X92315476Y-126238094D01*
X92315476Y-126238094D02*
X92410714Y-126333332D01*
X92410714Y-126333332D02*
X92458333Y-126428570D01*
D15*
X169418095Y-113262619D02*
X169418095Y-114072142D01*
X169418095Y-114072142D02*
X169465714Y-114167380D01*
X169465714Y-114167380D02*
X169513333Y-114215000D01*
X169513333Y-114215000D02*
X169608571Y-114262619D01*
X169608571Y-114262619D02*
X169799047Y-114262619D01*
X169799047Y-114262619D02*
X169894285Y-114215000D01*
X169894285Y-114215000D02*
X169941904Y-114167380D01*
X169941904Y-114167380D02*
X169989523Y-114072142D01*
X169989523Y-114072142D02*
X169989523Y-113262619D01*
X170894285Y-113262619D02*
X170703809Y-113262619D01*
X170703809Y-113262619D02*
X170608571Y-113310238D01*
X170608571Y-113310238D02*
X170560952Y-113357857D01*
X170560952Y-113357857D02*
X170465714Y-113500714D01*
X170465714Y-113500714D02*
X170418095Y-113691190D01*
X170418095Y-113691190D02*
X170418095Y-114072142D01*
X170418095Y-114072142D02*
X170465714Y-114167380D01*
X170465714Y-114167380D02*
X170513333Y-114215000D01*
X170513333Y-114215000D02*
X170608571Y-114262619D01*
X170608571Y-114262619D02*
X170799047Y-114262619D01*
X170799047Y-114262619D02*
X170894285Y-114215000D01*
X170894285Y-114215000D02*
X170941904Y-114167380D01*
X170941904Y-114167380D02*
X170989523Y-114072142D01*
X170989523Y-114072142D02*
X170989523Y-113834047D01*
X170989523Y-113834047D02*
X170941904Y-113738809D01*
X170941904Y-113738809D02*
X170894285Y-113691190D01*
X170894285Y-113691190D02*
X170799047Y-113643571D01*
X170799047Y-113643571D02*
X170608571Y-113643571D01*
X170608571Y-113643571D02*
X170513333Y-113691190D01*
X170513333Y-113691190D02*
X170465714Y-113738809D01*
X170465714Y-113738809D02*
X170418095Y-113834047D01*
D11*
X177808095Y-77844619D02*
X178379523Y-77844619D01*
X178093809Y-78844619D02*
X178093809Y-77844619D01*
X178712857Y-78844619D02*
X178712857Y-77844619D01*
X178712857Y-77844619D02*
X179093809Y-77844619D01*
X179093809Y-77844619D02*
X179189047Y-77892238D01*
X179189047Y-77892238D02*
X179236666Y-77939857D01*
X179236666Y-77939857D02*
X179284285Y-78035095D01*
X179284285Y-78035095D02*
X179284285Y-78177952D01*
X179284285Y-78177952D02*
X179236666Y-78273190D01*
X179236666Y-78273190D02*
X179189047Y-78320809D01*
X179189047Y-78320809D02*
X179093809Y-78368428D01*
X179093809Y-78368428D02*
X178712857Y-78368428D01*
X179617619Y-77844619D02*
X180236666Y-77844619D01*
X180236666Y-77844619D02*
X179903333Y-78225571D01*
X179903333Y-78225571D02*
X180046190Y-78225571D01*
X180046190Y-78225571D02*
X180141428Y-78273190D01*
X180141428Y-78273190D02*
X180189047Y-78320809D01*
X180189047Y-78320809D02*
X180236666Y-78416047D01*
X180236666Y-78416047D02*
X180236666Y-78654142D01*
X180236666Y-78654142D02*
X180189047Y-78749380D01*
X180189047Y-78749380D02*
X180141428Y-78797000D01*
X180141428Y-78797000D02*
X180046190Y-78844619D01*
X180046190Y-78844619D02*
X179760476Y-78844619D01*
X179760476Y-78844619D02*
X179665238Y-78797000D01*
X179665238Y-78797000D02*
X179617619Y-78749380D01*
X88733333Y-102657380D02*
X88685714Y-102705000D01*
X88685714Y-102705000D02*
X88542857Y-102752619D01*
X88542857Y-102752619D02*
X88447619Y-102752619D01*
X88447619Y-102752619D02*
X88304762Y-102705000D01*
X88304762Y-102705000D02*
X88209524Y-102609761D01*
X88209524Y-102609761D02*
X88161905Y-102514523D01*
X88161905Y-102514523D02*
X88114286Y-102324047D01*
X88114286Y-102324047D02*
X88114286Y-102181190D01*
X88114286Y-102181190D02*
X88161905Y-101990714D01*
X88161905Y-101990714D02*
X88209524Y-101895476D01*
X88209524Y-101895476D02*
X88304762Y-101800238D01*
X88304762Y-101800238D02*
X88447619Y-101752619D01*
X88447619Y-101752619D02*
X88542857Y-101752619D01*
X88542857Y-101752619D02*
X88685714Y-101800238D01*
X88685714Y-101800238D02*
X88733333Y-101847857D01*
X89114286Y-101847857D02*
X89161905Y-101800238D01*
X89161905Y-101800238D02*
X89257143Y-101752619D01*
X89257143Y-101752619D02*
X89495238Y-101752619D01*
X89495238Y-101752619D02*
X89590476Y-101800238D01*
X89590476Y-101800238D02*
X89638095Y-101847857D01*
X89638095Y-101847857D02*
X89685714Y-101943095D01*
X89685714Y-101943095D02*
X89685714Y-102038333D01*
X89685714Y-102038333D02*
X89638095Y-102181190D01*
X89638095Y-102181190D02*
X89066667Y-102752619D01*
X89066667Y-102752619D02*
X89685714Y-102752619D01*
X111313333Y-110402619D02*
X110980000Y-109926428D01*
X110741905Y-110402619D02*
X110741905Y-109402619D01*
X110741905Y-109402619D02*
X111122857Y-109402619D01*
X111122857Y-109402619D02*
X111218095Y-109450238D01*
X111218095Y-109450238D02*
X111265714Y-109497857D01*
X111265714Y-109497857D02*
X111313333Y-109593095D01*
X111313333Y-109593095D02*
X111313333Y-109735952D01*
X111313333Y-109735952D02*
X111265714Y-109831190D01*
X111265714Y-109831190D02*
X111218095Y-109878809D01*
X111218095Y-109878809D02*
X111122857Y-109926428D01*
X111122857Y-109926428D02*
X110741905Y-109926428D01*
X111789524Y-110402619D02*
X111980000Y-110402619D01*
X111980000Y-110402619D02*
X112075238Y-110355000D01*
X112075238Y-110355000D02*
X112122857Y-110307380D01*
X112122857Y-110307380D02*
X112218095Y-110164523D01*
X112218095Y-110164523D02*
X112265714Y-109974047D01*
X112265714Y-109974047D02*
X112265714Y-109593095D01*
X112265714Y-109593095D02*
X112218095Y-109497857D01*
X112218095Y-109497857D02*
X112170476Y-109450238D01*
X112170476Y-109450238D02*
X112075238Y-109402619D01*
X112075238Y-109402619D02*
X111884762Y-109402619D01*
X111884762Y-109402619D02*
X111789524Y-109450238D01*
X111789524Y-109450238D02*
X111741905Y-109497857D01*
X111741905Y-109497857D02*
X111694286Y-109593095D01*
X111694286Y-109593095D02*
X111694286Y-109831190D01*
X111694286Y-109831190D02*
X111741905Y-109926428D01*
X111741905Y-109926428D02*
X111789524Y-109974047D01*
X111789524Y-109974047D02*
X111884762Y-110021666D01*
X111884762Y-110021666D02*
X112075238Y-110021666D01*
X112075238Y-110021666D02*
X112170476Y-109974047D01*
X112170476Y-109974047D02*
X112218095Y-109926428D01*
X112218095Y-109926428D02*
X112265714Y-109831190D01*
X160133333Y-60872619D02*
X159800000Y-60396428D01*
X159561905Y-60872619D02*
X159561905Y-59872619D01*
X159561905Y-59872619D02*
X159942857Y-59872619D01*
X159942857Y-59872619D02*
X160038095Y-59920238D01*
X160038095Y-59920238D02*
X160085714Y-59967857D01*
X160085714Y-59967857D02*
X160133333Y-60063095D01*
X160133333Y-60063095D02*
X160133333Y-60205952D01*
X160133333Y-60205952D02*
X160085714Y-60301190D01*
X160085714Y-60301190D02*
X160038095Y-60348809D01*
X160038095Y-60348809D02*
X159942857Y-60396428D01*
X159942857Y-60396428D02*
X159561905Y-60396428D01*
X160990476Y-59872619D02*
X160800000Y-59872619D01*
X160800000Y-59872619D02*
X160704762Y-59920238D01*
X160704762Y-59920238D02*
X160657143Y-59967857D01*
X160657143Y-59967857D02*
X160561905Y-60110714D01*
X160561905Y-60110714D02*
X160514286Y-60301190D01*
X160514286Y-60301190D02*
X160514286Y-60682142D01*
X160514286Y-60682142D02*
X160561905Y-60777380D01*
X160561905Y-60777380D02*
X160609524Y-60825000D01*
X160609524Y-60825000D02*
X160704762Y-60872619D01*
X160704762Y-60872619D02*
X160895238Y-60872619D01*
X160895238Y-60872619D02*
X160990476Y-60825000D01*
X160990476Y-60825000D02*
X161038095Y-60777380D01*
X161038095Y-60777380D02*
X161085714Y-60682142D01*
X161085714Y-60682142D02*
X161085714Y-60444047D01*
X161085714Y-60444047D02*
X161038095Y-60348809D01*
X161038095Y-60348809D02*
X160990476Y-60301190D01*
X160990476Y-60301190D02*
X160895238Y-60253571D01*
X160895238Y-60253571D02*
X160704762Y-60253571D01*
X160704762Y-60253571D02*
X160609524Y-60301190D01*
X160609524Y-60301190D02*
X160561905Y-60348809D01*
X160561905Y-60348809D02*
X160514286Y-60444047D01*
X107622619Y-118919523D02*
X108336904Y-118919523D01*
X108336904Y-118919523D02*
X108479761Y-118967142D01*
X108479761Y-118967142D02*
X108575000Y-119062380D01*
X108575000Y-119062380D02*
X108622619Y-119205237D01*
X108622619Y-119205237D02*
X108622619Y-119300475D01*
X108622619Y-117919523D02*
X108622619Y-118490951D01*
X108622619Y-118205237D02*
X107622619Y-118205237D01*
X107622619Y-118205237D02*
X107765476Y-118300475D01*
X107765476Y-118300475D02*
X107860714Y-118395713D01*
X107860714Y-118395713D02*
X107908333Y-118490951D01*
X107622619Y-117300475D02*
X107622619Y-117205237D01*
X107622619Y-117205237D02*
X107670238Y-117109999D01*
X107670238Y-117109999D02*
X107717857Y-117062380D01*
X107717857Y-117062380D02*
X107813095Y-117014761D01*
X107813095Y-117014761D02*
X108003571Y-116967142D01*
X108003571Y-116967142D02*
X108241666Y-116967142D01*
X108241666Y-116967142D02*
X108432142Y-117014761D01*
X108432142Y-117014761D02*
X108527380Y-117062380D01*
X108527380Y-117062380D02*
X108575000Y-117109999D01*
X108575000Y-117109999D02*
X108622619Y-117205237D01*
X108622619Y-117205237D02*
X108622619Y-117300475D01*
X108622619Y-117300475D02*
X108575000Y-117395713D01*
X108575000Y-117395713D02*
X108527380Y-117443332D01*
X108527380Y-117443332D02*
X108432142Y-117490951D01*
X108432142Y-117490951D02*
X108241666Y-117538570D01*
X108241666Y-117538570D02*
X108003571Y-117538570D01*
X108003571Y-117538570D02*
X107813095Y-117490951D01*
X107813095Y-117490951D02*
X107717857Y-117443332D01*
X107717857Y-117443332D02*
X107670238Y-117395713D01*
X107670238Y-117395713D02*
X107622619Y-117300475D01*
X134717619Y-127333333D02*
X135431904Y-127333333D01*
X135431904Y-127333333D02*
X135574761Y-127380952D01*
X135574761Y-127380952D02*
X135670000Y-127476190D01*
X135670000Y-127476190D02*
X135717619Y-127619047D01*
X135717619Y-127619047D02*
X135717619Y-127714285D01*
X134717619Y-126428571D02*
X134717619Y-126619047D01*
X134717619Y-126619047D02*
X134765238Y-126714285D01*
X134765238Y-126714285D02*
X134812857Y-126761904D01*
X134812857Y-126761904D02*
X134955714Y-126857142D01*
X134955714Y-126857142D02*
X135146190Y-126904761D01*
X135146190Y-126904761D02*
X135527142Y-126904761D01*
X135527142Y-126904761D02*
X135622380Y-126857142D01*
X135622380Y-126857142D02*
X135670000Y-126809523D01*
X135670000Y-126809523D02*
X135717619Y-126714285D01*
X135717619Y-126714285D02*
X135717619Y-126523809D01*
X135717619Y-126523809D02*
X135670000Y-126428571D01*
X135670000Y-126428571D02*
X135622380Y-126380952D01*
X135622380Y-126380952D02*
X135527142Y-126333333D01*
X135527142Y-126333333D02*
X135289047Y-126333333D01*
X135289047Y-126333333D02*
X135193809Y-126380952D01*
X135193809Y-126380952D02*
X135146190Y-126428571D01*
X135146190Y-126428571D02*
X135098571Y-126523809D01*
X135098571Y-126523809D02*
X135098571Y-126714285D01*
X135098571Y-126714285D02*
X135146190Y-126809523D01*
X135146190Y-126809523D02*
X135193809Y-126857142D01*
X135193809Y-126857142D02*
X135289047Y-126904761D01*
D15*
X157480000Y-64690000D02*
X169480000Y-64690000D01*
X169480000Y-64690000D02*
X169480000Y-80090000D01*
X169480000Y-80090000D02*
X157480000Y-80090000D01*
X157480000Y-80090000D02*
X157480000Y-64690000D01*
D16*
X168195436Y-103420000D02*
X169649564Y-103420000D01*
X168195436Y-105240000D02*
X169649564Y-105240000D01*
X165287936Y-61320000D02*
X166742064Y-61320000D01*
X165287936Y-63140000D02*
X166742064Y-63140000D01*
X96382500Y-113800000D02*
X96382500Y-116070000D01*
X96382500Y-116070000D02*
X100442500Y-116070000D01*
X100442500Y-113800000D02*
X96382500Y-113800000D01*
X172142500Y-90570000D02*
X173472500Y-90570000D01*
X172142500Y-91900000D02*
X172142500Y-90570000D01*
X172142500Y-93170000D02*
X172142500Y-95770000D01*
X172142500Y-93170000D02*
X174802500Y-93170000D01*
X172142500Y-95770000D02*
X174802500Y-95770000D01*
X174802500Y-93170000D02*
X174802500Y-95770000D01*
X138762500Y-114010000D02*
X137087500Y-114010000D01*
X138762500Y-114010000D02*
X139412500Y-114010000D01*
X138762500Y-117130000D02*
X138112500Y-117130000D01*
X138762500Y-117130000D02*
X139412500Y-117130000D01*
X127250000Y-54000000D02*
G75*
G03*
X127250000Y-54000000I-1750000J0D01*
G01*
X118372936Y-108945000D02*
X119827064Y-108945000D01*
X118372936Y-110765000D02*
X119827064Y-110765000D01*
X120295000Y-128965000D02*
X120295000Y-120145000D01*
X120605000Y-128965000D02*
X120295000Y-128965000D01*
X124815000Y-128965000D02*
X124505000Y-128965000D01*
X119595000Y-127055000D02*
X120095000Y-126555000D01*
X120095000Y-126555000D02*
X119595000Y-126055000D01*
X119595000Y-126055000D02*
X119595000Y-127055000D01*
X120295000Y-120145000D02*
X120605000Y-120145000D01*
X124815000Y-120145000D02*
X124815000Y-128965000D01*
X124815000Y-120145000D02*
X124505000Y-120145000D01*
X168195436Y-94530000D02*
X169649564Y-94530000D01*
X168195436Y-96350000D02*
X169649564Y-96350000D01*
X98011064Y-64410000D02*
X96806936Y-64410000D01*
X98011064Y-62590000D02*
X96806936Y-62590000D01*
X181320000Y-66040000D02*
G75*
G03*
X181320000Y-66040000I-2250000J0D01*
G01*
X172142500Y-99460000D02*
X173472500Y-99460000D01*
X172142500Y-100790000D02*
X172142500Y-99460000D01*
X172142500Y-102060000D02*
X172142500Y-104660000D01*
X172142500Y-102060000D02*
X174802500Y-102060000D01*
X172142500Y-104660000D02*
X174802500Y-104660000D01*
X174802500Y-102060000D02*
X174802500Y-104660000D01*
X159292936Y-103865000D02*
X160747064Y-103865000D01*
X159292936Y-105685000D02*
X160747064Y-105685000D01*
X147320000Y-123190000D02*
X147320000Y-130810000D01*
X147320000Y-130810000D02*
X157480000Y-130810000D01*
X157480000Y-123190000D02*
X147320000Y-123190000D01*
X157480000Y-129540000D02*
X147320000Y-129540000D01*
X157480000Y-130810000D02*
X157480000Y-123190000D01*
X144735000Y-57210000D02*
X144735000Y-55880000D01*
X146065000Y-57210000D02*
X144735000Y-57210000D01*
X147335000Y-57210000D02*
X152475000Y-57210000D01*
X147335000Y-57210000D02*
X147335000Y-54550000D01*
X152475000Y-57210000D02*
X152475000Y-54550000D01*
X147335000Y-54550000D02*
X152475000Y-54550000D01*
X116702500Y-104910000D02*
X116702500Y-107180000D01*
X116702500Y-107180000D02*
X120762500Y-107180000D01*
X120762500Y-104910000D02*
X116702500Y-104910000D01*
X116184000Y-70307252D02*
X116184000Y-68884748D01*
X118004000Y-70307252D02*
X118004000Y-68884748D01*
X168198748Y-90530000D02*
X169621252Y-90530000D01*
X168198748Y-92350000D02*
X169621252Y-92350000D01*
X119105000Y-70307252D02*
X119105000Y-68884748D01*
X120925000Y-70307252D02*
X120925000Y-68884748D01*
X97730000Y-102810000D02*
X99060000Y-102810000D01*
X97730000Y-104140000D02*
X97730000Y-102810000D01*
X97730000Y-105410000D02*
X97730000Y-108010000D01*
X97730000Y-105410000D02*
X100390000Y-105410000D01*
X97730000Y-108010000D02*
X100390000Y-108010000D01*
X100390000Y-105410000D02*
X100390000Y-108010000D01*
X98052936Y-110850000D02*
X99507064Y-110850000D01*
X98052936Y-112670000D02*
X99507064Y-112670000D01*
X168081000Y-54296000D02*
X168081000Y-55626000D01*
X166751000Y-54296000D02*
X168081000Y-54296000D01*
X165481000Y-54296000D02*
X157801000Y-54296000D01*
X165481000Y-54296000D02*
X165481000Y-56956000D01*
X157801000Y-54296000D02*
X157801000Y-56956000D01*
X165481000Y-56956000D02*
X157801000Y-56956000D01*
X127915000Y-128965000D02*
X127915000Y-120145000D01*
X128225000Y-128965000D02*
X127915000Y-128965000D01*
X132435000Y-128965000D02*
X132125000Y-128965000D01*
X127215000Y-127055000D02*
X127715000Y-126555000D01*
X127715000Y-126555000D02*
X127215000Y-126055000D01*
X127215000Y-126055000D02*
X127215000Y-127055000D01*
X127915000Y-120145000D02*
X128225000Y-120145000D01*
X132435000Y-120145000D02*
X132435000Y-128965000D01*
X132435000Y-120145000D02*
X132125000Y-120145000D01*
D15*
X134620000Y-58420000D02*
X135720000Y-58420000D01*
X136120000Y-58420000D02*
X137220000Y-58420000D01*
X137620000Y-58420000D02*
X138720000Y-58420000D01*
X139120000Y-58420000D02*
X140220000Y-58420000D01*
X140620000Y-58420000D02*
X141720000Y-58420000D01*
X142120000Y-58420000D02*
X142240000Y-58420000D01*
X142240000Y-58420000D02*
X142240000Y-59520000D01*
X142240000Y-59920000D02*
X142240000Y-61020000D01*
X142240000Y-61420000D02*
X142240000Y-62230000D01*
X142240000Y-62230000D02*
X141140000Y-62230000D01*
X140740000Y-62230000D02*
X139640000Y-62230000D01*
X139240000Y-62230000D02*
X138140000Y-62230000D01*
X137740000Y-62230000D02*
X136640000Y-62230000D01*
X136240000Y-62230000D02*
X135140000Y-62230000D01*
X134740000Y-62230000D02*
X134620000Y-62230000D01*
X134620000Y-62230000D02*
X134620000Y-61130000D01*
X134620000Y-60730000D02*
X134620000Y-59630000D01*
X134620000Y-59230000D02*
X134620000Y-58420000D01*
X153670000Y-111760000D02*
X123190000Y-111760000D01*
X123190000Y-111760000D02*
X123190000Y-58420000D01*
X123190000Y-58420000D02*
X153670000Y-58420000D01*
X153670000Y-58420000D02*
X153670000Y-111760000D01*
D16*
X158022936Y-87990000D02*
X159477064Y-87990000D01*
X158022936Y-89810000D02*
X159477064Y-89810000D01*
X86236000Y-61700000D02*
X86236000Y-65300000D01*
X88116000Y-59820000D02*
X91716000Y-59820000D01*
X88116000Y-67180000D02*
X91716000Y-67180000D01*
X93596000Y-61700000D02*
X93596000Y-65300000D01*
X168198748Y-99420000D02*
X169621252Y-99420000D01*
X168198748Y-101240000D02*
X169621252Y-101240000D01*
D15*
X121920000Y-76200000D02*
X86360000Y-76200000D01*
X86360000Y-76200000D02*
X86360000Y-101600000D01*
X86360000Y-101600000D02*
X121920000Y-101600000D01*
X121920000Y-101600000D02*
X121920000Y-76200000D01*
X90570000Y-93110000D02*
X88030000Y-93110000D01*
X88030000Y-93110000D02*
X88030000Y-96190000D01*
X88030000Y-96190000D02*
X90570000Y-96190000D01*
X90570000Y-96190000D02*
X90570000Y-93110000D01*
D17*
X89425000Y-94650000D02*
G75*
G03*
X89425000Y-94650000I-125000J0D01*
G01*
D15*
X90300000Y-94650000D02*
G75*
G03*
X90300000Y-94650000I-1000000J0D01*
G01*
D16*
X109082500Y-113800000D02*
X109082500Y-116070000D01*
X109082500Y-116070000D02*
X113142500Y-116070000D01*
X113142500Y-113800000D02*
X109082500Y-113800000D01*
X94848000Y-59385252D02*
X94848000Y-57962748D01*
X96668000Y-59385252D02*
X96668000Y-57962748D01*
X158022936Y-84180000D02*
X159477064Y-84180000D01*
X158022936Y-86000000D02*
X159477064Y-86000000D01*
X86300000Y-107890000D02*
X87630000Y-107890000D01*
X86300000Y-109220000D02*
X86300000Y-107890000D01*
X86300000Y-110490000D02*
X86300000Y-118170000D01*
X86300000Y-110490000D02*
X88960000Y-110490000D01*
X86300000Y-118170000D02*
X88960000Y-118170000D01*
X88960000Y-110490000D02*
X88960000Y-118170000D01*
D11*
X113696000Y-73564000D02*
X101696000Y-73564000D01*
X113696000Y-61564000D02*
X113696000Y-73564000D01*
X101696000Y-73564000D02*
X101696000Y-61564000D01*
X101696000Y-61564000D02*
X113696000Y-61564000D01*
D18*
X114894676Y-72724000D02*
G75*
G03*
X114894676Y-72724000I-218676J0D01*
G01*
D16*
X106045000Y-123190000D02*
X106045000Y-130810000D01*
X106045000Y-130810000D02*
X116205000Y-130810000D01*
X116205000Y-123190000D02*
X106045000Y-123190000D01*
X116205000Y-129540000D02*
X106045000Y-129540000D01*
X116205000Y-130810000D02*
X116205000Y-123190000D01*
X98023000Y-59385252D02*
X98023000Y-57962748D01*
X99843000Y-59385252D02*
X99843000Y-57962748D01*
X160020000Y-96500000D02*
X156570000Y-96500000D01*
X160020000Y-96500000D02*
X161970000Y-96500000D01*
X160020000Y-101620000D02*
X158070000Y-101620000D01*
X160020000Y-101620000D02*
X161970000Y-101620000D01*
X96460000Y-119440000D02*
X96460000Y-118110000D01*
X97790000Y-119440000D02*
X96460000Y-119440000D01*
X99060000Y-119440000D02*
X101660000Y-119440000D01*
X99060000Y-119440000D02*
X99060000Y-116780000D01*
X101660000Y-119440000D02*
X101660000Y-116780000D01*
X99060000Y-116780000D02*
X101660000Y-116780000D01*
X93980000Y-123190000D02*
X93980000Y-130810000D01*
X93980000Y-130810000D02*
X104140000Y-130810000D01*
X104140000Y-123190000D02*
X93980000Y-123190000D01*
X104140000Y-129540000D02*
X93980000Y-129540000D01*
X104140000Y-130810000D02*
X104140000Y-123190000D01*
D15*
X160680000Y-107300000D02*
X179680000Y-107300000D01*
X179680000Y-107300000D02*
X179680000Y-121300000D01*
X179680000Y-121300000D02*
X160680000Y-121300000D01*
X160680000Y-121300000D02*
X160680000Y-107300000D01*
D16*
X181320000Y-81280000D02*
G75*
G03*
X181320000Y-81280000I-2250000J0D01*
G01*
X88188748Y-103230000D02*
X89611252Y-103230000D01*
X88188748Y-105050000D02*
X89611252Y-105050000D01*
X110752936Y-110850000D02*
X112207064Y-110850000D01*
X110752936Y-112670000D02*
X112207064Y-112670000D01*
X159572936Y-61320000D02*
X161027064Y-61320000D01*
X159572936Y-63140000D02*
X161027064Y-63140000D01*
X109160000Y-119440000D02*
X109160000Y-118110000D01*
X110490000Y-119440000D02*
X109160000Y-119440000D01*
X111760000Y-119440000D02*
X114360000Y-119440000D01*
X111760000Y-119440000D02*
X111760000Y-116780000D01*
X114360000Y-119440000D02*
X114360000Y-116780000D01*
X111760000Y-116780000D02*
X114360000Y-116780000D01*
X135890000Y-123190000D02*
X135890000Y-130810000D01*
X135890000Y-130810000D02*
X146050000Y-130810000D01*
X146050000Y-123190000D02*
X135890000Y-123190000D01*
X146050000Y-129540000D02*
X135890000Y-129540000D01*
X146050000Y-130810000D02*
X146050000Y-123190000D01*
%LPC*%
D19*
X166380000Y-67310000D03*
X166380000Y-77470000D03*
D20*
X158750000Y-66040000D03*
D21*
X158750000Y-68580000D03*
X158750000Y-71120000D03*
X158750000Y-73660000D03*
X158750000Y-76200000D03*
X158750000Y-78740000D03*
D22*
X167372500Y-104330000D03*
X170472500Y-104330000D03*
X164465000Y-62230000D03*
X167565000Y-62230000D03*
D23*
X97355000Y-114935000D03*
X100330000Y-114935000D03*
D24*
X173472500Y-91900000D03*
D25*
X173472500Y-94440000D03*
D26*
X137825000Y-114620000D03*
X137825000Y-116520000D03*
X139700000Y-115570000D03*
D27*
X125500000Y-54000000D03*
D22*
X117550000Y-109855000D03*
X120650000Y-109855000D03*
D28*
X122555000Y-128655000D03*
X122555000Y-120455000D03*
D29*
X122555000Y-126555000D03*
D30*
X122555000Y-124555000D03*
X122555000Y-122555000D03*
D22*
X167372500Y-95440000D03*
X170472500Y-95440000D03*
D31*
X98896500Y-63500000D03*
X95921500Y-63500000D03*
D32*
X179070000Y-66040000D03*
D24*
X173472500Y-100790000D03*
D25*
X173472500Y-103330000D03*
D22*
X158470000Y-104775000D03*
X161570000Y-104775000D03*
D33*
X149860000Y-127000000D03*
D27*
X154940000Y-127000000D03*
D24*
X146065000Y-55880000D03*
D25*
X148605000Y-55880000D03*
X151145000Y-55880000D03*
D23*
X117675000Y-106045000D03*
X120650000Y-106045000D03*
D34*
X117094000Y-71158500D03*
X117094000Y-68033500D03*
D35*
X167347500Y-91440000D03*
X170472500Y-91440000D03*
D34*
X120015000Y-71158500D03*
X120015000Y-68033500D03*
D24*
X99060000Y-104140000D03*
D25*
X99060000Y-106680000D03*
D22*
X97230000Y-111760000D03*
X100330000Y-111760000D03*
D36*
X88900000Y-129540000D03*
X180340000Y-129540000D03*
D24*
X166751000Y-55626000D03*
D25*
X164211000Y-55626000D03*
X161671000Y-55626000D03*
X159131000Y-55626000D03*
D28*
X130175000Y-128655000D03*
X130175000Y-120455000D03*
D29*
X130175000Y-126555000D03*
D30*
X130175000Y-124555000D03*
X130175000Y-122555000D03*
D37*
X125730000Y-68580000D03*
X125730000Y-71120000D03*
X125730000Y-73660000D03*
X125730000Y-76200000D03*
X125730000Y-78740000D03*
X125730000Y-81280000D03*
X125730000Y-83820000D03*
X125730000Y-86360000D03*
X125730000Y-88900000D03*
X125730000Y-91440000D03*
X125730000Y-93980000D03*
X125730000Y-96520000D03*
X125730000Y-99060000D03*
X125730000Y-101600000D03*
X125730000Y-104140000D03*
X151130000Y-104140000D03*
X151130000Y-101600000D03*
X151130000Y-99060000D03*
X151130000Y-96520000D03*
X151130000Y-93980000D03*
X151130000Y-91440000D03*
X151130000Y-88900000D03*
X151130000Y-86360000D03*
X151130000Y-83820000D03*
X151130000Y-81280000D03*
X151130000Y-78740000D03*
X151130000Y-76200000D03*
X151130000Y-73660000D03*
X151130000Y-71120000D03*
X151130000Y-68580000D03*
D22*
X157200000Y-88900000D03*
X160300000Y-88900000D03*
D27*
X179705000Y-92685000D03*
D38*
X89916000Y-63500000D03*
D39*
X87376000Y-60960000D03*
X87376000Y-66040000D03*
X92456000Y-60960000D03*
X92456000Y-66040000D03*
D35*
X167347500Y-100330000D03*
X170472500Y-100330000D03*
D19*
X119380000Y-78740000D03*
X88900000Y-78740000D03*
X119380000Y-99060000D03*
X88900000Y-99060000D03*
D40*
X120650000Y-85090000D03*
D21*
X120650000Y-87630000D03*
X120650000Y-90170000D03*
X120650000Y-92710000D03*
D23*
X110055000Y-114935000D03*
X113030000Y-114935000D03*
D36*
X180340000Y-49530000D03*
D34*
X95758000Y-60236500D03*
X95758000Y-57111500D03*
D22*
X157200000Y-85090000D03*
X160300000Y-85090000D03*
D24*
X87630000Y-109220000D03*
D25*
X87630000Y-111760000D03*
X87630000Y-114300000D03*
X87630000Y-116840000D03*
D41*
X113696000Y-71314000D03*
X113696000Y-70064000D03*
X113696000Y-68814000D03*
X113696000Y-67564000D03*
X113696000Y-66314000D03*
X113696000Y-65064000D03*
X113696000Y-63814000D03*
D42*
X111446000Y-61564000D03*
X110196000Y-61564000D03*
X108946000Y-61564000D03*
X107696000Y-61564000D03*
X106446000Y-61564000D03*
X105196000Y-61564000D03*
X103946000Y-61564000D03*
D41*
X101696000Y-63814000D03*
X101696000Y-65064000D03*
X101696000Y-66314000D03*
X101696000Y-67564000D03*
X101696000Y-68814000D03*
X101696000Y-70064000D03*
X101696000Y-71314000D03*
D42*
X103946000Y-73564000D03*
X105196000Y-73564000D03*
X106446000Y-73564000D03*
X107696000Y-73564000D03*
X108946000Y-73564000D03*
X110196000Y-73564000D03*
X111446000Y-73564000D03*
D33*
X108585000Y-127000000D03*
D27*
X113665000Y-127000000D03*
D34*
X98933000Y-60236500D03*
X98933000Y-57111500D03*
D43*
X157545000Y-97155000D03*
X157545000Y-98425000D03*
X157545000Y-99695000D03*
X157545000Y-100965000D03*
X162495000Y-100965000D03*
X162495000Y-99695000D03*
X162495000Y-98425000D03*
X162495000Y-97155000D03*
D24*
X97790000Y-118110000D03*
D25*
X100330000Y-118110000D03*
D33*
X96520000Y-127000000D03*
D27*
X101600000Y-127000000D03*
D44*
X160680000Y-108550000D03*
X160680000Y-118050000D03*
X160680000Y-120300000D03*
X179680000Y-108550000D03*
X179680000Y-117300000D03*
D32*
X179070000Y-81280000D03*
D35*
X87337500Y-104140000D03*
X90462500Y-104140000D03*
D22*
X109930000Y-111760000D03*
X113030000Y-111760000D03*
X158750000Y-62230000D03*
X161850000Y-62230000D03*
D27*
X179705000Y-102235000D03*
D24*
X110490000Y-118110000D03*
D25*
X113030000Y-118110000D03*
D33*
X138430000Y-127000000D03*
D27*
X143510000Y-127000000D03*
D36*
X88900000Y-49530000D03*
%LPD*%
M02*
