M48
; DRILL file {KiCad 7.0.2} date Fri May 19 21:17:51 2023
; FORMAT={-:-/ absolute / metric / decimal}
; #@! TF.CreationDate,2023-05-19T21:17:51-06:00
; #@! TF.GenerationSoftware,Kicad,Pcbnew,7.0.2
; #@! TF.FileFunction,Plated,1,2,PTH
FMAT,2
METRIC
; #@! TA.AperFunction,Plated,PTH,ViaDrill
T1C0.400
; #@! TA.AperFunction,Plated,PTH,ComponentDrill
T2C0.460
; #@! TA.AperFunction,Plated,PTH,ComponentDrill
T3C0.762
; #@! TA.AperFunction,Plated,PTH,ComponentDrill
T4C0.800
; #@! TA.AperFunction,Plated,PTH,ComponentDrill
T5C1.000
; #@! TA.AperFunction,Plated,PTH,ComponentDrill
T6C1.500
; #@! TA.AperFunction,Plated,PTH,ComponentDrill
T7C1.520
; #@! TA.AperFunction,Plated,PTH,ComponentDrill
T8C3.200
%
G90
G05
T1
X99.822Y-88.392
X112.141Y-99.568
X121.285Y-80.391
X124.841Y-60.833
X127.889Y-62.738
X131.191Y-118.872
X132.207Y-76.581
X133.985Y-70.739
X137.795Y-114.554
X139.192Y-106.172
X149.733Y-105.664
X157.226Y-88.9
X160.401Y-89.027
X162.495Y-97.155
X163.068Y-92.748
X167.347Y-100.33
X179.705Y-108.585
T2
X92.854Y-56.453
X92.854Y-65.213
T3
X125.73Y-68.58
X125.73Y-71.12
X125.73Y-73.66
X125.73Y-76.2
X125.73Y-78.74
X125.73Y-81.28
X125.73Y-83.82
X125.73Y-86.36
X125.73Y-88.9
X125.73Y-91.44
X125.73Y-93.98
X125.73Y-96.52
X125.73Y-99.06
X125.73Y-101.6
X125.73Y-104.14
X151.13Y-68.58
X151.13Y-71.12
X151.13Y-73.66
X151.13Y-76.2
X151.13Y-78.74
X151.13Y-81.28
X151.13Y-83.82
X151.13Y-86.36
X151.13Y-88.9
X151.13Y-91.44
X151.13Y-93.98
X151.13Y-96.52
X151.13Y-99.06
X151.13Y-101.6
X151.13Y-104.14
T4
X120.65Y-124.02
X120.65Y-126.02
X120.65Y-128.02
X128.27Y-124.02
X128.27Y-126.02
X128.27Y-128.02
T5
X87.63Y-109.22
X87.63Y-111.76
X87.63Y-114.3
X87.63Y-116.84
X97.79Y-116.84
X99.06Y-104.14
X99.06Y-106.68
X100.33Y-116.84
X110.49Y-116.84
X113.03Y-116.84
X120.65Y-85.09
X120.65Y-87.63
X120.65Y-90.17
X120.65Y-92.71
X159.131Y-55.626
X161.29Y-66.04
X161.29Y-68.58
X161.29Y-71.12
X161.29Y-73.66
X161.29Y-76.2
X161.29Y-78.74
X161.671Y-55.626
X164.211Y-55.626
X166.751Y-55.626
X173.472Y-91.9
X173.472Y-94.44
X173.472Y-100.79
X173.472Y-103.33
T6
X120.65Y-121.92
X120.65Y-130.12
X128.27Y-121.92
X128.27Y-130.12
T7
X96.52Y-125.73
X101.6Y-125.73
X108.585Y-125.73
X113.665Y-125.73
X135.89Y-127.0
X140.97Y-127.0
X149.86Y-127.0
X154.94Y-127.0
T8
X88.9Y-49.53
X88.9Y-129.54
X180.34Y-49.53
X180.34Y-129.54
T0
M30
