%TF.GenerationSoftware,KiCad,Pcbnew,7.0.2*%
%TF.CreationDate,2023-05-21T00:08:40-06:00*%
%TF.ProjectId,Project-Supernova-PCB,50726f6a-6563-4742-9d53-757065726e6f,rev?*%
%TF.SameCoordinates,Original*%
%TF.FileFunction,Drillmap*%
%TF.FilePolarity,Positive*%
%FSLAX45Y45*%
G04 Gerber Fmt 4.5, Leading zero omitted, Abs format (unit mm)*
G04 Created by KiCad (PCBNEW 7.0.2) date 2023-05-21 00:08:40*
%MOMM*%
%LPD*%
G01*
G04 APERTURE LIST*
%ADD10C,0.100000*%
%ADD11C,0.200000*%
%ADD12C,0.040000*%
%ADD13C,0.076200*%
%ADD14C,0.080000*%
%ADD15C,0.150000*%
%ADD16C,0.152000*%
%ADD17C,0.170000*%
%ADD18C,0.320000*%
G04 APERTURE END LIST*
D10*
X8509000Y-4572000D02*
X18415000Y-4572000D01*
X18415000Y-13335000D01*
X8509000Y-13335000D01*
X8509000Y-4572000D01*
D11*
D12*
X8616000Y-5644200D02*
X8656000Y-5684200D01*
X8656000Y-5644200D02*
X8616000Y-5684200D01*
X8616000Y-7028500D02*
X8656000Y-7068500D01*
X8656000Y-7028500D02*
X8616000Y-7068500D01*
X8743000Y-5644200D02*
X8783000Y-5684200D01*
X8783000Y-5644200D02*
X8743000Y-5684200D01*
X8743000Y-7028500D02*
X8783000Y-7068500D01*
X8783000Y-7028500D02*
X8743000Y-7068500D01*
X8870000Y-5644200D02*
X8910000Y-5684200D01*
X8910000Y-5644200D02*
X8870000Y-5684200D01*
X8870000Y-7028500D02*
X8910000Y-7068500D01*
X8910000Y-7028500D02*
X8870000Y-7068500D01*
X8997000Y-5644200D02*
X9037000Y-5684200D01*
X9037000Y-5644200D02*
X8997000Y-5684200D01*
X8997000Y-7028500D02*
X9037000Y-7068500D01*
X9037000Y-7028500D02*
X8997000Y-7068500D01*
X9124000Y-5644200D02*
X9164000Y-5684200D01*
X9164000Y-5644200D02*
X9124000Y-5684200D01*
X9124000Y-7028500D02*
X9164000Y-7068500D01*
X9164000Y-7028500D02*
X9124000Y-7068500D01*
X9251000Y-5568000D02*
X9291000Y-5608000D01*
X9291000Y-5568000D02*
X9251000Y-5608000D01*
X9251000Y-7028500D02*
X9291000Y-7068500D01*
X9291000Y-7028500D02*
X9251000Y-7068500D01*
X9314500Y-5441000D02*
X9354500Y-5481000D01*
X9354500Y-5441000D02*
X9314500Y-5481000D01*
X9378000Y-7028500D02*
X9418000Y-7068500D01*
X9418000Y-7028500D02*
X9378000Y-7068500D01*
X9441500Y-5377500D02*
X9481500Y-5417500D01*
X9481500Y-5377500D02*
X9441500Y-5417500D01*
X9505000Y-6965000D02*
X9545000Y-7005000D01*
X9545000Y-6965000D02*
X9505000Y-7005000D01*
X9568500Y-5377500D02*
X9608500Y-5417500D01*
X9608500Y-5377500D02*
X9568500Y-5417500D01*
X9632000Y-6901500D02*
X9672000Y-6941500D01*
X9672000Y-6901500D02*
X9632000Y-6941500D01*
X9695500Y-5377500D02*
X9735500Y-5417500D01*
X9735500Y-5377500D02*
X9695500Y-5417500D01*
X9759000Y-6838000D02*
X9799000Y-6878000D01*
X9799000Y-6838000D02*
X9759000Y-6878000D01*
X9822500Y-5377500D02*
X9862500Y-5417500D01*
X9862500Y-5377500D02*
X9822500Y-5417500D01*
X9886000Y-6774500D02*
X9926000Y-6814500D01*
X9926000Y-6774500D02*
X9886000Y-6814500D01*
X9949500Y-5377500D02*
X9989500Y-5417500D01*
X9989500Y-5377500D02*
X9949500Y-5417500D01*
X9962200Y-8819200D02*
X10002200Y-8859200D01*
X10002200Y-8819200D02*
X9962200Y-8859200D01*
X10076500Y-5441000D02*
X10116500Y-5481000D01*
X10116500Y-5441000D02*
X10076500Y-5481000D01*
X10203500Y-5568000D02*
X10243500Y-5608000D01*
X10243500Y-5568000D02*
X10203500Y-5608000D01*
X10330500Y-5695000D02*
X10370500Y-5735000D01*
X10370500Y-5695000D02*
X10330500Y-5735000D01*
X10330500Y-5822000D02*
X10370500Y-5862000D01*
X10370500Y-5822000D02*
X10330500Y-5862000D01*
X11194100Y-9936800D02*
X11234100Y-9976800D01*
X11234100Y-9936800D02*
X11194100Y-9976800D01*
X11537000Y-10902000D02*
X11577000Y-10942000D01*
X11577000Y-10902000D02*
X11537000Y-10942000D01*
X12108500Y-8019100D02*
X12148500Y-8059100D01*
X12148500Y-8019100D02*
X12108500Y-8059100D01*
X12172000Y-7282500D02*
X12212000Y-7322500D01*
X12212000Y-7282500D02*
X12172000Y-7322500D01*
X12235500Y-10648000D02*
X12275500Y-10688000D01*
X12275500Y-10648000D02*
X12235500Y-10688000D01*
X12235500Y-10902000D02*
X12275500Y-10942000D01*
X12275500Y-10902000D02*
X12235500Y-10942000D01*
X12362500Y-10847450D02*
X12402500Y-10887450D01*
X12402500Y-10847450D02*
X12362500Y-10887450D01*
X12530000Y-5380000D02*
X12570000Y-5420000D01*
X12570000Y-5380000D02*
X12530000Y-5420000D01*
X12997500Y-6177600D02*
X13037500Y-6217600D01*
X13037500Y-6177600D02*
X12997500Y-6217600D01*
X13251500Y-6250050D02*
X13291500Y-6290050D01*
X13291500Y-6250050D02*
X13251500Y-6290050D01*
X13306050Y-7727000D02*
X13346050Y-7767000D01*
X13346050Y-7727000D02*
X13306050Y-7767000D01*
X13378500Y-7053900D02*
X13418500Y-7093900D01*
X13418500Y-7053900D02*
X13378500Y-7093900D01*
X13759500Y-11435400D02*
X13799500Y-11475400D01*
X13799500Y-11435400D02*
X13759500Y-11475400D01*
X13823000Y-10394000D02*
X13863000Y-10434000D01*
X13863000Y-10394000D02*
X13823000Y-10434000D01*
X13899200Y-10597200D02*
X13939200Y-10637200D01*
X13939200Y-10597200D02*
X13899200Y-10637200D01*
X14712000Y-8425500D02*
X14752000Y-8465500D01*
X14752000Y-8425500D02*
X14712000Y-8465500D01*
X14720950Y-8235000D02*
X14760950Y-8275000D01*
X14760950Y-8235000D02*
X14720950Y-8275000D01*
X14953300Y-10546400D02*
X14993300Y-10586400D01*
X14993300Y-10546400D02*
X14953300Y-10586400D01*
X15410500Y-6520500D02*
X15450500Y-6560500D01*
X15450500Y-6520500D02*
X15410500Y-6560500D01*
X15410500Y-7346000D02*
X15450500Y-7386000D01*
X15450500Y-7346000D02*
X15410500Y-7386000D01*
X15702600Y-8870000D02*
X15742600Y-8910000D01*
X15742600Y-8870000D02*
X15702600Y-8910000D01*
X15855000Y-6203000D02*
X15895000Y-6243000D01*
X15895000Y-6203000D02*
X15855000Y-6243000D01*
X16020100Y-8882700D02*
X16060100Y-8922700D01*
X16060100Y-8882700D02*
X16020100Y-8922700D01*
X16172500Y-6203000D02*
X16212500Y-6243000D01*
X16212500Y-6203000D02*
X16172500Y-6243000D01*
X16229500Y-9695500D02*
X16269500Y-9735500D01*
X16269500Y-9695500D02*
X16229500Y-9735500D01*
X16244950Y-6711000D02*
X16284950Y-6751000D01*
X16284950Y-6711000D02*
X16244950Y-6751000D01*
X16286800Y-9254750D02*
X16326800Y-9294750D01*
X16326800Y-9254750D02*
X16286800Y-9294750D01*
X16426500Y-6203000D02*
X16466500Y-6243000D01*
X16466500Y-6203000D02*
X16426500Y-6243000D01*
X16714750Y-10013000D02*
X16754750Y-10053000D01*
X16754750Y-10013000D02*
X16714750Y-10053000D01*
X16744000Y-6203000D02*
X16784000Y-6243000D01*
X16784000Y-6203000D02*
X16744000Y-6243000D01*
X17823500Y-10838500D02*
X17863500Y-10878500D01*
X17863500Y-10838500D02*
X17823500Y-10878500D01*
X17948000Y-10835000D02*
X17988000Y-10875000D01*
X17988000Y-10835000D02*
X17948000Y-10875000D01*
X18077500Y-10838500D02*
X18117500Y-10878500D01*
X18117500Y-10838500D02*
X18077500Y-10878500D01*
D13*
X12611100Y-6858000D02*
G75*
G03*
X12611100Y-6858000I-38100J0D01*
G01*
X12611100Y-7112000D02*
G75*
G03*
X12611100Y-7112000I-38100J0D01*
G01*
X12611100Y-7366000D02*
G75*
G03*
X12611100Y-7366000I-38100J0D01*
G01*
X12611100Y-7620000D02*
G75*
G03*
X12611100Y-7620000I-38100J0D01*
G01*
X12611100Y-7874000D02*
G75*
G03*
X12611100Y-7874000I-38100J0D01*
G01*
X12611100Y-8128000D02*
G75*
G03*
X12611100Y-8128000I-38100J0D01*
G01*
X12611100Y-8382000D02*
G75*
G03*
X12611100Y-8382000I-38100J0D01*
G01*
X12611100Y-8636000D02*
G75*
G03*
X12611100Y-8636000I-38100J0D01*
G01*
X12611100Y-8890000D02*
G75*
G03*
X12611100Y-8890000I-38100J0D01*
G01*
X12611100Y-9144000D02*
G75*
G03*
X12611100Y-9144000I-38100J0D01*
G01*
X12611100Y-9398000D02*
G75*
G03*
X12611100Y-9398000I-38100J0D01*
G01*
X12611100Y-9652000D02*
G75*
G03*
X12611100Y-9652000I-38100J0D01*
G01*
X12611100Y-9906000D02*
G75*
G03*
X12611100Y-9906000I-38100J0D01*
G01*
X12611100Y-10160000D02*
G75*
G03*
X12611100Y-10160000I-38100J0D01*
G01*
X12611100Y-10414000D02*
G75*
G03*
X12611100Y-10414000I-38100J0D01*
G01*
X15151100Y-6858000D02*
G75*
G03*
X15151100Y-6858000I-38100J0D01*
G01*
X15151100Y-7112000D02*
G75*
G03*
X15151100Y-7112000I-38100J0D01*
G01*
X15151100Y-7366000D02*
G75*
G03*
X15151100Y-7366000I-38100J0D01*
G01*
X15151100Y-7620000D02*
G75*
G03*
X15151100Y-7620000I-38100J0D01*
G01*
X15151100Y-7874000D02*
G75*
G03*
X15151100Y-7874000I-38100J0D01*
G01*
X15151100Y-8128000D02*
G75*
G03*
X15151100Y-8128000I-38100J0D01*
G01*
X15151100Y-8382000D02*
G75*
G03*
X15151100Y-8382000I-38100J0D01*
G01*
X15151100Y-8636000D02*
G75*
G03*
X15151100Y-8636000I-38100J0D01*
G01*
X15151100Y-8890000D02*
G75*
G03*
X15151100Y-8890000I-38100J0D01*
G01*
X15151100Y-9144000D02*
G75*
G03*
X15151100Y-9144000I-38100J0D01*
G01*
X15151100Y-9398000D02*
G75*
G03*
X15151100Y-9398000I-38100J0D01*
G01*
X15151100Y-9652000D02*
G75*
G03*
X15151100Y-9652000I-38100J0D01*
G01*
X15151100Y-9906000D02*
G75*
G03*
X15151100Y-9906000I-38100J0D01*
G01*
X15151100Y-10160000D02*
G75*
G03*
X15151100Y-10160000I-38100J0D01*
G01*
X15151100Y-10414000D02*
G75*
G03*
X15151100Y-10414000I-38100J0D01*
G01*
D14*
X12255500Y-12215500D02*
X12255500Y-12295500D01*
X12215500Y-12255500D02*
X12295500Y-12255500D01*
X12255500Y-12415500D02*
X12255500Y-12495500D01*
X12215500Y-12455500D02*
X12295500Y-12455500D01*
X12255500Y-12615500D02*
X12255500Y-12695500D01*
X12215500Y-12655500D02*
X12295500Y-12655500D01*
X13017500Y-12215500D02*
X13017500Y-12295500D01*
X12977500Y-12255500D02*
X13057500Y-12255500D01*
X13017500Y-12415500D02*
X13017500Y-12495500D01*
X12977500Y-12455500D02*
X13057500Y-12455500D01*
X13017500Y-12615500D02*
X13017500Y-12695500D01*
X12977500Y-12655500D02*
X13057500Y-12655500D01*
D10*
X8798356Y-10957356D02*
X8798356Y-10886644D01*
X8727644Y-10886644D01*
X8727644Y-10957356D01*
X8798356Y-10957356D01*
X8798356Y-11211356D02*
X8798356Y-11140644D01*
X8727644Y-11140644D01*
X8727644Y-11211356D01*
X8798356Y-11211356D01*
X8798356Y-11465356D02*
X8798356Y-11394644D01*
X8727644Y-11394644D01*
X8727644Y-11465356D01*
X8798356Y-11465356D01*
X8798356Y-11719356D02*
X8798356Y-11648644D01*
X8727644Y-11648644D01*
X8727644Y-11719356D01*
X8798356Y-11719356D01*
X9814356Y-11846356D02*
X9814356Y-11775644D01*
X9743644Y-11775644D01*
X9743644Y-11846356D01*
X9814356Y-11846356D01*
X9941356Y-10449356D02*
X9941356Y-10378644D01*
X9870644Y-10378644D01*
X9870644Y-10449356D01*
X9941356Y-10449356D01*
X9941356Y-10703356D02*
X9941356Y-10632644D01*
X9870644Y-10632644D01*
X9870644Y-10703356D01*
X9941356Y-10703356D01*
X10068356Y-11846356D02*
X10068356Y-11775644D01*
X9997644Y-11775644D01*
X9997644Y-11846356D01*
X10068356Y-11846356D01*
X11084356Y-11846356D02*
X11084356Y-11775644D01*
X11013644Y-11775644D01*
X11013644Y-11846356D01*
X11084356Y-11846356D01*
X11338356Y-11846356D02*
X11338356Y-11775644D01*
X11267644Y-11775644D01*
X11267644Y-11846356D01*
X11338356Y-11846356D01*
X12100356Y-8544356D02*
X12100356Y-8473644D01*
X12029644Y-8473644D01*
X12029644Y-8544356D01*
X12100356Y-8544356D01*
X12100356Y-8798356D02*
X12100356Y-8727644D01*
X12029644Y-8727644D01*
X12029644Y-8798356D01*
X12100356Y-8798356D01*
X12100356Y-9052356D02*
X12100356Y-8981644D01*
X12029644Y-8981644D01*
X12029644Y-9052356D01*
X12100356Y-9052356D01*
X12100356Y-9306356D02*
X12100356Y-9235644D01*
X12029644Y-9235644D01*
X12029644Y-9306356D01*
X12100356Y-9306356D01*
X14641856Y-5623356D02*
X14641856Y-5552644D01*
X14571144Y-5552644D01*
X14571144Y-5623356D01*
X14641856Y-5623356D01*
X14895856Y-5623356D02*
X14895856Y-5552644D01*
X14825144Y-5552644D01*
X14825144Y-5623356D01*
X14895856Y-5623356D01*
X15149856Y-5623356D02*
X15149856Y-5552644D01*
X15079144Y-5552644D01*
X15079144Y-5623356D01*
X15149856Y-5623356D01*
X15910356Y-6639356D02*
X15910356Y-6568644D01*
X15839644Y-6568644D01*
X15839644Y-6639356D01*
X15910356Y-6639356D01*
X15910356Y-6893356D02*
X15910356Y-6822644D01*
X15839644Y-6822644D01*
X15839644Y-6893356D01*
X15910356Y-6893356D01*
X15910356Y-7147356D02*
X15910356Y-7076644D01*
X15839644Y-7076644D01*
X15839644Y-7147356D01*
X15910356Y-7147356D01*
X15910356Y-7401356D02*
X15910356Y-7330644D01*
X15839644Y-7330644D01*
X15839644Y-7401356D01*
X15910356Y-7401356D01*
X15910356Y-7655356D02*
X15910356Y-7584644D01*
X15839644Y-7584644D01*
X15839644Y-7655356D01*
X15910356Y-7655356D01*
X15910356Y-7909356D02*
X15910356Y-7838644D01*
X15839644Y-7838644D01*
X15839644Y-7909356D01*
X15910356Y-7909356D01*
X15948456Y-5597956D02*
X15948456Y-5527244D01*
X15877744Y-5527244D01*
X15877744Y-5597956D01*
X15948456Y-5597956D01*
X16202456Y-5597956D02*
X16202456Y-5527244D01*
X16131744Y-5527244D01*
X16131744Y-5597956D01*
X16202456Y-5597956D01*
X16456456Y-5597956D02*
X16456456Y-5527244D01*
X16385744Y-5527244D01*
X16385744Y-5597956D01*
X16456456Y-5597956D01*
X16710456Y-5597956D02*
X16710456Y-5527244D01*
X16639744Y-5527244D01*
X16639744Y-5597956D01*
X16710456Y-5597956D01*
X17382606Y-9225356D02*
X17382606Y-9154644D01*
X17311894Y-9154644D01*
X17311894Y-9225356D01*
X17382606Y-9225356D01*
X17382606Y-9479356D02*
X17382606Y-9408644D01*
X17311894Y-9408644D01*
X17311894Y-9479356D01*
X17382606Y-9479356D01*
X17382606Y-10114356D02*
X17382606Y-10043644D01*
X17311894Y-10043644D01*
X17311894Y-10114356D01*
X17382606Y-10114356D01*
X17382606Y-10368356D02*
X17382606Y-10297644D01*
X17311894Y-10297644D01*
X17311894Y-10368356D01*
X17382606Y-10368356D01*
D15*
X8991600Y-6425000D02*
X9066600Y-6350000D01*
X8991600Y-6275000D01*
X8916600Y-6350000D01*
X8991600Y-6425000D01*
X12255500Y-12120500D02*
X12330500Y-12045500D01*
X12255500Y-11970500D01*
X12180500Y-12045500D01*
X12255500Y-12120500D01*
X12255500Y-12940500D02*
X12330500Y-12865500D01*
X12255500Y-12790500D01*
X12180500Y-12865500D01*
X12255500Y-12940500D01*
X13017500Y-12120500D02*
X13092500Y-12045500D01*
X13017500Y-11970500D01*
X12942500Y-12045500D01*
X13017500Y-12120500D01*
X13017500Y-12940500D02*
X13092500Y-12865500D01*
X13017500Y-12790500D01*
X12942500Y-12865500D01*
X13017500Y-12940500D01*
D16*
X9576000Y-12624000D02*
X9728000Y-12776000D01*
X9728000Y-12624000D02*
X9576000Y-12776000D01*
X9728000Y-12700000D02*
G75*
G03*
X9728000Y-12700000I-76000J0D01*
G01*
X10084000Y-12624000D02*
X10236000Y-12776000D01*
X10236000Y-12624000D02*
X10084000Y-12776000D01*
X10236000Y-12700000D02*
G75*
G03*
X10236000Y-12700000I-76000J0D01*
G01*
X10782500Y-12624000D02*
X10934500Y-12776000D01*
X10934500Y-12624000D02*
X10782500Y-12776000D01*
X10934500Y-12700000D02*
G75*
G03*
X10934500Y-12700000I-76000J0D01*
G01*
X11290500Y-12624000D02*
X11442500Y-12776000D01*
X11442500Y-12624000D02*
X11290500Y-12776000D01*
X11442500Y-12700000D02*
G75*
G03*
X11442500Y-12700000I-76000J0D01*
G01*
X13767000Y-12624000D02*
X13919000Y-12776000D01*
X13919000Y-12624000D02*
X13767000Y-12776000D01*
X13919000Y-12700000D02*
G75*
G03*
X13919000Y-12700000I-76000J0D01*
G01*
X14275000Y-12624000D02*
X14427000Y-12776000D01*
X14427000Y-12624000D02*
X14275000Y-12776000D01*
X14427000Y-12700000D02*
G75*
G03*
X14427000Y-12700000I-76000J0D01*
G01*
X14910000Y-12624000D02*
X15062000Y-12776000D01*
X15062000Y-12624000D02*
X14910000Y-12776000D01*
X15062000Y-12700000D02*
G75*
G03*
X15062000Y-12700000I-76000J0D01*
G01*
X15418000Y-12624000D02*
X15570000Y-12776000D01*
X15570000Y-12624000D02*
X15418000Y-12776000D01*
X15570000Y-12700000D02*
G75*
G03*
X15570000Y-12700000I-76000J0D01*
G01*
D17*
X8652600Y-6011000D02*
X8822600Y-6181000D01*
X8822600Y-6011000D02*
X8652600Y-6181000D01*
X8737600Y-6011000D02*
X8737600Y-6181000D01*
X8652600Y-6096000D02*
X8822600Y-6096000D01*
X8652600Y-6519000D02*
X8822600Y-6689000D01*
X8822600Y-6519000D02*
X8652600Y-6689000D01*
X8737600Y-6519000D02*
X8737600Y-6689000D01*
X8652600Y-6604000D02*
X8822600Y-6604000D01*
X9160600Y-6011000D02*
X9330600Y-6181000D01*
X9330600Y-6011000D02*
X9160600Y-6181000D01*
X9245600Y-6011000D02*
X9245600Y-6181000D01*
X9160600Y-6096000D02*
X9330600Y-6096000D01*
X9160600Y-6519000D02*
X9330600Y-6689000D01*
X9330600Y-6519000D02*
X9160600Y-6689000D01*
X9245600Y-6519000D02*
X9245600Y-6689000D01*
X9160600Y-6604000D02*
X9330600Y-6604000D01*
D18*
X8730000Y-4793000D02*
X9050000Y-5113000D01*
X9050000Y-4793000D02*
X8730000Y-5113000D01*
X9003138Y-5066138D02*
X9003138Y-4839862D01*
X8776862Y-4839862D01*
X8776862Y-5066138D01*
X9003138Y-5066138D01*
X8730000Y-12794000D02*
X9050000Y-13114000D01*
X9050000Y-12794000D02*
X8730000Y-13114000D01*
X9003138Y-13067138D02*
X9003138Y-12840862D01*
X8776862Y-12840862D01*
X8776862Y-13067138D01*
X9003138Y-13067138D01*
X17874000Y-4793000D02*
X18194000Y-5113000D01*
X18194000Y-4793000D02*
X17874000Y-5113000D01*
X18147138Y-5066138D02*
X18147138Y-4839862D01*
X17920862Y-4839862D01*
X17920862Y-5066138D01*
X18147138Y-5066138D01*
X17874000Y-12794000D02*
X18194000Y-13114000D01*
X18194000Y-12794000D02*
X17874000Y-13114000D01*
X18147138Y-13067138D02*
X18147138Y-12840862D01*
X17920862Y-12840862D01*
X17920862Y-13067138D01*
X18147138Y-13067138D01*
D11*
X8751619Y-13652524D02*
X8751619Y-13452524D01*
X8751619Y-13452524D02*
X8799238Y-13452524D01*
X8799238Y-13452524D02*
X8827810Y-13462048D01*
X8827810Y-13462048D02*
X8846857Y-13481095D01*
X8846857Y-13481095D02*
X8856381Y-13500143D01*
X8856381Y-13500143D02*
X8865905Y-13538238D01*
X8865905Y-13538238D02*
X8865905Y-13566809D01*
X8865905Y-13566809D02*
X8856381Y-13604905D01*
X8856381Y-13604905D02*
X8846857Y-13623952D01*
X8846857Y-13623952D02*
X8827810Y-13643000D01*
X8827810Y-13643000D02*
X8799238Y-13652524D01*
X8799238Y-13652524D02*
X8751619Y-13652524D01*
X8951619Y-13652524D02*
X8951619Y-13519190D01*
X8951619Y-13557286D02*
X8961143Y-13538238D01*
X8961143Y-13538238D02*
X8970667Y-13528714D01*
X8970667Y-13528714D02*
X8989714Y-13519190D01*
X8989714Y-13519190D02*
X9008762Y-13519190D01*
X9075429Y-13652524D02*
X9075429Y-13519190D01*
X9075429Y-13452524D02*
X9065905Y-13462048D01*
X9065905Y-13462048D02*
X9075429Y-13471571D01*
X9075429Y-13471571D02*
X9084952Y-13462048D01*
X9084952Y-13462048D02*
X9075429Y-13452524D01*
X9075429Y-13452524D02*
X9075429Y-13471571D01*
X9199238Y-13652524D02*
X9180190Y-13643000D01*
X9180190Y-13643000D02*
X9170667Y-13623952D01*
X9170667Y-13623952D02*
X9170667Y-13452524D01*
X9304000Y-13652524D02*
X9284952Y-13643000D01*
X9284952Y-13643000D02*
X9275429Y-13623952D01*
X9275429Y-13623952D02*
X9275429Y-13452524D01*
X9532571Y-13652524D02*
X9532571Y-13452524D01*
X9532571Y-13452524D02*
X9599238Y-13595381D01*
X9599238Y-13595381D02*
X9665905Y-13452524D01*
X9665905Y-13452524D02*
X9665905Y-13652524D01*
X9846857Y-13652524D02*
X9846857Y-13547762D01*
X9846857Y-13547762D02*
X9837333Y-13528714D01*
X9837333Y-13528714D02*
X9818286Y-13519190D01*
X9818286Y-13519190D02*
X9780190Y-13519190D01*
X9780190Y-13519190D02*
X9761143Y-13528714D01*
X9846857Y-13643000D02*
X9827810Y-13652524D01*
X9827810Y-13652524D02*
X9780190Y-13652524D01*
X9780190Y-13652524D02*
X9761143Y-13643000D01*
X9761143Y-13643000D02*
X9751619Y-13623952D01*
X9751619Y-13623952D02*
X9751619Y-13604905D01*
X9751619Y-13604905D02*
X9761143Y-13585857D01*
X9761143Y-13585857D02*
X9780190Y-13576333D01*
X9780190Y-13576333D02*
X9827810Y-13576333D01*
X9827810Y-13576333D02*
X9846857Y-13566809D01*
X9942095Y-13519190D02*
X9942095Y-13719190D01*
X9942095Y-13528714D02*
X9961143Y-13519190D01*
X9961143Y-13519190D02*
X9999238Y-13519190D01*
X9999238Y-13519190D02*
X10018286Y-13528714D01*
X10018286Y-13528714D02*
X10027810Y-13538238D01*
X10027810Y-13538238D02*
X10037333Y-13557286D01*
X10037333Y-13557286D02*
X10037333Y-13614428D01*
X10037333Y-13614428D02*
X10027810Y-13633476D01*
X10027810Y-13633476D02*
X10018286Y-13643000D01*
X10018286Y-13643000D02*
X9999238Y-13652524D01*
X9999238Y-13652524D02*
X9961143Y-13652524D01*
X9961143Y-13652524D02*
X9942095Y-13643000D01*
X10123048Y-13633476D02*
X10132571Y-13643000D01*
X10132571Y-13643000D02*
X10123048Y-13652524D01*
X10123048Y-13652524D02*
X10113524Y-13643000D01*
X10113524Y-13643000D02*
X10123048Y-13633476D01*
X10123048Y-13633476D02*
X10123048Y-13652524D01*
X10123048Y-13528714D02*
X10132571Y-13538238D01*
X10132571Y-13538238D02*
X10123048Y-13547762D01*
X10123048Y-13547762D02*
X10113524Y-13538238D01*
X10113524Y-13538238D02*
X10123048Y-13528714D01*
X10123048Y-13528714D02*
X10123048Y-13547762D01*
D12*
X8464000Y-13960000D02*
X8504000Y-14000000D01*
X8504000Y-13960000D02*
X8464000Y-14000000D01*
D11*
X8789714Y-13872524D02*
X8808762Y-13872524D01*
X8808762Y-13872524D02*
X8827810Y-13882048D01*
X8827810Y-13882048D02*
X8837333Y-13891571D01*
X8837333Y-13891571D02*
X8846857Y-13910619D01*
X8846857Y-13910619D02*
X8856381Y-13948714D01*
X8856381Y-13948714D02*
X8856381Y-13996333D01*
X8856381Y-13996333D02*
X8846857Y-14034428D01*
X8846857Y-14034428D02*
X8837333Y-14053476D01*
X8837333Y-14053476D02*
X8827810Y-14063000D01*
X8827810Y-14063000D02*
X8808762Y-14072524D01*
X8808762Y-14072524D02*
X8789714Y-14072524D01*
X8789714Y-14072524D02*
X8770667Y-14063000D01*
X8770667Y-14063000D02*
X8761143Y-14053476D01*
X8761143Y-14053476D02*
X8751619Y-14034428D01*
X8751619Y-14034428D02*
X8742095Y-13996333D01*
X8742095Y-13996333D02*
X8742095Y-13948714D01*
X8742095Y-13948714D02*
X8751619Y-13910619D01*
X8751619Y-13910619D02*
X8761143Y-13891571D01*
X8761143Y-13891571D02*
X8770667Y-13882048D01*
X8770667Y-13882048D02*
X8789714Y-13872524D01*
X8942095Y-14053476D02*
X8951619Y-14063000D01*
X8951619Y-14063000D02*
X8942095Y-14072524D01*
X8942095Y-14072524D02*
X8932571Y-14063000D01*
X8932571Y-14063000D02*
X8942095Y-14053476D01*
X8942095Y-14053476D02*
X8942095Y-14072524D01*
X9123048Y-13939190D02*
X9123048Y-14072524D01*
X9075429Y-13863000D02*
X9027810Y-14005857D01*
X9027810Y-14005857D02*
X9151619Y-14005857D01*
X9265905Y-13872524D02*
X9284952Y-13872524D01*
X9284952Y-13872524D02*
X9304000Y-13882048D01*
X9304000Y-13882048D02*
X9313524Y-13891571D01*
X9313524Y-13891571D02*
X9323048Y-13910619D01*
X9323048Y-13910619D02*
X9332571Y-13948714D01*
X9332571Y-13948714D02*
X9332571Y-13996333D01*
X9332571Y-13996333D02*
X9323048Y-14034428D01*
X9323048Y-14034428D02*
X9313524Y-14053476D01*
X9313524Y-14053476D02*
X9304000Y-14063000D01*
X9304000Y-14063000D02*
X9284952Y-14072524D01*
X9284952Y-14072524D02*
X9265905Y-14072524D01*
X9265905Y-14072524D02*
X9246857Y-14063000D01*
X9246857Y-14063000D02*
X9237333Y-14053476D01*
X9237333Y-14053476D02*
X9227810Y-14034428D01*
X9227810Y-14034428D02*
X9218286Y-13996333D01*
X9218286Y-13996333D02*
X9218286Y-13948714D01*
X9218286Y-13948714D02*
X9227810Y-13910619D01*
X9227810Y-13910619D02*
X9237333Y-13891571D01*
X9237333Y-13891571D02*
X9246857Y-13882048D01*
X9246857Y-13882048D02*
X9265905Y-13872524D01*
X9456381Y-13872524D02*
X9475429Y-13872524D01*
X9475429Y-13872524D02*
X9494476Y-13882048D01*
X9494476Y-13882048D02*
X9504000Y-13891571D01*
X9504000Y-13891571D02*
X9513524Y-13910619D01*
X9513524Y-13910619D02*
X9523048Y-13948714D01*
X9523048Y-13948714D02*
X9523048Y-13996333D01*
X9523048Y-13996333D02*
X9513524Y-14034428D01*
X9513524Y-14034428D02*
X9504000Y-14053476D01*
X9504000Y-14053476D02*
X9494476Y-14063000D01*
X9494476Y-14063000D02*
X9475429Y-14072524D01*
X9475429Y-14072524D02*
X9456381Y-14072524D01*
X9456381Y-14072524D02*
X9437333Y-14063000D01*
X9437333Y-14063000D02*
X9427810Y-14053476D01*
X9427810Y-14053476D02*
X9418286Y-14034428D01*
X9418286Y-14034428D02*
X9408762Y-13996333D01*
X9408762Y-13996333D02*
X9408762Y-13948714D01*
X9408762Y-13948714D02*
X9418286Y-13910619D01*
X9418286Y-13910619D02*
X9427810Y-13891571D01*
X9427810Y-13891571D02*
X9437333Y-13882048D01*
X9437333Y-13882048D02*
X9456381Y-13872524D01*
X9608762Y-14072524D02*
X9608762Y-13939190D01*
X9608762Y-13958238D02*
X9618286Y-13948714D01*
X9618286Y-13948714D02*
X9637333Y-13939190D01*
X9637333Y-13939190D02*
X9665905Y-13939190D01*
X9665905Y-13939190D02*
X9684952Y-13948714D01*
X9684952Y-13948714D02*
X9694476Y-13967762D01*
X9694476Y-13967762D02*
X9694476Y-14072524D01*
X9694476Y-13967762D02*
X9704000Y-13948714D01*
X9704000Y-13948714D02*
X9723048Y-13939190D01*
X9723048Y-13939190D02*
X9751619Y-13939190D01*
X9751619Y-13939190D02*
X9770667Y-13948714D01*
X9770667Y-13948714D02*
X9780191Y-13967762D01*
X9780191Y-13967762D02*
X9780191Y-14072524D01*
X9875429Y-14072524D02*
X9875429Y-13939190D01*
X9875429Y-13958238D02*
X9884952Y-13948714D01*
X9884952Y-13948714D02*
X9904000Y-13939190D01*
X9904000Y-13939190D02*
X9932572Y-13939190D01*
X9932572Y-13939190D02*
X9951619Y-13948714D01*
X9951619Y-13948714D02*
X9961143Y-13967762D01*
X9961143Y-13967762D02*
X9961143Y-14072524D01*
X9961143Y-13967762D02*
X9970667Y-13948714D01*
X9970667Y-13948714D02*
X9989714Y-13939190D01*
X9989714Y-13939190D02*
X10018286Y-13939190D01*
X10018286Y-13939190D02*
X10037333Y-13948714D01*
X10037333Y-13948714D02*
X10046857Y-13967762D01*
X10046857Y-13967762D02*
X10046857Y-14072524D01*
X10437333Y-13863000D02*
X10265905Y-14120143D01*
X10694476Y-13872524D02*
X10713524Y-13872524D01*
X10713524Y-13872524D02*
X10732572Y-13882048D01*
X10732572Y-13882048D02*
X10742095Y-13891571D01*
X10742095Y-13891571D02*
X10751619Y-13910619D01*
X10751619Y-13910619D02*
X10761143Y-13948714D01*
X10761143Y-13948714D02*
X10761143Y-13996333D01*
X10761143Y-13996333D02*
X10751619Y-14034428D01*
X10751619Y-14034428D02*
X10742095Y-14053476D01*
X10742095Y-14053476D02*
X10732572Y-14063000D01*
X10732572Y-14063000D02*
X10713524Y-14072524D01*
X10713524Y-14072524D02*
X10694476Y-14072524D01*
X10694476Y-14072524D02*
X10675429Y-14063000D01*
X10675429Y-14063000D02*
X10665905Y-14053476D01*
X10665905Y-14053476D02*
X10656381Y-14034428D01*
X10656381Y-14034428D02*
X10646857Y-13996333D01*
X10646857Y-13996333D02*
X10646857Y-13948714D01*
X10646857Y-13948714D02*
X10656381Y-13910619D01*
X10656381Y-13910619D02*
X10665905Y-13891571D01*
X10665905Y-13891571D02*
X10675429Y-13882048D01*
X10675429Y-13882048D02*
X10694476Y-13872524D01*
X10846857Y-14053476D02*
X10856381Y-14063000D01*
X10856381Y-14063000D02*
X10846857Y-14072524D01*
X10846857Y-14072524D02*
X10837334Y-14063000D01*
X10837334Y-14063000D02*
X10846857Y-14053476D01*
X10846857Y-14053476D02*
X10846857Y-14072524D01*
X10980191Y-13872524D02*
X10999238Y-13872524D01*
X10999238Y-13872524D02*
X11018286Y-13882048D01*
X11018286Y-13882048D02*
X11027810Y-13891571D01*
X11027810Y-13891571D02*
X11037334Y-13910619D01*
X11037334Y-13910619D02*
X11046857Y-13948714D01*
X11046857Y-13948714D02*
X11046857Y-13996333D01*
X11046857Y-13996333D02*
X11037334Y-14034428D01*
X11037334Y-14034428D02*
X11027810Y-14053476D01*
X11027810Y-14053476D02*
X11018286Y-14063000D01*
X11018286Y-14063000D02*
X10999238Y-14072524D01*
X10999238Y-14072524D02*
X10980191Y-14072524D01*
X10980191Y-14072524D02*
X10961143Y-14063000D01*
X10961143Y-14063000D02*
X10951619Y-14053476D01*
X10951619Y-14053476D02*
X10942095Y-14034428D01*
X10942095Y-14034428D02*
X10932572Y-13996333D01*
X10932572Y-13996333D02*
X10932572Y-13948714D01*
X10932572Y-13948714D02*
X10942095Y-13910619D01*
X10942095Y-13910619D02*
X10951619Y-13891571D01*
X10951619Y-13891571D02*
X10961143Y-13882048D01*
X10961143Y-13882048D02*
X10980191Y-13872524D01*
X11237333Y-14072524D02*
X11123048Y-14072524D01*
X11180191Y-14072524D02*
X11180191Y-13872524D01*
X11180191Y-13872524D02*
X11161143Y-13901095D01*
X11161143Y-13901095D02*
X11142095Y-13920143D01*
X11142095Y-13920143D02*
X11123048Y-13929667D01*
X11418286Y-13872524D02*
X11323048Y-13872524D01*
X11323048Y-13872524D02*
X11313524Y-13967762D01*
X11313524Y-13967762D02*
X11323048Y-13958238D01*
X11323048Y-13958238D02*
X11342095Y-13948714D01*
X11342095Y-13948714D02*
X11389714Y-13948714D01*
X11389714Y-13948714D02*
X11408762Y-13958238D01*
X11408762Y-13958238D02*
X11418286Y-13967762D01*
X11418286Y-13967762D02*
X11427810Y-13986809D01*
X11427810Y-13986809D02*
X11427810Y-14034428D01*
X11427810Y-14034428D02*
X11418286Y-14053476D01*
X11418286Y-14053476D02*
X11408762Y-14063000D01*
X11408762Y-14063000D02*
X11389714Y-14072524D01*
X11389714Y-14072524D02*
X11342095Y-14072524D01*
X11342095Y-14072524D02*
X11323048Y-14063000D01*
X11323048Y-14063000D02*
X11313524Y-14053476D01*
X11494476Y-13872524D02*
X11627810Y-13872524D01*
X11627810Y-13872524D02*
X11542095Y-14072524D01*
X11694476Y-13872524D02*
X11694476Y-13910619D01*
X11770667Y-13872524D02*
X11770667Y-13910619D01*
X12065905Y-14148714D02*
X12056381Y-14139190D01*
X12056381Y-14139190D02*
X12037334Y-14110619D01*
X12037334Y-14110619D02*
X12027810Y-14091571D01*
X12027810Y-14091571D02*
X12018286Y-14063000D01*
X12018286Y-14063000D02*
X12008762Y-14015381D01*
X12008762Y-14015381D02*
X12008762Y-13977286D01*
X12008762Y-13977286D02*
X12018286Y-13929667D01*
X12018286Y-13929667D02*
X12027810Y-13901095D01*
X12027810Y-13901095D02*
X12037334Y-13882048D01*
X12037334Y-13882048D02*
X12056381Y-13853476D01*
X12056381Y-13853476D02*
X12065905Y-13843952D01*
X12227810Y-13872524D02*
X12189714Y-13872524D01*
X12189714Y-13872524D02*
X12170667Y-13882048D01*
X12170667Y-13882048D02*
X12161143Y-13891571D01*
X12161143Y-13891571D02*
X12142095Y-13920143D01*
X12142095Y-13920143D02*
X12132572Y-13958238D01*
X12132572Y-13958238D02*
X12132572Y-14034428D01*
X12132572Y-14034428D02*
X12142095Y-14053476D01*
X12142095Y-14053476D02*
X12151619Y-14063000D01*
X12151619Y-14063000D02*
X12170667Y-14072524D01*
X12170667Y-14072524D02*
X12208762Y-14072524D01*
X12208762Y-14072524D02*
X12227810Y-14063000D01*
X12227810Y-14063000D02*
X12237334Y-14053476D01*
X12237334Y-14053476D02*
X12246857Y-14034428D01*
X12246857Y-14034428D02*
X12246857Y-13986809D01*
X12246857Y-13986809D02*
X12237334Y-13967762D01*
X12237334Y-13967762D02*
X12227810Y-13958238D01*
X12227810Y-13958238D02*
X12208762Y-13948714D01*
X12208762Y-13948714D02*
X12170667Y-13948714D01*
X12170667Y-13948714D02*
X12151619Y-13958238D01*
X12151619Y-13958238D02*
X12142095Y-13967762D01*
X12142095Y-13967762D02*
X12132572Y-13986809D01*
X12437334Y-14072524D02*
X12323048Y-14072524D01*
X12380191Y-14072524D02*
X12380191Y-13872524D01*
X12380191Y-13872524D02*
X12361143Y-13901095D01*
X12361143Y-13901095D02*
X12342095Y-13920143D01*
X12342095Y-13920143D02*
X12323048Y-13929667D01*
X12675429Y-14072524D02*
X12675429Y-13872524D01*
X12761143Y-14072524D02*
X12761143Y-13967762D01*
X12761143Y-13967762D02*
X12751619Y-13948714D01*
X12751619Y-13948714D02*
X12732572Y-13939190D01*
X12732572Y-13939190D02*
X12704000Y-13939190D01*
X12704000Y-13939190D02*
X12684953Y-13948714D01*
X12684953Y-13948714D02*
X12675429Y-13958238D01*
X12884953Y-14072524D02*
X12865905Y-14063000D01*
X12865905Y-14063000D02*
X12856381Y-14053476D01*
X12856381Y-14053476D02*
X12846857Y-14034428D01*
X12846857Y-14034428D02*
X12846857Y-13977286D01*
X12846857Y-13977286D02*
X12856381Y-13958238D01*
X12856381Y-13958238D02*
X12865905Y-13948714D01*
X12865905Y-13948714D02*
X12884953Y-13939190D01*
X12884953Y-13939190D02*
X12913524Y-13939190D01*
X12913524Y-13939190D02*
X12932572Y-13948714D01*
X12932572Y-13948714D02*
X12942096Y-13958238D01*
X12942096Y-13958238D02*
X12951619Y-13977286D01*
X12951619Y-13977286D02*
X12951619Y-14034428D01*
X12951619Y-14034428D02*
X12942096Y-14053476D01*
X12942096Y-14053476D02*
X12932572Y-14063000D01*
X12932572Y-14063000D02*
X12913524Y-14072524D01*
X12913524Y-14072524D02*
X12884953Y-14072524D01*
X13065905Y-14072524D02*
X13046857Y-14063000D01*
X13046857Y-14063000D02*
X13037334Y-14043952D01*
X13037334Y-14043952D02*
X13037334Y-13872524D01*
X13218286Y-14063000D02*
X13199238Y-14072524D01*
X13199238Y-14072524D02*
X13161143Y-14072524D01*
X13161143Y-14072524D02*
X13142096Y-14063000D01*
X13142096Y-14063000D02*
X13132572Y-14043952D01*
X13132572Y-14043952D02*
X13132572Y-13967762D01*
X13132572Y-13967762D02*
X13142096Y-13948714D01*
X13142096Y-13948714D02*
X13161143Y-13939190D01*
X13161143Y-13939190D02*
X13199238Y-13939190D01*
X13199238Y-13939190D02*
X13218286Y-13948714D01*
X13218286Y-13948714D02*
X13227810Y-13967762D01*
X13227810Y-13967762D02*
X13227810Y-13986809D01*
X13227810Y-13986809D02*
X13132572Y-14005857D01*
X13304000Y-14063000D02*
X13323048Y-14072524D01*
X13323048Y-14072524D02*
X13361143Y-14072524D01*
X13361143Y-14072524D02*
X13380191Y-14063000D01*
X13380191Y-14063000D02*
X13389715Y-14043952D01*
X13389715Y-14043952D02*
X13389715Y-14034428D01*
X13389715Y-14034428D02*
X13380191Y-14015381D01*
X13380191Y-14015381D02*
X13361143Y-14005857D01*
X13361143Y-14005857D02*
X13332572Y-14005857D01*
X13332572Y-14005857D02*
X13313524Y-13996333D01*
X13313524Y-13996333D02*
X13304000Y-13977286D01*
X13304000Y-13977286D02*
X13304000Y-13967762D01*
X13304000Y-13967762D02*
X13313524Y-13948714D01*
X13313524Y-13948714D02*
X13332572Y-13939190D01*
X13332572Y-13939190D02*
X13361143Y-13939190D01*
X13361143Y-13939190D02*
X13380191Y-13948714D01*
X13456381Y-14148714D02*
X13465905Y-14139190D01*
X13465905Y-14139190D02*
X13484953Y-14110619D01*
X13484953Y-14110619D02*
X13494477Y-14091571D01*
X13494477Y-14091571D02*
X13504000Y-14063000D01*
X13504000Y-14063000D02*
X13513524Y-14015381D01*
X13513524Y-14015381D02*
X13513524Y-13977286D01*
X13513524Y-13977286D02*
X13504000Y-13929667D01*
X13504000Y-13929667D02*
X13494477Y-13901095D01*
X13494477Y-13901095D02*
X13484953Y-13882048D01*
X13484953Y-13882048D02*
X13465905Y-13853476D01*
X13465905Y-13853476D02*
X13456381Y-13843952D01*
D13*
X8504000Y-14244000D02*
G75*
G03*
X8504000Y-14244000I-38100J0D01*
G01*
D11*
X8789714Y-14136524D02*
X8808762Y-14136524D01*
X8808762Y-14136524D02*
X8827810Y-14146048D01*
X8827810Y-14146048D02*
X8837333Y-14155571D01*
X8837333Y-14155571D02*
X8846857Y-14174619D01*
X8846857Y-14174619D02*
X8856381Y-14212714D01*
X8856381Y-14212714D02*
X8856381Y-14260333D01*
X8856381Y-14260333D02*
X8846857Y-14298428D01*
X8846857Y-14298428D02*
X8837333Y-14317476D01*
X8837333Y-14317476D02*
X8827810Y-14327000D01*
X8827810Y-14327000D02*
X8808762Y-14336524D01*
X8808762Y-14336524D02*
X8789714Y-14336524D01*
X8789714Y-14336524D02*
X8770667Y-14327000D01*
X8770667Y-14327000D02*
X8761143Y-14317476D01*
X8761143Y-14317476D02*
X8751619Y-14298428D01*
X8751619Y-14298428D02*
X8742095Y-14260333D01*
X8742095Y-14260333D02*
X8742095Y-14212714D01*
X8742095Y-14212714D02*
X8751619Y-14174619D01*
X8751619Y-14174619D02*
X8761143Y-14155571D01*
X8761143Y-14155571D02*
X8770667Y-14146048D01*
X8770667Y-14146048D02*
X8789714Y-14136524D01*
X8942095Y-14317476D02*
X8951619Y-14327000D01*
X8951619Y-14327000D02*
X8942095Y-14336524D01*
X8942095Y-14336524D02*
X8932571Y-14327000D01*
X8932571Y-14327000D02*
X8942095Y-14317476D01*
X8942095Y-14317476D02*
X8942095Y-14336524D01*
X9018286Y-14136524D02*
X9151619Y-14136524D01*
X9151619Y-14136524D02*
X9065905Y-14336524D01*
X9313524Y-14136524D02*
X9275429Y-14136524D01*
X9275429Y-14136524D02*
X9256381Y-14146048D01*
X9256381Y-14146048D02*
X9246857Y-14155571D01*
X9246857Y-14155571D02*
X9227810Y-14184143D01*
X9227810Y-14184143D02*
X9218286Y-14222238D01*
X9218286Y-14222238D02*
X9218286Y-14298428D01*
X9218286Y-14298428D02*
X9227810Y-14317476D01*
X9227810Y-14317476D02*
X9237333Y-14327000D01*
X9237333Y-14327000D02*
X9256381Y-14336524D01*
X9256381Y-14336524D02*
X9294476Y-14336524D01*
X9294476Y-14336524D02*
X9313524Y-14327000D01*
X9313524Y-14327000D02*
X9323048Y-14317476D01*
X9323048Y-14317476D02*
X9332571Y-14298428D01*
X9332571Y-14298428D02*
X9332571Y-14250809D01*
X9332571Y-14250809D02*
X9323048Y-14231762D01*
X9323048Y-14231762D02*
X9313524Y-14222238D01*
X9313524Y-14222238D02*
X9294476Y-14212714D01*
X9294476Y-14212714D02*
X9256381Y-14212714D01*
X9256381Y-14212714D02*
X9237333Y-14222238D01*
X9237333Y-14222238D02*
X9227810Y-14231762D01*
X9227810Y-14231762D02*
X9218286Y-14250809D01*
X9408762Y-14155571D02*
X9418286Y-14146048D01*
X9418286Y-14146048D02*
X9437333Y-14136524D01*
X9437333Y-14136524D02*
X9484952Y-14136524D01*
X9484952Y-14136524D02*
X9504000Y-14146048D01*
X9504000Y-14146048D02*
X9513524Y-14155571D01*
X9513524Y-14155571D02*
X9523048Y-14174619D01*
X9523048Y-14174619D02*
X9523048Y-14193667D01*
X9523048Y-14193667D02*
X9513524Y-14222238D01*
X9513524Y-14222238D02*
X9399238Y-14336524D01*
X9399238Y-14336524D02*
X9523048Y-14336524D01*
X9608762Y-14336524D02*
X9608762Y-14203190D01*
X9608762Y-14222238D02*
X9618286Y-14212714D01*
X9618286Y-14212714D02*
X9637333Y-14203190D01*
X9637333Y-14203190D02*
X9665905Y-14203190D01*
X9665905Y-14203190D02*
X9684952Y-14212714D01*
X9684952Y-14212714D02*
X9694476Y-14231762D01*
X9694476Y-14231762D02*
X9694476Y-14336524D01*
X9694476Y-14231762D02*
X9704000Y-14212714D01*
X9704000Y-14212714D02*
X9723048Y-14203190D01*
X9723048Y-14203190D02*
X9751619Y-14203190D01*
X9751619Y-14203190D02*
X9770667Y-14212714D01*
X9770667Y-14212714D02*
X9780191Y-14231762D01*
X9780191Y-14231762D02*
X9780191Y-14336524D01*
X9875429Y-14336524D02*
X9875429Y-14203190D01*
X9875429Y-14222238D02*
X9884952Y-14212714D01*
X9884952Y-14212714D02*
X9904000Y-14203190D01*
X9904000Y-14203190D02*
X9932572Y-14203190D01*
X9932572Y-14203190D02*
X9951619Y-14212714D01*
X9951619Y-14212714D02*
X9961143Y-14231762D01*
X9961143Y-14231762D02*
X9961143Y-14336524D01*
X9961143Y-14231762D02*
X9970667Y-14212714D01*
X9970667Y-14212714D02*
X9989714Y-14203190D01*
X9989714Y-14203190D02*
X10018286Y-14203190D01*
X10018286Y-14203190D02*
X10037333Y-14212714D01*
X10037333Y-14212714D02*
X10046857Y-14231762D01*
X10046857Y-14231762D02*
X10046857Y-14336524D01*
X10437333Y-14127000D02*
X10265905Y-14384143D01*
X10694476Y-14136524D02*
X10713524Y-14136524D01*
X10713524Y-14136524D02*
X10732572Y-14146048D01*
X10732572Y-14146048D02*
X10742095Y-14155571D01*
X10742095Y-14155571D02*
X10751619Y-14174619D01*
X10751619Y-14174619D02*
X10761143Y-14212714D01*
X10761143Y-14212714D02*
X10761143Y-14260333D01*
X10761143Y-14260333D02*
X10751619Y-14298428D01*
X10751619Y-14298428D02*
X10742095Y-14317476D01*
X10742095Y-14317476D02*
X10732572Y-14327000D01*
X10732572Y-14327000D02*
X10713524Y-14336524D01*
X10713524Y-14336524D02*
X10694476Y-14336524D01*
X10694476Y-14336524D02*
X10675429Y-14327000D01*
X10675429Y-14327000D02*
X10665905Y-14317476D01*
X10665905Y-14317476D02*
X10656381Y-14298428D01*
X10656381Y-14298428D02*
X10646857Y-14260333D01*
X10646857Y-14260333D02*
X10646857Y-14212714D01*
X10646857Y-14212714D02*
X10656381Y-14174619D01*
X10656381Y-14174619D02*
X10665905Y-14155571D01*
X10665905Y-14155571D02*
X10675429Y-14146048D01*
X10675429Y-14146048D02*
X10694476Y-14136524D01*
X10846857Y-14317476D02*
X10856381Y-14327000D01*
X10856381Y-14327000D02*
X10846857Y-14336524D01*
X10846857Y-14336524D02*
X10837334Y-14327000D01*
X10837334Y-14327000D02*
X10846857Y-14317476D01*
X10846857Y-14317476D02*
X10846857Y-14336524D01*
X10980191Y-14136524D02*
X10999238Y-14136524D01*
X10999238Y-14136524D02*
X11018286Y-14146048D01*
X11018286Y-14146048D02*
X11027810Y-14155571D01*
X11027810Y-14155571D02*
X11037334Y-14174619D01*
X11037334Y-14174619D02*
X11046857Y-14212714D01*
X11046857Y-14212714D02*
X11046857Y-14260333D01*
X11046857Y-14260333D02*
X11037334Y-14298428D01*
X11037334Y-14298428D02*
X11027810Y-14317476D01*
X11027810Y-14317476D02*
X11018286Y-14327000D01*
X11018286Y-14327000D02*
X10999238Y-14336524D01*
X10999238Y-14336524D02*
X10980191Y-14336524D01*
X10980191Y-14336524D02*
X10961143Y-14327000D01*
X10961143Y-14327000D02*
X10951619Y-14317476D01*
X10951619Y-14317476D02*
X10942095Y-14298428D01*
X10942095Y-14298428D02*
X10932572Y-14260333D01*
X10932572Y-14260333D02*
X10932572Y-14212714D01*
X10932572Y-14212714D02*
X10942095Y-14174619D01*
X10942095Y-14174619D02*
X10951619Y-14155571D01*
X10951619Y-14155571D02*
X10961143Y-14146048D01*
X10961143Y-14146048D02*
X10980191Y-14136524D01*
X11113524Y-14136524D02*
X11237333Y-14136524D01*
X11237333Y-14136524D02*
X11170667Y-14212714D01*
X11170667Y-14212714D02*
X11199238Y-14212714D01*
X11199238Y-14212714D02*
X11218286Y-14222238D01*
X11218286Y-14222238D02*
X11227810Y-14231762D01*
X11227810Y-14231762D02*
X11237333Y-14250809D01*
X11237333Y-14250809D02*
X11237333Y-14298428D01*
X11237333Y-14298428D02*
X11227810Y-14317476D01*
X11227810Y-14317476D02*
X11218286Y-14327000D01*
X11218286Y-14327000D02*
X11199238Y-14336524D01*
X11199238Y-14336524D02*
X11142095Y-14336524D01*
X11142095Y-14336524D02*
X11123048Y-14327000D01*
X11123048Y-14327000D02*
X11113524Y-14317476D01*
X11361143Y-14136524D02*
X11380191Y-14136524D01*
X11380191Y-14136524D02*
X11399238Y-14146048D01*
X11399238Y-14146048D02*
X11408762Y-14155571D01*
X11408762Y-14155571D02*
X11418286Y-14174619D01*
X11418286Y-14174619D02*
X11427810Y-14212714D01*
X11427810Y-14212714D02*
X11427810Y-14260333D01*
X11427810Y-14260333D02*
X11418286Y-14298428D01*
X11418286Y-14298428D02*
X11408762Y-14317476D01*
X11408762Y-14317476D02*
X11399238Y-14327000D01*
X11399238Y-14327000D02*
X11380191Y-14336524D01*
X11380191Y-14336524D02*
X11361143Y-14336524D01*
X11361143Y-14336524D02*
X11342095Y-14327000D01*
X11342095Y-14327000D02*
X11332572Y-14317476D01*
X11332572Y-14317476D02*
X11323048Y-14298428D01*
X11323048Y-14298428D02*
X11313524Y-14260333D01*
X11313524Y-14260333D02*
X11313524Y-14212714D01*
X11313524Y-14212714D02*
X11323048Y-14174619D01*
X11323048Y-14174619D02*
X11332572Y-14155571D01*
X11332572Y-14155571D02*
X11342095Y-14146048D01*
X11342095Y-14146048D02*
X11361143Y-14136524D01*
X11551619Y-14136524D02*
X11570667Y-14136524D01*
X11570667Y-14136524D02*
X11589714Y-14146048D01*
X11589714Y-14146048D02*
X11599238Y-14155571D01*
X11599238Y-14155571D02*
X11608762Y-14174619D01*
X11608762Y-14174619D02*
X11618286Y-14212714D01*
X11618286Y-14212714D02*
X11618286Y-14260333D01*
X11618286Y-14260333D02*
X11608762Y-14298428D01*
X11608762Y-14298428D02*
X11599238Y-14317476D01*
X11599238Y-14317476D02*
X11589714Y-14327000D01*
X11589714Y-14327000D02*
X11570667Y-14336524D01*
X11570667Y-14336524D02*
X11551619Y-14336524D01*
X11551619Y-14336524D02*
X11532572Y-14327000D01*
X11532572Y-14327000D02*
X11523048Y-14317476D01*
X11523048Y-14317476D02*
X11513524Y-14298428D01*
X11513524Y-14298428D02*
X11504000Y-14260333D01*
X11504000Y-14260333D02*
X11504000Y-14212714D01*
X11504000Y-14212714D02*
X11513524Y-14174619D01*
X11513524Y-14174619D02*
X11523048Y-14155571D01*
X11523048Y-14155571D02*
X11532572Y-14146048D01*
X11532572Y-14146048D02*
X11551619Y-14136524D01*
X11694476Y-14136524D02*
X11694476Y-14174619D01*
X11770667Y-14136524D02*
X11770667Y-14174619D01*
X12065905Y-14412714D02*
X12056381Y-14403190D01*
X12056381Y-14403190D02*
X12037334Y-14374619D01*
X12037334Y-14374619D02*
X12027810Y-14355571D01*
X12027810Y-14355571D02*
X12018286Y-14327000D01*
X12018286Y-14327000D02*
X12008762Y-14279381D01*
X12008762Y-14279381D02*
X12008762Y-14241286D01*
X12008762Y-14241286D02*
X12018286Y-14193667D01*
X12018286Y-14193667D02*
X12027810Y-14165095D01*
X12027810Y-14165095D02*
X12037334Y-14146048D01*
X12037334Y-14146048D02*
X12056381Y-14117476D01*
X12056381Y-14117476D02*
X12065905Y-14107952D01*
X12123048Y-14136524D02*
X12246857Y-14136524D01*
X12246857Y-14136524D02*
X12180191Y-14212714D01*
X12180191Y-14212714D02*
X12208762Y-14212714D01*
X12208762Y-14212714D02*
X12227810Y-14222238D01*
X12227810Y-14222238D02*
X12237334Y-14231762D01*
X12237334Y-14231762D02*
X12246857Y-14250809D01*
X12246857Y-14250809D02*
X12246857Y-14298428D01*
X12246857Y-14298428D02*
X12237334Y-14317476D01*
X12237334Y-14317476D02*
X12227810Y-14327000D01*
X12227810Y-14327000D02*
X12208762Y-14336524D01*
X12208762Y-14336524D02*
X12151619Y-14336524D01*
X12151619Y-14336524D02*
X12132572Y-14327000D01*
X12132572Y-14327000D02*
X12123048Y-14317476D01*
X12370667Y-14136524D02*
X12389715Y-14136524D01*
X12389715Y-14136524D02*
X12408762Y-14146048D01*
X12408762Y-14146048D02*
X12418286Y-14155571D01*
X12418286Y-14155571D02*
X12427810Y-14174619D01*
X12427810Y-14174619D02*
X12437334Y-14212714D01*
X12437334Y-14212714D02*
X12437334Y-14260333D01*
X12437334Y-14260333D02*
X12427810Y-14298428D01*
X12427810Y-14298428D02*
X12418286Y-14317476D01*
X12418286Y-14317476D02*
X12408762Y-14327000D01*
X12408762Y-14327000D02*
X12389715Y-14336524D01*
X12389715Y-14336524D02*
X12370667Y-14336524D01*
X12370667Y-14336524D02*
X12351619Y-14327000D01*
X12351619Y-14327000D02*
X12342095Y-14317476D01*
X12342095Y-14317476D02*
X12332572Y-14298428D01*
X12332572Y-14298428D02*
X12323048Y-14260333D01*
X12323048Y-14260333D02*
X12323048Y-14212714D01*
X12323048Y-14212714D02*
X12332572Y-14174619D01*
X12332572Y-14174619D02*
X12342095Y-14155571D01*
X12342095Y-14155571D02*
X12351619Y-14146048D01*
X12351619Y-14146048D02*
X12370667Y-14136524D01*
X12675429Y-14336524D02*
X12675429Y-14136524D01*
X12761143Y-14336524D02*
X12761143Y-14231762D01*
X12761143Y-14231762D02*
X12751619Y-14212714D01*
X12751619Y-14212714D02*
X12732572Y-14203190D01*
X12732572Y-14203190D02*
X12704000Y-14203190D01*
X12704000Y-14203190D02*
X12684953Y-14212714D01*
X12684953Y-14212714D02*
X12675429Y-14222238D01*
X12884953Y-14336524D02*
X12865905Y-14327000D01*
X12865905Y-14327000D02*
X12856381Y-14317476D01*
X12856381Y-14317476D02*
X12846857Y-14298428D01*
X12846857Y-14298428D02*
X12846857Y-14241286D01*
X12846857Y-14241286D02*
X12856381Y-14222238D01*
X12856381Y-14222238D02*
X12865905Y-14212714D01*
X12865905Y-14212714D02*
X12884953Y-14203190D01*
X12884953Y-14203190D02*
X12913524Y-14203190D01*
X12913524Y-14203190D02*
X12932572Y-14212714D01*
X12932572Y-14212714D02*
X12942096Y-14222238D01*
X12942096Y-14222238D02*
X12951619Y-14241286D01*
X12951619Y-14241286D02*
X12951619Y-14298428D01*
X12951619Y-14298428D02*
X12942096Y-14317476D01*
X12942096Y-14317476D02*
X12932572Y-14327000D01*
X12932572Y-14327000D02*
X12913524Y-14336524D01*
X12913524Y-14336524D02*
X12884953Y-14336524D01*
X13065905Y-14336524D02*
X13046857Y-14327000D01*
X13046857Y-14327000D02*
X13037334Y-14307952D01*
X13037334Y-14307952D02*
X13037334Y-14136524D01*
X13218286Y-14327000D02*
X13199238Y-14336524D01*
X13199238Y-14336524D02*
X13161143Y-14336524D01*
X13161143Y-14336524D02*
X13142096Y-14327000D01*
X13142096Y-14327000D02*
X13132572Y-14307952D01*
X13132572Y-14307952D02*
X13132572Y-14231762D01*
X13132572Y-14231762D02*
X13142096Y-14212714D01*
X13142096Y-14212714D02*
X13161143Y-14203190D01*
X13161143Y-14203190D02*
X13199238Y-14203190D01*
X13199238Y-14203190D02*
X13218286Y-14212714D01*
X13218286Y-14212714D02*
X13227810Y-14231762D01*
X13227810Y-14231762D02*
X13227810Y-14250809D01*
X13227810Y-14250809D02*
X13132572Y-14269857D01*
X13304000Y-14327000D02*
X13323048Y-14336524D01*
X13323048Y-14336524D02*
X13361143Y-14336524D01*
X13361143Y-14336524D02*
X13380191Y-14327000D01*
X13380191Y-14327000D02*
X13389715Y-14307952D01*
X13389715Y-14307952D02*
X13389715Y-14298428D01*
X13389715Y-14298428D02*
X13380191Y-14279381D01*
X13380191Y-14279381D02*
X13361143Y-14269857D01*
X13361143Y-14269857D02*
X13332572Y-14269857D01*
X13332572Y-14269857D02*
X13313524Y-14260333D01*
X13313524Y-14260333D02*
X13304000Y-14241286D01*
X13304000Y-14241286D02*
X13304000Y-14231762D01*
X13304000Y-14231762D02*
X13313524Y-14212714D01*
X13313524Y-14212714D02*
X13332572Y-14203190D01*
X13332572Y-14203190D02*
X13361143Y-14203190D01*
X13361143Y-14203190D02*
X13380191Y-14212714D01*
X13456381Y-14412714D02*
X13465905Y-14403190D01*
X13465905Y-14403190D02*
X13484953Y-14374619D01*
X13484953Y-14374619D02*
X13494477Y-14355571D01*
X13494477Y-14355571D02*
X13504000Y-14327000D01*
X13504000Y-14327000D02*
X13513524Y-14279381D01*
X13513524Y-14279381D02*
X13513524Y-14241286D01*
X13513524Y-14241286D02*
X13504000Y-14193667D01*
X13504000Y-14193667D02*
X13494477Y-14165095D01*
X13494477Y-14165095D02*
X13484953Y-14146048D01*
X13484953Y-14146048D02*
X13465905Y-14117476D01*
X13465905Y-14117476D02*
X13456381Y-14107952D01*
D14*
X8464000Y-14468000D02*
X8464000Y-14548000D01*
X8424000Y-14508000D02*
X8504000Y-14508000D01*
D11*
X8789714Y-14400524D02*
X8808762Y-14400524D01*
X8808762Y-14400524D02*
X8827810Y-14410048D01*
X8827810Y-14410048D02*
X8837333Y-14419571D01*
X8837333Y-14419571D02*
X8846857Y-14438619D01*
X8846857Y-14438619D02*
X8856381Y-14476714D01*
X8856381Y-14476714D02*
X8856381Y-14524333D01*
X8856381Y-14524333D02*
X8846857Y-14562428D01*
X8846857Y-14562428D02*
X8837333Y-14581476D01*
X8837333Y-14581476D02*
X8827810Y-14591000D01*
X8827810Y-14591000D02*
X8808762Y-14600524D01*
X8808762Y-14600524D02*
X8789714Y-14600524D01*
X8789714Y-14600524D02*
X8770667Y-14591000D01*
X8770667Y-14591000D02*
X8761143Y-14581476D01*
X8761143Y-14581476D02*
X8751619Y-14562428D01*
X8751619Y-14562428D02*
X8742095Y-14524333D01*
X8742095Y-14524333D02*
X8742095Y-14476714D01*
X8742095Y-14476714D02*
X8751619Y-14438619D01*
X8751619Y-14438619D02*
X8761143Y-14419571D01*
X8761143Y-14419571D02*
X8770667Y-14410048D01*
X8770667Y-14410048D02*
X8789714Y-14400524D01*
X8942095Y-14581476D02*
X8951619Y-14591000D01*
X8951619Y-14591000D02*
X8942095Y-14600524D01*
X8942095Y-14600524D02*
X8932571Y-14591000D01*
X8932571Y-14591000D02*
X8942095Y-14581476D01*
X8942095Y-14581476D02*
X8942095Y-14600524D01*
X9065905Y-14486238D02*
X9046857Y-14476714D01*
X9046857Y-14476714D02*
X9037333Y-14467190D01*
X9037333Y-14467190D02*
X9027810Y-14448143D01*
X9027810Y-14448143D02*
X9027810Y-14438619D01*
X9027810Y-14438619D02*
X9037333Y-14419571D01*
X9037333Y-14419571D02*
X9046857Y-14410048D01*
X9046857Y-14410048D02*
X9065905Y-14400524D01*
X9065905Y-14400524D02*
X9104000Y-14400524D01*
X9104000Y-14400524D02*
X9123048Y-14410048D01*
X9123048Y-14410048D02*
X9132571Y-14419571D01*
X9132571Y-14419571D02*
X9142095Y-14438619D01*
X9142095Y-14438619D02*
X9142095Y-14448143D01*
X9142095Y-14448143D02*
X9132571Y-14467190D01*
X9132571Y-14467190D02*
X9123048Y-14476714D01*
X9123048Y-14476714D02*
X9104000Y-14486238D01*
X9104000Y-14486238D02*
X9065905Y-14486238D01*
X9065905Y-14486238D02*
X9046857Y-14495762D01*
X9046857Y-14495762D02*
X9037333Y-14505286D01*
X9037333Y-14505286D02*
X9027810Y-14524333D01*
X9027810Y-14524333D02*
X9027810Y-14562428D01*
X9027810Y-14562428D02*
X9037333Y-14581476D01*
X9037333Y-14581476D02*
X9046857Y-14591000D01*
X9046857Y-14591000D02*
X9065905Y-14600524D01*
X9065905Y-14600524D02*
X9104000Y-14600524D01*
X9104000Y-14600524D02*
X9123048Y-14591000D01*
X9123048Y-14591000D02*
X9132571Y-14581476D01*
X9132571Y-14581476D02*
X9142095Y-14562428D01*
X9142095Y-14562428D02*
X9142095Y-14524333D01*
X9142095Y-14524333D02*
X9132571Y-14505286D01*
X9132571Y-14505286D02*
X9123048Y-14495762D01*
X9123048Y-14495762D02*
X9104000Y-14486238D01*
X9265905Y-14400524D02*
X9284952Y-14400524D01*
X9284952Y-14400524D02*
X9304000Y-14410048D01*
X9304000Y-14410048D02*
X9313524Y-14419571D01*
X9313524Y-14419571D02*
X9323048Y-14438619D01*
X9323048Y-14438619D02*
X9332571Y-14476714D01*
X9332571Y-14476714D02*
X9332571Y-14524333D01*
X9332571Y-14524333D02*
X9323048Y-14562428D01*
X9323048Y-14562428D02*
X9313524Y-14581476D01*
X9313524Y-14581476D02*
X9304000Y-14591000D01*
X9304000Y-14591000D02*
X9284952Y-14600524D01*
X9284952Y-14600524D02*
X9265905Y-14600524D01*
X9265905Y-14600524D02*
X9246857Y-14591000D01*
X9246857Y-14591000D02*
X9237333Y-14581476D01*
X9237333Y-14581476D02*
X9227810Y-14562428D01*
X9227810Y-14562428D02*
X9218286Y-14524333D01*
X9218286Y-14524333D02*
X9218286Y-14476714D01*
X9218286Y-14476714D02*
X9227810Y-14438619D01*
X9227810Y-14438619D02*
X9237333Y-14419571D01*
X9237333Y-14419571D02*
X9246857Y-14410048D01*
X9246857Y-14410048D02*
X9265905Y-14400524D01*
X9456381Y-14400524D02*
X9475429Y-14400524D01*
X9475429Y-14400524D02*
X9494476Y-14410048D01*
X9494476Y-14410048D02*
X9504000Y-14419571D01*
X9504000Y-14419571D02*
X9513524Y-14438619D01*
X9513524Y-14438619D02*
X9523048Y-14476714D01*
X9523048Y-14476714D02*
X9523048Y-14524333D01*
X9523048Y-14524333D02*
X9513524Y-14562428D01*
X9513524Y-14562428D02*
X9504000Y-14581476D01*
X9504000Y-14581476D02*
X9494476Y-14591000D01*
X9494476Y-14591000D02*
X9475429Y-14600524D01*
X9475429Y-14600524D02*
X9456381Y-14600524D01*
X9456381Y-14600524D02*
X9437333Y-14591000D01*
X9437333Y-14591000D02*
X9427810Y-14581476D01*
X9427810Y-14581476D02*
X9418286Y-14562428D01*
X9418286Y-14562428D02*
X9408762Y-14524333D01*
X9408762Y-14524333D02*
X9408762Y-14476714D01*
X9408762Y-14476714D02*
X9418286Y-14438619D01*
X9418286Y-14438619D02*
X9427810Y-14419571D01*
X9427810Y-14419571D02*
X9437333Y-14410048D01*
X9437333Y-14410048D02*
X9456381Y-14400524D01*
X9608762Y-14600524D02*
X9608762Y-14467190D01*
X9608762Y-14486238D02*
X9618286Y-14476714D01*
X9618286Y-14476714D02*
X9637333Y-14467190D01*
X9637333Y-14467190D02*
X9665905Y-14467190D01*
X9665905Y-14467190D02*
X9684952Y-14476714D01*
X9684952Y-14476714D02*
X9694476Y-14495762D01*
X9694476Y-14495762D02*
X9694476Y-14600524D01*
X9694476Y-14495762D02*
X9704000Y-14476714D01*
X9704000Y-14476714D02*
X9723048Y-14467190D01*
X9723048Y-14467190D02*
X9751619Y-14467190D01*
X9751619Y-14467190D02*
X9770667Y-14476714D01*
X9770667Y-14476714D02*
X9780191Y-14495762D01*
X9780191Y-14495762D02*
X9780191Y-14600524D01*
X9875429Y-14600524D02*
X9875429Y-14467190D01*
X9875429Y-14486238D02*
X9884952Y-14476714D01*
X9884952Y-14476714D02*
X9904000Y-14467190D01*
X9904000Y-14467190D02*
X9932572Y-14467190D01*
X9932572Y-14467190D02*
X9951619Y-14476714D01*
X9951619Y-14476714D02*
X9961143Y-14495762D01*
X9961143Y-14495762D02*
X9961143Y-14600524D01*
X9961143Y-14495762D02*
X9970667Y-14476714D01*
X9970667Y-14476714D02*
X9989714Y-14467190D01*
X9989714Y-14467190D02*
X10018286Y-14467190D01*
X10018286Y-14467190D02*
X10037333Y-14476714D01*
X10037333Y-14476714D02*
X10046857Y-14495762D01*
X10046857Y-14495762D02*
X10046857Y-14600524D01*
X10437333Y-14391000D02*
X10265905Y-14648143D01*
X10694476Y-14400524D02*
X10713524Y-14400524D01*
X10713524Y-14400524D02*
X10732572Y-14410048D01*
X10732572Y-14410048D02*
X10742095Y-14419571D01*
X10742095Y-14419571D02*
X10751619Y-14438619D01*
X10751619Y-14438619D02*
X10761143Y-14476714D01*
X10761143Y-14476714D02*
X10761143Y-14524333D01*
X10761143Y-14524333D02*
X10751619Y-14562428D01*
X10751619Y-14562428D02*
X10742095Y-14581476D01*
X10742095Y-14581476D02*
X10732572Y-14591000D01*
X10732572Y-14591000D02*
X10713524Y-14600524D01*
X10713524Y-14600524D02*
X10694476Y-14600524D01*
X10694476Y-14600524D02*
X10675429Y-14591000D01*
X10675429Y-14591000D02*
X10665905Y-14581476D01*
X10665905Y-14581476D02*
X10656381Y-14562428D01*
X10656381Y-14562428D02*
X10646857Y-14524333D01*
X10646857Y-14524333D02*
X10646857Y-14476714D01*
X10646857Y-14476714D02*
X10656381Y-14438619D01*
X10656381Y-14438619D02*
X10665905Y-14419571D01*
X10665905Y-14419571D02*
X10675429Y-14410048D01*
X10675429Y-14410048D02*
X10694476Y-14400524D01*
X10846857Y-14581476D02*
X10856381Y-14591000D01*
X10856381Y-14591000D02*
X10846857Y-14600524D01*
X10846857Y-14600524D02*
X10837334Y-14591000D01*
X10837334Y-14591000D02*
X10846857Y-14581476D01*
X10846857Y-14581476D02*
X10846857Y-14600524D01*
X10980191Y-14400524D02*
X10999238Y-14400524D01*
X10999238Y-14400524D02*
X11018286Y-14410048D01*
X11018286Y-14410048D02*
X11027810Y-14419571D01*
X11027810Y-14419571D02*
X11037334Y-14438619D01*
X11037334Y-14438619D02*
X11046857Y-14476714D01*
X11046857Y-14476714D02*
X11046857Y-14524333D01*
X11046857Y-14524333D02*
X11037334Y-14562428D01*
X11037334Y-14562428D02*
X11027810Y-14581476D01*
X11027810Y-14581476D02*
X11018286Y-14591000D01*
X11018286Y-14591000D02*
X10999238Y-14600524D01*
X10999238Y-14600524D02*
X10980191Y-14600524D01*
X10980191Y-14600524D02*
X10961143Y-14591000D01*
X10961143Y-14591000D02*
X10951619Y-14581476D01*
X10951619Y-14581476D02*
X10942095Y-14562428D01*
X10942095Y-14562428D02*
X10932572Y-14524333D01*
X10932572Y-14524333D02*
X10932572Y-14476714D01*
X10932572Y-14476714D02*
X10942095Y-14438619D01*
X10942095Y-14438619D02*
X10951619Y-14419571D01*
X10951619Y-14419571D02*
X10961143Y-14410048D01*
X10961143Y-14410048D02*
X10980191Y-14400524D01*
X11113524Y-14400524D02*
X11237333Y-14400524D01*
X11237333Y-14400524D02*
X11170667Y-14476714D01*
X11170667Y-14476714D02*
X11199238Y-14476714D01*
X11199238Y-14476714D02*
X11218286Y-14486238D01*
X11218286Y-14486238D02*
X11227810Y-14495762D01*
X11227810Y-14495762D02*
X11237333Y-14514809D01*
X11237333Y-14514809D02*
X11237333Y-14562428D01*
X11237333Y-14562428D02*
X11227810Y-14581476D01*
X11227810Y-14581476D02*
X11218286Y-14591000D01*
X11218286Y-14591000D02*
X11199238Y-14600524D01*
X11199238Y-14600524D02*
X11142095Y-14600524D01*
X11142095Y-14600524D02*
X11123048Y-14591000D01*
X11123048Y-14591000D02*
X11113524Y-14581476D01*
X11427810Y-14600524D02*
X11313524Y-14600524D01*
X11370667Y-14600524D02*
X11370667Y-14400524D01*
X11370667Y-14400524D02*
X11351619Y-14429095D01*
X11351619Y-14429095D02*
X11332572Y-14448143D01*
X11332572Y-14448143D02*
X11313524Y-14457667D01*
X11608762Y-14400524D02*
X11513524Y-14400524D01*
X11513524Y-14400524D02*
X11504000Y-14495762D01*
X11504000Y-14495762D02*
X11513524Y-14486238D01*
X11513524Y-14486238D02*
X11532572Y-14476714D01*
X11532572Y-14476714D02*
X11580191Y-14476714D01*
X11580191Y-14476714D02*
X11599238Y-14486238D01*
X11599238Y-14486238D02*
X11608762Y-14495762D01*
X11608762Y-14495762D02*
X11618286Y-14514809D01*
X11618286Y-14514809D02*
X11618286Y-14562428D01*
X11618286Y-14562428D02*
X11608762Y-14581476D01*
X11608762Y-14581476D02*
X11599238Y-14591000D01*
X11599238Y-14591000D02*
X11580191Y-14600524D01*
X11580191Y-14600524D02*
X11532572Y-14600524D01*
X11532572Y-14600524D02*
X11513524Y-14591000D01*
X11513524Y-14591000D02*
X11504000Y-14581476D01*
X11694476Y-14400524D02*
X11694476Y-14438619D01*
X11770667Y-14400524D02*
X11770667Y-14438619D01*
X12065905Y-14676714D02*
X12056381Y-14667190D01*
X12056381Y-14667190D02*
X12037334Y-14638619D01*
X12037334Y-14638619D02*
X12027810Y-14619571D01*
X12027810Y-14619571D02*
X12018286Y-14591000D01*
X12018286Y-14591000D02*
X12008762Y-14543381D01*
X12008762Y-14543381D02*
X12008762Y-14505286D01*
X12008762Y-14505286D02*
X12018286Y-14457667D01*
X12018286Y-14457667D02*
X12027810Y-14429095D01*
X12027810Y-14429095D02*
X12037334Y-14410048D01*
X12037334Y-14410048D02*
X12056381Y-14381476D01*
X12056381Y-14381476D02*
X12065905Y-14371952D01*
X12227810Y-14400524D02*
X12189714Y-14400524D01*
X12189714Y-14400524D02*
X12170667Y-14410048D01*
X12170667Y-14410048D02*
X12161143Y-14419571D01*
X12161143Y-14419571D02*
X12142095Y-14448143D01*
X12142095Y-14448143D02*
X12132572Y-14486238D01*
X12132572Y-14486238D02*
X12132572Y-14562428D01*
X12132572Y-14562428D02*
X12142095Y-14581476D01*
X12142095Y-14581476D02*
X12151619Y-14591000D01*
X12151619Y-14591000D02*
X12170667Y-14600524D01*
X12170667Y-14600524D02*
X12208762Y-14600524D01*
X12208762Y-14600524D02*
X12227810Y-14591000D01*
X12227810Y-14591000D02*
X12237334Y-14581476D01*
X12237334Y-14581476D02*
X12246857Y-14562428D01*
X12246857Y-14562428D02*
X12246857Y-14514809D01*
X12246857Y-14514809D02*
X12237334Y-14495762D01*
X12237334Y-14495762D02*
X12227810Y-14486238D01*
X12227810Y-14486238D02*
X12208762Y-14476714D01*
X12208762Y-14476714D02*
X12170667Y-14476714D01*
X12170667Y-14476714D02*
X12151619Y-14486238D01*
X12151619Y-14486238D02*
X12142095Y-14495762D01*
X12142095Y-14495762D02*
X12132572Y-14514809D01*
X12484953Y-14600524D02*
X12484953Y-14400524D01*
X12570667Y-14600524D02*
X12570667Y-14495762D01*
X12570667Y-14495762D02*
X12561143Y-14476714D01*
X12561143Y-14476714D02*
X12542096Y-14467190D01*
X12542096Y-14467190D02*
X12513524Y-14467190D01*
X12513524Y-14467190D02*
X12494476Y-14476714D01*
X12494476Y-14476714D02*
X12484953Y-14486238D01*
X12694476Y-14600524D02*
X12675429Y-14591000D01*
X12675429Y-14591000D02*
X12665905Y-14581476D01*
X12665905Y-14581476D02*
X12656381Y-14562428D01*
X12656381Y-14562428D02*
X12656381Y-14505286D01*
X12656381Y-14505286D02*
X12665905Y-14486238D01*
X12665905Y-14486238D02*
X12675429Y-14476714D01*
X12675429Y-14476714D02*
X12694476Y-14467190D01*
X12694476Y-14467190D02*
X12723048Y-14467190D01*
X12723048Y-14467190D02*
X12742096Y-14476714D01*
X12742096Y-14476714D02*
X12751619Y-14486238D01*
X12751619Y-14486238D02*
X12761143Y-14505286D01*
X12761143Y-14505286D02*
X12761143Y-14562428D01*
X12761143Y-14562428D02*
X12751619Y-14581476D01*
X12751619Y-14581476D02*
X12742096Y-14591000D01*
X12742096Y-14591000D02*
X12723048Y-14600524D01*
X12723048Y-14600524D02*
X12694476Y-14600524D01*
X12875429Y-14600524D02*
X12856381Y-14591000D01*
X12856381Y-14591000D02*
X12846857Y-14571952D01*
X12846857Y-14571952D02*
X12846857Y-14400524D01*
X13027810Y-14591000D02*
X13008762Y-14600524D01*
X13008762Y-14600524D02*
X12970667Y-14600524D01*
X12970667Y-14600524D02*
X12951619Y-14591000D01*
X12951619Y-14591000D02*
X12942096Y-14571952D01*
X12942096Y-14571952D02*
X12942096Y-14495762D01*
X12942096Y-14495762D02*
X12951619Y-14476714D01*
X12951619Y-14476714D02*
X12970667Y-14467190D01*
X12970667Y-14467190D02*
X13008762Y-14467190D01*
X13008762Y-14467190D02*
X13027810Y-14476714D01*
X13027810Y-14476714D02*
X13037334Y-14495762D01*
X13037334Y-14495762D02*
X13037334Y-14514809D01*
X13037334Y-14514809D02*
X12942096Y-14533857D01*
X13113524Y-14591000D02*
X13132572Y-14600524D01*
X13132572Y-14600524D02*
X13170667Y-14600524D01*
X13170667Y-14600524D02*
X13189715Y-14591000D01*
X13189715Y-14591000D02*
X13199238Y-14571952D01*
X13199238Y-14571952D02*
X13199238Y-14562428D01*
X13199238Y-14562428D02*
X13189715Y-14543381D01*
X13189715Y-14543381D02*
X13170667Y-14533857D01*
X13170667Y-14533857D02*
X13142096Y-14533857D01*
X13142096Y-14533857D02*
X13123048Y-14524333D01*
X13123048Y-14524333D02*
X13113524Y-14505286D01*
X13113524Y-14505286D02*
X13113524Y-14495762D01*
X13113524Y-14495762D02*
X13123048Y-14476714D01*
X13123048Y-14476714D02*
X13142096Y-14467190D01*
X13142096Y-14467190D02*
X13170667Y-14467190D01*
X13170667Y-14467190D02*
X13189715Y-14476714D01*
X13265905Y-14676714D02*
X13275429Y-14667190D01*
X13275429Y-14667190D02*
X13294477Y-14638619D01*
X13294477Y-14638619D02*
X13304000Y-14619571D01*
X13304000Y-14619571D02*
X13313524Y-14591000D01*
X13313524Y-14591000D02*
X13323048Y-14543381D01*
X13323048Y-14543381D02*
X13323048Y-14505286D01*
X13323048Y-14505286D02*
X13313524Y-14457667D01*
X13313524Y-14457667D02*
X13304000Y-14429095D01*
X13304000Y-14429095D02*
X13294477Y-14410048D01*
X13294477Y-14410048D02*
X13275429Y-14381476D01*
X13275429Y-14381476D02*
X13265905Y-14371952D01*
D10*
X8489356Y-14807356D02*
X8489356Y-14736644D01*
X8418644Y-14736644D01*
X8418644Y-14807356D01*
X8489356Y-14807356D01*
D11*
X8856381Y-14864524D02*
X8742095Y-14864524D01*
X8799238Y-14864524D02*
X8799238Y-14664524D01*
X8799238Y-14664524D02*
X8780190Y-14693095D01*
X8780190Y-14693095D02*
X8761143Y-14712143D01*
X8761143Y-14712143D02*
X8742095Y-14721667D01*
X8942095Y-14845476D02*
X8951619Y-14855000D01*
X8951619Y-14855000D02*
X8942095Y-14864524D01*
X8942095Y-14864524D02*
X8932571Y-14855000D01*
X8932571Y-14855000D02*
X8942095Y-14845476D01*
X8942095Y-14845476D02*
X8942095Y-14864524D01*
X9075429Y-14664524D02*
X9094476Y-14664524D01*
X9094476Y-14664524D02*
X9113524Y-14674048D01*
X9113524Y-14674048D02*
X9123048Y-14683571D01*
X9123048Y-14683571D02*
X9132571Y-14702619D01*
X9132571Y-14702619D02*
X9142095Y-14740714D01*
X9142095Y-14740714D02*
X9142095Y-14788333D01*
X9142095Y-14788333D02*
X9132571Y-14826428D01*
X9132571Y-14826428D02*
X9123048Y-14845476D01*
X9123048Y-14845476D02*
X9113524Y-14855000D01*
X9113524Y-14855000D02*
X9094476Y-14864524D01*
X9094476Y-14864524D02*
X9075429Y-14864524D01*
X9075429Y-14864524D02*
X9056381Y-14855000D01*
X9056381Y-14855000D02*
X9046857Y-14845476D01*
X9046857Y-14845476D02*
X9037333Y-14826428D01*
X9037333Y-14826428D02*
X9027810Y-14788333D01*
X9027810Y-14788333D02*
X9027810Y-14740714D01*
X9027810Y-14740714D02*
X9037333Y-14702619D01*
X9037333Y-14702619D02*
X9046857Y-14683571D01*
X9046857Y-14683571D02*
X9056381Y-14674048D01*
X9056381Y-14674048D02*
X9075429Y-14664524D01*
X9265905Y-14664524D02*
X9284952Y-14664524D01*
X9284952Y-14664524D02*
X9304000Y-14674048D01*
X9304000Y-14674048D02*
X9313524Y-14683571D01*
X9313524Y-14683571D02*
X9323048Y-14702619D01*
X9323048Y-14702619D02*
X9332571Y-14740714D01*
X9332571Y-14740714D02*
X9332571Y-14788333D01*
X9332571Y-14788333D02*
X9323048Y-14826428D01*
X9323048Y-14826428D02*
X9313524Y-14845476D01*
X9313524Y-14845476D02*
X9304000Y-14855000D01*
X9304000Y-14855000D02*
X9284952Y-14864524D01*
X9284952Y-14864524D02*
X9265905Y-14864524D01*
X9265905Y-14864524D02*
X9246857Y-14855000D01*
X9246857Y-14855000D02*
X9237333Y-14845476D01*
X9237333Y-14845476D02*
X9227810Y-14826428D01*
X9227810Y-14826428D02*
X9218286Y-14788333D01*
X9218286Y-14788333D02*
X9218286Y-14740714D01*
X9218286Y-14740714D02*
X9227810Y-14702619D01*
X9227810Y-14702619D02*
X9237333Y-14683571D01*
X9237333Y-14683571D02*
X9246857Y-14674048D01*
X9246857Y-14674048D02*
X9265905Y-14664524D01*
X9456381Y-14664524D02*
X9475429Y-14664524D01*
X9475429Y-14664524D02*
X9494476Y-14674048D01*
X9494476Y-14674048D02*
X9504000Y-14683571D01*
X9504000Y-14683571D02*
X9513524Y-14702619D01*
X9513524Y-14702619D02*
X9523048Y-14740714D01*
X9523048Y-14740714D02*
X9523048Y-14788333D01*
X9523048Y-14788333D02*
X9513524Y-14826428D01*
X9513524Y-14826428D02*
X9504000Y-14845476D01*
X9504000Y-14845476D02*
X9494476Y-14855000D01*
X9494476Y-14855000D02*
X9475429Y-14864524D01*
X9475429Y-14864524D02*
X9456381Y-14864524D01*
X9456381Y-14864524D02*
X9437333Y-14855000D01*
X9437333Y-14855000D02*
X9427810Y-14845476D01*
X9427810Y-14845476D02*
X9418286Y-14826428D01*
X9418286Y-14826428D02*
X9408762Y-14788333D01*
X9408762Y-14788333D02*
X9408762Y-14740714D01*
X9408762Y-14740714D02*
X9418286Y-14702619D01*
X9418286Y-14702619D02*
X9427810Y-14683571D01*
X9427810Y-14683571D02*
X9437333Y-14674048D01*
X9437333Y-14674048D02*
X9456381Y-14664524D01*
X9608762Y-14864524D02*
X9608762Y-14731190D01*
X9608762Y-14750238D02*
X9618286Y-14740714D01*
X9618286Y-14740714D02*
X9637333Y-14731190D01*
X9637333Y-14731190D02*
X9665905Y-14731190D01*
X9665905Y-14731190D02*
X9684952Y-14740714D01*
X9684952Y-14740714D02*
X9694476Y-14759762D01*
X9694476Y-14759762D02*
X9694476Y-14864524D01*
X9694476Y-14759762D02*
X9704000Y-14740714D01*
X9704000Y-14740714D02*
X9723048Y-14731190D01*
X9723048Y-14731190D02*
X9751619Y-14731190D01*
X9751619Y-14731190D02*
X9770667Y-14740714D01*
X9770667Y-14740714D02*
X9780191Y-14759762D01*
X9780191Y-14759762D02*
X9780191Y-14864524D01*
X9875429Y-14864524D02*
X9875429Y-14731190D01*
X9875429Y-14750238D02*
X9884952Y-14740714D01*
X9884952Y-14740714D02*
X9904000Y-14731190D01*
X9904000Y-14731190D02*
X9932572Y-14731190D01*
X9932572Y-14731190D02*
X9951619Y-14740714D01*
X9951619Y-14740714D02*
X9961143Y-14759762D01*
X9961143Y-14759762D02*
X9961143Y-14864524D01*
X9961143Y-14759762D02*
X9970667Y-14740714D01*
X9970667Y-14740714D02*
X9989714Y-14731190D01*
X9989714Y-14731190D02*
X10018286Y-14731190D01*
X10018286Y-14731190D02*
X10037333Y-14740714D01*
X10037333Y-14740714D02*
X10046857Y-14759762D01*
X10046857Y-14759762D02*
X10046857Y-14864524D01*
X10437333Y-14655000D02*
X10265905Y-14912143D01*
X10694476Y-14664524D02*
X10713524Y-14664524D01*
X10713524Y-14664524D02*
X10732572Y-14674048D01*
X10732572Y-14674048D02*
X10742095Y-14683571D01*
X10742095Y-14683571D02*
X10751619Y-14702619D01*
X10751619Y-14702619D02*
X10761143Y-14740714D01*
X10761143Y-14740714D02*
X10761143Y-14788333D01*
X10761143Y-14788333D02*
X10751619Y-14826428D01*
X10751619Y-14826428D02*
X10742095Y-14845476D01*
X10742095Y-14845476D02*
X10732572Y-14855000D01*
X10732572Y-14855000D02*
X10713524Y-14864524D01*
X10713524Y-14864524D02*
X10694476Y-14864524D01*
X10694476Y-14864524D02*
X10675429Y-14855000D01*
X10675429Y-14855000D02*
X10665905Y-14845476D01*
X10665905Y-14845476D02*
X10656381Y-14826428D01*
X10656381Y-14826428D02*
X10646857Y-14788333D01*
X10646857Y-14788333D02*
X10646857Y-14740714D01*
X10646857Y-14740714D02*
X10656381Y-14702619D01*
X10656381Y-14702619D02*
X10665905Y-14683571D01*
X10665905Y-14683571D02*
X10675429Y-14674048D01*
X10675429Y-14674048D02*
X10694476Y-14664524D01*
X10846857Y-14845476D02*
X10856381Y-14855000D01*
X10856381Y-14855000D02*
X10846857Y-14864524D01*
X10846857Y-14864524D02*
X10837334Y-14855000D01*
X10837334Y-14855000D02*
X10846857Y-14845476D01*
X10846857Y-14845476D02*
X10846857Y-14864524D01*
X10980191Y-14664524D02*
X10999238Y-14664524D01*
X10999238Y-14664524D02*
X11018286Y-14674048D01*
X11018286Y-14674048D02*
X11027810Y-14683571D01*
X11027810Y-14683571D02*
X11037334Y-14702619D01*
X11037334Y-14702619D02*
X11046857Y-14740714D01*
X11046857Y-14740714D02*
X11046857Y-14788333D01*
X11046857Y-14788333D02*
X11037334Y-14826428D01*
X11037334Y-14826428D02*
X11027810Y-14845476D01*
X11027810Y-14845476D02*
X11018286Y-14855000D01*
X11018286Y-14855000D02*
X10999238Y-14864524D01*
X10999238Y-14864524D02*
X10980191Y-14864524D01*
X10980191Y-14864524D02*
X10961143Y-14855000D01*
X10961143Y-14855000D02*
X10951619Y-14845476D01*
X10951619Y-14845476D02*
X10942095Y-14826428D01*
X10942095Y-14826428D02*
X10932572Y-14788333D01*
X10932572Y-14788333D02*
X10932572Y-14740714D01*
X10932572Y-14740714D02*
X10942095Y-14702619D01*
X10942095Y-14702619D02*
X10951619Y-14683571D01*
X10951619Y-14683571D02*
X10961143Y-14674048D01*
X10961143Y-14674048D02*
X10980191Y-14664524D01*
X11113524Y-14664524D02*
X11237333Y-14664524D01*
X11237333Y-14664524D02*
X11170667Y-14740714D01*
X11170667Y-14740714D02*
X11199238Y-14740714D01*
X11199238Y-14740714D02*
X11218286Y-14750238D01*
X11218286Y-14750238D02*
X11227810Y-14759762D01*
X11227810Y-14759762D02*
X11237333Y-14778809D01*
X11237333Y-14778809D02*
X11237333Y-14826428D01*
X11237333Y-14826428D02*
X11227810Y-14845476D01*
X11227810Y-14845476D02*
X11218286Y-14855000D01*
X11218286Y-14855000D02*
X11199238Y-14864524D01*
X11199238Y-14864524D02*
X11142095Y-14864524D01*
X11142095Y-14864524D02*
X11123048Y-14855000D01*
X11123048Y-14855000D02*
X11113524Y-14845476D01*
X11332572Y-14864524D02*
X11370667Y-14864524D01*
X11370667Y-14864524D02*
X11389714Y-14855000D01*
X11389714Y-14855000D02*
X11399238Y-14845476D01*
X11399238Y-14845476D02*
X11418286Y-14816905D01*
X11418286Y-14816905D02*
X11427810Y-14778809D01*
X11427810Y-14778809D02*
X11427810Y-14702619D01*
X11427810Y-14702619D02*
X11418286Y-14683571D01*
X11418286Y-14683571D02*
X11408762Y-14674048D01*
X11408762Y-14674048D02*
X11389714Y-14664524D01*
X11389714Y-14664524D02*
X11351619Y-14664524D01*
X11351619Y-14664524D02*
X11332572Y-14674048D01*
X11332572Y-14674048D02*
X11323048Y-14683571D01*
X11323048Y-14683571D02*
X11313524Y-14702619D01*
X11313524Y-14702619D02*
X11313524Y-14750238D01*
X11313524Y-14750238D02*
X11323048Y-14769286D01*
X11323048Y-14769286D02*
X11332572Y-14778809D01*
X11332572Y-14778809D02*
X11351619Y-14788333D01*
X11351619Y-14788333D02*
X11389714Y-14788333D01*
X11389714Y-14788333D02*
X11408762Y-14778809D01*
X11408762Y-14778809D02*
X11418286Y-14769286D01*
X11418286Y-14769286D02*
X11427810Y-14750238D01*
X11599238Y-14731190D02*
X11599238Y-14864524D01*
X11551619Y-14655000D02*
X11504000Y-14797857D01*
X11504000Y-14797857D02*
X11627810Y-14797857D01*
X11694476Y-14664524D02*
X11694476Y-14702619D01*
X11770667Y-14664524D02*
X11770667Y-14702619D01*
X12065905Y-14940714D02*
X12056381Y-14931190D01*
X12056381Y-14931190D02*
X12037334Y-14902619D01*
X12037334Y-14902619D02*
X12027810Y-14883571D01*
X12027810Y-14883571D02*
X12018286Y-14855000D01*
X12018286Y-14855000D02*
X12008762Y-14807381D01*
X12008762Y-14807381D02*
X12008762Y-14769286D01*
X12008762Y-14769286D02*
X12018286Y-14721667D01*
X12018286Y-14721667D02*
X12027810Y-14693095D01*
X12027810Y-14693095D02*
X12037334Y-14674048D01*
X12037334Y-14674048D02*
X12056381Y-14645476D01*
X12056381Y-14645476D02*
X12065905Y-14635952D01*
X12123048Y-14664524D02*
X12246857Y-14664524D01*
X12246857Y-14664524D02*
X12180191Y-14740714D01*
X12180191Y-14740714D02*
X12208762Y-14740714D01*
X12208762Y-14740714D02*
X12227810Y-14750238D01*
X12227810Y-14750238D02*
X12237334Y-14759762D01*
X12237334Y-14759762D02*
X12246857Y-14778809D01*
X12246857Y-14778809D02*
X12246857Y-14826428D01*
X12246857Y-14826428D02*
X12237334Y-14845476D01*
X12237334Y-14845476D02*
X12227810Y-14855000D01*
X12227810Y-14855000D02*
X12208762Y-14864524D01*
X12208762Y-14864524D02*
X12151619Y-14864524D01*
X12151619Y-14864524D02*
X12132572Y-14855000D01*
X12132572Y-14855000D02*
X12123048Y-14845476D01*
X12437334Y-14864524D02*
X12323048Y-14864524D01*
X12380191Y-14864524D02*
X12380191Y-14664524D01*
X12380191Y-14664524D02*
X12361143Y-14693095D01*
X12361143Y-14693095D02*
X12342095Y-14712143D01*
X12342095Y-14712143D02*
X12323048Y-14721667D01*
X12675429Y-14864524D02*
X12675429Y-14664524D01*
X12761143Y-14864524D02*
X12761143Y-14759762D01*
X12761143Y-14759762D02*
X12751619Y-14740714D01*
X12751619Y-14740714D02*
X12732572Y-14731190D01*
X12732572Y-14731190D02*
X12704000Y-14731190D01*
X12704000Y-14731190D02*
X12684953Y-14740714D01*
X12684953Y-14740714D02*
X12675429Y-14750238D01*
X12884953Y-14864524D02*
X12865905Y-14855000D01*
X12865905Y-14855000D02*
X12856381Y-14845476D01*
X12856381Y-14845476D02*
X12846857Y-14826428D01*
X12846857Y-14826428D02*
X12846857Y-14769286D01*
X12846857Y-14769286D02*
X12856381Y-14750238D01*
X12856381Y-14750238D02*
X12865905Y-14740714D01*
X12865905Y-14740714D02*
X12884953Y-14731190D01*
X12884953Y-14731190D02*
X12913524Y-14731190D01*
X12913524Y-14731190D02*
X12932572Y-14740714D01*
X12932572Y-14740714D02*
X12942096Y-14750238D01*
X12942096Y-14750238D02*
X12951619Y-14769286D01*
X12951619Y-14769286D02*
X12951619Y-14826428D01*
X12951619Y-14826428D02*
X12942096Y-14845476D01*
X12942096Y-14845476D02*
X12932572Y-14855000D01*
X12932572Y-14855000D02*
X12913524Y-14864524D01*
X12913524Y-14864524D02*
X12884953Y-14864524D01*
X13065905Y-14864524D02*
X13046857Y-14855000D01*
X13046857Y-14855000D02*
X13037334Y-14835952D01*
X13037334Y-14835952D02*
X13037334Y-14664524D01*
X13218286Y-14855000D02*
X13199238Y-14864524D01*
X13199238Y-14864524D02*
X13161143Y-14864524D01*
X13161143Y-14864524D02*
X13142096Y-14855000D01*
X13142096Y-14855000D02*
X13132572Y-14835952D01*
X13132572Y-14835952D02*
X13132572Y-14759762D01*
X13132572Y-14759762D02*
X13142096Y-14740714D01*
X13142096Y-14740714D02*
X13161143Y-14731190D01*
X13161143Y-14731190D02*
X13199238Y-14731190D01*
X13199238Y-14731190D02*
X13218286Y-14740714D01*
X13218286Y-14740714D02*
X13227810Y-14759762D01*
X13227810Y-14759762D02*
X13227810Y-14778809D01*
X13227810Y-14778809D02*
X13132572Y-14797857D01*
X13304000Y-14855000D02*
X13323048Y-14864524D01*
X13323048Y-14864524D02*
X13361143Y-14864524D01*
X13361143Y-14864524D02*
X13380191Y-14855000D01*
X13380191Y-14855000D02*
X13389715Y-14835952D01*
X13389715Y-14835952D02*
X13389715Y-14826428D01*
X13389715Y-14826428D02*
X13380191Y-14807381D01*
X13380191Y-14807381D02*
X13361143Y-14797857D01*
X13361143Y-14797857D02*
X13332572Y-14797857D01*
X13332572Y-14797857D02*
X13313524Y-14788333D01*
X13313524Y-14788333D02*
X13304000Y-14769286D01*
X13304000Y-14769286D02*
X13304000Y-14759762D01*
X13304000Y-14759762D02*
X13313524Y-14740714D01*
X13313524Y-14740714D02*
X13332572Y-14731190D01*
X13332572Y-14731190D02*
X13361143Y-14731190D01*
X13361143Y-14731190D02*
X13380191Y-14740714D01*
X13456381Y-14940714D02*
X13465905Y-14931190D01*
X13465905Y-14931190D02*
X13484953Y-14902619D01*
X13484953Y-14902619D02*
X13494477Y-14883571D01*
X13494477Y-14883571D02*
X13504000Y-14855000D01*
X13504000Y-14855000D02*
X13513524Y-14807381D01*
X13513524Y-14807381D02*
X13513524Y-14769286D01*
X13513524Y-14769286D02*
X13504000Y-14721667D01*
X13504000Y-14721667D02*
X13494477Y-14693095D01*
X13494477Y-14693095D02*
X13484953Y-14674048D01*
X13484953Y-14674048D02*
X13465905Y-14645476D01*
X13465905Y-14645476D02*
X13456381Y-14635952D01*
D15*
X8429000Y-15111000D02*
X8504000Y-15036000D01*
X8429000Y-14961000D01*
X8354000Y-15036000D01*
X8429000Y-15111000D01*
D11*
X8856381Y-15128524D02*
X8742095Y-15128524D01*
X8799238Y-15128524D02*
X8799238Y-14928524D01*
X8799238Y-14928524D02*
X8780190Y-14957095D01*
X8780190Y-14957095D02*
X8761143Y-14976143D01*
X8761143Y-14976143D02*
X8742095Y-14985667D01*
X8942095Y-15109476D02*
X8951619Y-15119000D01*
X8951619Y-15119000D02*
X8942095Y-15128524D01*
X8942095Y-15128524D02*
X8932571Y-15119000D01*
X8932571Y-15119000D02*
X8942095Y-15109476D01*
X8942095Y-15109476D02*
X8942095Y-15128524D01*
X9132571Y-14928524D02*
X9037333Y-14928524D01*
X9037333Y-14928524D02*
X9027810Y-15023762D01*
X9027810Y-15023762D02*
X9037333Y-15014238D01*
X9037333Y-15014238D02*
X9056381Y-15004714D01*
X9056381Y-15004714D02*
X9104000Y-15004714D01*
X9104000Y-15004714D02*
X9123048Y-15014238D01*
X9123048Y-15014238D02*
X9132571Y-15023762D01*
X9132571Y-15023762D02*
X9142095Y-15042809D01*
X9142095Y-15042809D02*
X9142095Y-15090428D01*
X9142095Y-15090428D02*
X9132571Y-15109476D01*
X9132571Y-15109476D02*
X9123048Y-15119000D01*
X9123048Y-15119000D02*
X9104000Y-15128524D01*
X9104000Y-15128524D02*
X9056381Y-15128524D01*
X9056381Y-15128524D02*
X9037333Y-15119000D01*
X9037333Y-15119000D02*
X9027810Y-15109476D01*
X9265905Y-14928524D02*
X9284952Y-14928524D01*
X9284952Y-14928524D02*
X9304000Y-14938048D01*
X9304000Y-14938048D02*
X9313524Y-14947571D01*
X9313524Y-14947571D02*
X9323048Y-14966619D01*
X9323048Y-14966619D02*
X9332571Y-15004714D01*
X9332571Y-15004714D02*
X9332571Y-15052333D01*
X9332571Y-15052333D02*
X9323048Y-15090428D01*
X9323048Y-15090428D02*
X9313524Y-15109476D01*
X9313524Y-15109476D02*
X9304000Y-15119000D01*
X9304000Y-15119000D02*
X9284952Y-15128524D01*
X9284952Y-15128524D02*
X9265905Y-15128524D01*
X9265905Y-15128524D02*
X9246857Y-15119000D01*
X9246857Y-15119000D02*
X9237333Y-15109476D01*
X9237333Y-15109476D02*
X9227810Y-15090428D01*
X9227810Y-15090428D02*
X9218286Y-15052333D01*
X9218286Y-15052333D02*
X9218286Y-15004714D01*
X9218286Y-15004714D02*
X9227810Y-14966619D01*
X9227810Y-14966619D02*
X9237333Y-14947571D01*
X9237333Y-14947571D02*
X9246857Y-14938048D01*
X9246857Y-14938048D02*
X9265905Y-14928524D01*
X9456381Y-14928524D02*
X9475429Y-14928524D01*
X9475429Y-14928524D02*
X9494476Y-14938048D01*
X9494476Y-14938048D02*
X9504000Y-14947571D01*
X9504000Y-14947571D02*
X9513524Y-14966619D01*
X9513524Y-14966619D02*
X9523048Y-15004714D01*
X9523048Y-15004714D02*
X9523048Y-15052333D01*
X9523048Y-15052333D02*
X9513524Y-15090428D01*
X9513524Y-15090428D02*
X9504000Y-15109476D01*
X9504000Y-15109476D02*
X9494476Y-15119000D01*
X9494476Y-15119000D02*
X9475429Y-15128524D01*
X9475429Y-15128524D02*
X9456381Y-15128524D01*
X9456381Y-15128524D02*
X9437333Y-15119000D01*
X9437333Y-15119000D02*
X9427810Y-15109476D01*
X9427810Y-15109476D02*
X9418286Y-15090428D01*
X9418286Y-15090428D02*
X9408762Y-15052333D01*
X9408762Y-15052333D02*
X9408762Y-15004714D01*
X9408762Y-15004714D02*
X9418286Y-14966619D01*
X9418286Y-14966619D02*
X9427810Y-14947571D01*
X9427810Y-14947571D02*
X9437333Y-14938048D01*
X9437333Y-14938048D02*
X9456381Y-14928524D01*
X9608762Y-15128524D02*
X9608762Y-14995190D01*
X9608762Y-15014238D02*
X9618286Y-15004714D01*
X9618286Y-15004714D02*
X9637333Y-14995190D01*
X9637333Y-14995190D02*
X9665905Y-14995190D01*
X9665905Y-14995190D02*
X9684952Y-15004714D01*
X9684952Y-15004714D02*
X9694476Y-15023762D01*
X9694476Y-15023762D02*
X9694476Y-15128524D01*
X9694476Y-15023762D02*
X9704000Y-15004714D01*
X9704000Y-15004714D02*
X9723048Y-14995190D01*
X9723048Y-14995190D02*
X9751619Y-14995190D01*
X9751619Y-14995190D02*
X9770667Y-15004714D01*
X9770667Y-15004714D02*
X9780191Y-15023762D01*
X9780191Y-15023762D02*
X9780191Y-15128524D01*
X9875429Y-15128524D02*
X9875429Y-14995190D01*
X9875429Y-15014238D02*
X9884952Y-15004714D01*
X9884952Y-15004714D02*
X9904000Y-14995190D01*
X9904000Y-14995190D02*
X9932572Y-14995190D01*
X9932572Y-14995190D02*
X9951619Y-15004714D01*
X9951619Y-15004714D02*
X9961143Y-15023762D01*
X9961143Y-15023762D02*
X9961143Y-15128524D01*
X9961143Y-15023762D02*
X9970667Y-15004714D01*
X9970667Y-15004714D02*
X9989714Y-14995190D01*
X9989714Y-14995190D02*
X10018286Y-14995190D01*
X10018286Y-14995190D02*
X10037333Y-15004714D01*
X10037333Y-15004714D02*
X10046857Y-15023762D01*
X10046857Y-15023762D02*
X10046857Y-15128524D01*
X10437333Y-14919000D02*
X10265905Y-15176143D01*
X10694476Y-14928524D02*
X10713524Y-14928524D01*
X10713524Y-14928524D02*
X10732572Y-14938048D01*
X10732572Y-14938048D02*
X10742095Y-14947571D01*
X10742095Y-14947571D02*
X10751619Y-14966619D01*
X10751619Y-14966619D02*
X10761143Y-15004714D01*
X10761143Y-15004714D02*
X10761143Y-15052333D01*
X10761143Y-15052333D02*
X10751619Y-15090428D01*
X10751619Y-15090428D02*
X10742095Y-15109476D01*
X10742095Y-15109476D02*
X10732572Y-15119000D01*
X10732572Y-15119000D02*
X10713524Y-15128524D01*
X10713524Y-15128524D02*
X10694476Y-15128524D01*
X10694476Y-15128524D02*
X10675429Y-15119000D01*
X10675429Y-15119000D02*
X10665905Y-15109476D01*
X10665905Y-15109476D02*
X10656381Y-15090428D01*
X10656381Y-15090428D02*
X10646857Y-15052333D01*
X10646857Y-15052333D02*
X10646857Y-15004714D01*
X10646857Y-15004714D02*
X10656381Y-14966619D01*
X10656381Y-14966619D02*
X10665905Y-14947571D01*
X10665905Y-14947571D02*
X10675429Y-14938048D01*
X10675429Y-14938048D02*
X10694476Y-14928524D01*
X10846857Y-15109476D02*
X10856381Y-15119000D01*
X10856381Y-15119000D02*
X10846857Y-15128524D01*
X10846857Y-15128524D02*
X10837334Y-15119000D01*
X10837334Y-15119000D02*
X10846857Y-15109476D01*
X10846857Y-15109476D02*
X10846857Y-15128524D01*
X10980191Y-14928524D02*
X10999238Y-14928524D01*
X10999238Y-14928524D02*
X11018286Y-14938048D01*
X11018286Y-14938048D02*
X11027810Y-14947571D01*
X11027810Y-14947571D02*
X11037334Y-14966619D01*
X11037334Y-14966619D02*
X11046857Y-15004714D01*
X11046857Y-15004714D02*
X11046857Y-15052333D01*
X11046857Y-15052333D02*
X11037334Y-15090428D01*
X11037334Y-15090428D02*
X11027810Y-15109476D01*
X11027810Y-15109476D02*
X11018286Y-15119000D01*
X11018286Y-15119000D02*
X10999238Y-15128524D01*
X10999238Y-15128524D02*
X10980191Y-15128524D01*
X10980191Y-15128524D02*
X10961143Y-15119000D01*
X10961143Y-15119000D02*
X10951619Y-15109476D01*
X10951619Y-15109476D02*
X10942095Y-15090428D01*
X10942095Y-15090428D02*
X10932572Y-15052333D01*
X10932572Y-15052333D02*
X10932572Y-15004714D01*
X10932572Y-15004714D02*
X10942095Y-14966619D01*
X10942095Y-14966619D02*
X10951619Y-14947571D01*
X10951619Y-14947571D02*
X10961143Y-14938048D01*
X10961143Y-14938048D02*
X10980191Y-14928524D01*
X11227810Y-14928524D02*
X11132572Y-14928524D01*
X11132572Y-14928524D02*
X11123048Y-15023762D01*
X11123048Y-15023762D02*
X11132572Y-15014238D01*
X11132572Y-15014238D02*
X11151619Y-15004714D01*
X11151619Y-15004714D02*
X11199238Y-15004714D01*
X11199238Y-15004714D02*
X11218286Y-15014238D01*
X11218286Y-15014238D02*
X11227810Y-15023762D01*
X11227810Y-15023762D02*
X11237333Y-15042809D01*
X11237333Y-15042809D02*
X11237333Y-15090428D01*
X11237333Y-15090428D02*
X11227810Y-15109476D01*
X11227810Y-15109476D02*
X11218286Y-15119000D01*
X11218286Y-15119000D02*
X11199238Y-15128524D01*
X11199238Y-15128524D02*
X11151619Y-15128524D01*
X11151619Y-15128524D02*
X11132572Y-15119000D01*
X11132572Y-15119000D02*
X11123048Y-15109476D01*
X11332572Y-15128524D02*
X11370667Y-15128524D01*
X11370667Y-15128524D02*
X11389714Y-15119000D01*
X11389714Y-15119000D02*
X11399238Y-15109476D01*
X11399238Y-15109476D02*
X11418286Y-15080905D01*
X11418286Y-15080905D02*
X11427810Y-15042809D01*
X11427810Y-15042809D02*
X11427810Y-14966619D01*
X11427810Y-14966619D02*
X11418286Y-14947571D01*
X11418286Y-14947571D02*
X11408762Y-14938048D01*
X11408762Y-14938048D02*
X11389714Y-14928524D01*
X11389714Y-14928524D02*
X11351619Y-14928524D01*
X11351619Y-14928524D02*
X11332572Y-14938048D01*
X11332572Y-14938048D02*
X11323048Y-14947571D01*
X11323048Y-14947571D02*
X11313524Y-14966619D01*
X11313524Y-14966619D02*
X11313524Y-15014238D01*
X11313524Y-15014238D02*
X11323048Y-15033286D01*
X11323048Y-15033286D02*
X11332572Y-15042809D01*
X11332572Y-15042809D02*
X11351619Y-15052333D01*
X11351619Y-15052333D02*
X11389714Y-15052333D01*
X11389714Y-15052333D02*
X11408762Y-15042809D01*
X11408762Y-15042809D02*
X11418286Y-15033286D01*
X11418286Y-15033286D02*
X11427810Y-15014238D01*
X11618286Y-15128524D02*
X11504000Y-15128524D01*
X11561143Y-15128524D02*
X11561143Y-14928524D01*
X11561143Y-14928524D02*
X11542095Y-14957095D01*
X11542095Y-14957095D02*
X11523048Y-14976143D01*
X11523048Y-14976143D02*
X11504000Y-14985667D01*
X11694476Y-14928524D02*
X11694476Y-14966619D01*
X11770667Y-14928524D02*
X11770667Y-14966619D01*
X12065905Y-15204714D02*
X12056381Y-15195190D01*
X12056381Y-15195190D02*
X12037334Y-15166619D01*
X12037334Y-15166619D02*
X12027810Y-15147571D01*
X12027810Y-15147571D02*
X12018286Y-15119000D01*
X12018286Y-15119000D02*
X12008762Y-15071381D01*
X12008762Y-15071381D02*
X12008762Y-15033286D01*
X12008762Y-15033286D02*
X12018286Y-14985667D01*
X12018286Y-14985667D02*
X12027810Y-14957095D01*
X12027810Y-14957095D02*
X12037334Y-14938048D01*
X12037334Y-14938048D02*
X12056381Y-14909476D01*
X12056381Y-14909476D02*
X12065905Y-14899952D01*
X12237334Y-14928524D02*
X12142095Y-14928524D01*
X12142095Y-14928524D02*
X12132572Y-15023762D01*
X12132572Y-15023762D02*
X12142095Y-15014238D01*
X12142095Y-15014238D02*
X12161143Y-15004714D01*
X12161143Y-15004714D02*
X12208762Y-15004714D01*
X12208762Y-15004714D02*
X12227810Y-15014238D01*
X12227810Y-15014238D02*
X12237334Y-15023762D01*
X12237334Y-15023762D02*
X12246857Y-15042809D01*
X12246857Y-15042809D02*
X12246857Y-15090428D01*
X12246857Y-15090428D02*
X12237334Y-15109476D01*
X12237334Y-15109476D02*
X12227810Y-15119000D01*
X12227810Y-15119000D02*
X12208762Y-15128524D01*
X12208762Y-15128524D02*
X12161143Y-15128524D01*
X12161143Y-15128524D02*
X12142095Y-15119000D01*
X12142095Y-15119000D02*
X12132572Y-15109476D01*
X12484953Y-15128524D02*
X12484953Y-14928524D01*
X12570667Y-15128524D02*
X12570667Y-15023762D01*
X12570667Y-15023762D02*
X12561143Y-15004714D01*
X12561143Y-15004714D02*
X12542096Y-14995190D01*
X12542096Y-14995190D02*
X12513524Y-14995190D01*
X12513524Y-14995190D02*
X12494476Y-15004714D01*
X12494476Y-15004714D02*
X12484953Y-15014238D01*
X12694476Y-15128524D02*
X12675429Y-15119000D01*
X12675429Y-15119000D02*
X12665905Y-15109476D01*
X12665905Y-15109476D02*
X12656381Y-15090428D01*
X12656381Y-15090428D02*
X12656381Y-15033286D01*
X12656381Y-15033286D02*
X12665905Y-15014238D01*
X12665905Y-15014238D02*
X12675429Y-15004714D01*
X12675429Y-15004714D02*
X12694476Y-14995190D01*
X12694476Y-14995190D02*
X12723048Y-14995190D01*
X12723048Y-14995190D02*
X12742096Y-15004714D01*
X12742096Y-15004714D02*
X12751619Y-15014238D01*
X12751619Y-15014238D02*
X12761143Y-15033286D01*
X12761143Y-15033286D02*
X12761143Y-15090428D01*
X12761143Y-15090428D02*
X12751619Y-15109476D01*
X12751619Y-15109476D02*
X12742096Y-15119000D01*
X12742096Y-15119000D02*
X12723048Y-15128524D01*
X12723048Y-15128524D02*
X12694476Y-15128524D01*
X12875429Y-15128524D02*
X12856381Y-15119000D01*
X12856381Y-15119000D02*
X12846857Y-15099952D01*
X12846857Y-15099952D02*
X12846857Y-14928524D01*
X13027810Y-15119000D02*
X13008762Y-15128524D01*
X13008762Y-15128524D02*
X12970667Y-15128524D01*
X12970667Y-15128524D02*
X12951619Y-15119000D01*
X12951619Y-15119000D02*
X12942096Y-15099952D01*
X12942096Y-15099952D02*
X12942096Y-15023762D01*
X12942096Y-15023762D02*
X12951619Y-15004714D01*
X12951619Y-15004714D02*
X12970667Y-14995190D01*
X12970667Y-14995190D02*
X13008762Y-14995190D01*
X13008762Y-14995190D02*
X13027810Y-15004714D01*
X13027810Y-15004714D02*
X13037334Y-15023762D01*
X13037334Y-15023762D02*
X13037334Y-15042809D01*
X13037334Y-15042809D02*
X12942096Y-15061857D01*
X13113524Y-15119000D02*
X13132572Y-15128524D01*
X13132572Y-15128524D02*
X13170667Y-15128524D01*
X13170667Y-15128524D02*
X13189715Y-15119000D01*
X13189715Y-15119000D02*
X13199238Y-15099952D01*
X13199238Y-15099952D02*
X13199238Y-15090428D01*
X13199238Y-15090428D02*
X13189715Y-15071381D01*
X13189715Y-15071381D02*
X13170667Y-15061857D01*
X13170667Y-15061857D02*
X13142096Y-15061857D01*
X13142096Y-15061857D02*
X13123048Y-15052333D01*
X13123048Y-15052333D02*
X13113524Y-15033286D01*
X13113524Y-15033286D02*
X13113524Y-15023762D01*
X13113524Y-15023762D02*
X13123048Y-15004714D01*
X13123048Y-15004714D02*
X13142096Y-14995190D01*
X13142096Y-14995190D02*
X13170667Y-14995190D01*
X13170667Y-14995190D02*
X13189715Y-15004714D01*
X13265905Y-15204714D02*
X13275429Y-15195190D01*
X13275429Y-15195190D02*
X13294477Y-15166619D01*
X13294477Y-15166619D02*
X13304000Y-15147571D01*
X13304000Y-15147571D02*
X13313524Y-15119000D01*
X13313524Y-15119000D02*
X13323048Y-15071381D01*
X13323048Y-15071381D02*
X13323048Y-15033286D01*
X13323048Y-15033286D02*
X13313524Y-14985667D01*
X13313524Y-14985667D02*
X13304000Y-14957095D01*
X13304000Y-14957095D02*
X13294477Y-14938048D01*
X13294477Y-14938048D02*
X13275429Y-14909476D01*
X13275429Y-14909476D02*
X13265905Y-14899952D01*
D16*
X8352000Y-15230000D02*
X8504000Y-15382000D01*
X8504000Y-15230000D02*
X8352000Y-15382000D01*
X8504000Y-15306000D02*
G75*
G03*
X8504000Y-15306000I-76000J0D01*
G01*
D11*
X8856381Y-15398524D02*
X8742095Y-15398524D01*
X8799238Y-15398524D02*
X8799238Y-15198524D01*
X8799238Y-15198524D02*
X8780190Y-15227095D01*
X8780190Y-15227095D02*
X8761143Y-15246143D01*
X8761143Y-15246143D02*
X8742095Y-15255667D01*
X8942095Y-15379476D02*
X8951619Y-15389000D01*
X8951619Y-15389000D02*
X8942095Y-15398524D01*
X8942095Y-15398524D02*
X8932571Y-15389000D01*
X8932571Y-15389000D02*
X8942095Y-15379476D01*
X8942095Y-15379476D02*
X8942095Y-15398524D01*
X9132571Y-15198524D02*
X9037333Y-15198524D01*
X9037333Y-15198524D02*
X9027810Y-15293762D01*
X9027810Y-15293762D02*
X9037333Y-15284238D01*
X9037333Y-15284238D02*
X9056381Y-15274714D01*
X9056381Y-15274714D02*
X9104000Y-15274714D01*
X9104000Y-15274714D02*
X9123048Y-15284238D01*
X9123048Y-15284238D02*
X9132571Y-15293762D01*
X9132571Y-15293762D02*
X9142095Y-15312809D01*
X9142095Y-15312809D02*
X9142095Y-15360428D01*
X9142095Y-15360428D02*
X9132571Y-15379476D01*
X9132571Y-15379476D02*
X9123048Y-15389000D01*
X9123048Y-15389000D02*
X9104000Y-15398524D01*
X9104000Y-15398524D02*
X9056381Y-15398524D01*
X9056381Y-15398524D02*
X9037333Y-15389000D01*
X9037333Y-15389000D02*
X9027810Y-15379476D01*
X9218286Y-15217571D02*
X9227810Y-15208048D01*
X9227810Y-15208048D02*
X9246857Y-15198524D01*
X9246857Y-15198524D02*
X9294476Y-15198524D01*
X9294476Y-15198524D02*
X9313524Y-15208048D01*
X9313524Y-15208048D02*
X9323048Y-15217571D01*
X9323048Y-15217571D02*
X9332571Y-15236619D01*
X9332571Y-15236619D02*
X9332571Y-15255667D01*
X9332571Y-15255667D02*
X9323048Y-15284238D01*
X9323048Y-15284238D02*
X9208762Y-15398524D01*
X9208762Y-15398524D02*
X9332571Y-15398524D01*
X9456381Y-15198524D02*
X9475429Y-15198524D01*
X9475429Y-15198524D02*
X9494476Y-15208048D01*
X9494476Y-15208048D02*
X9504000Y-15217571D01*
X9504000Y-15217571D02*
X9513524Y-15236619D01*
X9513524Y-15236619D02*
X9523048Y-15274714D01*
X9523048Y-15274714D02*
X9523048Y-15322333D01*
X9523048Y-15322333D02*
X9513524Y-15360428D01*
X9513524Y-15360428D02*
X9504000Y-15379476D01*
X9504000Y-15379476D02*
X9494476Y-15389000D01*
X9494476Y-15389000D02*
X9475429Y-15398524D01*
X9475429Y-15398524D02*
X9456381Y-15398524D01*
X9456381Y-15398524D02*
X9437333Y-15389000D01*
X9437333Y-15389000D02*
X9427810Y-15379476D01*
X9427810Y-15379476D02*
X9418286Y-15360428D01*
X9418286Y-15360428D02*
X9408762Y-15322333D01*
X9408762Y-15322333D02*
X9408762Y-15274714D01*
X9408762Y-15274714D02*
X9418286Y-15236619D01*
X9418286Y-15236619D02*
X9427810Y-15217571D01*
X9427810Y-15217571D02*
X9437333Y-15208048D01*
X9437333Y-15208048D02*
X9456381Y-15198524D01*
X9608762Y-15398524D02*
X9608762Y-15265190D01*
X9608762Y-15284238D02*
X9618286Y-15274714D01*
X9618286Y-15274714D02*
X9637333Y-15265190D01*
X9637333Y-15265190D02*
X9665905Y-15265190D01*
X9665905Y-15265190D02*
X9684952Y-15274714D01*
X9684952Y-15274714D02*
X9694476Y-15293762D01*
X9694476Y-15293762D02*
X9694476Y-15398524D01*
X9694476Y-15293762D02*
X9704000Y-15274714D01*
X9704000Y-15274714D02*
X9723048Y-15265190D01*
X9723048Y-15265190D02*
X9751619Y-15265190D01*
X9751619Y-15265190D02*
X9770667Y-15274714D01*
X9770667Y-15274714D02*
X9780191Y-15293762D01*
X9780191Y-15293762D02*
X9780191Y-15398524D01*
X9875429Y-15398524D02*
X9875429Y-15265190D01*
X9875429Y-15284238D02*
X9884952Y-15274714D01*
X9884952Y-15274714D02*
X9904000Y-15265190D01*
X9904000Y-15265190D02*
X9932572Y-15265190D01*
X9932572Y-15265190D02*
X9951619Y-15274714D01*
X9951619Y-15274714D02*
X9961143Y-15293762D01*
X9961143Y-15293762D02*
X9961143Y-15398524D01*
X9961143Y-15293762D02*
X9970667Y-15274714D01*
X9970667Y-15274714D02*
X9989714Y-15265190D01*
X9989714Y-15265190D02*
X10018286Y-15265190D01*
X10018286Y-15265190D02*
X10037333Y-15274714D01*
X10037333Y-15274714D02*
X10046857Y-15293762D01*
X10046857Y-15293762D02*
X10046857Y-15398524D01*
X10437333Y-15189000D02*
X10265905Y-15446143D01*
X10694476Y-15198524D02*
X10713524Y-15198524D01*
X10713524Y-15198524D02*
X10732572Y-15208048D01*
X10732572Y-15208048D02*
X10742095Y-15217571D01*
X10742095Y-15217571D02*
X10751619Y-15236619D01*
X10751619Y-15236619D02*
X10761143Y-15274714D01*
X10761143Y-15274714D02*
X10761143Y-15322333D01*
X10761143Y-15322333D02*
X10751619Y-15360428D01*
X10751619Y-15360428D02*
X10742095Y-15379476D01*
X10742095Y-15379476D02*
X10732572Y-15389000D01*
X10732572Y-15389000D02*
X10713524Y-15398524D01*
X10713524Y-15398524D02*
X10694476Y-15398524D01*
X10694476Y-15398524D02*
X10675429Y-15389000D01*
X10675429Y-15389000D02*
X10665905Y-15379476D01*
X10665905Y-15379476D02*
X10656381Y-15360428D01*
X10656381Y-15360428D02*
X10646857Y-15322333D01*
X10646857Y-15322333D02*
X10646857Y-15274714D01*
X10646857Y-15274714D02*
X10656381Y-15236619D01*
X10656381Y-15236619D02*
X10665905Y-15217571D01*
X10665905Y-15217571D02*
X10675429Y-15208048D01*
X10675429Y-15208048D02*
X10694476Y-15198524D01*
X10846857Y-15379476D02*
X10856381Y-15389000D01*
X10856381Y-15389000D02*
X10846857Y-15398524D01*
X10846857Y-15398524D02*
X10837334Y-15389000D01*
X10837334Y-15389000D02*
X10846857Y-15379476D01*
X10846857Y-15379476D02*
X10846857Y-15398524D01*
X10980191Y-15198524D02*
X10999238Y-15198524D01*
X10999238Y-15198524D02*
X11018286Y-15208048D01*
X11018286Y-15208048D02*
X11027810Y-15217571D01*
X11027810Y-15217571D02*
X11037334Y-15236619D01*
X11037334Y-15236619D02*
X11046857Y-15274714D01*
X11046857Y-15274714D02*
X11046857Y-15322333D01*
X11046857Y-15322333D02*
X11037334Y-15360428D01*
X11037334Y-15360428D02*
X11027810Y-15379476D01*
X11027810Y-15379476D02*
X11018286Y-15389000D01*
X11018286Y-15389000D02*
X10999238Y-15398524D01*
X10999238Y-15398524D02*
X10980191Y-15398524D01*
X10980191Y-15398524D02*
X10961143Y-15389000D01*
X10961143Y-15389000D02*
X10951619Y-15379476D01*
X10951619Y-15379476D02*
X10942095Y-15360428D01*
X10942095Y-15360428D02*
X10932572Y-15322333D01*
X10932572Y-15322333D02*
X10932572Y-15274714D01*
X10932572Y-15274714D02*
X10942095Y-15236619D01*
X10942095Y-15236619D02*
X10951619Y-15217571D01*
X10951619Y-15217571D02*
X10961143Y-15208048D01*
X10961143Y-15208048D02*
X10980191Y-15198524D01*
X11227810Y-15198524D02*
X11132572Y-15198524D01*
X11132572Y-15198524D02*
X11123048Y-15293762D01*
X11123048Y-15293762D02*
X11132572Y-15284238D01*
X11132572Y-15284238D02*
X11151619Y-15274714D01*
X11151619Y-15274714D02*
X11199238Y-15274714D01*
X11199238Y-15274714D02*
X11218286Y-15284238D01*
X11218286Y-15284238D02*
X11227810Y-15293762D01*
X11227810Y-15293762D02*
X11237333Y-15312809D01*
X11237333Y-15312809D02*
X11237333Y-15360428D01*
X11237333Y-15360428D02*
X11227810Y-15379476D01*
X11227810Y-15379476D02*
X11218286Y-15389000D01*
X11218286Y-15389000D02*
X11199238Y-15398524D01*
X11199238Y-15398524D02*
X11151619Y-15398524D01*
X11151619Y-15398524D02*
X11132572Y-15389000D01*
X11132572Y-15389000D02*
X11123048Y-15379476D01*
X11332572Y-15398524D02*
X11370667Y-15398524D01*
X11370667Y-15398524D02*
X11389714Y-15389000D01*
X11389714Y-15389000D02*
X11399238Y-15379476D01*
X11399238Y-15379476D02*
X11418286Y-15350905D01*
X11418286Y-15350905D02*
X11427810Y-15312809D01*
X11427810Y-15312809D02*
X11427810Y-15236619D01*
X11427810Y-15236619D02*
X11418286Y-15217571D01*
X11418286Y-15217571D02*
X11408762Y-15208048D01*
X11408762Y-15208048D02*
X11389714Y-15198524D01*
X11389714Y-15198524D02*
X11351619Y-15198524D01*
X11351619Y-15198524D02*
X11332572Y-15208048D01*
X11332572Y-15208048D02*
X11323048Y-15217571D01*
X11323048Y-15217571D02*
X11313524Y-15236619D01*
X11313524Y-15236619D02*
X11313524Y-15284238D01*
X11313524Y-15284238D02*
X11323048Y-15303286D01*
X11323048Y-15303286D02*
X11332572Y-15312809D01*
X11332572Y-15312809D02*
X11351619Y-15322333D01*
X11351619Y-15322333D02*
X11389714Y-15322333D01*
X11389714Y-15322333D02*
X11408762Y-15312809D01*
X11408762Y-15312809D02*
X11418286Y-15303286D01*
X11418286Y-15303286D02*
X11427810Y-15284238D01*
X11542095Y-15284238D02*
X11523048Y-15274714D01*
X11523048Y-15274714D02*
X11513524Y-15265190D01*
X11513524Y-15265190D02*
X11504000Y-15246143D01*
X11504000Y-15246143D02*
X11504000Y-15236619D01*
X11504000Y-15236619D02*
X11513524Y-15217571D01*
X11513524Y-15217571D02*
X11523048Y-15208048D01*
X11523048Y-15208048D02*
X11542095Y-15198524D01*
X11542095Y-15198524D02*
X11580191Y-15198524D01*
X11580191Y-15198524D02*
X11599238Y-15208048D01*
X11599238Y-15208048D02*
X11608762Y-15217571D01*
X11608762Y-15217571D02*
X11618286Y-15236619D01*
X11618286Y-15236619D02*
X11618286Y-15246143D01*
X11618286Y-15246143D02*
X11608762Y-15265190D01*
X11608762Y-15265190D02*
X11599238Y-15274714D01*
X11599238Y-15274714D02*
X11580191Y-15284238D01*
X11580191Y-15284238D02*
X11542095Y-15284238D01*
X11542095Y-15284238D02*
X11523048Y-15293762D01*
X11523048Y-15293762D02*
X11513524Y-15303286D01*
X11513524Y-15303286D02*
X11504000Y-15322333D01*
X11504000Y-15322333D02*
X11504000Y-15360428D01*
X11504000Y-15360428D02*
X11513524Y-15379476D01*
X11513524Y-15379476D02*
X11523048Y-15389000D01*
X11523048Y-15389000D02*
X11542095Y-15398524D01*
X11542095Y-15398524D02*
X11580191Y-15398524D01*
X11580191Y-15398524D02*
X11599238Y-15389000D01*
X11599238Y-15389000D02*
X11608762Y-15379476D01*
X11608762Y-15379476D02*
X11618286Y-15360428D01*
X11618286Y-15360428D02*
X11618286Y-15322333D01*
X11618286Y-15322333D02*
X11608762Y-15303286D01*
X11608762Y-15303286D02*
X11599238Y-15293762D01*
X11599238Y-15293762D02*
X11580191Y-15284238D01*
X11694476Y-15198524D02*
X11694476Y-15236619D01*
X11770667Y-15198524D02*
X11770667Y-15236619D01*
X12065905Y-15474714D02*
X12056381Y-15465190D01*
X12056381Y-15465190D02*
X12037334Y-15436619D01*
X12037334Y-15436619D02*
X12027810Y-15417571D01*
X12027810Y-15417571D02*
X12018286Y-15389000D01*
X12018286Y-15389000D02*
X12008762Y-15341381D01*
X12008762Y-15341381D02*
X12008762Y-15303286D01*
X12008762Y-15303286D02*
X12018286Y-15255667D01*
X12018286Y-15255667D02*
X12027810Y-15227095D01*
X12027810Y-15227095D02*
X12037334Y-15208048D01*
X12037334Y-15208048D02*
X12056381Y-15179476D01*
X12056381Y-15179476D02*
X12065905Y-15169952D01*
X12170667Y-15284238D02*
X12151619Y-15274714D01*
X12151619Y-15274714D02*
X12142095Y-15265190D01*
X12142095Y-15265190D02*
X12132572Y-15246143D01*
X12132572Y-15246143D02*
X12132572Y-15236619D01*
X12132572Y-15236619D02*
X12142095Y-15217571D01*
X12142095Y-15217571D02*
X12151619Y-15208048D01*
X12151619Y-15208048D02*
X12170667Y-15198524D01*
X12170667Y-15198524D02*
X12208762Y-15198524D01*
X12208762Y-15198524D02*
X12227810Y-15208048D01*
X12227810Y-15208048D02*
X12237334Y-15217571D01*
X12237334Y-15217571D02*
X12246857Y-15236619D01*
X12246857Y-15236619D02*
X12246857Y-15246143D01*
X12246857Y-15246143D02*
X12237334Y-15265190D01*
X12237334Y-15265190D02*
X12227810Y-15274714D01*
X12227810Y-15274714D02*
X12208762Y-15284238D01*
X12208762Y-15284238D02*
X12170667Y-15284238D01*
X12170667Y-15284238D02*
X12151619Y-15293762D01*
X12151619Y-15293762D02*
X12142095Y-15303286D01*
X12142095Y-15303286D02*
X12132572Y-15322333D01*
X12132572Y-15322333D02*
X12132572Y-15360428D01*
X12132572Y-15360428D02*
X12142095Y-15379476D01*
X12142095Y-15379476D02*
X12151619Y-15389000D01*
X12151619Y-15389000D02*
X12170667Y-15398524D01*
X12170667Y-15398524D02*
X12208762Y-15398524D01*
X12208762Y-15398524D02*
X12227810Y-15389000D01*
X12227810Y-15389000D02*
X12237334Y-15379476D01*
X12237334Y-15379476D02*
X12246857Y-15360428D01*
X12246857Y-15360428D02*
X12246857Y-15322333D01*
X12246857Y-15322333D02*
X12237334Y-15303286D01*
X12237334Y-15303286D02*
X12227810Y-15293762D01*
X12227810Y-15293762D02*
X12208762Y-15284238D01*
X12484953Y-15398524D02*
X12484953Y-15198524D01*
X12570667Y-15398524D02*
X12570667Y-15293762D01*
X12570667Y-15293762D02*
X12561143Y-15274714D01*
X12561143Y-15274714D02*
X12542096Y-15265190D01*
X12542096Y-15265190D02*
X12513524Y-15265190D01*
X12513524Y-15265190D02*
X12494476Y-15274714D01*
X12494476Y-15274714D02*
X12484953Y-15284238D01*
X12694476Y-15398524D02*
X12675429Y-15389000D01*
X12675429Y-15389000D02*
X12665905Y-15379476D01*
X12665905Y-15379476D02*
X12656381Y-15360428D01*
X12656381Y-15360428D02*
X12656381Y-15303286D01*
X12656381Y-15303286D02*
X12665905Y-15284238D01*
X12665905Y-15284238D02*
X12675429Y-15274714D01*
X12675429Y-15274714D02*
X12694476Y-15265190D01*
X12694476Y-15265190D02*
X12723048Y-15265190D01*
X12723048Y-15265190D02*
X12742096Y-15274714D01*
X12742096Y-15274714D02*
X12751619Y-15284238D01*
X12751619Y-15284238D02*
X12761143Y-15303286D01*
X12761143Y-15303286D02*
X12761143Y-15360428D01*
X12761143Y-15360428D02*
X12751619Y-15379476D01*
X12751619Y-15379476D02*
X12742096Y-15389000D01*
X12742096Y-15389000D02*
X12723048Y-15398524D01*
X12723048Y-15398524D02*
X12694476Y-15398524D01*
X12875429Y-15398524D02*
X12856381Y-15389000D01*
X12856381Y-15389000D02*
X12846857Y-15369952D01*
X12846857Y-15369952D02*
X12846857Y-15198524D01*
X13027810Y-15389000D02*
X13008762Y-15398524D01*
X13008762Y-15398524D02*
X12970667Y-15398524D01*
X12970667Y-15398524D02*
X12951619Y-15389000D01*
X12951619Y-15389000D02*
X12942096Y-15369952D01*
X12942096Y-15369952D02*
X12942096Y-15293762D01*
X12942096Y-15293762D02*
X12951619Y-15274714D01*
X12951619Y-15274714D02*
X12970667Y-15265190D01*
X12970667Y-15265190D02*
X13008762Y-15265190D01*
X13008762Y-15265190D02*
X13027810Y-15274714D01*
X13027810Y-15274714D02*
X13037334Y-15293762D01*
X13037334Y-15293762D02*
X13037334Y-15312809D01*
X13037334Y-15312809D02*
X12942096Y-15331857D01*
X13113524Y-15389000D02*
X13132572Y-15398524D01*
X13132572Y-15398524D02*
X13170667Y-15398524D01*
X13170667Y-15398524D02*
X13189715Y-15389000D01*
X13189715Y-15389000D02*
X13199238Y-15369952D01*
X13199238Y-15369952D02*
X13199238Y-15360428D01*
X13199238Y-15360428D02*
X13189715Y-15341381D01*
X13189715Y-15341381D02*
X13170667Y-15331857D01*
X13170667Y-15331857D02*
X13142096Y-15331857D01*
X13142096Y-15331857D02*
X13123048Y-15322333D01*
X13123048Y-15322333D02*
X13113524Y-15303286D01*
X13113524Y-15303286D02*
X13113524Y-15293762D01*
X13113524Y-15293762D02*
X13123048Y-15274714D01*
X13123048Y-15274714D02*
X13142096Y-15265190D01*
X13142096Y-15265190D02*
X13170667Y-15265190D01*
X13170667Y-15265190D02*
X13189715Y-15274714D01*
X13265905Y-15474714D02*
X13275429Y-15465190D01*
X13275429Y-15465190D02*
X13294477Y-15436619D01*
X13294477Y-15436619D02*
X13304000Y-15417571D01*
X13304000Y-15417571D02*
X13313524Y-15389000D01*
X13313524Y-15389000D02*
X13323048Y-15341381D01*
X13323048Y-15341381D02*
X13323048Y-15303286D01*
X13323048Y-15303286D02*
X13313524Y-15255667D01*
X13313524Y-15255667D02*
X13304000Y-15227095D01*
X13304000Y-15227095D02*
X13294477Y-15208048D01*
X13294477Y-15208048D02*
X13275429Y-15179476D01*
X13275429Y-15179476D02*
X13265905Y-15169952D01*
D17*
X8334000Y-15493000D02*
X8504000Y-15663000D01*
X8504000Y-15493000D02*
X8334000Y-15663000D01*
X8419000Y-15493000D02*
X8419000Y-15663000D01*
X8334000Y-15578000D02*
X8504000Y-15578000D01*
D11*
X8856381Y-15670524D02*
X8742095Y-15670524D01*
X8799238Y-15670524D02*
X8799238Y-15470524D01*
X8799238Y-15470524D02*
X8780190Y-15499095D01*
X8780190Y-15499095D02*
X8761143Y-15518143D01*
X8761143Y-15518143D02*
X8742095Y-15527667D01*
X8942095Y-15651476D02*
X8951619Y-15661000D01*
X8951619Y-15661000D02*
X8942095Y-15670524D01*
X8942095Y-15670524D02*
X8932571Y-15661000D01*
X8932571Y-15661000D02*
X8942095Y-15651476D01*
X8942095Y-15651476D02*
X8942095Y-15670524D01*
X9018286Y-15470524D02*
X9151619Y-15470524D01*
X9151619Y-15470524D02*
X9065905Y-15670524D01*
X9265905Y-15470524D02*
X9284952Y-15470524D01*
X9284952Y-15470524D02*
X9304000Y-15480048D01*
X9304000Y-15480048D02*
X9313524Y-15489571D01*
X9313524Y-15489571D02*
X9323048Y-15508619D01*
X9323048Y-15508619D02*
X9332571Y-15546714D01*
X9332571Y-15546714D02*
X9332571Y-15594333D01*
X9332571Y-15594333D02*
X9323048Y-15632428D01*
X9323048Y-15632428D02*
X9313524Y-15651476D01*
X9313524Y-15651476D02*
X9304000Y-15661000D01*
X9304000Y-15661000D02*
X9284952Y-15670524D01*
X9284952Y-15670524D02*
X9265905Y-15670524D01*
X9265905Y-15670524D02*
X9246857Y-15661000D01*
X9246857Y-15661000D02*
X9237333Y-15651476D01*
X9237333Y-15651476D02*
X9227810Y-15632428D01*
X9227810Y-15632428D02*
X9218286Y-15594333D01*
X9218286Y-15594333D02*
X9218286Y-15546714D01*
X9218286Y-15546714D02*
X9227810Y-15508619D01*
X9227810Y-15508619D02*
X9237333Y-15489571D01*
X9237333Y-15489571D02*
X9246857Y-15480048D01*
X9246857Y-15480048D02*
X9265905Y-15470524D01*
X9456381Y-15470524D02*
X9475429Y-15470524D01*
X9475429Y-15470524D02*
X9494476Y-15480048D01*
X9494476Y-15480048D02*
X9504000Y-15489571D01*
X9504000Y-15489571D02*
X9513524Y-15508619D01*
X9513524Y-15508619D02*
X9523048Y-15546714D01*
X9523048Y-15546714D02*
X9523048Y-15594333D01*
X9523048Y-15594333D02*
X9513524Y-15632428D01*
X9513524Y-15632428D02*
X9504000Y-15651476D01*
X9504000Y-15651476D02*
X9494476Y-15661000D01*
X9494476Y-15661000D02*
X9475429Y-15670524D01*
X9475429Y-15670524D02*
X9456381Y-15670524D01*
X9456381Y-15670524D02*
X9437333Y-15661000D01*
X9437333Y-15661000D02*
X9427810Y-15651476D01*
X9427810Y-15651476D02*
X9418286Y-15632428D01*
X9418286Y-15632428D02*
X9408762Y-15594333D01*
X9408762Y-15594333D02*
X9408762Y-15546714D01*
X9408762Y-15546714D02*
X9418286Y-15508619D01*
X9418286Y-15508619D02*
X9427810Y-15489571D01*
X9427810Y-15489571D02*
X9437333Y-15480048D01*
X9437333Y-15480048D02*
X9456381Y-15470524D01*
X9608762Y-15670524D02*
X9608762Y-15537190D01*
X9608762Y-15556238D02*
X9618286Y-15546714D01*
X9618286Y-15546714D02*
X9637333Y-15537190D01*
X9637333Y-15537190D02*
X9665905Y-15537190D01*
X9665905Y-15537190D02*
X9684952Y-15546714D01*
X9684952Y-15546714D02*
X9694476Y-15565762D01*
X9694476Y-15565762D02*
X9694476Y-15670524D01*
X9694476Y-15565762D02*
X9704000Y-15546714D01*
X9704000Y-15546714D02*
X9723048Y-15537190D01*
X9723048Y-15537190D02*
X9751619Y-15537190D01*
X9751619Y-15537190D02*
X9770667Y-15546714D01*
X9770667Y-15546714D02*
X9780191Y-15565762D01*
X9780191Y-15565762D02*
X9780191Y-15670524D01*
X9875429Y-15670524D02*
X9875429Y-15537190D01*
X9875429Y-15556238D02*
X9884952Y-15546714D01*
X9884952Y-15546714D02*
X9904000Y-15537190D01*
X9904000Y-15537190D02*
X9932572Y-15537190D01*
X9932572Y-15537190D02*
X9951619Y-15546714D01*
X9951619Y-15546714D02*
X9961143Y-15565762D01*
X9961143Y-15565762D02*
X9961143Y-15670524D01*
X9961143Y-15565762D02*
X9970667Y-15546714D01*
X9970667Y-15546714D02*
X9989714Y-15537190D01*
X9989714Y-15537190D02*
X10018286Y-15537190D01*
X10018286Y-15537190D02*
X10037333Y-15546714D01*
X10037333Y-15546714D02*
X10046857Y-15565762D01*
X10046857Y-15565762D02*
X10046857Y-15670524D01*
X10437333Y-15461000D02*
X10265905Y-15718143D01*
X10694476Y-15470524D02*
X10713524Y-15470524D01*
X10713524Y-15470524D02*
X10732572Y-15480048D01*
X10732572Y-15480048D02*
X10742095Y-15489571D01*
X10742095Y-15489571D02*
X10751619Y-15508619D01*
X10751619Y-15508619D02*
X10761143Y-15546714D01*
X10761143Y-15546714D02*
X10761143Y-15594333D01*
X10761143Y-15594333D02*
X10751619Y-15632428D01*
X10751619Y-15632428D02*
X10742095Y-15651476D01*
X10742095Y-15651476D02*
X10732572Y-15661000D01*
X10732572Y-15661000D02*
X10713524Y-15670524D01*
X10713524Y-15670524D02*
X10694476Y-15670524D01*
X10694476Y-15670524D02*
X10675429Y-15661000D01*
X10675429Y-15661000D02*
X10665905Y-15651476D01*
X10665905Y-15651476D02*
X10656381Y-15632428D01*
X10656381Y-15632428D02*
X10646857Y-15594333D01*
X10646857Y-15594333D02*
X10646857Y-15546714D01*
X10646857Y-15546714D02*
X10656381Y-15508619D01*
X10656381Y-15508619D02*
X10665905Y-15489571D01*
X10665905Y-15489571D02*
X10675429Y-15480048D01*
X10675429Y-15480048D02*
X10694476Y-15470524D01*
X10846857Y-15651476D02*
X10856381Y-15661000D01*
X10856381Y-15661000D02*
X10846857Y-15670524D01*
X10846857Y-15670524D02*
X10837334Y-15661000D01*
X10837334Y-15661000D02*
X10846857Y-15651476D01*
X10846857Y-15651476D02*
X10846857Y-15670524D01*
X10980191Y-15470524D02*
X10999238Y-15470524D01*
X10999238Y-15470524D02*
X11018286Y-15480048D01*
X11018286Y-15480048D02*
X11027810Y-15489571D01*
X11027810Y-15489571D02*
X11037334Y-15508619D01*
X11037334Y-15508619D02*
X11046857Y-15546714D01*
X11046857Y-15546714D02*
X11046857Y-15594333D01*
X11046857Y-15594333D02*
X11037334Y-15632428D01*
X11037334Y-15632428D02*
X11027810Y-15651476D01*
X11027810Y-15651476D02*
X11018286Y-15661000D01*
X11018286Y-15661000D02*
X10999238Y-15670524D01*
X10999238Y-15670524D02*
X10980191Y-15670524D01*
X10980191Y-15670524D02*
X10961143Y-15661000D01*
X10961143Y-15661000D02*
X10951619Y-15651476D01*
X10951619Y-15651476D02*
X10942095Y-15632428D01*
X10942095Y-15632428D02*
X10932572Y-15594333D01*
X10932572Y-15594333D02*
X10932572Y-15546714D01*
X10932572Y-15546714D02*
X10942095Y-15508619D01*
X10942095Y-15508619D02*
X10951619Y-15489571D01*
X10951619Y-15489571D02*
X10961143Y-15480048D01*
X10961143Y-15480048D02*
X10980191Y-15470524D01*
X11218286Y-15470524D02*
X11180191Y-15470524D01*
X11180191Y-15470524D02*
X11161143Y-15480048D01*
X11161143Y-15480048D02*
X11151619Y-15489571D01*
X11151619Y-15489571D02*
X11132572Y-15518143D01*
X11132572Y-15518143D02*
X11123048Y-15556238D01*
X11123048Y-15556238D02*
X11123048Y-15632428D01*
X11123048Y-15632428D02*
X11132572Y-15651476D01*
X11132572Y-15651476D02*
X11142095Y-15661000D01*
X11142095Y-15661000D02*
X11161143Y-15670524D01*
X11161143Y-15670524D02*
X11199238Y-15670524D01*
X11199238Y-15670524D02*
X11218286Y-15661000D01*
X11218286Y-15661000D02*
X11227810Y-15651476D01*
X11227810Y-15651476D02*
X11237333Y-15632428D01*
X11237333Y-15632428D02*
X11237333Y-15584809D01*
X11237333Y-15584809D02*
X11227810Y-15565762D01*
X11227810Y-15565762D02*
X11218286Y-15556238D01*
X11218286Y-15556238D02*
X11199238Y-15546714D01*
X11199238Y-15546714D02*
X11161143Y-15546714D01*
X11161143Y-15546714D02*
X11142095Y-15556238D01*
X11142095Y-15556238D02*
X11132572Y-15565762D01*
X11132572Y-15565762D02*
X11123048Y-15584809D01*
X11408762Y-15470524D02*
X11370667Y-15470524D01*
X11370667Y-15470524D02*
X11351619Y-15480048D01*
X11351619Y-15480048D02*
X11342095Y-15489571D01*
X11342095Y-15489571D02*
X11323048Y-15518143D01*
X11323048Y-15518143D02*
X11313524Y-15556238D01*
X11313524Y-15556238D02*
X11313524Y-15632428D01*
X11313524Y-15632428D02*
X11323048Y-15651476D01*
X11323048Y-15651476D02*
X11332572Y-15661000D01*
X11332572Y-15661000D02*
X11351619Y-15670524D01*
X11351619Y-15670524D02*
X11389714Y-15670524D01*
X11389714Y-15670524D02*
X11408762Y-15661000D01*
X11408762Y-15661000D02*
X11418286Y-15651476D01*
X11418286Y-15651476D02*
X11427810Y-15632428D01*
X11427810Y-15632428D02*
X11427810Y-15584809D01*
X11427810Y-15584809D02*
X11418286Y-15565762D01*
X11418286Y-15565762D02*
X11408762Y-15556238D01*
X11408762Y-15556238D02*
X11389714Y-15546714D01*
X11389714Y-15546714D02*
X11351619Y-15546714D01*
X11351619Y-15546714D02*
X11332572Y-15556238D01*
X11332572Y-15556238D02*
X11323048Y-15565762D01*
X11323048Y-15565762D02*
X11313524Y-15584809D01*
X11523048Y-15670524D02*
X11561143Y-15670524D01*
X11561143Y-15670524D02*
X11580191Y-15661000D01*
X11580191Y-15661000D02*
X11589714Y-15651476D01*
X11589714Y-15651476D02*
X11608762Y-15622905D01*
X11608762Y-15622905D02*
X11618286Y-15584809D01*
X11618286Y-15584809D02*
X11618286Y-15508619D01*
X11618286Y-15508619D02*
X11608762Y-15489571D01*
X11608762Y-15489571D02*
X11599238Y-15480048D01*
X11599238Y-15480048D02*
X11580191Y-15470524D01*
X11580191Y-15470524D02*
X11542095Y-15470524D01*
X11542095Y-15470524D02*
X11523048Y-15480048D01*
X11523048Y-15480048D02*
X11513524Y-15489571D01*
X11513524Y-15489571D02*
X11504000Y-15508619D01*
X11504000Y-15508619D02*
X11504000Y-15556238D01*
X11504000Y-15556238D02*
X11513524Y-15575286D01*
X11513524Y-15575286D02*
X11523048Y-15584809D01*
X11523048Y-15584809D02*
X11542095Y-15594333D01*
X11542095Y-15594333D02*
X11580191Y-15594333D01*
X11580191Y-15594333D02*
X11599238Y-15584809D01*
X11599238Y-15584809D02*
X11608762Y-15575286D01*
X11608762Y-15575286D02*
X11618286Y-15556238D01*
X11694476Y-15470524D02*
X11694476Y-15508619D01*
X11770667Y-15470524D02*
X11770667Y-15508619D01*
X12065905Y-15746714D02*
X12056381Y-15737190D01*
X12056381Y-15737190D02*
X12037334Y-15708619D01*
X12037334Y-15708619D02*
X12027810Y-15689571D01*
X12027810Y-15689571D02*
X12018286Y-15661000D01*
X12018286Y-15661000D02*
X12008762Y-15613381D01*
X12008762Y-15613381D02*
X12008762Y-15575286D01*
X12008762Y-15575286D02*
X12018286Y-15527667D01*
X12018286Y-15527667D02*
X12027810Y-15499095D01*
X12027810Y-15499095D02*
X12037334Y-15480048D01*
X12037334Y-15480048D02*
X12056381Y-15451476D01*
X12056381Y-15451476D02*
X12065905Y-15441952D01*
X12227810Y-15537190D02*
X12227810Y-15670524D01*
X12180191Y-15461000D02*
X12132572Y-15603857D01*
X12132572Y-15603857D02*
X12256381Y-15603857D01*
X12484953Y-15670524D02*
X12484953Y-15470524D01*
X12570667Y-15670524D02*
X12570667Y-15565762D01*
X12570667Y-15565762D02*
X12561143Y-15546714D01*
X12561143Y-15546714D02*
X12542096Y-15537190D01*
X12542096Y-15537190D02*
X12513524Y-15537190D01*
X12513524Y-15537190D02*
X12494476Y-15546714D01*
X12494476Y-15546714D02*
X12484953Y-15556238D01*
X12694476Y-15670524D02*
X12675429Y-15661000D01*
X12675429Y-15661000D02*
X12665905Y-15651476D01*
X12665905Y-15651476D02*
X12656381Y-15632428D01*
X12656381Y-15632428D02*
X12656381Y-15575286D01*
X12656381Y-15575286D02*
X12665905Y-15556238D01*
X12665905Y-15556238D02*
X12675429Y-15546714D01*
X12675429Y-15546714D02*
X12694476Y-15537190D01*
X12694476Y-15537190D02*
X12723048Y-15537190D01*
X12723048Y-15537190D02*
X12742096Y-15546714D01*
X12742096Y-15546714D02*
X12751619Y-15556238D01*
X12751619Y-15556238D02*
X12761143Y-15575286D01*
X12761143Y-15575286D02*
X12761143Y-15632428D01*
X12761143Y-15632428D02*
X12751619Y-15651476D01*
X12751619Y-15651476D02*
X12742096Y-15661000D01*
X12742096Y-15661000D02*
X12723048Y-15670524D01*
X12723048Y-15670524D02*
X12694476Y-15670524D01*
X12875429Y-15670524D02*
X12856381Y-15661000D01*
X12856381Y-15661000D02*
X12846857Y-15641952D01*
X12846857Y-15641952D02*
X12846857Y-15470524D01*
X13027810Y-15661000D02*
X13008762Y-15670524D01*
X13008762Y-15670524D02*
X12970667Y-15670524D01*
X12970667Y-15670524D02*
X12951619Y-15661000D01*
X12951619Y-15661000D02*
X12942096Y-15641952D01*
X12942096Y-15641952D02*
X12942096Y-15565762D01*
X12942096Y-15565762D02*
X12951619Y-15546714D01*
X12951619Y-15546714D02*
X12970667Y-15537190D01*
X12970667Y-15537190D02*
X13008762Y-15537190D01*
X13008762Y-15537190D02*
X13027810Y-15546714D01*
X13027810Y-15546714D02*
X13037334Y-15565762D01*
X13037334Y-15565762D02*
X13037334Y-15584809D01*
X13037334Y-15584809D02*
X12942096Y-15603857D01*
X13113524Y-15661000D02*
X13132572Y-15670524D01*
X13132572Y-15670524D02*
X13170667Y-15670524D01*
X13170667Y-15670524D02*
X13189715Y-15661000D01*
X13189715Y-15661000D02*
X13199238Y-15641952D01*
X13199238Y-15641952D02*
X13199238Y-15632428D01*
X13199238Y-15632428D02*
X13189715Y-15613381D01*
X13189715Y-15613381D02*
X13170667Y-15603857D01*
X13170667Y-15603857D02*
X13142096Y-15603857D01*
X13142096Y-15603857D02*
X13123048Y-15594333D01*
X13123048Y-15594333D02*
X13113524Y-15575286D01*
X13113524Y-15575286D02*
X13113524Y-15565762D01*
X13113524Y-15565762D02*
X13123048Y-15546714D01*
X13123048Y-15546714D02*
X13142096Y-15537190D01*
X13142096Y-15537190D02*
X13170667Y-15537190D01*
X13170667Y-15537190D02*
X13189715Y-15546714D01*
X13265905Y-15746714D02*
X13275429Y-15737190D01*
X13275429Y-15737190D02*
X13294477Y-15708619D01*
X13294477Y-15708619D02*
X13304000Y-15689571D01*
X13304000Y-15689571D02*
X13313524Y-15661000D01*
X13313524Y-15661000D02*
X13323048Y-15613381D01*
X13323048Y-15613381D02*
X13323048Y-15575286D01*
X13323048Y-15575286D02*
X13313524Y-15527667D01*
X13313524Y-15527667D02*
X13304000Y-15499095D01*
X13304000Y-15499095D02*
X13294477Y-15480048D01*
X13294477Y-15480048D02*
X13275429Y-15451476D01*
X13275429Y-15451476D02*
X13265905Y-15441952D01*
X8304000Y-15768000D02*
X8504000Y-15968000D01*
X8504000Y-15768000D02*
X8304000Y-15968000D01*
X8474711Y-15938711D02*
X8474711Y-15797289D01*
X8333289Y-15797289D01*
X8333289Y-15938711D01*
X8474711Y-15938711D01*
X8732571Y-15760524D02*
X8856381Y-15760524D01*
X8856381Y-15760524D02*
X8789714Y-15836714D01*
X8789714Y-15836714D02*
X8818286Y-15836714D01*
X8818286Y-15836714D02*
X8837333Y-15846238D01*
X8837333Y-15846238D02*
X8846857Y-15855762D01*
X8846857Y-15855762D02*
X8856381Y-15874809D01*
X8856381Y-15874809D02*
X8856381Y-15922428D01*
X8856381Y-15922428D02*
X8846857Y-15941476D01*
X8846857Y-15941476D02*
X8837333Y-15951000D01*
X8837333Y-15951000D02*
X8818286Y-15960524D01*
X8818286Y-15960524D02*
X8761143Y-15960524D01*
X8761143Y-15960524D02*
X8742095Y-15951000D01*
X8742095Y-15951000D02*
X8732571Y-15941476D01*
X8942095Y-15941476D02*
X8951619Y-15951000D01*
X8951619Y-15951000D02*
X8942095Y-15960524D01*
X8942095Y-15960524D02*
X8932571Y-15951000D01*
X8932571Y-15951000D02*
X8942095Y-15941476D01*
X8942095Y-15941476D02*
X8942095Y-15960524D01*
X9027810Y-15779571D02*
X9037333Y-15770048D01*
X9037333Y-15770048D02*
X9056381Y-15760524D01*
X9056381Y-15760524D02*
X9104000Y-15760524D01*
X9104000Y-15760524D02*
X9123048Y-15770048D01*
X9123048Y-15770048D02*
X9132571Y-15779571D01*
X9132571Y-15779571D02*
X9142095Y-15798619D01*
X9142095Y-15798619D02*
X9142095Y-15817667D01*
X9142095Y-15817667D02*
X9132571Y-15846238D01*
X9132571Y-15846238D02*
X9018286Y-15960524D01*
X9018286Y-15960524D02*
X9142095Y-15960524D01*
X9265905Y-15760524D02*
X9284952Y-15760524D01*
X9284952Y-15760524D02*
X9304000Y-15770048D01*
X9304000Y-15770048D02*
X9313524Y-15779571D01*
X9313524Y-15779571D02*
X9323048Y-15798619D01*
X9323048Y-15798619D02*
X9332571Y-15836714D01*
X9332571Y-15836714D02*
X9332571Y-15884333D01*
X9332571Y-15884333D02*
X9323048Y-15922428D01*
X9323048Y-15922428D02*
X9313524Y-15941476D01*
X9313524Y-15941476D02*
X9304000Y-15951000D01*
X9304000Y-15951000D02*
X9284952Y-15960524D01*
X9284952Y-15960524D02*
X9265905Y-15960524D01*
X9265905Y-15960524D02*
X9246857Y-15951000D01*
X9246857Y-15951000D02*
X9237333Y-15941476D01*
X9237333Y-15941476D02*
X9227810Y-15922428D01*
X9227810Y-15922428D02*
X9218286Y-15884333D01*
X9218286Y-15884333D02*
X9218286Y-15836714D01*
X9218286Y-15836714D02*
X9227810Y-15798619D01*
X9227810Y-15798619D02*
X9237333Y-15779571D01*
X9237333Y-15779571D02*
X9246857Y-15770048D01*
X9246857Y-15770048D02*
X9265905Y-15760524D01*
X9456381Y-15760524D02*
X9475429Y-15760524D01*
X9475429Y-15760524D02*
X9494476Y-15770048D01*
X9494476Y-15770048D02*
X9504000Y-15779571D01*
X9504000Y-15779571D02*
X9513524Y-15798619D01*
X9513524Y-15798619D02*
X9523048Y-15836714D01*
X9523048Y-15836714D02*
X9523048Y-15884333D01*
X9523048Y-15884333D02*
X9513524Y-15922428D01*
X9513524Y-15922428D02*
X9504000Y-15941476D01*
X9504000Y-15941476D02*
X9494476Y-15951000D01*
X9494476Y-15951000D02*
X9475429Y-15960524D01*
X9475429Y-15960524D02*
X9456381Y-15960524D01*
X9456381Y-15960524D02*
X9437333Y-15951000D01*
X9437333Y-15951000D02*
X9427810Y-15941476D01*
X9427810Y-15941476D02*
X9418286Y-15922428D01*
X9418286Y-15922428D02*
X9408762Y-15884333D01*
X9408762Y-15884333D02*
X9408762Y-15836714D01*
X9408762Y-15836714D02*
X9418286Y-15798619D01*
X9418286Y-15798619D02*
X9427810Y-15779571D01*
X9427810Y-15779571D02*
X9437333Y-15770048D01*
X9437333Y-15770048D02*
X9456381Y-15760524D01*
X9608762Y-15960524D02*
X9608762Y-15827190D01*
X9608762Y-15846238D02*
X9618286Y-15836714D01*
X9618286Y-15836714D02*
X9637333Y-15827190D01*
X9637333Y-15827190D02*
X9665905Y-15827190D01*
X9665905Y-15827190D02*
X9684952Y-15836714D01*
X9684952Y-15836714D02*
X9694476Y-15855762D01*
X9694476Y-15855762D02*
X9694476Y-15960524D01*
X9694476Y-15855762D02*
X9704000Y-15836714D01*
X9704000Y-15836714D02*
X9723048Y-15827190D01*
X9723048Y-15827190D02*
X9751619Y-15827190D01*
X9751619Y-15827190D02*
X9770667Y-15836714D01*
X9770667Y-15836714D02*
X9780191Y-15855762D01*
X9780191Y-15855762D02*
X9780191Y-15960524D01*
X9875429Y-15960524D02*
X9875429Y-15827190D01*
X9875429Y-15846238D02*
X9884952Y-15836714D01*
X9884952Y-15836714D02*
X9904000Y-15827190D01*
X9904000Y-15827190D02*
X9932572Y-15827190D01*
X9932572Y-15827190D02*
X9951619Y-15836714D01*
X9951619Y-15836714D02*
X9961143Y-15855762D01*
X9961143Y-15855762D02*
X9961143Y-15960524D01*
X9961143Y-15855762D02*
X9970667Y-15836714D01*
X9970667Y-15836714D02*
X9989714Y-15827190D01*
X9989714Y-15827190D02*
X10018286Y-15827190D01*
X10018286Y-15827190D02*
X10037333Y-15836714D01*
X10037333Y-15836714D02*
X10046857Y-15855762D01*
X10046857Y-15855762D02*
X10046857Y-15960524D01*
X10437333Y-15751000D02*
X10265905Y-16008143D01*
X10694476Y-15760524D02*
X10713524Y-15760524D01*
X10713524Y-15760524D02*
X10732572Y-15770048D01*
X10732572Y-15770048D02*
X10742095Y-15779571D01*
X10742095Y-15779571D02*
X10751619Y-15798619D01*
X10751619Y-15798619D02*
X10761143Y-15836714D01*
X10761143Y-15836714D02*
X10761143Y-15884333D01*
X10761143Y-15884333D02*
X10751619Y-15922428D01*
X10751619Y-15922428D02*
X10742095Y-15941476D01*
X10742095Y-15941476D02*
X10732572Y-15951000D01*
X10732572Y-15951000D02*
X10713524Y-15960524D01*
X10713524Y-15960524D02*
X10694476Y-15960524D01*
X10694476Y-15960524D02*
X10675429Y-15951000D01*
X10675429Y-15951000D02*
X10665905Y-15941476D01*
X10665905Y-15941476D02*
X10656381Y-15922428D01*
X10656381Y-15922428D02*
X10646857Y-15884333D01*
X10646857Y-15884333D02*
X10646857Y-15836714D01*
X10646857Y-15836714D02*
X10656381Y-15798619D01*
X10656381Y-15798619D02*
X10665905Y-15779571D01*
X10665905Y-15779571D02*
X10675429Y-15770048D01*
X10675429Y-15770048D02*
X10694476Y-15760524D01*
X10846857Y-15941476D02*
X10856381Y-15951000D01*
X10856381Y-15951000D02*
X10846857Y-15960524D01*
X10846857Y-15960524D02*
X10837334Y-15951000D01*
X10837334Y-15951000D02*
X10846857Y-15941476D01*
X10846857Y-15941476D02*
X10846857Y-15960524D01*
X11046857Y-15960524D02*
X10932572Y-15960524D01*
X10989714Y-15960524D02*
X10989714Y-15760524D01*
X10989714Y-15760524D02*
X10970667Y-15789095D01*
X10970667Y-15789095D02*
X10951619Y-15808143D01*
X10951619Y-15808143D02*
X10932572Y-15817667D01*
X11123048Y-15779571D02*
X11132572Y-15770048D01*
X11132572Y-15770048D02*
X11151619Y-15760524D01*
X11151619Y-15760524D02*
X11199238Y-15760524D01*
X11199238Y-15760524D02*
X11218286Y-15770048D01*
X11218286Y-15770048D02*
X11227810Y-15779571D01*
X11227810Y-15779571D02*
X11237333Y-15798619D01*
X11237333Y-15798619D02*
X11237333Y-15817667D01*
X11237333Y-15817667D02*
X11227810Y-15846238D01*
X11227810Y-15846238D02*
X11113524Y-15960524D01*
X11113524Y-15960524D02*
X11237333Y-15960524D01*
X11408762Y-15760524D02*
X11370667Y-15760524D01*
X11370667Y-15760524D02*
X11351619Y-15770048D01*
X11351619Y-15770048D02*
X11342095Y-15779571D01*
X11342095Y-15779571D02*
X11323048Y-15808143D01*
X11323048Y-15808143D02*
X11313524Y-15846238D01*
X11313524Y-15846238D02*
X11313524Y-15922428D01*
X11313524Y-15922428D02*
X11323048Y-15941476D01*
X11323048Y-15941476D02*
X11332572Y-15951000D01*
X11332572Y-15951000D02*
X11351619Y-15960524D01*
X11351619Y-15960524D02*
X11389714Y-15960524D01*
X11389714Y-15960524D02*
X11408762Y-15951000D01*
X11408762Y-15951000D02*
X11418286Y-15941476D01*
X11418286Y-15941476D02*
X11427810Y-15922428D01*
X11427810Y-15922428D02*
X11427810Y-15874809D01*
X11427810Y-15874809D02*
X11418286Y-15855762D01*
X11418286Y-15855762D02*
X11408762Y-15846238D01*
X11408762Y-15846238D02*
X11389714Y-15836714D01*
X11389714Y-15836714D02*
X11351619Y-15836714D01*
X11351619Y-15836714D02*
X11332572Y-15846238D01*
X11332572Y-15846238D02*
X11323048Y-15855762D01*
X11323048Y-15855762D02*
X11313524Y-15874809D01*
X11551619Y-15760524D02*
X11570667Y-15760524D01*
X11570667Y-15760524D02*
X11589714Y-15770048D01*
X11589714Y-15770048D02*
X11599238Y-15779571D01*
X11599238Y-15779571D02*
X11608762Y-15798619D01*
X11608762Y-15798619D02*
X11618286Y-15836714D01*
X11618286Y-15836714D02*
X11618286Y-15884333D01*
X11618286Y-15884333D02*
X11608762Y-15922428D01*
X11608762Y-15922428D02*
X11599238Y-15941476D01*
X11599238Y-15941476D02*
X11589714Y-15951000D01*
X11589714Y-15951000D02*
X11570667Y-15960524D01*
X11570667Y-15960524D02*
X11551619Y-15960524D01*
X11551619Y-15960524D02*
X11532572Y-15951000D01*
X11532572Y-15951000D02*
X11523048Y-15941476D01*
X11523048Y-15941476D02*
X11513524Y-15922428D01*
X11513524Y-15922428D02*
X11504000Y-15884333D01*
X11504000Y-15884333D02*
X11504000Y-15836714D01*
X11504000Y-15836714D02*
X11513524Y-15798619D01*
X11513524Y-15798619D02*
X11523048Y-15779571D01*
X11523048Y-15779571D02*
X11532572Y-15770048D01*
X11532572Y-15770048D02*
X11551619Y-15760524D01*
X11694476Y-15760524D02*
X11694476Y-15798619D01*
X11770667Y-15760524D02*
X11770667Y-15798619D01*
X12065905Y-16036714D02*
X12056381Y-16027190D01*
X12056381Y-16027190D02*
X12037334Y-15998619D01*
X12037334Y-15998619D02*
X12027810Y-15979571D01*
X12027810Y-15979571D02*
X12018286Y-15951000D01*
X12018286Y-15951000D02*
X12008762Y-15903381D01*
X12008762Y-15903381D02*
X12008762Y-15865286D01*
X12008762Y-15865286D02*
X12018286Y-15817667D01*
X12018286Y-15817667D02*
X12027810Y-15789095D01*
X12027810Y-15789095D02*
X12037334Y-15770048D01*
X12037334Y-15770048D02*
X12056381Y-15741476D01*
X12056381Y-15741476D02*
X12065905Y-15731952D01*
X12227810Y-15827190D02*
X12227810Y-15960524D01*
X12180191Y-15751000D02*
X12132572Y-15893857D01*
X12132572Y-15893857D02*
X12256381Y-15893857D01*
X12484953Y-15960524D02*
X12484953Y-15760524D01*
X12570667Y-15960524D02*
X12570667Y-15855762D01*
X12570667Y-15855762D02*
X12561143Y-15836714D01*
X12561143Y-15836714D02*
X12542096Y-15827190D01*
X12542096Y-15827190D02*
X12513524Y-15827190D01*
X12513524Y-15827190D02*
X12494476Y-15836714D01*
X12494476Y-15836714D02*
X12484953Y-15846238D01*
X12694476Y-15960524D02*
X12675429Y-15951000D01*
X12675429Y-15951000D02*
X12665905Y-15941476D01*
X12665905Y-15941476D02*
X12656381Y-15922428D01*
X12656381Y-15922428D02*
X12656381Y-15865286D01*
X12656381Y-15865286D02*
X12665905Y-15846238D01*
X12665905Y-15846238D02*
X12675429Y-15836714D01*
X12675429Y-15836714D02*
X12694476Y-15827190D01*
X12694476Y-15827190D02*
X12723048Y-15827190D01*
X12723048Y-15827190D02*
X12742096Y-15836714D01*
X12742096Y-15836714D02*
X12751619Y-15846238D01*
X12751619Y-15846238D02*
X12761143Y-15865286D01*
X12761143Y-15865286D02*
X12761143Y-15922428D01*
X12761143Y-15922428D02*
X12751619Y-15941476D01*
X12751619Y-15941476D02*
X12742096Y-15951000D01*
X12742096Y-15951000D02*
X12723048Y-15960524D01*
X12723048Y-15960524D02*
X12694476Y-15960524D01*
X12875429Y-15960524D02*
X12856381Y-15951000D01*
X12856381Y-15951000D02*
X12846857Y-15931952D01*
X12846857Y-15931952D02*
X12846857Y-15760524D01*
X13027810Y-15951000D02*
X13008762Y-15960524D01*
X13008762Y-15960524D02*
X12970667Y-15960524D01*
X12970667Y-15960524D02*
X12951619Y-15951000D01*
X12951619Y-15951000D02*
X12942096Y-15931952D01*
X12942096Y-15931952D02*
X12942096Y-15855762D01*
X12942096Y-15855762D02*
X12951619Y-15836714D01*
X12951619Y-15836714D02*
X12970667Y-15827190D01*
X12970667Y-15827190D02*
X13008762Y-15827190D01*
X13008762Y-15827190D02*
X13027810Y-15836714D01*
X13027810Y-15836714D02*
X13037334Y-15855762D01*
X13037334Y-15855762D02*
X13037334Y-15874809D01*
X13037334Y-15874809D02*
X12942096Y-15893857D01*
X13113524Y-15951000D02*
X13132572Y-15960524D01*
X13132572Y-15960524D02*
X13170667Y-15960524D01*
X13170667Y-15960524D02*
X13189715Y-15951000D01*
X13189715Y-15951000D02*
X13199238Y-15931952D01*
X13199238Y-15931952D02*
X13199238Y-15922428D01*
X13199238Y-15922428D02*
X13189715Y-15903381D01*
X13189715Y-15903381D02*
X13170667Y-15893857D01*
X13170667Y-15893857D02*
X13142096Y-15893857D01*
X13142096Y-15893857D02*
X13123048Y-15884333D01*
X13123048Y-15884333D02*
X13113524Y-15865286D01*
X13113524Y-15865286D02*
X13113524Y-15855762D01*
X13113524Y-15855762D02*
X13123048Y-15836714D01*
X13123048Y-15836714D02*
X13142096Y-15827190D01*
X13142096Y-15827190D02*
X13170667Y-15827190D01*
X13170667Y-15827190D02*
X13189715Y-15836714D01*
X13265905Y-16036714D02*
X13275429Y-16027190D01*
X13275429Y-16027190D02*
X13294477Y-15998619D01*
X13294477Y-15998619D02*
X13304000Y-15979571D01*
X13304000Y-15979571D02*
X13313524Y-15951000D01*
X13313524Y-15951000D02*
X13323048Y-15903381D01*
X13323048Y-15903381D02*
X13323048Y-15865286D01*
X13323048Y-15865286D02*
X13313524Y-15817667D01*
X13313524Y-15817667D02*
X13304000Y-15789095D01*
X13304000Y-15789095D02*
X13294477Y-15770048D01*
X13294477Y-15770048D02*
X13275429Y-15741476D01*
X13275429Y-15741476D02*
X13265905Y-15731952D01*
M02*
