G04 #@! TF.GenerationSoftware,KiCad,Pcbnew,7.0.5*
G04 #@! TF.CreationDate,2023-07-22T19:45:32-06:00*
G04 #@! TF.ProjectId,Project-Supernova-PCB,50726f6a-6563-4742-9d53-757065726e6f,rev?*
G04 #@! TF.SameCoordinates,Original*
G04 #@! TF.FileFunction,Legend,Top*
G04 #@! TF.FilePolarity,Positive*
%FSLAX46Y46*%
G04 Gerber Fmt 4.6, Leading zero omitted, Abs format (unit mm)*
G04 Created by KiCad (PCBNEW 7.0.5) date 2023-07-22 19:45:32*
%MOMM*%
%LPD*%
G01*
G04 APERTURE LIST*
G04 Aperture macros list*
%AMRoundRect*
0 Rectangle with rounded corners*
0 $1 Rounding radius*
0 $2 $3 $4 $5 $6 $7 $8 $9 X,Y pos of 4 corners*
0 Add a 4 corners polygon primitive as box body*
4,1,4,$2,$3,$4,$5,$6,$7,$8,$9,$2,$3,0*
0 Add four circle primitives for the rounded corners*
1,1,$1+$1,$2,$3*
1,1,$1+$1,$4,$5*
1,1,$1+$1,$6,$7*
1,1,$1+$1,$8,$9*
0 Add four rect primitives between the rounded corners*
20,1,$1+$1,$2,$3,$4,$5,0*
20,1,$1+$1,$4,$5,$6,$7,0*
20,1,$1+$1,$6,$7,$8,$9,0*
20,1,$1+$1,$8,$9,$2,$3,0*%
G04 Aperture macros list end*
%ADD10C,0.500000*%
%ADD11C,0.350000*%
%ADD12C,0.300000*%
%ADD13C,0.200000*%
%ADD14C,0.150000*%
%ADD15C,0.187500*%
%ADD16C,0.100000*%
%ADD17C,0.120000*%
%ADD18C,0.250000*%
%ADD19C,0.437353*%
%ADD20C,3.500000*%
%ADD21R,1.900000X1.900000*%
%ADD22C,2.000000*%
%ADD23RoundRect,0.250000X-0.400000X-0.625000X0.400000X-0.625000X0.400000X0.625000X-0.400000X0.625000X0*%
%ADD24RoundRect,0.250001X-0.462499X-0.624999X0.462499X-0.624999X0.462499X0.624999X-0.462499X0.624999X0*%
%ADD25R,1.700000X1.700000*%
%ADD26O,1.700000X1.700000*%
%ADD27RoundRect,0.300000X-0.550000X-0.300000X0.550000X-0.300000X0.550000X0.300000X-0.550000X0.300000X0*%
%ADD28RoundRect,0.325000X-0.525000X-0.325000X0.525000X-0.325000X0.525000X0.325000X-0.525000X0.325000X0*%
%ADD29C,3.000000*%
%ADD30O,3.500000X2.200000*%
%ADD31R,2.500000X1.500000*%
%ADD32O,2.500000X1.500000*%
%ADD33RoundRect,0.250001X0.462499X0.624999X-0.462499X0.624999X-0.462499X-0.624999X0.462499X-0.624999X0*%
%ADD34R,3.000000X3.000000*%
%ADD35RoundRect,0.100000X-0.712500X-0.100000X0.712500X-0.100000X0.712500X0.100000X-0.712500X0.100000X0*%
%ADD36RoundRect,0.250000X0.650000X-0.412500X0.650000X0.412500X-0.650000X0.412500X-0.650000X-0.412500X0*%
%ADD37RoundRect,0.250000X-0.412500X-0.650000X0.412500X-0.650000X0.412500X0.650000X-0.412500X0.650000X0*%
%ADD38C,5.600000*%
%ADD39C,1.524000*%
%ADD40C,2.050000*%
%ADD41C,2.250000*%
%ADD42R,2.000000X2.000000*%
%ADD43R,2.300000X0.800000*%
%ADD44R,0.800000X2.300000*%
%ADD45RoundRect,0.381000X-1.369000X-0.381000X1.369000X-0.381000X1.369000X0.381000X-1.369000X0.381000X0*%
G04 APERTURE END LIST*
D10*
X158115000Y-122555000D02*
X176784000Y-122555000D01*
X176784000Y-132715000D01*
X158115000Y-132715000D01*
X158115000Y-122555000D01*
D11*
X160356453Y-125666253D02*
X159789786Y-124856729D01*
X159385024Y-125666253D02*
X159385024Y-123966253D01*
X159385024Y-123966253D02*
X160032643Y-123966253D01*
X160032643Y-123966253D02*
X160194548Y-124047205D01*
X160194548Y-124047205D02*
X160275501Y-124128158D01*
X160275501Y-124128158D02*
X160356453Y-124290062D01*
X160356453Y-124290062D02*
X160356453Y-124532920D01*
X160356453Y-124532920D02*
X160275501Y-124694824D01*
X160275501Y-124694824D02*
X160194548Y-124775777D01*
X160194548Y-124775777D02*
X160032643Y-124856729D01*
X160032643Y-124856729D02*
X159385024Y-124856729D01*
X161085024Y-124775777D02*
X161651691Y-124775777D01*
X161894548Y-125666253D02*
X161085024Y-125666253D01*
X161085024Y-125666253D02*
X161085024Y-123966253D01*
X161085024Y-123966253D02*
X161894548Y-123966253D01*
X162380262Y-123966253D02*
X162946929Y-125666253D01*
X162946929Y-125666253D02*
X163513596Y-123966253D01*
X165294548Y-124128158D02*
X165375500Y-124047205D01*
X165375500Y-124047205D02*
X165537405Y-123966253D01*
X165537405Y-123966253D02*
X165942167Y-123966253D01*
X165942167Y-123966253D02*
X166104072Y-124047205D01*
X166104072Y-124047205D02*
X166185024Y-124128158D01*
X166185024Y-124128158D02*
X166265977Y-124290062D01*
X166265977Y-124290062D02*
X166265977Y-124451967D01*
X166265977Y-124451967D02*
X166185024Y-124694824D01*
X166185024Y-124694824D02*
X165213596Y-125666253D01*
X165213596Y-125666253D02*
X166265977Y-125666253D01*
X159304072Y-126865158D02*
X159385024Y-126784205D01*
X159385024Y-126784205D02*
X159546929Y-126703253D01*
X159546929Y-126703253D02*
X159951691Y-126703253D01*
X159951691Y-126703253D02*
X160113596Y-126784205D01*
X160113596Y-126784205D02*
X160194548Y-126865158D01*
X160194548Y-126865158D02*
X160275501Y-127027062D01*
X160275501Y-127027062D02*
X160275501Y-127188967D01*
X160275501Y-127188967D02*
X160194548Y-127431824D01*
X160194548Y-127431824D02*
X159223120Y-128403253D01*
X159223120Y-128403253D02*
X160275501Y-128403253D01*
X161327882Y-126703253D02*
X161489787Y-126703253D01*
X161489787Y-126703253D02*
X161651691Y-126784205D01*
X161651691Y-126784205D02*
X161732644Y-126865158D01*
X161732644Y-126865158D02*
X161813596Y-127027062D01*
X161813596Y-127027062D02*
X161894549Y-127350872D01*
X161894549Y-127350872D02*
X161894549Y-127755634D01*
X161894549Y-127755634D02*
X161813596Y-128079443D01*
X161813596Y-128079443D02*
X161732644Y-128241348D01*
X161732644Y-128241348D02*
X161651691Y-128322301D01*
X161651691Y-128322301D02*
X161489787Y-128403253D01*
X161489787Y-128403253D02*
X161327882Y-128403253D01*
X161327882Y-128403253D02*
X161165977Y-128322301D01*
X161165977Y-128322301D02*
X161085025Y-128241348D01*
X161085025Y-128241348D02*
X161004072Y-128079443D01*
X161004072Y-128079443D02*
X160923120Y-127755634D01*
X160923120Y-127755634D02*
X160923120Y-127350872D01*
X160923120Y-127350872D02*
X161004072Y-127027062D01*
X161004072Y-127027062D02*
X161085025Y-126865158D01*
X161085025Y-126865158D02*
X161165977Y-126784205D01*
X161165977Y-126784205D02*
X161327882Y-126703253D01*
X162542168Y-126865158D02*
X162623120Y-126784205D01*
X162623120Y-126784205D02*
X162785025Y-126703253D01*
X162785025Y-126703253D02*
X163189787Y-126703253D01*
X163189787Y-126703253D02*
X163351692Y-126784205D01*
X163351692Y-126784205D02*
X163432644Y-126865158D01*
X163432644Y-126865158D02*
X163513597Y-127027062D01*
X163513597Y-127027062D02*
X163513597Y-127188967D01*
X163513597Y-127188967D02*
X163432644Y-127431824D01*
X163432644Y-127431824D02*
X162461216Y-128403253D01*
X162461216Y-128403253D02*
X163513597Y-128403253D01*
X164080264Y-126703253D02*
X165132645Y-126703253D01*
X165132645Y-126703253D02*
X164565978Y-127350872D01*
X164565978Y-127350872D02*
X164808835Y-127350872D01*
X164808835Y-127350872D02*
X164970740Y-127431824D01*
X164970740Y-127431824D02*
X165051692Y-127512777D01*
X165051692Y-127512777D02*
X165132645Y-127674681D01*
X165132645Y-127674681D02*
X165132645Y-128079443D01*
X165132645Y-128079443D02*
X165051692Y-128241348D01*
X165051692Y-128241348D02*
X164970740Y-128322301D01*
X164970740Y-128322301D02*
X164808835Y-128403253D01*
X164808835Y-128403253D02*
X164323121Y-128403253D01*
X164323121Y-128403253D02*
X164161216Y-128322301D01*
X164161216Y-128322301D02*
X164080264Y-128241348D01*
X165861216Y-127755634D02*
X167156455Y-127755634D01*
X168289788Y-126703253D02*
X168451693Y-126703253D01*
X168451693Y-126703253D02*
X168613597Y-126784205D01*
X168613597Y-126784205D02*
X168694550Y-126865158D01*
X168694550Y-126865158D02*
X168775502Y-127027062D01*
X168775502Y-127027062D02*
X168856455Y-127350872D01*
X168856455Y-127350872D02*
X168856455Y-127755634D01*
X168856455Y-127755634D02*
X168775502Y-128079443D01*
X168775502Y-128079443D02*
X168694550Y-128241348D01*
X168694550Y-128241348D02*
X168613597Y-128322301D01*
X168613597Y-128322301D02*
X168451693Y-128403253D01*
X168451693Y-128403253D02*
X168289788Y-128403253D01*
X168289788Y-128403253D02*
X168127883Y-128322301D01*
X168127883Y-128322301D02*
X168046931Y-128241348D01*
X168046931Y-128241348D02*
X167965978Y-128079443D01*
X167965978Y-128079443D02*
X167885026Y-127755634D01*
X167885026Y-127755634D02*
X167885026Y-127350872D01*
X167885026Y-127350872D02*
X167965978Y-127027062D01*
X167965978Y-127027062D02*
X168046931Y-126865158D01*
X168046931Y-126865158D02*
X168127883Y-126784205D01*
X168127883Y-126784205D02*
X168289788Y-126703253D01*
X169423122Y-126703253D02*
X170556455Y-126703253D01*
X170556455Y-126703253D02*
X169827884Y-128403253D01*
X171204074Y-127755634D02*
X172499313Y-127755634D01*
X173227884Y-126865158D02*
X173308836Y-126784205D01*
X173308836Y-126784205D02*
X173470741Y-126703253D01*
X173470741Y-126703253D02*
X173875503Y-126703253D01*
X173875503Y-126703253D02*
X174037408Y-126784205D01*
X174037408Y-126784205D02*
X174118360Y-126865158D01*
X174118360Y-126865158D02*
X174199313Y-127027062D01*
X174199313Y-127027062D02*
X174199313Y-127188967D01*
X174199313Y-127188967D02*
X174118360Y-127431824D01*
X174118360Y-127431824D02*
X173146932Y-128403253D01*
X173146932Y-128403253D02*
X174199313Y-128403253D01*
X174846932Y-126865158D02*
X174927884Y-126784205D01*
X174927884Y-126784205D02*
X175089789Y-126703253D01*
X175089789Y-126703253D02*
X175494551Y-126703253D01*
X175494551Y-126703253D02*
X175656456Y-126784205D01*
X175656456Y-126784205D02*
X175737408Y-126865158D01*
X175737408Y-126865158D02*
X175818361Y-127027062D01*
X175818361Y-127027062D02*
X175818361Y-127188967D01*
X175818361Y-127188967D02*
X175737408Y-127431824D01*
X175737408Y-127431824D02*
X174765980Y-128403253D01*
X174765980Y-128403253D02*
X175818361Y-128403253D01*
X159951691Y-130249777D02*
X160194548Y-130330729D01*
X160194548Y-130330729D02*
X160275501Y-130411681D01*
X160275501Y-130411681D02*
X160356453Y-130573586D01*
X160356453Y-130573586D02*
X160356453Y-130816443D01*
X160356453Y-130816443D02*
X160275501Y-130978348D01*
X160275501Y-130978348D02*
X160194548Y-131059301D01*
X160194548Y-131059301D02*
X160032643Y-131140253D01*
X160032643Y-131140253D02*
X159385024Y-131140253D01*
X159385024Y-131140253D02*
X159385024Y-129440253D01*
X159385024Y-129440253D02*
X159951691Y-129440253D01*
X159951691Y-129440253D02*
X160113596Y-129521205D01*
X160113596Y-129521205D02*
X160194548Y-129602158D01*
X160194548Y-129602158D02*
X160275501Y-129764062D01*
X160275501Y-129764062D02*
X160275501Y-129925967D01*
X160275501Y-129925967D02*
X160194548Y-130087872D01*
X160194548Y-130087872D02*
X160113596Y-130168824D01*
X160113596Y-130168824D02*
X159951691Y-130249777D01*
X159951691Y-130249777D02*
X159385024Y-130249777D01*
X161813596Y-131140253D02*
X161813596Y-130249777D01*
X161813596Y-130249777D02*
X161732643Y-130087872D01*
X161732643Y-130087872D02*
X161570739Y-130006920D01*
X161570739Y-130006920D02*
X161246929Y-130006920D01*
X161246929Y-130006920D02*
X161085024Y-130087872D01*
X161813596Y-131059301D02*
X161651691Y-131140253D01*
X161651691Y-131140253D02*
X161246929Y-131140253D01*
X161246929Y-131140253D02*
X161085024Y-131059301D01*
X161085024Y-131059301D02*
X161004072Y-130897396D01*
X161004072Y-130897396D02*
X161004072Y-130735491D01*
X161004072Y-130735491D02*
X161085024Y-130573586D01*
X161085024Y-130573586D02*
X161246929Y-130492634D01*
X161246929Y-130492634D02*
X161651691Y-130492634D01*
X161651691Y-130492634D02*
X161813596Y-130411681D01*
X162865977Y-131140253D02*
X162704072Y-131059301D01*
X162704072Y-131059301D02*
X162623119Y-130897396D01*
X162623119Y-130897396D02*
X162623119Y-129440253D01*
X163756453Y-131140253D02*
X163594548Y-131059301D01*
X163594548Y-131059301D02*
X163513595Y-130897396D01*
X163513595Y-130897396D02*
X163513595Y-129440253D01*
X164646929Y-131140253D02*
X164485024Y-131059301D01*
X164485024Y-131059301D02*
X164404071Y-130978348D01*
X164404071Y-130978348D02*
X164323119Y-130816443D01*
X164323119Y-130816443D02*
X164323119Y-130330729D01*
X164323119Y-130330729D02*
X164404071Y-130168824D01*
X164404071Y-130168824D02*
X164485024Y-130087872D01*
X164485024Y-130087872D02*
X164646929Y-130006920D01*
X164646929Y-130006920D02*
X164889786Y-130006920D01*
X164889786Y-130006920D02*
X165051690Y-130087872D01*
X165051690Y-130087872D02*
X165132643Y-130168824D01*
X165132643Y-130168824D02*
X165213595Y-130330729D01*
X165213595Y-130330729D02*
X165213595Y-130816443D01*
X165213595Y-130816443D02*
X165132643Y-130978348D01*
X165132643Y-130978348D02*
X165051690Y-131059301D01*
X165051690Y-131059301D02*
X164889786Y-131140253D01*
X164889786Y-131140253D02*
X164646929Y-131140253D01*
X166185024Y-131140253D02*
X166023119Y-131059301D01*
X166023119Y-131059301D02*
X165942166Y-130978348D01*
X165942166Y-130978348D02*
X165861214Y-130816443D01*
X165861214Y-130816443D02*
X165861214Y-130330729D01*
X165861214Y-130330729D02*
X165942166Y-130168824D01*
X165942166Y-130168824D02*
X166023119Y-130087872D01*
X166023119Y-130087872D02*
X166185024Y-130006920D01*
X166185024Y-130006920D02*
X166427881Y-130006920D01*
X166427881Y-130006920D02*
X166589785Y-130087872D01*
X166589785Y-130087872D02*
X166670738Y-130168824D01*
X166670738Y-130168824D02*
X166751690Y-130330729D01*
X166751690Y-130330729D02*
X166751690Y-130816443D01*
X166751690Y-130816443D02*
X166670738Y-130978348D01*
X166670738Y-130978348D02*
X166589785Y-131059301D01*
X166589785Y-131059301D02*
X166427881Y-131140253D01*
X166427881Y-131140253D02*
X166185024Y-131140253D01*
X167480261Y-130006920D02*
X167480261Y-131140253D01*
X167480261Y-130168824D02*
X167561214Y-130087872D01*
X167561214Y-130087872D02*
X167723119Y-130006920D01*
X167723119Y-130006920D02*
X167965976Y-130006920D01*
X167965976Y-130006920D02*
X168127880Y-130087872D01*
X168127880Y-130087872D02*
X168208833Y-130249777D01*
X168208833Y-130249777D02*
X168208833Y-131140253D01*
X170313594Y-131140253D02*
X170313594Y-129440253D01*
X170313594Y-129440253D02*
X170961213Y-129440253D01*
X170961213Y-129440253D02*
X171123118Y-129521205D01*
X171123118Y-129521205D02*
X171204071Y-129602158D01*
X171204071Y-129602158D02*
X171285023Y-129764062D01*
X171285023Y-129764062D02*
X171285023Y-130006920D01*
X171285023Y-130006920D02*
X171204071Y-130168824D01*
X171204071Y-130168824D02*
X171123118Y-130249777D01*
X171123118Y-130249777D02*
X170961213Y-130330729D01*
X170961213Y-130330729D02*
X170313594Y-130330729D01*
X172742166Y-131140253D02*
X172742166Y-130249777D01*
X172742166Y-130249777D02*
X172661213Y-130087872D01*
X172661213Y-130087872D02*
X172499309Y-130006920D01*
X172499309Y-130006920D02*
X172175499Y-130006920D01*
X172175499Y-130006920D02*
X172013594Y-130087872D01*
X172742166Y-131059301D02*
X172580261Y-131140253D01*
X172580261Y-131140253D02*
X172175499Y-131140253D01*
X172175499Y-131140253D02*
X172013594Y-131059301D01*
X172013594Y-131059301D02*
X171932642Y-130897396D01*
X171932642Y-130897396D02*
X171932642Y-130735491D01*
X171932642Y-130735491D02*
X172013594Y-130573586D01*
X172013594Y-130573586D02*
X172175499Y-130492634D01*
X172175499Y-130492634D02*
X172580261Y-130492634D01*
X172580261Y-130492634D02*
X172742166Y-130411681D01*
X173794547Y-131140253D02*
X173632642Y-131059301D01*
X173632642Y-131059301D02*
X173551689Y-130897396D01*
X173551689Y-130897396D02*
X173551689Y-129440253D01*
X174361213Y-131059301D02*
X174523118Y-131140253D01*
X174523118Y-131140253D02*
X174846927Y-131140253D01*
X174846927Y-131140253D02*
X175008832Y-131059301D01*
X175008832Y-131059301D02*
X175089784Y-130897396D01*
X175089784Y-130897396D02*
X175089784Y-130816443D01*
X175089784Y-130816443D02*
X175008832Y-130654539D01*
X175008832Y-130654539D02*
X174846927Y-130573586D01*
X174846927Y-130573586D02*
X174604070Y-130573586D01*
X174604070Y-130573586D02*
X174442165Y-130492634D01*
X174442165Y-130492634D02*
X174361213Y-130330729D01*
X174361213Y-130330729D02*
X174361213Y-130249777D01*
X174361213Y-130249777D02*
X174442165Y-130087872D01*
X174442165Y-130087872D02*
X174604070Y-130006920D01*
X174604070Y-130006920D02*
X174846927Y-130006920D01*
X174846927Y-130006920D02*
X175008832Y-130087872D01*
D12*
X180788328Y-79669774D02*
X182288328Y-79169774D01*
X182288328Y-79169774D02*
X180788328Y-78669774D01*
X182431185Y-78526918D02*
X182431185Y-77384060D01*
X181502614Y-76526918D02*
X181574042Y-76312632D01*
X181574042Y-76312632D02*
X181645471Y-76241203D01*
X181645471Y-76241203D02*
X181788328Y-76169775D01*
X181788328Y-76169775D02*
X182002614Y-76169775D01*
X182002614Y-76169775D02*
X182145471Y-76241203D01*
X182145471Y-76241203D02*
X182216900Y-76312632D01*
X182216900Y-76312632D02*
X182288328Y-76455489D01*
X182288328Y-76455489D02*
X182288328Y-77026918D01*
X182288328Y-77026918D02*
X180788328Y-77026918D01*
X180788328Y-77026918D02*
X180788328Y-76526918D01*
X180788328Y-76526918D02*
X180859757Y-76384061D01*
X180859757Y-76384061D02*
X180931185Y-76312632D01*
X180931185Y-76312632D02*
X181074042Y-76241203D01*
X181074042Y-76241203D02*
X181216900Y-76241203D01*
X181216900Y-76241203D02*
X181359757Y-76312632D01*
X181359757Y-76312632D02*
X181431185Y-76384061D01*
X181431185Y-76384061D02*
X181502614Y-76526918D01*
X181502614Y-76526918D02*
X181502614Y-77026918D01*
X181859757Y-75598346D02*
X181859757Y-74884061D01*
X182288328Y-75741203D02*
X180788328Y-75241203D01*
X180788328Y-75241203D02*
X182288328Y-74741203D01*
X180788328Y-74455489D02*
X180788328Y-73598347D01*
X182288328Y-74026918D02*
X180788328Y-74026918D01*
X180788328Y-73312632D02*
X180788328Y-72455490D01*
X182288328Y-72884061D02*
X180788328Y-72884061D01*
X143934328Y-52785489D02*
X142434328Y-52785489D01*
X142434328Y-52785489D02*
X142434328Y-52428346D01*
X142434328Y-52428346D02*
X142505757Y-52214060D01*
X142505757Y-52214060D02*
X142648614Y-52071203D01*
X142648614Y-52071203D02*
X142791471Y-51999774D01*
X142791471Y-51999774D02*
X143077185Y-51928346D01*
X143077185Y-51928346D02*
X143291471Y-51928346D01*
X143291471Y-51928346D02*
X143577185Y-51999774D01*
X143577185Y-51999774D02*
X143720042Y-52071203D01*
X143720042Y-52071203D02*
X143862900Y-52214060D01*
X143862900Y-52214060D02*
X143934328Y-52428346D01*
X143934328Y-52428346D02*
X143934328Y-52785489D01*
X143934328Y-50499774D02*
X143934328Y-51356917D01*
X143934328Y-50928346D02*
X142434328Y-50928346D01*
X142434328Y-50928346D02*
X142648614Y-51071203D01*
X142648614Y-51071203D02*
X142791471Y-51214060D01*
X142791471Y-51214060D02*
X142862900Y-51356917D01*
X143934328Y-49785489D02*
X143934328Y-49499775D01*
X143934328Y-49499775D02*
X143862900Y-49356918D01*
X143862900Y-49356918D02*
X143791471Y-49285489D01*
X143791471Y-49285489D02*
X143577185Y-49142632D01*
X143577185Y-49142632D02*
X143291471Y-49071203D01*
X143291471Y-49071203D02*
X142720042Y-49071203D01*
X142720042Y-49071203D02*
X142577185Y-49142632D01*
X142577185Y-49142632D02*
X142505757Y-49214061D01*
X142505757Y-49214061D02*
X142434328Y-49356918D01*
X142434328Y-49356918D02*
X142434328Y-49642632D01*
X142434328Y-49642632D02*
X142505757Y-49785489D01*
X142505757Y-49785489D02*
X142577185Y-49856918D01*
X142577185Y-49856918D02*
X142720042Y-49928346D01*
X142720042Y-49928346D02*
X143077185Y-49928346D01*
X143077185Y-49928346D02*
X143220042Y-49856918D01*
X143220042Y-49856918D02*
X143291471Y-49785489D01*
X143291471Y-49785489D02*
X143362900Y-49642632D01*
X143362900Y-49642632D02*
X143362900Y-49356918D01*
X143362900Y-49356918D02*
X143291471Y-49214061D01*
X143291471Y-49214061D02*
X143220042Y-49142632D01*
X143220042Y-49142632D02*
X143077185Y-49071203D01*
X170699757Y-62159774D02*
X170628328Y-62302632D01*
X170628328Y-62302632D02*
X170628328Y-62516917D01*
X170628328Y-62516917D02*
X170699757Y-62731203D01*
X170699757Y-62731203D02*
X170842614Y-62874060D01*
X170842614Y-62874060D02*
X170985471Y-62945489D01*
X170985471Y-62945489D02*
X171271185Y-63016917D01*
X171271185Y-63016917D02*
X171485471Y-63016917D01*
X171485471Y-63016917D02*
X171771185Y-62945489D01*
X171771185Y-62945489D02*
X171914042Y-62874060D01*
X171914042Y-62874060D02*
X172056900Y-62731203D01*
X172056900Y-62731203D02*
X172128328Y-62516917D01*
X172128328Y-62516917D02*
X172128328Y-62374060D01*
X172128328Y-62374060D02*
X172056900Y-62159774D01*
X172056900Y-62159774D02*
X171985471Y-62088346D01*
X171985471Y-62088346D02*
X171485471Y-62088346D01*
X171485471Y-62088346D02*
X171485471Y-62374060D01*
X172128328Y-61445489D02*
X170628328Y-61445489D01*
X170628328Y-61445489D02*
X172128328Y-60588346D01*
X172128328Y-60588346D02*
X170628328Y-60588346D01*
X172128328Y-59874060D02*
X170628328Y-59874060D01*
X170628328Y-59874060D02*
X170628328Y-59516917D01*
X170628328Y-59516917D02*
X170699757Y-59302631D01*
X170699757Y-59302631D02*
X170842614Y-59159774D01*
X170842614Y-59159774D02*
X170985471Y-59088345D01*
X170985471Y-59088345D02*
X171271185Y-59016917D01*
X171271185Y-59016917D02*
X171485471Y-59016917D01*
X171485471Y-59016917D02*
X171771185Y-59088345D01*
X171771185Y-59088345D02*
X171914042Y-59159774D01*
X171914042Y-59159774D02*
X172056900Y-59302631D01*
X172056900Y-59302631D02*
X172128328Y-59516917D01*
X172128328Y-59516917D02*
X172128328Y-59874060D01*
X147237844Y-120927257D02*
X147114034Y-120855828D01*
X147114034Y-120855828D02*
X146928320Y-120855828D01*
X146928320Y-120855828D02*
X146742606Y-120927257D01*
X146742606Y-120927257D02*
X146618796Y-121070114D01*
X146618796Y-121070114D02*
X146556891Y-121212971D01*
X146556891Y-121212971D02*
X146494987Y-121498685D01*
X146494987Y-121498685D02*
X146494987Y-121712971D01*
X146494987Y-121712971D02*
X146556891Y-121998685D01*
X146556891Y-121998685D02*
X146618796Y-122141542D01*
X146618796Y-122141542D02*
X146742606Y-122284400D01*
X146742606Y-122284400D02*
X146928320Y-122355828D01*
X146928320Y-122355828D02*
X147052129Y-122355828D01*
X147052129Y-122355828D02*
X147237844Y-122284400D01*
X147237844Y-122284400D02*
X147299748Y-122212971D01*
X147299748Y-122212971D02*
X147299748Y-121712971D01*
X147299748Y-121712971D02*
X147052129Y-121712971D01*
X147856891Y-122355828D02*
X147856891Y-120855828D01*
X147856891Y-120855828D02*
X148599748Y-122355828D01*
X148599748Y-122355828D02*
X148599748Y-120855828D01*
X149218796Y-122355828D02*
X149218796Y-120855828D01*
X149218796Y-120855828D02*
X149528320Y-120855828D01*
X149528320Y-120855828D02*
X149714034Y-120927257D01*
X149714034Y-120927257D02*
X149837844Y-121070114D01*
X149837844Y-121070114D02*
X149899749Y-121212971D01*
X149899749Y-121212971D02*
X149961653Y-121498685D01*
X149961653Y-121498685D02*
X149961653Y-121712971D01*
X149961653Y-121712971D02*
X149899749Y-121998685D01*
X149899749Y-121998685D02*
X149837844Y-122141542D01*
X149837844Y-122141542D02*
X149714034Y-122284400D01*
X149714034Y-122284400D02*
X149528320Y-122355828D01*
X149528320Y-122355828D02*
X149218796Y-122355828D01*
X150828320Y-122855828D02*
X150828320Y-120712971D01*
X152314034Y-121355828D02*
X152314034Y-122355828D01*
X151756891Y-121355828D02*
X151756891Y-122141542D01*
X151756891Y-122141542D02*
X151818796Y-122284400D01*
X151818796Y-122284400D02*
X151942606Y-122355828D01*
X151942606Y-122355828D02*
X152128320Y-122355828D01*
X152128320Y-122355828D02*
X152252129Y-122284400D01*
X152252129Y-122284400D02*
X152314034Y-122212971D01*
X153675938Y-122212971D02*
X153614034Y-122284400D01*
X153614034Y-122284400D02*
X153428319Y-122355828D01*
X153428319Y-122355828D02*
X153304510Y-122355828D01*
X153304510Y-122355828D02*
X153118796Y-122284400D01*
X153118796Y-122284400D02*
X152994986Y-122141542D01*
X152994986Y-122141542D02*
X152933081Y-121998685D01*
X152933081Y-121998685D02*
X152871177Y-121712971D01*
X152871177Y-121712971D02*
X152871177Y-121498685D01*
X152871177Y-121498685D02*
X152933081Y-121212971D01*
X152933081Y-121212971D02*
X152994986Y-121070114D01*
X152994986Y-121070114D02*
X153118796Y-120927257D01*
X153118796Y-120927257D02*
X153304510Y-120855828D01*
X153304510Y-120855828D02*
X153428319Y-120855828D01*
X153428319Y-120855828D02*
X153614034Y-120927257D01*
X153614034Y-120927257D02*
X153675938Y-120998685D01*
X153923558Y-122498685D02*
X154914034Y-122498685D01*
X155037843Y-120855828D02*
X155471176Y-122355828D01*
X155471176Y-122355828D02*
X155904510Y-120855828D01*
X156337843Y-122355828D02*
X156337843Y-120855828D01*
X156956891Y-122355828D02*
X156956891Y-120855828D01*
X156956891Y-120855828D02*
X157699748Y-122355828D01*
X157699748Y-122355828D02*
X157699748Y-120855828D01*
D13*
X121066667Y-132052219D02*
X121066667Y-131052219D01*
X121066667Y-131052219D02*
X121447619Y-131052219D01*
X121447619Y-131052219D02*
X121542857Y-131099838D01*
X121542857Y-131099838D02*
X121590476Y-131147457D01*
X121590476Y-131147457D02*
X121638095Y-131242695D01*
X121638095Y-131242695D02*
X121638095Y-131385552D01*
X121638095Y-131385552D02*
X121590476Y-131480790D01*
X121590476Y-131480790D02*
X121542857Y-131528409D01*
X121542857Y-131528409D02*
X121447619Y-131576028D01*
X121447619Y-131576028D02*
X121066667Y-131576028D01*
X121971429Y-131052219D02*
X122209524Y-132052219D01*
X122209524Y-132052219D02*
X122400000Y-131337933D01*
X122400000Y-131337933D02*
X122590476Y-132052219D01*
X122590476Y-132052219D02*
X122828572Y-131052219D01*
X123780952Y-132052219D02*
X123447619Y-131576028D01*
X123209524Y-132052219D02*
X123209524Y-131052219D01*
X123209524Y-131052219D02*
X123590476Y-131052219D01*
X123590476Y-131052219D02*
X123685714Y-131099838D01*
X123685714Y-131099838D02*
X123733333Y-131147457D01*
X123733333Y-131147457D02*
X123780952Y-131242695D01*
X123780952Y-131242695D02*
X123780952Y-131385552D01*
X123780952Y-131385552D02*
X123733333Y-131480790D01*
X123733333Y-131480790D02*
X123685714Y-131528409D01*
X123685714Y-131528409D02*
X123590476Y-131576028D01*
X123590476Y-131576028D02*
X123209524Y-131576028D01*
D12*
X149044328Y-52785489D02*
X147544328Y-52785489D01*
X147544328Y-52785489D02*
X147544328Y-52428346D01*
X147544328Y-52428346D02*
X147615757Y-52214060D01*
X147615757Y-52214060D02*
X147758614Y-52071203D01*
X147758614Y-52071203D02*
X147901471Y-51999774D01*
X147901471Y-51999774D02*
X148187185Y-51928346D01*
X148187185Y-51928346D02*
X148401471Y-51928346D01*
X148401471Y-51928346D02*
X148687185Y-51999774D01*
X148687185Y-51999774D02*
X148830042Y-52071203D01*
X148830042Y-52071203D02*
X148972900Y-52214060D01*
X148972900Y-52214060D02*
X149044328Y-52428346D01*
X149044328Y-52428346D02*
X149044328Y-52785489D01*
X147687185Y-51356917D02*
X147615757Y-51285489D01*
X147615757Y-51285489D02*
X147544328Y-51142632D01*
X147544328Y-51142632D02*
X147544328Y-50785489D01*
X147544328Y-50785489D02*
X147615757Y-50642632D01*
X147615757Y-50642632D02*
X147687185Y-50571203D01*
X147687185Y-50571203D02*
X147830042Y-50499774D01*
X147830042Y-50499774D02*
X147972900Y-50499774D01*
X147972900Y-50499774D02*
X148187185Y-50571203D01*
X148187185Y-50571203D02*
X149044328Y-51428346D01*
X149044328Y-51428346D02*
X149044328Y-50499774D01*
X147544328Y-49999775D02*
X147544328Y-48999775D01*
X147544328Y-48999775D02*
X149044328Y-49642632D01*
X180788328Y-63088346D02*
X180788328Y-62159774D01*
X180788328Y-62159774D02*
X181359757Y-62659774D01*
X181359757Y-62659774D02*
X181359757Y-62445489D01*
X181359757Y-62445489D02*
X181431185Y-62302632D01*
X181431185Y-62302632D02*
X181502614Y-62231203D01*
X181502614Y-62231203D02*
X181645471Y-62159774D01*
X181645471Y-62159774D02*
X182002614Y-62159774D01*
X182002614Y-62159774D02*
X182145471Y-62231203D01*
X182145471Y-62231203D02*
X182216900Y-62302632D01*
X182216900Y-62302632D02*
X182288328Y-62445489D01*
X182288328Y-62445489D02*
X182288328Y-62874060D01*
X182288328Y-62874060D02*
X182216900Y-63016917D01*
X182216900Y-63016917D02*
X182145471Y-63088346D01*
X180788328Y-61731203D02*
X182288328Y-61231203D01*
X182288328Y-61231203D02*
X180788328Y-60731203D01*
X180788328Y-60374061D02*
X180788328Y-59445489D01*
X180788328Y-59445489D02*
X181359757Y-59945489D01*
X181359757Y-59945489D02*
X181359757Y-59731204D01*
X181359757Y-59731204D02*
X181431185Y-59588347D01*
X181431185Y-59588347D02*
X181502614Y-59516918D01*
X181502614Y-59516918D02*
X181645471Y-59445489D01*
X181645471Y-59445489D02*
X182002614Y-59445489D01*
X182002614Y-59445489D02*
X182145471Y-59516918D01*
X182145471Y-59516918D02*
X182216900Y-59588347D01*
X182216900Y-59588347D02*
X182288328Y-59731204D01*
X182288328Y-59731204D02*
X182288328Y-60159775D01*
X182288328Y-60159775D02*
X182216900Y-60302632D01*
X182216900Y-60302632D02*
X182145471Y-60374061D01*
X175327177Y-87200828D02*
X176070034Y-87200828D01*
X175698606Y-88700828D02*
X175698606Y-87200828D01*
X176998605Y-88629400D02*
X176874796Y-88700828D01*
X176874796Y-88700828D02*
X176627177Y-88700828D01*
X176627177Y-88700828D02*
X176503367Y-88629400D01*
X176503367Y-88629400D02*
X176441463Y-88486542D01*
X176441463Y-88486542D02*
X176441463Y-87915114D01*
X176441463Y-87915114D02*
X176503367Y-87772257D01*
X176503367Y-87772257D02*
X176627177Y-87700828D01*
X176627177Y-87700828D02*
X176874796Y-87700828D01*
X176874796Y-87700828D02*
X176998605Y-87772257D01*
X176998605Y-87772257D02*
X177060510Y-87915114D01*
X177060510Y-87915114D02*
X177060510Y-88057971D01*
X177060510Y-88057971D02*
X176441463Y-88200828D01*
X177617653Y-88700828D02*
X177617653Y-87700828D01*
X177617653Y-87843685D02*
X177679558Y-87772257D01*
X177679558Y-87772257D02*
X177803368Y-87700828D01*
X177803368Y-87700828D02*
X177989082Y-87700828D01*
X177989082Y-87700828D02*
X178112891Y-87772257D01*
X178112891Y-87772257D02*
X178174796Y-87915114D01*
X178174796Y-87915114D02*
X178174796Y-88700828D01*
X178174796Y-87915114D02*
X178236701Y-87772257D01*
X178236701Y-87772257D02*
X178360510Y-87700828D01*
X178360510Y-87700828D02*
X178546225Y-87700828D01*
X178546225Y-87700828D02*
X178670034Y-87772257D01*
X178670034Y-87772257D02*
X178731939Y-87915114D01*
X178731939Y-87915114D02*
X178731939Y-88700828D01*
X179350986Y-87700828D02*
X179350986Y-89200828D01*
X179350986Y-87772257D02*
X179474796Y-87700828D01*
X179474796Y-87700828D02*
X179722415Y-87700828D01*
X179722415Y-87700828D02*
X179846224Y-87772257D01*
X179846224Y-87772257D02*
X179908129Y-87843685D01*
X179908129Y-87843685D02*
X179970034Y-87986542D01*
X179970034Y-87986542D02*
X179970034Y-88415114D01*
X179970034Y-88415114D02*
X179908129Y-88557971D01*
X179908129Y-88557971D02*
X179846224Y-88629400D01*
X179846224Y-88629400D02*
X179722415Y-88700828D01*
X179722415Y-88700828D02*
X179474796Y-88700828D01*
X179474796Y-88700828D02*
X179350986Y-88629400D01*
X181455748Y-87700828D02*
X182384319Y-87700828D01*
X181827176Y-87057971D02*
X181455748Y-88986542D01*
X182260509Y-88343685D02*
X181331938Y-88343685D01*
X181889081Y-88986542D02*
X182260509Y-87057971D01*
X182755748Y-87343685D02*
X182817652Y-87272257D01*
X182817652Y-87272257D02*
X182941462Y-87200828D01*
X182941462Y-87200828D02*
X183250986Y-87200828D01*
X183250986Y-87200828D02*
X183374795Y-87272257D01*
X183374795Y-87272257D02*
X183436700Y-87343685D01*
X183436700Y-87343685D02*
X183498605Y-87486542D01*
X183498605Y-87486542D02*
X183498605Y-87629400D01*
X183498605Y-87629400D02*
X183436700Y-87843685D01*
X183436700Y-87843685D02*
X182693843Y-88700828D01*
X182693843Y-88700828D02*
X183498605Y-88700828D01*
X146474328Y-52785489D02*
X144974328Y-52785489D01*
X144974328Y-52785489D02*
X144974328Y-52428346D01*
X144974328Y-52428346D02*
X145045757Y-52214060D01*
X145045757Y-52214060D02*
X145188614Y-52071203D01*
X145188614Y-52071203D02*
X145331471Y-51999774D01*
X145331471Y-51999774D02*
X145617185Y-51928346D01*
X145617185Y-51928346D02*
X145831471Y-51928346D01*
X145831471Y-51928346D02*
X146117185Y-51999774D01*
X146117185Y-51999774D02*
X146260042Y-52071203D01*
X146260042Y-52071203D02*
X146402900Y-52214060D01*
X146402900Y-52214060D02*
X146474328Y-52428346D01*
X146474328Y-52428346D02*
X146474328Y-52785489D01*
X145117185Y-51356917D02*
X145045757Y-51285489D01*
X145045757Y-51285489D02*
X144974328Y-51142632D01*
X144974328Y-51142632D02*
X144974328Y-50785489D01*
X144974328Y-50785489D02*
X145045757Y-50642632D01*
X145045757Y-50642632D02*
X145117185Y-50571203D01*
X145117185Y-50571203D02*
X145260042Y-50499774D01*
X145260042Y-50499774D02*
X145402900Y-50499774D01*
X145402900Y-50499774D02*
X145617185Y-50571203D01*
X145617185Y-50571203D02*
X146474328Y-51428346D01*
X146474328Y-51428346D02*
X146474328Y-50499774D01*
X144974328Y-49999775D02*
X144974328Y-49071203D01*
X144974328Y-49071203D02*
X145545757Y-49571203D01*
X145545757Y-49571203D02*
X145545757Y-49356918D01*
X145545757Y-49356918D02*
X145617185Y-49214061D01*
X145617185Y-49214061D02*
X145688614Y-49142632D01*
X145688614Y-49142632D02*
X145831471Y-49071203D01*
X145831471Y-49071203D02*
X146188614Y-49071203D01*
X146188614Y-49071203D02*
X146331471Y-49142632D01*
X146331471Y-49142632D02*
X146402900Y-49214061D01*
X146402900Y-49214061D02*
X146474328Y-49356918D01*
X146474328Y-49356918D02*
X146474328Y-49785489D01*
X146474328Y-49785489D02*
X146402900Y-49928346D01*
X146402900Y-49928346D02*
X146331471Y-49999775D01*
D14*
X90649588Y-116646438D02*
X90554350Y-116598819D01*
X90554350Y-116598819D02*
X90411493Y-116598819D01*
X90411493Y-116598819D02*
X90268636Y-116646438D01*
X90268636Y-116646438D02*
X90173398Y-116741676D01*
X90173398Y-116741676D02*
X90125779Y-116836914D01*
X90125779Y-116836914D02*
X90078160Y-117027390D01*
X90078160Y-117027390D02*
X90078160Y-117170247D01*
X90078160Y-117170247D02*
X90125779Y-117360723D01*
X90125779Y-117360723D02*
X90173398Y-117455961D01*
X90173398Y-117455961D02*
X90268636Y-117551200D01*
X90268636Y-117551200D02*
X90411493Y-117598819D01*
X90411493Y-117598819D02*
X90506731Y-117598819D01*
X90506731Y-117598819D02*
X90649588Y-117551200D01*
X90649588Y-117551200D02*
X90697207Y-117503580D01*
X90697207Y-117503580D02*
X90697207Y-117170247D01*
X90697207Y-117170247D02*
X90506731Y-117170247D01*
X91125779Y-117598819D02*
X91125779Y-116598819D01*
X91125779Y-116598819D02*
X91697207Y-117598819D01*
X91697207Y-117598819D02*
X91697207Y-116598819D01*
X92173398Y-117598819D02*
X92173398Y-116598819D01*
X92173398Y-116598819D02*
X92411493Y-116598819D01*
X92411493Y-116598819D02*
X92554350Y-116646438D01*
X92554350Y-116646438D02*
X92649588Y-116741676D01*
X92649588Y-116741676D02*
X92697207Y-116836914D01*
X92697207Y-116836914D02*
X92744826Y-117027390D01*
X92744826Y-117027390D02*
X92744826Y-117170247D01*
X92744826Y-117170247D02*
X92697207Y-117360723D01*
X92697207Y-117360723D02*
X92649588Y-117455961D01*
X92649588Y-117455961D02*
X92554350Y-117551200D01*
X92554350Y-117551200D02*
X92411493Y-117598819D01*
X92411493Y-117598819D02*
X92173398Y-117598819D01*
D13*
X118578219Y-128022850D02*
X118578219Y-127832374D01*
X118578219Y-127832374D02*
X118625838Y-127737136D01*
X118625838Y-127737136D02*
X118721076Y-127641898D01*
X118721076Y-127641898D02*
X118911552Y-127594279D01*
X118911552Y-127594279D02*
X119244885Y-127594279D01*
X119244885Y-127594279D02*
X119435361Y-127641898D01*
X119435361Y-127641898D02*
X119530600Y-127737136D01*
X119530600Y-127737136D02*
X119578219Y-127832374D01*
X119578219Y-127832374D02*
X119578219Y-128022850D01*
X119578219Y-128022850D02*
X119530600Y-128118088D01*
X119530600Y-128118088D02*
X119435361Y-128213326D01*
X119435361Y-128213326D02*
X119244885Y-128260945D01*
X119244885Y-128260945D02*
X118911552Y-128260945D01*
X118911552Y-128260945D02*
X118721076Y-128213326D01*
X118721076Y-128213326D02*
X118625838Y-128118088D01*
X118625838Y-128118088D02*
X118578219Y-128022850D01*
X119054409Y-126832374D02*
X119054409Y-127165707D01*
X119578219Y-127165707D02*
X118578219Y-127165707D01*
X118578219Y-127165707D02*
X118578219Y-126689517D01*
X119054409Y-125975231D02*
X119054409Y-126308564D01*
X119578219Y-126308564D02*
X118578219Y-126308564D01*
X118578219Y-126308564D02*
X118578219Y-125832374D01*
X119911552Y-124451421D02*
X118482980Y-124451421D01*
X118578219Y-122784754D02*
X118578219Y-122594278D01*
X118578219Y-122594278D02*
X118625838Y-122499040D01*
X118625838Y-122499040D02*
X118721076Y-122403802D01*
X118721076Y-122403802D02*
X118911552Y-122356183D01*
X118911552Y-122356183D02*
X119244885Y-122356183D01*
X119244885Y-122356183D02*
X119435361Y-122403802D01*
X119435361Y-122403802D02*
X119530600Y-122499040D01*
X119530600Y-122499040D02*
X119578219Y-122594278D01*
X119578219Y-122594278D02*
X119578219Y-122784754D01*
X119578219Y-122784754D02*
X119530600Y-122879992D01*
X119530600Y-122879992D02*
X119435361Y-122975230D01*
X119435361Y-122975230D02*
X119244885Y-123022849D01*
X119244885Y-123022849D02*
X118911552Y-123022849D01*
X118911552Y-123022849D02*
X118721076Y-122975230D01*
X118721076Y-122975230D02*
X118625838Y-122879992D01*
X118625838Y-122879992D02*
X118578219Y-122784754D01*
X119578219Y-121927611D02*
X118578219Y-121927611D01*
X118578219Y-121927611D02*
X119578219Y-121356183D01*
X119578219Y-121356183D02*
X118578219Y-121356183D01*
D12*
X108020225Y-120292257D02*
X107877368Y-120220828D01*
X107877368Y-120220828D02*
X107663082Y-120220828D01*
X107663082Y-120220828D02*
X107448796Y-120292257D01*
X107448796Y-120292257D02*
X107305939Y-120435114D01*
X107305939Y-120435114D02*
X107234510Y-120577971D01*
X107234510Y-120577971D02*
X107163082Y-120863685D01*
X107163082Y-120863685D02*
X107163082Y-121077971D01*
X107163082Y-121077971D02*
X107234510Y-121363685D01*
X107234510Y-121363685D02*
X107305939Y-121506542D01*
X107305939Y-121506542D02*
X107448796Y-121649400D01*
X107448796Y-121649400D02*
X107663082Y-121720828D01*
X107663082Y-121720828D02*
X107805939Y-121720828D01*
X107805939Y-121720828D02*
X108020225Y-121649400D01*
X108020225Y-121649400D02*
X108091653Y-121577971D01*
X108091653Y-121577971D02*
X108091653Y-121077971D01*
X108091653Y-121077971D02*
X107805939Y-121077971D01*
X108734510Y-121720828D02*
X108734510Y-120220828D01*
X108734510Y-120220828D02*
X109591653Y-121720828D01*
X109591653Y-121720828D02*
X109591653Y-120220828D01*
X110305939Y-121720828D02*
X110305939Y-120220828D01*
X110305939Y-120220828D02*
X110663082Y-120220828D01*
X110663082Y-120220828D02*
X110877368Y-120292257D01*
X110877368Y-120292257D02*
X111020225Y-120435114D01*
X111020225Y-120435114D02*
X111091654Y-120577971D01*
X111091654Y-120577971D02*
X111163082Y-120863685D01*
X111163082Y-120863685D02*
X111163082Y-121077971D01*
X111163082Y-121077971D02*
X111091654Y-121363685D01*
X111091654Y-121363685D02*
X111020225Y-121506542D01*
X111020225Y-121506542D02*
X110877368Y-121649400D01*
X110877368Y-121649400D02*
X110663082Y-121720828D01*
X110663082Y-121720828D02*
X110305939Y-121720828D01*
X112163082Y-122220828D02*
X112163082Y-120077971D01*
X113091653Y-120220828D02*
X114020225Y-120220828D01*
X114020225Y-120220828D02*
X113520225Y-120792257D01*
X113520225Y-120792257D02*
X113734510Y-120792257D01*
X113734510Y-120792257D02*
X113877368Y-120863685D01*
X113877368Y-120863685D02*
X113948796Y-120935114D01*
X113948796Y-120935114D02*
X114020225Y-121077971D01*
X114020225Y-121077971D02*
X114020225Y-121435114D01*
X114020225Y-121435114D02*
X113948796Y-121577971D01*
X113948796Y-121577971D02*
X113877368Y-121649400D01*
X113877368Y-121649400D02*
X113734510Y-121720828D01*
X113734510Y-121720828D02*
X113305939Y-121720828D01*
X113305939Y-121720828D02*
X113163082Y-121649400D01*
X113163082Y-121649400D02*
X113091653Y-121577971D01*
X114448796Y-120220828D02*
X114948796Y-121720828D01*
X114948796Y-121720828D02*
X115448796Y-120220828D01*
X115805938Y-120220828D02*
X116734510Y-120220828D01*
X116734510Y-120220828D02*
X116234510Y-120792257D01*
X116234510Y-120792257D02*
X116448795Y-120792257D01*
X116448795Y-120792257D02*
X116591653Y-120863685D01*
X116591653Y-120863685D02*
X116663081Y-120935114D01*
X116663081Y-120935114D02*
X116734510Y-121077971D01*
X116734510Y-121077971D02*
X116734510Y-121435114D01*
X116734510Y-121435114D02*
X116663081Y-121577971D01*
X116663081Y-121577971D02*
X116591653Y-121649400D01*
X116591653Y-121649400D02*
X116448795Y-121720828D01*
X116448795Y-121720828D02*
X116020224Y-121720828D01*
X116020224Y-121720828D02*
X115877367Y-121649400D01*
X115877367Y-121649400D02*
X115805938Y-121577971D01*
D13*
X128699999Y-131852219D02*
X128366666Y-131376028D01*
X128128571Y-131852219D02*
X128128571Y-130852219D01*
X128128571Y-130852219D02*
X128509523Y-130852219D01*
X128509523Y-130852219D02*
X128604761Y-130899838D01*
X128604761Y-130899838D02*
X128652380Y-130947457D01*
X128652380Y-130947457D02*
X128699999Y-131042695D01*
X128699999Y-131042695D02*
X128699999Y-131185552D01*
X128699999Y-131185552D02*
X128652380Y-131280790D01*
X128652380Y-131280790D02*
X128604761Y-131328409D01*
X128604761Y-131328409D02*
X128509523Y-131376028D01*
X128509523Y-131376028D02*
X128128571Y-131376028D01*
X129128571Y-131328409D02*
X129461904Y-131328409D01*
X129604761Y-131852219D02*
X129128571Y-131852219D01*
X129128571Y-131852219D02*
X129128571Y-130852219D01*
X129128571Y-130852219D02*
X129604761Y-130852219D01*
X129985714Y-131566504D02*
X130461904Y-131566504D01*
X129890476Y-131852219D02*
X130223809Y-130852219D01*
X130223809Y-130852219D02*
X130557142Y-131852219D01*
X130890476Y-131852219D02*
X130890476Y-130852219D01*
X130890476Y-130852219D02*
X131128571Y-130852219D01*
X131128571Y-130852219D02*
X131271428Y-130899838D01*
X131271428Y-130899838D02*
X131366666Y-130995076D01*
X131366666Y-130995076D02*
X131414285Y-131090314D01*
X131414285Y-131090314D02*
X131461904Y-131280790D01*
X131461904Y-131280790D02*
X131461904Y-131423647D01*
X131461904Y-131423647D02*
X131414285Y-131614123D01*
X131414285Y-131614123D02*
X131366666Y-131709361D01*
X131366666Y-131709361D02*
X131271428Y-131804600D01*
X131271428Y-131804600D02*
X131128571Y-131852219D01*
X131128571Y-131852219D02*
X130890476Y-131852219D01*
X132080952Y-131376028D02*
X132080952Y-131852219D01*
X131747619Y-130852219D02*
X132080952Y-131376028D01*
X132080952Y-131376028D02*
X132414285Y-130852219D01*
D12*
X167429328Y-52436346D02*
X166715042Y-52936346D01*
X167429328Y-53293489D02*
X165929328Y-53293489D01*
X165929328Y-53293489D02*
X165929328Y-52722060D01*
X165929328Y-52722060D02*
X166000757Y-52579203D01*
X166000757Y-52579203D02*
X166072185Y-52507774D01*
X166072185Y-52507774D02*
X166215042Y-52436346D01*
X166215042Y-52436346D02*
X166429328Y-52436346D01*
X166429328Y-52436346D02*
X166572185Y-52507774D01*
X166572185Y-52507774D02*
X166643614Y-52579203D01*
X166643614Y-52579203D02*
X166715042Y-52722060D01*
X166715042Y-52722060D02*
X166715042Y-53293489D01*
X165929328Y-51936346D02*
X167429328Y-50936346D01*
X165929328Y-50936346D02*
X167429328Y-51936346D01*
X161103328Y-53182346D02*
X161103328Y-52253774D01*
X161103328Y-52253774D02*
X161674757Y-52753774D01*
X161674757Y-52753774D02*
X161674757Y-52539489D01*
X161674757Y-52539489D02*
X161746185Y-52396632D01*
X161746185Y-52396632D02*
X161817614Y-52325203D01*
X161817614Y-52325203D02*
X161960471Y-52253774D01*
X161960471Y-52253774D02*
X162317614Y-52253774D01*
X162317614Y-52253774D02*
X162460471Y-52325203D01*
X162460471Y-52325203D02*
X162531900Y-52396632D01*
X162531900Y-52396632D02*
X162603328Y-52539489D01*
X162603328Y-52539489D02*
X162603328Y-52968060D01*
X162603328Y-52968060D02*
X162531900Y-53110917D01*
X162531900Y-53110917D02*
X162460471Y-53182346D01*
X161103328Y-51825203D02*
X162603328Y-51325203D01*
X162603328Y-51325203D02*
X161103328Y-50825203D01*
X161103328Y-50468061D02*
X161103328Y-49539489D01*
X161103328Y-49539489D02*
X161674757Y-50039489D01*
X161674757Y-50039489D02*
X161674757Y-49825204D01*
X161674757Y-49825204D02*
X161746185Y-49682347D01*
X161746185Y-49682347D02*
X161817614Y-49610918D01*
X161817614Y-49610918D02*
X161960471Y-49539489D01*
X161960471Y-49539489D02*
X162317614Y-49539489D01*
X162317614Y-49539489D02*
X162460471Y-49610918D01*
X162460471Y-49610918D02*
X162531900Y-49682347D01*
X162531900Y-49682347D02*
X162603328Y-49825204D01*
X162603328Y-49825204D02*
X162603328Y-50253775D01*
X162603328Y-50253775D02*
X162531900Y-50396632D01*
X162531900Y-50396632D02*
X162460471Y-50468061D01*
D14*
X89033636Y-108885046D02*
X89471369Y-108447313D01*
X89471369Y-108447313D02*
X89505041Y-108952389D01*
X89505041Y-108952389D02*
X89606056Y-108851374D01*
X89606056Y-108851374D02*
X89707071Y-108817702D01*
X89707071Y-108817702D02*
X89774415Y-108817702D01*
X89774415Y-108817702D02*
X89875430Y-108851374D01*
X89875430Y-108851374D02*
X90043789Y-109019733D01*
X90043789Y-109019733D02*
X90077461Y-109120748D01*
X90077461Y-109120748D02*
X90077461Y-109188091D01*
X90077461Y-109188091D02*
X90043789Y-109289107D01*
X90043789Y-109289107D02*
X89841758Y-109491137D01*
X89841758Y-109491137D02*
X89740743Y-109524809D01*
X89740743Y-109524809D02*
X89673400Y-109524809D01*
X89673400Y-108245282D02*
X90616209Y-108716687D01*
X90616209Y-108716687D02*
X90144804Y-107773878D01*
X90313163Y-107605519D02*
X90750896Y-107167786D01*
X90750896Y-107167786D02*
X90784567Y-107672862D01*
X90784567Y-107672862D02*
X90885583Y-107571847D01*
X90885583Y-107571847D02*
X90986598Y-107538175D01*
X90986598Y-107538175D02*
X91053941Y-107538175D01*
X91053941Y-107538175D02*
X91154957Y-107571847D01*
X91154957Y-107571847D02*
X91323316Y-107740206D01*
X91323316Y-107740206D02*
X91356987Y-107841221D01*
X91356987Y-107841221D02*
X91356987Y-107908565D01*
X91356987Y-107908565D02*
X91323316Y-108009580D01*
X91323316Y-108009580D02*
X91121285Y-108211610D01*
X91121285Y-108211610D02*
X91020270Y-108245282D01*
X91020270Y-108245282D02*
X90952926Y-108245282D01*
X90125779Y-114754819D02*
X90125779Y-113754819D01*
X90125779Y-113754819D02*
X90697207Y-114754819D01*
X90697207Y-114754819D02*
X90697207Y-113754819D01*
X91744826Y-114659580D02*
X91697207Y-114707200D01*
X91697207Y-114707200D02*
X91554350Y-114754819D01*
X91554350Y-114754819D02*
X91459112Y-114754819D01*
X91459112Y-114754819D02*
X91316255Y-114707200D01*
X91316255Y-114707200D02*
X91221017Y-114611961D01*
X91221017Y-114611961D02*
X91173398Y-114516723D01*
X91173398Y-114516723D02*
X91125779Y-114326247D01*
X91125779Y-114326247D02*
X91125779Y-114183390D01*
X91125779Y-114183390D02*
X91173398Y-113992914D01*
X91173398Y-113992914D02*
X91221017Y-113897676D01*
X91221017Y-113897676D02*
X91316255Y-113802438D01*
X91316255Y-113802438D02*
X91459112Y-113754819D01*
X91459112Y-113754819D02*
X91554350Y-113754819D01*
X91554350Y-113754819D02*
X91697207Y-113802438D01*
X91697207Y-113802438D02*
X91744826Y-113850057D01*
X90094744Y-111716466D02*
X89387637Y-111009359D01*
X89387637Y-111009359D02*
X89555996Y-110841001D01*
X89555996Y-110841001D02*
X89690683Y-110773657D01*
X89690683Y-110773657D02*
X89825370Y-110773657D01*
X89825370Y-110773657D02*
X89926385Y-110807329D01*
X89926385Y-110807329D02*
X90094744Y-110908344D01*
X90094744Y-110908344D02*
X90195759Y-111009359D01*
X90195759Y-111009359D02*
X90296775Y-111177718D01*
X90296775Y-111177718D02*
X90330446Y-111278733D01*
X90330446Y-111278733D02*
X90330446Y-111413420D01*
X90330446Y-111413420D02*
X90263103Y-111548107D01*
X90263103Y-111548107D02*
X90094744Y-111716466D01*
X90801851Y-111009359D02*
X90094744Y-110302253D01*
X90431462Y-110638970D02*
X90835523Y-110234909D01*
X91205912Y-110605298D02*
X90498805Y-109898192D01*
X90734507Y-109662489D02*
X91138568Y-109258428D01*
X91643645Y-110167566D02*
X90936538Y-109460459D01*
X91980362Y-109965535D02*
X92519110Y-109426787D01*
X92620126Y-109191085D02*
X91913019Y-108483978D01*
X91913019Y-108483978D02*
X92081378Y-108315619D01*
X92081378Y-108315619D02*
X92216065Y-108248276D01*
X92216065Y-108248276D02*
X92350752Y-108248276D01*
X92350752Y-108248276D02*
X92451767Y-108281947D01*
X92451767Y-108281947D02*
X92620126Y-108382963D01*
X92620126Y-108382963D02*
X92721141Y-108483978D01*
X92721141Y-108483978D02*
X92822156Y-108652337D01*
X92822156Y-108652337D02*
X92855828Y-108753352D01*
X92855828Y-108753352D02*
X92855828Y-108888039D01*
X92855828Y-108888039D02*
X92788484Y-109022726D01*
X92788484Y-109022726D02*
X92620126Y-109191085D01*
X93091530Y-108315619D02*
X93428248Y-107978902D01*
X93226217Y-108584993D02*
X92754813Y-107642184D01*
X92754813Y-107642184D02*
X93697622Y-108113589D01*
X93125202Y-107271795D02*
X93529263Y-106867734D01*
X94034339Y-107776871D02*
X93327233Y-107069764D01*
X94236370Y-107170779D02*
X94573088Y-106834062D01*
X94371057Y-107440153D02*
X93899653Y-106497344D01*
X93899653Y-106497344D02*
X94842462Y-106968749D01*
D12*
X151554328Y-52785489D02*
X150054328Y-52785489D01*
X150054328Y-52785489D02*
X150054328Y-52428346D01*
X150054328Y-52428346D02*
X150125757Y-52214060D01*
X150125757Y-52214060D02*
X150268614Y-52071203D01*
X150268614Y-52071203D02*
X150411471Y-51999774D01*
X150411471Y-51999774D02*
X150697185Y-51928346D01*
X150697185Y-51928346D02*
X150911471Y-51928346D01*
X150911471Y-51928346D02*
X151197185Y-51999774D01*
X151197185Y-51999774D02*
X151340042Y-52071203D01*
X151340042Y-52071203D02*
X151482900Y-52214060D01*
X151482900Y-52214060D02*
X151554328Y-52428346D01*
X151554328Y-52428346D02*
X151554328Y-52785489D01*
X150054328Y-51428346D02*
X150054328Y-50499774D01*
X150054328Y-50499774D02*
X150625757Y-50999774D01*
X150625757Y-50999774D02*
X150625757Y-50785489D01*
X150625757Y-50785489D02*
X150697185Y-50642632D01*
X150697185Y-50642632D02*
X150768614Y-50571203D01*
X150768614Y-50571203D02*
X150911471Y-50499774D01*
X150911471Y-50499774D02*
X151268614Y-50499774D01*
X151268614Y-50499774D02*
X151411471Y-50571203D01*
X151411471Y-50571203D02*
X151482900Y-50642632D01*
X151482900Y-50642632D02*
X151554328Y-50785489D01*
X151554328Y-50785489D02*
X151554328Y-51214060D01*
X151554328Y-51214060D02*
X151482900Y-51356917D01*
X151482900Y-51356917D02*
X151411471Y-51428346D01*
X150054328Y-49142632D02*
X150054328Y-49856918D01*
X150054328Y-49856918D02*
X150768614Y-49928346D01*
X150768614Y-49928346D02*
X150697185Y-49856918D01*
X150697185Y-49856918D02*
X150625757Y-49714061D01*
X150625757Y-49714061D02*
X150625757Y-49356918D01*
X150625757Y-49356918D02*
X150697185Y-49214061D01*
X150697185Y-49214061D02*
X150768614Y-49142632D01*
X150768614Y-49142632D02*
X150911471Y-49071203D01*
X150911471Y-49071203D02*
X151268614Y-49071203D01*
X151268614Y-49071203D02*
X151411471Y-49142632D01*
X151411471Y-49142632D02*
X151482900Y-49214061D01*
X151482900Y-49214061D02*
X151554328Y-49356918D01*
X151554328Y-49356918D02*
X151554328Y-49714061D01*
X151554328Y-49714061D02*
X151482900Y-49856918D01*
X151482900Y-49856918D02*
X151411471Y-49928346D01*
X158380757Y-52253774D02*
X158309328Y-52396632D01*
X158309328Y-52396632D02*
X158309328Y-52610917D01*
X158309328Y-52610917D02*
X158380757Y-52825203D01*
X158380757Y-52825203D02*
X158523614Y-52968060D01*
X158523614Y-52968060D02*
X158666471Y-53039489D01*
X158666471Y-53039489D02*
X158952185Y-53110917D01*
X158952185Y-53110917D02*
X159166471Y-53110917D01*
X159166471Y-53110917D02*
X159452185Y-53039489D01*
X159452185Y-53039489D02*
X159595042Y-52968060D01*
X159595042Y-52968060D02*
X159737900Y-52825203D01*
X159737900Y-52825203D02*
X159809328Y-52610917D01*
X159809328Y-52610917D02*
X159809328Y-52468060D01*
X159809328Y-52468060D02*
X159737900Y-52253774D01*
X159737900Y-52253774D02*
X159666471Y-52182346D01*
X159666471Y-52182346D02*
X159166471Y-52182346D01*
X159166471Y-52182346D02*
X159166471Y-52468060D01*
X159809328Y-51539489D02*
X158309328Y-51539489D01*
X158309328Y-51539489D02*
X159809328Y-50682346D01*
X159809328Y-50682346D02*
X158309328Y-50682346D01*
X159809328Y-49968060D02*
X158309328Y-49968060D01*
X158309328Y-49968060D02*
X158309328Y-49610917D01*
X158309328Y-49610917D02*
X158380757Y-49396631D01*
X158380757Y-49396631D02*
X158523614Y-49253774D01*
X158523614Y-49253774D02*
X158666471Y-49182345D01*
X158666471Y-49182345D02*
X158952185Y-49110917D01*
X158952185Y-49110917D02*
X159166471Y-49110917D01*
X159166471Y-49110917D02*
X159452185Y-49182345D01*
X159452185Y-49182345D02*
X159595042Y-49253774D01*
X159595042Y-49253774D02*
X159737900Y-49396631D01*
X159737900Y-49396631D02*
X159809328Y-49610917D01*
X159809328Y-49610917D02*
X159809328Y-49968060D01*
X168469177Y-105488828D02*
X169212034Y-105488828D01*
X168840606Y-106988828D02*
X168840606Y-105488828D01*
X170140605Y-106917400D02*
X170016796Y-106988828D01*
X170016796Y-106988828D02*
X169769177Y-106988828D01*
X169769177Y-106988828D02*
X169645367Y-106917400D01*
X169645367Y-106917400D02*
X169583463Y-106774542D01*
X169583463Y-106774542D02*
X169583463Y-106203114D01*
X169583463Y-106203114D02*
X169645367Y-106060257D01*
X169645367Y-106060257D02*
X169769177Y-105988828D01*
X169769177Y-105988828D02*
X170016796Y-105988828D01*
X170016796Y-105988828D02*
X170140605Y-106060257D01*
X170140605Y-106060257D02*
X170202510Y-106203114D01*
X170202510Y-106203114D02*
X170202510Y-106345971D01*
X170202510Y-106345971D02*
X169583463Y-106488828D01*
X170759653Y-106988828D02*
X170759653Y-105988828D01*
X170759653Y-106131685D02*
X170821558Y-106060257D01*
X170821558Y-106060257D02*
X170945368Y-105988828D01*
X170945368Y-105988828D02*
X171131082Y-105988828D01*
X171131082Y-105988828D02*
X171254891Y-106060257D01*
X171254891Y-106060257D02*
X171316796Y-106203114D01*
X171316796Y-106203114D02*
X171316796Y-106988828D01*
X171316796Y-106203114D02*
X171378701Y-106060257D01*
X171378701Y-106060257D02*
X171502510Y-105988828D01*
X171502510Y-105988828D02*
X171688225Y-105988828D01*
X171688225Y-105988828D02*
X171812034Y-106060257D01*
X171812034Y-106060257D02*
X171873939Y-106203114D01*
X171873939Y-106203114D02*
X171873939Y-106988828D01*
X172492986Y-105988828D02*
X172492986Y-107488828D01*
X172492986Y-106060257D02*
X172616796Y-105988828D01*
X172616796Y-105988828D02*
X172864415Y-105988828D01*
X172864415Y-105988828D02*
X172988224Y-106060257D01*
X172988224Y-106060257D02*
X173050129Y-106131685D01*
X173050129Y-106131685D02*
X173112034Y-106274542D01*
X173112034Y-106274542D02*
X173112034Y-106703114D01*
X173112034Y-106703114D02*
X173050129Y-106845971D01*
X173050129Y-106845971D02*
X172988224Y-106917400D01*
X172988224Y-106917400D02*
X172864415Y-106988828D01*
X172864415Y-106988828D02*
X172616796Y-106988828D01*
X172616796Y-106988828D02*
X172492986Y-106917400D01*
X174597748Y-105988828D02*
X175526319Y-105988828D01*
X174969176Y-105345971D02*
X174597748Y-107274542D01*
X175402509Y-106631685D02*
X174473938Y-106631685D01*
X175031081Y-107274542D02*
X175402509Y-105345971D01*
X176640605Y-106988828D02*
X175897748Y-106988828D01*
X176269176Y-106988828D02*
X176269176Y-105488828D01*
X176269176Y-105488828D02*
X176145367Y-105703114D01*
X176145367Y-105703114D02*
X176021557Y-105845971D01*
X176021557Y-105845971D02*
X175897748Y-105917400D01*
X163389328Y-53253774D02*
X163389328Y-52396632D01*
X164889328Y-52825203D02*
X163389328Y-52825203D01*
X163389328Y-52039489D02*
X164889328Y-51039489D01*
X163389328Y-51039489D02*
X164889328Y-52039489D01*
X139862857Y-118440828D02*
X140720000Y-118440828D01*
X140291428Y-119940828D02*
X140291428Y-118440828D01*
X141434285Y-119940828D02*
X141291428Y-119869400D01*
X141291428Y-119869400D02*
X141219999Y-119797971D01*
X141219999Y-119797971D02*
X141148571Y-119655114D01*
X141148571Y-119655114D02*
X141148571Y-119226542D01*
X141148571Y-119226542D02*
X141219999Y-119083685D01*
X141219999Y-119083685D02*
X141291428Y-119012257D01*
X141291428Y-119012257D02*
X141434285Y-118940828D01*
X141434285Y-118940828D02*
X141648571Y-118940828D01*
X141648571Y-118940828D02*
X141791428Y-119012257D01*
X141791428Y-119012257D02*
X141862857Y-119083685D01*
X141862857Y-119083685D02*
X141934285Y-119226542D01*
X141934285Y-119226542D02*
X141934285Y-119655114D01*
X141934285Y-119655114D02*
X141862857Y-119797971D01*
X141862857Y-119797971D02*
X141791428Y-119869400D01*
X141791428Y-119869400D02*
X141648571Y-119940828D01*
X141648571Y-119940828D02*
X141434285Y-119940828D01*
X137684285Y-122355828D02*
X137684285Y-120855828D01*
X137684285Y-121570114D02*
X138541428Y-121570114D01*
X138541428Y-122355828D02*
X138541428Y-120855828D01*
X139827143Y-122284400D02*
X139684286Y-122355828D01*
X139684286Y-122355828D02*
X139398572Y-122355828D01*
X139398572Y-122355828D02*
X139255714Y-122284400D01*
X139255714Y-122284400D02*
X139184286Y-122141542D01*
X139184286Y-122141542D02*
X139184286Y-121570114D01*
X139184286Y-121570114D02*
X139255714Y-121427257D01*
X139255714Y-121427257D02*
X139398572Y-121355828D01*
X139398572Y-121355828D02*
X139684286Y-121355828D01*
X139684286Y-121355828D02*
X139827143Y-121427257D01*
X139827143Y-121427257D02*
X139898572Y-121570114D01*
X139898572Y-121570114D02*
X139898572Y-121712971D01*
X139898572Y-121712971D02*
X139184286Y-121855828D01*
X141184286Y-122355828D02*
X141184286Y-121570114D01*
X141184286Y-121570114D02*
X141112857Y-121427257D01*
X141112857Y-121427257D02*
X140970000Y-121355828D01*
X140970000Y-121355828D02*
X140684286Y-121355828D01*
X140684286Y-121355828D02*
X140541428Y-121427257D01*
X141184286Y-122284400D02*
X141041428Y-122355828D01*
X141041428Y-122355828D02*
X140684286Y-122355828D01*
X140684286Y-122355828D02*
X140541428Y-122284400D01*
X140541428Y-122284400D02*
X140470000Y-122141542D01*
X140470000Y-122141542D02*
X140470000Y-121998685D01*
X140470000Y-121998685D02*
X140541428Y-121855828D01*
X140541428Y-121855828D02*
X140684286Y-121784400D01*
X140684286Y-121784400D02*
X141041428Y-121784400D01*
X141041428Y-121784400D02*
X141184286Y-121712971D01*
X141684286Y-121355828D02*
X142255714Y-121355828D01*
X141898571Y-120855828D02*
X141898571Y-122141542D01*
X141898571Y-122141542D02*
X141970000Y-122284400D01*
X141970000Y-122284400D02*
X142112857Y-122355828D01*
X142112857Y-122355828D02*
X142255714Y-122355828D01*
X143327143Y-122284400D02*
X143184286Y-122355828D01*
X143184286Y-122355828D02*
X142898572Y-122355828D01*
X142898572Y-122355828D02*
X142755714Y-122284400D01*
X142755714Y-122284400D02*
X142684286Y-122141542D01*
X142684286Y-122141542D02*
X142684286Y-121570114D01*
X142684286Y-121570114D02*
X142755714Y-121427257D01*
X142755714Y-121427257D02*
X142898572Y-121355828D01*
X142898572Y-121355828D02*
X143184286Y-121355828D01*
X143184286Y-121355828D02*
X143327143Y-121427257D01*
X143327143Y-121427257D02*
X143398572Y-121570114D01*
X143398572Y-121570114D02*
X143398572Y-121712971D01*
X143398572Y-121712971D02*
X142684286Y-121855828D01*
X144041428Y-122355828D02*
X144041428Y-121355828D01*
X144041428Y-121641542D02*
X144112857Y-121498685D01*
X144112857Y-121498685D02*
X144184286Y-121427257D01*
X144184286Y-121427257D02*
X144327143Y-121355828D01*
X144327143Y-121355828D02*
X144470000Y-121355828D01*
D15*
X157150783Y-48320678D02*
X156436497Y-48320678D01*
X156436497Y-48320678D02*
X156436497Y-46820678D01*
X157865069Y-48320678D02*
X157722212Y-48249250D01*
X157722212Y-48249250D02*
X157650783Y-48177821D01*
X157650783Y-48177821D02*
X157579355Y-48034964D01*
X157579355Y-48034964D02*
X157579355Y-47606392D01*
X157579355Y-47606392D02*
X157650783Y-47463535D01*
X157650783Y-47463535D02*
X157722212Y-47392107D01*
X157722212Y-47392107D02*
X157865069Y-47320678D01*
X157865069Y-47320678D02*
X158079355Y-47320678D01*
X158079355Y-47320678D02*
X158222212Y-47392107D01*
X158222212Y-47392107D02*
X158293641Y-47463535D01*
X158293641Y-47463535D02*
X158365069Y-47606392D01*
X158365069Y-47606392D02*
X158365069Y-48034964D01*
X158365069Y-48034964D02*
X158293641Y-48177821D01*
X158293641Y-48177821D02*
X158222212Y-48249250D01*
X158222212Y-48249250D02*
X158079355Y-48320678D01*
X158079355Y-48320678D02*
X157865069Y-48320678D01*
X159865069Y-48320678D02*
X159365069Y-47606392D01*
X159007926Y-48320678D02*
X159007926Y-46820678D01*
X159007926Y-46820678D02*
X159579355Y-46820678D01*
X159579355Y-46820678D02*
X159722212Y-46892107D01*
X159722212Y-46892107D02*
X159793641Y-46963535D01*
X159793641Y-46963535D02*
X159865069Y-47106392D01*
X159865069Y-47106392D02*
X159865069Y-47320678D01*
X159865069Y-47320678D02*
X159793641Y-47463535D01*
X159793641Y-47463535D02*
X159722212Y-47534964D01*
X159722212Y-47534964D02*
X159579355Y-47606392D01*
X159579355Y-47606392D02*
X159007926Y-47606392D01*
X161150784Y-48320678D02*
X161150784Y-47534964D01*
X161150784Y-47534964D02*
X161079355Y-47392107D01*
X161079355Y-47392107D02*
X160936498Y-47320678D01*
X160936498Y-47320678D02*
X160650784Y-47320678D01*
X160650784Y-47320678D02*
X160507926Y-47392107D01*
X161150784Y-48249250D02*
X161007926Y-48320678D01*
X161007926Y-48320678D02*
X160650784Y-48320678D01*
X160650784Y-48320678D02*
X160507926Y-48249250D01*
X160507926Y-48249250D02*
X160436498Y-48106392D01*
X160436498Y-48106392D02*
X160436498Y-47963535D01*
X160436498Y-47963535D02*
X160507926Y-47820678D01*
X160507926Y-47820678D02*
X160650784Y-47749250D01*
X160650784Y-47749250D02*
X161007926Y-47749250D01*
X161007926Y-47749250D02*
X161150784Y-47677821D01*
X163007926Y-48320678D02*
X163007926Y-46820678D01*
X163007926Y-46820678D02*
X163507926Y-47892107D01*
X163507926Y-47892107D02*
X164007926Y-46820678D01*
X164007926Y-46820678D02*
X164007926Y-48320678D01*
X164936498Y-48320678D02*
X164793641Y-48249250D01*
X164793641Y-48249250D02*
X164722212Y-48177821D01*
X164722212Y-48177821D02*
X164650784Y-48034964D01*
X164650784Y-48034964D02*
X164650784Y-47606392D01*
X164650784Y-47606392D02*
X164722212Y-47463535D01*
X164722212Y-47463535D02*
X164793641Y-47392107D01*
X164793641Y-47392107D02*
X164936498Y-47320678D01*
X164936498Y-47320678D02*
X165150784Y-47320678D01*
X165150784Y-47320678D02*
X165293641Y-47392107D01*
X165293641Y-47392107D02*
X165365070Y-47463535D01*
X165365070Y-47463535D02*
X165436498Y-47606392D01*
X165436498Y-47606392D02*
X165436498Y-48034964D01*
X165436498Y-48034964D02*
X165365070Y-48177821D01*
X165365070Y-48177821D02*
X165293641Y-48249250D01*
X165293641Y-48249250D02*
X165150784Y-48320678D01*
X165150784Y-48320678D02*
X164936498Y-48320678D01*
X166722213Y-48320678D02*
X166722213Y-46820678D01*
X166722213Y-48249250D02*
X166579355Y-48320678D01*
X166579355Y-48320678D02*
X166293641Y-48320678D01*
X166293641Y-48320678D02*
X166150784Y-48249250D01*
X166150784Y-48249250D02*
X166079355Y-48177821D01*
X166079355Y-48177821D02*
X166007927Y-48034964D01*
X166007927Y-48034964D02*
X166007927Y-47606392D01*
X166007927Y-47606392D02*
X166079355Y-47463535D01*
X166079355Y-47463535D02*
X166150784Y-47392107D01*
X166150784Y-47392107D02*
X166293641Y-47320678D01*
X166293641Y-47320678D02*
X166579355Y-47320678D01*
X166579355Y-47320678D02*
X166722213Y-47392107D01*
X168079356Y-47320678D02*
X168079356Y-48320678D01*
X167436498Y-47320678D02*
X167436498Y-48106392D01*
X167436498Y-48106392D02*
X167507927Y-48249250D01*
X167507927Y-48249250D02*
X167650784Y-48320678D01*
X167650784Y-48320678D02*
X167865070Y-48320678D01*
X167865070Y-48320678D02*
X168007927Y-48249250D01*
X168007927Y-48249250D02*
X168079356Y-48177821D01*
X169007927Y-48320678D02*
X168865070Y-48249250D01*
X168865070Y-48249250D02*
X168793641Y-48106392D01*
X168793641Y-48106392D02*
X168793641Y-46820678D01*
X170150784Y-48249250D02*
X170007927Y-48320678D01*
X170007927Y-48320678D02*
X169722213Y-48320678D01*
X169722213Y-48320678D02*
X169579355Y-48249250D01*
X169579355Y-48249250D02*
X169507927Y-48106392D01*
X169507927Y-48106392D02*
X169507927Y-47534964D01*
X169507927Y-47534964D02*
X169579355Y-47392107D01*
X169579355Y-47392107D02*
X169722213Y-47320678D01*
X169722213Y-47320678D02*
X170007927Y-47320678D01*
X170007927Y-47320678D02*
X170150784Y-47392107D01*
X170150784Y-47392107D02*
X170222213Y-47534964D01*
X170222213Y-47534964D02*
X170222213Y-47677821D01*
X170222213Y-47677821D02*
X169507927Y-47820678D01*
D12*
X113770828Y-107152142D02*
X112270828Y-107152142D01*
X112270828Y-107152142D02*
X112270828Y-106794999D01*
X112270828Y-106794999D02*
X112342257Y-106580713D01*
X112342257Y-106580713D02*
X112485114Y-106437856D01*
X112485114Y-106437856D02*
X112627971Y-106366427D01*
X112627971Y-106366427D02*
X112913685Y-106294999D01*
X112913685Y-106294999D02*
X113127971Y-106294999D01*
X113127971Y-106294999D02*
X113413685Y-106366427D01*
X113413685Y-106366427D02*
X113556542Y-106437856D01*
X113556542Y-106437856D02*
X113699400Y-106580713D01*
X113699400Y-106580713D02*
X113770828Y-106794999D01*
X113770828Y-106794999D02*
X113770828Y-107152142D01*
X112270828Y-104937856D02*
X112270828Y-105652142D01*
X112270828Y-105652142D02*
X112985114Y-105723570D01*
X112985114Y-105723570D02*
X112913685Y-105652142D01*
X112913685Y-105652142D02*
X112842257Y-105509285D01*
X112842257Y-105509285D02*
X112842257Y-105152142D01*
X112842257Y-105152142D02*
X112913685Y-105009285D01*
X112913685Y-105009285D02*
X112985114Y-104937856D01*
X112985114Y-104937856D02*
X113127971Y-104866427D01*
X113127971Y-104866427D02*
X113485114Y-104866427D01*
X113485114Y-104866427D02*
X113627971Y-104937856D01*
X113627971Y-104937856D02*
X113699400Y-105009285D01*
X113699400Y-105009285D02*
X113770828Y-105152142D01*
X113770828Y-105152142D02*
X113770828Y-105509285D01*
X113770828Y-105509285D02*
X113699400Y-105652142D01*
X113699400Y-105652142D02*
X113627971Y-105723570D01*
X114757257Y-107544999D02*
X114685828Y-107687857D01*
X114685828Y-107687857D02*
X114685828Y-107902142D01*
X114685828Y-107902142D02*
X114757257Y-108116428D01*
X114757257Y-108116428D02*
X114900114Y-108259285D01*
X114900114Y-108259285D02*
X115042971Y-108330714D01*
X115042971Y-108330714D02*
X115328685Y-108402142D01*
X115328685Y-108402142D02*
X115542971Y-108402142D01*
X115542971Y-108402142D02*
X115828685Y-108330714D01*
X115828685Y-108330714D02*
X115971542Y-108259285D01*
X115971542Y-108259285D02*
X116114400Y-108116428D01*
X116114400Y-108116428D02*
X116185828Y-107902142D01*
X116185828Y-107902142D02*
X116185828Y-107759285D01*
X116185828Y-107759285D02*
X116114400Y-107544999D01*
X116114400Y-107544999D02*
X116042971Y-107473571D01*
X116042971Y-107473571D02*
X115542971Y-107473571D01*
X115542971Y-107473571D02*
X115542971Y-107759285D01*
X116185828Y-106830714D02*
X114685828Y-106830714D01*
X114685828Y-106830714D02*
X114685828Y-106259285D01*
X114685828Y-106259285D02*
X114757257Y-106116428D01*
X114757257Y-106116428D02*
X114828685Y-106044999D01*
X114828685Y-106044999D02*
X114971542Y-105973571D01*
X114971542Y-105973571D02*
X115185828Y-105973571D01*
X115185828Y-105973571D02*
X115328685Y-106044999D01*
X115328685Y-106044999D02*
X115400114Y-106116428D01*
X115400114Y-106116428D02*
X115471542Y-106259285D01*
X115471542Y-106259285D02*
X115471542Y-106830714D01*
X116185828Y-105330714D02*
X114685828Y-105330714D01*
X114685828Y-104330713D02*
X114685828Y-104044999D01*
X114685828Y-104044999D02*
X114757257Y-103902142D01*
X114757257Y-103902142D02*
X114900114Y-103759285D01*
X114900114Y-103759285D02*
X115185828Y-103687856D01*
X115185828Y-103687856D02*
X115685828Y-103687856D01*
X115685828Y-103687856D02*
X115971542Y-103759285D01*
X115971542Y-103759285D02*
X116114400Y-103902142D01*
X116114400Y-103902142D02*
X116185828Y-104044999D01*
X116185828Y-104044999D02*
X116185828Y-104330713D01*
X116185828Y-104330713D02*
X116114400Y-104473571D01*
X116114400Y-104473571D02*
X115971542Y-104616428D01*
X115971542Y-104616428D02*
X115685828Y-104687856D01*
X115685828Y-104687856D02*
X115185828Y-104687856D01*
X115185828Y-104687856D02*
X114900114Y-104616428D01*
X114900114Y-104616428D02*
X114757257Y-104473571D01*
X114757257Y-104473571D02*
X114685828Y-104330713D01*
D13*
X126769600Y-127879945D02*
X126817219Y-127737088D01*
X126817219Y-127737088D02*
X126817219Y-127498993D01*
X126817219Y-127498993D02*
X126769600Y-127403755D01*
X126769600Y-127403755D02*
X126721980Y-127356136D01*
X126721980Y-127356136D02*
X126626742Y-127308517D01*
X126626742Y-127308517D02*
X126531504Y-127308517D01*
X126531504Y-127308517D02*
X126436266Y-127356136D01*
X126436266Y-127356136D02*
X126388647Y-127403755D01*
X126388647Y-127403755D02*
X126341028Y-127498993D01*
X126341028Y-127498993D02*
X126293409Y-127689469D01*
X126293409Y-127689469D02*
X126245790Y-127784707D01*
X126245790Y-127784707D02*
X126198171Y-127832326D01*
X126198171Y-127832326D02*
X126102933Y-127879945D01*
X126102933Y-127879945D02*
X126007695Y-127879945D01*
X126007695Y-127879945D02*
X125912457Y-127832326D01*
X125912457Y-127832326D02*
X125864838Y-127784707D01*
X125864838Y-127784707D02*
X125817219Y-127689469D01*
X125817219Y-127689469D02*
X125817219Y-127451374D01*
X125817219Y-127451374D02*
X125864838Y-127308517D01*
X126817219Y-126879945D02*
X125817219Y-126879945D01*
X125817219Y-126546612D02*
X125817219Y-125975184D01*
X126817219Y-126260898D02*
X125817219Y-126260898D01*
X127150552Y-124641850D02*
X125721980Y-124641850D01*
X126293409Y-122832326D02*
X126293409Y-123165659D01*
X126817219Y-123165659D02*
X125817219Y-123165659D01*
X125817219Y-123165659D02*
X125817219Y-122689469D01*
X126817219Y-121832326D02*
X126817219Y-122308516D01*
X126817219Y-122308516D02*
X125817219Y-122308516D01*
X126341028Y-121308516D02*
X126817219Y-121308516D01*
X125817219Y-121641849D02*
X126341028Y-121308516D01*
X126341028Y-121308516D02*
X125817219Y-120975183D01*
D12*
X93415225Y-120292257D02*
X93272368Y-120220828D01*
X93272368Y-120220828D02*
X93058082Y-120220828D01*
X93058082Y-120220828D02*
X92843796Y-120292257D01*
X92843796Y-120292257D02*
X92700939Y-120435114D01*
X92700939Y-120435114D02*
X92629510Y-120577971D01*
X92629510Y-120577971D02*
X92558082Y-120863685D01*
X92558082Y-120863685D02*
X92558082Y-121077971D01*
X92558082Y-121077971D02*
X92629510Y-121363685D01*
X92629510Y-121363685D02*
X92700939Y-121506542D01*
X92700939Y-121506542D02*
X92843796Y-121649400D01*
X92843796Y-121649400D02*
X93058082Y-121720828D01*
X93058082Y-121720828D02*
X93200939Y-121720828D01*
X93200939Y-121720828D02*
X93415225Y-121649400D01*
X93415225Y-121649400D02*
X93486653Y-121577971D01*
X93486653Y-121577971D02*
X93486653Y-121077971D01*
X93486653Y-121077971D02*
X93200939Y-121077971D01*
X94129510Y-121720828D02*
X94129510Y-120220828D01*
X94129510Y-120220828D02*
X94986653Y-121720828D01*
X94986653Y-121720828D02*
X94986653Y-120220828D01*
X95700939Y-121720828D02*
X95700939Y-120220828D01*
X95700939Y-120220828D02*
X96058082Y-120220828D01*
X96058082Y-120220828D02*
X96272368Y-120292257D01*
X96272368Y-120292257D02*
X96415225Y-120435114D01*
X96415225Y-120435114D02*
X96486654Y-120577971D01*
X96486654Y-120577971D02*
X96558082Y-120863685D01*
X96558082Y-120863685D02*
X96558082Y-121077971D01*
X96558082Y-121077971D02*
X96486654Y-121363685D01*
X96486654Y-121363685D02*
X96415225Y-121506542D01*
X96415225Y-121506542D02*
X96272368Y-121649400D01*
X96272368Y-121649400D02*
X96058082Y-121720828D01*
X96058082Y-121720828D02*
X95700939Y-121720828D01*
X97558082Y-122220828D02*
X97558082Y-120077971D01*
X98415225Y-120220828D02*
X98915225Y-121720828D01*
X98915225Y-121720828D02*
X99415225Y-120220828D01*
X99558082Y-121863685D02*
X100700939Y-121863685D01*
X101558081Y-120935114D02*
X101772367Y-121006542D01*
X101772367Y-121006542D02*
X101843796Y-121077971D01*
X101843796Y-121077971D02*
X101915224Y-121220828D01*
X101915224Y-121220828D02*
X101915224Y-121435114D01*
X101915224Y-121435114D02*
X101843796Y-121577971D01*
X101843796Y-121577971D02*
X101772367Y-121649400D01*
X101772367Y-121649400D02*
X101629510Y-121720828D01*
X101629510Y-121720828D02*
X101058081Y-121720828D01*
X101058081Y-121720828D02*
X101058081Y-120220828D01*
X101058081Y-120220828D02*
X101558081Y-120220828D01*
X101558081Y-120220828D02*
X101700939Y-120292257D01*
X101700939Y-120292257D02*
X101772367Y-120363685D01*
X101772367Y-120363685D02*
X101843796Y-120506542D01*
X101843796Y-120506542D02*
X101843796Y-120649400D01*
X101843796Y-120649400D02*
X101772367Y-120792257D01*
X101772367Y-120792257D02*
X101700939Y-120863685D01*
X101700939Y-120863685D02*
X101558081Y-120935114D01*
X101558081Y-120935114D02*
X101058081Y-120935114D01*
X102486653Y-121292257D02*
X103200939Y-121292257D01*
X102343796Y-121720828D02*
X102843796Y-120220828D01*
X102843796Y-120220828D02*
X103343796Y-121720828D01*
X103629510Y-120220828D02*
X104486653Y-120220828D01*
X104058081Y-121720828D02*
X104058081Y-120220828D01*
X104772367Y-120220828D02*
X105629510Y-120220828D01*
X105200938Y-121720828D02*
X105200938Y-120220828D01*
X103294328Y-109668000D02*
X101794328Y-109668000D01*
X102508614Y-109668000D02*
X102508614Y-108810857D01*
X103294328Y-108810857D02*
X101794328Y-108810857D01*
X102508614Y-108096571D02*
X102508614Y-107596571D01*
X103294328Y-107382285D02*
X103294328Y-108096571D01*
X103294328Y-108096571D02*
X101794328Y-108096571D01*
X101794328Y-108096571D02*
X101794328Y-107382285D01*
X102865757Y-106810856D02*
X102865757Y-106096571D01*
X103294328Y-106953713D02*
X101794328Y-106453713D01*
X101794328Y-106453713D02*
X103294328Y-105953713D01*
X101794328Y-105667999D02*
X101794328Y-104810857D01*
X103294328Y-105239428D02*
X101794328Y-105239428D01*
X102508614Y-104310857D02*
X102508614Y-103810857D01*
X103294328Y-103596571D02*
X103294328Y-104310857D01*
X103294328Y-104310857D02*
X101794328Y-104310857D01*
X101794328Y-104310857D02*
X101794328Y-103596571D01*
X103294328Y-102096571D02*
X102580042Y-102596571D01*
X103294328Y-102953714D02*
X101794328Y-102953714D01*
X101794328Y-102953714D02*
X101794328Y-102382285D01*
X101794328Y-102382285D02*
X101865757Y-102239428D01*
X101865757Y-102239428D02*
X101937185Y-102167999D01*
X101937185Y-102167999D02*
X102080042Y-102096571D01*
X102080042Y-102096571D02*
X102294328Y-102096571D01*
X102294328Y-102096571D02*
X102437185Y-102167999D01*
X102437185Y-102167999D02*
X102508614Y-102239428D01*
X102508614Y-102239428D02*
X102580042Y-102382285D01*
X102580042Y-102382285D02*
X102580042Y-102953714D01*
D16*
X162718095Y-80507419D02*
X162718095Y-81316942D01*
X162718095Y-81316942D02*
X162765714Y-81412180D01*
X162765714Y-81412180D02*
X162813333Y-81459800D01*
X162813333Y-81459800D02*
X162908571Y-81507419D01*
X162908571Y-81507419D02*
X163099047Y-81507419D01*
X163099047Y-81507419D02*
X163194285Y-81459800D01*
X163194285Y-81459800D02*
X163241904Y-81412180D01*
X163241904Y-81412180D02*
X163289523Y-81316942D01*
X163289523Y-81316942D02*
X163289523Y-80507419D01*
X163718095Y-80602657D02*
X163765714Y-80555038D01*
X163765714Y-80555038D02*
X163860952Y-80507419D01*
X163860952Y-80507419D02*
X164099047Y-80507419D01*
X164099047Y-80507419D02*
X164194285Y-80555038D01*
X164194285Y-80555038D02*
X164241904Y-80602657D01*
X164241904Y-80602657D02*
X164289523Y-80697895D01*
X164289523Y-80697895D02*
X164289523Y-80793133D01*
X164289523Y-80793133D02*
X164241904Y-80935990D01*
X164241904Y-80935990D02*
X163670476Y-81507419D01*
X163670476Y-81507419D02*
X164289523Y-81507419D01*
X155271353Y-76562180D02*
X155223734Y-76609800D01*
X155223734Y-76609800D02*
X155080877Y-76657419D01*
X155080877Y-76657419D02*
X154985639Y-76657419D01*
X154985639Y-76657419D02*
X154842782Y-76609800D01*
X154842782Y-76609800D02*
X154747544Y-76514561D01*
X154747544Y-76514561D02*
X154699925Y-76419323D01*
X154699925Y-76419323D02*
X154652306Y-76228847D01*
X154652306Y-76228847D02*
X154652306Y-76085990D01*
X154652306Y-76085990D02*
X154699925Y-75895514D01*
X154699925Y-75895514D02*
X154747544Y-75800276D01*
X154747544Y-75800276D02*
X154842782Y-75705038D01*
X154842782Y-75705038D02*
X154985639Y-75657419D01*
X154985639Y-75657419D02*
X155080877Y-75657419D01*
X155080877Y-75657419D02*
X155223734Y-75705038D01*
X155223734Y-75705038D02*
X155271353Y-75752657D01*
X155652306Y-76609800D02*
X155795163Y-76657419D01*
X155795163Y-76657419D02*
X156033258Y-76657419D01*
X156033258Y-76657419D02*
X156128496Y-76609800D01*
X156128496Y-76609800D02*
X156176115Y-76562180D01*
X156176115Y-76562180D02*
X156223734Y-76466942D01*
X156223734Y-76466942D02*
X156223734Y-76371704D01*
X156223734Y-76371704D02*
X156176115Y-76276466D01*
X156176115Y-76276466D02*
X156128496Y-76228847D01*
X156128496Y-76228847D02*
X156033258Y-76181228D01*
X156033258Y-76181228D02*
X155842782Y-76133609D01*
X155842782Y-76133609D02*
X155747544Y-76085990D01*
X155747544Y-76085990D02*
X155699925Y-76038371D01*
X155699925Y-76038371D02*
X155652306Y-75943133D01*
X155652306Y-75943133D02*
X155652306Y-75847895D01*
X155652306Y-75847895D02*
X155699925Y-75752657D01*
X155699925Y-75752657D02*
X155747544Y-75705038D01*
X155747544Y-75705038D02*
X155842782Y-75657419D01*
X155842782Y-75657419D02*
X156080877Y-75657419D01*
X156080877Y-75657419D02*
X156223734Y-75705038D01*
X156985639Y-76133609D02*
X157128496Y-76181228D01*
X157128496Y-76181228D02*
X157176115Y-76228847D01*
X157176115Y-76228847D02*
X157223734Y-76324085D01*
X157223734Y-76324085D02*
X157223734Y-76466942D01*
X157223734Y-76466942D02*
X157176115Y-76562180D01*
X157176115Y-76562180D02*
X157128496Y-76609800D01*
X157128496Y-76609800D02*
X157033258Y-76657419D01*
X157033258Y-76657419D02*
X156652306Y-76657419D01*
X156652306Y-76657419D02*
X156652306Y-75657419D01*
X156652306Y-75657419D02*
X156985639Y-75657419D01*
X156985639Y-75657419D02*
X157080877Y-75705038D01*
X157080877Y-75705038D02*
X157128496Y-75752657D01*
X157128496Y-75752657D02*
X157176115Y-75847895D01*
X157176115Y-75847895D02*
X157176115Y-75943133D01*
X157176115Y-75943133D02*
X157128496Y-76038371D01*
X157128496Y-76038371D02*
X157080877Y-76085990D01*
X157080877Y-76085990D02*
X156985639Y-76133609D01*
X156985639Y-76133609D02*
X156652306Y-76133609D01*
X154842782Y-71529800D02*
X154985639Y-71577419D01*
X154985639Y-71577419D02*
X155223734Y-71577419D01*
X155223734Y-71577419D02*
X155318972Y-71529800D01*
X155318972Y-71529800D02*
X155366591Y-71482180D01*
X155366591Y-71482180D02*
X155414210Y-71386942D01*
X155414210Y-71386942D02*
X155414210Y-71291704D01*
X155414210Y-71291704D02*
X155366591Y-71196466D01*
X155366591Y-71196466D02*
X155318972Y-71148847D01*
X155318972Y-71148847D02*
X155223734Y-71101228D01*
X155223734Y-71101228D02*
X155033258Y-71053609D01*
X155033258Y-71053609D02*
X154938020Y-71005990D01*
X154938020Y-71005990D02*
X154890401Y-70958371D01*
X154890401Y-70958371D02*
X154842782Y-70863133D01*
X154842782Y-70863133D02*
X154842782Y-70767895D01*
X154842782Y-70767895D02*
X154890401Y-70672657D01*
X154890401Y-70672657D02*
X154938020Y-70625038D01*
X154938020Y-70625038D02*
X155033258Y-70577419D01*
X155033258Y-70577419D02*
X155271353Y-70577419D01*
X155271353Y-70577419D02*
X155414210Y-70625038D01*
X156414210Y-71482180D02*
X156366591Y-71529800D01*
X156366591Y-71529800D02*
X156223734Y-71577419D01*
X156223734Y-71577419D02*
X156128496Y-71577419D01*
X156128496Y-71577419D02*
X155985639Y-71529800D01*
X155985639Y-71529800D02*
X155890401Y-71434561D01*
X155890401Y-71434561D02*
X155842782Y-71339323D01*
X155842782Y-71339323D02*
X155795163Y-71148847D01*
X155795163Y-71148847D02*
X155795163Y-71005990D01*
X155795163Y-71005990D02*
X155842782Y-70815514D01*
X155842782Y-70815514D02*
X155890401Y-70720276D01*
X155890401Y-70720276D02*
X155985639Y-70625038D01*
X155985639Y-70625038D02*
X156128496Y-70577419D01*
X156128496Y-70577419D02*
X156223734Y-70577419D01*
X156223734Y-70577419D02*
X156366591Y-70625038D01*
X156366591Y-70625038D02*
X156414210Y-70672657D01*
X157318972Y-71577419D02*
X156842782Y-71577419D01*
X156842782Y-71577419D02*
X156842782Y-70577419D01*
X154795163Y-74069800D02*
X154938020Y-74117419D01*
X154938020Y-74117419D02*
X155176115Y-74117419D01*
X155176115Y-74117419D02*
X155271353Y-74069800D01*
X155271353Y-74069800D02*
X155318972Y-74022180D01*
X155318972Y-74022180D02*
X155366591Y-73926942D01*
X155366591Y-73926942D02*
X155366591Y-73831704D01*
X155366591Y-73831704D02*
X155318972Y-73736466D01*
X155318972Y-73736466D02*
X155271353Y-73688847D01*
X155271353Y-73688847D02*
X155176115Y-73641228D01*
X155176115Y-73641228D02*
X154985639Y-73593609D01*
X154985639Y-73593609D02*
X154890401Y-73545990D01*
X154890401Y-73545990D02*
X154842782Y-73498371D01*
X154842782Y-73498371D02*
X154795163Y-73403133D01*
X154795163Y-73403133D02*
X154795163Y-73307895D01*
X154795163Y-73307895D02*
X154842782Y-73212657D01*
X154842782Y-73212657D02*
X154890401Y-73165038D01*
X154890401Y-73165038D02*
X154985639Y-73117419D01*
X154985639Y-73117419D02*
X155223734Y-73117419D01*
X155223734Y-73117419D02*
X155366591Y-73165038D01*
X155795163Y-74117419D02*
X155795163Y-73117419D01*
X155795163Y-73117419D02*
X156033258Y-73117419D01*
X156033258Y-73117419D02*
X156176115Y-73165038D01*
X156176115Y-73165038D02*
X156271353Y-73260276D01*
X156271353Y-73260276D02*
X156318972Y-73355514D01*
X156318972Y-73355514D02*
X156366591Y-73545990D01*
X156366591Y-73545990D02*
X156366591Y-73688847D01*
X156366591Y-73688847D02*
X156318972Y-73879323D01*
X156318972Y-73879323D02*
X156271353Y-73974561D01*
X156271353Y-73974561D02*
X156176115Y-74069800D01*
X156176115Y-74069800D02*
X156033258Y-74117419D01*
X156033258Y-74117419D02*
X155795163Y-74117419D01*
X156747544Y-73831704D02*
X157223734Y-73831704D01*
X156652306Y-74117419D02*
X156985639Y-73117419D01*
X156985639Y-73117419D02*
X157318972Y-74117419D01*
X154699925Y-79149800D02*
X154842782Y-79197419D01*
X154842782Y-79197419D02*
X155080877Y-79197419D01*
X155080877Y-79197419D02*
X155176115Y-79149800D01*
X155176115Y-79149800D02*
X155223734Y-79102180D01*
X155223734Y-79102180D02*
X155271353Y-79006942D01*
X155271353Y-79006942D02*
X155271353Y-78911704D01*
X155271353Y-78911704D02*
X155223734Y-78816466D01*
X155223734Y-78816466D02*
X155176115Y-78768847D01*
X155176115Y-78768847D02*
X155080877Y-78721228D01*
X155080877Y-78721228D02*
X154890401Y-78673609D01*
X154890401Y-78673609D02*
X154795163Y-78625990D01*
X154795163Y-78625990D02*
X154747544Y-78578371D01*
X154747544Y-78578371D02*
X154699925Y-78483133D01*
X154699925Y-78483133D02*
X154699925Y-78387895D01*
X154699925Y-78387895D02*
X154747544Y-78292657D01*
X154747544Y-78292657D02*
X154795163Y-78245038D01*
X154795163Y-78245038D02*
X154890401Y-78197419D01*
X154890401Y-78197419D02*
X155128496Y-78197419D01*
X155128496Y-78197419D02*
X155271353Y-78245038D01*
X155699925Y-79197419D02*
X155699925Y-78197419D01*
X155699925Y-78197419D02*
X155938020Y-78197419D01*
X155938020Y-78197419D02*
X156080877Y-78245038D01*
X156080877Y-78245038D02*
X156176115Y-78340276D01*
X156176115Y-78340276D02*
X156223734Y-78435514D01*
X156223734Y-78435514D02*
X156271353Y-78625990D01*
X156271353Y-78625990D02*
X156271353Y-78768847D01*
X156271353Y-78768847D02*
X156223734Y-78959323D01*
X156223734Y-78959323D02*
X156176115Y-79054561D01*
X156176115Y-79054561D02*
X156080877Y-79149800D01*
X156080877Y-79149800D02*
X155938020Y-79197419D01*
X155938020Y-79197419D02*
X155699925Y-79197419D01*
X156890401Y-78197419D02*
X156985639Y-78197419D01*
X156985639Y-78197419D02*
X157080877Y-78245038D01*
X157080877Y-78245038D02*
X157128496Y-78292657D01*
X157128496Y-78292657D02*
X157176115Y-78387895D01*
X157176115Y-78387895D02*
X157223734Y-78578371D01*
X157223734Y-78578371D02*
X157223734Y-78816466D01*
X157223734Y-78816466D02*
X157176115Y-79006942D01*
X157176115Y-79006942D02*
X157128496Y-79102180D01*
X157128496Y-79102180D02*
X157080877Y-79149800D01*
X157080877Y-79149800D02*
X156985639Y-79197419D01*
X156985639Y-79197419D02*
X156890401Y-79197419D01*
X156890401Y-79197419D02*
X156795163Y-79149800D01*
X156795163Y-79149800D02*
X156747544Y-79102180D01*
X156747544Y-79102180D02*
X156699925Y-79006942D01*
X156699925Y-79006942D02*
X156652306Y-78816466D01*
X156652306Y-78816466D02*
X156652306Y-78578371D01*
X156652306Y-78578371D02*
X156699925Y-78387895D01*
X156699925Y-78387895D02*
X156747544Y-78292657D01*
X156747544Y-78292657D02*
X156795163Y-78245038D01*
X156795163Y-78245038D02*
X156890401Y-78197419D01*
X154652306Y-65497419D02*
X154985639Y-66497419D01*
X154985639Y-66497419D02*
X155318972Y-65497419D01*
X156223734Y-66402180D02*
X156176115Y-66449800D01*
X156176115Y-66449800D02*
X156033258Y-66497419D01*
X156033258Y-66497419D02*
X155938020Y-66497419D01*
X155938020Y-66497419D02*
X155795163Y-66449800D01*
X155795163Y-66449800D02*
X155699925Y-66354561D01*
X155699925Y-66354561D02*
X155652306Y-66259323D01*
X155652306Y-66259323D02*
X155604687Y-66068847D01*
X155604687Y-66068847D02*
X155604687Y-65925990D01*
X155604687Y-65925990D02*
X155652306Y-65735514D01*
X155652306Y-65735514D02*
X155699925Y-65640276D01*
X155699925Y-65640276D02*
X155795163Y-65545038D01*
X155795163Y-65545038D02*
X155938020Y-65497419D01*
X155938020Y-65497419D02*
X156033258Y-65497419D01*
X156033258Y-65497419D02*
X156176115Y-65545038D01*
X156176115Y-65545038D02*
X156223734Y-65592657D01*
X157223734Y-66402180D02*
X157176115Y-66449800D01*
X157176115Y-66449800D02*
X157033258Y-66497419D01*
X157033258Y-66497419D02*
X156938020Y-66497419D01*
X156938020Y-66497419D02*
X156795163Y-66449800D01*
X156795163Y-66449800D02*
X156699925Y-66354561D01*
X156699925Y-66354561D02*
X156652306Y-66259323D01*
X156652306Y-66259323D02*
X156604687Y-66068847D01*
X156604687Y-66068847D02*
X156604687Y-65925990D01*
X156604687Y-65925990D02*
X156652306Y-65735514D01*
X156652306Y-65735514D02*
X156699925Y-65640276D01*
X156699925Y-65640276D02*
X156795163Y-65545038D01*
X156795163Y-65545038D02*
X156938020Y-65497419D01*
X156938020Y-65497419D02*
X157033258Y-65497419D01*
X157033258Y-65497419D02*
X157176115Y-65545038D01*
X157176115Y-65545038D02*
X157223734Y-65592657D01*
X155128496Y-68085038D02*
X155033258Y-68037419D01*
X155033258Y-68037419D02*
X154890401Y-68037419D01*
X154890401Y-68037419D02*
X154747544Y-68085038D01*
X154747544Y-68085038D02*
X154652306Y-68180276D01*
X154652306Y-68180276D02*
X154604687Y-68275514D01*
X154604687Y-68275514D02*
X154557068Y-68465990D01*
X154557068Y-68465990D02*
X154557068Y-68608847D01*
X154557068Y-68608847D02*
X154604687Y-68799323D01*
X154604687Y-68799323D02*
X154652306Y-68894561D01*
X154652306Y-68894561D02*
X154747544Y-68989800D01*
X154747544Y-68989800D02*
X154890401Y-69037419D01*
X154890401Y-69037419D02*
X154985639Y-69037419D01*
X154985639Y-69037419D02*
X155128496Y-68989800D01*
X155128496Y-68989800D02*
X155176115Y-68942180D01*
X155176115Y-68942180D02*
X155176115Y-68608847D01*
X155176115Y-68608847D02*
X154985639Y-68608847D01*
X155604687Y-69037419D02*
X155604687Y-68037419D01*
X155604687Y-68037419D02*
X156176115Y-69037419D01*
X156176115Y-69037419D02*
X156176115Y-68037419D01*
X156652306Y-69037419D02*
X156652306Y-68037419D01*
X156652306Y-68037419D02*
X156890401Y-68037419D01*
X156890401Y-68037419D02*
X157033258Y-68085038D01*
X157033258Y-68085038D02*
X157128496Y-68180276D01*
X157128496Y-68180276D02*
X157176115Y-68275514D01*
X157176115Y-68275514D02*
X157223734Y-68465990D01*
X157223734Y-68465990D02*
X157223734Y-68608847D01*
X157223734Y-68608847D02*
X157176115Y-68799323D01*
X157176115Y-68799323D02*
X157128496Y-68894561D01*
X157128496Y-68894561D02*
X157033258Y-68989800D01*
X157033258Y-68989800D02*
X156890401Y-69037419D01*
X156890401Y-69037419D02*
X156652306Y-69037419D01*
D14*
X168755833Y-102964819D02*
X168422500Y-102488628D01*
X168184405Y-102964819D02*
X168184405Y-101964819D01*
X168184405Y-101964819D02*
X168565357Y-101964819D01*
X168565357Y-101964819D02*
X168660595Y-102012438D01*
X168660595Y-102012438D02*
X168708214Y-102060057D01*
X168708214Y-102060057D02*
X168755833Y-102155295D01*
X168755833Y-102155295D02*
X168755833Y-102298152D01*
X168755833Y-102298152D02*
X168708214Y-102393390D01*
X168708214Y-102393390D02*
X168660595Y-102441009D01*
X168660595Y-102441009D02*
X168565357Y-102488628D01*
X168565357Y-102488628D02*
X168184405Y-102488628D01*
X169136786Y-102060057D02*
X169184405Y-102012438D01*
X169184405Y-102012438D02*
X169279643Y-101964819D01*
X169279643Y-101964819D02*
X169517738Y-101964819D01*
X169517738Y-101964819D02*
X169612976Y-102012438D01*
X169612976Y-102012438D02*
X169660595Y-102060057D01*
X169660595Y-102060057D02*
X169708214Y-102155295D01*
X169708214Y-102155295D02*
X169708214Y-102250533D01*
X169708214Y-102250533D02*
X169660595Y-102393390D01*
X169660595Y-102393390D02*
X169089167Y-102964819D01*
X169089167Y-102964819D02*
X169708214Y-102964819D01*
X165848333Y-60864819D02*
X165515000Y-60388628D01*
X165276905Y-60864819D02*
X165276905Y-59864819D01*
X165276905Y-59864819D02*
X165657857Y-59864819D01*
X165657857Y-59864819D02*
X165753095Y-59912438D01*
X165753095Y-59912438D02*
X165800714Y-59960057D01*
X165800714Y-59960057D02*
X165848333Y-60055295D01*
X165848333Y-60055295D02*
X165848333Y-60198152D01*
X165848333Y-60198152D02*
X165800714Y-60293390D01*
X165800714Y-60293390D02*
X165753095Y-60341009D01*
X165753095Y-60341009D02*
X165657857Y-60388628D01*
X165657857Y-60388628D02*
X165276905Y-60388628D01*
X166181667Y-59864819D02*
X166848333Y-59864819D01*
X166848333Y-59864819D02*
X166419762Y-60864819D01*
X101369905Y-115262819D02*
X101369905Y-114262819D01*
X101369905Y-114262819D02*
X101608000Y-114262819D01*
X101608000Y-114262819D02*
X101750857Y-114310438D01*
X101750857Y-114310438D02*
X101846095Y-114405676D01*
X101846095Y-114405676D02*
X101893714Y-114500914D01*
X101893714Y-114500914D02*
X101941333Y-114691390D01*
X101941333Y-114691390D02*
X101941333Y-114834247D01*
X101941333Y-114834247D02*
X101893714Y-115024723D01*
X101893714Y-115024723D02*
X101846095Y-115119961D01*
X101846095Y-115119961D02*
X101750857Y-115215200D01*
X101750857Y-115215200D02*
X101608000Y-115262819D01*
X101608000Y-115262819D02*
X101369905Y-115262819D01*
X102274667Y-114262819D02*
X102893714Y-114262819D01*
X102893714Y-114262819D02*
X102560381Y-114643771D01*
X102560381Y-114643771D02*
X102703238Y-114643771D01*
X102703238Y-114643771D02*
X102798476Y-114691390D01*
X102798476Y-114691390D02*
X102846095Y-114739009D01*
X102846095Y-114739009D02*
X102893714Y-114834247D01*
X102893714Y-114834247D02*
X102893714Y-115072342D01*
X102893714Y-115072342D02*
X102846095Y-115167580D01*
X102846095Y-115167580D02*
X102798476Y-115215200D01*
X102798476Y-115215200D02*
X102703238Y-115262819D01*
X102703238Y-115262819D02*
X102417524Y-115262819D01*
X102417524Y-115262819D02*
X102322286Y-115215200D01*
X102322286Y-115215200D02*
X102274667Y-115167580D01*
X173139166Y-89024819D02*
X173139166Y-89739104D01*
X173139166Y-89739104D02*
X173091547Y-89881961D01*
X173091547Y-89881961D02*
X172996309Y-89977200D01*
X172996309Y-89977200D02*
X172853452Y-90024819D01*
X172853452Y-90024819D02*
X172758214Y-90024819D01*
X173758214Y-89453390D02*
X173662976Y-89405771D01*
X173662976Y-89405771D02*
X173615357Y-89358152D01*
X173615357Y-89358152D02*
X173567738Y-89262914D01*
X173567738Y-89262914D02*
X173567738Y-89215295D01*
X173567738Y-89215295D02*
X173615357Y-89120057D01*
X173615357Y-89120057D02*
X173662976Y-89072438D01*
X173662976Y-89072438D02*
X173758214Y-89024819D01*
X173758214Y-89024819D02*
X173948690Y-89024819D01*
X173948690Y-89024819D02*
X174043928Y-89072438D01*
X174043928Y-89072438D02*
X174091547Y-89120057D01*
X174091547Y-89120057D02*
X174139166Y-89215295D01*
X174139166Y-89215295D02*
X174139166Y-89262914D01*
X174139166Y-89262914D02*
X174091547Y-89358152D01*
X174091547Y-89358152D02*
X174043928Y-89405771D01*
X174043928Y-89405771D02*
X173948690Y-89453390D01*
X173948690Y-89453390D02*
X173758214Y-89453390D01*
X173758214Y-89453390D02*
X173662976Y-89501009D01*
X173662976Y-89501009D02*
X173615357Y-89548628D01*
X173615357Y-89548628D02*
X173567738Y-89643866D01*
X173567738Y-89643866D02*
X173567738Y-89834342D01*
X173567738Y-89834342D02*
X173615357Y-89929580D01*
X173615357Y-89929580D02*
X173662976Y-89977200D01*
X173662976Y-89977200D02*
X173758214Y-90024819D01*
X173758214Y-90024819D02*
X173948690Y-90024819D01*
X173948690Y-90024819D02*
X174043928Y-89977200D01*
X174043928Y-89977200D02*
X174091547Y-89929580D01*
X174091547Y-89929580D02*
X174139166Y-89834342D01*
X174139166Y-89834342D02*
X174139166Y-89643866D01*
X174139166Y-89643866D02*
X174091547Y-89548628D01*
X174091547Y-89548628D02*
X174043928Y-89501009D01*
X174043928Y-89501009D02*
X173948690Y-89453390D01*
X141255761Y-114228057D02*
X141160523Y-114180438D01*
X141160523Y-114180438D02*
X141065285Y-114085200D01*
X141065285Y-114085200D02*
X140922428Y-113942342D01*
X140922428Y-113942342D02*
X140827190Y-113894723D01*
X140827190Y-113894723D02*
X140731952Y-113894723D01*
X140779571Y-114132819D02*
X140684333Y-114085200D01*
X140684333Y-114085200D02*
X140589095Y-113989961D01*
X140589095Y-113989961D02*
X140541476Y-113799485D01*
X140541476Y-113799485D02*
X140541476Y-113466152D01*
X140541476Y-113466152D02*
X140589095Y-113275676D01*
X140589095Y-113275676D02*
X140684333Y-113180438D01*
X140684333Y-113180438D02*
X140779571Y-113132819D01*
X140779571Y-113132819D02*
X140970047Y-113132819D01*
X140970047Y-113132819D02*
X141065285Y-113180438D01*
X141065285Y-113180438D02*
X141160523Y-113275676D01*
X141160523Y-113275676D02*
X141208142Y-113466152D01*
X141208142Y-113466152D02*
X141208142Y-113799485D01*
X141208142Y-113799485D02*
X141160523Y-113989961D01*
X141160523Y-113989961D02*
X141065285Y-114085200D01*
X141065285Y-114085200D02*
X140970047Y-114132819D01*
X140970047Y-114132819D02*
X140779571Y-114132819D01*
X142160523Y-114132819D02*
X141589095Y-114132819D01*
X141874809Y-114132819D02*
X141874809Y-113132819D01*
X141874809Y-113132819D02*
X141779571Y-113275676D01*
X141779571Y-113275676D02*
X141684333Y-113370914D01*
X141684333Y-113370914D02*
X141589095Y-113418533D01*
X124238095Y-51056819D02*
X124809523Y-51056819D01*
X124523809Y-52056819D02*
X124523809Y-51056819D01*
X125142857Y-52056819D02*
X125142857Y-51056819D01*
X125142857Y-51056819D02*
X125523809Y-51056819D01*
X125523809Y-51056819D02*
X125619047Y-51104438D01*
X125619047Y-51104438D02*
X125666666Y-51152057D01*
X125666666Y-51152057D02*
X125714285Y-51247295D01*
X125714285Y-51247295D02*
X125714285Y-51390152D01*
X125714285Y-51390152D02*
X125666666Y-51485390D01*
X125666666Y-51485390D02*
X125619047Y-51533009D01*
X125619047Y-51533009D02*
X125523809Y-51580628D01*
X125523809Y-51580628D02*
X125142857Y-51580628D01*
X126666666Y-52056819D02*
X126095238Y-52056819D01*
X126380952Y-52056819D02*
X126380952Y-51056819D01*
X126380952Y-51056819D02*
X126285714Y-51199676D01*
X126285714Y-51199676D02*
X126190476Y-51294914D01*
X126190476Y-51294914D02*
X126095238Y-51342533D01*
X118933333Y-108489819D02*
X118600000Y-108013628D01*
X118361905Y-108489819D02*
X118361905Y-107489819D01*
X118361905Y-107489819D02*
X118742857Y-107489819D01*
X118742857Y-107489819D02*
X118838095Y-107537438D01*
X118838095Y-107537438D02*
X118885714Y-107585057D01*
X118885714Y-107585057D02*
X118933333Y-107680295D01*
X118933333Y-107680295D02*
X118933333Y-107823152D01*
X118933333Y-107823152D02*
X118885714Y-107918390D01*
X118885714Y-107918390D02*
X118838095Y-107966009D01*
X118838095Y-107966009D02*
X118742857Y-108013628D01*
X118742857Y-108013628D02*
X118361905Y-108013628D01*
X119504762Y-107918390D02*
X119409524Y-107870771D01*
X119409524Y-107870771D02*
X119361905Y-107823152D01*
X119361905Y-107823152D02*
X119314286Y-107727914D01*
X119314286Y-107727914D02*
X119314286Y-107680295D01*
X119314286Y-107680295D02*
X119361905Y-107585057D01*
X119361905Y-107585057D02*
X119409524Y-107537438D01*
X119409524Y-107537438D02*
X119504762Y-107489819D01*
X119504762Y-107489819D02*
X119695238Y-107489819D01*
X119695238Y-107489819D02*
X119790476Y-107537438D01*
X119790476Y-107537438D02*
X119838095Y-107585057D01*
X119838095Y-107585057D02*
X119885714Y-107680295D01*
X119885714Y-107680295D02*
X119885714Y-107727914D01*
X119885714Y-107727914D02*
X119838095Y-107823152D01*
X119838095Y-107823152D02*
X119790476Y-107870771D01*
X119790476Y-107870771D02*
X119695238Y-107918390D01*
X119695238Y-107918390D02*
X119504762Y-107918390D01*
X119504762Y-107918390D02*
X119409524Y-107966009D01*
X119409524Y-107966009D02*
X119361905Y-108013628D01*
X119361905Y-108013628D02*
X119314286Y-108108866D01*
X119314286Y-108108866D02*
X119314286Y-108299342D01*
X119314286Y-108299342D02*
X119361905Y-108394580D01*
X119361905Y-108394580D02*
X119409524Y-108442200D01*
X119409524Y-108442200D02*
X119504762Y-108489819D01*
X119504762Y-108489819D02*
X119695238Y-108489819D01*
X119695238Y-108489819D02*
X119790476Y-108442200D01*
X119790476Y-108442200D02*
X119838095Y-108394580D01*
X119838095Y-108394580D02*
X119885714Y-108299342D01*
X119885714Y-108299342D02*
X119885714Y-108108866D01*
X119885714Y-108108866D02*
X119838095Y-108013628D01*
X119838095Y-108013628D02*
X119790476Y-107966009D01*
X119790476Y-107966009D02*
X119695238Y-107918390D01*
X121266667Y-118807200D02*
X121409524Y-118854819D01*
X121409524Y-118854819D02*
X121647619Y-118854819D01*
X121647619Y-118854819D02*
X121742857Y-118807200D01*
X121742857Y-118807200D02*
X121790476Y-118759580D01*
X121790476Y-118759580D02*
X121838095Y-118664342D01*
X121838095Y-118664342D02*
X121838095Y-118569104D01*
X121838095Y-118569104D02*
X121790476Y-118473866D01*
X121790476Y-118473866D02*
X121742857Y-118426247D01*
X121742857Y-118426247D02*
X121647619Y-118378628D01*
X121647619Y-118378628D02*
X121457143Y-118331009D01*
X121457143Y-118331009D02*
X121361905Y-118283390D01*
X121361905Y-118283390D02*
X121314286Y-118235771D01*
X121314286Y-118235771D02*
X121266667Y-118140533D01*
X121266667Y-118140533D02*
X121266667Y-118045295D01*
X121266667Y-118045295D02*
X121314286Y-117950057D01*
X121314286Y-117950057D02*
X121361905Y-117902438D01*
X121361905Y-117902438D02*
X121457143Y-117854819D01*
X121457143Y-117854819D02*
X121695238Y-117854819D01*
X121695238Y-117854819D02*
X121838095Y-117902438D01*
X122171429Y-117854819D02*
X122409524Y-118854819D01*
X122409524Y-118854819D02*
X122600000Y-118140533D01*
X122600000Y-118140533D02*
X122790476Y-118854819D01*
X122790476Y-118854819D02*
X123028572Y-117854819D01*
X123361905Y-117950057D02*
X123409524Y-117902438D01*
X123409524Y-117902438D02*
X123504762Y-117854819D01*
X123504762Y-117854819D02*
X123742857Y-117854819D01*
X123742857Y-117854819D02*
X123838095Y-117902438D01*
X123838095Y-117902438D02*
X123885714Y-117950057D01*
X123885714Y-117950057D02*
X123933333Y-118045295D01*
X123933333Y-118045295D02*
X123933333Y-118140533D01*
X123933333Y-118140533D02*
X123885714Y-118283390D01*
X123885714Y-118283390D02*
X123314286Y-118854819D01*
X123314286Y-118854819D02*
X123933333Y-118854819D01*
X168755833Y-94074819D02*
X168422500Y-93598628D01*
X168184405Y-94074819D02*
X168184405Y-93074819D01*
X168184405Y-93074819D02*
X168565357Y-93074819D01*
X168565357Y-93074819D02*
X168660595Y-93122438D01*
X168660595Y-93122438D02*
X168708214Y-93170057D01*
X168708214Y-93170057D02*
X168755833Y-93265295D01*
X168755833Y-93265295D02*
X168755833Y-93408152D01*
X168755833Y-93408152D02*
X168708214Y-93503390D01*
X168708214Y-93503390D02*
X168660595Y-93551009D01*
X168660595Y-93551009D02*
X168565357Y-93598628D01*
X168565357Y-93598628D02*
X168184405Y-93598628D01*
X169089167Y-93074819D02*
X169708214Y-93074819D01*
X169708214Y-93074819D02*
X169374881Y-93455771D01*
X169374881Y-93455771D02*
X169517738Y-93455771D01*
X169517738Y-93455771D02*
X169612976Y-93503390D01*
X169612976Y-93503390D02*
X169660595Y-93551009D01*
X169660595Y-93551009D02*
X169708214Y-93646247D01*
X169708214Y-93646247D02*
X169708214Y-93884342D01*
X169708214Y-93884342D02*
X169660595Y-93979580D01*
X169660595Y-93979580D02*
X169612976Y-94027200D01*
X169612976Y-94027200D02*
X169517738Y-94074819D01*
X169517738Y-94074819D02*
X169232024Y-94074819D01*
X169232024Y-94074819D02*
X169136786Y-94027200D01*
X169136786Y-94027200D02*
X169089167Y-93979580D01*
X97242333Y-65774819D02*
X96766143Y-65774819D01*
X96766143Y-65774819D02*
X96766143Y-64774819D01*
X98099476Y-65774819D02*
X97528048Y-65774819D01*
X97813762Y-65774819D02*
X97813762Y-64774819D01*
X97813762Y-64774819D02*
X97718524Y-64917676D01*
X97718524Y-64917676D02*
X97623286Y-65012914D01*
X97623286Y-65012914D02*
X97528048Y-65060533D01*
X140380819Y-55705333D02*
X141095104Y-55705333D01*
X141095104Y-55705333D02*
X141237961Y-55752952D01*
X141237961Y-55752952D02*
X141333200Y-55848190D01*
X141333200Y-55848190D02*
X141380819Y-55991047D01*
X141380819Y-55991047D02*
X141380819Y-56086285D01*
X140380819Y-55324380D02*
X140380819Y-54705333D01*
X140380819Y-54705333D02*
X140761771Y-55038666D01*
X140761771Y-55038666D02*
X140761771Y-54895809D01*
X140761771Y-54895809D02*
X140809390Y-54800571D01*
X140809390Y-54800571D02*
X140857009Y-54752952D01*
X140857009Y-54752952D02*
X140952247Y-54705333D01*
X140952247Y-54705333D02*
X141190342Y-54705333D01*
X141190342Y-54705333D02*
X141285580Y-54752952D01*
X141285580Y-54752952D02*
X141333200Y-54800571D01*
X141333200Y-54800571D02*
X141380819Y-54895809D01*
X141380819Y-54895809D02*
X141380819Y-55181523D01*
X141380819Y-55181523D02*
X141333200Y-55276761D01*
X141333200Y-55276761D02*
X141285580Y-55324380D01*
X173139166Y-97914819D02*
X173139166Y-98629104D01*
X173139166Y-98629104D02*
X173091547Y-98771961D01*
X173091547Y-98771961D02*
X172996309Y-98867200D01*
X172996309Y-98867200D02*
X172853452Y-98914819D01*
X172853452Y-98914819D02*
X172758214Y-98914819D01*
X174091547Y-97914819D02*
X173615357Y-97914819D01*
X173615357Y-97914819D02*
X173567738Y-98391009D01*
X173567738Y-98391009D02*
X173615357Y-98343390D01*
X173615357Y-98343390D02*
X173710595Y-98295771D01*
X173710595Y-98295771D02*
X173948690Y-98295771D01*
X173948690Y-98295771D02*
X174043928Y-98343390D01*
X174043928Y-98343390D02*
X174091547Y-98391009D01*
X174091547Y-98391009D02*
X174139166Y-98486247D01*
X174139166Y-98486247D02*
X174139166Y-98724342D01*
X174139166Y-98724342D02*
X174091547Y-98819580D01*
X174091547Y-98819580D02*
X174043928Y-98867200D01*
X174043928Y-98867200D02*
X173948690Y-98914819D01*
X173948690Y-98914819D02*
X173710595Y-98914819D01*
X173710595Y-98914819D02*
X173615357Y-98867200D01*
X173615357Y-98867200D02*
X173567738Y-98819580D01*
X147283333Y-113054819D02*
X146950000Y-112578628D01*
X146711905Y-113054819D02*
X146711905Y-112054819D01*
X146711905Y-112054819D02*
X147092857Y-112054819D01*
X147092857Y-112054819D02*
X147188095Y-112102438D01*
X147188095Y-112102438D02*
X147235714Y-112150057D01*
X147235714Y-112150057D02*
X147283333Y-112245295D01*
X147283333Y-112245295D02*
X147283333Y-112388152D01*
X147283333Y-112388152D02*
X147235714Y-112483390D01*
X147235714Y-112483390D02*
X147188095Y-112531009D01*
X147188095Y-112531009D02*
X147092857Y-112578628D01*
X147092857Y-112578628D02*
X146711905Y-112578628D01*
X148235714Y-113054819D02*
X147664286Y-113054819D01*
X147950000Y-113054819D02*
X147950000Y-112054819D01*
X147950000Y-112054819D02*
X147854762Y-112197676D01*
X147854762Y-112197676D02*
X147759524Y-112292914D01*
X147759524Y-112292914D02*
X147664286Y-112340533D01*
X156883333Y-103834819D02*
X156550000Y-103358628D01*
X156311905Y-103834819D02*
X156311905Y-102834819D01*
X156311905Y-102834819D02*
X156692857Y-102834819D01*
X156692857Y-102834819D02*
X156788095Y-102882438D01*
X156788095Y-102882438D02*
X156835714Y-102930057D01*
X156835714Y-102930057D02*
X156883333Y-103025295D01*
X156883333Y-103025295D02*
X156883333Y-103168152D01*
X156883333Y-103168152D02*
X156835714Y-103263390D01*
X156835714Y-103263390D02*
X156788095Y-103311009D01*
X156788095Y-103311009D02*
X156692857Y-103358628D01*
X156692857Y-103358628D02*
X156311905Y-103358628D01*
X157740476Y-103168152D02*
X157740476Y-103834819D01*
X157502381Y-102787200D02*
X157264286Y-103501485D01*
X157264286Y-103501485D02*
X157883333Y-103501485D01*
X155241666Y-131534819D02*
X155241666Y-132249104D01*
X155241666Y-132249104D02*
X155194047Y-132391961D01*
X155194047Y-132391961D02*
X155098809Y-132487200D01*
X155098809Y-132487200D02*
X154955952Y-132534819D01*
X154955952Y-132534819D02*
X154860714Y-132534819D01*
X155622619Y-131534819D02*
X156289285Y-131534819D01*
X156289285Y-131534819D02*
X155860714Y-132534819D01*
X158238095Y-97004819D02*
X158238095Y-97814342D01*
X158238095Y-97814342D02*
X158285714Y-97909580D01*
X158285714Y-97909580D02*
X158333333Y-97957200D01*
X158333333Y-97957200D02*
X158428571Y-98004819D01*
X158428571Y-98004819D02*
X158619047Y-98004819D01*
X158619047Y-98004819D02*
X158714285Y-97957200D01*
X158714285Y-97957200D02*
X158761904Y-97909580D01*
X158761904Y-97909580D02*
X158809523Y-97814342D01*
X158809523Y-97814342D02*
X158809523Y-97004819D01*
X159714285Y-97338152D02*
X159714285Y-98004819D01*
X159476190Y-96957200D02*
X159238095Y-97671485D01*
X159238095Y-97671485D02*
X159857142Y-97671485D01*
X128357142Y-115054819D02*
X128023809Y-114578628D01*
X127785714Y-115054819D02*
X127785714Y-114054819D01*
X127785714Y-114054819D02*
X128166666Y-114054819D01*
X128166666Y-114054819D02*
X128261904Y-114102438D01*
X128261904Y-114102438D02*
X128309523Y-114150057D01*
X128309523Y-114150057D02*
X128357142Y-114245295D01*
X128357142Y-114245295D02*
X128357142Y-114388152D01*
X128357142Y-114388152D02*
X128309523Y-114483390D01*
X128309523Y-114483390D02*
X128261904Y-114531009D01*
X128261904Y-114531009D02*
X128166666Y-114578628D01*
X128166666Y-114578628D02*
X127785714Y-114578628D01*
X129309523Y-115054819D02*
X128738095Y-115054819D01*
X129023809Y-115054819D02*
X129023809Y-114054819D01*
X129023809Y-114054819D02*
X128928571Y-114197676D01*
X128928571Y-114197676D02*
X128833333Y-114292914D01*
X128833333Y-114292914D02*
X128738095Y-114340533D01*
X130166666Y-114388152D02*
X130166666Y-115054819D01*
X129928571Y-114007200D02*
X129690476Y-114721485D01*
X129690476Y-114721485D02*
X130309523Y-114721485D01*
X118424405Y-104679819D02*
X118424405Y-103679819D01*
X118424405Y-103679819D02*
X118662500Y-103679819D01*
X118662500Y-103679819D02*
X118805357Y-103727438D01*
X118805357Y-103727438D02*
X118900595Y-103822676D01*
X118900595Y-103822676D02*
X118948214Y-103917914D01*
X118948214Y-103917914D02*
X118995833Y-104108390D01*
X118995833Y-104108390D02*
X118995833Y-104251247D01*
X118995833Y-104251247D02*
X118948214Y-104441723D01*
X118948214Y-104441723D02*
X118900595Y-104536961D01*
X118900595Y-104536961D02*
X118805357Y-104632200D01*
X118805357Y-104632200D02*
X118662500Y-104679819D01*
X118662500Y-104679819D02*
X118424405Y-104679819D01*
X119948214Y-104679819D02*
X119376786Y-104679819D01*
X119662500Y-104679819D02*
X119662500Y-103679819D01*
X119662500Y-103679819D02*
X119567262Y-103822676D01*
X119567262Y-103822676D02*
X119472024Y-103917914D01*
X119472024Y-103917914D02*
X119376786Y-103965533D01*
X116800333Y-66653580D02*
X116752714Y-66701200D01*
X116752714Y-66701200D02*
X116609857Y-66748819D01*
X116609857Y-66748819D02*
X116514619Y-66748819D01*
X116514619Y-66748819D02*
X116371762Y-66701200D01*
X116371762Y-66701200D02*
X116276524Y-66605961D01*
X116276524Y-66605961D02*
X116228905Y-66510723D01*
X116228905Y-66510723D02*
X116181286Y-66320247D01*
X116181286Y-66320247D02*
X116181286Y-66177390D01*
X116181286Y-66177390D02*
X116228905Y-65986914D01*
X116228905Y-65986914D02*
X116276524Y-65891676D01*
X116276524Y-65891676D02*
X116371762Y-65796438D01*
X116371762Y-65796438D02*
X116514619Y-65748819D01*
X116514619Y-65748819D02*
X116609857Y-65748819D01*
X116609857Y-65748819D02*
X116752714Y-65796438D01*
X116752714Y-65796438D02*
X116800333Y-65844057D01*
X117133667Y-65748819D02*
X117752714Y-65748819D01*
X117752714Y-65748819D02*
X117419381Y-66129771D01*
X117419381Y-66129771D02*
X117562238Y-66129771D01*
X117562238Y-66129771D02*
X117657476Y-66177390D01*
X117657476Y-66177390D02*
X117705095Y-66225009D01*
X117705095Y-66225009D02*
X117752714Y-66320247D01*
X117752714Y-66320247D02*
X117752714Y-66558342D01*
X117752714Y-66558342D02*
X117705095Y-66653580D01*
X117705095Y-66653580D02*
X117657476Y-66701200D01*
X117657476Y-66701200D02*
X117562238Y-66748819D01*
X117562238Y-66748819D02*
X117276524Y-66748819D01*
X117276524Y-66748819D02*
X117181286Y-66701200D01*
X117181286Y-66701200D02*
X117133667Y-66653580D01*
X168743333Y-89949580D02*
X168695714Y-89997200D01*
X168695714Y-89997200D02*
X168552857Y-90044819D01*
X168552857Y-90044819D02*
X168457619Y-90044819D01*
X168457619Y-90044819D02*
X168314762Y-89997200D01*
X168314762Y-89997200D02*
X168219524Y-89901961D01*
X168219524Y-89901961D02*
X168171905Y-89806723D01*
X168171905Y-89806723D02*
X168124286Y-89616247D01*
X168124286Y-89616247D02*
X168124286Y-89473390D01*
X168124286Y-89473390D02*
X168171905Y-89282914D01*
X168171905Y-89282914D02*
X168219524Y-89187676D01*
X168219524Y-89187676D02*
X168314762Y-89092438D01*
X168314762Y-89092438D02*
X168457619Y-89044819D01*
X168457619Y-89044819D02*
X168552857Y-89044819D01*
X168552857Y-89044819D02*
X168695714Y-89092438D01*
X168695714Y-89092438D02*
X168743333Y-89140057D01*
X169076667Y-89044819D02*
X169743333Y-89044819D01*
X169743333Y-89044819D02*
X169314762Y-90044819D01*
X146807142Y-116634819D02*
X146473809Y-116158628D01*
X146235714Y-116634819D02*
X146235714Y-115634819D01*
X146235714Y-115634819D02*
X146616666Y-115634819D01*
X146616666Y-115634819D02*
X146711904Y-115682438D01*
X146711904Y-115682438D02*
X146759523Y-115730057D01*
X146759523Y-115730057D02*
X146807142Y-115825295D01*
X146807142Y-115825295D02*
X146807142Y-115968152D01*
X146807142Y-115968152D02*
X146759523Y-116063390D01*
X146759523Y-116063390D02*
X146711904Y-116111009D01*
X146711904Y-116111009D02*
X146616666Y-116158628D01*
X146616666Y-116158628D02*
X146235714Y-116158628D01*
X147759523Y-116634819D02*
X147188095Y-116634819D01*
X147473809Y-116634819D02*
X147473809Y-115634819D01*
X147473809Y-115634819D02*
X147378571Y-115777676D01*
X147378571Y-115777676D02*
X147283333Y-115872914D01*
X147283333Y-115872914D02*
X147188095Y-115920533D01*
X148140476Y-115730057D02*
X148188095Y-115682438D01*
X148188095Y-115682438D02*
X148283333Y-115634819D01*
X148283333Y-115634819D02*
X148521428Y-115634819D01*
X148521428Y-115634819D02*
X148616666Y-115682438D01*
X148616666Y-115682438D02*
X148664285Y-115730057D01*
X148664285Y-115730057D02*
X148711904Y-115825295D01*
X148711904Y-115825295D02*
X148711904Y-115920533D01*
X148711904Y-115920533D02*
X148664285Y-116063390D01*
X148664285Y-116063390D02*
X148092857Y-116634819D01*
X148092857Y-116634819D02*
X148711904Y-116634819D01*
X119848333Y-66780580D02*
X119800714Y-66828200D01*
X119800714Y-66828200D02*
X119657857Y-66875819D01*
X119657857Y-66875819D02*
X119562619Y-66875819D01*
X119562619Y-66875819D02*
X119419762Y-66828200D01*
X119419762Y-66828200D02*
X119324524Y-66732961D01*
X119324524Y-66732961D02*
X119276905Y-66637723D01*
X119276905Y-66637723D02*
X119229286Y-66447247D01*
X119229286Y-66447247D02*
X119229286Y-66304390D01*
X119229286Y-66304390D02*
X119276905Y-66113914D01*
X119276905Y-66113914D02*
X119324524Y-66018676D01*
X119324524Y-66018676D02*
X119419762Y-65923438D01*
X119419762Y-65923438D02*
X119562619Y-65875819D01*
X119562619Y-65875819D02*
X119657857Y-65875819D01*
X119657857Y-65875819D02*
X119800714Y-65923438D01*
X119800714Y-65923438D02*
X119848333Y-65971057D01*
X120800714Y-66875819D02*
X120229286Y-66875819D01*
X120515000Y-66875819D02*
X120515000Y-65875819D01*
X120515000Y-65875819D02*
X120419762Y-66018676D01*
X120419762Y-66018676D02*
X120324524Y-66113914D01*
X120324524Y-66113914D02*
X120229286Y-66161533D01*
X128357142Y-117654819D02*
X128023809Y-117178628D01*
X127785714Y-117654819D02*
X127785714Y-116654819D01*
X127785714Y-116654819D02*
X128166666Y-116654819D01*
X128166666Y-116654819D02*
X128261904Y-116702438D01*
X128261904Y-116702438D02*
X128309523Y-116750057D01*
X128309523Y-116750057D02*
X128357142Y-116845295D01*
X128357142Y-116845295D02*
X128357142Y-116988152D01*
X128357142Y-116988152D02*
X128309523Y-117083390D01*
X128309523Y-117083390D02*
X128261904Y-117131009D01*
X128261904Y-117131009D02*
X128166666Y-117178628D01*
X128166666Y-117178628D02*
X127785714Y-117178628D01*
X129309523Y-117654819D02*
X128738095Y-117654819D01*
X129023809Y-117654819D02*
X129023809Y-116654819D01*
X129023809Y-116654819D02*
X128928571Y-116797676D01*
X128928571Y-116797676D02*
X128833333Y-116892914D01*
X128833333Y-116892914D02*
X128738095Y-116940533D01*
X129642857Y-116654819D02*
X130261904Y-116654819D01*
X130261904Y-116654819D02*
X129928571Y-117035771D01*
X129928571Y-117035771D02*
X130071428Y-117035771D01*
X130071428Y-117035771D02*
X130166666Y-117083390D01*
X130166666Y-117083390D02*
X130214285Y-117131009D01*
X130214285Y-117131009D02*
X130261904Y-117226247D01*
X130261904Y-117226247D02*
X130261904Y-117464342D01*
X130261904Y-117464342D02*
X130214285Y-117559580D01*
X130214285Y-117559580D02*
X130166666Y-117607200D01*
X130166666Y-117607200D02*
X130071428Y-117654819D01*
X130071428Y-117654819D02*
X129785714Y-117654819D01*
X129785714Y-117654819D02*
X129690476Y-117607200D01*
X129690476Y-117607200D02*
X129642857Y-117559580D01*
X98137142Y-110394819D02*
X97803809Y-109918628D01*
X97565714Y-110394819D02*
X97565714Y-109394819D01*
X97565714Y-109394819D02*
X97946666Y-109394819D01*
X97946666Y-109394819D02*
X98041904Y-109442438D01*
X98041904Y-109442438D02*
X98089523Y-109490057D01*
X98089523Y-109490057D02*
X98137142Y-109585295D01*
X98137142Y-109585295D02*
X98137142Y-109728152D01*
X98137142Y-109728152D02*
X98089523Y-109823390D01*
X98089523Y-109823390D02*
X98041904Y-109871009D01*
X98041904Y-109871009D02*
X97946666Y-109918628D01*
X97946666Y-109918628D02*
X97565714Y-109918628D01*
X99089523Y-110394819D02*
X98518095Y-110394819D01*
X98803809Y-110394819D02*
X98803809Y-109394819D01*
X98803809Y-109394819D02*
X98708571Y-109537676D01*
X98708571Y-109537676D02*
X98613333Y-109632914D01*
X98613333Y-109632914D02*
X98518095Y-109680533D01*
X99708571Y-109394819D02*
X99803809Y-109394819D01*
X99803809Y-109394819D02*
X99899047Y-109442438D01*
X99899047Y-109442438D02*
X99946666Y-109490057D01*
X99946666Y-109490057D02*
X99994285Y-109585295D01*
X99994285Y-109585295D02*
X100041904Y-109775771D01*
X100041904Y-109775771D02*
X100041904Y-110013866D01*
X100041904Y-110013866D02*
X99994285Y-110204342D01*
X99994285Y-110204342D02*
X99946666Y-110299580D01*
X99946666Y-110299580D02*
X99899047Y-110347200D01*
X99899047Y-110347200D02*
X99803809Y-110394819D01*
X99803809Y-110394819D02*
X99708571Y-110394819D01*
X99708571Y-110394819D02*
X99613333Y-110347200D01*
X99613333Y-110347200D02*
X99565714Y-110299580D01*
X99565714Y-110299580D02*
X99518095Y-110204342D01*
X99518095Y-110204342D02*
X99470476Y-110013866D01*
X99470476Y-110013866D02*
X99470476Y-109775771D01*
X99470476Y-109775771D02*
X99518095Y-109585295D01*
X99518095Y-109585295D02*
X99565714Y-109490057D01*
X99565714Y-109490057D02*
X99613333Y-109442438D01*
X99613333Y-109442438D02*
X99708571Y-109394819D01*
X168535819Y-55959333D02*
X169250104Y-55959333D01*
X169250104Y-55959333D02*
X169392961Y-56006952D01*
X169392961Y-56006952D02*
X169488200Y-56102190D01*
X169488200Y-56102190D02*
X169535819Y-56245047D01*
X169535819Y-56245047D02*
X169535819Y-56340285D01*
X169535819Y-54959333D02*
X169535819Y-55530761D01*
X169535819Y-55245047D02*
X168535819Y-55245047D01*
X168535819Y-55245047D02*
X168678676Y-55340285D01*
X168678676Y-55340285D02*
X168773914Y-55435523D01*
X168773914Y-55435523D02*
X168821533Y-55530761D01*
X125866667Y-119207200D02*
X126009524Y-119254819D01*
X126009524Y-119254819D02*
X126247619Y-119254819D01*
X126247619Y-119254819D02*
X126342857Y-119207200D01*
X126342857Y-119207200D02*
X126390476Y-119159580D01*
X126390476Y-119159580D02*
X126438095Y-119064342D01*
X126438095Y-119064342D02*
X126438095Y-118969104D01*
X126438095Y-118969104D02*
X126390476Y-118873866D01*
X126390476Y-118873866D02*
X126342857Y-118826247D01*
X126342857Y-118826247D02*
X126247619Y-118778628D01*
X126247619Y-118778628D02*
X126057143Y-118731009D01*
X126057143Y-118731009D02*
X125961905Y-118683390D01*
X125961905Y-118683390D02*
X125914286Y-118635771D01*
X125914286Y-118635771D02*
X125866667Y-118540533D01*
X125866667Y-118540533D02*
X125866667Y-118445295D01*
X125866667Y-118445295D02*
X125914286Y-118350057D01*
X125914286Y-118350057D02*
X125961905Y-118302438D01*
X125961905Y-118302438D02*
X126057143Y-118254819D01*
X126057143Y-118254819D02*
X126295238Y-118254819D01*
X126295238Y-118254819D02*
X126438095Y-118302438D01*
X126771429Y-118254819D02*
X127009524Y-119254819D01*
X127009524Y-119254819D02*
X127200000Y-118540533D01*
X127200000Y-118540533D02*
X127390476Y-119254819D01*
X127390476Y-119254819D02*
X127628572Y-118254819D01*
X128533333Y-119254819D02*
X127961905Y-119254819D01*
X128247619Y-119254819D02*
X128247619Y-118254819D01*
X128247619Y-118254819D02*
X128152381Y-118397676D01*
X128152381Y-118397676D02*
X128057143Y-118492914D01*
X128057143Y-118492914D02*
X127961905Y-118540533D01*
D16*
X137668095Y-56607419D02*
X137668095Y-57416942D01*
X137668095Y-57416942D02*
X137715714Y-57512180D01*
X137715714Y-57512180D02*
X137763333Y-57559800D01*
X137763333Y-57559800D02*
X137858571Y-57607419D01*
X137858571Y-57607419D02*
X138049047Y-57607419D01*
X138049047Y-57607419D02*
X138144285Y-57559800D01*
X138144285Y-57559800D02*
X138191904Y-57512180D01*
X138191904Y-57512180D02*
X138239523Y-57416942D01*
X138239523Y-57416942D02*
X138239523Y-56607419D01*
X139191904Y-56607419D02*
X138715714Y-56607419D01*
X138715714Y-56607419D02*
X138668095Y-57083609D01*
X138668095Y-57083609D02*
X138715714Y-57035990D01*
X138715714Y-57035990D02*
X138810952Y-56988371D01*
X138810952Y-56988371D02*
X139049047Y-56988371D01*
X139049047Y-56988371D02*
X139144285Y-57035990D01*
X139144285Y-57035990D02*
X139191904Y-57083609D01*
X139191904Y-57083609D02*
X139239523Y-57178847D01*
X139239523Y-57178847D02*
X139239523Y-57416942D01*
X139239523Y-57416942D02*
X139191904Y-57512180D01*
X139191904Y-57512180D02*
X139144285Y-57559800D01*
X139144285Y-57559800D02*
X139049047Y-57607419D01*
X139049047Y-57607419D02*
X138810952Y-57607419D01*
X138810952Y-57607419D02*
X138715714Y-57559800D01*
X138715714Y-57559800D02*
X138668095Y-57512180D01*
X137168095Y-61002419D02*
X137168095Y-61811942D01*
X137168095Y-61811942D02*
X137215714Y-61907180D01*
X137215714Y-61907180D02*
X137263333Y-61954800D01*
X137263333Y-61954800D02*
X137358571Y-62002419D01*
X137358571Y-62002419D02*
X137549047Y-62002419D01*
X137549047Y-62002419D02*
X137644285Y-61954800D01*
X137644285Y-61954800D02*
X137691904Y-61907180D01*
X137691904Y-61907180D02*
X137739523Y-61811942D01*
X137739523Y-61811942D02*
X137739523Y-61002419D01*
X138168095Y-61954800D02*
X138310952Y-62002419D01*
X138310952Y-62002419D02*
X138549047Y-62002419D01*
X138549047Y-62002419D02*
X138644285Y-61954800D01*
X138644285Y-61954800D02*
X138691904Y-61907180D01*
X138691904Y-61907180D02*
X138739523Y-61811942D01*
X138739523Y-61811942D02*
X138739523Y-61716704D01*
X138739523Y-61716704D02*
X138691904Y-61621466D01*
X138691904Y-61621466D02*
X138644285Y-61573847D01*
X138644285Y-61573847D02*
X138549047Y-61526228D01*
X138549047Y-61526228D02*
X138358571Y-61478609D01*
X138358571Y-61478609D02*
X138263333Y-61430990D01*
X138263333Y-61430990D02*
X138215714Y-61383371D01*
X138215714Y-61383371D02*
X138168095Y-61288133D01*
X138168095Y-61288133D02*
X138168095Y-61192895D01*
X138168095Y-61192895D02*
X138215714Y-61097657D01*
X138215714Y-61097657D02*
X138263333Y-61050038D01*
X138263333Y-61050038D02*
X138358571Y-61002419D01*
X138358571Y-61002419D02*
X138596666Y-61002419D01*
X138596666Y-61002419D02*
X138739523Y-61050038D01*
X139501428Y-61478609D02*
X139644285Y-61526228D01*
X139644285Y-61526228D02*
X139691904Y-61573847D01*
X139691904Y-61573847D02*
X139739523Y-61669085D01*
X139739523Y-61669085D02*
X139739523Y-61811942D01*
X139739523Y-61811942D02*
X139691904Y-61907180D01*
X139691904Y-61907180D02*
X139644285Y-61954800D01*
X139644285Y-61954800D02*
X139549047Y-62002419D01*
X139549047Y-62002419D02*
X139168095Y-62002419D01*
X139168095Y-62002419D02*
X139168095Y-61002419D01*
X139168095Y-61002419D02*
X139501428Y-61002419D01*
X139501428Y-61002419D02*
X139596666Y-61050038D01*
X139596666Y-61050038D02*
X139644285Y-61097657D01*
X139644285Y-61097657D02*
X139691904Y-61192895D01*
X139691904Y-61192895D02*
X139691904Y-61288133D01*
X139691904Y-61288133D02*
X139644285Y-61383371D01*
X139644285Y-61383371D02*
X139596666Y-61430990D01*
X139596666Y-61430990D02*
X139501428Y-61478609D01*
X139501428Y-61478609D02*
X139168095Y-61478609D01*
X127303884Y-74117419D02*
X127303884Y-73117419D01*
X127303884Y-73117419D02*
X127541979Y-73117419D01*
X127541979Y-73117419D02*
X127684836Y-73165038D01*
X127684836Y-73165038D02*
X127780074Y-73260276D01*
X127780074Y-73260276D02*
X127827693Y-73355514D01*
X127827693Y-73355514D02*
X127875312Y-73545990D01*
X127875312Y-73545990D02*
X127875312Y-73688847D01*
X127875312Y-73688847D02*
X127827693Y-73879323D01*
X127827693Y-73879323D02*
X127780074Y-73974561D01*
X127780074Y-73974561D02*
X127684836Y-74069800D01*
X127684836Y-74069800D02*
X127541979Y-74117419D01*
X127541979Y-74117419D02*
X127303884Y-74117419D01*
X128827693Y-74117419D02*
X128256265Y-74117419D01*
X128541979Y-74117419D02*
X128541979Y-73117419D01*
X128541979Y-73117419D02*
X128446741Y-73260276D01*
X128446741Y-73260276D02*
X128351503Y-73355514D01*
X128351503Y-73355514D02*
X128256265Y-73403133D01*
X129732455Y-73117419D02*
X129256265Y-73117419D01*
X129256265Y-73117419D02*
X129208646Y-73593609D01*
X129208646Y-73593609D02*
X129256265Y-73545990D01*
X129256265Y-73545990D02*
X129351503Y-73498371D01*
X129351503Y-73498371D02*
X129589598Y-73498371D01*
X129589598Y-73498371D02*
X129684836Y-73545990D01*
X129684836Y-73545990D02*
X129732455Y-73593609D01*
X129732455Y-73593609D02*
X129780074Y-73688847D01*
X129780074Y-73688847D02*
X129780074Y-73926942D01*
X129780074Y-73926942D02*
X129732455Y-74022180D01*
X129732455Y-74022180D02*
X129684836Y-74069800D01*
X129684836Y-74069800D02*
X129589598Y-74117419D01*
X129589598Y-74117419D02*
X129351503Y-74117419D01*
X129351503Y-74117419D02*
X129256265Y-74069800D01*
X129256265Y-74069800D02*
X129208646Y-74022180D01*
X127208646Y-68037419D02*
X127827693Y-68037419D01*
X127827693Y-68037419D02*
X127494360Y-68418371D01*
X127494360Y-68418371D02*
X127637217Y-68418371D01*
X127637217Y-68418371D02*
X127732455Y-68465990D01*
X127732455Y-68465990D02*
X127780074Y-68513609D01*
X127780074Y-68513609D02*
X127827693Y-68608847D01*
X127827693Y-68608847D02*
X127827693Y-68846942D01*
X127827693Y-68846942D02*
X127780074Y-68942180D01*
X127780074Y-68942180D02*
X127732455Y-68989800D01*
X127732455Y-68989800D02*
X127637217Y-69037419D01*
X127637217Y-69037419D02*
X127351503Y-69037419D01*
X127351503Y-69037419D02*
X127256265Y-68989800D01*
X127256265Y-68989800D02*
X127208646Y-68942180D01*
X128113408Y-68037419D02*
X128446741Y-69037419D01*
X128446741Y-69037419D02*
X128780074Y-68037419D01*
X129018170Y-68037419D02*
X129637217Y-68037419D01*
X129637217Y-68037419D02*
X129303884Y-68418371D01*
X129303884Y-68418371D02*
X129446741Y-68418371D01*
X129446741Y-68418371D02*
X129541979Y-68465990D01*
X129541979Y-68465990D02*
X129589598Y-68513609D01*
X129589598Y-68513609D02*
X129637217Y-68608847D01*
X129637217Y-68608847D02*
X129637217Y-68846942D01*
X129637217Y-68846942D02*
X129589598Y-68942180D01*
X129589598Y-68942180D02*
X129541979Y-68989800D01*
X129541979Y-68989800D02*
X129446741Y-69037419D01*
X129446741Y-69037419D02*
X129161027Y-69037419D01*
X129161027Y-69037419D02*
X129065789Y-68989800D01*
X129065789Y-68989800D02*
X129018170Y-68942180D01*
D14*
X89582666Y-58204819D02*
X89582666Y-58919104D01*
X89582666Y-58919104D02*
X89535047Y-59061961D01*
X89535047Y-59061961D02*
X89439809Y-59157200D01*
X89439809Y-59157200D02*
X89296952Y-59204819D01*
X89296952Y-59204819D02*
X89201714Y-59204819D01*
X90487428Y-58538152D02*
X90487428Y-59204819D01*
X90249333Y-58157200D02*
X90011238Y-58871485D01*
X90011238Y-58871485D02*
X90630285Y-58871485D01*
X123407142Y-113434819D02*
X123073809Y-112958628D01*
X122835714Y-113434819D02*
X122835714Y-112434819D01*
X122835714Y-112434819D02*
X123216666Y-112434819D01*
X123216666Y-112434819D02*
X123311904Y-112482438D01*
X123311904Y-112482438D02*
X123359523Y-112530057D01*
X123359523Y-112530057D02*
X123407142Y-112625295D01*
X123407142Y-112625295D02*
X123407142Y-112768152D01*
X123407142Y-112768152D02*
X123359523Y-112863390D01*
X123359523Y-112863390D02*
X123311904Y-112911009D01*
X123311904Y-112911009D02*
X123216666Y-112958628D01*
X123216666Y-112958628D02*
X122835714Y-112958628D01*
X124359523Y-113434819D02*
X123788095Y-113434819D01*
X124073809Y-113434819D02*
X124073809Y-112434819D01*
X124073809Y-112434819D02*
X123978571Y-112577676D01*
X123978571Y-112577676D02*
X123883333Y-112672914D01*
X123883333Y-112672914D02*
X123788095Y-112720533D01*
X125311904Y-113434819D02*
X124740476Y-113434819D01*
X125026190Y-113434819D02*
X125026190Y-112434819D01*
X125026190Y-112434819D02*
X124930952Y-112577676D01*
X124930952Y-112577676D02*
X124835714Y-112672914D01*
X124835714Y-112672914D02*
X124740476Y-112720533D01*
X168743333Y-98839580D02*
X168695714Y-98887200D01*
X168695714Y-98887200D02*
X168552857Y-98934819D01*
X168552857Y-98934819D02*
X168457619Y-98934819D01*
X168457619Y-98934819D02*
X168314762Y-98887200D01*
X168314762Y-98887200D02*
X168219524Y-98791961D01*
X168219524Y-98791961D02*
X168171905Y-98696723D01*
X168171905Y-98696723D02*
X168124286Y-98506247D01*
X168124286Y-98506247D02*
X168124286Y-98363390D01*
X168124286Y-98363390D02*
X168171905Y-98172914D01*
X168171905Y-98172914D02*
X168219524Y-98077676D01*
X168219524Y-98077676D02*
X168314762Y-97982438D01*
X168314762Y-97982438D02*
X168457619Y-97934819D01*
X168457619Y-97934819D02*
X168552857Y-97934819D01*
X168552857Y-97934819D02*
X168695714Y-97982438D01*
X168695714Y-97982438D02*
X168743333Y-98030057D01*
X169600476Y-97934819D02*
X169410000Y-97934819D01*
X169410000Y-97934819D02*
X169314762Y-97982438D01*
X169314762Y-97982438D02*
X169267143Y-98030057D01*
X169267143Y-98030057D02*
X169171905Y-98172914D01*
X169171905Y-98172914D02*
X169124286Y-98363390D01*
X169124286Y-98363390D02*
X169124286Y-98744342D01*
X169124286Y-98744342D02*
X169171905Y-98839580D01*
X169171905Y-98839580D02*
X169219524Y-98887200D01*
X169219524Y-98887200D02*
X169314762Y-98934819D01*
X169314762Y-98934819D02*
X169505238Y-98934819D01*
X169505238Y-98934819D02*
X169600476Y-98887200D01*
X169600476Y-98887200D02*
X169648095Y-98839580D01*
X169648095Y-98839580D02*
X169695714Y-98744342D01*
X169695714Y-98744342D02*
X169695714Y-98506247D01*
X169695714Y-98506247D02*
X169648095Y-98411009D01*
X169648095Y-98411009D02*
X169600476Y-98363390D01*
X169600476Y-98363390D02*
X169505238Y-98315771D01*
X169505238Y-98315771D02*
X169314762Y-98315771D01*
X169314762Y-98315771D02*
X169219524Y-98363390D01*
X169219524Y-98363390D02*
X169171905Y-98411009D01*
X169171905Y-98411009D02*
X169124286Y-98506247D01*
D16*
X88934580Y-88138095D02*
X88125057Y-88138095D01*
X88125057Y-88138095D02*
X88029819Y-88185714D01*
X88029819Y-88185714D02*
X87982200Y-88233333D01*
X87982200Y-88233333D02*
X87934580Y-88328571D01*
X87934580Y-88328571D02*
X87934580Y-88519047D01*
X87934580Y-88519047D02*
X87982200Y-88614285D01*
X87982200Y-88614285D02*
X88029819Y-88661904D01*
X88029819Y-88661904D02*
X88125057Y-88709523D01*
X88125057Y-88709523D02*
X88934580Y-88709523D01*
X87934580Y-89709523D02*
X87934580Y-89138095D01*
X87934580Y-89423809D02*
X88934580Y-89423809D01*
X88934580Y-89423809D02*
X88791723Y-89328571D01*
X88791723Y-89328571D02*
X88696485Y-89233333D01*
X88696485Y-89233333D02*
X88648866Y-89138095D01*
X91345295Y-93728265D02*
X91345295Y-94204455D01*
X91059580Y-93633027D02*
X92059580Y-93966360D01*
X92059580Y-93966360D02*
X91059580Y-94299693D01*
X91726247Y-94633027D02*
X91059580Y-94633027D01*
X91631009Y-94633027D02*
X91678628Y-94680646D01*
X91678628Y-94680646D02*
X91726247Y-94775884D01*
X91726247Y-94775884D02*
X91726247Y-94918741D01*
X91726247Y-94918741D02*
X91678628Y-95013979D01*
X91678628Y-95013979D02*
X91583390Y-95061598D01*
X91583390Y-95061598D02*
X91059580Y-95061598D01*
X91726247Y-95394932D02*
X91726247Y-95775884D01*
X92059580Y-95537789D02*
X91202438Y-95537789D01*
X91202438Y-95537789D02*
X91107200Y-95585408D01*
X91107200Y-95585408D02*
X91059580Y-95680646D01*
X91059580Y-95680646D02*
X91059580Y-95775884D01*
X118171353Y-88087419D02*
X117838020Y-87611228D01*
X117599925Y-88087419D02*
X117599925Y-87087419D01*
X117599925Y-87087419D02*
X117980877Y-87087419D01*
X117980877Y-87087419D02*
X118076115Y-87135038D01*
X118076115Y-87135038D02*
X118123734Y-87182657D01*
X118123734Y-87182657D02*
X118171353Y-87277895D01*
X118171353Y-87277895D02*
X118171353Y-87420752D01*
X118171353Y-87420752D02*
X118123734Y-87515990D01*
X118123734Y-87515990D02*
X118076115Y-87563609D01*
X118076115Y-87563609D02*
X117980877Y-87611228D01*
X117980877Y-87611228D02*
X117599925Y-87611228D01*
X118504687Y-87087419D02*
X119171353Y-88087419D01*
X119171353Y-87087419D02*
X118504687Y-88087419D01*
X117028496Y-92215038D02*
X116933258Y-92167419D01*
X116933258Y-92167419D02*
X116790401Y-92167419D01*
X116790401Y-92167419D02*
X116647544Y-92215038D01*
X116647544Y-92215038D02*
X116552306Y-92310276D01*
X116552306Y-92310276D02*
X116504687Y-92405514D01*
X116504687Y-92405514D02*
X116457068Y-92595990D01*
X116457068Y-92595990D02*
X116457068Y-92738847D01*
X116457068Y-92738847D02*
X116504687Y-92929323D01*
X116504687Y-92929323D02*
X116552306Y-93024561D01*
X116552306Y-93024561D02*
X116647544Y-93119800D01*
X116647544Y-93119800D02*
X116790401Y-93167419D01*
X116790401Y-93167419D02*
X116885639Y-93167419D01*
X116885639Y-93167419D02*
X117028496Y-93119800D01*
X117028496Y-93119800D02*
X117076115Y-93072180D01*
X117076115Y-93072180D02*
X117076115Y-92738847D01*
X117076115Y-92738847D02*
X116885639Y-92738847D01*
X117504687Y-93167419D02*
X117504687Y-92167419D01*
X117504687Y-92167419D02*
X118076115Y-93167419D01*
X118076115Y-93167419D02*
X118076115Y-92167419D01*
X118552306Y-93167419D02*
X118552306Y-92167419D01*
X118552306Y-92167419D02*
X118790401Y-92167419D01*
X118790401Y-92167419D02*
X118933258Y-92215038D01*
X118933258Y-92215038D02*
X119028496Y-92310276D01*
X119028496Y-92310276D02*
X119076115Y-92405514D01*
X119076115Y-92405514D02*
X119123734Y-92595990D01*
X119123734Y-92595990D02*
X119123734Y-92738847D01*
X119123734Y-92738847D02*
X119076115Y-92929323D01*
X119076115Y-92929323D02*
X119028496Y-93024561D01*
X119028496Y-93024561D02*
X118933258Y-93119800D01*
X118933258Y-93119800D02*
X118790401Y-93167419D01*
X118790401Y-93167419D02*
X118552306Y-93167419D01*
X116552306Y-84547419D02*
X116885639Y-85547419D01*
X116885639Y-85547419D02*
X117218972Y-84547419D01*
X118123734Y-85452180D02*
X118076115Y-85499800D01*
X118076115Y-85499800D02*
X117933258Y-85547419D01*
X117933258Y-85547419D02*
X117838020Y-85547419D01*
X117838020Y-85547419D02*
X117695163Y-85499800D01*
X117695163Y-85499800D02*
X117599925Y-85404561D01*
X117599925Y-85404561D02*
X117552306Y-85309323D01*
X117552306Y-85309323D02*
X117504687Y-85118847D01*
X117504687Y-85118847D02*
X117504687Y-84975990D01*
X117504687Y-84975990D02*
X117552306Y-84785514D01*
X117552306Y-84785514D02*
X117599925Y-84690276D01*
X117599925Y-84690276D02*
X117695163Y-84595038D01*
X117695163Y-84595038D02*
X117838020Y-84547419D01*
X117838020Y-84547419D02*
X117933258Y-84547419D01*
X117933258Y-84547419D02*
X118076115Y-84595038D01*
X118076115Y-84595038D02*
X118123734Y-84642657D01*
X119123734Y-85452180D02*
X119076115Y-85499800D01*
X119076115Y-85499800D02*
X118933258Y-85547419D01*
X118933258Y-85547419D02*
X118838020Y-85547419D01*
X118838020Y-85547419D02*
X118695163Y-85499800D01*
X118695163Y-85499800D02*
X118599925Y-85404561D01*
X118599925Y-85404561D02*
X118552306Y-85309323D01*
X118552306Y-85309323D02*
X118504687Y-85118847D01*
X118504687Y-85118847D02*
X118504687Y-84975990D01*
X118504687Y-84975990D02*
X118552306Y-84785514D01*
X118552306Y-84785514D02*
X118599925Y-84690276D01*
X118599925Y-84690276D02*
X118695163Y-84595038D01*
X118695163Y-84595038D02*
X118838020Y-84547419D01*
X118838020Y-84547419D02*
X118933258Y-84547419D01*
X118933258Y-84547419D02*
X119076115Y-84595038D01*
X119076115Y-84595038D02*
X119123734Y-84642657D01*
X117695163Y-89627419D02*
X118266591Y-89627419D01*
X117980877Y-90627419D02*
X117980877Y-89627419D01*
X118504687Y-89627419D02*
X119171353Y-90627419D01*
X119171353Y-89627419D02*
X118504687Y-90627419D01*
D14*
X107211905Y-115262819D02*
X107211905Y-114262819D01*
X107211905Y-114262819D02*
X107450000Y-114262819D01*
X107450000Y-114262819D02*
X107592857Y-114310438D01*
X107592857Y-114310438D02*
X107688095Y-114405676D01*
X107688095Y-114405676D02*
X107735714Y-114500914D01*
X107735714Y-114500914D02*
X107783333Y-114691390D01*
X107783333Y-114691390D02*
X107783333Y-114834247D01*
X107783333Y-114834247D02*
X107735714Y-115024723D01*
X107735714Y-115024723D02*
X107688095Y-115119961D01*
X107688095Y-115119961D02*
X107592857Y-115215200D01*
X107592857Y-115215200D02*
X107450000Y-115262819D01*
X107450000Y-115262819D02*
X107211905Y-115262819D01*
X108164286Y-114358057D02*
X108211905Y-114310438D01*
X108211905Y-114310438D02*
X108307143Y-114262819D01*
X108307143Y-114262819D02*
X108545238Y-114262819D01*
X108545238Y-114262819D02*
X108640476Y-114310438D01*
X108640476Y-114310438D02*
X108688095Y-114358057D01*
X108688095Y-114358057D02*
X108735714Y-114453295D01*
X108735714Y-114453295D02*
X108735714Y-114548533D01*
X108735714Y-114548533D02*
X108688095Y-114691390D01*
X108688095Y-114691390D02*
X108116667Y-115262819D01*
X108116667Y-115262819D02*
X108735714Y-115262819D01*
X95464333Y-55858580D02*
X95416714Y-55906200D01*
X95416714Y-55906200D02*
X95273857Y-55953819D01*
X95273857Y-55953819D02*
X95178619Y-55953819D01*
X95178619Y-55953819D02*
X95035762Y-55906200D01*
X95035762Y-55906200D02*
X94940524Y-55810961D01*
X94940524Y-55810961D02*
X94892905Y-55715723D01*
X94892905Y-55715723D02*
X94845286Y-55525247D01*
X94845286Y-55525247D02*
X94845286Y-55382390D01*
X94845286Y-55382390D02*
X94892905Y-55191914D01*
X94892905Y-55191914D02*
X94940524Y-55096676D01*
X94940524Y-55096676D02*
X95035762Y-55001438D01*
X95035762Y-55001438D02*
X95178619Y-54953819D01*
X95178619Y-54953819D02*
X95273857Y-54953819D01*
X95273857Y-54953819D02*
X95416714Y-55001438D01*
X95416714Y-55001438D02*
X95464333Y-55049057D01*
X96369095Y-54953819D02*
X95892905Y-54953819D01*
X95892905Y-54953819D02*
X95845286Y-55430009D01*
X95845286Y-55430009D02*
X95892905Y-55382390D01*
X95892905Y-55382390D02*
X95988143Y-55334771D01*
X95988143Y-55334771D02*
X96226238Y-55334771D01*
X96226238Y-55334771D02*
X96321476Y-55382390D01*
X96321476Y-55382390D02*
X96369095Y-55430009D01*
X96369095Y-55430009D02*
X96416714Y-55525247D01*
X96416714Y-55525247D02*
X96416714Y-55763342D01*
X96416714Y-55763342D02*
X96369095Y-55858580D01*
X96369095Y-55858580D02*
X96321476Y-55906200D01*
X96321476Y-55906200D02*
X96226238Y-55953819D01*
X96226238Y-55953819D02*
X95988143Y-55953819D01*
X95988143Y-55953819D02*
X95892905Y-55906200D01*
X95892905Y-55906200D02*
X95845286Y-55858580D01*
X162583333Y-103834819D02*
X162250000Y-103358628D01*
X162011905Y-103834819D02*
X162011905Y-102834819D01*
X162011905Y-102834819D02*
X162392857Y-102834819D01*
X162392857Y-102834819D02*
X162488095Y-102882438D01*
X162488095Y-102882438D02*
X162535714Y-102930057D01*
X162535714Y-102930057D02*
X162583333Y-103025295D01*
X162583333Y-103025295D02*
X162583333Y-103168152D01*
X162583333Y-103168152D02*
X162535714Y-103263390D01*
X162535714Y-103263390D02*
X162488095Y-103311009D01*
X162488095Y-103311009D02*
X162392857Y-103358628D01*
X162392857Y-103358628D02*
X162011905Y-103358628D01*
X163488095Y-102834819D02*
X163011905Y-102834819D01*
X163011905Y-102834819D02*
X162964286Y-103311009D01*
X162964286Y-103311009D02*
X163011905Y-103263390D01*
X163011905Y-103263390D02*
X163107143Y-103215771D01*
X163107143Y-103215771D02*
X163345238Y-103215771D01*
X163345238Y-103215771D02*
X163440476Y-103263390D01*
X163440476Y-103263390D02*
X163488095Y-103311009D01*
X163488095Y-103311009D02*
X163535714Y-103406247D01*
X163535714Y-103406247D02*
X163535714Y-103644342D01*
X163535714Y-103644342D02*
X163488095Y-103739580D01*
X163488095Y-103739580D02*
X163440476Y-103787200D01*
X163440476Y-103787200D02*
X163345238Y-103834819D01*
X163345238Y-103834819D02*
X163107143Y-103834819D01*
X163107143Y-103834819D02*
X163011905Y-103787200D01*
X163011905Y-103787200D02*
X162964286Y-103739580D01*
X87296666Y-106344819D02*
X87296666Y-107059104D01*
X87296666Y-107059104D02*
X87249047Y-107201961D01*
X87249047Y-107201961D02*
X87153809Y-107297200D01*
X87153809Y-107297200D02*
X87010952Y-107344819D01*
X87010952Y-107344819D02*
X86915714Y-107344819D01*
X87725238Y-106440057D02*
X87772857Y-106392438D01*
X87772857Y-106392438D02*
X87868095Y-106344819D01*
X87868095Y-106344819D02*
X88106190Y-106344819D01*
X88106190Y-106344819D02*
X88201428Y-106392438D01*
X88201428Y-106392438D02*
X88249047Y-106440057D01*
X88249047Y-106440057D02*
X88296666Y-106535295D01*
X88296666Y-106535295D02*
X88296666Y-106630533D01*
X88296666Y-106630533D02*
X88249047Y-106773390D01*
X88249047Y-106773390D02*
X87677619Y-107344819D01*
X87677619Y-107344819D02*
X88296666Y-107344819D01*
X113534095Y-74018819D02*
X113534095Y-74828342D01*
X113534095Y-74828342D02*
X113581714Y-74923580D01*
X113581714Y-74923580D02*
X113629333Y-74971200D01*
X113629333Y-74971200D02*
X113724571Y-75018819D01*
X113724571Y-75018819D02*
X113915047Y-75018819D01*
X113915047Y-75018819D02*
X114010285Y-74971200D01*
X114010285Y-74971200D02*
X114057904Y-74923580D01*
X114057904Y-74923580D02*
X114105523Y-74828342D01*
X114105523Y-74828342D02*
X114105523Y-74018819D01*
X114486476Y-74018819D02*
X115105523Y-74018819D01*
X115105523Y-74018819D02*
X114772190Y-74399771D01*
X114772190Y-74399771D02*
X114915047Y-74399771D01*
X114915047Y-74399771D02*
X115010285Y-74447390D01*
X115010285Y-74447390D02*
X115057904Y-74495009D01*
X115057904Y-74495009D02*
X115105523Y-74590247D01*
X115105523Y-74590247D02*
X115105523Y-74828342D01*
X115105523Y-74828342D02*
X115057904Y-74923580D01*
X115057904Y-74923580D02*
X115010285Y-74971200D01*
X115010285Y-74971200D02*
X114915047Y-75018819D01*
X114915047Y-75018819D02*
X114629333Y-75018819D01*
X114629333Y-75018819D02*
X114534095Y-74971200D01*
X114534095Y-74971200D02*
X114486476Y-74923580D01*
D16*
X115557904Y-64706580D02*
X115034095Y-65373247D01*
X115557904Y-65373247D02*
X115034095Y-64706580D01*
X115557904Y-63506580D02*
X115034095Y-64173247D01*
X115557904Y-64173247D02*
X115034095Y-63506580D01*
X107438580Y-59702095D02*
X108105247Y-60225904D01*
X108105247Y-59702095D02*
X107438580Y-60225904D01*
X111038580Y-59702095D02*
X111705247Y-60225904D01*
X111705247Y-59702095D02*
X111038580Y-60225904D01*
X109838580Y-74902095D02*
X110505247Y-75425904D01*
X110505247Y-74902095D02*
X109838580Y-75425904D01*
X108638580Y-74902095D02*
X109305247Y-75425904D01*
X109305247Y-74902095D02*
X108638580Y-75425904D01*
X100357904Y-67106580D02*
X99834095Y-67773247D01*
X100357904Y-67773247D02*
X99834095Y-67106580D01*
X115557904Y-67306580D02*
X115034095Y-67973247D01*
X115557904Y-67973247D02*
X115034095Y-67306580D01*
X106038580Y-59702095D02*
X106705247Y-60225904D01*
X106705247Y-59702095D02*
X106038580Y-60225904D01*
X107438580Y-74902095D02*
X108105247Y-75425904D01*
X108105247Y-74902095D02*
X107438580Y-75425904D01*
X104838580Y-59702095D02*
X105505247Y-60225904D01*
X105505247Y-59702095D02*
X104838580Y-60225904D01*
X115557904Y-68506580D02*
X115034095Y-69173247D01*
X115557904Y-69173247D02*
X115034095Y-68506580D01*
X100357904Y-70906580D02*
X99834095Y-71573247D01*
X100357904Y-71573247D02*
X99834095Y-70906580D01*
X104838580Y-74902095D02*
X105505247Y-75425904D01*
X105505247Y-74902095D02*
X104838580Y-75425904D01*
X100357904Y-68506580D02*
X99834095Y-69173247D01*
X100357904Y-69173247D02*
X99834095Y-68506580D01*
X111238580Y-74902095D02*
X111905247Y-75425904D01*
X111905247Y-74902095D02*
X111238580Y-75425904D01*
X106038580Y-74902095D02*
X106705247Y-75425904D01*
X106705247Y-74902095D02*
X106038580Y-75425904D01*
X115557904Y-66106580D02*
X115034095Y-66773247D01*
X115557904Y-66773247D02*
X115034095Y-66106580D01*
X100357904Y-69706580D02*
X99834095Y-70373247D01*
X100357904Y-70373247D02*
X99834095Y-69706580D01*
X100357904Y-65906580D02*
X99834095Y-66573247D01*
X100357904Y-66573247D02*
X99834095Y-65906580D01*
D14*
X104864819Y-127809523D02*
X105579104Y-127809523D01*
X105579104Y-127809523D02*
X105721961Y-127857142D01*
X105721961Y-127857142D02*
X105817200Y-127952380D01*
X105817200Y-127952380D02*
X105864819Y-128095237D01*
X105864819Y-128095237D02*
X105864819Y-128190475D01*
X105864819Y-126809523D02*
X105864819Y-127380951D01*
X105864819Y-127095237D02*
X104864819Y-127095237D01*
X104864819Y-127095237D02*
X105007676Y-127190475D01*
X105007676Y-127190475D02*
X105102914Y-127285713D01*
X105102914Y-127285713D02*
X105150533Y-127380951D01*
X104960057Y-126428570D02*
X104912438Y-126380951D01*
X104912438Y-126380951D02*
X104864819Y-126285713D01*
X104864819Y-126285713D02*
X104864819Y-126047618D01*
X104864819Y-126047618D02*
X104912438Y-125952380D01*
X104912438Y-125952380D02*
X104960057Y-125904761D01*
X104960057Y-125904761D02*
X105055295Y-125857142D01*
X105055295Y-125857142D02*
X105150533Y-125857142D01*
X105150533Y-125857142D02*
X105293390Y-125904761D01*
X105293390Y-125904761D02*
X105864819Y-126476189D01*
X105864819Y-126476189D02*
X105864819Y-125857142D01*
X98766333Y-55731580D02*
X98718714Y-55779200D01*
X98718714Y-55779200D02*
X98575857Y-55826819D01*
X98575857Y-55826819D02*
X98480619Y-55826819D01*
X98480619Y-55826819D02*
X98337762Y-55779200D01*
X98337762Y-55779200D02*
X98242524Y-55683961D01*
X98242524Y-55683961D02*
X98194905Y-55588723D01*
X98194905Y-55588723D02*
X98147286Y-55398247D01*
X98147286Y-55398247D02*
X98147286Y-55255390D01*
X98147286Y-55255390D02*
X98194905Y-55064914D01*
X98194905Y-55064914D02*
X98242524Y-54969676D01*
X98242524Y-54969676D02*
X98337762Y-54874438D01*
X98337762Y-54874438D02*
X98480619Y-54826819D01*
X98480619Y-54826819D02*
X98575857Y-54826819D01*
X98575857Y-54826819D02*
X98718714Y-54874438D01*
X98718714Y-54874438D02*
X98766333Y-54922057D01*
X99623476Y-55160152D02*
X99623476Y-55826819D01*
X99385381Y-54779200D02*
X99147286Y-55493485D01*
X99147286Y-55493485D02*
X99766333Y-55493485D01*
X94914819Y-118443333D02*
X95629104Y-118443333D01*
X95629104Y-118443333D02*
X95771961Y-118490952D01*
X95771961Y-118490952D02*
X95867200Y-118586190D01*
X95867200Y-118586190D02*
X95914819Y-118729047D01*
X95914819Y-118729047D02*
X95914819Y-118824285D01*
X95914819Y-117919523D02*
X95914819Y-117729047D01*
X95914819Y-117729047D02*
X95867200Y-117633809D01*
X95867200Y-117633809D02*
X95819580Y-117586190D01*
X95819580Y-117586190D02*
X95676723Y-117490952D01*
X95676723Y-117490952D02*
X95486247Y-117443333D01*
X95486247Y-117443333D02*
X95105295Y-117443333D01*
X95105295Y-117443333D02*
X95010057Y-117490952D01*
X95010057Y-117490952D02*
X94962438Y-117538571D01*
X94962438Y-117538571D02*
X94914819Y-117633809D01*
X94914819Y-117633809D02*
X94914819Y-117824285D01*
X94914819Y-117824285D02*
X94962438Y-117919523D01*
X94962438Y-117919523D02*
X95010057Y-117967142D01*
X95010057Y-117967142D02*
X95105295Y-118014761D01*
X95105295Y-118014761D02*
X95343390Y-118014761D01*
X95343390Y-118014761D02*
X95438628Y-117967142D01*
X95438628Y-117967142D02*
X95486247Y-117919523D01*
X95486247Y-117919523D02*
X95533866Y-117824285D01*
X95533866Y-117824285D02*
X95533866Y-117633809D01*
X95533866Y-117633809D02*
X95486247Y-117538571D01*
X95486247Y-117538571D02*
X95438628Y-117490952D01*
X95438628Y-117490952D02*
X95343390Y-117443333D01*
X92164819Y-127809523D02*
X92879104Y-127809523D01*
X92879104Y-127809523D02*
X93021961Y-127857142D01*
X93021961Y-127857142D02*
X93117200Y-127952380D01*
X93117200Y-127952380D02*
X93164819Y-128095237D01*
X93164819Y-128095237D02*
X93164819Y-128190475D01*
X93164819Y-126809523D02*
X93164819Y-127380951D01*
X93164819Y-127095237D02*
X92164819Y-127095237D01*
X92164819Y-127095237D02*
X92307676Y-127190475D01*
X92307676Y-127190475D02*
X92402914Y-127285713D01*
X92402914Y-127285713D02*
X92450533Y-127380951D01*
X93164819Y-125857142D02*
X93164819Y-126428570D01*
X93164819Y-126142856D02*
X92164819Y-126142856D01*
X92164819Y-126142856D02*
X92307676Y-126238094D01*
X92307676Y-126238094D02*
X92402914Y-126333332D01*
X92402914Y-126333332D02*
X92450533Y-126428570D01*
X105470405Y-104044819D02*
X105470405Y-103044819D01*
X105470405Y-103044819D02*
X105708500Y-103044819D01*
X105708500Y-103044819D02*
X105851357Y-103092438D01*
X105851357Y-103092438D02*
X105946595Y-103187676D01*
X105946595Y-103187676D02*
X105994214Y-103282914D01*
X105994214Y-103282914D02*
X106041833Y-103473390D01*
X106041833Y-103473390D02*
X106041833Y-103616247D01*
X106041833Y-103616247D02*
X105994214Y-103806723D01*
X105994214Y-103806723D02*
X105946595Y-103901961D01*
X105946595Y-103901961D02*
X105851357Y-103997200D01*
X105851357Y-103997200D02*
X105708500Y-104044819D01*
X105708500Y-104044819D02*
X105470405Y-104044819D01*
X106898976Y-103378152D02*
X106898976Y-104044819D01*
X106660881Y-102997200D02*
X106422786Y-103711485D01*
X106422786Y-103711485D02*
X107041833Y-103711485D01*
D16*
X169418095Y-113257419D02*
X169418095Y-114066942D01*
X169418095Y-114066942D02*
X169465714Y-114162180D01*
X169465714Y-114162180D02*
X169513333Y-114209800D01*
X169513333Y-114209800D02*
X169608571Y-114257419D01*
X169608571Y-114257419D02*
X169799047Y-114257419D01*
X169799047Y-114257419D02*
X169894285Y-114209800D01*
X169894285Y-114209800D02*
X169941904Y-114162180D01*
X169941904Y-114162180D02*
X169989523Y-114066942D01*
X169989523Y-114066942D02*
X169989523Y-113257419D01*
X170894285Y-113257419D02*
X170703809Y-113257419D01*
X170703809Y-113257419D02*
X170608571Y-113305038D01*
X170608571Y-113305038D02*
X170560952Y-113352657D01*
X170560952Y-113352657D02*
X170465714Y-113495514D01*
X170465714Y-113495514D02*
X170418095Y-113685990D01*
X170418095Y-113685990D02*
X170418095Y-114066942D01*
X170418095Y-114066942D02*
X170465714Y-114162180D01*
X170465714Y-114162180D02*
X170513333Y-114209800D01*
X170513333Y-114209800D02*
X170608571Y-114257419D01*
X170608571Y-114257419D02*
X170799047Y-114257419D01*
X170799047Y-114257419D02*
X170894285Y-114209800D01*
X170894285Y-114209800D02*
X170941904Y-114162180D01*
X170941904Y-114162180D02*
X170989523Y-114066942D01*
X170989523Y-114066942D02*
X170989523Y-113828847D01*
X170989523Y-113828847D02*
X170941904Y-113733609D01*
X170941904Y-113733609D02*
X170894285Y-113685990D01*
X170894285Y-113685990D02*
X170799047Y-113638371D01*
X170799047Y-113638371D02*
X170608571Y-113638371D01*
X170608571Y-113638371D02*
X170513333Y-113685990D01*
X170513333Y-113685990D02*
X170465714Y-113733609D01*
X170465714Y-113733609D02*
X170418095Y-113828847D01*
D14*
X178260476Y-54274819D02*
X178260476Y-54989104D01*
X178260476Y-54989104D02*
X178212857Y-55131961D01*
X178212857Y-55131961D02*
X178117619Y-55227200D01*
X178117619Y-55227200D02*
X177974762Y-55274819D01*
X177974762Y-55274819D02*
X177879524Y-55274819D01*
X179260476Y-55274819D02*
X178689048Y-55274819D01*
X178974762Y-55274819D02*
X178974762Y-54274819D01*
X178974762Y-54274819D02*
X178879524Y-54417676D01*
X178879524Y-54417676D02*
X178784286Y-54512914D01*
X178784286Y-54512914D02*
X178689048Y-54560533D01*
X180117619Y-54608152D02*
X180117619Y-55274819D01*
X179879524Y-54227200D02*
X179641429Y-54941485D01*
X179641429Y-54941485D02*
X180260476Y-54941485D01*
X91996833Y-102903580D02*
X91949214Y-102951200D01*
X91949214Y-102951200D02*
X91806357Y-102998819D01*
X91806357Y-102998819D02*
X91711119Y-102998819D01*
X91711119Y-102998819D02*
X91568262Y-102951200D01*
X91568262Y-102951200D02*
X91473024Y-102855961D01*
X91473024Y-102855961D02*
X91425405Y-102760723D01*
X91425405Y-102760723D02*
X91377786Y-102570247D01*
X91377786Y-102570247D02*
X91377786Y-102427390D01*
X91377786Y-102427390D02*
X91425405Y-102236914D01*
X91425405Y-102236914D02*
X91473024Y-102141676D01*
X91473024Y-102141676D02*
X91568262Y-102046438D01*
X91568262Y-102046438D02*
X91711119Y-101998819D01*
X91711119Y-101998819D02*
X91806357Y-101998819D01*
X91806357Y-101998819D02*
X91949214Y-102046438D01*
X91949214Y-102046438D02*
X91996833Y-102094057D01*
X92377786Y-102094057D02*
X92425405Y-102046438D01*
X92425405Y-102046438D02*
X92520643Y-101998819D01*
X92520643Y-101998819D02*
X92758738Y-101998819D01*
X92758738Y-101998819D02*
X92853976Y-102046438D01*
X92853976Y-102046438D02*
X92901595Y-102094057D01*
X92901595Y-102094057D02*
X92949214Y-102189295D01*
X92949214Y-102189295D02*
X92949214Y-102284533D01*
X92949214Y-102284533D02*
X92901595Y-102427390D01*
X92901595Y-102427390D02*
X92330167Y-102998819D01*
X92330167Y-102998819D02*
X92949214Y-102998819D01*
X105503142Y-107854819D02*
X105169809Y-107378628D01*
X104931714Y-107854819D02*
X104931714Y-106854819D01*
X104931714Y-106854819D02*
X105312666Y-106854819D01*
X105312666Y-106854819D02*
X105407904Y-106902438D01*
X105407904Y-106902438D02*
X105455523Y-106950057D01*
X105455523Y-106950057D02*
X105503142Y-107045295D01*
X105503142Y-107045295D02*
X105503142Y-107188152D01*
X105503142Y-107188152D02*
X105455523Y-107283390D01*
X105455523Y-107283390D02*
X105407904Y-107331009D01*
X105407904Y-107331009D02*
X105312666Y-107378628D01*
X105312666Y-107378628D02*
X104931714Y-107378628D01*
X106455523Y-107854819D02*
X105884095Y-107854819D01*
X106169809Y-107854819D02*
X106169809Y-106854819D01*
X106169809Y-106854819D02*
X106074571Y-106997676D01*
X106074571Y-106997676D02*
X105979333Y-107092914D01*
X105979333Y-107092914D02*
X105884095Y-107140533D01*
X107360285Y-106854819D02*
X106884095Y-106854819D01*
X106884095Y-106854819D02*
X106836476Y-107331009D01*
X106836476Y-107331009D02*
X106884095Y-107283390D01*
X106884095Y-107283390D02*
X106979333Y-107235771D01*
X106979333Y-107235771D02*
X107217428Y-107235771D01*
X107217428Y-107235771D02*
X107312666Y-107283390D01*
X107312666Y-107283390D02*
X107360285Y-107331009D01*
X107360285Y-107331009D02*
X107407904Y-107426247D01*
X107407904Y-107426247D02*
X107407904Y-107664342D01*
X107407904Y-107664342D02*
X107360285Y-107759580D01*
X107360285Y-107759580D02*
X107312666Y-107807200D01*
X107312666Y-107807200D02*
X107217428Y-107854819D01*
X107217428Y-107854819D02*
X106979333Y-107854819D01*
X106979333Y-107854819D02*
X106884095Y-107807200D01*
X106884095Y-107807200D02*
X106836476Y-107759580D01*
X178260476Y-69524819D02*
X178260476Y-70239104D01*
X178260476Y-70239104D02*
X178212857Y-70381961D01*
X178212857Y-70381961D02*
X178117619Y-70477200D01*
X178117619Y-70477200D02*
X177974762Y-70524819D01*
X177974762Y-70524819D02*
X177879524Y-70524819D01*
X179260476Y-70524819D02*
X178689048Y-70524819D01*
X178974762Y-70524819D02*
X178974762Y-69524819D01*
X178974762Y-69524819D02*
X178879524Y-69667676D01*
X178879524Y-69667676D02*
X178784286Y-69762914D01*
X178784286Y-69762914D02*
X178689048Y-69810533D01*
X179593810Y-69524819D02*
X180212857Y-69524819D01*
X180212857Y-69524819D02*
X179879524Y-69905771D01*
X179879524Y-69905771D02*
X180022381Y-69905771D01*
X180022381Y-69905771D02*
X180117619Y-69953390D01*
X180117619Y-69953390D02*
X180165238Y-70001009D01*
X180165238Y-70001009D02*
X180212857Y-70096247D01*
X180212857Y-70096247D02*
X180212857Y-70334342D01*
X180212857Y-70334342D02*
X180165238Y-70429580D01*
X180165238Y-70429580D02*
X180117619Y-70477200D01*
X180117619Y-70477200D02*
X180022381Y-70524819D01*
X180022381Y-70524819D02*
X179736667Y-70524819D01*
X179736667Y-70524819D02*
X179641429Y-70477200D01*
X179641429Y-70477200D02*
X179593810Y-70429580D01*
X111313333Y-110394819D02*
X110980000Y-109918628D01*
X110741905Y-110394819D02*
X110741905Y-109394819D01*
X110741905Y-109394819D02*
X111122857Y-109394819D01*
X111122857Y-109394819D02*
X111218095Y-109442438D01*
X111218095Y-109442438D02*
X111265714Y-109490057D01*
X111265714Y-109490057D02*
X111313333Y-109585295D01*
X111313333Y-109585295D02*
X111313333Y-109728152D01*
X111313333Y-109728152D02*
X111265714Y-109823390D01*
X111265714Y-109823390D02*
X111218095Y-109871009D01*
X111218095Y-109871009D02*
X111122857Y-109918628D01*
X111122857Y-109918628D02*
X110741905Y-109918628D01*
X111789524Y-110394819D02*
X111980000Y-110394819D01*
X111980000Y-110394819D02*
X112075238Y-110347200D01*
X112075238Y-110347200D02*
X112122857Y-110299580D01*
X112122857Y-110299580D02*
X112218095Y-110156723D01*
X112218095Y-110156723D02*
X112265714Y-109966247D01*
X112265714Y-109966247D02*
X112265714Y-109585295D01*
X112265714Y-109585295D02*
X112218095Y-109490057D01*
X112218095Y-109490057D02*
X112170476Y-109442438D01*
X112170476Y-109442438D02*
X112075238Y-109394819D01*
X112075238Y-109394819D02*
X111884762Y-109394819D01*
X111884762Y-109394819D02*
X111789524Y-109442438D01*
X111789524Y-109442438D02*
X111741905Y-109490057D01*
X111741905Y-109490057D02*
X111694286Y-109585295D01*
X111694286Y-109585295D02*
X111694286Y-109823390D01*
X111694286Y-109823390D02*
X111741905Y-109918628D01*
X111741905Y-109918628D02*
X111789524Y-109966247D01*
X111789524Y-109966247D02*
X111884762Y-110013866D01*
X111884762Y-110013866D02*
X112075238Y-110013866D01*
X112075238Y-110013866D02*
X112170476Y-109966247D01*
X112170476Y-109966247D02*
X112218095Y-109918628D01*
X112218095Y-109918628D02*
X112265714Y-109823390D01*
X160133333Y-60864819D02*
X159800000Y-60388628D01*
X159561905Y-60864819D02*
X159561905Y-59864819D01*
X159561905Y-59864819D02*
X159942857Y-59864819D01*
X159942857Y-59864819D02*
X160038095Y-59912438D01*
X160038095Y-59912438D02*
X160085714Y-59960057D01*
X160085714Y-59960057D02*
X160133333Y-60055295D01*
X160133333Y-60055295D02*
X160133333Y-60198152D01*
X160133333Y-60198152D02*
X160085714Y-60293390D01*
X160085714Y-60293390D02*
X160038095Y-60341009D01*
X160038095Y-60341009D02*
X159942857Y-60388628D01*
X159942857Y-60388628D02*
X159561905Y-60388628D01*
X160990476Y-59864819D02*
X160800000Y-59864819D01*
X160800000Y-59864819D02*
X160704762Y-59912438D01*
X160704762Y-59912438D02*
X160657143Y-59960057D01*
X160657143Y-59960057D02*
X160561905Y-60102914D01*
X160561905Y-60102914D02*
X160514286Y-60293390D01*
X160514286Y-60293390D02*
X160514286Y-60674342D01*
X160514286Y-60674342D02*
X160561905Y-60769580D01*
X160561905Y-60769580D02*
X160609524Y-60817200D01*
X160609524Y-60817200D02*
X160704762Y-60864819D01*
X160704762Y-60864819D02*
X160895238Y-60864819D01*
X160895238Y-60864819D02*
X160990476Y-60817200D01*
X160990476Y-60817200D02*
X161038095Y-60769580D01*
X161038095Y-60769580D02*
X161085714Y-60674342D01*
X161085714Y-60674342D02*
X161085714Y-60436247D01*
X161085714Y-60436247D02*
X161038095Y-60341009D01*
X161038095Y-60341009D02*
X160990476Y-60293390D01*
X160990476Y-60293390D02*
X160895238Y-60245771D01*
X160895238Y-60245771D02*
X160704762Y-60245771D01*
X160704762Y-60245771D02*
X160609524Y-60293390D01*
X160609524Y-60293390D02*
X160561905Y-60341009D01*
X160561905Y-60341009D02*
X160514286Y-60436247D01*
X107614819Y-118919523D02*
X108329104Y-118919523D01*
X108329104Y-118919523D02*
X108471961Y-118967142D01*
X108471961Y-118967142D02*
X108567200Y-119062380D01*
X108567200Y-119062380D02*
X108614819Y-119205237D01*
X108614819Y-119205237D02*
X108614819Y-119300475D01*
X108614819Y-117919523D02*
X108614819Y-118490951D01*
X108614819Y-118205237D02*
X107614819Y-118205237D01*
X107614819Y-118205237D02*
X107757676Y-118300475D01*
X107757676Y-118300475D02*
X107852914Y-118395713D01*
X107852914Y-118395713D02*
X107900533Y-118490951D01*
X107614819Y-117300475D02*
X107614819Y-117205237D01*
X107614819Y-117205237D02*
X107662438Y-117109999D01*
X107662438Y-117109999D02*
X107710057Y-117062380D01*
X107710057Y-117062380D02*
X107805295Y-117014761D01*
X107805295Y-117014761D02*
X107995771Y-116967142D01*
X107995771Y-116967142D02*
X108233866Y-116967142D01*
X108233866Y-116967142D02*
X108424342Y-117014761D01*
X108424342Y-117014761D02*
X108519580Y-117062380D01*
X108519580Y-117062380D02*
X108567200Y-117109999D01*
X108567200Y-117109999D02*
X108614819Y-117205237D01*
X108614819Y-117205237D02*
X108614819Y-117300475D01*
X108614819Y-117300475D02*
X108567200Y-117395713D01*
X108567200Y-117395713D02*
X108519580Y-117443332D01*
X108519580Y-117443332D02*
X108424342Y-117490951D01*
X108424342Y-117490951D02*
X108233866Y-117538570D01*
X108233866Y-117538570D02*
X107995771Y-117538570D01*
X107995771Y-117538570D02*
X107805295Y-117490951D01*
X107805295Y-117490951D02*
X107710057Y-117443332D01*
X107710057Y-117443332D02*
X107662438Y-117395713D01*
X107662438Y-117395713D02*
X107614819Y-117300475D01*
X134709819Y-127333333D02*
X135424104Y-127333333D01*
X135424104Y-127333333D02*
X135566961Y-127380952D01*
X135566961Y-127380952D02*
X135662200Y-127476190D01*
X135662200Y-127476190D02*
X135709819Y-127619047D01*
X135709819Y-127619047D02*
X135709819Y-127714285D01*
X134709819Y-126428571D02*
X134709819Y-126619047D01*
X134709819Y-126619047D02*
X134757438Y-126714285D01*
X134757438Y-126714285D02*
X134805057Y-126761904D01*
X134805057Y-126761904D02*
X134947914Y-126857142D01*
X134947914Y-126857142D02*
X135138390Y-126904761D01*
X135138390Y-126904761D02*
X135519342Y-126904761D01*
X135519342Y-126904761D02*
X135614580Y-126857142D01*
X135614580Y-126857142D02*
X135662200Y-126809523D01*
X135662200Y-126809523D02*
X135709819Y-126714285D01*
X135709819Y-126714285D02*
X135709819Y-126523809D01*
X135709819Y-126523809D02*
X135662200Y-126428571D01*
X135662200Y-126428571D02*
X135614580Y-126380952D01*
X135614580Y-126380952D02*
X135519342Y-126333333D01*
X135519342Y-126333333D02*
X135281247Y-126333333D01*
X135281247Y-126333333D02*
X135186009Y-126380952D01*
X135186009Y-126380952D02*
X135138390Y-126428571D01*
X135138390Y-126428571D02*
X135090771Y-126523809D01*
X135090771Y-126523809D02*
X135090771Y-126714285D01*
X135090771Y-126714285D02*
X135138390Y-126809523D01*
X135138390Y-126809523D02*
X135186009Y-126857142D01*
X135186009Y-126857142D02*
X135281247Y-126904761D01*
X153070833Y-114709580D02*
X153023214Y-114757200D01*
X153023214Y-114757200D02*
X152880357Y-114804819D01*
X152880357Y-114804819D02*
X152785119Y-114804819D01*
X152785119Y-114804819D02*
X152642262Y-114757200D01*
X152642262Y-114757200D02*
X152547024Y-114661961D01*
X152547024Y-114661961D02*
X152499405Y-114566723D01*
X152499405Y-114566723D02*
X152451786Y-114376247D01*
X152451786Y-114376247D02*
X152451786Y-114233390D01*
X152451786Y-114233390D02*
X152499405Y-114042914D01*
X152499405Y-114042914D02*
X152547024Y-113947676D01*
X152547024Y-113947676D02*
X152642262Y-113852438D01*
X152642262Y-113852438D02*
X152785119Y-113804819D01*
X152785119Y-113804819D02*
X152880357Y-113804819D01*
X152880357Y-113804819D02*
X153023214Y-113852438D01*
X153023214Y-113852438D02*
X153070833Y-113900057D01*
X153642262Y-114233390D02*
X153547024Y-114185771D01*
X153547024Y-114185771D02*
X153499405Y-114138152D01*
X153499405Y-114138152D02*
X153451786Y-114042914D01*
X153451786Y-114042914D02*
X153451786Y-113995295D01*
X153451786Y-113995295D02*
X153499405Y-113900057D01*
X153499405Y-113900057D02*
X153547024Y-113852438D01*
X153547024Y-113852438D02*
X153642262Y-113804819D01*
X153642262Y-113804819D02*
X153832738Y-113804819D01*
X153832738Y-113804819D02*
X153927976Y-113852438D01*
X153927976Y-113852438D02*
X153975595Y-113900057D01*
X153975595Y-113900057D02*
X154023214Y-113995295D01*
X154023214Y-113995295D02*
X154023214Y-114042914D01*
X154023214Y-114042914D02*
X153975595Y-114138152D01*
X153975595Y-114138152D02*
X153927976Y-114185771D01*
X153927976Y-114185771D02*
X153832738Y-114233390D01*
X153832738Y-114233390D02*
X153642262Y-114233390D01*
X153642262Y-114233390D02*
X153547024Y-114281009D01*
X153547024Y-114281009D02*
X153499405Y-114328628D01*
X153499405Y-114328628D02*
X153451786Y-114423866D01*
X153451786Y-114423866D02*
X153451786Y-114614342D01*
X153451786Y-114614342D02*
X153499405Y-114709580D01*
X153499405Y-114709580D02*
X153547024Y-114757200D01*
X153547024Y-114757200D02*
X153642262Y-114804819D01*
X153642262Y-114804819D02*
X153832738Y-114804819D01*
X153832738Y-114804819D02*
X153927976Y-114757200D01*
X153927976Y-114757200D02*
X153975595Y-114709580D01*
X153975595Y-114709580D02*
X154023214Y-114614342D01*
X154023214Y-114614342D02*
X154023214Y-114423866D01*
X154023214Y-114423866D02*
X153975595Y-114328628D01*
X153975595Y-114328628D02*
X153927976Y-114281009D01*
X153927976Y-114281009D02*
X153832738Y-114233390D01*
X173180476Y-54274819D02*
X173180476Y-54989104D01*
X173180476Y-54989104D02*
X173132857Y-55131961D01*
X173132857Y-55131961D02*
X173037619Y-55227200D01*
X173037619Y-55227200D02*
X172894762Y-55274819D01*
X172894762Y-55274819D02*
X172799524Y-55274819D01*
X174180476Y-55274819D02*
X173609048Y-55274819D01*
X173894762Y-55274819D02*
X173894762Y-54274819D01*
X173894762Y-54274819D02*
X173799524Y-54417676D01*
X173799524Y-54417676D02*
X173704286Y-54512914D01*
X173704286Y-54512914D02*
X173609048Y-54560533D01*
X175085238Y-54274819D02*
X174609048Y-54274819D01*
X174609048Y-54274819D02*
X174561429Y-54751009D01*
X174561429Y-54751009D02*
X174609048Y-54703390D01*
X174609048Y-54703390D02*
X174704286Y-54655771D01*
X174704286Y-54655771D02*
X174942381Y-54655771D01*
X174942381Y-54655771D02*
X175037619Y-54703390D01*
X175037619Y-54703390D02*
X175085238Y-54751009D01*
X175085238Y-54751009D02*
X175132857Y-54846247D01*
X175132857Y-54846247D02*
X175132857Y-55084342D01*
X175132857Y-55084342D02*
X175085238Y-55179580D01*
X175085238Y-55179580D02*
X175037619Y-55227200D01*
X175037619Y-55227200D02*
X174942381Y-55274819D01*
X174942381Y-55274819D02*
X174704286Y-55274819D01*
X174704286Y-55274819D02*
X174609048Y-55227200D01*
X174609048Y-55227200D02*
X174561429Y-55179580D01*
D16*
X157480000Y-64690000D02*
X169480000Y-64690000D01*
X169480000Y-64690000D02*
X169480000Y-80090000D01*
X169480000Y-80090000D02*
X157480000Y-80090000D01*
X157480000Y-80090000D02*
X157480000Y-64690000D01*
D17*
X168195436Y-103420000D02*
X169649564Y-103420000D01*
X168195436Y-105240000D02*
X169649564Y-105240000D01*
X165287936Y-61320000D02*
X166742064Y-61320000D01*
X165287936Y-63140000D02*
X166742064Y-63140000D01*
X96382500Y-113800000D02*
X96382500Y-116070000D01*
X96382500Y-116070000D02*
X100442500Y-116070000D01*
X100442500Y-113800000D02*
X96382500Y-113800000D01*
X172142500Y-90570000D02*
X173472500Y-90570000D01*
X172142500Y-91900000D02*
X172142500Y-90570000D01*
X172142500Y-93170000D02*
X172142500Y-95770000D01*
X172142500Y-93170000D02*
X174802500Y-93170000D01*
X172142500Y-95770000D02*
X174802500Y-95770000D01*
X174802500Y-93170000D02*
X174802500Y-95770000D01*
X141351000Y-114427000D02*
X139676000Y-114427000D01*
X141351000Y-114427000D02*
X142001000Y-114427000D01*
X141351000Y-117638000D02*
X140701000Y-117638000D01*
X141351000Y-117638000D02*
X142001000Y-117638000D01*
X127250000Y-54000000D02*
G75*
G03*
X127250000Y-54000000I-1750000J0D01*
G01*
X118372936Y-108945000D02*
X119827064Y-108945000D01*
X118372936Y-110765000D02*
X119827064Y-110765000D01*
X120295000Y-128965000D02*
X120295000Y-120145000D01*
X120605000Y-128965000D02*
X120295000Y-128965000D01*
X124815000Y-128965000D02*
X124505000Y-128965000D01*
X119595000Y-127055000D02*
X120095000Y-126555000D01*
X120095000Y-126555000D02*
X119595000Y-126055000D01*
X119595000Y-126055000D02*
X119595000Y-127055000D01*
X120295000Y-120145000D02*
X120605000Y-120145000D01*
X124815000Y-120145000D02*
X124815000Y-128965000D01*
X124815000Y-120145000D02*
X124505000Y-120145000D01*
X168195436Y-94530000D02*
X169649564Y-94530000D01*
X168195436Y-96350000D02*
X169649564Y-96350000D01*
X98011064Y-64410000D02*
X96806936Y-64410000D01*
X98011064Y-62590000D02*
X96806936Y-62590000D01*
X141926000Y-56702000D02*
X141926000Y-55372000D01*
X143256000Y-56702000D02*
X141926000Y-56702000D01*
X144526000Y-56702000D02*
X152206000Y-56702000D01*
X144526000Y-56702000D02*
X144526000Y-54042000D01*
X152206000Y-56702000D02*
X152206000Y-54042000D01*
X144526000Y-54042000D02*
X152206000Y-54042000D01*
X172142500Y-99460000D02*
X173472500Y-99460000D01*
X172142500Y-100790000D02*
X172142500Y-99460000D01*
X172142500Y-102060000D02*
X172142500Y-104660000D01*
X172142500Y-102060000D02*
X174802500Y-102060000D01*
X172142500Y-104660000D02*
X174802500Y-104660000D01*
X174802500Y-102060000D02*
X174802500Y-104660000D01*
X146722936Y-113290000D02*
X148177064Y-113290000D01*
X146722936Y-115110000D02*
X148177064Y-115110000D01*
X156322936Y-104290000D02*
X157777064Y-104290000D01*
X156322936Y-106110000D02*
X157777064Y-106110000D01*
X147320000Y-123190000D02*
X147320000Y-130810000D01*
X147320000Y-130810000D02*
X157480000Y-130810000D01*
X157480000Y-123190000D02*
X147320000Y-123190000D01*
X157480000Y-129540000D02*
X147320000Y-129540000D01*
X157480000Y-130810000D02*
X157480000Y-123190000D01*
X159000000Y-98390000D02*
X156075000Y-98390000D01*
X159000000Y-98390000D02*
X160500000Y-98390000D01*
X159000000Y-101610000D02*
X157500000Y-101610000D01*
X159000000Y-101610000D02*
X160500000Y-101610000D01*
X132322936Y-113690000D02*
X133777064Y-113690000D01*
X132322936Y-115510000D02*
X133777064Y-115510000D01*
X116702500Y-104910000D02*
X116702500Y-107180000D01*
X116702500Y-107180000D02*
X120762500Y-107180000D01*
X120762500Y-104910000D02*
X116702500Y-104910000D01*
X116184000Y-70307252D02*
X116184000Y-68884748D01*
X118004000Y-70307252D02*
X118004000Y-68884748D01*
X168198748Y-90530000D02*
X169621252Y-90530000D01*
X168198748Y-92350000D02*
X169621252Y-92350000D01*
X146722936Y-117090000D02*
X148177064Y-117090000D01*
X146722936Y-118910000D02*
X148177064Y-118910000D01*
X119105000Y-70307252D02*
X119105000Y-68884748D01*
X120925000Y-70307252D02*
X120925000Y-68884748D01*
X132322936Y-116290000D02*
X133777064Y-116290000D01*
X132322936Y-118110000D02*
X133777064Y-118110000D01*
X98052936Y-110850000D02*
X99507064Y-110850000D01*
X98052936Y-112670000D02*
X99507064Y-112670000D01*
X168081000Y-54296000D02*
X168081000Y-55626000D01*
X166751000Y-54296000D02*
X168081000Y-54296000D01*
X165481000Y-54296000D02*
X157801000Y-54296000D01*
X165481000Y-54296000D02*
X165481000Y-56956000D01*
X157801000Y-54296000D02*
X157801000Y-56956000D01*
X165481000Y-56956000D02*
X157801000Y-56956000D01*
X127915000Y-128965000D02*
X127915000Y-120145000D01*
X128225000Y-128965000D02*
X127915000Y-128965000D01*
X132435000Y-128965000D02*
X132125000Y-128965000D01*
X127215000Y-127055000D02*
X127715000Y-126555000D01*
X127715000Y-126555000D02*
X127215000Y-126055000D01*
X127215000Y-126055000D02*
X127215000Y-127055000D01*
X127915000Y-120145000D02*
X128225000Y-120145000D01*
X132435000Y-120145000D02*
X132435000Y-128965000D01*
X132435000Y-120145000D02*
X132125000Y-120145000D01*
D16*
X134620000Y-58420000D02*
X135720000Y-58420000D01*
X136120000Y-58420000D02*
X137220000Y-58420000D01*
X137620000Y-58420000D02*
X138720000Y-58420000D01*
X139120000Y-58420000D02*
X140220000Y-58420000D01*
X140620000Y-58420000D02*
X141720000Y-58420000D01*
X142120000Y-58420000D02*
X142240000Y-58420000D01*
X142240000Y-58420000D02*
X142240000Y-59520000D01*
X142240000Y-59920000D02*
X142240000Y-61020000D01*
X142240000Y-61420000D02*
X142240000Y-62230000D01*
X142240000Y-62230000D02*
X141140000Y-62230000D01*
X140740000Y-62230000D02*
X139640000Y-62230000D01*
X139240000Y-62230000D02*
X138140000Y-62230000D01*
X137740000Y-62230000D02*
X136640000Y-62230000D01*
X136240000Y-62230000D02*
X135140000Y-62230000D01*
X134740000Y-62230000D02*
X134620000Y-62230000D01*
X134620000Y-62230000D02*
X134620000Y-61130000D01*
X134620000Y-60730000D02*
X134620000Y-59630000D01*
X134620000Y-59230000D02*
X134620000Y-58420000D01*
X153670000Y-111760000D02*
X123190000Y-111760000D01*
X123190000Y-111760000D02*
X123190000Y-58420000D01*
X123190000Y-58420000D02*
X153670000Y-58420000D01*
X153670000Y-58420000D02*
X153670000Y-111760000D01*
D17*
X86236000Y-61700000D02*
X86236000Y-65300000D01*
X88116000Y-59820000D02*
X91716000Y-59820000D01*
X88116000Y-67180000D02*
X91716000Y-67180000D01*
X93596000Y-61700000D02*
X93596000Y-65300000D01*
X123322936Y-113890000D02*
X124777064Y-113890000D01*
X123322936Y-115710000D02*
X124777064Y-115710000D01*
X168198748Y-99420000D02*
X169621252Y-99420000D01*
X168198748Y-101240000D02*
X169621252Y-101240000D01*
D16*
X121920000Y-76200000D02*
X86360000Y-76200000D01*
X86360000Y-76200000D02*
X86360000Y-101600000D01*
X86360000Y-101600000D02*
X121920000Y-101600000D01*
X121920000Y-101600000D02*
X121920000Y-76200000D01*
X90570000Y-93110000D02*
X88030000Y-93110000D01*
X88030000Y-93110000D02*
X88030000Y-96190000D01*
X88030000Y-96190000D02*
X90570000Y-96190000D01*
X90570000Y-96190000D02*
X90570000Y-93110000D01*
D18*
X89425000Y-94650000D02*
G75*
G03*
X89425000Y-94650000I-125000J0D01*
G01*
D16*
X90300000Y-94650000D02*
G75*
G03*
X90300000Y-94650000I-1000000J0D01*
G01*
D17*
X109082500Y-113800000D02*
X109082500Y-116070000D01*
X109082500Y-116070000D02*
X113142500Y-116070000D01*
X113142500Y-113800000D02*
X109082500Y-113800000D01*
X94848000Y-59385252D02*
X94848000Y-57962748D01*
X96668000Y-59385252D02*
X96668000Y-57962748D01*
X162022936Y-104290000D02*
X163477064Y-104290000D01*
X162022936Y-106110000D02*
X163477064Y-106110000D01*
X86300000Y-107890000D02*
X87630000Y-107890000D01*
X86300000Y-109220000D02*
X86300000Y-107890000D01*
X86300000Y-110490000D02*
X86300000Y-118170000D01*
X86300000Y-110490000D02*
X88960000Y-110490000D01*
X86300000Y-118170000D02*
X88960000Y-118170000D01*
X88960000Y-110490000D02*
X88960000Y-118170000D01*
D14*
X113696000Y-73564000D02*
X101696000Y-73564000D01*
X113696000Y-61564000D02*
X113696000Y-73564000D01*
X101696000Y-73564000D02*
X101696000Y-61564000D01*
X101696000Y-61564000D02*
X113696000Y-61564000D01*
D19*
X114894676Y-72724000D02*
G75*
G03*
X114894676Y-72724000I-218676J0D01*
G01*
D17*
X106045000Y-123190000D02*
X106045000Y-130810000D01*
X106045000Y-130810000D02*
X116205000Y-130810000D01*
X116205000Y-123190000D02*
X106045000Y-123190000D01*
X116205000Y-129540000D02*
X106045000Y-129540000D01*
X116205000Y-130810000D02*
X116205000Y-123190000D01*
X98023000Y-59385252D02*
X98023000Y-57962748D01*
X99843000Y-59385252D02*
X99843000Y-57962748D01*
X96460000Y-119440000D02*
X96460000Y-118110000D01*
X97790000Y-119440000D02*
X96460000Y-119440000D01*
X99060000Y-119440000D02*
X101660000Y-119440000D01*
X99060000Y-119440000D02*
X99060000Y-116780000D01*
X101660000Y-119440000D02*
X101660000Y-116780000D01*
X99060000Y-116780000D02*
X101660000Y-116780000D01*
X93980000Y-123190000D02*
X93980000Y-130810000D01*
X93980000Y-130810000D02*
X104140000Y-130810000D01*
X104140000Y-123190000D02*
X93980000Y-123190000D01*
X104140000Y-129540000D02*
X93980000Y-129540000D01*
X104140000Y-130810000D02*
X104140000Y-123190000D01*
X103748500Y-104275000D02*
X103748500Y-106545000D01*
X103748500Y-106545000D02*
X107808500Y-106545000D01*
X107808500Y-104275000D02*
X103748500Y-104275000D01*
D16*
X160680000Y-107300000D02*
X179680000Y-107300000D01*
X179680000Y-107300000D02*
X179680000Y-121300000D01*
X179680000Y-121300000D02*
X160680000Y-121300000D01*
X160680000Y-121300000D02*
X160680000Y-107300000D01*
D17*
X177740000Y-55820000D02*
X179070000Y-55820000D01*
X177740000Y-57150000D02*
X177740000Y-55820000D01*
X177740000Y-58420000D02*
X177740000Y-66100000D01*
X177740000Y-58420000D02*
X180400000Y-58420000D01*
X177740000Y-66100000D02*
X180400000Y-66100000D01*
X180400000Y-58420000D02*
X180400000Y-66100000D01*
X91452248Y-103484000D02*
X92874752Y-103484000D01*
X91452248Y-105304000D02*
X92874752Y-105304000D01*
X105418936Y-108310000D02*
X106873064Y-108310000D01*
X105418936Y-110130000D02*
X106873064Y-110130000D01*
X177740000Y-71070000D02*
X179070000Y-71070000D01*
X177740000Y-72400000D02*
X177740000Y-71070000D01*
X177740000Y-73670000D02*
X177740000Y-81350000D01*
X177740000Y-73670000D02*
X180400000Y-73670000D01*
X177740000Y-81350000D02*
X180400000Y-81350000D01*
X180400000Y-73670000D02*
X180400000Y-81350000D01*
X110752936Y-110850000D02*
X112207064Y-110850000D01*
X110752936Y-112670000D02*
X112207064Y-112670000D01*
X159572936Y-61320000D02*
X161027064Y-61320000D01*
X159572936Y-63140000D02*
X161027064Y-63140000D01*
X109160000Y-119440000D02*
X109160000Y-118110000D01*
X110490000Y-119440000D02*
X109160000Y-119440000D01*
X111760000Y-119440000D02*
X114360000Y-119440000D01*
X111760000Y-119440000D02*
X111760000Y-116780000D01*
X114360000Y-119440000D02*
X114360000Y-116780000D01*
X111760000Y-116780000D02*
X114360000Y-116780000D01*
X135890000Y-123190000D02*
X135890000Y-130810000D01*
X135890000Y-130810000D02*
X146050000Y-130810000D01*
X146050000Y-123190000D02*
X135890000Y-123190000D01*
X146050000Y-129540000D02*
X135890000Y-129540000D01*
X146050000Y-130810000D02*
X146050000Y-123190000D01*
X152526248Y-115290000D02*
X153948752Y-115290000D01*
X152526248Y-117110000D02*
X153948752Y-117110000D01*
X172660000Y-55820000D02*
X173990000Y-55820000D01*
X172660000Y-57150000D02*
X172660000Y-55820000D01*
X172660000Y-58420000D02*
X172660000Y-66100000D01*
X172660000Y-58420000D02*
X175320000Y-58420000D01*
X172660000Y-66100000D02*
X175320000Y-66100000D01*
X175320000Y-58420000D02*
X175320000Y-66100000D01*
%LPC*%
D20*
X166380000Y-67310000D03*
X166380000Y-77470000D03*
D21*
X158750000Y-66040000D03*
D22*
X158750000Y-68580000D03*
X158750000Y-71120000D03*
X158750000Y-73660000D03*
X158750000Y-76200000D03*
X158750000Y-78740000D03*
D23*
X167372500Y-104330000D03*
X170472500Y-104330000D03*
X164465000Y-62230000D03*
X167565000Y-62230000D03*
D22*
X182372000Y-100584000D03*
D24*
X97355000Y-114935000D03*
X100330000Y-114935000D03*
D25*
X173472500Y-91900000D03*
D26*
X173472500Y-94440000D03*
D27*
X140208000Y-115128000D03*
X140208000Y-117028000D03*
D28*
X142494000Y-116078000D03*
D29*
X125500000Y-54000000D03*
D23*
X117550000Y-109855000D03*
X120650000Y-109855000D03*
D30*
X122555000Y-128655000D03*
X122555000Y-120455000D03*
D31*
X122555000Y-126555000D03*
D32*
X122555000Y-124555000D03*
X122555000Y-122555000D03*
D23*
X167372500Y-95440000D03*
X170472500Y-95440000D03*
D33*
X98896500Y-63500000D03*
X95921500Y-63500000D03*
D25*
X143256000Y-55372000D03*
D26*
X145796000Y-55372000D03*
X148336000Y-55372000D03*
X150876000Y-55372000D03*
D25*
X173472500Y-100790000D03*
D26*
X173472500Y-103330000D03*
D23*
X145900000Y-114200000D03*
X149000000Y-114200000D03*
X155500000Y-105200000D03*
X158600000Y-105200000D03*
D34*
X149860000Y-127000000D03*
D29*
X154940000Y-127000000D03*
D35*
X156887500Y-99025000D03*
X156887500Y-99675000D03*
X156887500Y-100325000D03*
X156887500Y-100975000D03*
X161112500Y-100975000D03*
X161112500Y-100325000D03*
X161112500Y-99675000D03*
X161112500Y-99025000D03*
D23*
X131500000Y-114600000D03*
X134600000Y-114600000D03*
D24*
X117675000Y-106045000D03*
X120650000Y-106045000D03*
D36*
X117094000Y-71158500D03*
X117094000Y-68033500D03*
D37*
X167347500Y-91440000D03*
X170472500Y-91440000D03*
D23*
X145900000Y-118000000D03*
X149000000Y-118000000D03*
D36*
X120015000Y-71158500D03*
X120015000Y-68033500D03*
D23*
X131500000Y-117200000D03*
X134600000Y-117200000D03*
X97230000Y-111760000D03*
X100330000Y-111760000D03*
D38*
X88900000Y-129540000D03*
X180340000Y-129540000D03*
D25*
X166751000Y-55626000D03*
D26*
X164211000Y-55626000D03*
X161671000Y-55626000D03*
X159131000Y-55626000D03*
D30*
X130175000Y-128655000D03*
X130175000Y-120455000D03*
D31*
X130175000Y-126555000D03*
D32*
X130175000Y-124555000D03*
X130175000Y-122555000D03*
D22*
X182372000Y-103632000D03*
D39*
X125730000Y-68580000D03*
X125730000Y-71120000D03*
X125730000Y-73660000D03*
X125730000Y-76200000D03*
X125730000Y-78740000D03*
X125730000Y-81280000D03*
X125730000Y-83820000D03*
X125730000Y-86360000D03*
X125730000Y-88900000D03*
X125730000Y-91440000D03*
X125730000Y-93980000D03*
X125730000Y-96520000D03*
X125730000Y-99060000D03*
X125730000Y-101600000D03*
X125730000Y-104140000D03*
X151130000Y-104140000D03*
X151130000Y-101600000D03*
X151130000Y-99060000D03*
X151130000Y-96520000D03*
X151130000Y-93980000D03*
X151130000Y-91440000D03*
X151130000Y-88900000D03*
X151130000Y-86360000D03*
X151130000Y-83820000D03*
X151130000Y-81280000D03*
X151130000Y-78740000D03*
X151130000Y-76200000D03*
X151130000Y-73660000D03*
X151130000Y-71120000D03*
X151130000Y-68580000D03*
D22*
X177800000Y-91440000D03*
D40*
X89916000Y-63500000D03*
D41*
X87376000Y-60960000D03*
X87376000Y-66040000D03*
X92456000Y-60960000D03*
X92456000Y-66040000D03*
D23*
X122500000Y-114800000D03*
X125600000Y-114800000D03*
D37*
X167347500Y-100330000D03*
X170472500Y-100330000D03*
D20*
X119380000Y-78740000D03*
X88900000Y-78740000D03*
X119380000Y-99060000D03*
X88900000Y-99060000D03*
D42*
X120650000Y-85090000D03*
D22*
X120650000Y-87630000D03*
X120650000Y-90170000D03*
X120650000Y-92710000D03*
D24*
X110055000Y-114935000D03*
X113030000Y-114935000D03*
D38*
X180340000Y-49530000D03*
D36*
X95758000Y-60236500D03*
X95758000Y-57111500D03*
D22*
X177800000Y-100584000D03*
D23*
X161200000Y-105200000D03*
X164300000Y-105200000D03*
D25*
X87630000Y-109220000D03*
D26*
X87630000Y-111760000D03*
X87630000Y-114300000D03*
X87630000Y-116840000D03*
D43*
X113696000Y-71314000D03*
X113696000Y-70064000D03*
X113696000Y-68814000D03*
X113696000Y-67564000D03*
X113696000Y-66314000D03*
X113696000Y-65064000D03*
X113696000Y-63814000D03*
D44*
X111446000Y-61564000D03*
X110196000Y-61564000D03*
X108946000Y-61564000D03*
X107696000Y-61564000D03*
X106446000Y-61564000D03*
X105196000Y-61564000D03*
X103946000Y-61564000D03*
D43*
X101696000Y-63814000D03*
X101696000Y-65064000D03*
X101696000Y-66314000D03*
X101696000Y-67564000D03*
X101696000Y-68814000D03*
X101696000Y-70064000D03*
X101696000Y-71314000D03*
D44*
X103946000Y-73564000D03*
X105196000Y-73564000D03*
X106446000Y-73564000D03*
X107696000Y-73564000D03*
X108946000Y-73564000D03*
X110196000Y-73564000D03*
X111446000Y-73564000D03*
D34*
X108585000Y-127000000D03*
D29*
X113665000Y-127000000D03*
D36*
X98933000Y-60236500D03*
X98933000Y-57111500D03*
D25*
X97790000Y-118110000D03*
D26*
X100330000Y-118110000D03*
D34*
X96520000Y-127000000D03*
D29*
X101600000Y-127000000D03*
D24*
X104721000Y-105410000D03*
X107696000Y-105410000D03*
D45*
X160655000Y-108966000D03*
X160655000Y-117221000D03*
X160655000Y-119471000D03*
X179680000Y-108839000D03*
X179680000Y-117094000D03*
D25*
X179070000Y-57150000D03*
D26*
X179070000Y-59690000D03*
X179070000Y-62230000D03*
X179070000Y-64770000D03*
D37*
X90601000Y-104394000D03*
X93726000Y-104394000D03*
D22*
X182372000Y-94488000D03*
D23*
X104596000Y-109220000D03*
X107696000Y-109220000D03*
D25*
X179070000Y-72400000D03*
D26*
X179070000Y-74940000D03*
X179070000Y-77480000D03*
X179070000Y-80020000D03*
D23*
X109930000Y-111760000D03*
X113030000Y-111760000D03*
X158750000Y-62230000D03*
X161850000Y-62230000D03*
D22*
X177800000Y-94488000D03*
D25*
X110490000Y-118110000D03*
D26*
X113030000Y-118110000D03*
D22*
X177800000Y-103632000D03*
D34*
X138430000Y-127000000D03*
D29*
X143510000Y-127000000D03*
D38*
X88900000Y-49530000D03*
D37*
X151675000Y-116200000D03*
X154800000Y-116200000D03*
D25*
X173990000Y-57150000D03*
D26*
X173990000Y-59690000D03*
X173990000Y-62230000D03*
X173990000Y-64770000D03*
D22*
X182372000Y-91440000D03*
%LPD*%
M02*
