G04 #@! TF.GenerationSoftware,KiCad,Pcbnew,7.0.2*
G04 #@! TF.CreationDate,2023-05-19T21:16:44-06:00*
G04 #@! TF.ProjectId,Project-Supernova-PCB,50726f6a-6563-4742-9d53-757065726e6f,rev?*
G04 #@! TF.SameCoordinates,Original*
G04 #@! TF.FileFunction,Paste,Top*
G04 #@! TF.FilePolarity,Positive*
%FSLAX46Y46*%
G04 Gerber Fmt 4.6, Leading zero omitted, Abs format (unit mm)*
G04 Created by KiCad (PCBNEW 7.0.2) date 2023-05-19 21:16:44*
%MOMM*%
%LPD*%
G01*
G04 APERTURE LIST*
G04 Aperture macros list*
%AMRoundRect*
0 Rectangle with rounded corners*
0 $1 Rounding radius*
0 $2 $3 $4 $5 $6 $7 $8 $9 X,Y pos of 4 corners*
0 Add a 4 corners polygon primitive as box body*
4,1,4,$2,$3,$4,$5,$6,$7,$8,$9,$2,$3,0*
0 Add four circle primitives for the rounded corners*
1,1,$1+$1,$2,$3*
1,1,$1+$1,$4,$5*
1,1,$1+$1,$6,$7*
1,1,$1+$1,$8,$9*
0 Add four rect primitives between the rounded corners*
20,1,$1+$1,$2,$3,$4,$5,0*
20,1,$1+$1,$4,$5,$6,$7,0*
20,1,$1+$1,$6,$7,$8,$9,0*
20,1,$1+$1,$8,$9,$2,$3,0*%
G04 Aperture macros list end*
%ADD10RoundRect,0.250000X-0.400000X-0.625000X0.400000X-0.625000X0.400000X0.625000X-0.400000X0.625000X0*%
%ADD11RoundRect,0.150000X-0.587500X-0.150000X0.587500X-0.150000X0.587500X0.150000X-0.587500X0.150000X0*%
%ADD12RoundRect,0.250001X0.462499X0.624999X-0.462499X0.624999X-0.462499X-0.624999X0.462499X-0.624999X0*%
%ADD13RoundRect,0.250000X0.650000X-0.412500X0.650000X0.412500X-0.650000X0.412500X-0.650000X-0.412500X0*%
%ADD14RoundRect,0.250000X-0.412500X-0.650000X0.412500X-0.650000X0.412500X0.650000X-0.412500X0.650000X0*%
%ADD15R,5.080000X2.420000*%
%ADD16R,5.080000X2.290000*%
%ADD17R,2.300000X0.800000*%
%ADD18R,0.800000X2.300000*%
%ADD19RoundRect,0.150000X-0.825000X-0.150000X0.825000X-0.150000X0.825000X0.150000X-0.825000X0.150000X0*%
%ADD20RoundRect,0.381000X-1.369000X-0.381000X1.369000X-0.381000X1.369000X0.381000X-1.369000X0.381000X0*%
G04 APERTURE END LIST*
D10*
X167372500Y-104330000D03*
X170472500Y-104330000D03*
D11*
X137825000Y-114620000D03*
X137825000Y-116520000D03*
X139700000Y-115570000D03*
D10*
X170472500Y-95440000D03*
X167372500Y-95440000D03*
D12*
X95921500Y-63500000D03*
X98896500Y-63500000D03*
D10*
X158470000Y-105410000D03*
X161570000Y-105410000D03*
D13*
X117094000Y-68033500D03*
X117094000Y-71158500D03*
D14*
X170472500Y-91440000D03*
X167347500Y-91440000D03*
D13*
X120015000Y-68033500D03*
X120015000Y-71158500D03*
D10*
X160300000Y-88900000D03*
X157200000Y-88900000D03*
D15*
X89414000Y-65213000D03*
X89414000Y-56453000D03*
D16*
X89414000Y-60833000D03*
D14*
X170472500Y-100330000D03*
X167347500Y-100330000D03*
D13*
X95758000Y-57111500D03*
X95758000Y-60236500D03*
D10*
X160300000Y-85090000D03*
X157200000Y-85090000D03*
D17*
X113696000Y-71314000D03*
X113696000Y-70064000D03*
X113696000Y-68814000D03*
X113696000Y-67564000D03*
X113696000Y-66314000D03*
X113696000Y-65064000D03*
X113696000Y-63814000D03*
D18*
X111446000Y-61564000D03*
X110196000Y-61564000D03*
X108946000Y-61564000D03*
X107696000Y-61564000D03*
X106446000Y-61564000D03*
X105196000Y-61564000D03*
X103946000Y-61564000D03*
D17*
X101696000Y-63814000D03*
X101696000Y-65064000D03*
X101696000Y-66314000D03*
X101696000Y-67564000D03*
X101696000Y-68814000D03*
X101696000Y-70064000D03*
X101696000Y-71314000D03*
D18*
X103946000Y-73564000D03*
X105196000Y-73564000D03*
X106446000Y-73564000D03*
X107696000Y-73564000D03*
X108946000Y-73564000D03*
X110196000Y-73564000D03*
X111446000Y-73564000D03*
D13*
X98933000Y-57111500D03*
X98933000Y-60236500D03*
D19*
X157545000Y-97155000D03*
X157545000Y-98425000D03*
X157545000Y-99695000D03*
X157545000Y-100965000D03*
X162495000Y-100965000D03*
X162495000Y-99695000D03*
X162495000Y-98425000D03*
X162495000Y-97155000D03*
D20*
X160680000Y-108550000D03*
X160680000Y-118050000D03*
X160680000Y-120300000D03*
X179680000Y-108550000D03*
X179680000Y-117300000D03*
D14*
X87337500Y-104140000D03*
X90462500Y-104140000D03*
M02*
