G04 #@! TF.GenerationSoftware,KiCad,Pcbnew,7.0.2*
G04 #@! TF.CreationDate,2023-05-19T21:16:44-06:00*
G04 #@! TF.ProjectId,Project-Supernova-PCB,50726f6a-6563-4742-9d53-757065726e6f,rev?*
G04 #@! TF.SameCoordinates,Original*
G04 #@! TF.FileFunction,Legend,Bot*
G04 #@! TF.FilePolarity,Positive*
%FSLAX46Y46*%
G04 Gerber Fmt 4.6, Leading zero omitted, Abs format (unit mm)*
G04 Created by KiCad (PCBNEW 7.0.2) date 2023-05-19 21:16:44*
%MOMM*%
%LPD*%
G01*
G04 APERTURE LIST*
%ADD10C,0.150000*%
%ADD11C,5.600000*%
%ADD12C,2.000000*%
%ADD13R,1.900000X1.900000*%
%ADD14C,3.500000*%
%ADD15R,1.700000X1.700000*%
%ADD16O,1.700000X1.700000*%
%ADD17O,3.500000X2.200000*%
%ADD18R,2.500000X1.500000*%
%ADD19O,2.500000X1.500000*%
%ADD20R,3.000000X3.000000*%
%ADD21C,3.000000*%
%ADD22C,1.524000*%
%ADD23R,5.080000X2.420000*%
%ADD24R,2.000000X2.000000*%
G04 APERTURE END LIST*
D10*
X111633000Y-57404000D02*
X163957000Y-57404000D01*
X163957000Y-113792000D01*
X111633000Y-113792000D01*
X111633000Y-57404000D01*
G36*
X111633000Y-57404000D02*
G01*
X163957000Y-57404000D01*
X163957000Y-113792000D01*
X111633000Y-113792000D01*
X111633000Y-57404000D01*
G37*
%LPC*%
D11*
X88900000Y-129540000D03*
X180340000Y-129540000D03*
X88900000Y-49530000D03*
X180340000Y-49530000D03*
D12*
X161290000Y-78740000D03*
X161290000Y-76200000D03*
X161290000Y-73660000D03*
X161290000Y-71120000D03*
X161290000Y-68580000D03*
D13*
X161290000Y-66040000D03*
D14*
X168920000Y-77470000D03*
X168920000Y-67310000D03*
D15*
X173472500Y-91900000D03*
D16*
X173472500Y-94440000D03*
D17*
X120650000Y-130120000D03*
X120650000Y-121920000D03*
D18*
X120650000Y-128020000D03*
D19*
X120650000Y-126020000D03*
X120650000Y-124020000D03*
D16*
X173472500Y-103330000D03*
D15*
X173472500Y-100790000D03*
D20*
X149860000Y-127000000D03*
D21*
X154940000Y-127000000D03*
D15*
X99060000Y-104140000D03*
D16*
X99060000Y-106680000D03*
D15*
X166751000Y-55626000D03*
D16*
X164211000Y-55626000D03*
X161671000Y-55626000D03*
X159131000Y-55626000D03*
D19*
X128270000Y-124020000D03*
X128270000Y-126020000D03*
D18*
X128270000Y-128020000D03*
D17*
X128270000Y-121920000D03*
X128270000Y-130120000D03*
D22*
X125730000Y-68580000D03*
X125730000Y-71120000D03*
X125730000Y-73660000D03*
X125730000Y-76200000D03*
X125730000Y-78740000D03*
X125730000Y-81280000D03*
X125730000Y-83820000D03*
X125730000Y-86360000D03*
X125730000Y-88900000D03*
X125730000Y-91440000D03*
X125730000Y-93980000D03*
X125730000Y-96520000D03*
X125730000Y-99060000D03*
X125730000Y-101600000D03*
X125730000Y-104140000D03*
X151130000Y-104140000D03*
X151130000Y-101600000D03*
X151130000Y-99060000D03*
X151130000Y-96520000D03*
X151130000Y-93980000D03*
X151130000Y-91440000D03*
X151130000Y-88900000D03*
X151130000Y-86360000D03*
X151130000Y-83820000D03*
X151130000Y-81280000D03*
X151130000Y-78740000D03*
X151130000Y-76200000D03*
X151130000Y-73660000D03*
X151130000Y-71120000D03*
X151130000Y-68580000D03*
D23*
X89414000Y-65213000D03*
X89414000Y-56453000D03*
D14*
X119380000Y-78740000D03*
X88900000Y-78740000D03*
X119380000Y-99060000D03*
X88900000Y-99060000D03*
D24*
X120650000Y-85090000D03*
D12*
X120650000Y-87630000D03*
X120650000Y-90170000D03*
X120650000Y-92710000D03*
D15*
X87630000Y-109220000D03*
D16*
X87630000Y-111760000D03*
X87630000Y-114300000D03*
X87630000Y-116840000D03*
D21*
X113665000Y-125730000D03*
D20*
X108585000Y-125730000D03*
D15*
X97790000Y-116840000D03*
D16*
X100330000Y-116840000D03*
D20*
X96520000Y-125730000D03*
D21*
X101600000Y-125730000D03*
D16*
X113030000Y-116840000D03*
D15*
X110490000Y-116840000D03*
D21*
X140970000Y-127000000D03*
D20*
X135890000Y-127000000D03*
%LPD*%
M02*
