%TF.GenerationSoftware,KiCad,Pcbnew,7.0.5*%
%TF.CreationDate,2023-07-24T05:32:39-06:00*%
%TF.ProjectId,Project-Supernova-PCB,50726f6a-6563-4742-9d53-757065726e6f,rev?*%
%TF.SameCoordinates,Original*%
%TF.FileFunction,Drillmap*%
%TF.FilePolarity,Positive*%
%FSLAX45Y45*%
G04 Gerber Fmt 4.5, Leading zero omitted, Abs format (unit mm)*
G04 Created by KiCad (PCBNEW 7.0.5) date 2023-07-24 05:32:39*
%MOMM*%
%LPD*%
G01*
G04 APERTURE LIST*
%ADD10C,0.100000*%
%ADD11C,0.200000*%
%ADD12C,0.320000*%
G04 APERTURE END LIST*
D10*
X8509000Y-4572000D02*
X18415000Y-4572000D01*
X18415000Y-13335000D01*
X8509000Y-13335000D01*
X8509000Y-4572000D01*
D11*
X17680000Y-9044000D02*
X17880000Y-9244000D01*
X17880000Y-9044000D02*
X17680000Y-9244000D01*
X17680000Y-9348800D02*
X17880000Y-9548800D01*
X17880000Y-9348800D02*
X17680000Y-9548800D01*
X17680000Y-9958400D02*
X17880000Y-10158400D01*
X17880000Y-9958400D02*
X17680000Y-10158400D01*
X17680000Y-10263200D02*
X17880000Y-10463200D01*
X17880000Y-10263200D02*
X17680000Y-10463200D01*
X18137200Y-9044000D02*
X18337200Y-9244000D01*
X18337200Y-9044000D02*
X18137200Y-9244000D01*
X18137200Y-9348800D02*
X18337200Y-9548800D01*
X18337200Y-9348800D02*
X18137200Y-9548800D01*
X18137200Y-9958400D02*
X18337200Y-10158400D01*
X18337200Y-9958400D02*
X18137200Y-10158400D01*
X18137200Y-10263200D02*
X18337200Y-10463200D01*
X18337200Y-10263200D02*
X18137200Y-10463200D01*
D12*
X9050000Y-7874000D02*
G75*
G03*
X9050000Y-7874000I-160000J0D01*
G01*
X9050000Y-9906000D02*
G75*
G03*
X9050000Y-9906000I-160000J0D01*
G01*
X12098000Y-7874000D02*
G75*
G03*
X12098000Y-7874000I-160000J0D01*
G01*
X12098000Y-9906000D02*
G75*
G03*
X12098000Y-9906000I-160000J0D01*
G01*
X16798000Y-6731000D02*
G75*
G03*
X16798000Y-6731000I-160000J0D01*
G01*
X16798000Y-7747000D02*
G75*
G03*
X16798000Y-7747000I-160000J0D01*
G01*
D11*
X8764777Y-13651484D02*
X8764777Y-13451484D01*
X8764777Y-13451484D02*
X8812396Y-13451484D01*
X8812396Y-13451484D02*
X8840967Y-13461008D01*
X8840967Y-13461008D02*
X8860015Y-13480055D01*
X8860015Y-13480055D02*
X8869539Y-13499103D01*
X8869539Y-13499103D02*
X8879063Y-13537198D01*
X8879063Y-13537198D02*
X8879063Y-13565769D01*
X8879063Y-13565769D02*
X8869539Y-13603865D01*
X8869539Y-13603865D02*
X8860015Y-13622912D01*
X8860015Y-13622912D02*
X8840967Y-13641960D01*
X8840967Y-13641960D02*
X8812396Y-13651484D01*
X8812396Y-13651484D02*
X8764777Y-13651484D01*
X8964777Y-13651484D02*
X8964777Y-13518150D01*
X8964777Y-13556246D02*
X8974301Y-13537198D01*
X8974301Y-13537198D02*
X8983824Y-13527674D01*
X8983824Y-13527674D02*
X9002872Y-13518150D01*
X9002872Y-13518150D02*
X9021920Y-13518150D01*
X9088586Y-13651484D02*
X9088586Y-13518150D01*
X9088586Y-13451484D02*
X9079063Y-13461008D01*
X9079063Y-13461008D02*
X9088586Y-13470531D01*
X9088586Y-13470531D02*
X9098110Y-13461008D01*
X9098110Y-13461008D02*
X9088586Y-13451484D01*
X9088586Y-13451484D02*
X9088586Y-13470531D01*
X9212396Y-13651484D02*
X9193348Y-13641960D01*
X9193348Y-13641960D02*
X9183824Y-13622912D01*
X9183824Y-13622912D02*
X9183824Y-13451484D01*
X9317158Y-13651484D02*
X9298110Y-13641960D01*
X9298110Y-13641960D02*
X9288586Y-13622912D01*
X9288586Y-13622912D02*
X9288586Y-13451484D01*
X9545729Y-13651484D02*
X9545729Y-13451484D01*
X9545729Y-13451484D02*
X9612396Y-13594341D01*
X9612396Y-13594341D02*
X9679063Y-13451484D01*
X9679063Y-13451484D02*
X9679063Y-13651484D01*
X9860015Y-13651484D02*
X9860015Y-13546722D01*
X9860015Y-13546722D02*
X9850491Y-13527674D01*
X9850491Y-13527674D02*
X9831444Y-13518150D01*
X9831444Y-13518150D02*
X9793348Y-13518150D01*
X9793348Y-13518150D02*
X9774301Y-13527674D01*
X9860015Y-13641960D02*
X9840967Y-13651484D01*
X9840967Y-13651484D02*
X9793348Y-13651484D01*
X9793348Y-13651484D02*
X9774301Y-13641960D01*
X9774301Y-13641960D02*
X9764777Y-13622912D01*
X9764777Y-13622912D02*
X9764777Y-13603865D01*
X9764777Y-13603865D02*
X9774301Y-13584817D01*
X9774301Y-13584817D02*
X9793348Y-13575293D01*
X9793348Y-13575293D02*
X9840967Y-13575293D01*
X9840967Y-13575293D02*
X9860015Y-13565769D01*
X9955253Y-13518150D02*
X9955253Y-13718150D01*
X9955253Y-13527674D02*
X9974301Y-13518150D01*
X9974301Y-13518150D02*
X10012396Y-13518150D01*
X10012396Y-13518150D02*
X10031444Y-13527674D01*
X10031444Y-13527674D02*
X10040967Y-13537198D01*
X10040967Y-13537198D02*
X10050491Y-13556246D01*
X10050491Y-13556246D02*
X10050491Y-13613388D01*
X10050491Y-13613388D02*
X10040967Y-13632436D01*
X10040967Y-13632436D02*
X10031444Y-13641960D01*
X10031444Y-13641960D02*
X10012396Y-13651484D01*
X10012396Y-13651484D02*
X9974301Y-13651484D01*
X9974301Y-13651484D02*
X9955253Y-13641960D01*
X10136205Y-13632436D02*
X10145729Y-13641960D01*
X10145729Y-13641960D02*
X10136205Y-13651484D01*
X10136205Y-13651484D02*
X10126682Y-13641960D01*
X10126682Y-13641960D02*
X10136205Y-13632436D01*
X10136205Y-13632436D02*
X10136205Y-13651484D01*
X10136205Y-13527674D02*
X10145729Y-13537198D01*
X10145729Y-13537198D02*
X10136205Y-13546722D01*
X10136205Y-13546722D02*
X10126682Y-13537198D01*
X10126682Y-13537198D02*
X10136205Y-13527674D01*
X10136205Y-13527674D02*
X10136205Y-13546722D01*
X8304000Y-13880000D02*
X8504000Y-14080000D01*
X8504000Y-13880000D02*
X8304000Y-14080000D01*
X8755253Y-13890531D02*
X8764777Y-13881008D01*
X8764777Y-13881008D02*
X8783824Y-13871484D01*
X8783824Y-13871484D02*
X8831444Y-13871484D01*
X8831444Y-13871484D02*
X8850491Y-13881008D01*
X8850491Y-13881008D02*
X8860015Y-13890531D01*
X8860015Y-13890531D02*
X8869539Y-13909579D01*
X8869539Y-13909579D02*
X8869539Y-13928627D01*
X8869539Y-13928627D02*
X8860015Y-13957198D01*
X8860015Y-13957198D02*
X8745729Y-14071484D01*
X8745729Y-14071484D02*
X8869539Y-14071484D01*
X8955253Y-14052436D02*
X8964777Y-14061960D01*
X8964777Y-14061960D02*
X8955253Y-14071484D01*
X8955253Y-14071484D02*
X8945729Y-14061960D01*
X8945729Y-14061960D02*
X8955253Y-14052436D01*
X8955253Y-14052436D02*
X8955253Y-14071484D01*
X9088586Y-13871484D02*
X9107634Y-13871484D01*
X9107634Y-13871484D02*
X9126682Y-13881008D01*
X9126682Y-13881008D02*
X9136205Y-13890531D01*
X9136205Y-13890531D02*
X9145729Y-13909579D01*
X9145729Y-13909579D02*
X9155253Y-13947674D01*
X9155253Y-13947674D02*
X9155253Y-13995293D01*
X9155253Y-13995293D02*
X9145729Y-14033388D01*
X9145729Y-14033388D02*
X9136205Y-14052436D01*
X9136205Y-14052436D02*
X9126682Y-14061960D01*
X9126682Y-14061960D02*
X9107634Y-14071484D01*
X9107634Y-14071484D02*
X9088586Y-14071484D01*
X9088586Y-14071484D02*
X9069539Y-14061960D01*
X9069539Y-14061960D02*
X9060015Y-14052436D01*
X9060015Y-14052436D02*
X9050491Y-14033388D01*
X9050491Y-14033388D02*
X9040967Y-13995293D01*
X9040967Y-13995293D02*
X9040967Y-13947674D01*
X9040967Y-13947674D02*
X9050491Y-13909579D01*
X9050491Y-13909579D02*
X9060015Y-13890531D01*
X9060015Y-13890531D02*
X9069539Y-13881008D01*
X9069539Y-13881008D02*
X9088586Y-13871484D01*
X9279063Y-13871484D02*
X9298110Y-13871484D01*
X9298110Y-13871484D02*
X9317158Y-13881008D01*
X9317158Y-13881008D02*
X9326682Y-13890531D01*
X9326682Y-13890531D02*
X9336205Y-13909579D01*
X9336205Y-13909579D02*
X9345729Y-13947674D01*
X9345729Y-13947674D02*
X9345729Y-13995293D01*
X9345729Y-13995293D02*
X9336205Y-14033388D01*
X9336205Y-14033388D02*
X9326682Y-14052436D01*
X9326682Y-14052436D02*
X9317158Y-14061960D01*
X9317158Y-14061960D02*
X9298110Y-14071484D01*
X9298110Y-14071484D02*
X9279063Y-14071484D01*
X9279063Y-14071484D02*
X9260015Y-14061960D01*
X9260015Y-14061960D02*
X9250491Y-14052436D01*
X9250491Y-14052436D02*
X9240967Y-14033388D01*
X9240967Y-14033388D02*
X9231444Y-13995293D01*
X9231444Y-13995293D02*
X9231444Y-13947674D01*
X9231444Y-13947674D02*
X9240967Y-13909579D01*
X9240967Y-13909579D02*
X9250491Y-13890531D01*
X9250491Y-13890531D02*
X9260015Y-13881008D01*
X9260015Y-13881008D02*
X9279063Y-13871484D01*
X9469539Y-13871484D02*
X9488586Y-13871484D01*
X9488586Y-13871484D02*
X9507634Y-13881008D01*
X9507634Y-13881008D02*
X9517158Y-13890531D01*
X9517158Y-13890531D02*
X9526682Y-13909579D01*
X9526682Y-13909579D02*
X9536205Y-13947674D01*
X9536205Y-13947674D02*
X9536205Y-13995293D01*
X9536205Y-13995293D02*
X9526682Y-14033388D01*
X9526682Y-14033388D02*
X9517158Y-14052436D01*
X9517158Y-14052436D02*
X9507634Y-14061960D01*
X9507634Y-14061960D02*
X9488586Y-14071484D01*
X9488586Y-14071484D02*
X9469539Y-14071484D01*
X9469539Y-14071484D02*
X9450491Y-14061960D01*
X9450491Y-14061960D02*
X9440967Y-14052436D01*
X9440967Y-14052436D02*
X9431444Y-14033388D01*
X9431444Y-14033388D02*
X9421920Y-13995293D01*
X9421920Y-13995293D02*
X9421920Y-13947674D01*
X9421920Y-13947674D02*
X9431444Y-13909579D01*
X9431444Y-13909579D02*
X9440967Y-13890531D01*
X9440967Y-13890531D02*
X9450491Y-13881008D01*
X9450491Y-13881008D02*
X9469539Y-13871484D01*
X9621920Y-14071484D02*
X9621920Y-13938150D01*
X9621920Y-13957198D02*
X9631444Y-13947674D01*
X9631444Y-13947674D02*
X9650491Y-13938150D01*
X9650491Y-13938150D02*
X9679063Y-13938150D01*
X9679063Y-13938150D02*
X9698110Y-13947674D01*
X9698110Y-13947674D02*
X9707634Y-13966722D01*
X9707634Y-13966722D02*
X9707634Y-14071484D01*
X9707634Y-13966722D02*
X9717158Y-13947674D01*
X9717158Y-13947674D02*
X9736205Y-13938150D01*
X9736205Y-13938150D02*
X9764777Y-13938150D01*
X9764777Y-13938150D02*
X9783825Y-13947674D01*
X9783825Y-13947674D02*
X9793348Y-13966722D01*
X9793348Y-13966722D02*
X9793348Y-14071484D01*
X9888586Y-14071484D02*
X9888586Y-13938150D01*
X9888586Y-13957198D02*
X9898110Y-13947674D01*
X9898110Y-13947674D02*
X9917158Y-13938150D01*
X9917158Y-13938150D02*
X9945729Y-13938150D01*
X9945729Y-13938150D02*
X9964777Y-13947674D01*
X9964777Y-13947674D02*
X9974301Y-13966722D01*
X9974301Y-13966722D02*
X9974301Y-14071484D01*
X9974301Y-13966722D02*
X9983825Y-13947674D01*
X9983825Y-13947674D02*
X10002872Y-13938150D01*
X10002872Y-13938150D02*
X10031444Y-13938150D01*
X10031444Y-13938150D02*
X10050491Y-13947674D01*
X10050491Y-13947674D02*
X10060015Y-13966722D01*
X10060015Y-13966722D02*
X10060015Y-14071484D01*
X10450491Y-13861960D02*
X10279063Y-14119103D01*
X10707634Y-13871484D02*
X10726682Y-13871484D01*
X10726682Y-13871484D02*
X10745729Y-13881008D01*
X10745729Y-13881008D02*
X10755253Y-13890531D01*
X10755253Y-13890531D02*
X10764777Y-13909579D01*
X10764777Y-13909579D02*
X10774301Y-13947674D01*
X10774301Y-13947674D02*
X10774301Y-13995293D01*
X10774301Y-13995293D02*
X10764777Y-14033388D01*
X10764777Y-14033388D02*
X10755253Y-14052436D01*
X10755253Y-14052436D02*
X10745729Y-14061960D01*
X10745729Y-14061960D02*
X10726682Y-14071484D01*
X10726682Y-14071484D02*
X10707634Y-14071484D01*
X10707634Y-14071484D02*
X10688587Y-14061960D01*
X10688587Y-14061960D02*
X10679063Y-14052436D01*
X10679063Y-14052436D02*
X10669539Y-14033388D01*
X10669539Y-14033388D02*
X10660015Y-13995293D01*
X10660015Y-13995293D02*
X10660015Y-13947674D01*
X10660015Y-13947674D02*
X10669539Y-13909579D01*
X10669539Y-13909579D02*
X10679063Y-13890531D01*
X10679063Y-13890531D02*
X10688587Y-13881008D01*
X10688587Y-13881008D02*
X10707634Y-13871484D01*
X10860015Y-14052436D02*
X10869539Y-14061960D01*
X10869539Y-14061960D02*
X10860015Y-14071484D01*
X10860015Y-14071484D02*
X10850491Y-14061960D01*
X10850491Y-14061960D02*
X10860015Y-14052436D01*
X10860015Y-14052436D02*
X10860015Y-14071484D01*
X10993348Y-13871484D02*
X11012396Y-13871484D01*
X11012396Y-13871484D02*
X11031444Y-13881008D01*
X11031444Y-13881008D02*
X11040968Y-13890531D01*
X11040968Y-13890531D02*
X11050491Y-13909579D01*
X11050491Y-13909579D02*
X11060015Y-13947674D01*
X11060015Y-13947674D02*
X11060015Y-13995293D01*
X11060015Y-13995293D02*
X11050491Y-14033388D01*
X11050491Y-14033388D02*
X11040968Y-14052436D01*
X11040968Y-14052436D02*
X11031444Y-14061960D01*
X11031444Y-14061960D02*
X11012396Y-14071484D01*
X11012396Y-14071484D02*
X10993348Y-14071484D01*
X10993348Y-14071484D02*
X10974301Y-14061960D01*
X10974301Y-14061960D02*
X10964777Y-14052436D01*
X10964777Y-14052436D02*
X10955253Y-14033388D01*
X10955253Y-14033388D02*
X10945729Y-13995293D01*
X10945729Y-13995293D02*
X10945729Y-13947674D01*
X10945729Y-13947674D02*
X10955253Y-13909579D01*
X10955253Y-13909579D02*
X10964777Y-13890531D01*
X10964777Y-13890531D02*
X10974301Y-13881008D01*
X10974301Y-13881008D02*
X10993348Y-13871484D01*
X11126682Y-13871484D02*
X11260015Y-13871484D01*
X11260015Y-13871484D02*
X11174301Y-14071484D01*
X11364777Y-13957198D02*
X11345729Y-13947674D01*
X11345729Y-13947674D02*
X11336206Y-13938150D01*
X11336206Y-13938150D02*
X11326682Y-13919103D01*
X11326682Y-13919103D02*
X11326682Y-13909579D01*
X11326682Y-13909579D02*
X11336206Y-13890531D01*
X11336206Y-13890531D02*
X11345729Y-13881008D01*
X11345729Y-13881008D02*
X11364777Y-13871484D01*
X11364777Y-13871484D02*
X11402872Y-13871484D01*
X11402872Y-13871484D02*
X11421920Y-13881008D01*
X11421920Y-13881008D02*
X11431444Y-13890531D01*
X11431444Y-13890531D02*
X11440967Y-13909579D01*
X11440967Y-13909579D02*
X11440967Y-13919103D01*
X11440967Y-13919103D02*
X11431444Y-13938150D01*
X11431444Y-13938150D02*
X11421920Y-13947674D01*
X11421920Y-13947674D02*
X11402872Y-13957198D01*
X11402872Y-13957198D02*
X11364777Y-13957198D01*
X11364777Y-13957198D02*
X11345729Y-13966722D01*
X11345729Y-13966722D02*
X11336206Y-13976246D01*
X11336206Y-13976246D02*
X11326682Y-13995293D01*
X11326682Y-13995293D02*
X11326682Y-14033388D01*
X11326682Y-14033388D02*
X11336206Y-14052436D01*
X11336206Y-14052436D02*
X11345729Y-14061960D01*
X11345729Y-14061960D02*
X11364777Y-14071484D01*
X11364777Y-14071484D02*
X11402872Y-14071484D01*
X11402872Y-14071484D02*
X11421920Y-14061960D01*
X11421920Y-14061960D02*
X11431444Y-14052436D01*
X11431444Y-14052436D02*
X11440967Y-14033388D01*
X11440967Y-14033388D02*
X11440967Y-13995293D01*
X11440967Y-13995293D02*
X11431444Y-13976246D01*
X11431444Y-13976246D02*
X11421920Y-13966722D01*
X11421920Y-13966722D02*
X11402872Y-13957198D01*
X11507634Y-13871484D02*
X11640967Y-13871484D01*
X11640967Y-13871484D02*
X11555253Y-14071484D01*
X11707634Y-13871484D02*
X11707634Y-13909579D01*
X11783825Y-13871484D02*
X11783825Y-13909579D01*
X12079063Y-14147674D02*
X12069539Y-14138150D01*
X12069539Y-14138150D02*
X12050491Y-14109579D01*
X12050491Y-14109579D02*
X12040968Y-14090531D01*
X12040968Y-14090531D02*
X12031444Y-14061960D01*
X12031444Y-14061960D02*
X12021920Y-14014341D01*
X12021920Y-14014341D02*
X12021920Y-13976246D01*
X12021920Y-13976246D02*
X12031444Y-13928627D01*
X12031444Y-13928627D02*
X12040968Y-13900055D01*
X12040968Y-13900055D02*
X12050491Y-13881008D01*
X12050491Y-13881008D02*
X12069539Y-13852436D01*
X12069539Y-13852436D02*
X12079063Y-13842912D01*
X12183825Y-13957198D02*
X12164777Y-13947674D01*
X12164777Y-13947674D02*
X12155253Y-13938150D01*
X12155253Y-13938150D02*
X12145729Y-13919103D01*
X12145729Y-13919103D02*
X12145729Y-13909579D01*
X12145729Y-13909579D02*
X12155253Y-13890531D01*
X12155253Y-13890531D02*
X12164777Y-13881008D01*
X12164777Y-13881008D02*
X12183825Y-13871484D01*
X12183825Y-13871484D02*
X12221920Y-13871484D01*
X12221920Y-13871484D02*
X12240968Y-13881008D01*
X12240968Y-13881008D02*
X12250491Y-13890531D01*
X12250491Y-13890531D02*
X12260015Y-13909579D01*
X12260015Y-13909579D02*
X12260015Y-13919103D01*
X12260015Y-13919103D02*
X12250491Y-13938150D01*
X12250491Y-13938150D02*
X12240968Y-13947674D01*
X12240968Y-13947674D02*
X12221920Y-13957198D01*
X12221920Y-13957198D02*
X12183825Y-13957198D01*
X12183825Y-13957198D02*
X12164777Y-13966722D01*
X12164777Y-13966722D02*
X12155253Y-13976246D01*
X12155253Y-13976246D02*
X12145729Y-13995293D01*
X12145729Y-13995293D02*
X12145729Y-14033388D01*
X12145729Y-14033388D02*
X12155253Y-14052436D01*
X12155253Y-14052436D02*
X12164777Y-14061960D01*
X12164777Y-14061960D02*
X12183825Y-14071484D01*
X12183825Y-14071484D02*
X12221920Y-14071484D01*
X12221920Y-14071484D02*
X12240968Y-14061960D01*
X12240968Y-14061960D02*
X12250491Y-14052436D01*
X12250491Y-14052436D02*
X12260015Y-14033388D01*
X12260015Y-14033388D02*
X12260015Y-13995293D01*
X12260015Y-13995293D02*
X12250491Y-13976246D01*
X12250491Y-13976246D02*
X12240968Y-13966722D01*
X12240968Y-13966722D02*
X12221920Y-13957198D01*
X12498110Y-14071484D02*
X12498110Y-13871484D01*
X12583825Y-14071484D02*
X12583825Y-13966722D01*
X12583825Y-13966722D02*
X12574301Y-13947674D01*
X12574301Y-13947674D02*
X12555253Y-13938150D01*
X12555253Y-13938150D02*
X12526682Y-13938150D01*
X12526682Y-13938150D02*
X12507634Y-13947674D01*
X12507634Y-13947674D02*
X12498110Y-13957198D01*
X12707634Y-14071484D02*
X12688587Y-14061960D01*
X12688587Y-14061960D02*
X12679063Y-14052436D01*
X12679063Y-14052436D02*
X12669539Y-14033388D01*
X12669539Y-14033388D02*
X12669539Y-13976246D01*
X12669539Y-13976246D02*
X12679063Y-13957198D01*
X12679063Y-13957198D02*
X12688587Y-13947674D01*
X12688587Y-13947674D02*
X12707634Y-13938150D01*
X12707634Y-13938150D02*
X12736206Y-13938150D01*
X12736206Y-13938150D02*
X12755253Y-13947674D01*
X12755253Y-13947674D02*
X12764777Y-13957198D01*
X12764777Y-13957198D02*
X12774301Y-13976246D01*
X12774301Y-13976246D02*
X12774301Y-14033388D01*
X12774301Y-14033388D02*
X12764777Y-14052436D01*
X12764777Y-14052436D02*
X12755253Y-14061960D01*
X12755253Y-14061960D02*
X12736206Y-14071484D01*
X12736206Y-14071484D02*
X12707634Y-14071484D01*
X12888587Y-14071484D02*
X12869539Y-14061960D01*
X12869539Y-14061960D02*
X12860015Y-14042912D01*
X12860015Y-14042912D02*
X12860015Y-13871484D01*
X13040968Y-14061960D02*
X13021920Y-14071484D01*
X13021920Y-14071484D02*
X12983825Y-14071484D01*
X12983825Y-14071484D02*
X12964777Y-14061960D01*
X12964777Y-14061960D02*
X12955253Y-14042912D01*
X12955253Y-14042912D02*
X12955253Y-13966722D01*
X12955253Y-13966722D02*
X12964777Y-13947674D01*
X12964777Y-13947674D02*
X12983825Y-13938150D01*
X12983825Y-13938150D02*
X13021920Y-13938150D01*
X13021920Y-13938150D02*
X13040968Y-13947674D01*
X13040968Y-13947674D02*
X13050491Y-13966722D01*
X13050491Y-13966722D02*
X13050491Y-13985769D01*
X13050491Y-13985769D02*
X12955253Y-14004817D01*
X13126682Y-14061960D02*
X13145730Y-14071484D01*
X13145730Y-14071484D02*
X13183825Y-14071484D01*
X13183825Y-14071484D02*
X13202872Y-14061960D01*
X13202872Y-14061960D02*
X13212396Y-14042912D01*
X13212396Y-14042912D02*
X13212396Y-14033388D01*
X13212396Y-14033388D02*
X13202872Y-14014341D01*
X13202872Y-14014341D02*
X13183825Y-14004817D01*
X13183825Y-14004817D02*
X13155253Y-14004817D01*
X13155253Y-14004817D02*
X13136206Y-13995293D01*
X13136206Y-13995293D02*
X13126682Y-13976246D01*
X13126682Y-13976246D02*
X13126682Y-13966722D01*
X13126682Y-13966722D02*
X13136206Y-13947674D01*
X13136206Y-13947674D02*
X13155253Y-13938150D01*
X13155253Y-13938150D02*
X13183825Y-13938150D01*
X13183825Y-13938150D02*
X13202872Y-13947674D01*
X13279063Y-14147674D02*
X13288587Y-14138150D01*
X13288587Y-14138150D02*
X13307634Y-14109579D01*
X13307634Y-14109579D02*
X13317158Y-14090531D01*
X13317158Y-14090531D02*
X13326682Y-14061960D01*
X13326682Y-14061960D02*
X13336206Y-14014341D01*
X13336206Y-14014341D02*
X13336206Y-13976246D01*
X13336206Y-13976246D02*
X13326682Y-13928627D01*
X13326682Y-13928627D02*
X13317158Y-13900055D01*
X13317158Y-13900055D02*
X13307634Y-13881008D01*
X13307634Y-13881008D02*
X13288587Y-13852436D01*
X13288587Y-13852436D02*
X13279063Y-13842912D01*
X13640968Y-14147674D02*
X13631444Y-14138150D01*
X13631444Y-14138150D02*
X13612396Y-14109579D01*
X13612396Y-14109579D02*
X13602872Y-14090531D01*
X13602872Y-14090531D02*
X13593349Y-14061960D01*
X13593349Y-14061960D02*
X13583825Y-14014341D01*
X13583825Y-14014341D02*
X13583825Y-13976246D01*
X13583825Y-13976246D02*
X13593349Y-13928627D01*
X13593349Y-13928627D02*
X13602872Y-13900055D01*
X13602872Y-13900055D02*
X13612396Y-13881008D01*
X13612396Y-13881008D02*
X13631444Y-13852436D01*
X13631444Y-13852436D02*
X13640968Y-13842912D01*
X13717158Y-13938150D02*
X13717158Y-14071484D01*
X13717158Y-13957198D02*
X13726682Y-13947674D01*
X13726682Y-13947674D02*
X13745730Y-13938150D01*
X13745730Y-13938150D02*
X13774301Y-13938150D01*
X13774301Y-13938150D02*
X13793349Y-13947674D01*
X13793349Y-13947674D02*
X13802872Y-13966722D01*
X13802872Y-13966722D02*
X13802872Y-14071484D01*
X13926682Y-14071484D02*
X13907634Y-14061960D01*
X13907634Y-14061960D02*
X13898111Y-14052436D01*
X13898111Y-14052436D02*
X13888587Y-14033388D01*
X13888587Y-14033388D02*
X13888587Y-13976246D01*
X13888587Y-13976246D02*
X13898111Y-13957198D01*
X13898111Y-13957198D02*
X13907634Y-13947674D01*
X13907634Y-13947674D02*
X13926682Y-13938150D01*
X13926682Y-13938150D02*
X13955253Y-13938150D01*
X13955253Y-13938150D02*
X13974301Y-13947674D01*
X13974301Y-13947674D02*
X13983825Y-13957198D01*
X13983825Y-13957198D02*
X13993349Y-13976246D01*
X13993349Y-13976246D02*
X13993349Y-14033388D01*
X13993349Y-14033388D02*
X13983825Y-14052436D01*
X13983825Y-14052436D02*
X13974301Y-14061960D01*
X13974301Y-14061960D02*
X13955253Y-14071484D01*
X13955253Y-14071484D02*
X13926682Y-14071484D01*
X14050492Y-13938150D02*
X14126682Y-13938150D01*
X14079063Y-13871484D02*
X14079063Y-14042912D01*
X14079063Y-14042912D02*
X14088587Y-14061960D01*
X14088587Y-14061960D02*
X14107634Y-14071484D01*
X14107634Y-14071484D02*
X14126682Y-14071484D01*
X14345730Y-13938150D02*
X14345730Y-14138150D01*
X14345730Y-13947674D02*
X14364777Y-13938150D01*
X14364777Y-13938150D02*
X14402873Y-13938150D01*
X14402873Y-13938150D02*
X14421920Y-13947674D01*
X14421920Y-13947674D02*
X14431444Y-13957198D01*
X14431444Y-13957198D02*
X14440968Y-13976246D01*
X14440968Y-13976246D02*
X14440968Y-14033388D01*
X14440968Y-14033388D02*
X14431444Y-14052436D01*
X14431444Y-14052436D02*
X14421920Y-14061960D01*
X14421920Y-14061960D02*
X14402873Y-14071484D01*
X14402873Y-14071484D02*
X14364777Y-14071484D01*
X14364777Y-14071484D02*
X14345730Y-14061960D01*
X14555253Y-14071484D02*
X14536206Y-14061960D01*
X14536206Y-14061960D02*
X14526682Y-14042912D01*
X14526682Y-14042912D02*
X14526682Y-13871484D01*
X14717158Y-14071484D02*
X14717158Y-13966722D01*
X14717158Y-13966722D02*
X14707634Y-13947674D01*
X14707634Y-13947674D02*
X14688587Y-13938150D01*
X14688587Y-13938150D02*
X14650492Y-13938150D01*
X14650492Y-13938150D02*
X14631444Y-13947674D01*
X14717158Y-14061960D02*
X14698111Y-14071484D01*
X14698111Y-14071484D02*
X14650492Y-14071484D01*
X14650492Y-14071484D02*
X14631444Y-14061960D01*
X14631444Y-14061960D02*
X14621920Y-14042912D01*
X14621920Y-14042912D02*
X14621920Y-14023865D01*
X14621920Y-14023865D02*
X14631444Y-14004817D01*
X14631444Y-14004817D02*
X14650492Y-13995293D01*
X14650492Y-13995293D02*
X14698111Y-13995293D01*
X14698111Y-13995293D02*
X14717158Y-13985769D01*
X14783825Y-13938150D02*
X14860015Y-13938150D01*
X14812396Y-13871484D02*
X14812396Y-14042912D01*
X14812396Y-14042912D02*
X14821920Y-14061960D01*
X14821920Y-14061960D02*
X14840968Y-14071484D01*
X14840968Y-14071484D02*
X14860015Y-14071484D01*
X15002873Y-14061960D02*
X14983825Y-14071484D01*
X14983825Y-14071484D02*
X14945730Y-14071484D01*
X14945730Y-14071484D02*
X14926682Y-14061960D01*
X14926682Y-14061960D02*
X14917158Y-14042912D01*
X14917158Y-14042912D02*
X14917158Y-13966722D01*
X14917158Y-13966722D02*
X14926682Y-13947674D01*
X14926682Y-13947674D02*
X14945730Y-13938150D01*
X14945730Y-13938150D02*
X14983825Y-13938150D01*
X14983825Y-13938150D02*
X15002873Y-13947674D01*
X15002873Y-13947674D02*
X15012396Y-13966722D01*
X15012396Y-13966722D02*
X15012396Y-13985769D01*
X15012396Y-13985769D02*
X14917158Y-14004817D01*
X15183825Y-14071484D02*
X15183825Y-13871484D01*
X15183825Y-14061960D02*
X15164777Y-14071484D01*
X15164777Y-14071484D02*
X15126682Y-14071484D01*
X15126682Y-14071484D02*
X15107634Y-14061960D01*
X15107634Y-14061960D02*
X15098111Y-14052436D01*
X15098111Y-14052436D02*
X15088587Y-14033388D01*
X15088587Y-14033388D02*
X15088587Y-13976246D01*
X15088587Y-13976246D02*
X15098111Y-13957198D01*
X15098111Y-13957198D02*
X15107634Y-13947674D01*
X15107634Y-13947674D02*
X15126682Y-13938150D01*
X15126682Y-13938150D02*
X15164777Y-13938150D01*
X15164777Y-13938150D02*
X15183825Y-13947674D01*
X15260015Y-14147674D02*
X15269539Y-14138150D01*
X15269539Y-14138150D02*
X15288587Y-14109579D01*
X15288587Y-14109579D02*
X15298111Y-14090531D01*
X15298111Y-14090531D02*
X15307634Y-14061960D01*
X15307634Y-14061960D02*
X15317158Y-14014341D01*
X15317158Y-14014341D02*
X15317158Y-13976246D01*
X15317158Y-13976246D02*
X15307634Y-13928627D01*
X15307634Y-13928627D02*
X15298111Y-13900055D01*
X15298111Y-13900055D02*
X15288587Y-13881008D01*
X15288587Y-13881008D02*
X15269539Y-13852436D01*
X15269539Y-13852436D02*
X15260015Y-13842912D01*
X8504000Y-14300000D02*
G75*
G03*
X8504000Y-14300000I-100000J0D01*
G01*
X8745729Y-14191484D02*
X8869539Y-14191484D01*
X8869539Y-14191484D02*
X8802872Y-14267674D01*
X8802872Y-14267674D02*
X8831444Y-14267674D01*
X8831444Y-14267674D02*
X8850491Y-14277198D01*
X8850491Y-14277198D02*
X8860015Y-14286722D01*
X8860015Y-14286722D02*
X8869539Y-14305769D01*
X8869539Y-14305769D02*
X8869539Y-14353388D01*
X8869539Y-14353388D02*
X8860015Y-14372436D01*
X8860015Y-14372436D02*
X8850491Y-14381960D01*
X8850491Y-14381960D02*
X8831444Y-14391484D01*
X8831444Y-14391484D02*
X8774301Y-14391484D01*
X8774301Y-14391484D02*
X8755253Y-14381960D01*
X8755253Y-14381960D02*
X8745729Y-14372436D01*
X8955253Y-14372436D02*
X8964777Y-14381960D01*
X8964777Y-14381960D02*
X8955253Y-14391484D01*
X8955253Y-14391484D02*
X8945729Y-14381960D01*
X8945729Y-14381960D02*
X8955253Y-14372436D01*
X8955253Y-14372436D02*
X8955253Y-14391484D01*
X9040967Y-14210531D02*
X9050491Y-14201008D01*
X9050491Y-14201008D02*
X9069539Y-14191484D01*
X9069539Y-14191484D02*
X9117158Y-14191484D01*
X9117158Y-14191484D02*
X9136205Y-14201008D01*
X9136205Y-14201008D02*
X9145729Y-14210531D01*
X9145729Y-14210531D02*
X9155253Y-14229579D01*
X9155253Y-14229579D02*
X9155253Y-14248627D01*
X9155253Y-14248627D02*
X9145729Y-14277198D01*
X9145729Y-14277198D02*
X9031444Y-14391484D01*
X9031444Y-14391484D02*
X9155253Y-14391484D01*
X9279063Y-14191484D02*
X9298110Y-14191484D01*
X9298110Y-14191484D02*
X9317158Y-14201008D01*
X9317158Y-14201008D02*
X9326682Y-14210531D01*
X9326682Y-14210531D02*
X9336205Y-14229579D01*
X9336205Y-14229579D02*
X9345729Y-14267674D01*
X9345729Y-14267674D02*
X9345729Y-14315293D01*
X9345729Y-14315293D02*
X9336205Y-14353388D01*
X9336205Y-14353388D02*
X9326682Y-14372436D01*
X9326682Y-14372436D02*
X9317158Y-14381960D01*
X9317158Y-14381960D02*
X9298110Y-14391484D01*
X9298110Y-14391484D02*
X9279063Y-14391484D01*
X9279063Y-14391484D02*
X9260015Y-14381960D01*
X9260015Y-14381960D02*
X9250491Y-14372436D01*
X9250491Y-14372436D02*
X9240967Y-14353388D01*
X9240967Y-14353388D02*
X9231444Y-14315293D01*
X9231444Y-14315293D02*
X9231444Y-14267674D01*
X9231444Y-14267674D02*
X9240967Y-14229579D01*
X9240967Y-14229579D02*
X9250491Y-14210531D01*
X9250491Y-14210531D02*
X9260015Y-14201008D01*
X9260015Y-14201008D02*
X9279063Y-14191484D01*
X9469539Y-14191484D02*
X9488586Y-14191484D01*
X9488586Y-14191484D02*
X9507634Y-14201008D01*
X9507634Y-14201008D02*
X9517158Y-14210531D01*
X9517158Y-14210531D02*
X9526682Y-14229579D01*
X9526682Y-14229579D02*
X9536205Y-14267674D01*
X9536205Y-14267674D02*
X9536205Y-14315293D01*
X9536205Y-14315293D02*
X9526682Y-14353388D01*
X9526682Y-14353388D02*
X9517158Y-14372436D01*
X9517158Y-14372436D02*
X9507634Y-14381960D01*
X9507634Y-14381960D02*
X9488586Y-14391484D01*
X9488586Y-14391484D02*
X9469539Y-14391484D01*
X9469539Y-14391484D02*
X9450491Y-14381960D01*
X9450491Y-14381960D02*
X9440967Y-14372436D01*
X9440967Y-14372436D02*
X9431444Y-14353388D01*
X9431444Y-14353388D02*
X9421920Y-14315293D01*
X9421920Y-14315293D02*
X9421920Y-14267674D01*
X9421920Y-14267674D02*
X9431444Y-14229579D01*
X9431444Y-14229579D02*
X9440967Y-14210531D01*
X9440967Y-14210531D02*
X9450491Y-14201008D01*
X9450491Y-14201008D02*
X9469539Y-14191484D01*
X9621920Y-14391484D02*
X9621920Y-14258150D01*
X9621920Y-14277198D02*
X9631444Y-14267674D01*
X9631444Y-14267674D02*
X9650491Y-14258150D01*
X9650491Y-14258150D02*
X9679063Y-14258150D01*
X9679063Y-14258150D02*
X9698110Y-14267674D01*
X9698110Y-14267674D02*
X9707634Y-14286722D01*
X9707634Y-14286722D02*
X9707634Y-14391484D01*
X9707634Y-14286722D02*
X9717158Y-14267674D01*
X9717158Y-14267674D02*
X9736205Y-14258150D01*
X9736205Y-14258150D02*
X9764777Y-14258150D01*
X9764777Y-14258150D02*
X9783825Y-14267674D01*
X9783825Y-14267674D02*
X9793348Y-14286722D01*
X9793348Y-14286722D02*
X9793348Y-14391484D01*
X9888586Y-14391484D02*
X9888586Y-14258150D01*
X9888586Y-14277198D02*
X9898110Y-14267674D01*
X9898110Y-14267674D02*
X9917158Y-14258150D01*
X9917158Y-14258150D02*
X9945729Y-14258150D01*
X9945729Y-14258150D02*
X9964777Y-14267674D01*
X9964777Y-14267674D02*
X9974301Y-14286722D01*
X9974301Y-14286722D02*
X9974301Y-14391484D01*
X9974301Y-14286722D02*
X9983825Y-14267674D01*
X9983825Y-14267674D02*
X10002872Y-14258150D01*
X10002872Y-14258150D02*
X10031444Y-14258150D01*
X10031444Y-14258150D02*
X10050491Y-14267674D01*
X10050491Y-14267674D02*
X10060015Y-14286722D01*
X10060015Y-14286722D02*
X10060015Y-14391484D01*
X10450491Y-14181960D02*
X10279063Y-14439103D01*
X10707634Y-14191484D02*
X10726682Y-14191484D01*
X10726682Y-14191484D02*
X10745729Y-14201008D01*
X10745729Y-14201008D02*
X10755253Y-14210531D01*
X10755253Y-14210531D02*
X10764777Y-14229579D01*
X10764777Y-14229579D02*
X10774301Y-14267674D01*
X10774301Y-14267674D02*
X10774301Y-14315293D01*
X10774301Y-14315293D02*
X10764777Y-14353388D01*
X10764777Y-14353388D02*
X10755253Y-14372436D01*
X10755253Y-14372436D02*
X10745729Y-14381960D01*
X10745729Y-14381960D02*
X10726682Y-14391484D01*
X10726682Y-14391484D02*
X10707634Y-14391484D01*
X10707634Y-14391484D02*
X10688587Y-14381960D01*
X10688587Y-14381960D02*
X10679063Y-14372436D01*
X10679063Y-14372436D02*
X10669539Y-14353388D01*
X10669539Y-14353388D02*
X10660015Y-14315293D01*
X10660015Y-14315293D02*
X10660015Y-14267674D01*
X10660015Y-14267674D02*
X10669539Y-14229579D01*
X10669539Y-14229579D02*
X10679063Y-14210531D01*
X10679063Y-14210531D02*
X10688587Y-14201008D01*
X10688587Y-14201008D02*
X10707634Y-14191484D01*
X10860015Y-14372436D02*
X10869539Y-14381960D01*
X10869539Y-14381960D02*
X10860015Y-14391484D01*
X10860015Y-14391484D02*
X10850491Y-14381960D01*
X10850491Y-14381960D02*
X10860015Y-14372436D01*
X10860015Y-14372436D02*
X10860015Y-14391484D01*
X11060015Y-14391484D02*
X10945729Y-14391484D01*
X11002872Y-14391484D02*
X11002872Y-14191484D01*
X11002872Y-14191484D02*
X10983825Y-14220055D01*
X10983825Y-14220055D02*
X10964777Y-14239103D01*
X10964777Y-14239103D02*
X10945729Y-14248627D01*
X11136206Y-14210531D02*
X11145729Y-14201008D01*
X11145729Y-14201008D02*
X11164777Y-14191484D01*
X11164777Y-14191484D02*
X11212396Y-14191484D01*
X11212396Y-14191484D02*
X11231444Y-14201008D01*
X11231444Y-14201008D02*
X11240967Y-14210531D01*
X11240967Y-14210531D02*
X11250491Y-14229579D01*
X11250491Y-14229579D02*
X11250491Y-14248627D01*
X11250491Y-14248627D02*
X11240967Y-14277198D01*
X11240967Y-14277198D02*
X11126682Y-14391484D01*
X11126682Y-14391484D02*
X11250491Y-14391484D01*
X11421920Y-14191484D02*
X11383825Y-14191484D01*
X11383825Y-14191484D02*
X11364777Y-14201008D01*
X11364777Y-14201008D02*
X11355253Y-14210531D01*
X11355253Y-14210531D02*
X11336206Y-14239103D01*
X11336206Y-14239103D02*
X11326682Y-14277198D01*
X11326682Y-14277198D02*
X11326682Y-14353388D01*
X11326682Y-14353388D02*
X11336206Y-14372436D01*
X11336206Y-14372436D02*
X11345729Y-14381960D01*
X11345729Y-14381960D02*
X11364777Y-14391484D01*
X11364777Y-14391484D02*
X11402872Y-14391484D01*
X11402872Y-14391484D02*
X11421920Y-14381960D01*
X11421920Y-14381960D02*
X11431444Y-14372436D01*
X11431444Y-14372436D02*
X11440967Y-14353388D01*
X11440967Y-14353388D02*
X11440967Y-14305769D01*
X11440967Y-14305769D02*
X11431444Y-14286722D01*
X11431444Y-14286722D02*
X11421920Y-14277198D01*
X11421920Y-14277198D02*
X11402872Y-14267674D01*
X11402872Y-14267674D02*
X11364777Y-14267674D01*
X11364777Y-14267674D02*
X11345729Y-14277198D01*
X11345729Y-14277198D02*
X11336206Y-14286722D01*
X11336206Y-14286722D02*
X11326682Y-14305769D01*
X11564777Y-14191484D02*
X11583825Y-14191484D01*
X11583825Y-14191484D02*
X11602872Y-14201008D01*
X11602872Y-14201008D02*
X11612396Y-14210531D01*
X11612396Y-14210531D02*
X11621920Y-14229579D01*
X11621920Y-14229579D02*
X11631444Y-14267674D01*
X11631444Y-14267674D02*
X11631444Y-14315293D01*
X11631444Y-14315293D02*
X11621920Y-14353388D01*
X11621920Y-14353388D02*
X11612396Y-14372436D01*
X11612396Y-14372436D02*
X11602872Y-14381960D01*
X11602872Y-14381960D02*
X11583825Y-14391484D01*
X11583825Y-14391484D02*
X11564777Y-14391484D01*
X11564777Y-14391484D02*
X11545729Y-14381960D01*
X11545729Y-14381960D02*
X11536206Y-14372436D01*
X11536206Y-14372436D02*
X11526682Y-14353388D01*
X11526682Y-14353388D02*
X11517158Y-14315293D01*
X11517158Y-14315293D02*
X11517158Y-14267674D01*
X11517158Y-14267674D02*
X11526682Y-14229579D01*
X11526682Y-14229579D02*
X11536206Y-14210531D01*
X11536206Y-14210531D02*
X11545729Y-14201008D01*
X11545729Y-14201008D02*
X11564777Y-14191484D01*
X11707634Y-14191484D02*
X11707634Y-14229579D01*
X11783825Y-14191484D02*
X11783825Y-14229579D01*
X12079063Y-14467674D02*
X12069539Y-14458150D01*
X12069539Y-14458150D02*
X12050491Y-14429579D01*
X12050491Y-14429579D02*
X12040968Y-14410531D01*
X12040968Y-14410531D02*
X12031444Y-14381960D01*
X12031444Y-14381960D02*
X12021920Y-14334341D01*
X12021920Y-14334341D02*
X12021920Y-14296246D01*
X12021920Y-14296246D02*
X12031444Y-14248627D01*
X12031444Y-14248627D02*
X12040968Y-14220055D01*
X12040968Y-14220055D02*
X12050491Y-14201008D01*
X12050491Y-14201008D02*
X12069539Y-14172436D01*
X12069539Y-14172436D02*
X12079063Y-14162912D01*
X12240968Y-14191484D02*
X12202872Y-14191484D01*
X12202872Y-14191484D02*
X12183825Y-14201008D01*
X12183825Y-14201008D02*
X12174301Y-14210531D01*
X12174301Y-14210531D02*
X12155253Y-14239103D01*
X12155253Y-14239103D02*
X12145729Y-14277198D01*
X12145729Y-14277198D02*
X12145729Y-14353388D01*
X12145729Y-14353388D02*
X12155253Y-14372436D01*
X12155253Y-14372436D02*
X12164777Y-14381960D01*
X12164777Y-14381960D02*
X12183825Y-14391484D01*
X12183825Y-14391484D02*
X12221920Y-14391484D01*
X12221920Y-14391484D02*
X12240968Y-14381960D01*
X12240968Y-14381960D02*
X12250491Y-14372436D01*
X12250491Y-14372436D02*
X12260015Y-14353388D01*
X12260015Y-14353388D02*
X12260015Y-14305769D01*
X12260015Y-14305769D02*
X12250491Y-14286722D01*
X12250491Y-14286722D02*
X12240968Y-14277198D01*
X12240968Y-14277198D02*
X12221920Y-14267674D01*
X12221920Y-14267674D02*
X12183825Y-14267674D01*
X12183825Y-14267674D02*
X12164777Y-14277198D01*
X12164777Y-14277198D02*
X12155253Y-14286722D01*
X12155253Y-14286722D02*
X12145729Y-14305769D01*
X12498110Y-14391484D02*
X12498110Y-14191484D01*
X12583825Y-14391484D02*
X12583825Y-14286722D01*
X12583825Y-14286722D02*
X12574301Y-14267674D01*
X12574301Y-14267674D02*
X12555253Y-14258150D01*
X12555253Y-14258150D02*
X12526682Y-14258150D01*
X12526682Y-14258150D02*
X12507634Y-14267674D01*
X12507634Y-14267674D02*
X12498110Y-14277198D01*
X12707634Y-14391484D02*
X12688587Y-14381960D01*
X12688587Y-14381960D02*
X12679063Y-14372436D01*
X12679063Y-14372436D02*
X12669539Y-14353388D01*
X12669539Y-14353388D02*
X12669539Y-14296246D01*
X12669539Y-14296246D02*
X12679063Y-14277198D01*
X12679063Y-14277198D02*
X12688587Y-14267674D01*
X12688587Y-14267674D02*
X12707634Y-14258150D01*
X12707634Y-14258150D02*
X12736206Y-14258150D01*
X12736206Y-14258150D02*
X12755253Y-14267674D01*
X12755253Y-14267674D02*
X12764777Y-14277198D01*
X12764777Y-14277198D02*
X12774301Y-14296246D01*
X12774301Y-14296246D02*
X12774301Y-14353388D01*
X12774301Y-14353388D02*
X12764777Y-14372436D01*
X12764777Y-14372436D02*
X12755253Y-14381960D01*
X12755253Y-14381960D02*
X12736206Y-14391484D01*
X12736206Y-14391484D02*
X12707634Y-14391484D01*
X12888587Y-14391484D02*
X12869539Y-14381960D01*
X12869539Y-14381960D02*
X12860015Y-14362912D01*
X12860015Y-14362912D02*
X12860015Y-14191484D01*
X13040968Y-14381960D02*
X13021920Y-14391484D01*
X13021920Y-14391484D02*
X12983825Y-14391484D01*
X12983825Y-14391484D02*
X12964777Y-14381960D01*
X12964777Y-14381960D02*
X12955253Y-14362912D01*
X12955253Y-14362912D02*
X12955253Y-14286722D01*
X12955253Y-14286722D02*
X12964777Y-14267674D01*
X12964777Y-14267674D02*
X12983825Y-14258150D01*
X12983825Y-14258150D02*
X13021920Y-14258150D01*
X13021920Y-14258150D02*
X13040968Y-14267674D01*
X13040968Y-14267674D02*
X13050491Y-14286722D01*
X13050491Y-14286722D02*
X13050491Y-14305769D01*
X13050491Y-14305769D02*
X12955253Y-14324817D01*
X13126682Y-14381960D02*
X13145730Y-14391484D01*
X13145730Y-14391484D02*
X13183825Y-14391484D01*
X13183825Y-14391484D02*
X13202872Y-14381960D01*
X13202872Y-14381960D02*
X13212396Y-14362912D01*
X13212396Y-14362912D02*
X13212396Y-14353388D01*
X13212396Y-14353388D02*
X13202872Y-14334341D01*
X13202872Y-14334341D02*
X13183825Y-14324817D01*
X13183825Y-14324817D02*
X13155253Y-14324817D01*
X13155253Y-14324817D02*
X13136206Y-14315293D01*
X13136206Y-14315293D02*
X13126682Y-14296246D01*
X13126682Y-14296246D02*
X13126682Y-14286722D01*
X13126682Y-14286722D02*
X13136206Y-14267674D01*
X13136206Y-14267674D02*
X13155253Y-14258150D01*
X13155253Y-14258150D02*
X13183825Y-14258150D01*
X13183825Y-14258150D02*
X13202872Y-14267674D01*
X13279063Y-14467674D02*
X13288587Y-14458150D01*
X13288587Y-14458150D02*
X13307634Y-14429579D01*
X13307634Y-14429579D02*
X13317158Y-14410531D01*
X13317158Y-14410531D02*
X13326682Y-14381960D01*
X13326682Y-14381960D02*
X13336206Y-14334341D01*
X13336206Y-14334341D02*
X13336206Y-14296246D01*
X13336206Y-14296246D02*
X13326682Y-14248627D01*
X13326682Y-14248627D02*
X13317158Y-14220055D01*
X13317158Y-14220055D02*
X13307634Y-14201008D01*
X13307634Y-14201008D02*
X13288587Y-14172436D01*
X13288587Y-14172436D02*
X13279063Y-14162912D01*
X13640968Y-14467674D02*
X13631444Y-14458150D01*
X13631444Y-14458150D02*
X13612396Y-14429579D01*
X13612396Y-14429579D02*
X13602872Y-14410531D01*
X13602872Y-14410531D02*
X13593349Y-14381960D01*
X13593349Y-14381960D02*
X13583825Y-14334341D01*
X13583825Y-14334341D02*
X13583825Y-14296246D01*
X13583825Y-14296246D02*
X13593349Y-14248627D01*
X13593349Y-14248627D02*
X13602872Y-14220055D01*
X13602872Y-14220055D02*
X13612396Y-14201008D01*
X13612396Y-14201008D02*
X13631444Y-14172436D01*
X13631444Y-14172436D02*
X13640968Y-14162912D01*
X13717158Y-14258150D02*
X13717158Y-14391484D01*
X13717158Y-14277198D02*
X13726682Y-14267674D01*
X13726682Y-14267674D02*
X13745730Y-14258150D01*
X13745730Y-14258150D02*
X13774301Y-14258150D01*
X13774301Y-14258150D02*
X13793349Y-14267674D01*
X13793349Y-14267674D02*
X13802872Y-14286722D01*
X13802872Y-14286722D02*
X13802872Y-14391484D01*
X13926682Y-14391484D02*
X13907634Y-14381960D01*
X13907634Y-14381960D02*
X13898111Y-14372436D01*
X13898111Y-14372436D02*
X13888587Y-14353388D01*
X13888587Y-14353388D02*
X13888587Y-14296246D01*
X13888587Y-14296246D02*
X13898111Y-14277198D01*
X13898111Y-14277198D02*
X13907634Y-14267674D01*
X13907634Y-14267674D02*
X13926682Y-14258150D01*
X13926682Y-14258150D02*
X13955253Y-14258150D01*
X13955253Y-14258150D02*
X13974301Y-14267674D01*
X13974301Y-14267674D02*
X13983825Y-14277198D01*
X13983825Y-14277198D02*
X13993349Y-14296246D01*
X13993349Y-14296246D02*
X13993349Y-14353388D01*
X13993349Y-14353388D02*
X13983825Y-14372436D01*
X13983825Y-14372436D02*
X13974301Y-14381960D01*
X13974301Y-14381960D02*
X13955253Y-14391484D01*
X13955253Y-14391484D02*
X13926682Y-14391484D01*
X14050492Y-14258150D02*
X14126682Y-14258150D01*
X14079063Y-14191484D02*
X14079063Y-14362912D01*
X14079063Y-14362912D02*
X14088587Y-14381960D01*
X14088587Y-14381960D02*
X14107634Y-14391484D01*
X14107634Y-14391484D02*
X14126682Y-14391484D01*
X14345730Y-14258150D02*
X14345730Y-14458150D01*
X14345730Y-14267674D02*
X14364777Y-14258150D01*
X14364777Y-14258150D02*
X14402873Y-14258150D01*
X14402873Y-14258150D02*
X14421920Y-14267674D01*
X14421920Y-14267674D02*
X14431444Y-14277198D01*
X14431444Y-14277198D02*
X14440968Y-14296246D01*
X14440968Y-14296246D02*
X14440968Y-14353388D01*
X14440968Y-14353388D02*
X14431444Y-14372436D01*
X14431444Y-14372436D02*
X14421920Y-14381960D01*
X14421920Y-14381960D02*
X14402873Y-14391484D01*
X14402873Y-14391484D02*
X14364777Y-14391484D01*
X14364777Y-14391484D02*
X14345730Y-14381960D01*
X14555253Y-14391484D02*
X14536206Y-14381960D01*
X14536206Y-14381960D02*
X14526682Y-14362912D01*
X14526682Y-14362912D02*
X14526682Y-14191484D01*
X14717158Y-14391484D02*
X14717158Y-14286722D01*
X14717158Y-14286722D02*
X14707634Y-14267674D01*
X14707634Y-14267674D02*
X14688587Y-14258150D01*
X14688587Y-14258150D02*
X14650492Y-14258150D01*
X14650492Y-14258150D02*
X14631444Y-14267674D01*
X14717158Y-14381960D02*
X14698111Y-14391484D01*
X14698111Y-14391484D02*
X14650492Y-14391484D01*
X14650492Y-14391484D02*
X14631444Y-14381960D01*
X14631444Y-14381960D02*
X14621920Y-14362912D01*
X14621920Y-14362912D02*
X14621920Y-14343865D01*
X14621920Y-14343865D02*
X14631444Y-14324817D01*
X14631444Y-14324817D02*
X14650492Y-14315293D01*
X14650492Y-14315293D02*
X14698111Y-14315293D01*
X14698111Y-14315293D02*
X14717158Y-14305769D01*
X14783825Y-14258150D02*
X14860015Y-14258150D01*
X14812396Y-14191484D02*
X14812396Y-14362912D01*
X14812396Y-14362912D02*
X14821920Y-14381960D01*
X14821920Y-14381960D02*
X14840968Y-14391484D01*
X14840968Y-14391484D02*
X14860015Y-14391484D01*
X15002873Y-14381960D02*
X14983825Y-14391484D01*
X14983825Y-14391484D02*
X14945730Y-14391484D01*
X14945730Y-14391484D02*
X14926682Y-14381960D01*
X14926682Y-14381960D02*
X14917158Y-14362912D01*
X14917158Y-14362912D02*
X14917158Y-14286722D01*
X14917158Y-14286722D02*
X14926682Y-14267674D01*
X14926682Y-14267674D02*
X14945730Y-14258150D01*
X14945730Y-14258150D02*
X14983825Y-14258150D01*
X14983825Y-14258150D02*
X15002873Y-14267674D01*
X15002873Y-14267674D02*
X15012396Y-14286722D01*
X15012396Y-14286722D02*
X15012396Y-14305769D01*
X15012396Y-14305769D02*
X14917158Y-14324817D01*
X15183825Y-14391484D02*
X15183825Y-14191484D01*
X15183825Y-14381960D02*
X15164777Y-14391484D01*
X15164777Y-14391484D02*
X15126682Y-14391484D01*
X15126682Y-14391484D02*
X15107634Y-14381960D01*
X15107634Y-14381960D02*
X15098111Y-14372436D01*
X15098111Y-14372436D02*
X15088587Y-14353388D01*
X15088587Y-14353388D02*
X15088587Y-14296246D01*
X15088587Y-14296246D02*
X15098111Y-14277198D01*
X15098111Y-14277198D02*
X15107634Y-14267674D01*
X15107634Y-14267674D02*
X15126682Y-14258150D01*
X15126682Y-14258150D02*
X15164777Y-14258150D01*
X15164777Y-14258150D02*
X15183825Y-14267674D01*
X15260015Y-14467674D02*
X15269539Y-14458150D01*
X15269539Y-14458150D02*
X15288587Y-14429579D01*
X15288587Y-14429579D02*
X15298111Y-14410531D01*
X15298111Y-14410531D02*
X15307634Y-14381960D01*
X15307634Y-14381960D02*
X15317158Y-14334341D01*
X15317158Y-14334341D02*
X15317158Y-14296246D01*
X15317158Y-14296246D02*
X15307634Y-14248627D01*
X15307634Y-14248627D02*
X15298111Y-14220055D01*
X15298111Y-14220055D02*
X15288587Y-14201008D01*
X15288587Y-14201008D02*
X15269539Y-14172436D01*
X15269539Y-14172436D02*
X15260015Y-14162912D01*
M02*
