G04 #@! TF.GenerationSoftware,KiCad,Pcbnew,7.0.2*
G04 #@! TF.CreationDate,2023-05-21T00:08:36-06:00*
G04 #@! TF.ProjectId,Project-Supernova-PCB,50726f6a-6563-4742-9d53-757065726e6f,rev?*
G04 #@! TF.SameCoordinates,Original*
G04 #@! TF.FileFunction,Copper,L2,Bot*
G04 #@! TF.FilePolarity,Positive*
%FSLAX46Y46*%
G04 Gerber Fmt 4.6, Leading zero omitted, Abs format (unit mm)*
G04 Created by KiCad (PCBNEW 7.0.2) date 2023-05-21 00:08:36*
%MOMM*%
%LPD*%
G01*
G04 APERTURE LIST*
G04 #@! TA.AperFunction,WasherPad*
%ADD10C,3.500000*%
G04 #@! TD*
G04 #@! TA.AperFunction,ComponentPad*
%ADD11R,1.900000X1.900000*%
G04 #@! TD*
G04 #@! TA.AperFunction,ComponentPad*
%ADD12C,2.000000*%
G04 #@! TD*
G04 #@! TA.AperFunction,ComponentPad*
%ADD13R,1.700000X1.700000*%
G04 #@! TD*
G04 #@! TA.AperFunction,ComponentPad*
%ADD14O,1.700000X1.700000*%
G04 #@! TD*
G04 #@! TA.AperFunction,ComponentPad*
%ADD15O,3.500000X2.200000*%
G04 #@! TD*
G04 #@! TA.AperFunction,ComponentPad*
%ADD16R,2.500000X1.500000*%
G04 #@! TD*
G04 #@! TA.AperFunction,ComponentPad*
%ADD17O,2.500000X1.500000*%
G04 #@! TD*
G04 #@! TA.AperFunction,ComponentPad*
%ADD18R,3.000000X3.000000*%
G04 #@! TD*
G04 #@! TA.AperFunction,ComponentPad*
%ADD19C,3.000000*%
G04 #@! TD*
G04 #@! TA.AperFunction,ComponentPad*
%ADD20C,5.600000*%
G04 #@! TD*
G04 #@! TA.AperFunction,ComponentPad*
%ADD21C,1.524000*%
G04 #@! TD*
G04 #@! TA.AperFunction,ComponentPad*
%ADD22C,2.050000*%
G04 #@! TD*
G04 #@! TA.AperFunction,ComponentPad*
%ADD23C,2.250000*%
G04 #@! TD*
G04 #@! TA.AperFunction,ComponentPad*
%ADD24R,2.000000X2.000000*%
G04 #@! TD*
G04 #@! TA.AperFunction,ViaPad*
%ADD25C,0.800000*%
G04 #@! TD*
G04 #@! TA.AperFunction,Conductor*
%ADD26C,0.250000*%
G04 #@! TD*
G04 #@! TA.AperFunction,Conductor*
%ADD27C,0.800000*%
G04 #@! TD*
G04 APERTURE END LIST*
D10*
X166380000Y-67310000D03*
X166380000Y-77470000D03*
D11*
X158750000Y-66040000D03*
D12*
X158750000Y-68580000D03*
X158750000Y-71120000D03*
X158750000Y-73660000D03*
X158750000Y-76200000D03*
X158750000Y-78740000D03*
D13*
X173472500Y-91900000D03*
D14*
X173472500Y-94440000D03*
D15*
X122555000Y-128655000D03*
X122555000Y-120455000D03*
D16*
X122555000Y-126555000D03*
D17*
X122555000Y-124555000D03*
X122555000Y-122555000D03*
D13*
X173472500Y-100790000D03*
D14*
X173472500Y-103330000D03*
D18*
X149860000Y-127000000D03*
D19*
X154940000Y-127000000D03*
D13*
X146065000Y-55880000D03*
D14*
X148605000Y-55880000D03*
X151145000Y-55880000D03*
D13*
X99060000Y-104140000D03*
D14*
X99060000Y-106680000D03*
D20*
X88900000Y-129540000D03*
X180340000Y-129540000D03*
D13*
X166751000Y-55626000D03*
D14*
X164211000Y-55626000D03*
X161671000Y-55626000D03*
X159131000Y-55626000D03*
D15*
X130175000Y-128655000D03*
X130175000Y-120455000D03*
D16*
X130175000Y-126555000D03*
D17*
X130175000Y-124555000D03*
X130175000Y-122555000D03*
D21*
X125730000Y-68580000D03*
X125730000Y-71120000D03*
X125730000Y-73660000D03*
X125730000Y-76200000D03*
X125730000Y-78740000D03*
X125730000Y-81280000D03*
X125730000Y-83820000D03*
X125730000Y-86360000D03*
X125730000Y-88900000D03*
X125730000Y-91440000D03*
X125730000Y-93980000D03*
X125730000Y-96520000D03*
X125730000Y-99060000D03*
X125730000Y-101600000D03*
X125730000Y-104140000D03*
X151130000Y-104140000D03*
X151130000Y-101600000D03*
X151130000Y-99060000D03*
X151130000Y-96520000D03*
X151130000Y-93980000D03*
X151130000Y-91440000D03*
X151130000Y-88900000D03*
X151130000Y-86360000D03*
X151130000Y-83820000D03*
X151130000Y-81280000D03*
X151130000Y-78740000D03*
X151130000Y-76200000D03*
X151130000Y-73660000D03*
X151130000Y-71120000D03*
X151130000Y-68580000D03*
D22*
X89916000Y-63500000D03*
D23*
X87376000Y-60960000D03*
X87376000Y-66040000D03*
X92456000Y-60960000D03*
X92456000Y-66040000D03*
D10*
X119380000Y-78740000D03*
X88900000Y-78740000D03*
X119380000Y-99060000D03*
X88900000Y-99060000D03*
D24*
X120650000Y-85090000D03*
D12*
X120650000Y-87630000D03*
X120650000Y-90170000D03*
X120650000Y-92710000D03*
D20*
X180340000Y-49530000D03*
D13*
X87630000Y-109220000D03*
D14*
X87630000Y-111760000D03*
X87630000Y-114300000D03*
X87630000Y-116840000D03*
D18*
X108585000Y-127000000D03*
D19*
X113665000Y-127000000D03*
D13*
X97790000Y-118110000D03*
D14*
X100330000Y-118110000D03*
D18*
X96520000Y-127000000D03*
D19*
X101600000Y-127000000D03*
D13*
X110490000Y-118110000D03*
D14*
X113030000Y-118110000D03*
D18*
X138430000Y-127000000D03*
D19*
X143510000Y-127000000D03*
D20*
X88900000Y-49530000D03*
D25*
X164465000Y-62230000D03*
X178435000Y-108585000D03*
X180975000Y-108585000D03*
X157226000Y-88900000D03*
X158750000Y-62230000D03*
X179680000Y-108550000D03*
X102235000Y-55880000D03*
X90170000Y-56642000D03*
X87630000Y-70485000D03*
X100965000Y-54610000D03*
X88900000Y-70485000D03*
X95250000Y-69850000D03*
X92710000Y-55880000D03*
X86360000Y-70485000D03*
X94615000Y-53975000D03*
X95885000Y-53975000D03*
X90170000Y-70485000D03*
X91440000Y-56642000D03*
X103505000Y-57150000D03*
X98425000Y-53975000D03*
X87630000Y-56642000D03*
X93345000Y-54610000D03*
X103505000Y-58420000D03*
X97790000Y-68580000D03*
X99695000Y-53975000D03*
X99060000Y-67945000D03*
X92710000Y-70485000D03*
X86360000Y-56642000D03*
X88900000Y-56642000D03*
X96520000Y-69215000D03*
X93980000Y-70485000D03*
X97155000Y-53975000D03*
X91440000Y-70485000D03*
X167347500Y-100330000D03*
X163068000Y-92747500D03*
X132715000Y-62700500D03*
X130175000Y-61976000D03*
X139192000Y-106172000D03*
X137795000Y-114554000D03*
X121285000Y-80391000D03*
X112141000Y-99568000D03*
X99822000Y-88392000D03*
X160401000Y-89027000D03*
X162495000Y-97155000D03*
X149733000Y-105664000D03*
X123825000Y-108674500D03*
X133260500Y-77470000D03*
X161925000Y-62230000D03*
X122555000Y-109220000D03*
X122555000Y-106680000D03*
X162649500Y-67310000D03*
X133985000Y-70739000D03*
X167640000Y-62230000D03*
X138430000Y-104140000D03*
X147320000Y-84455000D03*
X147409500Y-82550000D03*
X115570000Y-109220000D03*
X125500000Y-54000000D03*
X121920000Y-73025000D03*
X154305000Y-65405000D03*
X154305000Y-73660000D03*
D26*
X163068000Y-96050500D02*
X167347500Y-100330000D01*
X163068000Y-92747500D02*
X163068000Y-96050500D01*
X126817000Y-80829396D02*
X126817000Y-82733000D01*
X130339500Y-62700500D02*
X128651000Y-64389000D01*
X126817000Y-82733000D02*
X125730000Y-83820000D01*
X128651000Y-78995396D02*
X126817000Y-80829396D01*
X132715000Y-62700500D02*
X130339500Y-62700500D01*
X128651000Y-64389000D02*
X128651000Y-78995396D01*
X129794000Y-61976000D02*
X127889000Y-63881000D01*
X130175000Y-61976000D02*
X129794000Y-61976000D01*
X127889000Y-63881000D02*
X127889000Y-79121000D01*
X127889000Y-79121000D02*
X125730000Y-81280000D01*
X139192000Y-106172000D02*
X148463000Y-96901000D01*
X148463000Y-79869749D02*
X151130000Y-77202749D01*
X151130000Y-77202749D02*
X151130000Y-76200000D01*
X148463000Y-96901000D02*
X148463000Y-79869749D01*
D27*
X153035000Y-125095000D02*
X153035000Y-70485000D01*
X153035000Y-70485000D02*
X151130000Y-68580000D01*
X154940000Y-127000000D02*
X153035000Y-125095000D01*
X125020837Y-122555000D02*
X126365000Y-121210837D01*
X135890000Y-117475000D02*
X143510000Y-125095000D01*
X127635000Y-117475000D02*
X135890000Y-117475000D01*
X126365000Y-118745000D02*
X127635000Y-117475000D01*
X126365000Y-121210837D02*
X126365000Y-118745000D01*
X122555000Y-122555000D02*
X125020837Y-122555000D01*
X143510000Y-125095000D02*
X143510000Y-127000000D01*
D26*
X148971000Y-103378000D02*
X148971000Y-80899000D01*
X137795000Y-114554000D02*
X148971000Y-103378000D01*
X148971000Y-80899000D02*
X151130000Y-78740000D01*
X120650000Y-80391000D02*
X121285000Y-80391000D01*
X112141000Y-99568000D02*
X112141000Y-98679000D01*
X112141000Y-98679000D02*
X120650000Y-90170000D01*
X116967000Y-84074000D02*
X120650000Y-80391000D01*
X117602000Y-90170000D02*
X116967000Y-89535000D01*
X120650000Y-90170000D02*
X117602000Y-90170000D01*
X116967000Y-89535000D02*
X116967000Y-84074000D01*
X124643000Y-83637000D02*
X124643000Y-77287000D01*
X120650000Y-87630000D02*
X124643000Y-83637000D01*
X97885000Y-105505000D02*
X97885000Y-90329000D01*
X124643000Y-77287000D02*
X125730000Y-76200000D01*
X99060000Y-106680000D02*
X97885000Y-105505000D01*
X97885000Y-90329000D02*
X99822000Y-88392000D01*
X160401000Y-89027000D02*
X160401000Y-95061000D01*
X160401000Y-95061000D02*
X162495000Y-97155000D01*
X149479000Y-105410000D02*
X149479000Y-82931000D01*
X149733000Y-105664000D02*
X149479000Y-105410000D01*
X149479000Y-82931000D02*
X151130000Y-81280000D01*
X123825000Y-108674500D02*
X123825000Y-90805000D01*
X123825000Y-90805000D02*
X125730000Y-88900000D01*
D27*
X101600000Y-127000000D02*
X101600000Y-124878680D01*
X100330000Y-123608680D02*
X100330000Y-118110000D01*
X101600000Y-124878680D02*
X100330000Y-123608680D01*
D26*
X133260500Y-77470000D02*
X133350000Y-77559500D01*
X161925000Y-62230000D02*
X161925000Y-70485000D01*
X161925000Y-70485000D02*
X158750000Y-73660000D01*
X133350000Y-86360000D02*
X125730000Y-93980000D01*
X133350000Y-77559500D02*
X133350000Y-86360000D01*
X122555000Y-106680000D02*
X122555000Y-109220000D01*
X127635000Y-93345000D02*
X127635000Y-99695000D01*
X127635000Y-99695000D02*
X125730000Y-101600000D01*
X133985000Y-70739000D02*
X133985000Y-86995000D01*
X162649500Y-67220500D02*
X167640000Y-62230000D01*
X162649500Y-67310000D02*
X162649500Y-67220500D01*
X133985000Y-86995000D02*
X127635000Y-93345000D01*
X138430000Y-104140000D02*
X140335000Y-104140000D01*
X146235000Y-84395305D02*
X146235000Y-57613604D01*
X147955000Y-86115305D02*
X146235000Y-84395305D01*
X146235000Y-57613604D02*
X147016802Y-56831802D01*
X140335000Y-104140000D02*
X147955000Y-96520000D01*
X147955000Y-96520000D02*
X147955000Y-86115305D01*
X147016802Y-56831802D02*
X146065000Y-55880000D01*
X146685000Y-57800000D02*
X146685000Y-83820000D01*
X148605000Y-55880000D02*
X146685000Y-57800000D01*
X146685000Y-83820000D02*
X147320000Y-84455000D01*
X151145000Y-55880000D02*
X147409500Y-59615500D01*
X147409500Y-59615500D02*
X147409500Y-82550000D01*
X123190000Y-92075000D02*
X123190000Y-88900000D01*
X115570000Y-109220000D02*
X115570000Y-99695000D01*
X115570000Y-99695000D02*
X123190000Y-92075000D01*
X123190000Y-88900000D02*
X125730000Y-86360000D01*
X121920000Y-58580000D02*
X125500000Y-55000000D01*
X121920000Y-73025000D02*
X121920000Y-58580000D01*
X125500000Y-55000000D02*
X125500000Y-54000000D01*
X154305000Y-73660000D02*
X154305000Y-65405000D01*
G04 #@! TA.AperFunction,Conductor*
G36*
X121228039Y-45740185D02*
G01*
X121273794Y-45792989D01*
X121285000Y-45844500D01*
X121285000Y-72336861D01*
X121265315Y-72403900D01*
X121253151Y-72419832D01*
X121187466Y-72492784D01*
X121092820Y-72656715D01*
X121034326Y-72836742D01*
X121014540Y-73025000D01*
X121034326Y-73213257D01*
X121092820Y-73393284D01*
X121187466Y-73557216D01*
X121253149Y-73630163D01*
X121283380Y-73693155D01*
X121285000Y-73713136D01*
X121285000Y-75949427D01*
X121265315Y-76016466D01*
X121212511Y-76062221D01*
X121161428Y-76073426D01*
X85214928Y-76197378D01*
X85147821Y-76177925D01*
X85101884Y-76125279D01*
X85090500Y-76073379D01*
X85090500Y-66040000D01*
X85745975Y-66040000D01*
X85766043Y-66294993D01*
X85825753Y-66543705D01*
X85923636Y-66780012D01*
X86057284Y-66998108D01*
X86060533Y-67001911D01*
X86060535Y-67001911D01*
X86624766Y-66437679D01*
X86668316Y-66519822D01*
X86788009Y-66660735D01*
X86935195Y-66772623D01*
X86977402Y-66792150D01*
X86414087Y-67355464D01*
X86414087Y-67355465D01*
X86417895Y-67358718D01*
X86635982Y-67492361D01*
X86872294Y-67590246D01*
X87121006Y-67649956D01*
X87376000Y-67670024D01*
X87630993Y-67649956D01*
X87879705Y-67590246D01*
X88116012Y-67492363D01*
X88334108Y-67358715D01*
X88337911Y-67355465D01*
X88337912Y-67355464D01*
X87774609Y-66792161D01*
X87893431Y-66720669D01*
X88027658Y-66593523D01*
X88130861Y-66441308D01*
X88691464Y-67001912D01*
X88691465Y-67001911D01*
X88694715Y-66998108D01*
X88828363Y-66780012D01*
X88926246Y-66543705D01*
X88985956Y-66294993D01*
X89006024Y-66040000D01*
X88985956Y-65785006D01*
X88926246Y-65536294D01*
X88913379Y-65505230D01*
X88905910Y-65435760D01*
X88937185Y-65373281D01*
X88997274Y-65337629D01*
X89067099Y-65340123D01*
X89077326Y-65344037D01*
X89236116Y-65413009D01*
X89445791Y-65471757D01*
X89498857Y-65486626D01*
X89498859Y-65486626D01*
X89502937Y-65487769D01*
X89777452Y-65525500D01*
X89781689Y-65525500D01*
X90050311Y-65525500D01*
X90054548Y-65525500D01*
X90329063Y-65487769D01*
X90595884Y-65413009D01*
X90754660Y-65344042D01*
X90823988Y-65335389D01*
X90886992Y-65365592D01*
X90923666Y-65425063D01*
X90922365Y-65494921D01*
X90918621Y-65505227D01*
X90905754Y-65536291D01*
X90846043Y-65785006D01*
X90825975Y-66039999D01*
X90846043Y-66294993D01*
X90905753Y-66543705D01*
X91003636Y-66780012D01*
X91137284Y-66998108D01*
X91140533Y-67001911D01*
X91140535Y-67001911D01*
X91704766Y-66437679D01*
X91748316Y-66519822D01*
X91868009Y-66660735D01*
X92015195Y-66772623D01*
X92057402Y-66792150D01*
X91494087Y-67355464D01*
X91494087Y-67355465D01*
X91497895Y-67358718D01*
X91715982Y-67492361D01*
X91952294Y-67590246D01*
X92201006Y-67649956D01*
X92455999Y-67670024D01*
X92710993Y-67649956D01*
X92959705Y-67590246D01*
X93196012Y-67492363D01*
X93414108Y-67358715D01*
X93417911Y-67355465D01*
X93417912Y-67355464D01*
X92854609Y-66792161D01*
X92973431Y-66720669D01*
X93107658Y-66593523D01*
X93210861Y-66441309D01*
X93771464Y-67001912D01*
X93771465Y-67001911D01*
X93774715Y-66998108D01*
X93908363Y-66780012D01*
X94006246Y-66543705D01*
X94065956Y-66294993D01*
X94086024Y-66039999D01*
X94065956Y-65785006D01*
X94006246Y-65536294D01*
X93908361Y-65299982D01*
X93774718Y-65081895D01*
X93771465Y-65078087D01*
X93771464Y-65078087D01*
X93207232Y-65642319D01*
X93163684Y-65560178D01*
X93043991Y-65419265D01*
X92896805Y-65307377D01*
X92854596Y-65287849D01*
X93417911Y-64724535D01*
X93417911Y-64724533D01*
X93414108Y-64721284D01*
X93196012Y-64587636D01*
X92959705Y-64489753D01*
X92710993Y-64430043D01*
X92455999Y-64409975D01*
X92201006Y-64430043D01*
X91952291Y-64489754D01*
X91925032Y-64501045D01*
X91855563Y-64508512D01*
X91793084Y-64477236D01*
X91757433Y-64417146D01*
X91759929Y-64347321D01*
X91767484Y-64329436D01*
X91778153Y-64308847D01*
X91870946Y-64047750D01*
X91927323Y-63776450D01*
X91946233Y-63500000D01*
X91927323Y-63223550D01*
X91870946Y-62952250D01*
X91778153Y-62691153D01*
X91767485Y-62670566D01*
X91754119Y-62601988D01*
X91779951Y-62537069D01*
X91836780Y-62496421D01*
X91906564Y-62492950D01*
X91925035Y-62498955D01*
X91952294Y-62510246D01*
X92201006Y-62569956D01*
X92455999Y-62590024D01*
X92710993Y-62569956D01*
X92959705Y-62510246D01*
X93196012Y-62412363D01*
X93414108Y-62278715D01*
X93417911Y-62275465D01*
X93417912Y-62275464D01*
X92854609Y-61712161D01*
X92973431Y-61640669D01*
X93107658Y-61513523D01*
X93210861Y-61361309D01*
X93771464Y-61921912D01*
X93771465Y-61921911D01*
X93774715Y-61918108D01*
X93908363Y-61700012D01*
X94006246Y-61463705D01*
X94065956Y-61214993D01*
X94086024Y-60960000D01*
X94065956Y-60705006D01*
X94006246Y-60456294D01*
X93908361Y-60219982D01*
X93774718Y-60001895D01*
X93771465Y-59998087D01*
X93771464Y-59998087D01*
X93207232Y-60562319D01*
X93163684Y-60480178D01*
X93043991Y-60339265D01*
X92896805Y-60227377D01*
X92854597Y-60207849D01*
X93417911Y-59644535D01*
X93417911Y-59644533D01*
X93414108Y-59641284D01*
X93196012Y-59507636D01*
X92959705Y-59409753D01*
X92710993Y-59350043D01*
X92455999Y-59329975D01*
X92201006Y-59350043D01*
X91952294Y-59409753D01*
X91715982Y-59507638D01*
X91497895Y-59641281D01*
X91494087Y-59644533D01*
X91494087Y-59644534D01*
X92057390Y-60207837D01*
X91938569Y-60279331D01*
X91804342Y-60406477D01*
X91701138Y-60558691D01*
X91140534Y-59998087D01*
X91140533Y-59998087D01*
X91137281Y-60001895D01*
X91003638Y-60219982D01*
X90905753Y-60456294D01*
X90846043Y-60705006D01*
X90825975Y-60960000D01*
X90846043Y-61214993D01*
X90905753Y-61463705D01*
X90918621Y-61494771D01*
X90926088Y-61564240D01*
X90894813Y-61626719D01*
X90834723Y-61662371D01*
X90764898Y-61659876D01*
X90754657Y-61655956D01*
X90599765Y-61588676D01*
X90599755Y-61588672D01*
X90595884Y-61586991D01*
X90591812Y-61585850D01*
X90333142Y-61513373D01*
X90333129Y-61513370D01*
X90329063Y-61512231D01*
X90324876Y-61511655D01*
X90324864Y-61511653D01*
X90058745Y-61475076D01*
X90058732Y-61475075D01*
X90054548Y-61474500D01*
X89777452Y-61474500D01*
X89773268Y-61475075D01*
X89773254Y-61475076D01*
X89507135Y-61511653D01*
X89507120Y-61511655D01*
X89502937Y-61512231D01*
X89498873Y-61513369D01*
X89498857Y-61513373D01*
X89240187Y-61585850D01*
X89240182Y-61585851D01*
X89236116Y-61586991D01*
X89232249Y-61588670D01*
X89232234Y-61588676D01*
X89077342Y-61655956D01*
X89008010Y-61664610D01*
X88945006Y-61634406D01*
X88908333Y-61574935D01*
X88909634Y-61505077D01*
X88913379Y-61494768D01*
X88926246Y-61463702D01*
X88985956Y-61214993D01*
X89006024Y-60960000D01*
X88985956Y-60705006D01*
X88926246Y-60456294D01*
X88828361Y-60219982D01*
X88694718Y-60001895D01*
X88691465Y-59998087D01*
X88691464Y-59998087D01*
X88127232Y-60562319D01*
X88083684Y-60480178D01*
X87963991Y-60339265D01*
X87816805Y-60227377D01*
X87774597Y-60207849D01*
X88337911Y-59644535D01*
X88337911Y-59644533D01*
X88334108Y-59641284D01*
X88116012Y-59507636D01*
X87879705Y-59409753D01*
X87630993Y-59350043D01*
X87375999Y-59329975D01*
X87121006Y-59350043D01*
X86872294Y-59409753D01*
X86635982Y-59507638D01*
X86417895Y-59641281D01*
X86414087Y-59644533D01*
X86414087Y-59644534D01*
X86977390Y-60207837D01*
X86858569Y-60279331D01*
X86724342Y-60406477D01*
X86621138Y-60558691D01*
X86060534Y-59998087D01*
X86060533Y-59998087D01*
X86057281Y-60001895D01*
X85923638Y-60219982D01*
X85825753Y-60456294D01*
X85766043Y-60705006D01*
X85745975Y-60960000D01*
X85766043Y-61214993D01*
X85825753Y-61463705D01*
X85923636Y-61700012D01*
X86057284Y-61918108D01*
X86060533Y-61921911D01*
X86060535Y-61921911D01*
X86624766Y-61357679D01*
X86668316Y-61439822D01*
X86788009Y-61580735D01*
X86935195Y-61692623D01*
X86977402Y-61712150D01*
X86414087Y-62275464D01*
X86414087Y-62275465D01*
X86417895Y-62278718D01*
X86635982Y-62412361D01*
X86872294Y-62510246D01*
X87121006Y-62569956D01*
X87376000Y-62590024D01*
X87630993Y-62569956D01*
X87879702Y-62510246D01*
X87906963Y-62498955D01*
X87976432Y-62491486D01*
X88038912Y-62522760D01*
X88074565Y-62582849D01*
X88072072Y-62652674D01*
X88064516Y-62670562D01*
X88053847Y-62691153D01*
X88052430Y-62695138D01*
X88052426Y-62695149D01*
X87962475Y-62948249D01*
X87962471Y-62948261D01*
X87961054Y-62952250D01*
X87960191Y-62956400D01*
X87960190Y-62956406D01*
X87905540Y-63219393D01*
X87905538Y-63219404D01*
X87904677Y-63223550D01*
X87904388Y-63227774D01*
X87904387Y-63227782D01*
X87886056Y-63495775D01*
X87885767Y-63500000D01*
X87904677Y-63776450D01*
X87905538Y-63780597D01*
X87905540Y-63780606D01*
X87960190Y-64043593D01*
X87961054Y-64047750D01*
X87962472Y-64051742D01*
X87962475Y-64051750D01*
X88052426Y-64304850D01*
X88053847Y-64308847D01*
X88055793Y-64312603D01*
X88055798Y-64312614D01*
X88064514Y-64329434D01*
X88077880Y-64398014D01*
X88052046Y-64462932D01*
X87995217Y-64503579D01*
X87925433Y-64507048D01*
X87906966Y-64501045D01*
X87879705Y-64489753D01*
X87630993Y-64430043D01*
X87376000Y-64409975D01*
X87121006Y-64430043D01*
X86872294Y-64489753D01*
X86635982Y-64587638D01*
X86417895Y-64721281D01*
X86414087Y-64724533D01*
X86414087Y-64724534D01*
X86977390Y-65287837D01*
X86858569Y-65359331D01*
X86724342Y-65486477D01*
X86621138Y-65638691D01*
X86060534Y-65078087D01*
X86060533Y-65078087D01*
X86057281Y-65081895D01*
X85923638Y-65299982D01*
X85825753Y-65536294D01*
X85766043Y-65785006D01*
X85745975Y-66040000D01*
X85090500Y-66040000D01*
X85090500Y-49533356D01*
X85595335Y-49533356D01*
X85614343Y-49883958D01*
X85615069Y-49890630D01*
X85671874Y-50237130D01*
X85673317Y-50243684D01*
X85767251Y-50582001D01*
X85769396Y-50588368D01*
X85899360Y-50914552D01*
X85902169Y-50920626D01*
X86066649Y-51230868D01*
X86070102Y-51236606D01*
X86267147Y-51527225D01*
X86271207Y-51532566D01*
X86396441Y-51680003D01*
X86396442Y-51680004D01*
X87602266Y-50474179D01*
X87765130Y-50664870D01*
X87955818Y-50827732D01*
X86747255Y-52036295D01*
X86758047Y-52046518D01*
X86763157Y-52050858D01*
X87042694Y-52263357D01*
X87048240Y-52267117D01*
X87349099Y-52448137D01*
X87355038Y-52451285D01*
X87673695Y-52598712D01*
X87679937Y-52601199D01*
X88012684Y-52713315D01*
X88019129Y-52715104D01*
X88362053Y-52790588D01*
X88368677Y-52791674D01*
X88717740Y-52829636D01*
X88724437Y-52830000D01*
X89075563Y-52830000D01*
X89082259Y-52829636D01*
X89431322Y-52791674D01*
X89437946Y-52790588D01*
X89780870Y-52715104D01*
X89787315Y-52713315D01*
X90120062Y-52601199D01*
X90126304Y-52598712D01*
X90444961Y-52451285D01*
X90450900Y-52448137D01*
X90751759Y-52267117D01*
X90757305Y-52263357D01*
X91036846Y-52050856D01*
X91041950Y-52046519D01*
X91052742Y-52036296D01*
X91052743Y-52036295D01*
X89844180Y-50827733D01*
X90034870Y-50664870D01*
X90197733Y-50474180D01*
X91403556Y-51680003D01*
X91403557Y-51680003D01*
X91528792Y-51532566D01*
X91532852Y-51527225D01*
X91729897Y-51236606D01*
X91733350Y-51230868D01*
X91897830Y-50920626D01*
X91900639Y-50914552D01*
X92030603Y-50588368D01*
X92032748Y-50582001D01*
X92126682Y-50243684D01*
X92128125Y-50237130D01*
X92184930Y-49890630D01*
X92185656Y-49883958D01*
X92204664Y-49533356D01*
X92204664Y-49526643D01*
X92185656Y-49176041D01*
X92184930Y-49169369D01*
X92128125Y-48822869D01*
X92126682Y-48816315D01*
X92032748Y-48477998D01*
X92030603Y-48471631D01*
X91900639Y-48145447D01*
X91897830Y-48139373D01*
X91733350Y-47829131D01*
X91729897Y-47823393D01*
X91532852Y-47532774D01*
X91528792Y-47527433D01*
X91403557Y-47379995D01*
X91403556Y-47379994D01*
X90197732Y-48585818D01*
X90034870Y-48395130D01*
X89844180Y-48232266D01*
X91052743Y-47023703D01*
X91041942Y-47013473D01*
X91036842Y-47009141D01*
X90757305Y-46796642D01*
X90751759Y-46792882D01*
X90450900Y-46611862D01*
X90444961Y-46608714D01*
X90126304Y-46461287D01*
X90120062Y-46458800D01*
X89787315Y-46346684D01*
X89780870Y-46344895D01*
X89437946Y-46269411D01*
X89431322Y-46268325D01*
X89082259Y-46230363D01*
X89075563Y-46230000D01*
X88724437Y-46230000D01*
X88717740Y-46230363D01*
X88368677Y-46268325D01*
X88362053Y-46269411D01*
X88019129Y-46344895D01*
X88012684Y-46346684D01*
X87679937Y-46458800D01*
X87673695Y-46461287D01*
X87355038Y-46608714D01*
X87349099Y-46611862D01*
X87048240Y-46792882D01*
X87042694Y-46796642D01*
X86763149Y-47009146D01*
X86758054Y-47013474D01*
X86747256Y-47023702D01*
X86747255Y-47023703D01*
X87955819Y-48232266D01*
X87765130Y-48395130D01*
X87602267Y-48585818D01*
X86396442Y-47379994D01*
X86396441Y-47379995D01*
X86271207Y-47527433D01*
X86267147Y-47532774D01*
X86070102Y-47823393D01*
X86066649Y-47829131D01*
X85902169Y-48139373D01*
X85899360Y-48145447D01*
X85769396Y-48471631D01*
X85767251Y-48477998D01*
X85673317Y-48816315D01*
X85671874Y-48822869D01*
X85615069Y-49169369D01*
X85614343Y-49176041D01*
X85595335Y-49526643D01*
X85595335Y-49533356D01*
X85090500Y-49533356D01*
X85090500Y-45844500D01*
X85110185Y-45777461D01*
X85162989Y-45731706D01*
X85214500Y-45720500D01*
X121161000Y-45720500D01*
X121228039Y-45740185D01*
G37*
G04 #@! TD.AperFunction*
G04 #@! TA.AperFunction,Conductor*
G36*
X184092539Y-45740185D02*
G01*
X184138294Y-45792989D01*
X184149500Y-45844500D01*
X184149500Y-133225500D01*
X184129815Y-133292539D01*
X184077011Y-133338294D01*
X184025500Y-133349500D01*
X85214500Y-133349500D01*
X85147461Y-133329815D01*
X85101706Y-133277011D01*
X85090500Y-133225500D01*
X85090500Y-129540000D01*
X85594652Y-129540000D01*
X85594834Y-129543356D01*
X85613845Y-129894007D01*
X85613846Y-129894018D01*
X85614028Y-129897371D01*
X85614572Y-129900692D01*
X85614573Y-129900697D01*
X85671384Y-130247233D01*
X85671387Y-130247248D01*
X85671929Y-130250552D01*
X85767676Y-130595403D01*
X85900147Y-130927880D01*
X86067789Y-131244085D01*
X86268635Y-131540311D01*
X86500332Y-131813086D01*
X86502763Y-131815389D01*
X86502769Y-131815395D01*
X86681622Y-131984813D01*
X86760163Y-132059211D01*
X87045081Y-132275800D01*
X87351747Y-132460315D01*
X87676565Y-132610591D01*
X88015726Y-132724868D01*
X88365254Y-132801805D01*
X88721052Y-132840500D01*
X88724410Y-132840500D01*
X89075590Y-132840500D01*
X89078948Y-132840500D01*
X89434746Y-132801805D01*
X89784274Y-132724868D01*
X90123435Y-132610591D01*
X90448253Y-132460315D01*
X90754919Y-132275800D01*
X91039837Y-132059211D01*
X91299668Y-131813086D01*
X91531365Y-131540311D01*
X91732211Y-131244085D01*
X91899853Y-130927880D01*
X92032324Y-130595403D01*
X92128071Y-130250552D01*
X92185972Y-129897371D01*
X92205348Y-129540000D01*
X92185972Y-129182629D01*
X92128071Y-128829448D01*
X92048978Y-128544578D01*
X94519500Y-128544578D01*
X94519501Y-128547872D01*
X94525909Y-128607483D01*
X94576204Y-128742331D01*
X94662454Y-128857546D01*
X94777669Y-128943796D01*
X94912517Y-128994091D01*
X94972127Y-129000500D01*
X98067872Y-129000499D01*
X98127483Y-128994091D01*
X98262331Y-128943796D01*
X98377546Y-128857546D01*
X98463796Y-128742331D01*
X98514091Y-128607483D01*
X98520500Y-128547873D01*
X98520499Y-125452128D01*
X98514091Y-125392517D01*
X98463796Y-125257669D01*
X98377546Y-125142454D01*
X98262331Y-125056204D01*
X98127483Y-125005909D01*
X98067873Y-124999500D01*
X98064550Y-124999500D01*
X94975439Y-124999500D01*
X94975420Y-124999500D01*
X94972128Y-124999501D01*
X94968848Y-124999853D01*
X94968840Y-124999854D01*
X94912515Y-125005909D01*
X94777669Y-125056204D01*
X94662454Y-125142454D01*
X94576204Y-125257668D01*
X94525909Y-125392516D01*
X94520003Y-125447452D01*
X94519500Y-125452127D01*
X94519500Y-125455448D01*
X94519500Y-125455449D01*
X94519500Y-128544560D01*
X94519500Y-128544578D01*
X92048978Y-128544578D01*
X92032324Y-128484597D01*
X91899853Y-128152120D01*
X91732211Y-127835915D01*
X91531365Y-127539689D01*
X91299668Y-127266914D01*
X91297235Y-127264609D01*
X91297230Y-127264604D01*
X91042267Y-127023091D01*
X91039837Y-127020789D01*
X90754919Y-126804200D01*
X90752045Y-126802471D01*
X90752041Y-126802468D01*
X90451135Y-126621419D01*
X90451134Y-126621418D01*
X90448253Y-126619685D01*
X90443342Y-126617413D01*
X90126490Y-126470822D01*
X90126483Y-126470819D01*
X90123435Y-126469409D01*
X90008332Y-126430626D01*
X89787457Y-126356204D01*
X89787448Y-126356201D01*
X89784274Y-126355132D01*
X89781006Y-126354412D01*
X89780993Y-126354409D01*
X89438033Y-126278918D01*
X89438023Y-126278916D01*
X89434746Y-126278195D01*
X89377318Y-126271949D01*
X89082286Y-126239863D01*
X89082285Y-126239862D01*
X89078948Y-126239500D01*
X88721052Y-126239500D01*
X88717715Y-126239862D01*
X88717713Y-126239863D01*
X88368600Y-126277831D01*
X88368598Y-126277831D01*
X88365254Y-126278195D01*
X88361979Y-126278915D01*
X88361966Y-126278918D01*
X88019006Y-126354409D01*
X88018988Y-126354413D01*
X88015726Y-126355132D01*
X88012555Y-126356200D01*
X88012542Y-126356204D01*
X87679752Y-126468335D01*
X87679749Y-126468336D01*
X87676565Y-126469409D01*
X87673522Y-126470816D01*
X87673509Y-126470822D01*
X87354802Y-126618271D01*
X87354792Y-126618275D01*
X87351747Y-126619685D01*
X87348873Y-126621414D01*
X87348864Y-126621419D01*
X87047958Y-126802468D01*
X87047945Y-126802476D01*
X87045081Y-126804200D01*
X87042423Y-126806220D01*
X87042412Y-126806228D01*
X86762822Y-127018767D01*
X86762814Y-127018773D01*
X86760163Y-127020789D01*
X86757739Y-127023084D01*
X86757732Y-127023091D01*
X86502769Y-127264604D01*
X86502754Y-127264619D01*
X86500332Y-127266914D01*
X86498169Y-127269459D01*
X86498158Y-127269472D01*
X86270808Y-127537130D01*
X86270802Y-127537137D01*
X86268635Y-127539689D01*
X86266755Y-127542461D01*
X86266748Y-127542471D01*
X86069679Y-127833126D01*
X86069671Y-127833138D01*
X86067789Y-127835915D01*
X86066214Y-127838885D01*
X86066212Y-127838889D01*
X85901722Y-128149148D01*
X85901717Y-128149157D01*
X85900147Y-128152120D01*
X85898906Y-128155232D01*
X85898902Y-128155243D01*
X85768924Y-128481464D01*
X85767676Y-128484597D01*
X85766775Y-128487841D01*
X85766773Y-128487848D01*
X85672828Y-128826209D01*
X85671929Y-128829448D01*
X85671388Y-128832747D01*
X85671384Y-128832766D01*
X85619195Y-129151110D01*
X85614028Y-129182629D01*
X85613846Y-129185979D01*
X85613845Y-129185992D01*
X85594834Y-129536643D01*
X85594652Y-129540000D01*
X85090500Y-129540000D01*
X85090500Y-119004578D01*
X96439500Y-119004578D01*
X96439501Y-119007872D01*
X96439853Y-119011152D01*
X96439854Y-119011159D01*
X96445909Y-119067484D01*
X96451725Y-119083077D01*
X96496204Y-119202331D01*
X96582454Y-119317546D01*
X96697669Y-119403796D01*
X96832517Y-119454091D01*
X96892127Y-119460500D01*
X98687872Y-119460499D01*
X98747483Y-119454091D01*
X98882331Y-119403796D01*
X98997546Y-119317546D01*
X99083796Y-119202331D01*
X99132810Y-119070916D01*
X99174681Y-119014983D01*
X99240146Y-118990566D01*
X99308419Y-119005418D01*
X99336673Y-119026569D01*
X99393181Y-119083077D01*
X99426666Y-119144400D01*
X99429500Y-119170758D01*
X99429500Y-123528053D01*
X99427973Y-123547451D01*
X99425780Y-123561290D01*
X99429330Y-123629015D01*
X99429500Y-123635504D01*
X99429500Y-123655872D01*
X99429837Y-123659084D01*
X99429838Y-123659093D01*
X99431628Y-123676127D01*
X99432136Y-123682589D01*
X99435686Y-123750325D01*
X99439315Y-123763867D01*
X99442860Y-123782995D01*
X99444325Y-123796934D01*
X99465282Y-123861434D01*
X99467125Y-123867656D01*
X99484679Y-123933167D01*
X99491042Y-123945654D01*
X99498489Y-123963633D01*
X99502820Y-123976963D01*
X99536725Y-124035688D01*
X99539823Y-124041393D01*
X99550087Y-124061537D01*
X99570617Y-124101829D01*
X99579439Y-124112723D01*
X99590458Y-124128756D01*
X99597466Y-124140895D01*
X99642854Y-124191305D01*
X99647067Y-124196237D01*
X99659881Y-124212060D01*
X99662180Y-124214359D01*
X99674274Y-124226453D01*
X99678743Y-124231162D01*
X99724129Y-124281568D01*
X99735467Y-124289805D01*
X99750265Y-124302444D01*
X100556967Y-125109146D01*
X100590452Y-125170469D01*
X100585468Y-125240161D01*
X100543596Y-125296094D01*
X100528716Y-125305657D01*
X100515690Y-125312770D01*
X100286602Y-125484263D01*
X100084263Y-125686602D01*
X99912772Y-125915686D01*
X99775634Y-126166836D01*
X99675629Y-126434958D01*
X99614804Y-126714570D01*
X99594389Y-127000000D01*
X99614804Y-127285429D01*
X99675629Y-127565041D01*
X99675631Y-127565046D01*
X99733063Y-127719028D01*
X99775634Y-127833163D01*
X99912772Y-128084313D01*
X99961307Y-128149148D01*
X100084261Y-128313395D01*
X100286605Y-128515739D01*
X100409161Y-128607483D01*
X100515686Y-128687227D01*
X100616600Y-128742330D01*
X100766839Y-128824367D01*
X101034954Y-128924369D01*
X101034957Y-128924369D01*
X101034958Y-128924370D01*
X101087217Y-128935738D01*
X101314572Y-128985196D01*
X101600000Y-129005610D01*
X101885428Y-128985196D01*
X102165046Y-128924369D01*
X102433161Y-128824367D01*
X102684315Y-128687226D01*
X102874871Y-128544578D01*
X106584500Y-128544578D01*
X106584501Y-128547872D01*
X106590909Y-128607483D01*
X106641204Y-128742331D01*
X106727454Y-128857546D01*
X106842669Y-128943796D01*
X106977517Y-128994091D01*
X107037127Y-129000500D01*
X110132872Y-129000499D01*
X110192483Y-128994091D01*
X110327331Y-128943796D01*
X110442546Y-128857546D01*
X110528796Y-128742331D01*
X110579091Y-128607483D01*
X110585500Y-128547873D01*
X110585499Y-126999999D01*
X111659890Y-126999999D01*
X111680300Y-127285357D01*
X111741111Y-127564902D01*
X111841088Y-127832952D01*
X111978193Y-128084042D01*
X112084883Y-128226562D01*
X112980195Y-127331250D01*
X113002340Y-127382587D01*
X113108433Y-127525094D01*
X113244530Y-127639294D01*
X113334216Y-127684335D01*
X112438436Y-128580115D01*
X112580958Y-128686806D01*
X112832047Y-128823911D01*
X113100097Y-128923888D01*
X113379642Y-128984699D01*
X113664999Y-129005109D01*
X113950357Y-128984699D01*
X114229902Y-128923888D01*
X114497952Y-128823911D01*
X114749041Y-128686806D01*
X114791530Y-128654999D01*
X120299551Y-128654999D01*
X120319317Y-128906149D01*
X120378126Y-129151110D01*
X120389804Y-129179302D01*
X120474534Y-129383859D01*
X120606164Y-129598659D01*
X120769776Y-129790224D01*
X120961341Y-129953836D01*
X121176141Y-130085466D01*
X121408889Y-130181873D01*
X121653852Y-130240683D01*
X121842118Y-130255500D01*
X121844563Y-130255500D01*
X123265437Y-130255500D01*
X123267882Y-130255500D01*
X123456148Y-130240683D01*
X123701111Y-130181873D01*
X123933859Y-130085466D01*
X124148659Y-129953836D01*
X124340224Y-129790224D01*
X124503836Y-129598659D01*
X124635466Y-129383859D01*
X124731873Y-129151111D01*
X124790683Y-128906148D01*
X124810449Y-128655000D01*
X124810449Y-128654999D01*
X127919551Y-128654999D01*
X127939317Y-128906149D01*
X127998126Y-129151110D01*
X128009804Y-129179302D01*
X128094534Y-129383859D01*
X128226164Y-129598659D01*
X128389776Y-129790224D01*
X128581341Y-129953836D01*
X128796141Y-130085466D01*
X129028889Y-130181873D01*
X129273852Y-130240683D01*
X129462118Y-130255500D01*
X129464563Y-130255500D01*
X130885437Y-130255500D01*
X130887882Y-130255500D01*
X131076148Y-130240683D01*
X131321111Y-130181873D01*
X131553859Y-130085466D01*
X131768659Y-129953836D01*
X131960224Y-129790224D01*
X132123836Y-129598659D01*
X132159782Y-129540000D01*
X177034652Y-129540000D01*
X177034834Y-129543356D01*
X177053845Y-129894007D01*
X177053846Y-129894018D01*
X177054028Y-129897371D01*
X177054572Y-129900692D01*
X177054573Y-129900697D01*
X177111384Y-130247233D01*
X177111387Y-130247248D01*
X177111929Y-130250552D01*
X177207676Y-130595403D01*
X177340147Y-130927880D01*
X177507789Y-131244085D01*
X177708635Y-131540311D01*
X177940332Y-131813086D01*
X177942763Y-131815389D01*
X177942769Y-131815395D01*
X178121622Y-131984813D01*
X178200163Y-132059211D01*
X178485081Y-132275800D01*
X178791747Y-132460315D01*
X179116565Y-132610591D01*
X179455726Y-132724868D01*
X179805254Y-132801805D01*
X180161052Y-132840500D01*
X180164410Y-132840500D01*
X180515590Y-132840500D01*
X180518948Y-132840500D01*
X180874746Y-132801805D01*
X181224274Y-132724868D01*
X181563435Y-132610591D01*
X181888253Y-132460315D01*
X182194919Y-132275800D01*
X182479837Y-132059211D01*
X182739668Y-131813086D01*
X182971365Y-131540311D01*
X183172211Y-131244085D01*
X183339853Y-130927880D01*
X183472324Y-130595403D01*
X183568071Y-130250552D01*
X183625972Y-129897371D01*
X183645348Y-129540000D01*
X183625972Y-129182629D01*
X183568071Y-128829448D01*
X183472324Y-128484597D01*
X183339853Y-128152120D01*
X183172211Y-127835915D01*
X182971365Y-127539689D01*
X182739668Y-127266914D01*
X182737235Y-127264609D01*
X182737230Y-127264604D01*
X182482267Y-127023091D01*
X182479837Y-127020789D01*
X182194919Y-126804200D01*
X182192045Y-126802471D01*
X182192041Y-126802468D01*
X181891135Y-126621419D01*
X181891134Y-126621418D01*
X181888253Y-126619685D01*
X181883342Y-126617413D01*
X181566490Y-126470822D01*
X181566483Y-126470819D01*
X181563435Y-126469409D01*
X181448332Y-126430626D01*
X181227457Y-126356204D01*
X181227448Y-126356201D01*
X181224274Y-126355132D01*
X181221006Y-126354412D01*
X181220993Y-126354409D01*
X180878033Y-126278918D01*
X180878023Y-126278916D01*
X180874746Y-126278195D01*
X180817318Y-126271949D01*
X180522286Y-126239863D01*
X180522285Y-126239862D01*
X180518948Y-126239500D01*
X180161052Y-126239500D01*
X180157715Y-126239862D01*
X180157713Y-126239863D01*
X179808600Y-126277831D01*
X179808598Y-126277831D01*
X179805254Y-126278195D01*
X179801979Y-126278915D01*
X179801966Y-126278918D01*
X179459006Y-126354409D01*
X179458988Y-126354413D01*
X179455726Y-126355132D01*
X179452555Y-126356200D01*
X179452542Y-126356204D01*
X179119752Y-126468335D01*
X179119749Y-126468336D01*
X179116565Y-126469409D01*
X179113522Y-126470816D01*
X179113509Y-126470822D01*
X178794802Y-126618271D01*
X178794792Y-126618275D01*
X178791747Y-126619685D01*
X178788873Y-126621414D01*
X178788864Y-126621419D01*
X178487958Y-126802468D01*
X178487945Y-126802476D01*
X178485081Y-126804200D01*
X178482423Y-126806220D01*
X178482412Y-126806228D01*
X178202822Y-127018767D01*
X178202814Y-127018773D01*
X178200163Y-127020789D01*
X178197739Y-127023084D01*
X178197732Y-127023091D01*
X177942769Y-127264604D01*
X177942754Y-127264619D01*
X177940332Y-127266914D01*
X177938169Y-127269459D01*
X177938158Y-127269472D01*
X177710808Y-127537130D01*
X177710802Y-127537137D01*
X177708635Y-127539689D01*
X177706755Y-127542461D01*
X177706748Y-127542471D01*
X177509679Y-127833126D01*
X177509671Y-127833138D01*
X177507789Y-127835915D01*
X177506214Y-127838885D01*
X177506212Y-127838889D01*
X177341722Y-128149148D01*
X177341717Y-128149157D01*
X177340147Y-128152120D01*
X177338906Y-128155232D01*
X177338902Y-128155243D01*
X177208924Y-128481464D01*
X177207676Y-128484597D01*
X177206775Y-128487841D01*
X177206773Y-128487848D01*
X177112828Y-128826209D01*
X177111929Y-128829448D01*
X177111388Y-128832747D01*
X177111384Y-128832766D01*
X177059195Y-129151110D01*
X177054028Y-129182629D01*
X177053846Y-129185979D01*
X177053845Y-129185992D01*
X177034834Y-129536643D01*
X177034652Y-129540000D01*
X132159782Y-129540000D01*
X132255466Y-129383859D01*
X132351873Y-129151111D01*
X132410683Y-128906148D01*
X132430449Y-128655000D01*
X132421759Y-128544578D01*
X136429500Y-128544578D01*
X136429501Y-128547872D01*
X136435909Y-128607483D01*
X136486204Y-128742331D01*
X136572454Y-128857546D01*
X136687669Y-128943796D01*
X136822517Y-128994091D01*
X136882127Y-129000500D01*
X139977872Y-129000499D01*
X140037483Y-128994091D01*
X140172331Y-128943796D01*
X140287546Y-128857546D01*
X140373796Y-128742331D01*
X140424091Y-128607483D01*
X140430500Y-128547873D01*
X140430499Y-125452128D01*
X140424091Y-125392517D01*
X140373796Y-125257669D01*
X140287546Y-125142454D01*
X140172331Y-125056204D01*
X140037483Y-125005909D01*
X139977873Y-124999500D01*
X139974550Y-124999500D01*
X136885439Y-124999500D01*
X136885420Y-124999500D01*
X136882128Y-124999501D01*
X136878848Y-124999853D01*
X136878840Y-124999854D01*
X136822515Y-125005909D01*
X136687669Y-125056204D01*
X136572454Y-125142454D01*
X136486204Y-125257668D01*
X136435909Y-125392516D01*
X136430003Y-125447452D01*
X136429500Y-125452127D01*
X136429500Y-125455448D01*
X136429500Y-125455449D01*
X136429500Y-128544560D01*
X136429500Y-128544578D01*
X132421759Y-128544578D01*
X132410683Y-128403852D01*
X132351873Y-128158889D01*
X132255466Y-127926141D01*
X132123836Y-127711341D01*
X131960224Y-127519776D01*
X131960221Y-127519773D01*
X131953886Y-127512356D01*
X131955274Y-127511169D01*
X131923543Y-127462560D01*
X131918979Y-127413522D01*
X131925144Y-127356180D01*
X131925500Y-127352873D01*
X131925499Y-125757128D01*
X131919091Y-125697517D01*
X131868796Y-125562669D01*
X131810100Y-125484261D01*
X131782545Y-125447452D01*
X131743401Y-125418149D01*
X131701531Y-125362215D01*
X131696547Y-125292523D01*
X131714222Y-125250578D01*
X131780635Y-125149968D01*
X131869103Y-124942988D01*
X131919191Y-124723537D01*
X131929290Y-124498670D01*
X131899075Y-124275613D01*
X131829517Y-124061536D01*
X131722852Y-123863319D01*
X131582508Y-123687334D01*
X131569681Y-123676127D01*
X131538112Y-123648545D01*
X131500578Y-123589613D01*
X131500864Y-123519744D01*
X131530071Y-123469473D01*
X131656239Y-123337512D01*
X131780193Y-123149728D01*
X131868625Y-122942833D01*
X131900084Y-122805000D01*
X130490686Y-122805000D01*
X130502641Y-122793045D01*
X130560165Y-122680148D01*
X130579986Y-122555000D01*
X130560165Y-122429852D01*
X130502641Y-122316955D01*
X130490686Y-122305000D01*
X131902550Y-122305000D01*
X131902551Y-122304998D01*
X131898585Y-122275727D01*
X131829055Y-122061734D01*
X131743923Y-121903532D01*
X131729489Y-121835169D01*
X131754307Y-121769855D01*
X131772580Y-121750486D01*
X131960224Y-121590224D01*
X132123836Y-121398659D01*
X132255466Y-121183859D01*
X132351873Y-120951111D01*
X132410683Y-120706148D01*
X132430449Y-120455000D01*
X132410683Y-120203852D01*
X132351873Y-119958889D01*
X132255466Y-119726141D01*
X132123836Y-119511341D01*
X131960224Y-119319776D01*
X131768659Y-119156164D01*
X131553859Y-119024534D01*
X131437485Y-118976330D01*
X131321110Y-118928126D01*
X131076149Y-118869317D01*
X130890316Y-118854691D01*
X130890301Y-118854690D01*
X130887882Y-118854500D01*
X129462118Y-118854500D01*
X129459699Y-118854690D01*
X129459683Y-118854691D01*
X129273850Y-118869317D01*
X129028889Y-118928126D01*
X128796139Y-119024535D01*
X128581342Y-119156163D01*
X128389776Y-119319776D01*
X128226163Y-119511342D01*
X128094535Y-119726139D01*
X127998126Y-119958889D01*
X127939317Y-120203850D01*
X127919551Y-120455000D01*
X127939317Y-120706149D01*
X127998126Y-120951110D01*
X128046330Y-121067485D01*
X128094534Y-121183859D01*
X128226164Y-121398659D01*
X128389776Y-121590224D01*
X128577788Y-121750802D01*
X128615981Y-121809308D01*
X128616479Y-121879176D01*
X128600744Y-121913400D01*
X128569807Y-121960268D01*
X128481374Y-122167166D01*
X128449915Y-122304999D01*
X128449916Y-122305000D01*
X129859314Y-122305000D01*
X129847359Y-122316955D01*
X129789835Y-122429852D01*
X129770014Y-122555000D01*
X129789835Y-122680148D01*
X129847359Y-122793045D01*
X129859314Y-122805000D01*
X128447450Y-122805000D01*
X128447448Y-122805001D01*
X128451414Y-122834272D01*
X128520944Y-123048265D01*
X128627569Y-123246407D01*
X128767850Y-123422314D01*
X128811855Y-123460760D01*
X128849389Y-123519692D01*
X128849105Y-123589561D01*
X128819898Y-123639833D01*
X128693368Y-123772174D01*
X128569365Y-123960031D01*
X128480896Y-124167012D01*
X128430809Y-124386462D01*
X128420709Y-124611328D01*
X128450925Y-124834388D01*
X128520205Y-125047610D01*
X128520483Y-125048464D01*
X128627148Y-125246681D01*
X128627150Y-125246684D01*
X128632437Y-125256508D01*
X128630681Y-125257452D01*
X128651784Y-125309145D01*
X128639029Y-125377840D01*
X128602741Y-125421037D01*
X128567455Y-125447452D01*
X128481204Y-125562668D01*
X128430910Y-125697515D01*
X128430909Y-125697517D01*
X128424500Y-125757127D01*
X128424500Y-125760448D01*
X128424500Y-125760449D01*
X128424500Y-127349560D01*
X128424500Y-127349578D01*
X128424501Y-127352872D01*
X128424853Y-127356150D01*
X128424854Y-127356161D01*
X128431021Y-127413524D01*
X128418614Y-127482283D01*
X128395495Y-127511828D01*
X128396113Y-127512355D01*
X128226165Y-127711338D01*
X128094535Y-127926139D01*
X127998126Y-128158889D01*
X127939317Y-128403850D01*
X127919551Y-128654999D01*
X124810449Y-128654999D01*
X124790683Y-128403852D01*
X124731873Y-128158889D01*
X124635466Y-127926141D01*
X124503836Y-127711341D01*
X124340224Y-127519776D01*
X124340221Y-127519773D01*
X124333886Y-127512356D01*
X124335274Y-127511169D01*
X124303543Y-127462560D01*
X124298979Y-127413522D01*
X124305144Y-127356180D01*
X124305500Y-127352873D01*
X124305499Y-125757128D01*
X124299091Y-125697517D01*
X124248796Y-125562669D01*
X124190100Y-125484261D01*
X124162545Y-125447452D01*
X124123401Y-125418149D01*
X124081531Y-125362215D01*
X124076547Y-125292523D01*
X124094222Y-125250578D01*
X124160635Y-125149968D01*
X124249103Y-124942988D01*
X124299191Y-124723537D01*
X124309290Y-124498670D01*
X124279075Y-124275613D01*
X124209517Y-124061536D01*
X124102852Y-123863319D01*
X123962508Y-123687334D01*
X123949681Y-123676127D01*
X123945965Y-123672880D01*
X123908431Y-123613948D01*
X123908717Y-123544079D01*
X123946731Y-123485456D01*
X124010405Y-123456691D01*
X124027550Y-123455500D01*
X124940211Y-123455500D01*
X124959608Y-123457026D01*
X124973449Y-123459219D01*
X125041173Y-123455670D01*
X125047663Y-123455500D01*
X125064789Y-123455500D01*
X125068029Y-123455500D01*
X125071250Y-123455161D01*
X125071258Y-123455161D01*
X125088284Y-123453371D01*
X125094743Y-123452862D01*
X125162483Y-123449313D01*
X125176030Y-123445682D01*
X125195146Y-123442139D01*
X125209093Y-123440674D01*
X125273623Y-123419706D01*
X125279788Y-123417880D01*
X125345325Y-123400320D01*
X125357811Y-123393956D01*
X125375790Y-123386509D01*
X125389121Y-123382179D01*
X125447888Y-123348248D01*
X125453514Y-123345193D01*
X125513986Y-123314383D01*
X125524879Y-123305560D01*
X125540911Y-123294542D01*
X125553053Y-123287533D01*
X125603475Y-123242131D01*
X125608377Y-123237945D01*
X125624217Y-123225119D01*
X125638616Y-123210718D01*
X125643308Y-123206265D01*
X125693725Y-123160871D01*
X125701966Y-123149526D01*
X125714597Y-123134737D01*
X126944742Y-121904593D01*
X126959527Y-121891966D01*
X126970871Y-121883725D01*
X127016256Y-121833318D01*
X127020712Y-121828624D01*
X127032815Y-121816522D01*
X127032816Y-121816520D01*
X127035120Y-121814217D01*
X127047956Y-121798363D01*
X127052150Y-121793454D01*
X127097533Y-121743053D01*
X127104544Y-121730907D01*
X127115557Y-121714885D01*
X127124384Y-121703986D01*
X127155181Y-121643539D01*
X127158273Y-121637847D01*
X127169627Y-121618181D01*
X127192179Y-121579121D01*
X127196513Y-121565780D01*
X127203956Y-121547813D01*
X127210320Y-121535324D01*
X127227874Y-121469810D01*
X127229714Y-121463598D01*
X127250674Y-121399093D01*
X127252140Y-121385142D01*
X127255683Y-121366027D01*
X127259313Y-121352482D01*
X127262862Y-121284743D01*
X127263371Y-121278284D01*
X127265161Y-121261258D01*
X127265161Y-121261250D01*
X127265500Y-121258029D01*
X127265500Y-121237661D01*
X127265670Y-121231172D01*
X127269219Y-121163447D01*
X127267027Y-121149608D01*
X127265500Y-121130210D01*
X127265500Y-119169360D01*
X127285185Y-119102321D01*
X127301819Y-119081679D01*
X127971680Y-118411819D01*
X128033003Y-118378334D01*
X128059361Y-118375500D01*
X135465639Y-118375500D01*
X135532678Y-118395185D01*
X135553320Y-118411819D01*
X142340845Y-125199344D01*
X142374330Y-125260667D01*
X142369346Y-125330359D01*
X142327475Y-125386292D01*
X142196602Y-125484263D01*
X141994263Y-125686602D01*
X141822772Y-125915686D01*
X141685634Y-126166836D01*
X141585629Y-126434958D01*
X141524804Y-126714570D01*
X141504389Y-127000000D01*
X141524804Y-127285429D01*
X141585629Y-127565041D01*
X141585631Y-127565046D01*
X141643063Y-127719028D01*
X141685634Y-127833163D01*
X141822772Y-128084313D01*
X141871307Y-128149148D01*
X141994261Y-128313395D01*
X142196605Y-128515739D01*
X142319161Y-128607483D01*
X142425686Y-128687227D01*
X142526600Y-128742330D01*
X142676839Y-128824367D01*
X142944954Y-128924369D01*
X142944957Y-128924369D01*
X142944958Y-128924370D01*
X142997217Y-128935738D01*
X143224572Y-128985196D01*
X143510000Y-129005610D01*
X143795428Y-128985196D01*
X144075046Y-128924369D01*
X144343161Y-128824367D01*
X144594315Y-128687226D01*
X144784871Y-128544578D01*
X147859500Y-128544578D01*
X147859501Y-128547872D01*
X147865909Y-128607483D01*
X147916204Y-128742331D01*
X148002454Y-128857546D01*
X148117669Y-128943796D01*
X148252517Y-128994091D01*
X148312127Y-129000500D01*
X151407872Y-129000499D01*
X151467483Y-128994091D01*
X151602331Y-128943796D01*
X151717546Y-128857546D01*
X151803796Y-128742331D01*
X151854091Y-128607483D01*
X151860500Y-128547873D01*
X151860499Y-125452128D01*
X151854091Y-125392517D01*
X151803796Y-125257669D01*
X151717546Y-125142454D01*
X151602331Y-125056204D01*
X151467483Y-125005909D01*
X151407873Y-124999500D01*
X151404550Y-124999500D01*
X148315439Y-124999500D01*
X148315420Y-124999500D01*
X148312128Y-124999501D01*
X148308848Y-124999853D01*
X148308840Y-124999854D01*
X148252515Y-125005909D01*
X148117669Y-125056204D01*
X148002454Y-125142454D01*
X147916204Y-125257668D01*
X147865909Y-125392516D01*
X147860003Y-125447452D01*
X147859500Y-125452127D01*
X147859500Y-125455448D01*
X147859500Y-125455449D01*
X147859500Y-128544560D01*
X147859500Y-128544578D01*
X144784871Y-128544578D01*
X144823395Y-128515739D01*
X145025739Y-128313395D01*
X145197226Y-128084315D01*
X145334367Y-127833161D01*
X145434369Y-127565046D01*
X145495196Y-127285428D01*
X145515610Y-127000000D01*
X145495196Y-126714572D01*
X145434369Y-126434954D01*
X145334367Y-126166839D01*
X145273535Y-126055435D01*
X145197227Y-125915686D01*
X145097047Y-125781862D01*
X145025739Y-125686605D01*
X144823395Y-125484261D01*
X144594315Y-125312774D01*
X144594313Y-125312773D01*
X144594312Y-125312772D01*
X144478884Y-125249743D01*
X144429479Y-125200338D01*
X144414481Y-125147399D01*
X144414218Y-125142390D01*
X144414219Y-125142388D01*
X144410746Y-125076111D01*
X144410670Y-125074667D01*
X144410500Y-125068179D01*
X144410500Y-125051049D01*
X144410500Y-125047808D01*
X144408370Y-125027542D01*
X144407861Y-125021086D01*
X144404312Y-124953354D01*
X144400685Y-124939818D01*
X144397139Y-124920684D01*
X144395674Y-124906742D01*
X144374716Y-124842244D01*
X144372871Y-124836015D01*
X144355321Y-124770514D01*
X144348958Y-124758027D01*
X144341508Y-124740041D01*
X144340531Y-124737034D01*
X144337179Y-124726716D01*
X144303249Y-124667949D01*
X144300178Y-124662292D01*
X144274212Y-124611328D01*
X144269383Y-124601850D01*
X144260562Y-124590958D01*
X144249537Y-124574916D01*
X144242535Y-124562787D01*
X144242534Y-124562786D01*
X144242533Y-124562784D01*
X144197127Y-124512355D01*
X144192932Y-124507442D01*
X144182161Y-124494142D01*
X144180119Y-124491620D01*
X144165724Y-124477225D01*
X144161255Y-124472516D01*
X144115871Y-124422111D01*
X144104531Y-124413873D01*
X144089734Y-124401235D01*
X136583764Y-116895265D01*
X136571125Y-116880467D01*
X136562890Y-116869132D01*
X136562888Y-116869129D01*
X136512482Y-116823743D01*
X136507773Y-116819274D01*
X136495679Y-116807180D01*
X136493380Y-116804881D01*
X136490863Y-116802843D01*
X136490859Y-116802839D01*
X136477557Y-116792067D01*
X136472625Y-116787854D01*
X136422215Y-116742466D01*
X136410076Y-116735458D01*
X136394043Y-116724439D01*
X136383149Y-116715617D01*
X136383147Y-116715616D01*
X136383146Y-116715615D01*
X136322713Y-116684823D01*
X136317008Y-116681725D01*
X136258283Y-116647820D01*
X136244953Y-116643489D01*
X136226974Y-116636042D01*
X136214487Y-116629679D01*
X136148976Y-116612125D01*
X136142754Y-116610282D01*
X136078254Y-116589325D01*
X136064315Y-116587860D01*
X136045187Y-116584315D01*
X136031645Y-116580686D01*
X135963909Y-116577136D01*
X135957447Y-116576628D01*
X135940413Y-116574838D01*
X135940404Y-116574837D01*
X135937192Y-116574500D01*
X135933947Y-116574500D01*
X135916826Y-116574500D01*
X135910337Y-116574330D01*
X135905375Y-116574069D01*
X135842612Y-116570781D01*
X135842611Y-116570781D01*
X135835076Y-116571974D01*
X135828771Y-116572973D01*
X135809374Y-116574500D01*
X127715626Y-116574500D01*
X127696228Y-116572973D01*
X127682388Y-116570781D01*
X127614670Y-116574330D01*
X127608180Y-116574500D01*
X127587808Y-116574500D01*
X127584593Y-116574837D01*
X127584588Y-116574838D01*
X127572953Y-116576060D01*
X127567539Y-116576629D01*
X127561084Y-116577137D01*
X127493351Y-116580687D01*
X127479809Y-116584316D01*
X127460685Y-116587860D01*
X127446744Y-116589325D01*
X127382245Y-116610282D01*
X127376023Y-116612126D01*
X127310510Y-116629680D01*
X127298021Y-116636044D01*
X127280052Y-116643487D01*
X127266717Y-116647820D01*
X127207996Y-116681722D01*
X127202295Y-116684818D01*
X127141845Y-116715619D01*
X127130950Y-116724442D01*
X127114922Y-116735458D01*
X127102784Y-116742466D01*
X127052376Y-116787852D01*
X127047451Y-116792059D01*
X127034141Y-116802839D01*
X127031620Y-116804881D01*
X127029337Y-116807163D01*
X127029319Y-116807180D01*
X127017209Y-116819289D01*
X127012508Y-116823751D01*
X126962108Y-116869132D01*
X126953869Y-116880472D01*
X126941235Y-116895264D01*
X125785264Y-118051235D01*
X125770472Y-118063869D01*
X125759132Y-118072108D01*
X125713751Y-118122508D01*
X125709289Y-118127209D01*
X125697180Y-118139319D01*
X125697163Y-118139337D01*
X125694881Y-118141620D01*
X125692846Y-118144132D01*
X125692843Y-118144136D01*
X125682059Y-118157451D01*
X125677852Y-118162376D01*
X125632466Y-118212784D01*
X125625458Y-118224922D01*
X125614442Y-118240950D01*
X125605619Y-118251845D01*
X125574818Y-118312295D01*
X125571722Y-118317996D01*
X125537822Y-118376713D01*
X125533488Y-118390052D01*
X125526044Y-118408022D01*
X125519680Y-118420512D01*
X125502126Y-118486017D01*
X125500284Y-118492234D01*
X125479325Y-118556743D01*
X125477860Y-118570686D01*
X125474315Y-118589814D01*
X125470686Y-118603355D01*
X125467136Y-118671091D01*
X125466628Y-118677553D01*
X125464500Y-118697808D01*
X125464500Y-118701052D01*
X125464500Y-118718174D01*
X125464330Y-118724663D01*
X125460781Y-118792388D01*
X125462973Y-118806227D01*
X125464500Y-118825626D01*
X125464500Y-120786475D01*
X125444815Y-120853514D01*
X125428181Y-120874156D01*
X124684157Y-121618181D01*
X124622834Y-121651666D01*
X124596476Y-121654500D01*
X124554304Y-121654500D01*
X124487265Y-121634815D01*
X124441510Y-121582011D01*
X124431566Y-121512853D01*
X124460014Y-121449969D01*
X124503834Y-121398661D01*
X124503836Y-121398659D01*
X124635466Y-121183859D01*
X124731873Y-120951111D01*
X124790683Y-120706148D01*
X124810449Y-120455000D01*
X124790683Y-120203852D01*
X124731873Y-119958889D01*
X124635466Y-119726141D01*
X124503836Y-119511341D01*
X124340224Y-119319776D01*
X124148659Y-119156164D01*
X123933859Y-119024534D01*
X123817484Y-118976330D01*
X123701110Y-118928126D01*
X123456149Y-118869317D01*
X123270316Y-118854691D01*
X123270301Y-118854690D01*
X123267882Y-118854500D01*
X121842118Y-118854500D01*
X121839699Y-118854690D01*
X121839683Y-118854691D01*
X121653850Y-118869317D01*
X121408889Y-118928126D01*
X121176139Y-119024535D01*
X120961342Y-119156163D01*
X120769776Y-119319776D01*
X120606163Y-119511342D01*
X120474535Y-119726139D01*
X120378126Y-119958889D01*
X120319317Y-120203850D01*
X120299551Y-120455000D01*
X120319317Y-120706149D01*
X120378126Y-120951110D01*
X120426330Y-121067485D01*
X120474534Y-121183859D01*
X120606164Y-121398659D01*
X120769776Y-121590224D01*
X120957405Y-121750474D01*
X120995598Y-121808981D01*
X120996096Y-121878849D01*
X120980361Y-121913074D01*
X120949365Y-121960032D01*
X120860896Y-122167012D01*
X120810809Y-122386462D01*
X120800709Y-122611328D01*
X120830925Y-122834388D01*
X120870114Y-122955000D01*
X120900483Y-123048464D01*
X121007148Y-123246681D01*
X121107032Y-123371931D01*
X121143669Y-123417873D01*
X121147492Y-123422666D01*
X121191510Y-123461124D01*
X121229044Y-123520055D01*
X121228758Y-123589924D01*
X121199552Y-123640195D01*
X121073368Y-123772174D01*
X120949365Y-123960031D01*
X120860896Y-124167012D01*
X120810809Y-124386462D01*
X120800709Y-124611328D01*
X120830925Y-124834388D01*
X120900205Y-125047610D01*
X120900483Y-125048464D01*
X121007148Y-125246681D01*
X121007150Y-125246684D01*
X121012437Y-125256508D01*
X121010681Y-125257452D01*
X121031784Y-125309145D01*
X121019029Y-125377840D01*
X120982741Y-125421037D01*
X120947455Y-125447452D01*
X120861204Y-125562668D01*
X120810910Y-125697515D01*
X120810909Y-125697517D01*
X120804500Y-125757127D01*
X120804500Y-125760448D01*
X120804500Y-125760449D01*
X120804500Y-127349560D01*
X120804500Y-127349578D01*
X120804501Y-127352872D01*
X120804853Y-127356150D01*
X120804854Y-127356161D01*
X120811021Y-127413524D01*
X120798614Y-127482283D01*
X120775495Y-127511828D01*
X120776113Y-127512355D01*
X120606165Y-127711338D01*
X120474535Y-127926139D01*
X120378126Y-128158889D01*
X120319317Y-128403850D01*
X120299551Y-128654999D01*
X114791530Y-128654999D01*
X114891562Y-128580115D01*
X113998748Y-127687300D01*
X114008409Y-127683784D01*
X114156844Y-127586157D01*
X114278764Y-127456930D01*
X114350768Y-127332215D01*
X115245115Y-128226562D01*
X115351806Y-128084041D01*
X115488911Y-127832952D01*
X115588888Y-127564902D01*
X115649699Y-127285357D01*
X115670109Y-126999999D01*
X115649699Y-126714642D01*
X115588888Y-126435097D01*
X115488911Y-126167047D01*
X115351806Y-125915958D01*
X115245115Y-125773436D01*
X114349803Y-126668747D01*
X114327660Y-126617413D01*
X114221567Y-126474906D01*
X114085470Y-126360706D01*
X113995782Y-126315663D01*
X114891562Y-125419883D01*
X114749042Y-125313193D01*
X114497952Y-125176088D01*
X114229902Y-125076111D01*
X113950357Y-125015300D01*
X113665000Y-124994890D01*
X113379642Y-125015300D01*
X113100097Y-125076111D01*
X112832047Y-125176088D01*
X112580954Y-125313195D01*
X112438437Y-125419882D01*
X112438436Y-125419883D01*
X113331252Y-126312699D01*
X113321591Y-126316216D01*
X113173156Y-126413843D01*
X113051236Y-126543070D01*
X112979231Y-126667784D01*
X112084883Y-125773436D01*
X112084882Y-125773437D01*
X111978195Y-125915954D01*
X111841088Y-126167047D01*
X111741111Y-126435097D01*
X111680300Y-126714642D01*
X111659890Y-126999999D01*
X110585499Y-126999999D01*
X110585499Y-125452128D01*
X110579091Y-125392517D01*
X110528796Y-125257669D01*
X110442546Y-125142454D01*
X110327331Y-125056204D01*
X110192483Y-125005909D01*
X110132873Y-124999500D01*
X110129550Y-124999500D01*
X107040439Y-124999500D01*
X107040420Y-124999500D01*
X107037128Y-124999501D01*
X107033848Y-124999853D01*
X107033840Y-124999854D01*
X106977515Y-125005909D01*
X106842669Y-125056204D01*
X106727454Y-125142454D01*
X106641204Y-125257668D01*
X106590909Y-125392516D01*
X106585003Y-125447452D01*
X106584500Y-125452127D01*
X106584500Y-125455448D01*
X106584500Y-125455449D01*
X106584500Y-128544560D01*
X106584500Y-128544578D01*
X102874871Y-128544578D01*
X102913395Y-128515739D01*
X103115739Y-128313395D01*
X103287226Y-128084315D01*
X103424367Y-127833161D01*
X103524369Y-127565046D01*
X103585196Y-127285428D01*
X103605610Y-127000000D01*
X103585196Y-126714572D01*
X103524369Y-126434954D01*
X103424367Y-126166839D01*
X103363535Y-126055435D01*
X103287227Y-125915686D01*
X103187047Y-125781862D01*
X103115739Y-125686605D01*
X102913395Y-125484261D01*
X102771233Y-125377840D01*
X102684313Y-125312772D01*
X102565072Y-125247662D01*
X102515667Y-125198257D01*
X102500500Y-125138832D01*
X102500499Y-124959304D01*
X102502027Y-124939907D01*
X102502040Y-124939824D01*
X102504219Y-124926068D01*
X102500670Y-124858348D01*
X102500500Y-124851859D01*
X102500500Y-124834729D01*
X102500500Y-124831488D01*
X102498370Y-124811222D01*
X102497861Y-124804766D01*
X102494312Y-124737034D01*
X102490685Y-124723498D01*
X102487139Y-124704364D01*
X102485674Y-124690422D01*
X102464716Y-124625924D01*
X102462871Y-124619695D01*
X102445321Y-124554194D01*
X102438958Y-124541707D01*
X102431508Y-124523721D01*
X102427822Y-124512376D01*
X102427179Y-124510396D01*
X102393249Y-124451629D01*
X102390178Y-124445972D01*
X102370844Y-124408025D01*
X102359383Y-124385530D01*
X102350562Y-124374638D01*
X102339537Y-124358596D01*
X102332535Y-124346467D01*
X102332534Y-124346466D01*
X102332533Y-124346464D01*
X102287127Y-124296035D01*
X102282932Y-124291122D01*
X102272161Y-124277822D01*
X102270119Y-124275300D01*
X102255724Y-124260905D01*
X102251255Y-124256196D01*
X102205871Y-124205791D01*
X102194531Y-124197553D01*
X102179734Y-124184915D01*
X101266819Y-123272000D01*
X101233334Y-123210677D01*
X101230500Y-123184319D01*
X101230500Y-119170758D01*
X101250185Y-119103719D01*
X101266819Y-119083077D01*
X101282413Y-119067483D01*
X101345318Y-119004578D01*
X109139500Y-119004578D01*
X109139501Y-119007872D01*
X109139853Y-119011152D01*
X109139854Y-119011159D01*
X109145909Y-119067484D01*
X109151725Y-119083077D01*
X109196204Y-119202331D01*
X109282454Y-119317546D01*
X109397669Y-119403796D01*
X109532517Y-119454091D01*
X109592127Y-119460500D01*
X111387872Y-119460499D01*
X111447483Y-119454091D01*
X111582331Y-119403796D01*
X111697546Y-119317546D01*
X111783796Y-119202331D01*
X111833003Y-119070399D01*
X111874873Y-119014467D01*
X111940337Y-118990050D01*
X112008610Y-119004901D01*
X112036865Y-119026053D01*
X112158918Y-119148106D01*
X112352423Y-119283600D01*
X112566509Y-119383430D01*
X112780000Y-119440634D01*
X112780000Y-118545501D01*
X112887685Y-118594680D01*
X112994237Y-118610000D01*
X113065763Y-118610000D01*
X113172315Y-118594680D01*
X113279999Y-118545501D01*
X113279999Y-119440634D01*
X113493490Y-119383430D01*
X113707576Y-119283600D01*
X113901081Y-119148106D01*
X114068106Y-118981081D01*
X114203600Y-118787576D01*
X114303430Y-118573492D01*
X114360636Y-118360000D01*
X113463686Y-118360000D01*
X113489493Y-118319844D01*
X113530000Y-118181889D01*
X113530000Y-118038111D01*
X113489493Y-117900156D01*
X113463686Y-117860000D01*
X114360636Y-117860000D01*
X114360635Y-117859999D01*
X114303430Y-117646507D01*
X114203599Y-117432421D01*
X114068109Y-117238921D01*
X113901081Y-117071893D01*
X113707576Y-116936399D01*
X113493492Y-116836569D01*
X113280000Y-116779364D01*
X113280000Y-117674498D01*
X113172315Y-117625320D01*
X113065763Y-117610000D01*
X112994237Y-117610000D01*
X112887685Y-117625320D01*
X112780000Y-117674498D01*
X112780000Y-116779364D01*
X112779999Y-116779364D01*
X112566507Y-116836569D01*
X112352421Y-116936400D01*
X112158924Y-117071888D01*
X112036865Y-117193947D01*
X111975542Y-117227431D01*
X111905850Y-117222447D01*
X111849917Y-117180575D01*
X111833002Y-117149598D01*
X111805331Y-117075408D01*
X111783796Y-117017669D01*
X111697546Y-116902454D01*
X111582331Y-116816204D01*
X111447483Y-116765909D01*
X111387873Y-116759500D01*
X111384550Y-116759500D01*
X109595439Y-116759500D01*
X109595420Y-116759500D01*
X109592128Y-116759501D01*
X109588848Y-116759853D01*
X109588840Y-116759854D01*
X109532515Y-116765909D01*
X109397669Y-116816204D01*
X109282454Y-116902454D01*
X109196204Y-117017668D01*
X109145909Y-117152516D01*
X109141455Y-117193947D01*
X109139500Y-117212127D01*
X109139500Y-117215448D01*
X109139500Y-117215449D01*
X109139500Y-119004560D01*
X109139500Y-119004578D01*
X101345318Y-119004578D01*
X101368495Y-118981401D01*
X101504035Y-118787830D01*
X101603903Y-118573663D01*
X101665063Y-118345408D01*
X101685659Y-118110000D01*
X101681121Y-118058137D01*
X101665063Y-117874592D01*
X101661153Y-117859999D01*
X101603903Y-117646337D01*
X101504035Y-117432171D01*
X101368495Y-117238599D01*
X101201401Y-117071505D01*
X101007830Y-116935965D01*
X100793663Y-116836097D01*
X100730878Y-116819274D01*
X100565407Y-116774936D01*
X100329999Y-116754340D01*
X100094592Y-116774936D01*
X99866336Y-116836097D01*
X99652170Y-116935965D01*
X99458601Y-117071503D01*
X99336673Y-117193431D01*
X99275350Y-117226915D01*
X99205658Y-117221931D01*
X99149725Y-117180059D01*
X99132810Y-117149082D01*
X99105331Y-117075408D01*
X99083796Y-117017669D01*
X98997546Y-116902454D01*
X98882331Y-116816204D01*
X98747483Y-116765909D01*
X98687873Y-116759500D01*
X98684550Y-116759500D01*
X96895439Y-116759500D01*
X96895420Y-116759500D01*
X96892128Y-116759501D01*
X96888848Y-116759853D01*
X96888840Y-116759854D01*
X96832515Y-116765909D01*
X96697669Y-116816204D01*
X96582454Y-116902454D01*
X96496204Y-117017668D01*
X96445909Y-117152516D01*
X96441455Y-117193947D01*
X96439500Y-117212127D01*
X96439500Y-117215448D01*
X96439500Y-117215449D01*
X96439500Y-119004560D01*
X96439500Y-119004578D01*
X85090500Y-119004578D01*
X85090500Y-116839999D01*
X86274340Y-116839999D01*
X86294936Y-117075407D01*
X86335533Y-117226915D01*
X86356097Y-117303663D01*
X86455965Y-117517830D01*
X86591505Y-117711401D01*
X86758599Y-117878495D01*
X86952170Y-118014035D01*
X87166337Y-118113903D01*
X87394592Y-118175062D01*
X87394592Y-118175063D01*
X87629999Y-118195659D01*
X87629999Y-118195658D01*
X87630000Y-118195659D01*
X87865408Y-118175063D01*
X88093663Y-118113903D01*
X88307830Y-118014035D01*
X88501401Y-117878495D01*
X88668495Y-117711401D01*
X88804035Y-117517830D01*
X88903903Y-117303663D01*
X88965063Y-117075408D01*
X88985659Y-116840000D01*
X88981286Y-116790023D01*
X88965063Y-116604592D01*
X88903903Y-116376337D01*
X88804035Y-116162171D01*
X88668495Y-115968599D01*
X88501401Y-115801505D01*
X88315839Y-115671573D01*
X88272217Y-115616998D01*
X88265024Y-115547499D01*
X88296546Y-115485145D01*
X88315837Y-115468428D01*
X88501401Y-115338495D01*
X88668495Y-115171401D01*
X88804035Y-114977830D01*
X88903903Y-114763663D01*
X88960081Y-114554000D01*
X136889540Y-114554000D01*
X136909326Y-114742257D01*
X136967820Y-114922284D01*
X137062466Y-115086216D01*
X137189129Y-115226889D01*
X137342269Y-115338151D01*
X137515197Y-115415144D01*
X137700352Y-115454500D01*
X137700354Y-115454500D01*
X137889648Y-115454500D01*
X138013084Y-115428262D01*
X138074803Y-115415144D01*
X138247730Y-115338151D01*
X138400871Y-115226888D01*
X138527533Y-115086216D01*
X138622179Y-114922284D01*
X138680674Y-114742256D01*
X138698321Y-114574345D01*
X138724905Y-114509732D01*
X138733952Y-114499636D01*
X148641821Y-104591768D01*
X148703142Y-104558285D01*
X148772834Y-104563269D01*
X148828767Y-104605141D01*
X148853184Y-104670605D01*
X148853500Y-104679451D01*
X148853500Y-105327256D01*
X148851235Y-105347766D01*
X148853439Y-105417872D01*
X148853500Y-105421767D01*
X148853500Y-105437102D01*
X148847432Y-105475418D01*
X148847325Y-105475744D01*
X148827540Y-105663999D01*
X148847326Y-105852257D01*
X148905820Y-106032284D01*
X149000466Y-106196216D01*
X149127129Y-106336889D01*
X149280269Y-106448151D01*
X149453197Y-106525144D01*
X149638352Y-106564500D01*
X149638354Y-106564500D01*
X149827648Y-106564500D01*
X149951083Y-106538262D01*
X150012803Y-106525144D01*
X150185730Y-106448151D01*
X150338871Y-106336888D01*
X150465533Y-106196216D01*
X150560179Y-106032284D01*
X150618674Y-105852256D01*
X150638460Y-105664000D01*
X150619610Y-105484654D01*
X150632179Y-105415928D01*
X150679911Y-105364904D01*
X150747652Y-105347786D01*
X150775020Y-105351920D01*
X150909932Y-105388070D01*
X151056644Y-105400905D01*
X151129999Y-105407323D01*
X151129999Y-105407322D01*
X151130000Y-105407323D01*
X151350068Y-105388070D01*
X151563450Y-105330894D01*
X151763662Y-105237534D01*
X151939381Y-105114494D01*
X152005582Y-105092169D01*
X152073350Y-105109179D01*
X152121163Y-105160127D01*
X152134500Y-105216071D01*
X152134500Y-125014373D01*
X152132973Y-125033771D01*
X152130780Y-125047610D01*
X152134330Y-125115335D01*
X152134500Y-125121824D01*
X152134500Y-125142192D01*
X152134837Y-125145404D01*
X152134838Y-125145413D01*
X152136628Y-125162447D01*
X152137136Y-125168909D01*
X152140686Y-125236645D01*
X152144315Y-125250187D01*
X152147860Y-125269315D01*
X152149325Y-125283254D01*
X152170282Y-125347754D01*
X152172125Y-125353976D01*
X152189679Y-125419487D01*
X152196042Y-125431974D01*
X152203489Y-125449953D01*
X152207820Y-125463283D01*
X152241725Y-125522008D01*
X152244823Y-125527713D01*
X152262634Y-125562669D01*
X152275617Y-125588149D01*
X152284439Y-125599043D01*
X152295458Y-125615076D01*
X152302466Y-125627215D01*
X152347854Y-125677625D01*
X152352067Y-125682557D01*
X152364881Y-125698380D01*
X152367180Y-125700679D01*
X152379274Y-125712773D01*
X152383743Y-125717482D01*
X152419440Y-125757128D01*
X152429129Y-125767888D01*
X152436767Y-125773437D01*
X152440467Y-125776125D01*
X152455265Y-125788764D01*
X152983087Y-126316587D01*
X153016572Y-126377910D01*
X153016572Y-126430626D01*
X152954804Y-126714570D01*
X152934389Y-127000000D01*
X152954804Y-127285429D01*
X153015629Y-127565041D01*
X153015631Y-127565046D01*
X153073063Y-127719028D01*
X153115634Y-127833163D01*
X153252772Y-128084313D01*
X153301307Y-128149148D01*
X153424261Y-128313395D01*
X153626605Y-128515739D01*
X153749161Y-128607483D01*
X153855686Y-128687227D01*
X153956600Y-128742330D01*
X154106839Y-128824367D01*
X154374954Y-128924369D01*
X154374957Y-128924369D01*
X154374958Y-128924370D01*
X154427217Y-128935738D01*
X154654572Y-128985196D01*
X154940000Y-129005610D01*
X155225428Y-128985196D01*
X155505046Y-128924369D01*
X155773161Y-128824367D01*
X156024315Y-128687226D01*
X156253395Y-128515739D01*
X156455739Y-128313395D01*
X156627226Y-128084315D01*
X156764367Y-127833161D01*
X156864369Y-127565046D01*
X156925196Y-127285428D01*
X156945610Y-127000000D01*
X156925196Y-126714572D01*
X156864369Y-126434954D01*
X156764367Y-126166839D01*
X156703535Y-126055435D01*
X156627227Y-125915686D01*
X156527047Y-125781862D01*
X156455739Y-125686605D01*
X156253395Y-125484261D01*
X156111233Y-125377840D01*
X156024313Y-125312772D01*
X155773163Y-125175634D01*
X155773162Y-125175633D01*
X155773161Y-125175633D01*
X155505046Y-125075631D01*
X155505041Y-125075629D01*
X155225429Y-125014804D01*
X154940000Y-124994389D01*
X154654570Y-125014804D01*
X154370626Y-125076572D01*
X154300934Y-125071588D01*
X154256587Y-125043087D01*
X153971819Y-124758319D01*
X153938334Y-124696996D01*
X153935500Y-124670638D01*
X153935500Y-103329999D01*
X172116840Y-103329999D01*
X172137436Y-103565407D01*
X172175255Y-103706548D01*
X172198597Y-103793663D01*
X172298465Y-104007830D01*
X172434005Y-104201401D01*
X172601099Y-104368495D01*
X172794670Y-104504035D01*
X173008837Y-104603903D01*
X173237092Y-104665063D01*
X173472500Y-104685659D01*
X173707908Y-104665063D01*
X173936163Y-104603903D01*
X174150330Y-104504035D01*
X174343901Y-104368495D01*
X174510995Y-104201401D01*
X174646535Y-104007830D01*
X174746403Y-103793663D01*
X174807563Y-103565408D01*
X174828159Y-103330000D01*
X174807563Y-103094592D01*
X174746403Y-102866337D01*
X174646535Y-102652171D01*
X174510995Y-102458599D01*
X174418578Y-102366182D01*
X177954500Y-102366182D01*
X177993604Y-102625615D01*
X178070937Y-102876323D01*
X178184772Y-103112704D01*
X178298052Y-103278855D01*
X178332571Y-103329485D01*
X178501611Y-103511666D01*
X178511019Y-103521805D01*
X178716143Y-103685386D01*
X178943357Y-103816568D01*
X179187584Y-103912420D01*
X179443370Y-103970802D01*
X179639506Y-103985500D01*
X179641823Y-103985500D01*
X179768177Y-103985500D01*
X179770494Y-103985500D01*
X179966630Y-103970802D01*
X180222416Y-103912420D01*
X180466643Y-103816568D01*
X180693857Y-103685386D01*
X180898981Y-103521805D01*
X181009101Y-103403124D01*
X181077428Y-103329485D01*
X181077429Y-103329482D01*
X181077433Y-103329479D01*
X181225228Y-103112704D01*
X181339063Y-102876323D01*
X181416396Y-102625615D01*
X181455500Y-102366182D01*
X181455500Y-102103818D01*
X181416396Y-101844385D01*
X181339063Y-101593677D01*
X181225228Y-101357296D01*
X181077433Y-101140521D01*
X181077432Y-101140520D01*
X181077428Y-101140514D01*
X180898984Y-100948198D01*
X180898983Y-100948197D01*
X180898981Y-100948195D01*
X180694818Y-100785380D01*
X180693856Y-100784613D01*
X180473569Y-100657431D01*
X180466643Y-100653432D01*
X180466642Y-100653431D01*
X180466641Y-100653431D01*
X180222418Y-100557580D01*
X179966627Y-100499197D01*
X179772808Y-100484673D01*
X179772797Y-100484672D01*
X179770494Y-100484500D01*
X179639506Y-100484500D01*
X179637203Y-100484672D01*
X179637191Y-100484673D01*
X179443372Y-100499197D01*
X179187581Y-100557580D01*
X178943358Y-100653431D01*
X178716143Y-100784613D01*
X178511015Y-100948198D01*
X178332571Y-101140514D01*
X178265779Y-101238481D01*
X178184772Y-101357296D01*
X178070937Y-101593677D01*
X177993604Y-101844385D01*
X177954500Y-102103818D01*
X177954500Y-102366182D01*
X174418578Y-102366182D01*
X174389069Y-102336673D01*
X174355584Y-102275350D01*
X174360568Y-102205658D01*
X174402440Y-102149725D01*
X174433415Y-102132810D01*
X174564831Y-102083796D01*
X174680046Y-101997546D01*
X174766296Y-101882331D01*
X174816591Y-101747483D01*
X174823000Y-101687873D01*
X174822999Y-99892128D01*
X174816591Y-99832517D01*
X174766296Y-99697669D01*
X174680046Y-99582454D01*
X174564831Y-99496204D01*
X174429983Y-99445909D01*
X174370373Y-99439500D01*
X174367050Y-99439500D01*
X172577939Y-99439500D01*
X172577920Y-99439500D01*
X172574628Y-99439501D01*
X172571348Y-99439853D01*
X172571340Y-99439854D01*
X172515015Y-99445909D01*
X172380169Y-99496204D01*
X172264954Y-99582454D01*
X172178704Y-99697668D01*
X172128409Y-99832516D01*
X172124283Y-99870897D01*
X172122000Y-99892127D01*
X172122000Y-99895448D01*
X172122000Y-99895449D01*
X172122000Y-101684560D01*
X172122000Y-101684578D01*
X172122001Y-101687872D01*
X172128409Y-101747483D01*
X172178704Y-101882331D01*
X172264954Y-101997546D01*
X172380169Y-102083796D01*
X172492407Y-102125658D01*
X172511582Y-102132810D01*
X172567516Y-102174681D01*
X172591933Y-102240146D01*
X172577081Y-102308419D01*
X172555931Y-102336673D01*
X172434003Y-102458601D01*
X172298465Y-102652170D01*
X172198597Y-102866336D01*
X172137436Y-103094592D01*
X172116840Y-103329999D01*
X153935500Y-103329999D01*
X153935500Y-89026999D01*
X159495540Y-89026999D01*
X159515326Y-89215257D01*
X159573820Y-89395284D01*
X159668464Y-89559213D01*
X159682094Y-89574350D01*
X159732693Y-89630546D01*
X159743650Y-89642714D01*
X159773880Y-89705706D01*
X159775500Y-89725687D01*
X159775500Y-94978256D01*
X159773235Y-94998766D01*
X159775439Y-95068872D01*
X159775500Y-95072767D01*
X159775500Y-95100350D01*
X159775988Y-95104219D01*
X159775989Y-95104225D01*
X159776004Y-95104343D01*
X159776918Y-95115967D01*
X159778290Y-95159626D01*
X159783879Y-95178860D01*
X159787825Y-95197916D01*
X159790335Y-95217792D01*
X159806414Y-95258404D01*
X159810197Y-95269451D01*
X159822382Y-95311391D01*
X159832580Y-95328635D01*
X159841136Y-95346100D01*
X159848514Y-95364732D01*
X159848515Y-95364733D01*
X159874180Y-95400059D01*
X159880593Y-95409822D01*
X159902826Y-95447416D01*
X159902829Y-95447419D01*
X159902830Y-95447420D01*
X159916995Y-95461585D01*
X159929627Y-95476375D01*
X159941406Y-95492587D01*
X159975058Y-95520426D01*
X159983699Y-95528289D01*
X161556038Y-97100629D01*
X161589523Y-97161952D01*
X161591678Y-97175348D01*
X161609326Y-97343257D01*
X161667820Y-97523284D01*
X161762466Y-97687216D01*
X161889129Y-97827889D01*
X162042269Y-97939151D01*
X162215197Y-98016144D01*
X162400352Y-98055500D01*
X162400354Y-98055500D01*
X162589648Y-98055500D01*
X162713084Y-98029262D01*
X162774803Y-98016144D01*
X162947730Y-97939151D01*
X162997364Y-97903090D01*
X163100870Y-97827889D01*
X163154732Y-97768070D01*
X163227533Y-97687216D01*
X163322179Y-97523284D01*
X163341562Y-97463628D01*
X163380999Y-97405953D01*
X163445357Y-97378754D01*
X163514203Y-97390668D01*
X163547174Y-97414265D01*
X166408538Y-100275629D01*
X166442023Y-100336952D01*
X166444178Y-100350348D01*
X166461826Y-100518257D01*
X166520320Y-100698284D01*
X166614966Y-100862216D01*
X166741629Y-101002889D01*
X166894769Y-101114151D01*
X167067697Y-101191144D01*
X167252852Y-101230500D01*
X167252854Y-101230500D01*
X167442148Y-101230500D01*
X167565584Y-101204262D01*
X167627303Y-101191144D01*
X167800230Y-101114151D01*
X167936746Y-101014967D01*
X167953370Y-101002889D01*
X168080033Y-100862216D01*
X168174679Y-100698284D01*
X168174678Y-100698284D01*
X168233174Y-100518256D01*
X168252960Y-100330000D01*
X168233174Y-100141744D01*
X168189235Y-100006514D01*
X168174679Y-99961715D01*
X168080033Y-99797783D01*
X167953370Y-99657110D01*
X167800230Y-99545848D01*
X167627302Y-99468855D01*
X167442148Y-99429500D01*
X167442146Y-99429500D01*
X167382952Y-99429500D01*
X167315913Y-99409815D01*
X167295271Y-99393181D01*
X163729819Y-95827728D01*
X163696334Y-95766405D01*
X163693500Y-95740047D01*
X163693500Y-94439999D01*
X172116840Y-94439999D01*
X172137436Y-94675407D01*
X172169379Y-94794620D01*
X172198597Y-94903663D01*
X172298465Y-95117830D01*
X172434005Y-95311401D01*
X172601099Y-95478495D01*
X172794670Y-95614035D01*
X173008837Y-95713903D01*
X173237092Y-95775063D01*
X173472500Y-95795659D01*
X173707908Y-95775063D01*
X173936163Y-95713903D01*
X174150330Y-95614035D01*
X174343901Y-95478495D01*
X174510995Y-95311401D01*
X174646535Y-95117830D01*
X174746403Y-94903663D01*
X174807563Y-94675408D01*
X174828159Y-94440000D01*
X174821371Y-94362420D01*
X174807563Y-94204592D01*
X174804318Y-94192480D01*
X174746403Y-93976337D01*
X174646535Y-93762171D01*
X174510995Y-93568599D01*
X174389069Y-93446673D01*
X174355584Y-93385350D01*
X174360568Y-93315658D01*
X174402440Y-93259725D01*
X174433415Y-93242810D01*
X174564831Y-93193796D01*
X174680046Y-93107546D01*
X174766296Y-92992331D01*
X174816591Y-92857483D01*
X174821031Y-92816182D01*
X177954500Y-92816182D01*
X177993604Y-93075615D01*
X178070937Y-93326323D01*
X178184772Y-93562704D01*
X178319240Y-93759932D01*
X178332571Y-93779485D01*
X178509780Y-93970470D01*
X178511019Y-93971805D01*
X178716143Y-94135386D01*
X178943357Y-94266568D01*
X179187584Y-94362420D01*
X179443370Y-94420802D01*
X179639506Y-94435500D01*
X179641823Y-94435500D01*
X179768177Y-94435500D01*
X179770494Y-94435500D01*
X179966630Y-94420802D01*
X180222416Y-94362420D01*
X180466643Y-94266568D01*
X180693857Y-94135386D01*
X180898981Y-93971805D01*
X181041934Y-93817738D01*
X181077428Y-93779485D01*
X181077429Y-93779482D01*
X181077433Y-93779479D01*
X181225228Y-93562704D01*
X181339063Y-93326323D01*
X181416396Y-93075615D01*
X181455500Y-92816182D01*
X181455500Y-92553818D01*
X181416396Y-92294385D01*
X181339063Y-92043677D01*
X181225228Y-91807296D01*
X181077433Y-91590521D01*
X181077432Y-91590520D01*
X181077428Y-91590514D01*
X180898984Y-91398198D01*
X180898983Y-91398197D01*
X180898981Y-91398195D01*
X180693857Y-91234614D01*
X180693856Y-91234613D01*
X180466641Y-91103431D01*
X180222418Y-91007580D01*
X179966627Y-90949197D01*
X179772808Y-90934673D01*
X179772797Y-90934672D01*
X179770494Y-90934500D01*
X179639506Y-90934500D01*
X179637203Y-90934672D01*
X179637191Y-90934673D01*
X179443372Y-90949197D01*
X179187581Y-91007580D01*
X178943358Y-91103431D01*
X178716143Y-91234613D01*
X178511015Y-91398198D01*
X178332571Y-91590514D01*
X178232070Y-91737922D01*
X178184772Y-91807296D01*
X178070937Y-92043677D01*
X177993604Y-92294385D01*
X177954500Y-92553818D01*
X177954500Y-92816182D01*
X174821031Y-92816182D01*
X174823000Y-92797873D01*
X174822999Y-91002128D01*
X174816591Y-90942517D01*
X174766296Y-90807669D01*
X174680046Y-90692454D01*
X174564831Y-90606204D01*
X174429983Y-90555909D01*
X174370373Y-90549500D01*
X174367050Y-90549500D01*
X172577939Y-90549500D01*
X172577920Y-90549500D01*
X172574628Y-90549501D01*
X172571348Y-90549853D01*
X172571340Y-90549854D01*
X172515015Y-90555909D01*
X172380169Y-90606204D01*
X172264954Y-90692454D01*
X172178704Y-90807668D01*
X172128410Y-90942515D01*
X172128409Y-90942517D01*
X172122000Y-91002127D01*
X172122000Y-91005448D01*
X172122000Y-91005449D01*
X172122000Y-92794560D01*
X172122000Y-92794578D01*
X172122001Y-92797872D01*
X172122353Y-92801152D01*
X172122354Y-92801159D01*
X172126347Y-92838300D01*
X172128409Y-92857483D01*
X172178704Y-92992331D01*
X172264954Y-93107546D01*
X172380169Y-93193796D01*
X172492407Y-93235658D01*
X172511582Y-93242810D01*
X172567516Y-93284681D01*
X172591933Y-93350146D01*
X172577081Y-93418419D01*
X172555931Y-93446673D01*
X172434003Y-93568601D01*
X172298465Y-93762170D01*
X172198597Y-93976336D01*
X172137436Y-94204592D01*
X172116840Y-94439999D01*
X163693500Y-94439999D01*
X163693500Y-93446187D01*
X163713185Y-93379148D01*
X163725350Y-93363214D01*
X163737117Y-93350146D01*
X163800533Y-93279716D01*
X163817402Y-93250499D01*
X163895179Y-93115784D01*
X163929819Y-93009174D01*
X163953674Y-92935756D01*
X163973460Y-92747500D01*
X163953674Y-92559244D01*
X163905450Y-92410826D01*
X163895179Y-92379215D01*
X163800533Y-92215283D01*
X163673870Y-92074610D01*
X163520730Y-91963348D01*
X163347802Y-91886355D01*
X163162648Y-91847000D01*
X163162646Y-91847000D01*
X162973354Y-91847000D01*
X162973352Y-91847000D01*
X162788197Y-91886355D01*
X162615269Y-91963348D01*
X162462129Y-92074610D01*
X162335466Y-92215283D01*
X162240820Y-92379215D01*
X162182326Y-92559242D01*
X162162540Y-92747500D01*
X162182326Y-92935757D01*
X162240820Y-93115784D01*
X162335464Y-93279713D01*
X162410650Y-93363214D01*
X162440880Y-93426206D01*
X162442500Y-93446187D01*
X162442500Y-95918547D01*
X162422815Y-95985586D01*
X162370011Y-96031341D01*
X162300853Y-96041285D01*
X162237297Y-96012260D01*
X162230819Y-96006228D01*
X161062819Y-94838228D01*
X161029334Y-94776905D01*
X161026500Y-94750547D01*
X161026500Y-89725687D01*
X161046185Y-89658648D01*
X161058350Y-89642714D01*
X161066533Y-89633626D01*
X161133533Y-89559216D01*
X161140721Y-89546767D01*
X161228179Y-89395284D01*
X161249775Y-89328819D01*
X161286674Y-89215256D01*
X161306460Y-89027000D01*
X161286674Y-88838744D01*
X161240540Y-88696759D01*
X161228179Y-88658715D01*
X161133533Y-88494783D01*
X161006870Y-88354110D01*
X160853730Y-88242848D01*
X160680802Y-88165855D01*
X160495648Y-88126500D01*
X160495646Y-88126500D01*
X160306354Y-88126500D01*
X160306352Y-88126500D01*
X160121197Y-88165855D01*
X159948269Y-88242848D01*
X159795129Y-88354110D01*
X159668466Y-88494783D01*
X159573820Y-88658715D01*
X159515326Y-88838742D01*
X159495540Y-89026999D01*
X153935500Y-89026999D01*
X153935500Y-78739999D01*
X157244356Y-78739999D01*
X157264891Y-78987816D01*
X157264891Y-78987819D01*
X157264892Y-78987821D01*
X157325937Y-79228881D01*
X157340259Y-79261532D01*
X157425825Y-79456604D01*
X157425827Y-79456607D01*
X157561836Y-79664785D01*
X157730256Y-79847738D01*
X157730259Y-79847740D01*
X157926485Y-80000470D01*
X157926487Y-80000471D01*
X157926491Y-80000474D01*
X158145190Y-80118828D01*
X158380386Y-80199571D01*
X158625665Y-80240500D01*
X158874335Y-80240500D01*
X159119614Y-80199571D01*
X159354810Y-80118828D01*
X159573509Y-80000474D01*
X159769744Y-79847738D01*
X159938164Y-79664785D01*
X160074173Y-79456607D01*
X160174063Y-79228881D01*
X160235108Y-78987821D01*
X160255643Y-78740000D01*
X160235108Y-78492179D01*
X160174063Y-78251119D01*
X160074173Y-78023393D01*
X159938164Y-77815215D01*
X159769744Y-77632262D01*
X159739807Y-77608961D01*
X159686992Y-77567853D01*
X159646179Y-77511143D01*
X159644012Y-77470000D01*
X164124671Y-77470000D01*
X164143966Y-77764380D01*
X164144757Y-77768361D01*
X164144758Y-77768362D01*
X164200726Y-78049738D01*
X164200728Y-78049745D01*
X164201519Y-78053722D01*
X164202819Y-78057553D01*
X164202823Y-78057566D01*
X164287343Y-78306550D01*
X164296348Y-78333077D01*
X164298141Y-78336713D01*
X164298144Y-78336720D01*
X164425032Y-78594025D01*
X164425038Y-78594036D01*
X164426828Y-78597665D01*
X164429079Y-78601034D01*
X164429082Y-78601039D01*
X164579332Y-78825903D01*
X164590727Y-78842957D01*
X164785242Y-79064758D01*
X165007043Y-79259273D01*
X165010425Y-79261532D01*
X165010424Y-79261532D01*
X165220768Y-79402080D01*
X165252335Y-79423172D01*
X165255968Y-79424963D01*
X165255974Y-79424967D01*
X165468669Y-79529856D01*
X165516923Y-79553652D01*
X165673255Y-79606720D01*
X165792433Y-79647176D01*
X165792435Y-79647176D01*
X165796278Y-79648481D01*
X166085620Y-79706034D01*
X166380000Y-79725329D01*
X166674380Y-79706034D01*
X166963722Y-79648481D01*
X167243077Y-79553652D01*
X167507665Y-79423172D01*
X167752957Y-79259273D01*
X167974758Y-79064758D01*
X168169273Y-78842957D01*
X168333172Y-78597665D01*
X168463652Y-78333077D01*
X168558481Y-78053722D01*
X168616034Y-77764380D01*
X168635329Y-77470000D01*
X168616034Y-77175620D01*
X168558481Y-76886278D01*
X168463652Y-76606923D01*
X168333172Y-76342336D01*
X168169273Y-76097043D01*
X167974758Y-75875242D01*
X167752957Y-75680727D01*
X167749575Y-75678467D01*
X167511039Y-75519082D01*
X167511034Y-75519079D01*
X167507665Y-75516828D01*
X167504036Y-75515038D01*
X167504025Y-75515032D01*
X167246720Y-75388144D01*
X167246713Y-75388141D01*
X167243077Y-75386348D01*
X167239230Y-75385042D01*
X166967566Y-75292823D01*
X166967553Y-75292819D01*
X166963722Y-75291519D01*
X166959745Y-75290728D01*
X166959738Y-75290726D01*
X166678362Y-75234758D01*
X166678361Y-75234757D01*
X166674380Y-75233966D01*
X166670330Y-75233700D01*
X166670326Y-75233700D01*
X166384058Y-75214937D01*
X166380000Y-75214671D01*
X166375942Y-75214937D01*
X166089673Y-75233700D01*
X166089667Y-75233700D01*
X166085620Y-75233966D01*
X166081640Y-75234757D01*
X166081637Y-75234758D01*
X165800261Y-75290726D01*
X165800250Y-75290728D01*
X165796278Y-75291519D01*
X165792449Y-75292818D01*
X165792433Y-75292823D01*
X165520769Y-75385042D01*
X165520762Y-75385044D01*
X165516923Y-75386348D01*
X165513286Y-75388141D01*
X165513280Y-75388144D01*
X165255976Y-75515032D01*
X165255964Y-75515038D01*
X165252336Y-75516828D01*
X165248973Y-75519075D01*
X165248961Y-75519082D01*
X165010424Y-75678467D01*
X165010414Y-75678473D01*
X165007043Y-75680727D01*
X165003992Y-75683402D01*
X165003985Y-75683408D01*
X164788290Y-75872568D01*
X164788282Y-75872575D01*
X164785242Y-75875242D01*
X164782575Y-75878282D01*
X164782568Y-75878290D01*
X164593408Y-76093985D01*
X164593402Y-76093992D01*
X164590727Y-76097043D01*
X164588473Y-76100414D01*
X164588467Y-76100424D01*
X164429082Y-76338961D01*
X164429075Y-76338973D01*
X164426828Y-76342336D01*
X164425038Y-76345964D01*
X164425032Y-76345976D01*
X164298144Y-76603280D01*
X164298141Y-76603286D01*
X164296348Y-76606923D01*
X164295044Y-76610762D01*
X164295042Y-76610769D01*
X164202823Y-76882433D01*
X164202818Y-76882449D01*
X164201519Y-76886278D01*
X164200728Y-76890250D01*
X164200726Y-76890261D01*
X164144758Y-77171637D01*
X164143966Y-77175620D01*
X164143700Y-77179667D01*
X164143700Y-77179673D01*
X164126108Y-77448070D01*
X164124671Y-77470000D01*
X159644012Y-77470000D01*
X159642504Y-77441370D01*
X159677136Y-77380687D01*
X159686992Y-77372147D01*
X159741487Y-77329731D01*
X159769744Y-77307738D01*
X159938164Y-77124785D01*
X160074173Y-76916607D01*
X160174063Y-76688881D01*
X160235108Y-76447821D01*
X160255643Y-76200000D01*
X160235108Y-75952179D01*
X160174063Y-75711119D01*
X160074173Y-75483393D01*
X159938164Y-75275215D01*
X159769744Y-75092262D01*
X159753437Y-75079570D01*
X159686992Y-75027853D01*
X159646179Y-74971143D01*
X159642504Y-74901370D01*
X159677136Y-74840687D01*
X159686992Y-74832147D01*
X159711256Y-74813260D01*
X159769744Y-74767738D01*
X159938164Y-74584785D01*
X160074173Y-74376607D01*
X160174063Y-74148881D01*
X160235108Y-73907821D01*
X160255643Y-73660000D01*
X160237408Y-73439932D01*
X160235109Y-73412184D01*
X160204602Y-73291716D01*
X160181135Y-73199046D01*
X160183760Y-73129229D01*
X160213658Y-73080930D01*
X162308789Y-70985800D01*
X162324885Y-70972906D01*
X162326873Y-70970787D01*
X162326877Y-70970786D01*
X162372949Y-70921723D01*
X162375534Y-70919055D01*
X162395120Y-70899471D01*
X162397585Y-70896292D01*
X162405167Y-70887416D01*
X162419472Y-70872183D01*
X162435062Y-70855582D01*
X162444712Y-70838027D01*
X162455400Y-70821757D01*
X162467671Y-70805938D01*
X162467673Y-70805936D01*
X162485026Y-70765832D01*
X162490157Y-70755362D01*
X162511197Y-70717092D01*
X162516175Y-70697699D01*
X162522481Y-70679282D01*
X162524018Y-70675728D01*
X162530438Y-70660896D01*
X162537272Y-70617745D01*
X162539635Y-70606331D01*
X162550500Y-70564019D01*
X162550500Y-70543982D01*
X162552027Y-70524584D01*
X162555160Y-70504804D01*
X162551050Y-70461324D01*
X162550500Y-70449655D01*
X162550500Y-68334500D01*
X162570185Y-68267461D01*
X162622989Y-68221706D01*
X162674500Y-68210500D01*
X162744148Y-68210500D01*
X162867584Y-68184262D01*
X162929303Y-68171144D01*
X163102230Y-68094151D01*
X163255371Y-67982888D01*
X163382033Y-67842216D01*
X163476679Y-67678284D01*
X163535174Y-67498256D01*
X163554960Y-67310000D01*
X163550645Y-67268944D01*
X163563215Y-67200215D01*
X163586282Y-67168306D01*
X163955484Y-66799104D01*
X164016805Y-66765621D01*
X164086497Y-66770605D01*
X164142430Y-66812477D01*
X164166847Y-66877941D01*
X164164781Y-66910973D01*
X164143966Y-67015620D01*
X164143700Y-67019667D01*
X164143700Y-67019673D01*
X164137096Y-67120429D01*
X164124671Y-67310000D01*
X164124937Y-67314058D01*
X164138976Y-67528258D01*
X164143966Y-67604380D01*
X164144757Y-67608361D01*
X164144758Y-67608362D01*
X164200726Y-67889738D01*
X164200728Y-67889745D01*
X164201519Y-67893722D01*
X164202819Y-67897553D01*
X164202823Y-67897566D01*
X164287401Y-68146720D01*
X164296348Y-68173077D01*
X164298141Y-68176713D01*
X164298144Y-68176720D01*
X164425032Y-68434025D01*
X164425038Y-68434036D01*
X164426828Y-68437665D01*
X164429079Y-68441034D01*
X164429082Y-68441039D01*
X164521933Y-68580000D01*
X164590727Y-68682957D01*
X164785242Y-68904758D01*
X165007043Y-69099273D01*
X165252335Y-69263172D01*
X165255968Y-69264963D01*
X165255974Y-69264967D01*
X165513279Y-69391855D01*
X165516923Y-69393652D01*
X165716992Y-69461566D01*
X165792433Y-69487176D01*
X165792435Y-69487176D01*
X165796278Y-69488481D01*
X166085620Y-69546034D01*
X166380000Y-69565329D01*
X166674380Y-69546034D01*
X166963722Y-69488481D01*
X167243077Y-69393652D01*
X167507665Y-69263172D01*
X167752957Y-69099273D01*
X167974758Y-68904758D01*
X168169273Y-68682957D01*
X168333172Y-68437665D01*
X168463652Y-68173077D01*
X168558481Y-67893722D01*
X168616034Y-67604380D01*
X168635329Y-67310000D01*
X168616034Y-67015620D01*
X168558481Y-66726278D01*
X168463652Y-66446923D01*
X168333172Y-66182336D01*
X168169273Y-65937043D01*
X167974758Y-65715242D01*
X167752957Y-65520727D01*
X167749575Y-65518467D01*
X167511039Y-65359082D01*
X167511034Y-65359079D01*
X167507665Y-65356828D01*
X167504036Y-65355038D01*
X167504025Y-65355032D01*
X167246720Y-65228144D01*
X167246713Y-65228141D01*
X167243077Y-65226348D01*
X167214779Y-65216742D01*
X166967566Y-65132823D01*
X166967553Y-65132819D01*
X166963722Y-65131519D01*
X166959745Y-65130728D01*
X166959738Y-65130726D01*
X166678362Y-65074758D01*
X166678361Y-65074757D01*
X166674380Y-65073966D01*
X166670330Y-65073700D01*
X166670326Y-65073700D01*
X166384058Y-65054937D01*
X166380000Y-65054671D01*
X166375942Y-65054937D01*
X166089673Y-65073700D01*
X166089667Y-65073700D01*
X166085620Y-65073966D01*
X166081642Y-65074757D01*
X166081636Y-65074758D01*
X165980979Y-65094780D01*
X165911387Y-65088553D01*
X165856210Y-65045689D01*
X165832966Y-64979800D01*
X165849034Y-64911803D01*
X165869107Y-64885482D01*
X167587771Y-63166819D01*
X167649094Y-63133334D01*
X167675452Y-63130500D01*
X167734648Y-63130500D01*
X167858083Y-63104262D01*
X167919803Y-63091144D01*
X168092730Y-63014151D01*
X168210362Y-62928687D01*
X168245870Y-62902889D01*
X168258596Y-62888756D01*
X168372533Y-62762216D01*
X168467179Y-62598284D01*
X168525674Y-62418256D01*
X168545460Y-62230000D01*
X168525674Y-62041744D01*
X168495332Y-61948363D01*
X168467179Y-61861715D01*
X168372533Y-61697783D01*
X168245870Y-61557110D01*
X168092730Y-61445848D01*
X167919802Y-61368855D01*
X167734648Y-61329500D01*
X167734646Y-61329500D01*
X167545354Y-61329500D01*
X167545352Y-61329500D01*
X167360197Y-61368855D01*
X167187269Y-61445848D01*
X167034129Y-61557110D01*
X166907466Y-61697783D01*
X166812820Y-61861715D01*
X166754326Y-62041742D01*
X166736678Y-62209651D01*
X166710093Y-62274266D01*
X166701038Y-62284370D01*
X162762181Y-66223228D01*
X162700858Y-66256713D01*
X162631166Y-66251729D01*
X162575233Y-66209857D01*
X162550816Y-66144393D01*
X162550500Y-66135547D01*
X162550500Y-62928687D01*
X162570185Y-62861648D01*
X162582350Y-62845714D01*
X162657533Y-62762216D01*
X162752179Y-62598284D01*
X162810674Y-62418256D01*
X162830460Y-62230000D01*
X162810674Y-62041744D01*
X162780332Y-61948363D01*
X162752179Y-61861715D01*
X162657533Y-61697783D01*
X162530870Y-61557110D01*
X162377730Y-61445848D01*
X162204802Y-61368855D01*
X162019648Y-61329500D01*
X162019646Y-61329500D01*
X161830354Y-61329500D01*
X161830352Y-61329500D01*
X161645197Y-61368855D01*
X161472269Y-61445848D01*
X161319129Y-61557110D01*
X161192466Y-61697783D01*
X161097820Y-61861715D01*
X161039326Y-62041742D01*
X161019540Y-62229999D01*
X161039326Y-62418257D01*
X161097820Y-62598284D01*
X161192464Y-62762213D01*
X161267650Y-62845714D01*
X161297880Y-62908706D01*
X161299500Y-62928687D01*
X161299500Y-70174546D01*
X161279815Y-70241585D01*
X161263181Y-70262227D01*
X160456269Y-71069139D01*
X160394946Y-71102624D01*
X160325254Y-71097640D01*
X160269321Y-71055768D01*
X160245012Y-70991698D01*
X160238987Y-70918989D01*
X160235108Y-70872179D01*
X160174063Y-70631119D01*
X160074173Y-70403393D01*
X159938164Y-70195215D01*
X159769744Y-70012262D01*
X159769743Y-70012261D01*
X159686991Y-69947852D01*
X159646178Y-69891141D01*
X159642505Y-69821368D01*
X159677136Y-69760685D01*
X159686974Y-69752160D01*
X159769744Y-69687738D01*
X159938164Y-69504785D01*
X160074173Y-69296607D01*
X160174063Y-69068881D01*
X160235108Y-68827821D01*
X160255643Y-68580000D01*
X160235108Y-68332179D01*
X160174063Y-68091119D01*
X160074173Y-67863393D01*
X159938164Y-67655215D01*
X159911817Y-67626594D01*
X159880896Y-67563941D01*
X159888756Y-67494515D01*
X159928738Y-67443346D01*
X160057187Y-67347190D01*
X160143352Y-67232089D01*
X160193599Y-67097371D01*
X160199645Y-67041132D01*
X160200000Y-67034518D01*
X160200000Y-66290000D01*
X159183686Y-66290000D01*
X159209493Y-66249844D01*
X159250000Y-66111889D01*
X159250000Y-65968111D01*
X159209493Y-65830156D01*
X159183686Y-65790000D01*
X160200000Y-65790000D01*
X160200000Y-65045481D01*
X160199645Y-65038867D01*
X160193599Y-64982628D01*
X160143352Y-64847910D01*
X160057188Y-64732811D01*
X159942089Y-64646647D01*
X159807371Y-64596400D01*
X159751132Y-64590354D01*
X159744518Y-64590000D01*
X159000000Y-64590000D01*
X159000000Y-65604498D01*
X158892315Y-65555320D01*
X158785763Y-65540000D01*
X158714237Y-65540000D01*
X158607685Y-65555320D01*
X158500000Y-65604498D01*
X158500000Y-64590000D01*
X157755482Y-64590000D01*
X157748867Y-64590354D01*
X157692628Y-64596400D01*
X157557910Y-64646647D01*
X157442811Y-64732811D01*
X157356647Y-64847910D01*
X157306400Y-64982628D01*
X157300354Y-65038867D01*
X157300000Y-65045481D01*
X157300000Y-65790000D01*
X158316314Y-65790000D01*
X158290507Y-65830156D01*
X158250000Y-65968111D01*
X158250000Y-66111889D01*
X158290507Y-66249844D01*
X158316314Y-66290000D01*
X157300000Y-66290000D01*
X157300000Y-67034518D01*
X157300354Y-67041132D01*
X157306400Y-67097371D01*
X157356647Y-67232089D01*
X157442812Y-67347190D01*
X157571261Y-67443346D01*
X157613133Y-67499279D01*
X157618117Y-67568971D01*
X157588182Y-67626594D01*
X157561839Y-67655210D01*
X157425825Y-67863395D01*
X157373411Y-67982889D01*
X157325937Y-68091119D01*
X157281281Y-68267461D01*
X157264891Y-68332183D01*
X157244356Y-68580000D01*
X157264891Y-68827816D01*
X157264891Y-68827819D01*
X157264892Y-68827821D01*
X157325937Y-69068881D01*
X157340259Y-69101532D01*
X157425825Y-69296604D01*
X157425827Y-69296607D01*
X157561836Y-69504785D01*
X157730256Y-69687738D01*
X157813008Y-69752146D01*
X157853820Y-69808856D01*
X157857495Y-69878629D01*
X157822863Y-69939312D01*
X157813009Y-69947851D01*
X157730257Y-70012260D01*
X157604220Y-70149174D01*
X157561836Y-70195215D01*
X157554278Y-70206784D01*
X157425825Y-70403395D01*
X157355370Y-70564019D01*
X157325937Y-70631119D01*
X157273540Y-70838029D01*
X157264891Y-70872183D01*
X157244356Y-71120000D01*
X157264891Y-71367816D01*
X157264891Y-71367819D01*
X157264892Y-71367821D01*
X157325937Y-71608881D01*
X157370960Y-71711523D01*
X157425825Y-71836604D01*
X157425827Y-71836607D01*
X157561836Y-72044785D01*
X157720862Y-72217533D01*
X157730256Y-72227738D01*
X157813008Y-72292147D01*
X157853821Y-72348858D01*
X157857494Y-72418631D01*
X157822863Y-72479314D01*
X157813008Y-72487853D01*
X157730256Y-72552261D01*
X157561837Y-72735214D01*
X157425825Y-72943395D01*
X157344312Y-73129229D01*
X157325937Y-73171119D01*
X157311900Y-73226550D01*
X157264891Y-73412183D01*
X157244356Y-73659999D01*
X157264891Y-73907816D01*
X157264891Y-73907819D01*
X157264892Y-73907821D01*
X157325937Y-74148881D01*
X157344946Y-74192216D01*
X157425825Y-74376604D01*
X157425827Y-74376607D01*
X157561836Y-74584785D01*
X157720862Y-74757533D01*
X157730256Y-74767738D01*
X157813008Y-74832147D01*
X157853821Y-74888858D01*
X157857494Y-74958631D01*
X157822863Y-75019314D01*
X157813008Y-75027853D01*
X157730256Y-75092261D01*
X157561837Y-75275214D01*
X157425825Y-75483395D01*
X157339268Y-75680727D01*
X157325937Y-75711119D01*
X157284375Y-75875242D01*
X157264891Y-75952183D01*
X157244356Y-76199999D01*
X157264891Y-76447816D01*
X157264891Y-76447819D01*
X157264892Y-76447821D01*
X157325937Y-76688881D01*
X157357064Y-76759844D01*
X157425825Y-76916604D01*
X157425827Y-76916607D01*
X157561836Y-77124785D01*
X157704219Y-77279454D01*
X157730256Y-77307738D01*
X157813008Y-77372147D01*
X157853821Y-77428858D01*
X157857494Y-77498631D01*
X157822863Y-77559314D01*
X157813008Y-77567853D01*
X157730256Y-77632261D01*
X157612365Y-77760326D01*
X157561836Y-77815215D01*
X157523900Y-77873280D01*
X157425825Y-78023395D01*
X157367538Y-78156278D01*
X157325937Y-78251119D01*
X157275656Y-78449673D01*
X157264891Y-78492183D01*
X157244356Y-78739999D01*
X153935500Y-78739999D01*
X153935500Y-74655205D01*
X153955185Y-74588166D01*
X154007989Y-74542411D01*
X154077147Y-74532467D01*
X154085276Y-74533914D01*
X154125251Y-74542411D01*
X154210353Y-74560500D01*
X154210354Y-74560500D01*
X154399648Y-74560500D01*
X154531532Y-74532467D01*
X154584803Y-74521144D01*
X154757730Y-74444151D01*
X154910871Y-74332888D01*
X155037533Y-74192216D01*
X155132179Y-74028284D01*
X155190674Y-73848256D01*
X155210460Y-73660000D01*
X155190674Y-73471744D01*
X155132179Y-73291716D01*
X155132179Y-73291715D01*
X155037533Y-73127783D01*
X154962350Y-73044284D01*
X154932120Y-72981293D01*
X154930500Y-72961312D01*
X154930500Y-66103687D01*
X154950185Y-66036648D01*
X154962350Y-66020714D01*
X155037533Y-65937216D01*
X155039399Y-65933985D01*
X155132179Y-65773284D01*
X155151907Y-65712568D01*
X155190674Y-65593256D01*
X155210460Y-65405000D01*
X155190674Y-65216744D01*
X155144540Y-65074758D01*
X155132179Y-65036715D01*
X155037533Y-64872783D01*
X154910870Y-64732110D01*
X154757730Y-64620848D01*
X154584802Y-64543855D01*
X154399648Y-64504500D01*
X154399646Y-64504500D01*
X154210354Y-64504500D01*
X154210352Y-64504500D01*
X154025197Y-64543855D01*
X153852269Y-64620848D01*
X153699129Y-64732110D01*
X153572466Y-64872783D01*
X153477820Y-65036715D01*
X153419326Y-65216742D01*
X153399540Y-65404999D01*
X153419326Y-65593257D01*
X153477820Y-65773284D01*
X153572464Y-65937213D01*
X153647650Y-66020714D01*
X153677880Y-66083706D01*
X153679500Y-66103687D01*
X153679500Y-69556638D01*
X153659815Y-69623677D01*
X153607011Y-69669432D01*
X153537853Y-69679376D01*
X153474297Y-69650351D01*
X153467819Y-69644319D01*
X152428643Y-68605144D01*
X152395158Y-68543821D01*
X152392797Y-68528278D01*
X152378070Y-68359932D01*
X152320894Y-68146550D01*
X152227534Y-67946339D01*
X152100826Y-67765380D01*
X151944620Y-67609174D01*
X151763662Y-67482466D01*
X151679769Y-67443346D01*
X151563451Y-67389106D01*
X151350065Y-67331929D01*
X151129999Y-67312676D01*
X150909934Y-67331929D01*
X150696548Y-67389106D01*
X150496338Y-67482466D01*
X150315379Y-67609174D01*
X150159174Y-67765379D01*
X150032466Y-67946338D01*
X149939106Y-68146548D01*
X149881929Y-68359934D01*
X149862676Y-68579999D01*
X149881929Y-68800065D01*
X149939106Y-69013451D01*
X149980179Y-69101532D01*
X150032466Y-69213662D01*
X150159174Y-69394620D01*
X150315380Y-69550826D01*
X150496338Y-69677534D01*
X150615748Y-69733215D01*
X150625189Y-69737618D01*
X150677628Y-69783790D01*
X150696780Y-69850984D01*
X150676564Y-69917865D01*
X150625189Y-69962382D01*
X150496338Y-70022466D01*
X150315379Y-70149174D01*
X150159174Y-70305379D01*
X150032466Y-70486338D01*
X149939106Y-70686548D01*
X149881929Y-70899934D01*
X149862676Y-71120000D01*
X149881929Y-71340065D01*
X149939106Y-71553451D01*
X149964954Y-71608882D01*
X150032466Y-71753662D01*
X150159174Y-71934620D01*
X150315380Y-72090826D01*
X150496338Y-72217534D01*
X150615748Y-72273215D01*
X150625189Y-72277618D01*
X150677628Y-72323790D01*
X150696780Y-72390984D01*
X150676564Y-72457865D01*
X150625189Y-72502382D01*
X150496338Y-72562466D01*
X150315379Y-72689174D01*
X150159174Y-72845379D01*
X150032466Y-73026338D01*
X149939106Y-73226548D01*
X149881929Y-73439934D01*
X149862676Y-73660000D01*
X149881929Y-73880065D01*
X149939106Y-74093451D01*
X149964954Y-74148882D01*
X150032466Y-74293662D01*
X150159174Y-74474620D01*
X150315380Y-74630826D01*
X150496338Y-74757534D01*
X150615748Y-74813215D01*
X150625189Y-74817618D01*
X150677628Y-74863790D01*
X150696780Y-74930984D01*
X150676564Y-74997865D01*
X150625189Y-75042382D01*
X150496338Y-75102466D01*
X150315379Y-75229174D01*
X150159174Y-75385379D01*
X150032466Y-75566338D01*
X149939106Y-75766548D01*
X149881929Y-75979934D01*
X149862676Y-76200000D01*
X149881929Y-76420065D01*
X149939106Y-76633451D01*
X150032466Y-76833662D01*
X150159174Y-77014620D01*
X150208674Y-77064120D01*
X150242159Y-77125443D01*
X150237175Y-77195135D01*
X150208674Y-77239482D01*
X148246681Y-79201476D01*
X148185358Y-79234961D01*
X148115666Y-79229977D01*
X148059733Y-79188105D01*
X148035316Y-79122641D01*
X148035000Y-79113795D01*
X148035000Y-59925951D01*
X148054685Y-59858912D01*
X148071319Y-59838270D01*
X149379043Y-58530546D01*
X150689353Y-57220235D01*
X150750674Y-57186752D01*
X150809125Y-57188142D01*
X150909592Y-57215063D01*
X151066530Y-57228793D01*
X151144999Y-57235659D01*
X151144999Y-57235658D01*
X151145000Y-57235659D01*
X151380408Y-57215063D01*
X151608663Y-57153903D01*
X151822830Y-57054035D01*
X152016401Y-56918495D01*
X152183495Y-56751401D01*
X152319035Y-56557830D01*
X152418903Y-56343663D01*
X152480063Y-56115408D01*
X152500659Y-55880000D01*
X152480063Y-55644592D01*
X152475081Y-55626000D01*
X157775340Y-55626000D01*
X157795936Y-55861407D01*
X157821496Y-55956798D01*
X157857097Y-56089663D01*
X157956965Y-56303830D01*
X158092505Y-56497401D01*
X158259599Y-56664495D01*
X158453170Y-56800035D01*
X158667337Y-56899903D01*
X158879059Y-56956633D01*
X158895592Y-56961063D01*
X159130999Y-56981659D01*
X159130999Y-56981658D01*
X159131000Y-56981659D01*
X159366408Y-56961063D01*
X159594663Y-56899903D01*
X159808830Y-56800035D01*
X160002401Y-56664495D01*
X160169495Y-56497401D01*
X160299732Y-56311403D01*
X160354307Y-56267780D01*
X160423805Y-56260586D01*
X160486160Y-56292109D01*
X160502880Y-56311404D01*
X160632893Y-56497081D01*
X160799918Y-56664106D01*
X160993423Y-56799600D01*
X161207509Y-56899430D01*
X161421000Y-56956634D01*
X161421000Y-56061501D01*
X161528685Y-56110680D01*
X161635237Y-56126000D01*
X161706763Y-56126000D01*
X161813315Y-56110680D01*
X161921000Y-56061501D01*
X161921000Y-56956633D01*
X162134490Y-56899430D01*
X162348576Y-56799600D01*
X162542081Y-56664106D01*
X162709109Y-56497078D01*
X162839119Y-56311405D01*
X162893696Y-56267780D01*
X162963194Y-56260586D01*
X163025549Y-56292109D01*
X163042265Y-56311400D01*
X163172505Y-56497401D01*
X163339599Y-56664495D01*
X163533170Y-56800035D01*
X163747337Y-56899903D01*
X163975592Y-56961063D01*
X164211000Y-56981659D01*
X164446408Y-56961063D01*
X164674663Y-56899903D01*
X164888830Y-56800035D01*
X165082401Y-56664495D01*
X165204329Y-56542566D01*
X165265648Y-56509084D01*
X165335340Y-56514068D01*
X165391274Y-56555939D01*
X165408189Y-56586916D01*
X165457204Y-56718331D01*
X165543454Y-56833546D01*
X165658669Y-56919796D01*
X165793517Y-56970091D01*
X165853127Y-56976500D01*
X167648872Y-56976499D01*
X167708483Y-56970091D01*
X167843331Y-56919796D01*
X167958546Y-56833546D01*
X168044796Y-56718331D01*
X168095091Y-56583483D01*
X168101500Y-56523873D01*
X168101499Y-54728128D01*
X168095091Y-54668517D01*
X168044796Y-54533669D01*
X167958546Y-54418454D01*
X167843331Y-54332204D01*
X167708483Y-54281909D01*
X167648873Y-54275500D01*
X167645550Y-54275500D01*
X165856439Y-54275500D01*
X165856420Y-54275500D01*
X165853128Y-54275501D01*
X165849848Y-54275853D01*
X165849840Y-54275854D01*
X165793515Y-54281909D01*
X165658669Y-54332204D01*
X165543454Y-54418454D01*
X165457204Y-54533669D01*
X165408189Y-54665083D01*
X165366317Y-54721016D01*
X165300852Y-54745433D01*
X165232580Y-54730581D01*
X165204326Y-54709430D01*
X165082404Y-54587508D01*
X165082401Y-54587505D01*
X164888830Y-54451965D01*
X164674663Y-54352097D01*
X164613501Y-54335709D01*
X164446407Y-54290936D01*
X164211000Y-54270340D01*
X163975592Y-54290936D01*
X163747336Y-54352097D01*
X163533170Y-54451965D01*
X163339598Y-54587505D01*
X163172508Y-54754595D01*
X163172505Y-54754598D01*
X163172505Y-54754599D01*
X163111653Y-54841505D01*
X163042269Y-54940596D01*
X162987692Y-54984220D01*
X162918193Y-54991413D01*
X162855839Y-54959891D01*
X162839119Y-54940595D01*
X162709109Y-54754921D01*
X162542081Y-54587893D01*
X162348576Y-54452399D01*
X162134492Y-54352569D01*
X161921000Y-54295364D01*
X161921000Y-55190498D01*
X161813315Y-55141320D01*
X161706763Y-55126000D01*
X161635237Y-55126000D01*
X161528685Y-55141320D01*
X161421000Y-55190498D01*
X161421000Y-54295364D01*
X161420999Y-54295364D01*
X161207507Y-54352569D01*
X160993421Y-54452400D01*
X160799921Y-54587890D01*
X160632893Y-54754918D01*
X160502880Y-54940596D01*
X160448303Y-54984220D01*
X160378804Y-54991413D01*
X160316450Y-54959891D01*
X160299730Y-54940595D01*
X160287071Y-54922516D01*
X160169495Y-54754599D01*
X160002401Y-54587505D01*
X159808830Y-54451965D01*
X159594663Y-54352097D01*
X159533501Y-54335709D01*
X159366407Y-54290936D01*
X159131000Y-54270340D01*
X158895592Y-54290936D01*
X158667336Y-54352097D01*
X158453170Y-54451965D01*
X158259598Y-54587505D01*
X158092505Y-54754598D01*
X157956965Y-54948170D01*
X157857097Y-55162336D01*
X157795936Y-55390592D01*
X157775340Y-55626000D01*
X152475081Y-55626000D01*
X152418903Y-55416337D01*
X152319035Y-55202171D01*
X152183495Y-55008599D01*
X152016401Y-54841505D01*
X151822830Y-54705965D01*
X151608663Y-54606097D01*
X151539276Y-54587505D01*
X151380407Y-54544936D01*
X151145000Y-54524340D01*
X150909592Y-54544936D01*
X150681336Y-54606097D01*
X150467170Y-54705965D01*
X150273598Y-54841505D01*
X150106505Y-55008598D01*
X149976575Y-55194159D01*
X149921998Y-55237784D01*
X149852500Y-55244978D01*
X149790145Y-55213455D01*
X149773425Y-55194159D01*
X149736427Y-55141320D01*
X149643495Y-55008599D01*
X149476401Y-54841505D01*
X149282830Y-54705965D01*
X149068663Y-54606097D01*
X148999276Y-54587505D01*
X148840407Y-54544936D01*
X148604999Y-54524340D01*
X148369592Y-54544936D01*
X148141336Y-54606097D01*
X147927170Y-54705965D01*
X147733601Y-54841503D01*
X147611673Y-54963431D01*
X147550350Y-54996915D01*
X147480658Y-54991931D01*
X147424725Y-54950059D01*
X147407810Y-54919082D01*
X147400658Y-54899907D01*
X147358796Y-54787669D01*
X147272546Y-54672454D01*
X147157331Y-54586204D01*
X147022483Y-54535909D01*
X147001649Y-54533669D01*
X146966166Y-54529854D01*
X146966165Y-54529853D01*
X146962873Y-54529500D01*
X146959550Y-54529500D01*
X145170439Y-54529500D01*
X145170420Y-54529500D01*
X145167128Y-54529501D01*
X145163848Y-54529853D01*
X145163840Y-54529854D01*
X145107515Y-54535909D01*
X144972669Y-54586204D01*
X144857454Y-54672454D01*
X144771204Y-54787668D01*
X144720909Y-54922516D01*
X144716379Y-54964655D01*
X144714500Y-54982127D01*
X144714500Y-54985448D01*
X144714500Y-54985449D01*
X144714500Y-56774560D01*
X144714500Y-56774578D01*
X144714501Y-56777872D01*
X144714853Y-56781152D01*
X144714854Y-56781159D01*
X144716883Y-56800035D01*
X144720909Y-56837483D01*
X144771204Y-56972331D01*
X144857454Y-57087546D01*
X144972669Y-57173796D01*
X145107517Y-57224091D01*
X145167127Y-57230500D01*
X145527717Y-57230499D01*
X145594755Y-57250183D01*
X145640510Y-57302987D01*
X145650454Y-57372146D01*
X145647819Y-57385340D01*
X145643820Y-57400913D01*
X145637520Y-57419315D01*
X145629561Y-57437706D01*
X145622728Y-57480846D01*
X145620360Y-57492278D01*
X145609500Y-57534581D01*
X145609500Y-57554620D01*
X145607972Y-57574018D01*
X145604840Y-57593800D01*
X145608950Y-57637277D01*
X145609500Y-57648947D01*
X145609500Y-84312561D01*
X145607235Y-84333071D01*
X145609439Y-84403177D01*
X145609500Y-84407072D01*
X145609500Y-84434655D01*
X145609988Y-84438524D01*
X145609989Y-84438530D01*
X145610004Y-84438648D01*
X145610918Y-84450272D01*
X145612290Y-84493931D01*
X145617879Y-84513165D01*
X145621825Y-84532221D01*
X145624335Y-84552097D01*
X145640414Y-84592709D01*
X145644197Y-84603756D01*
X145656382Y-84645696D01*
X145666580Y-84662940D01*
X145675136Y-84680405D01*
X145682514Y-84699037D01*
X145682515Y-84699038D01*
X145708180Y-84734364D01*
X145714593Y-84744127D01*
X145736826Y-84781721D01*
X145736829Y-84781724D01*
X145736830Y-84781725D01*
X145750995Y-84795890D01*
X145763627Y-84810680D01*
X145775406Y-84826892D01*
X145809058Y-84854731D01*
X145817699Y-84862594D01*
X147293181Y-86338076D01*
X147326666Y-86399399D01*
X147329500Y-86425757D01*
X147329500Y-96209547D01*
X147309815Y-96276586D01*
X147293181Y-96297228D01*
X140112228Y-103478181D01*
X140050905Y-103511666D01*
X140024547Y-103514500D01*
X139133747Y-103514500D01*
X139066708Y-103494815D01*
X139041599Y-103473473D01*
X139035871Y-103467112D01*
X138882730Y-103355849D01*
X138882729Y-103355848D01*
X138882727Y-103355847D01*
X138709802Y-103278855D01*
X138524648Y-103239500D01*
X138524646Y-103239500D01*
X138335354Y-103239500D01*
X138335352Y-103239500D01*
X138150197Y-103278855D01*
X137977269Y-103355848D01*
X137824129Y-103467110D01*
X137697466Y-103607783D01*
X137602820Y-103771715D01*
X137544326Y-103951742D01*
X137524540Y-104140000D01*
X137544326Y-104328257D01*
X137602820Y-104508284D01*
X137697466Y-104672216D01*
X137824129Y-104812889D01*
X137977269Y-104924151D01*
X138150197Y-105001144D01*
X138335352Y-105040500D01*
X138335354Y-105040500D01*
X138524648Y-105040500D01*
X138648083Y-105014262D01*
X138709803Y-105001144D01*
X138882730Y-104924151D01*
X139035871Y-104812888D01*
X139041598Y-104806527D01*
X139101084Y-104769879D01*
X139133747Y-104765500D01*
X139414547Y-104765500D01*
X139481586Y-104785185D01*
X139527341Y-104837989D01*
X139537285Y-104907147D01*
X139508260Y-104970703D01*
X139502228Y-104977181D01*
X139244228Y-105235181D01*
X139182905Y-105268666D01*
X139156547Y-105271500D01*
X139097352Y-105271500D01*
X138912197Y-105310855D01*
X138739269Y-105387848D01*
X138586129Y-105499110D01*
X138459466Y-105639783D01*
X138364820Y-105803715D01*
X138306326Y-105983742D01*
X138286540Y-106171999D01*
X138306326Y-106360257D01*
X138364820Y-106540284D01*
X138459466Y-106704216D01*
X138586129Y-106844889D01*
X138739269Y-106956151D01*
X138912197Y-107033144D01*
X139097352Y-107072500D01*
X139097354Y-107072500D01*
X139286648Y-107072500D01*
X139410084Y-107046262D01*
X139471803Y-107033144D01*
X139644730Y-106956151D01*
X139797871Y-106844888D01*
X139924533Y-106704216D01*
X140019179Y-106540284D01*
X140077674Y-106360256D01*
X140095321Y-106192345D01*
X140121905Y-106127732D01*
X140130952Y-106117636D01*
X148133821Y-98114768D01*
X148195142Y-98081285D01*
X148264834Y-98086269D01*
X148320767Y-98128141D01*
X148345184Y-98193605D01*
X148345500Y-98202451D01*
X148345500Y-103067547D01*
X148325815Y-103134586D01*
X148309181Y-103155228D01*
X137847228Y-113617181D01*
X137785905Y-113650666D01*
X137759547Y-113653500D01*
X137700352Y-113653500D01*
X137515197Y-113692855D01*
X137342269Y-113769848D01*
X137189129Y-113881110D01*
X137062466Y-114021783D01*
X136967820Y-114185715D01*
X136909326Y-114365742D01*
X136889540Y-114554000D01*
X88960081Y-114554000D01*
X88965063Y-114535408D01*
X88985659Y-114300000D01*
X88965063Y-114064592D01*
X88903903Y-113836337D01*
X88804035Y-113622171D01*
X88668495Y-113428599D01*
X88501401Y-113261505D01*
X88315839Y-113131573D01*
X88272216Y-113076998D01*
X88265022Y-113007500D01*
X88296545Y-112945145D01*
X88315837Y-112928428D01*
X88501401Y-112798495D01*
X88668495Y-112631401D01*
X88804035Y-112437830D01*
X88903903Y-112223663D01*
X88965063Y-111995408D01*
X88985659Y-111760000D01*
X88965063Y-111524592D01*
X88903903Y-111296337D01*
X88804035Y-111082171D01*
X88668495Y-110888599D01*
X88546181Y-110766285D01*
X88512696Y-110704962D01*
X88517680Y-110635270D01*
X88559552Y-110579337D01*
X88590528Y-110562422D01*
X88722089Y-110513352D01*
X88837188Y-110427188D01*
X88923352Y-110312089D01*
X88973599Y-110177371D01*
X88979645Y-110121132D01*
X88980000Y-110114518D01*
X88980000Y-109470000D01*
X88063686Y-109470000D01*
X88089493Y-109429844D01*
X88130000Y-109291889D01*
X88130000Y-109148111D01*
X88089493Y-109010156D01*
X88063686Y-108970000D01*
X88980000Y-108970000D01*
X88980000Y-108325481D01*
X88979645Y-108318867D01*
X88973599Y-108262628D01*
X88923352Y-108127910D01*
X88837188Y-108012811D01*
X88722089Y-107926647D01*
X88587371Y-107876400D01*
X88531132Y-107870354D01*
X88524518Y-107870000D01*
X87880000Y-107870000D01*
X87880000Y-108784498D01*
X87772315Y-108735320D01*
X87665763Y-108720000D01*
X87594237Y-108720000D01*
X87487685Y-108735320D01*
X87380000Y-108784498D01*
X87380000Y-107870000D01*
X86735482Y-107870000D01*
X86728867Y-107870354D01*
X86672628Y-107876400D01*
X86537910Y-107926647D01*
X86422811Y-108012811D01*
X86336647Y-108127910D01*
X86286400Y-108262628D01*
X86280354Y-108318867D01*
X86280000Y-108325481D01*
X86280000Y-108970000D01*
X87196314Y-108970000D01*
X87170507Y-109010156D01*
X87130000Y-109148111D01*
X87130000Y-109291889D01*
X87170507Y-109429844D01*
X87196314Y-109470000D01*
X86280000Y-109470000D01*
X86280000Y-110114518D01*
X86280354Y-110121132D01*
X86286400Y-110177371D01*
X86336647Y-110312089D01*
X86422811Y-110427188D01*
X86537911Y-110513352D01*
X86669471Y-110562422D01*
X86725404Y-110604294D01*
X86749821Y-110669758D01*
X86734969Y-110738031D01*
X86713819Y-110766285D01*
X86591503Y-110888601D01*
X86455965Y-111082170D01*
X86356097Y-111296336D01*
X86294936Y-111524592D01*
X86274340Y-111760000D01*
X86294936Y-111995407D01*
X86339709Y-112162501D01*
X86356097Y-112223663D01*
X86455965Y-112437830D01*
X86591505Y-112631401D01*
X86758599Y-112798495D01*
X86944160Y-112928426D01*
X86987783Y-112983002D01*
X86994976Y-113052501D01*
X86963454Y-113114855D01*
X86944159Y-113131575D01*
X86758595Y-113261508D01*
X86591505Y-113428598D01*
X86455965Y-113622170D01*
X86356097Y-113836336D01*
X86294936Y-114064592D01*
X86274340Y-114300000D01*
X86294936Y-114535407D01*
X86339709Y-114702502D01*
X86356097Y-114763663D01*
X86455965Y-114977830D01*
X86591505Y-115171401D01*
X86758599Y-115338495D01*
X86944160Y-115468426D01*
X86987783Y-115523002D01*
X86994976Y-115592501D01*
X86963454Y-115654855D01*
X86944159Y-115671575D01*
X86758595Y-115801508D01*
X86591505Y-115968598D01*
X86455965Y-116162170D01*
X86356097Y-116376336D01*
X86294936Y-116604592D01*
X86274340Y-116839999D01*
X85090500Y-116839999D01*
X85090500Y-99060000D01*
X86644671Y-99060000D01*
X86644937Y-99064058D01*
X86657846Y-99261016D01*
X86663966Y-99354380D01*
X86664757Y-99358361D01*
X86664758Y-99358362D01*
X86720726Y-99639738D01*
X86720728Y-99639745D01*
X86721519Y-99643722D01*
X86722819Y-99647553D01*
X86722823Y-99647566D01*
X86815042Y-99919230D01*
X86816348Y-99923077D01*
X86818141Y-99926713D01*
X86818144Y-99926720D01*
X86945032Y-100184025D01*
X86945038Y-100184036D01*
X86946828Y-100187665D01*
X86949079Y-100191034D01*
X86949082Y-100191039D01*
X87043722Y-100332677D01*
X87110727Y-100432957D01*
X87305242Y-100654758D01*
X87527043Y-100849273D01*
X87637913Y-100923354D01*
X87702244Y-100966339D01*
X87772335Y-101013172D01*
X87775968Y-101014963D01*
X87775974Y-101014967D01*
X88030560Y-101140514D01*
X88036923Y-101143652D01*
X88176829Y-101191144D01*
X88312433Y-101237176D01*
X88312435Y-101237176D01*
X88316278Y-101238481D01*
X88605620Y-101296034D01*
X88900000Y-101315329D01*
X89194380Y-101296034D01*
X89483722Y-101238481D01*
X89763077Y-101143652D01*
X90027665Y-101013172D01*
X90272957Y-100849273D01*
X90494758Y-100654758D01*
X90689273Y-100432957D01*
X90853172Y-100187665D01*
X90983652Y-99923077D01*
X91078481Y-99643722D01*
X91136034Y-99354380D01*
X91155329Y-99060000D01*
X91136034Y-98765620D01*
X91078481Y-98476278D01*
X90983652Y-98196923D01*
X90853172Y-97932336D01*
X90833157Y-97902382D01*
X90691532Y-97690424D01*
X90689273Y-97687043D01*
X90494758Y-97465242D01*
X90272957Y-97270727D01*
X90252183Y-97256846D01*
X90031039Y-97109082D01*
X90031034Y-97109079D01*
X90027665Y-97106828D01*
X90024036Y-97105038D01*
X90024025Y-97105032D01*
X89766720Y-96978144D01*
X89766713Y-96978141D01*
X89763077Y-96976348D01*
X89759230Y-96975042D01*
X89487566Y-96882823D01*
X89487553Y-96882819D01*
X89483722Y-96881519D01*
X89479745Y-96880728D01*
X89479738Y-96880726D01*
X89198362Y-96824758D01*
X89198361Y-96824757D01*
X89194380Y-96823966D01*
X89190330Y-96823700D01*
X89190326Y-96823700D01*
X88904058Y-96804937D01*
X88900000Y-96804671D01*
X88895942Y-96804937D01*
X88609673Y-96823700D01*
X88609667Y-96823700D01*
X88605620Y-96823966D01*
X88601640Y-96824757D01*
X88601637Y-96824758D01*
X88320261Y-96880726D01*
X88320250Y-96880728D01*
X88316278Y-96881519D01*
X88312449Y-96882818D01*
X88312433Y-96882823D01*
X88040769Y-96975042D01*
X88040762Y-96975044D01*
X88036923Y-96976348D01*
X88033286Y-96978141D01*
X88033280Y-96978144D01*
X87775976Y-97105032D01*
X87775964Y-97105038D01*
X87772336Y-97106828D01*
X87768973Y-97109075D01*
X87768961Y-97109082D01*
X87530424Y-97268467D01*
X87530414Y-97268473D01*
X87527043Y-97270727D01*
X87523992Y-97273402D01*
X87523985Y-97273408D01*
X87308290Y-97462568D01*
X87308282Y-97462575D01*
X87305242Y-97465242D01*
X87302575Y-97468282D01*
X87302568Y-97468290D01*
X87113408Y-97683985D01*
X87113402Y-97683992D01*
X87110727Y-97687043D01*
X87108473Y-97690414D01*
X87108467Y-97690424D01*
X86949082Y-97928961D01*
X86949075Y-97928973D01*
X86946828Y-97932336D01*
X86945038Y-97935964D01*
X86945032Y-97935976D01*
X86818144Y-98193280D01*
X86818141Y-98193286D01*
X86816348Y-98196923D01*
X86815044Y-98200762D01*
X86815042Y-98200769D01*
X86722823Y-98472433D01*
X86722818Y-98472449D01*
X86721519Y-98476278D01*
X86720728Y-98480250D01*
X86720726Y-98480261D01*
X86675329Y-98708492D01*
X86663966Y-98765620D01*
X86663700Y-98769667D01*
X86663700Y-98769673D01*
X86647132Y-99022458D01*
X86644671Y-99060000D01*
X85090500Y-99060000D01*
X85090500Y-90309194D01*
X97254840Y-90309194D01*
X97258950Y-90352673D01*
X97259500Y-90364343D01*
X97259500Y-105422256D01*
X97257235Y-105442766D01*
X97259439Y-105512872D01*
X97259500Y-105516767D01*
X97259500Y-105544350D01*
X97259988Y-105548219D01*
X97259989Y-105548225D01*
X97260004Y-105548343D01*
X97260918Y-105559967D01*
X97262290Y-105603626D01*
X97267879Y-105622860D01*
X97271825Y-105641916D01*
X97274335Y-105661792D01*
X97290414Y-105702404D01*
X97294197Y-105713451D01*
X97306382Y-105755391D01*
X97316580Y-105772635D01*
X97325136Y-105790100D01*
X97332514Y-105808732D01*
X97343066Y-105823256D01*
X97358180Y-105844059D01*
X97364593Y-105853822D01*
X97386826Y-105891416D01*
X97386829Y-105891419D01*
X97386830Y-105891420D01*
X97400995Y-105905585D01*
X97413627Y-105920375D01*
X97425406Y-105936587D01*
X97459058Y-105964426D01*
X97467699Y-105972289D01*
X97719762Y-106224352D01*
X97753247Y-106285675D01*
X97751856Y-106344126D01*
X97724936Y-106444593D01*
X97704340Y-106680000D01*
X97724936Y-106915407D01*
X97767029Y-107072500D01*
X97786097Y-107143663D01*
X97885965Y-107357830D01*
X98021505Y-107551401D01*
X98188599Y-107718495D01*
X98382170Y-107854035D01*
X98596337Y-107953903D01*
X98824592Y-108015063D01*
X99060000Y-108035659D01*
X99295408Y-108015063D01*
X99523663Y-107953903D01*
X99737830Y-107854035D01*
X99931401Y-107718495D01*
X100098495Y-107551401D01*
X100234035Y-107357830D01*
X100333903Y-107143663D01*
X100395063Y-106915408D01*
X100415659Y-106680000D01*
X100395063Y-106444592D01*
X100333903Y-106216337D01*
X100234035Y-106002171D01*
X100098495Y-105808599D01*
X99976569Y-105686673D01*
X99943084Y-105625350D01*
X99948068Y-105555658D01*
X99989940Y-105499725D01*
X100020915Y-105482810D01*
X100152331Y-105433796D01*
X100267546Y-105347546D01*
X100353796Y-105232331D01*
X100404091Y-105097483D01*
X100410500Y-105037873D01*
X100410499Y-103242128D01*
X100404091Y-103182517D01*
X100353796Y-103047669D01*
X100267546Y-102932454D01*
X100152331Y-102846204D01*
X100017483Y-102795909D01*
X99957873Y-102789500D01*
X99954551Y-102789500D01*
X98634500Y-102789500D01*
X98567461Y-102769815D01*
X98521706Y-102717011D01*
X98510500Y-102665500D01*
X98510500Y-96671040D01*
X98510500Y-90639448D01*
X98530184Y-90572413D01*
X98546813Y-90551776D01*
X99769770Y-89328819D01*
X99831094Y-89295334D01*
X99857452Y-89292500D01*
X99916648Y-89292500D01*
X100040083Y-89266262D01*
X100101803Y-89253144D01*
X100274730Y-89176151D01*
X100351926Y-89120065D01*
X100427870Y-89064889D01*
X100461987Y-89026999D01*
X100554533Y-88924216D01*
X100649179Y-88760284D01*
X100707674Y-88580256D01*
X100727460Y-88392000D01*
X100707674Y-88203744D01*
X100649179Y-88023716D01*
X100649179Y-88023715D01*
X100554533Y-87859783D01*
X100427870Y-87719110D01*
X100274730Y-87607848D01*
X100101802Y-87530855D01*
X99916648Y-87491500D01*
X99916646Y-87491500D01*
X99727354Y-87491500D01*
X99727352Y-87491500D01*
X99542197Y-87530855D01*
X99369269Y-87607848D01*
X99216129Y-87719110D01*
X99089466Y-87859783D01*
X98994820Y-88023715D01*
X98936326Y-88203742D01*
X98918679Y-88371649D01*
X98892094Y-88436263D01*
X98883039Y-88446368D01*
X97501208Y-89828199D01*
X97485110Y-89841096D01*
X97437096Y-89892225D01*
X97434392Y-89895016D01*
X97417628Y-89911780D01*
X97417621Y-89911787D01*
X97414880Y-89914529D01*
X97412499Y-89917597D01*
X97412490Y-89917608D01*
X97412411Y-89917711D01*
X97404842Y-89926572D01*
X97374935Y-89958420D01*
X97365285Y-89975974D01*
X97354609Y-89992228D01*
X97342326Y-90008063D01*
X97324975Y-90048158D01*
X97319838Y-90058644D01*
X97298802Y-90096907D01*
X97293821Y-90116309D01*
X97287520Y-90134711D01*
X97279561Y-90153102D01*
X97272728Y-90196242D01*
X97270360Y-90207674D01*
X97259500Y-90249977D01*
X97259500Y-90270016D01*
X97257973Y-90289414D01*
X97254840Y-90309194D01*
X85090500Y-90309194D01*
X85090500Y-76826883D01*
X85110185Y-76759844D01*
X85162989Y-76714089D01*
X85214072Y-76702884D01*
X85419757Y-76702174D01*
X87500567Y-76694999D01*
X87567673Y-76714452D01*
X87613610Y-76767098D01*
X87623792Y-76836222D01*
X87594986Y-76899877D01*
X87569886Y-76922099D01*
X87530428Y-76948464D01*
X87530415Y-76948473D01*
X87527043Y-76950727D01*
X87523992Y-76953402D01*
X87523985Y-76953408D01*
X87308290Y-77142568D01*
X87308282Y-77142575D01*
X87305242Y-77145242D01*
X87302575Y-77148282D01*
X87302568Y-77148290D01*
X87113408Y-77363985D01*
X87113402Y-77363992D01*
X87110727Y-77367043D01*
X87108473Y-77370414D01*
X87108467Y-77370424D01*
X86949082Y-77608961D01*
X86949075Y-77608973D01*
X86946828Y-77612336D01*
X86945038Y-77615964D01*
X86945032Y-77615976D01*
X86818144Y-77873280D01*
X86818141Y-77873286D01*
X86816348Y-77876923D01*
X86815044Y-77880762D01*
X86815042Y-77880769D01*
X86722823Y-78152433D01*
X86722818Y-78152449D01*
X86721519Y-78156278D01*
X86720728Y-78160250D01*
X86720726Y-78160261D01*
X86685627Y-78336720D01*
X86663966Y-78445620D01*
X86644671Y-78740000D01*
X86644937Y-78744058D01*
X86662708Y-79015196D01*
X86663966Y-79034380D01*
X86664757Y-79038361D01*
X86664758Y-79038362D01*
X86720726Y-79319738D01*
X86720728Y-79319745D01*
X86721519Y-79323722D01*
X86722819Y-79327553D01*
X86722823Y-79327566D01*
X86798960Y-79551855D01*
X86816348Y-79603077D01*
X86818141Y-79606713D01*
X86818144Y-79606720D01*
X86945032Y-79864025D01*
X86945038Y-79864036D01*
X86946828Y-79867665D01*
X86949079Y-79871034D01*
X86949082Y-79871039D01*
X87043722Y-80012677D01*
X87110727Y-80112957D01*
X87305242Y-80334758D01*
X87527043Y-80529273D01*
X87772335Y-80693172D01*
X87775968Y-80694963D01*
X87775974Y-80694967D01*
X87906397Y-80759284D01*
X88036923Y-80823652D01*
X88236992Y-80891566D01*
X88312433Y-80917176D01*
X88312435Y-80917176D01*
X88316278Y-80918481D01*
X88605620Y-80976034D01*
X88900000Y-80995329D01*
X89194380Y-80976034D01*
X89483722Y-80918481D01*
X89763077Y-80823652D01*
X90027665Y-80693172D01*
X90272957Y-80529273D01*
X90494758Y-80334758D01*
X90689273Y-80112957D01*
X90853172Y-79867665D01*
X90983652Y-79603077D01*
X91078481Y-79323722D01*
X91136034Y-79034380D01*
X91155329Y-78740000D01*
X91136034Y-78445620D01*
X91078481Y-78156278D01*
X90983652Y-77876923D01*
X90853172Y-77612336D01*
X90839792Y-77592312D01*
X90698390Y-77380687D01*
X90689273Y-77367043D01*
X90494758Y-77145242D01*
X90272957Y-76950727D01*
X90269570Y-76948464D01*
X90215748Y-76912501D01*
X90170943Y-76858889D01*
X90162236Y-76789564D01*
X90192391Y-76726536D01*
X90251834Y-76689817D01*
X90284209Y-76685400D01*
X118138681Y-76589351D01*
X118205788Y-76608804D01*
X118251725Y-76661450D01*
X118261907Y-76730574D01*
X118233101Y-76794229D01*
X118208000Y-76816452D01*
X118010424Y-76948467D01*
X118010414Y-76948473D01*
X118007043Y-76950727D01*
X118003992Y-76953402D01*
X118003985Y-76953408D01*
X117788290Y-77142568D01*
X117788282Y-77142575D01*
X117785242Y-77145242D01*
X117782575Y-77148282D01*
X117782568Y-77148290D01*
X117593408Y-77363985D01*
X117593402Y-77363992D01*
X117590727Y-77367043D01*
X117588473Y-77370414D01*
X117588467Y-77370424D01*
X117429082Y-77608961D01*
X117429075Y-77608973D01*
X117426828Y-77612336D01*
X117425038Y-77615964D01*
X117425032Y-77615976D01*
X117298144Y-77873280D01*
X117298141Y-77873286D01*
X117296348Y-77876923D01*
X117295044Y-77880762D01*
X117295042Y-77880769D01*
X117202823Y-78152433D01*
X117202818Y-78152449D01*
X117201519Y-78156278D01*
X117200728Y-78160250D01*
X117200726Y-78160261D01*
X117165627Y-78336720D01*
X117143966Y-78445620D01*
X117143700Y-78449667D01*
X117143700Y-78449673D01*
X117124936Y-78735941D01*
X117124936Y-78735956D01*
X117124671Y-78740000D01*
X117124936Y-78744043D01*
X117124936Y-78744058D01*
X117142709Y-79015200D01*
X117143966Y-79034380D01*
X117144757Y-79038361D01*
X117144758Y-79038362D01*
X117200726Y-79319738D01*
X117200728Y-79319745D01*
X117201519Y-79323722D01*
X117202819Y-79327553D01*
X117202823Y-79327566D01*
X117278960Y-79551855D01*
X117296348Y-79603077D01*
X117298141Y-79606713D01*
X117298144Y-79606720D01*
X117425032Y-79864025D01*
X117425038Y-79864036D01*
X117426828Y-79867665D01*
X117429079Y-79871034D01*
X117429082Y-79871039D01*
X117523722Y-80012677D01*
X117590727Y-80112957D01*
X117785242Y-80334758D01*
X118007043Y-80529273D01*
X118252335Y-80693172D01*
X118255968Y-80694963D01*
X118255974Y-80694967D01*
X118386397Y-80759284D01*
X118516923Y-80823652D01*
X118716992Y-80891566D01*
X118792433Y-80917176D01*
X118792435Y-80917176D01*
X118796278Y-80918481D01*
X118937127Y-80946497D01*
X118999035Y-80978880D01*
X119033609Y-81039596D01*
X119029870Y-81109365D01*
X119000614Y-81155794D01*
X116583208Y-83573199D01*
X116567110Y-83586096D01*
X116519096Y-83637225D01*
X116516392Y-83640016D01*
X116499628Y-83656780D01*
X116499621Y-83656787D01*
X116496880Y-83659529D01*
X116494499Y-83662597D01*
X116494490Y-83662608D01*
X116494411Y-83662711D01*
X116486842Y-83671572D01*
X116456935Y-83703420D01*
X116447285Y-83720974D01*
X116436609Y-83737228D01*
X116424326Y-83753063D01*
X116406975Y-83793158D01*
X116401838Y-83803644D01*
X116380802Y-83841907D01*
X116375821Y-83861309D01*
X116369520Y-83879711D01*
X116361561Y-83898102D01*
X116354728Y-83941242D01*
X116352360Y-83952674D01*
X116341500Y-83994977D01*
X116341500Y-84015016D01*
X116339973Y-84034414D01*
X116336840Y-84054194D01*
X116340950Y-84097673D01*
X116341500Y-84109343D01*
X116341500Y-89452256D01*
X116339235Y-89472766D01*
X116341439Y-89542872D01*
X116341500Y-89546767D01*
X116341500Y-89574350D01*
X116341988Y-89578219D01*
X116341989Y-89578225D01*
X116342004Y-89578343D01*
X116342918Y-89589967D01*
X116344290Y-89633626D01*
X116349879Y-89652860D01*
X116353825Y-89671916D01*
X116356335Y-89691792D01*
X116372414Y-89732404D01*
X116376197Y-89743451D01*
X116388382Y-89785391D01*
X116398580Y-89802635D01*
X116407136Y-89820100D01*
X116414514Y-89838732D01*
X116425066Y-89853256D01*
X116440180Y-89874059D01*
X116446593Y-89883822D01*
X116468826Y-89921416D01*
X116468829Y-89921419D01*
X116468830Y-89921420D01*
X116482995Y-89935585D01*
X116495627Y-89950375D01*
X116507406Y-89966587D01*
X116541058Y-89994426D01*
X116549699Y-90002289D01*
X117101197Y-90553787D01*
X117114098Y-90569889D01*
X117116212Y-90571874D01*
X117116214Y-90571877D01*
X117152768Y-90606204D01*
X117165240Y-90617916D01*
X117168036Y-90620626D01*
X117187530Y-90640120D01*
X117190615Y-90642513D01*
X117190701Y-90642580D01*
X117199573Y-90650158D01*
X117231418Y-90680062D01*
X117248974Y-90689714D01*
X117265231Y-90700392D01*
X117281064Y-90712674D01*
X117297185Y-90719649D01*
X117321156Y-90730023D01*
X117331643Y-90735160D01*
X117369908Y-90756197D01*
X117389316Y-90761180D01*
X117407710Y-90767478D01*
X117426105Y-90775438D01*
X117469254Y-90782271D01*
X117480680Y-90784638D01*
X117496222Y-90788629D01*
X117522980Y-90795500D01*
X117522981Y-90795500D01*
X117543016Y-90795500D01*
X117562413Y-90797026D01*
X117582196Y-90800160D01*
X117625674Y-90796050D01*
X117637344Y-90795500D01*
X118840547Y-90795500D01*
X118907586Y-90815185D01*
X118953341Y-90867989D01*
X118963285Y-90937147D01*
X118934260Y-91000703D01*
X118928228Y-91007181D01*
X111757208Y-98178199D01*
X111741110Y-98191096D01*
X111693096Y-98242225D01*
X111690392Y-98245016D01*
X111673628Y-98261780D01*
X111673621Y-98261787D01*
X111670880Y-98264529D01*
X111668499Y-98267597D01*
X111668490Y-98267608D01*
X111668411Y-98267711D01*
X111660842Y-98276572D01*
X111630935Y-98308420D01*
X111621285Y-98325974D01*
X111610609Y-98342228D01*
X111598326Y-98358063D01*
X111580975Y-98398158D01*
X111575838Y-98408644D01*
X111554802Y-98446907D01*
X111549821Y-98466309D01*
X111543520Y-98484711D01*
X111535561Y-98503102D01*
X111528728Y-98546242D01*
X111526360Y-98557674D01*
X111515500Y-98599977D01*
X111515500Y-98620016D01*
X111513973Y-98639414D01*
X111510840Y-98659194D01*
X111514950Y-98702673D01*
X111515500Y-98714344D01*
X111515499Y-98869313D01*
X111495814Y-98936352D01*
X111483650Y-98952284D01*
X111408464Y-99035786D01*
X111313820Y-99199715D01*
X111255326Y-99379742D01*
X111235540Y-99568000D01*
X111255326Y-99756257D01*
X111313820Y-99936284D01*
X111408466Y-100100216D01*
X111535129Y-100240889D01*
X111688269Y-100352151D01*
X111861197Y-100429144D01*
X112046352Y-100468500D01*
X112046354Y-100468500D01*
X112235648Y-100468500D01*
X112359084Y-100442262D01*
X112420803Y-100429144D01*
X112593730Y-100352151D01*
X112627903Y-100327323D01*
X112746870Y-100240889D01*
X112873533Y-100100216D01*
X112968179Y-99936284D01*
X112982526Y-99892128D01*
X113026674Y-99756256D01*
X113046460Y-99568000D01*
X113026674Y-99379744D01*
X112970577Y-99207096D01*
X112968179Y-99199715D01*
X112873533Y-99035784D01*
X112855272Y-99015503D01*
X112825042Y-98952512D01*
X112833666Y-98883177D01*
X112859737Y-98844852D01*
X118943732Y-92760857D01*
X119005053Y-92727374D01*
X119074745Y-92732358D01*
X119130678Y-92774230D01*
X119154987Y-92838300D01*
X119164891Y-92957816D01*
X119164891Y-92957819D01*
X119164892Y-92957821D01*
X119225937Y-93198881D01*
X119270960Y-93301523D01*
X119325825Y-93426604D01*
X119325827Y-93426607D01*
X119461836Y-93634785D01*
X119630256Y-93817738D01*
X119630259Y-93817740D01*
X119826485Y-93970470D01*
X119826487Y-93970471D01*
X119826491Y-93970474D01*
X120045190Y-94088828D01*
X120045192Y-94088829D01*
X120054227Y-94093718D01*
X120052998Y-94095987D01*
X120097744Y-94127681D01*
X120123875Y-94192480D01*
X120110825Y-94261120D01*
X120088148Y-94292259D01*
X115186208Y-99194199D01*
X115170110Y-99207096D01*
X115122096Y-99258225D01*
X115119392Y-99261016D01*
X115102628Y-99277780D01*
X115102621Y-99277787D01*
X115099880Y-99280529D01*
X115097499Y-99283597D01*
X115097490Y-99283608D01*
X115097411Y-99283711D01*
X115089842Y-99292572D01*
X115059935Y-99324420D01*
X115050285Y-99341974D01*
X115039609Y-99358228D01*
X115027326Y-99374063D01*
X115009975Y-99414158D01*
X115004838Y-99424644D01*
X114983802Y-99462907D01*
X114978821Y-99482309D01*
X114972520Y-99500711D01*
X114964561Y-99519102D01*
X114957728Y-99562242D01*
X114955360Y-99573674D01*
X114944499Y-99615977D01*
X114944500Y-99636016D01*
X114942973Y-99655414D01*
X114941375Y-99665507D01*
X114939840Y-99675196D01*
X114942594Y-99704327D01*
X114943950Y-99718673D01*
X114944500Y-99730343D01*
X114944500Y-108521312D01*
X114924815Y-108588351D01*
X114912650Y-108604284D01*
X114837466Y-108687783D01*
X114742820Y-108851715D01*
X114684326Y-109031742D01*
X114664540Y-109220000D01*
X114684326Y-109408257D01*
X114742820Y-109588284D01*
X114837466Y-109752216D01*
X114964129Y-109892889D01*
X115117269Y-110004151D01*
X115290197Y-110081144D01*
X115475352Y-110120500D01*
X115475354Y-110120500D01*
X115664648Y-110120500D01*
X115788084Y-110094262D01*
X115849803Y-110081144D01*
X116022730Y-110004151D01*
X116175871Y-109892888D01*
X116302533Y-109752216D01*
X116397179Y-109588284D01*
X116455674Y-109408256D01*
X116475460Y-109220000D01*
X116455674Y-109031744D01*
X116409359Y-108889202D01*
X116397179Y-108851715D01*
X116302533Y-108687783D01*
X116227350Y-108604284D01*
X116197120Y-108541293D01*
X116195500Y-108521312D01*
X116195500Y-100005451D01*
X116215185Y-99938412D01*
X116231815Y-99917774D01*
X116928999Y-99220589D01*
X116990320Y-99187106D01*
X117060011Y-99192090D01*
X117115945Y-99233961D01*
X117140362Y-99299426D01*
X117140412Y-99300161D01*
X117143966Y-99354380D01*
X117144757Y-99358361D01*
X117144758Y-99358362D01*
X117200726Y-99639738D01*
X117200728Y-99639745D01*
X117201519Y-99643722D01*
X117202819Y-99647553D01*
X117202823Y-99647566D01*
X117295042Y-99919230D01*
X117296348Y-99923077D01*
X117298141Y-99926713D01*
X117298144Y-99926720D01*
X117425032Y-100184025D01*
X117425038Y-100184036D01*
X117426828Y-100187665D01*
X117429079Y-100191034D01*
X117429082Y-100191039D01*
X117523722Y-100332677D01*
X117590727Y-100432957D01*
X117785242Y-100654758D01*
X118007043Y-100849273D01*
X118117913Y-100923354D01*
X118182244Y-100966339D01*
X118252335Y-101013172D01*
X118255968Y-101014963D01*
X118255974Y-101014967D01*
X118510560Y-101140514D01*
X118516923Y-101143652D01*
X118656829Y-101191144D01*
X118792433Y-101237176D01*
X118792435Y-101237176D01*
X118796278Y-101238481D01*
X119085620Y-101296034D01*
X119380000Y-101315329D01*
X119674380Y-101296034D01*
X119963722Y-101238481D01*
X120243077Y-101143652D01*
X120507665Y-101013172D01*
X120752957Y-100849273D01*
X120974758Y-100654758D01*
X121169273Y-100432957D01*
X121333172Y-100187665D01*
X121463652Y-99923077D01*
X121558481Y-99643722D01*
X121616034Y-99354380D01*
X121635329Y-99060000D01*
X121616034Y-98765620D01*
X121558481Y-98476278D01*
X121463652Y-98196923D01*
X121333172Y-97932336D01*
X121313157Y-97902382D01*
X121171532Y-97690424D01*
X121169273Y-97687043D01*
X120974758Y-97465242D01*
X120752957Y-97270727D01*
X120732183Y-97256846D01*
X120511039Y-97109082D01*
X120511034Y-97109079D01*
X120507665Y-97106828D01*
X120504036Y-97105038D01*
X120504025Y-97105032D01*
X120246720Y-96978144D01*
X120246713Y-96978141D01*
X120243077Y-96976348D01*
X120239230Y-96975042D01*
X119967566Y-96882823D01*
X119967553Y-96882819D01*
X119963722Y-96881519D01*
X119959745Y-96880728D01*
X119959738Y-96880726D01*
X119678362Y-96824758D01*
X119678361Y-96824757D01*
X119674380Y-96823966D01*
X119670332Y-96823700D01*
X119670327Y-96823700D01*
X119620161Y-96820412D01*
X119554553Y-96796385D01*
X119512350Y-96740701D01*
X119506951Y-96671040D01*
X119540071Y-96609519D01*
X119540317Y-96609271D01*
X122987821Y-93161768D01*
X123049142Y-93128285D01*
X123118834Y-93133269D01*
X123174767Y-93175141D01*
X123199184Y-93240605D01*
X123199500Y-93249451D01*
X123199500Y-105791813D01*
X123179815Y-105858852D01*
X123127011Y-105904607D01*
X123057853Y-105914551D01*
X123020430Y-105899363D01*
X123019636Y-105901149D01*
X122834802Y-105818855D01*
X122649648Y-105779500D01*
X122649646Y-105779500D01*
X122460354Y-105779500D01*
X122460352Y-105779500D01*
X122275197Y-105818855D01*
X122102269Y-105895848D01*
X121949129Y-106007110D01*
X121822466Y-106147783D01*
X121727820Y-106311715D01*
X121669326Y-106491742D01*
X121649540Y-106680000D01*
X121669326Y-106868257D01*
X121727820Y-107048284D01*
X121822464Y-107212213D01*
X121897650Y-107295714D01*
X121927880Y-107358706D01*
X121929500Y-107378687D01*
X121929500Y-108521312D01*
X121909815Y-108588351D01*
X121897650Y-108604284D01*
X121822466Y-108687783D01*
X121727820Y-108851715D01*
X121669326Y-109031742D01*
X121649540Y-109220000D01*
X121669326Y-109408257D01*
X121727820Y-109588284D01*
X121822466Y-109752216D01*
X121949129Y-109892889D01*
X122102269Y-110004151D01*
X122275197Y-110081144D01*
X122460352Y-110120500D01*
X122460354Y-110120500D01*
X122649648Y-110120500D01*
X122773083Y-110094262D01*
X122834803Y-110081144D01*
X123007730Y-110004151D01*
X123160871Y-109892888D01*
X123287533Y-109752216D01*
X123382179Y-109588284D01*
X123382179Y-109588283D01*
X123383866Y-109585362D01*
X123434432Y-109537146D01*
X123503039Y-109523922D01*
X123541693Y-109534084D01*
X123545197Y-109535644D01*
X123606915Y-109548762D01*
X123730352Y-109575000D01*
X123730354Y-109575000D01*
X123919648Y-109575000D01*
X124043084Y-109548762D01*
X124104803Y-109535644D01*
X124277730Y-109458651D01*
X124430871Y-109347388D01*
X124557533Y-109206716D01*
X124652179Y-109042784D01*
X124710674Y-108862756D01*
X124730460Y-108674500D01*
X124710674Y-108486244D01*
X124652179Y-108306216D01*
X124652179Y-108306215D01*
X124557533Y-108142283D01*
X124482350Y-108058784D01*
X124452120Y-107995793D01*
X124450500Y-107975812D01*
X124450500Y-104907065D01*
X124470185Y-104840026D01*
X124522989Y-104794271D01*
X124592147Y-104784327D01*
X124655703Y-104813352D01*
X124676074Y-104835941D01*
X124759174Y-104954620D01*
X124915380Y-105110826D01*
X125096338Y-105237534D01*
X125296550Y-105330894D01*
X125509932Y-105388070D01*
X125656643Y-105400905D01*
X125729999Y-105407323D01*
X125729999Y-105407322D01*
X125730000Y-105407323D01*
X125950068Y-105388070D01*
X126163450Y-105330894D01*
X126363662Y-105237534D01*
X126544620Y-105110826D01*
X126700826Y-104954620D01*
X126827534Y-104773662D01*
X126920894Y-104573450D01*
X126978070Y-104360068D01*
X126997323Y-104140000D01*
X126978070Y-103919932D01*
X126920894Y-103706550D01*
X126827534Y-103506339D01*
X126700826Y-103325380D01*
X126544620Y-103169174D01*
X126363662Y-103042466D01*
X126234811Y-102982382D01*
X126182372Y-102936210D01*
X126163220Y-102869016D01*
X126183436Y-102802135D01*
X126234811Y-102757618D01*
X126240027Y-102755185D01*
X126363662Y-102697534D01*
X126544620Y-102570826D01*
X126700826Y-102414620D01*
X126827534Y-102233662D01*
X126920894Y-102033450D01*
X126978070Y-101820068D01*
X126997323Y-101600000D01*
X126978070Y-101379932D01*
X126978070Y-101379930D01*
X126966293Y-101335979D01*
X126967954Y-101266129D01*
X126998384Y-101216205D01*
X128018789Y-100195800D01*
X128034885Y-100182906D01*
X128036873Y-100180787D01*
X128036877Y-100180786D01*
X128082949Y-100131723D01*
X128085534Y-100129055D01*
X128105120Y-100109471D01*
X128107585Y-100106292D01*
X128115167Y-100097416D01*
X128145062Y-100065582D01*
X128154712Y-100048027D01*
X128165400Y-100031757D01*
X128166123Y-100030825D01*
X128177673Y-100015936D01*
X128195026Y-99975832D01*
X128200157Y-99965362D01*
X128221197Y-99927092D01*
X128226175Y-99907699D01*
X128232481Y-99889282D01*
X128238826Y-99874620D01*
X128240438Y-99870896D01*
X128247272Y-99827745D01*
X128249634Y-99816335D01*
X128260500Y-99774019D01*
X128260499Y-99753987D01*
X128262025Y-99734591D01*
X128265160Y-99714804D01*
X128261047Y-99671303D01*
X128260499Y-99659676D01*
X128260499Y-93655450D01*
X128280184Y-93588412D01*
X128296813Y-93567775D01*
X134368789Y-87495800D01*
X134384885Y-87482906D01*
X134386873Y-87480787D01*
X134386877Y-87480786D01*
X134432949Y-87431723D01*
X134435534Y-87429055D01*
X134455120Y-87409471D01*
X134457585Y-87406292D01*
X134465167Y-87397416D01*
X134479472Y-87382183D01*
X134495062Y-87365582D01*
X134504717Y-87348018D01*
X134515394Y-87331764D01*
X134527673Y-87315936D01*
X134545018Y-87275852D01*
X134550160Y-87265356D01*
X134571197Y-87227092D01*
X134576179Y-87207684D01*
X134582481Y-87189280D01*
X134590437Y-87170896D01*
X134597269Y-87127752D01*
X134599633Y-87116338D01*
X134610500Y-87074019D01*
X134610500Y-87053982D01*
X134612027Y-87034584D01*
X134615160Y-87014804D01*
X134611050Y-86971324D01*
X134610500Y-86959655D01*
X134610500Y-71437687D01*
X134630185Y-71370648D01*
X134642350Y-71354714D01*
X134717533Y-71271216D01*
X134812179Y-71107284D01*
X134870674Y-70927256D01*
X134890460Y-70739000D01*
X134870674Y-70550744D01*
X134822797Y-70403395D01*
X134812179Y-70370715D01*
X134717533Y-70206783D01*
X134590870Y-70066110D01*
X134437730Y-69954848D01*
X134264802Y-69877855D01*
X134079648Y-69838500D01*
X134079646Y-69838500D01*
X133890354Y-69838500D01*
X133890352Y-69838500D01*
X133705197Y-69877855D01*
X133532269Y-69954848D01*
X133379129Y-70066110D01*
X133252466Y-70206783D01*
X133157820Y-70370715D01*
X133099326Y-70550742D01*
X133079540Y-70739000D01*
X133099326Y-70927257D01*
X133157820Y-71107284D01*
X133252464Y-71271213D01*
X133327650Y-71354714D01*
X133357880Y-71417706D01*
X133359500Y-71437687D01*
X133359500Y-76445500D01*
X133339815Y-76512539D01*
X133287011Y-76558294D01*
X133235500Y-76569500D01*
X133165852Y-76569500D01*
X132980697Y-76608855D01*
X132807769Y-76685848D01*
X132654629Y-76797110D01*
X132527966Y-76937783D01*
X132433320Y-77101715D01*
X132374826Y-77281742D01*
X132355040Y-77470000D01*
X132374826Y-77658257D01*
X132433320Y-77838284D01*
X132527966Y-78002216D01*
X132654629Y-78142889D01*
X132673384Y-78156515D01*
X132716050Y-78211845D01*
X132724499Y-78256833D01*
X132724500Y-86049546D01*
X132704815Y-86116585D01*
X132688181Y-86137227D01*
X127201017Y-91624390D01*
X127139694Y-91657875D01*
X127070002Y-91652891D01*
X127014069Y-91611019D01*
X126989652Y-91545555D01*
X126989808Y-91525902D01*
X126997323Y-91439999D01*
X126978070Y-91219934D01*
X126978070Y-91219932D01*
X126920894Y-91006550D01*
X126827534Y-90806339D01*
X126700826Y-90625380D01*
X126544620Y-90469174D01*
X126363662Y-90342466D01*
X126234811Y-90282382D01*
X126182372Y-90236210D01*
X126163220Y-90169016D01*
X126183436Y-90102135D01*
X126234811Y-90057618D01*
X126255098Y-90048158D01*
X126363662Y-89997534D01*
X126544620Y-89870826D01*
X126700826Y-89714620D01*
X126827534Y-89533662D01*
X126920894Y-89333450D01*
X126978070Y-89120068D01*
X126997323Y-88900000D01*
X126978070Y-88679932D01*
X126920894Y-88466550D01*
X126827534Y-88266339D01*
X126700826Y-88085380D01*
X126544620Y-87929174D01*
X126363662Y-87802466D01*
X126234811Y-87742382D01*
X126182372Y-87696210D01*
X126163220Y-87629016D01*
X126183436Y-87562135D01*
X126234811Y-87517618D01*
X126281589Y-87495805D01*
X126363662Y-87457534D01*
X126544620Y-87330826D01*
X126700826Y-87174620D01*
X126827534Y-86993662D01*
X126920894Y-86793450D01*
X126978070Y-86580068D01*
X126997323Y-86360000D01*
X126978070Y-86139932D01*
X126920894Y-85926550D01*
X126827534Y-85726339D01*
X126700826Y-85545380D01*
X126544620Y-85389174D01*
X126363662Y-85262466D01*
X126234811Y-85202382D01*
X126182372Y-85156210D01*
X126163220Y-85089016D01*
X126183436Y-85022135D01*
X126234811Y-84977618D01*
X126240027Y-84975185D01*
X126363662Y-84917534D01*
X126544620Y-84790826D01*
X126700826Y-84634620D01*
X126827534Y-84453662D01*
X126920894Y-84253450D01*
X126978070Y-84040068D01*
X126997323Y-83820000D01*
X126984274Y-83670849D01*
X126978070Y-83599930D01*
X126966293Y-83555979D01*
X126967954Y-83486129D01*
X126998384Y-83436205D01*
X127200789Y-83233800D01*
X127216885Y-83220906D01*
X127218873Y-83218787D01*
X127218877Y-83218786D01*
X127264949Y-83169723D01*
X127267534Y-83167055D01*
X127287120Y-83147471D01*
X127289585Y-83144292D01*
X127297167Y-83135416D01*
X127327062Y-83103582D01*
X127336717Y-83086018D01*
X127347394Y-83069764D01*
X127359673Y-83053936D01*
X127377018Y-83013852D01*
X127382160Y-83003356D01*
X127403197Y-82965092D01*
X127408179Y-82945684D01*
X127414481Y-82927280D01*
X127422437Y-82908896D01*
X127429269Y-82865752D01*
X127431633Y-82854338D01*
X127442500Y-82812019D01*
X127442500Y-82791982D01*
X127444027Y-82772584D01*
X127447160Y-82752804D01*
X127443050Y-82709324D01*
X127442500Y-82697655D01*
X127442500Y-81139847D01*
X127462185Y-81072808D01*
X127478814Y-81052171D01*
X129034786Y-79496198D01*
X129050886Y-79483301D01*
X129052874Y-79481183D01*
X129052877Y-79481182D01*
X129098964Y-79432103D01*
X129101549Y-79429435D01*
X129121120Y-79409866D01*
X129123565Y-79406712D01*
X129131154Y-79397825D01*
X129161062Y-79365978D01*
X129170713Y-79348422D01*
X129181393Y-79332163D01*
X129193674Y-79316332D01*
X129211018Y-79276247D01*
X129216160Y-79265752D01*
X129219722Y-79259273D01*
X129237197Y-79227488D01*
X129242178Y-79208084D01*
X129248480Y-79189679D01*
X129256438Y-79171291D01*
X129263270Y-79128144D01*
X129265639Y-79116712D01*
X129276499Y-79074417D01*
X129276500Y-79074415D01*
X129276500Y-79054369D01*
X129278024Y-79034998D01*
X129281160Y-79015200D01*
X129277050Y-78971720D01*
X129276500Y-78960051D01*
X129276500Y-64699451D01*
X129296185Y-64632412D01*
X129312819Y-64611770D01*
X130562271Y-63362319D01*
X130623594Y-63328834D01*
X130649952Y-63326000D01*
X132011253Y-63326000D01*
X132078292Y-63345685D01*
X132103400Y-63367026D01*
X132109129Y-63373388D01*
X132262270Y-63484651D01*
X132262271Y-63484651D01*
X132262272Y-63484652D01*
X132435197Y-63561644D01*
X132620352Y-63601000D01*
X132620354Y-63601000D01*
X132809648Y-63601000D01*
X132933083Y-63574762D01*
X132994803Y-63561644D01*
X133167730Y-63484651D01*
X133293745Y-63393096D01*
X133320870Y-63373389D01*
X133326598Y-63367028D01*
X133447533Y-63232716D01*
X133542179Y-63068784D01*
X133600674Y-62888756D01*
X133620460Y-62700500D01*
X133600674Y-62512244D01*
X133542179Y-62332216D01*
X133542179Y-62332215D01*
X133447533Y-62168283D01*
X133320870Y-62027610D01*
X133167730Y-61916348D01*
X132994802Y-61839355D01*
X132809648Y-61800000D01*
X132809646Y-61800000D01*
X132620354Y-61800000D01*
X132620352Y-61800000D01*
X132435197Y-61839355D01*
X132262272Y-61916347D01*
X132196737Y-61963961D01*
X132109129Y-62027612D01*
X132103401Y-62033972D01*
X132043916Y-62070621D01*
X132011253Y-62075000D01*
X131202515Y-62075000D01*
X131135476Y-62055315D01*
X131089721Y-62002511D01*
X131079195Y-61963965D01*
X131060674Y-61787744D01*
X131002179Y-61607716D01*
X131002179Y-61607715D01*
X130907533Y-61443783D01*
X130780870Y-61303110D01*
X130627730Y-61191848D01*
X130454802Y-61114855D01*
X130269648Y-61075500D01*
X130269646Y-61075500D01*
X130080354Y-61075500D01*
X130080352Y-61075500D01*
X129895197Y-61114855D01*
X129722269Y-61191848D01*
X129569129Y-61303110D01*
X129433747Y-61453468D01*
X129431593Y-61451528D01*
X129417582Y-61465685D01*
X129418654Y-61466757D01*
X129393413Y-61491996D01*
X129378624Y-61504626D01*
X129362413Y-61516404D01*
X129334572Y-61550058D01*
X129326711Y-61558697D01*
X127505208Y-63380199D01*
X127489110Y-63393096D01*
X127441096Y-63444225D01*
X127438392Y-63447016D01*
X127421628Y-63463780D01*
X127421621Y-63463787D01*
X127418880Y-63466529D01*
X127416499Y-63469597D01*
X127416490Y-63469608D01*
X127416411Y-63469711D01*
X127408842Y-63478572D01*
X127378935Y-63510420D01*
X127369285Y-63527974D01*
X127358609Y-63544228D01*
X127346326Y-63560063D01*
X127328975Y-63600158D01*
X127323838Y-63610644D01*
X127302802Y-63648907D01*
X127297821Y-63668309D01*
X127291520Y-63686711D01*
X127283561Y-63705102D01*
X127276728Y-63748242D01*
X127274360Y-63759674D01*
X127263500Y-63801977D01*
X127263500Y-63822016D01*
X127261973Y-63841414D01*
X127258839Y-63861196D01*
X127262949Y-63904676D01*
X127263499Y-63916343D01*
X127263500Y-78810546D01*
X127243815Y-78877585D01*
X127227181Y-78898227D01*
X127201017Y-78924391D01*
X127139694Y-78957876D01*
X127070002Y-78952892D01*
X127014069Y-78911020D01*
X126989652Y-78845556D01*
X126989808Y-78825903D01*
X126997323Y-78739999D01*
X126978070Y-78519934D01*
X126978070Y-78519932D01*
X126920894Y-78306550D01*
X126827534Y-78106339D01*
X126700826Y-77925380D01*
X126544620Y-77769174D01*
X126363662Y-77642466D01*
X126234811Y-77582382D01*
X126182372Y-77536210D01*
X126163220Y-77469016D01*
X126183436Y-77402135D01*
X126234811Y-77357618D01*
X126240027Y-77355185D01*
X126363662Y-77297534D01*
X126544620Y-77170826D01*
X126700826Y-77014620D01*
X126827534Y-76833662D01*
X126920894Y-76633450D01*
X126978070Y-76420068D01*
X126997323Y-76200000D01*
X126978070Y-75979932D01*
X126920894Y-75766550D01*
X126827534Y-75566339D01*
X126700826Y-75385380D01*
X126544620Y-75229174D01*
X126363662Y-75102466D01*
X126234811Y-75042382D01*
X126182372Y-74996210D01*
X126163220Y-74929016D01*
X126183436Y-74862135D01*
X126234811Y-74817618D01*
X126240027Y-74815185D01*
X126363662Y-74757534D01*
X126544620Y-74630826D01*
X126700826Y-74474620D01*
X126827534Y-74293662D01*
X126920894Y-74093450D01*
X126978070Y-73880068D01*
X126997323Y-73660000D01*
X126978070Y-73439932D01*
X126920894Y-73226550D01*
X126827534Y-73026339D01*
X126700826Y-72845380D01*
X126544620Y-72689174D01*
X126363662Y-72562466D01*
X126234811Y-72502382D01*
X126182372Y-72456210D01*
X126163220Y-72389016D01*
X126183436Y-72322135D01*
X126234811Y-72277618D01*
X126240027Y-72275185D01*
X126363662Y-72217534D01*
X126544620Y-72090826D01*
X126700826Y-71934620D01*
X126827534Y-71753662D01*
X126920894Y-71553450D01*
X126978070Y-71340068D01*
X126997323Y-71120000D01*
X126978070Y-70899932D01*
X126920894Y-70686550D01*
X126827534Y-70486339D01*
X126700826Y-70305380D01*
X126544620Y-70149174D01*
X126363662Y-70022466D01*
X126363662Y-70022465D01*
X126234218Y-69962105D01*
X126181779Y-69915932D01*
X126162627Y-69848739D01*
X126182843Y-69781858D01*
X126234220Y-69737340D01*
X126363411Y-69677098D01*
X126428187Y-69631740D01*
X125757448Y-68961000D01*
X125761569Y-68961000D01*
X125855421Y-68945339D01*
X125967251Y-68884820D01*
X126053371Y-68791269D01*
X126104448Y-68674823D01*
X126110105Y-68606552D01*
X126781740Y-69278186D01*
X126827100Y-69213408D01*
X126920420Y-69013281D01*
X126977575Y-68799978D01*
X126996821Y-68580000D01*
X126977575Y-68360021D01*
X126920421Y-68146720D01*
X126827098Y-67946589D01*
X126781740Y-67881811D01*
X126114903Y-68548648D01*
X126114949Y-68548102D01*
X126083734Y-68424838D01*
X126014187Y-68318388D01*
X125913843Y-68240287D01*
X125793578Y-68199000D01*
X125757447Y-68199000D01*
X126428187Y-67528258D01*
X126363406Y-67482898D01*
X126163281Y-67389579D01*
X125949978Y-67332424D01*
X125729999Y-67313178D01*
X125510021Y-67332424D01*
X125296719Y-67389578D01*
X125096589Y-67482900D01*
X125031812Y-67528258D01*
X125031811Y-67528258D01*
X125702554Y-68199000D01*
X125698431Y-68199000D01*
X125604579Y-68214661D01*
X125492749Y-68275180D01*
X125406629Y-68368731D01*
X125355552Y-68485177D01*
X125349894Y-68553446D01*
X124678258Y-67881812D01*
X124632900Y-67946589D01*
X124539578Y-68146719D01*
X124482424Y-68360021D01*
X124463178Y-68580000D01*
X124482424Y-68799978D01*
X124539579Y-69013281D01*
X124632898Y-69213406D01*
X124678258Y-69278187D01*
X125345096Y-68611347D01*
X125345051Y-68611898D01*
X125376266Y-68735162D01*
X125445813Y-68841612D01*
X125546157Y-68919713D01*
X125666422Y-68961000D01*
X125702553Y-68961000D01*
X125031812Y-69631740D01*
X125096592Y-69677100D01*
X125225780Y-69737341D01*
X125278220Y-69783513D01*
X125297372Y-69850706D01*
X125277157Y-69917587D01*
X125225782Y-69962105D01*
X125096336Y-70022467D01*
X124915379Y-70149174D01*
X124759174Y-70305379D01*
X124632466Y-70486338D01*
X124539106Y-70686548D01*
X124481929Y-70899934D01*
X124462676Y-71120000D01*
X124481929Y-71340065D01*
X124539106Y-71553451D01*
X124564954Y-71608882D01*
X124632466Y-71753662D01*
X124759174Y-71934620D01*
X124915380Y-72090826D01*
X125096338Y-72217534D01*
X125215748Y-72273215D01*
X125225189Y-72277618D01*
X125277628Y-72323790D01*
X125296780Y-72390984D01*
X125276564Y-72457865D01*
X125225189Y-72502382D01*
X125096338Y-72562466D01*
X124915379Y-72689174D01*
X124759174Y-72845379D01*
X124632466Y-73026338D01*
X124539106Y-73226548D01*
X124481929Y-73439934D01*
X124462676Y-73659999D01*
X124481929Y-73880065D01*
X124539106Y-74093451D01*
X124564954Y-74148882D01*
X124632466Y-74293662D01*
X124759174Y-74474620D01*
X124915380Y-74630826D01*
X125096338Y-74757534D01*
X125215748Y-74813215D01*
X125225189Y-74817618D01*
X125277628Y-74863790D01*
X125296780Y-74930984D01*
X125276564Y-74997865D01*
X125225189Y-75042382D01*
X125096338Y-75102466D01*
X124915379Y-75229174D01*
X124759174Y-75385379D01*
X124632466Y-75566338D01*
X124539106Y-75766548D01*
X124481929Y-75979934D01*
X124462676Y-76199999D01*
X124481929Y-76420064D01*
X124481929Y-76420067D01*
X124481930Y-76420068D01*
X124489366Y-76447821D01*
X124493707Y-76464019D01*
X124492044Y-76533869D01*
X124461613Y-76583794D01*
X124259208Y-76786199D01*
X124243110Y-76799096D01*
X124195096Y-76850225D01*
X124192392Y-76853016D01*
X124175628Y-76869780D01*
X124175621Y-76869787D01*
X124172880Y-76872529D01*
X124170499Y-76875597D01*
X124170490Y-76875608D01*
X124170411Y-76875711D01*
X124162842Y-76884572D01*
X124132935Y-76916420D01*
X124123285Y-76933974D01*
X124112609Y-76950228D01*
X124100326Y-76966063D01*
X124082975Y-77006158D01*
X124077838Y-77016644D01*
X124056802Y-77054907D01*
X124051821Y-77074309D01*
X124045520Y-77092711D01*
X124037561Y-77111102D01*
X124030728Y-77154242D01*
X124028360Y-77165674D01*
X124017500Y-77207977D01*
X124017500Y-77228016D01*
X124015973Y-77247414D01*
X124012839Y-77267196D01*
X124016949Y-77310676D01*
X124017499Y-77322343D01*
X124017499Y-83326546D01*
X123997814Y-83393585D01*
X123981180Y-83414227D01*
X122361681Y-85033727D01*
X122300358Y-85067212D01*
X122230666Y-85062228D01*
X122174733Y-85020356D01*
X122150316Y-84954892D01*
X122150000Y-84946046D01*
X122150000Y-84045481D01*
X122149645Y-84038867D01*
X122143599Y-83982628D01*
X122093352Y-83847910D01*
X122007188Y-83732811D01*
X121892089Y-83646647D01*
X121757371Y-83596400D01*
X121701132Y-83590354D01*
X121694518Y-83590000D01*
X120900000Y-83590000D01*
X120900000Y-84654498D01*
X120792315Y-84605320D01*
X120685763Y-84590000D01*
X120614237Y-84590000D01*
X120507685Y-84605320D01*
X120399999Y-84654498D01*
X120400000Y-83590000D01*
X119605482Y-83590000D01*
X119598867Y-83590354D01*
X119542628Y-83596400D01*
X119407910Y-83646647D01*
X119292811Y-83732811D01*
X119206647Y-83847910D01*
X119156400Y-83982628D01*
X119150354Y-84038867D01*
X119150000Y-84045481D01*
X119150000Y-84840000D01*
X120216314Y-84840000D01*
X120190507Y-84880156D01*
X120150000Y-85018111D01*
X120150000Y-85161889D01*
X120190507Y-85299844D01*
X120216314Y-85340000D01*
X119150000Y-85340000D01*
X119150000Y-86134518D01*
X119150354Y-86141132D01*
X119156400Y-86197371D01*
X119206647Y-86332089D01*
X119292811Y-86447188D01*
X119422184Y-86544037D01*
X119420085Y-86546840D01*
X119452200Y-86570882D01*
X119476616Y-86636347D01*
X119461763Y-86704620D01*
X119456741Y-86713012D01*
X119325826Y-86913392D01*
X119244312Y-87099229D01*
X119225937Y-87141119D01*
X119173540Y-87348029D01*
X119164891Y-87382183D01*
X119144356Y-87629999D01*
X119164891Y-87877816D01*
X119164891Y-87877819D01*
X119164892Y-87877821D01*
X119225937Y-88118881D01*
X119270960Y-88221523D01*
X119325825Y-88346604D01*
X119325827Y-88346607D01*
X119461836Y-88554785D01*
X119565972Y-88667907D01*
X119630256Y-88737738D01*
X119713008Y-88802147D01*
X119753821Y-88858858D01*
X119757494Y-88928631D01*
X119722863Y-88989314D01*
X119713008Y-88997853D01*
X119630256Y-89062261D01*
X119461837Y-89245214D01*
X119325825Y-89453395D01*
X119318406Y-89470310D01*
X119273450Y-89523796D01*
X119206714Y-89544486D01*
X119204850Y-89544500D01*
X117912452Y-89544500D01*
X117845413Y-89524815D01*
X117824771Y-89508181D01*
X117768846Y-89452256D01*
X117628816Y-89312226D01*
X117595333Y-89250905D01*
X117592500Y-89224556D01*
X117592500Y-84384450D01*
X117612185Y-84317412D01*
X117628814Y-84296775D01*
X120715388Y-81210200D01*
X120776709Y-81176717D01*
X120846401Y-81181701D01*
X120853473Y-81184591D01*
X120991475Y-81246034D01*
X121005199Y-81252145D01*
X121190352Y-81291500D01*
X121190354Y-81291500D01*
X121379648Y-81291500D01*
X121503084Y-81265262D01*
X121564803Y-81252144D01*
X121737730Y-81175151D01*
X121878594Y-81072808D01*
X121890870Y-81063889D01*
X121901426Y-81052166D01*
X122017533Y-80923216D01*
X122112179Y-80759284D01*
X122170674Y-80579256D01*
X122190460Y-80391000D01*
X122170674Y-80202744D01*
X122112179Y-80022716D01*
X122112179Y-80022715D01*
X122017533Y-79858783D01*
X121890870Y-79718110D01*
X121737730Y-79606848D01*
X121601871Y-79546359D01*
X121548634Y-79501109D01*
X121528313Y-79434260D01*
X121534887Y-79393225D01*
X121558481Y-79323722D01*
X121616034Y-79034380D01*
X121635329Y-78740000D01*
X121616034Y-78445620D01*
X121558481Y-78156278D01*
X121463652Y-77876923D01*
X121333172Y-77612336D01*
X121319792Y-77592312D01*
X121178390Y-77380687D01*
X121169273Y-77367043D01*
X120974758Y-77145242D01*
X120752957Y-76950727D01*
X120749570Y-76948464D01*
X120539260Y-76807939D01*
X120494455Y-76754327D01*
X120485748Y-76685002D01*
X120515902Y-76621974D01*
X120575345Y-76585255D01*
X120607722Y-76580838D01*
X121163171Y-76578923D01*
X121269734Y-76567187D01*
X121320817Y-76555982D01*
X121422504Y-76522040D01*
X121543543Y-76444252D01*
X121596347Y-76398497D01*
X121690567Y-76289763D01*
X121750338Y-76158886D01*
X121770023Y-76091847D01*
X121770024Y-76091843D01*
X121790500Y-75949427D01*
X121790500Y-74049500D01*
X121810185Y-73982461D01*
X121862989Y-73936706D01*
X121914500Y-73925500D01*
X122014648Y-73925500D01*
X122138083Y-73899262D01*
X122199803Y-73886144D01*
X122372730Y-73809151D01*
X122525871Y-73697888D01*
X122652533Y-73557216D01*
X122747179Y-73393284D01*
X122805674Y-73213256D01*
X122825460Y-73025000D01*
X122805674Y-72836744D01*
X122760178Y-72696722D01*
X122747179Y-72656715D01*
X122652533Y-72492783D01*
X122577349Y-72409283D01*
X122547119Y-72346292D01*
X122545499Y-72326311D01*
X122545499Y-58890451D01*
X122565184Y-58823412D01*
X122581818Y-58802770D01*
X124214974Y-57169614D01*
X125883786Y-55500802D01*
X125899886Y-55487905D01*
X125901874Y-55485787D01*
X125901877Y-55485786D01*
X125947964Y-55436707D01*
X125950549Y-55434039D01*
X125970120Y-55414470D01*
X125972565Y-55411316D01*
X125980154Y-55402429D01*
X126010062Y-55370582D01*
X126019713Y-55353026D01*
X126030393Y-55336767D01*
X126042674Y-55320936D01*
X126060018Y-55280851D01*
X126065160Y-55270356D01*
X126079112Y-55244978D01*
X126086197Y-55232092D01*
X126091178Y-55212688D01*
X126097480Y-55194283D01*
X126105438Y-55175895D01*
X126112270Y-55132748D01*
X126114639Y-55121316D01*
X126125500Y-55079020D01*
X126125500Y-55058983D01*
X126127027Y-55039584D01*
X126130160Y-55019804D01*
X126126050Y-54976324D01*
X126125500Y-54964655D01*
X126125500Y-54698687D01*
X126145185Y-54631648D01*
X126157350Y-54615714D01*
X126161681Y-54610904D01*
X126232533Y-54532216D01*
X126278867Y-54451964D01*
X126327179Y-54368284D01*
X126332285Y-54352569D01*
X126385674Y-54188256D01*
X126405460Y-54000000D01*
X126385674Y-53811744D01*
X126327179Y-53631716D01*
X126327179Y-53631715D01*
X126232533Y-53467783D01*
X126105870Y-53327110D01*
X125952730Y-53215848D01*
X125779802Y-53138855D01*
X125594648Y-53099500D01*
X125594646Y-53099500D01*
X125405354Y-53099500D01*
X125405352Y-53099500D01*
X125220197Y-53138855D01*
X125047269Y-53215848D01*
X124894129Y-53327110D01*
X124767466Y-53467783D01*
X124672820Y-53631715D01*
X124614326Y-53811742D01*
X124594540Y-53999999D01*
X124614326Y-54188257D01*
X124672820Y-54368284D01*
X124767464Y-54532213D01*
X124767467Y-54532216D01*
X124833990Y-54606097D01*
X124838319Y-54610904D01*
X124868549Y-54673896D01*
X124859924Y-54743231D01*
X124833850Y-54781558D01*
X122002181Y-57613227D01*
X121940858Y-57646712D01*
X121871166Y-57641728D01*
X121815233Y-57599856D01*
X121790816Y-57534392D01*
X121790500Y-57525546D01*
X121790500Y-49530000D01*
X177034652Y-49530000D01*
X177034834Y-49533356D01*
X177053845Y-49884007D01*
X177053846Y-49884018D01*
X177054028Y-49887371D01*
X177054572Y-49890692D01*
X177054573Y-49890697D01*
X177111384Y-50237233D01*
X177111387Y-50237248D01*
X177111929Y-50240552D01*
X177207676Y-50585403D01*
X177340147Y-50917880D01*
X177507789Y-51234085D01*
X177708635Y-51530311D01*
X177940332Y-51803086D01*
X177942763Y-51805389D01*
X177942769Y-51805395D01*
X178121622Y-51974813D01*
X178200163Y-52049211D01*
X178485081Y-52265800D01*
X178791747Y-52450315D01*
X179116565Y-52600591D01*
X179455726Y-52714868D01*
X179805254Y-52791805D01*
X180161052Y-52830500D01*
X180164410Y-52830500D01*
X180515590Y-52830500D01*
X180518948Y-52830500D01*
X180874746Y-52791805D01*
X181224274Y-52714868D01*
X181563435Y-52600591D01*
X181888253Y-52450315D01*
X182194919Y-52265800D01*
X182479837Y-52049211D01*
X182739668Y-51803086D01*
X182971365Y-51530311D01*
X183172211Y-51234085D01*
X183339853Y-50917880D01*
X183472324Y-50585403D01*
X183568071Y-50240552D01*
X183625972Y-49887371D01*
X183645348Y-49530000D01*
X183625972Y-49172629D01*
X183568071Y-48819448D01*
X183472324Y-48474597D01*
X183339853Y-48142120D01*
X183172211Y-47825915D01*
X182971365Y-47529689D01*
X182739668Y-47256914D01*
X182737235Y-47254609D01*
X182737230Y-47254604D01*
X182482267Y-47013091D01*
X182479837Y-47010789D01*
X182194919Y-46794200D01*
X182192045Y-46792471D01*
X182192041Y-46792468D01*
X181891135Y-46611419D01*
X181891134Y-46611418D01*
X181888253Y-46609685D01*
X181885197Y-46608271D01*
X181566490Y-46460822D01*
X181566483Y-46460819D01*
X181563435Y-46459409D01*
X181475005Y-46429613D01*
X181227457Y-46346204D01*
X181227448Y-46346201D01*
X181224274Y-46345132D01*
X181221006Y-46344412D01*
X181220993Y-46344409D01*
X180878033Y-46268918D01*
X180878023Y-46268916D01*
X180874746Y-46268195D01*
X180518948Y-46229500D01*
X180161052Y-46229500D01*
X180157715Y-46229862D01*
X180157713Y-46229863D01*
X179808600Y-46267831D01*
X179808598Y-46267831D01*
X179805254Y-46268195D01*
X179801979Y-46268915D01*
X179801966Y-46268918D01*
X179459006Y-46344409D01*
X179458988Y-46344413D01*
X179455726Y-46345132D01*
X179452555Y-46346200D01*
X179452542Y-46346204D01*
X179119752Y-46458335D01*
X179119749Y-46458336D01*
X179116565Y-46459409D01*
X179113522Y-46460816D01*
X179113509Y-46460822D01*
X178794802Y-46608271D01*
X178794792Y-46608275D01*
X178791747Y-46609685D01*
X178788873Y-46611414D01*
X178788864Y-46611419D01*
X178487958Y-46792468D01*
X178487945Y-46792476D01*
X178485081Y-46794200D01*
X178482423Y-46796220D01*
X178482412Y-46796228D01*
X178202822Y-47008767D01*
X178202814Y-47008773D01*
X178200163Y-47010789D01*
X178197739Y-47013084D01*
X178197732Y-47013091D01*
X177942769Y-47254604D01*
X177942754Y-47254619D01*
X177940332Y-47256914D01*
X177938169Y-47259459D01*
X177938158Y-47259472D01*
X177710808Y-47527130D01*
X177710802Y-47527137D01*
X177708635Y-47529689D01*
X177706755Y-47532461D01*
X177706748Y-47532471D01*
X177509679Y-47823126D01*
X177509671Y-47823138D01*
X177507789Y-47825915D01*
X177506214Y-47828885D01*
X177506212Y-47828889D01*
X177341722Y-48139148D01*
X177341717Y-48139157D01*
X177340147Y-48142120D01*
X177338906Y-48145232D01*
X177338902Y-48145243D01*
X177208924Y-48471464D01*
X177207676Y-48474597D01*
X177111929Y-48819448D01*
X177111388Y-48822747D01*
X177111384Y-48822766D01*
X177054573Y-49169302D01*
X177054028Y-49172629D01*
X177053846Y-49175979D01*
X177053845Y-49175992D01*
X177034834Y-49526643D01*
X177034652Y-49530000D01*
X121790500Y-49530000D01*
X121790500Y-45844500D01*
X121810185Y-45777461D01*
X121862989Y-45731706D01*
X121914500Y-45720500D01*
X184025500Y-45720500D01*
X184092539Y-45740185D01*
G37*
G04 #@! TD.AperFunction*
M02*
