G04 #@! TF.GenerationSoftware,KiCad,Pcbnew,7.0.5*
G04 #@! TF.CreationDate,2023-07-22T19:45:32-06:00*
G04 #@! TF.ProjectId,Project-Supernova-PCB,50726f6a-6563-4742-9d53-757065726e6f,rev?*
G04 #@! TF.SameCoordinates,Original*
G04 #@! TF.FileFunction,Copper,L2,Bot*
G04 #@! TF.FilePolarity,Positive*
%FSLAX46Y46*%
G04 Gerber Fmt 4.6, Leading zero omitted, Abs format (unit mm)*
G04 Created by KiCad (PCBNEW 7.0.5) date 2023-07-22 19:45:32*
%MOMM*%
%LPD*%
G01*
G04 APERTURE LIST*
G04 #@! TA.AperFunction,WasherPad*
%ADD10C,3.500000*%
G04 #@! TD*
G04 #@! TA.AperFunction,ComponentPad*
%ADD11R,1.900000X1.900000*%
G04 #@! TD*
G04 #@! TA.AperFunction,ComponentPad*
%ADD12C,2.000000*%
G04 #@! TD*
G04 #@! TA.AperFunction,ComponentPad*
%ADD13R,1.700000X1.700000*%
G04 #@! TD*
G04 #@! TA.AperFunction,ComponentPad*
%ADD14O,1.700000X1.700000*%
G04 #@! TD*
G04 #@! TA.AperFunction,ComponentPad*
%ADD15O,3.500000X2.200000*%
G04 #@! TD*
G04 #@! TA.AperFunction,ComponentPad*
%ADD16R,2.500000X1.500000*%
G04 #@! TD*
G04 #@! TA.AperFunction,ComponentPad*
%ADD17O,2.500000X1.500000*%
G04 #@! TD*
G04 #@! TA.AperFunction,ComponentPad*
%ADD18R,3.000000X3.000000*%
G04 #@! TD*
G04 #@! TA.AperFunction,ComponentPad*
%ADD19C,3.000000*%
G04 #@! TD*
G04 #@! TA.AperFunction,ComponentPad*
%ADD20C,5.600000*%
G04 #@! TD*
G04 #@! TA.AperFunction,ComponentPad*
%ADD21C,1.524000*%
G04 #@! TD*
G04 #@! TA.AperFunction,ComponentPad*
%ADD22C,2.050000*%
G04 #@! TD*
G04 #@! TA.AperFunction,ComponentPad*
%ADD23C,2.250000*%
G04 #@! TD*
G04 #@! TA.AperFunction,ComponentPad*
%ADD24R,2.000000X2.000000*%
G04 #@! TD*
G04 #@! TA.AperFunction,ViaPad*
%ADD25C,0.800000*%
G04 #@! TD*
G04 #@! TA.AperFunction,Conductor*
%ADD26C,0.250000*%
G04 #@! TD*
G04 #@! TA.AperFunction,Conductor*
%ADD27C,0.800000*%
G04 #@! TD*
G04 APERTURE END LIST*
D10*
X166380000Y-67310000D03*
X166380000Y-77470000D03*
D11*
X158750000Y-66040000D03*
D12*
X158750000Y-68580000D03*
X158750000Y-71120000D03*
X158750000Y-73660000D03*
X158750000Y-76200000D03*
X158750000Y-78740000D03*
D13*
X173472500Y-91900000D03*
D14*
X173472500Y-94440000D03*
D15*
X122555000Y-128655000D03*
X122555000Y-120455000D03*
D16*
X122555000Y-126555000D03*
D17*
X122555000Y-124555000D03*
X122555000Y-122555000D03*
D13*
X143256000Y-55372000D03*
D14*
X145796000Y-55372000D03*
X148336000Y-55372000D03*
X150876000Y-55372000D03*
D13*
X173472500Y-100790000D03*
D14*
X173472500Y-103330000D03*
D18*
X149860000Y-127000000D03*
D19*
X154940000Y-127000000D03*
D20*
X88900000Y-129540000D03*
X180340000Y-129540000D03*
D13*
X166751000Y-55626000D03*
D14*
X164211000Y-55626000D03*
X161671000Y-55626000D03*
X159131000Y-55626000D03*
D15*
X130175000Y-128655000D03*
X130175000Y-120455000D03*
D16*
X130175000Y-126555000D03*
D17*
X130175000Y-124555000D03*
X130175000Y-122555000D03*
D21*
X125730000Y-68580000D03*
X125730000Y-71120000D03*
X125730000Y-73660000D03*
X125730000Y-76200000D03*
X125730000Y-78740000D03*
X125730000Y-81280000D03*
X125730000Y-83820000D03*
X125730000Y-86360000D03*
X125730000Y-88900000D03*
X125730000Y-91440000D03*
X125730000Y-93980000D03*
X125730000Y-96520000D03*
X125730000Y-99060000D03*
X125730000Y-101600000D03*
X125730000Y-104140000D03*
X151130000Y-104140000D03*
X151130000Y-101600000D03*
X151130000Y-99060000D03*
X151130000Y-96520000D03*
X151130000Y-93980000D03*
X151130000Y-91440000D03*
X151130000Y-88900000D03*
X151130000Y-86360000D03*
X151130000Y-83820000D03*
X151130000Y-81280000D03*
X151130000Y-78740000D03*
X151130000Y-76200000D03*
X151130000Y-73660000D03*
X151130000Y-71120000D03*
X151130000Y-68580000D03*
D22*
X89916000Y-63500000D03*
D23*
X87376000Y-60960000D03*
X87376000Y-66040000D03*
X92456000Y-60960000D03*
X92456000Y-66040000D03*
D10*
X119380000Y-78740000D03*
X88900000Y-78740000D03*
X119380000Y-99060000D03*
X88900000Y-99060000D03*
D24*
X120650000Y-85090000D03*
D12*
X120650000Y-87630000D03*
X120650000Y-90170000D03*
X120650000Y-92710000D03*
D20*
X180340000Y-49530000D03*
D13*
X87630000Y-109220000D03*
D14*
X87630000Y-111760000D03*
X87630000Y-114300000D03*
X87630000Y-116840000D03*
D18*
X108585000Y-127000000D03*
D19*
X113665000Y-127000000D03*
D13*
X97790000Y-118110000D03*
D14*
X100330000Y-118110000D03*
D18*
X96520000Y-127000000D03*
D19*
X101600000Y-127000000D03*
D13*
X179070000Y-57150000D03*
D14*
X179070000Y-59690000D03*
X179070000Y-62230000D03*
X179070000Y-64770000D03*
D13*
X179070000Y-72400000D03*
D14*
X179070000Y-74940000D03*
X179070000Y-77480000D03*
X179070000Y-80020000D03*
D13*
X110490000Y-118110000D03*
D14*
X113030000Y-118110000D03*
D18*
X138430000Y-127000000D03*
D19*
X143510000Y-127000000D03*
D20*
X88900000Y-49530000D03*
D13*
X173990000Y-57150000D03*
D14*
X173990000Y-59690000D03*
X173990000Y-62230000D03*
X173990000Y-64770000D03*
D25*
X120800000Y-115200000D03*
X164465000Y-62230000D03*
X133096000Y-117602000D03*
X178435000Y-108966000D03*
X180975000Y-108966000D03*
X163400000Y-99200000D03*
X158750000Y-62230000D03*
X179680000Y-108931000D03*
X102235000Y-55880000D03*
X90170000Y-56642000D03*
X87630000Y-70485000D03*
X100965000Y-54610000D03*
X88900000Y-70485000D03*
X95250000Y-69850000D03*
X92710000Y-55880000D03*
X86360000Y-70485000D03*
X94615000Y-53975000D03*
X95885000Y-53975000D03*
X90170000Y-70485000D03*
X91440000Y-56642000D03*
X103505000Y-57150000D03*
X98425000Y-53975000D03*
X87630000Y-56642000D03*
X93345000Y-54610000D03*
X103505000Y-58420000D03*
X97790000Y-68580000D03*
X99695000Y-53975000D03*
X99060000Y-67945000D03*
X92710000Y-70485000D03*
X86360000Y-56642000D03*
X88900000Y-56642000D03*
X96520000Y-69215000D03*
X93980000Y-70485000D03*
X97155000Y-53975000D03*
X91440000Y-70485000D03*
X167347500Y-100330000D03*
X163068000Y-92747500D03*
X132583701Y-52074299D03*
X132080000Y-50546000D03*
X122375500Y-111760000D03*
X141149000Y-111200000D03*
X156972000Y-92799500D03*
X157226000Y-88646000D03*
X123952000Y-110490000D03*
X133260500Y-77470000D03*
X161925000Y-62230000D03*
X155724500Y-98000000D03*
X162649500Y-67310000D03*
X133985000Y-70739000D03*
X167640000Y-62230000D03*
X155348807Y-98926208D03*
X115570000Y-109220000D03*
X125500000Y-54000000D03*
X121920000Y-73025000D03*
X135852500Y-80772000D03*
X142748000Y-91948000D03*
X148246500Y-93472000D03*
X136144000Y-85852000D03*
D26*
X163068000Y-96050500D02*
X167347500Y-100330000D01*
X163068000Y-92747500D02*
X163068000Y-96050500D01*
X131572000Y-53086000D02*
X131572000Y-60960000D01*
X128339000Y-64193000D02*
X128339000Y-79307396D01*
X126817000Y-80829396D02*
X126817000Y-82733000D01*
X128339000Y-79307396D02*
X126817000Y-80829396D01*
X132583701Y-52074299D02*
X131572000Y-53086000D01*
X131572000Y-60960000D02*
X128339000Y-64193000D01*
X126817000Y-82733000D02*
X125730000Y-83820000D01*
X131064000Y-60706000D02*
X127889000Y-63881000D01*
X131064000Y-51562000D02*
X131064000Y-60706000D01*
X132080000Y-50546000D02*
X131064000Y-51562000D01*
X127889000Y-63881000D02*
X127889000Y-79121000D01*
X127889000Y-79121000D02*
X125730000Y-81280000D01*
D27*
X153035000Y-125095000D02*
X153035000Y-70485000D01*
X153035000Y-70485000D02*
X151130000Y-68580000D01*
X154940000Y-127000000D02*
X153035000Y-125095000D01*
D26*
X122375500Y-111760000D02*
X138840000Y-111760000D01*
X139400000Y-111200000D02*
X141149000Y-111200000D01*
X141149000Y-111200000D02*
X148971000Y-103378000D01*
X148971000Y-103378000D02*
X148971000Y-80899000D01*
X148971000Y-80899000D02*
X151130000Y-78740000D01*
X138840000Y-111760000D02*
X139400000Y-111200000D01*
X156972000Y-92799500D02*
X156972000Y-88900000D01*
X156972000Y-88900000D02*
X157226000Y-88646000D01*
X123825000Y-90805000D02*
X125730000Y-88900000D01*
X123825000Y-110363000D02*
X123825000Y-90805000D01*
X123952000Y-110490000D02*
X123825000Y-110363000D01*
D27*
X101600000Y-127000000D02*
X101600000Y-124878680D01*
X100330000Y-123608680D02*
X100330000Y-118110000D01*
X101600000Y-124878680D02*
X100330000Y-123608680D01*
D26*
X133260500Y-77470000D02*
X133350000Y-77559500D01*
X161925000Y-62230000D02*
X161925000Y-70485000D01*
X161925000Y-70485000D02*
X158750000Y-73660000D01*
X155724500Y-76685500D02*
X158750000Y-73660000D01*
X155724500Y-98000000D02*
X155724500Y-76685500D01*
X133350000Y-86360000D02*
X125730000Y-93980000D01*
X133350000Y-77559500D02*
X133350000Y-86360000D01*
X155348807Y-98926208D02*
X155000000Y-98577401D01*
X127635000Y-93345000D02*
X127635000Y-99695000D01*
X155000000Y-98577401D02*
X155000000Y-74870000D01*
X127635000Y-99695000D02*
X125730000Y-101600000D01*
X133985000Y-70739000D02*
X133985000Y-86995000D01*
X162649500Y-67220500D02*
X167640000Y-62230000D01*
X162649500Y-67310000D02*
X162649500Y-67220500D01*
X155000000Y-74870000D02*
X158750000Y-71120000D01*
X133985000Y-86995000D02*
X127635000Y-93345000D01*
X123190000Y-92075000D02*
X123190000Y-88900000D01*
X115570000Y-109220000D02*
X115570000Y-99695000D01*
X115570000Y-99695000D02*
X123190000Y-92075000D01*
X123190000Y-88900000D02*
X125730000Y-86360000D01*
X121920000Y-58580000D02*
X125500000Y-55000000D01*
X121920000Y-73025000D02*
X121920000Y-58580000D01*
X125500000Y-55000000D02*
X125500000Y-54000000D01*
X143256000Y-55372000D02*
X143256000Y-59436000D01*
X143256000Y-59436000D02*
X132588000Y-70104000D01*
X132535500Y-75236500D02*
X132535500Y-85950000D01*
X132588000Y-70104000D02*
X132588000Y-75184000D01*
X132535500Y-85950000D02*
X127045500Y-91440000D01*
X127045500Y-91440000D02*
X125730000Y-91440000D01*
X132588000Y-75184000D02*
X132535500Y-75236500D01*
X135128000Y-86937000D02*
X128085000Y-93980000D01*
X144272000Y-59944000D02*
X135128000Y-69088000D01*
X128085000Y-101785000D02*
X125730000Y-104140000D01*
X128085000Y-93980000D02*
X128085000Y-101785000D01*
X145796000Y-55372000D02*
X144272000Y-56896000D01*
X135128000Y-69088000D02*
X135128000Y-86937000D01*
X144272000Y-56896000D02*
X144272000Y-59944000D01*
X136144000Y-69088000D02*
X145288000Y-59944000D01*
X136144000Y-74168000D02*
X136144000Y-69088000D01*
X145288000Y-59944000D02*
X145288000Y-58420000D01*
X145288000Y-58420000D02*
X148336000Y-55372000D01*
X135852500Y-74459500D02*
X136144000Y-74168000D01*
X135852500Y-80772000D02*
X135852500Y-74459500D01*
X136144000Y-82296000D02*
X136144000Y-85852000D01*
X137160000Y-81280000D02*
X136144000Y-82296000D01*
X137160000Y-69088000D02*
X137160000Y-81280000D01*
X150876000Y-55372000D02*
X137160000Y-69088000D01*
X146722500Y-91948000D02*
X148246500Y-93472000D01*
X142748000Y-91948000D02*
X146722500Y-91948000D01*
G04 #@! TA.AperFunction,Conductor*
G36*
X121228039Y-45740185D02*
G01*
X121273794Y-45792989D01*
X121285000Y-45844500D01*
X121285000Y-72336861D01*
X121265315Y-72403900D01*
X121253151Y-72419832D01*
X121187468Y-72492782D01*
X121187464Y-72492787D01*
X121092821Y-72656715D01*
X121092818Y-72656722D01*
X121034327Y-72836740D01*
X121034326Y-72836744D01*
X121014540Y-73025000D01*
X121034326Y-73213256D01*
X121034327Y-73213259D01*
X121092818Y-73393277D01*
X121092821Y-73393284D01*
X121187467Y-73557216D01*
X121253150Y-73630164D01*
X121283380Y-73693155D01*
X121285000Y-73713136D01*
X121285000Y-75949427D01*
X121265315Y-76016466D01*
X121212511Y-76062221D01*
X121161428Y-76073426D01*
X85214928Y-76197378D01*
X85147821Y-76177925D01*
X85101884Y-76125279D01*
X85090500Y-76073379D01*
X85090500Y-66040000D01*
X85745975Y-66040000D01*
X85766042Y-66294989D01*
X85825752Y-66543702D01*
X85923634Y-66780012D01*
X85923636Y-66780015D01*
X86057275Y-66998095D01*
X86057286Y-66998110D01*
X86060533Y-67001911D01*
X86060535Y-67001911D01*
X86624766Y-66437679D01*
X86668316Y-66519822D01*
X86788009Y-66660735D01*
X86935195Y-66772623D01*
X86977402Y-66792150D01*
X86414087Y-67355464D01*
X86414087Y-67355465D01*
X86417888Y-67358712D01*
X86417898Y-67358719D01*
X86635984Y-67492363D01*
X86635987Y-67492365D01*
X86872297Y-67590247D01*
X87121011Y-67649957D01*
X87121010Y-67649957D01*
X87375999Y-67670024D01*
X87630989Y-67649957D01*
X87879702Y-67590247D01*
X88116012Y-67492365D01*
X88116015Y-67492363D01*
X88334103Y-67358719D01*
X88337912Y-67355464D01*
X87774609Y-66792161D01*
X87893431Y-66720669D01*
X88027658Y-66593523D01*
X88130861Y-66441308D01*
X88691464Y-67001912D01*
X88694719Y-66998103D01*
X88828363Y-66780015D01*
X88828365Y-66780012D01*
X88926247Y-66543702D01*
X88985957Y-66294989D01*
X89006024Y-66040000D01*
X88985957Y-65785010D01*
X88926247Y-65536299D01*
X88913378Y-65505230D01*
X88905909Y-65435761D01*
X88937184Y-65373281D01*
X88997273Y-65337629D01*
X89067098Y-65340123D01*
X89077334Y-65344040D01*
X89236116Y-65413009D01*
X89502937Y-65487769D01*
X89744279Y-65520940D01*
X89777451Y-65525500D01*
X89777452Y-65525500D01*
X90054549Y-65525500D01*
X90084144Y-65521432D01*
X90329063Y-65487769D01*
X90595884Y-65413009D01*
X90754660Y-65344042D01*
X90823989Y-65335389D01*
X90886994Y-65365592D01*
X90923667Y-65425064D01*
X90922366Y-65494921D01*
X90918622Y-65505227D01*
X90905752Y-65536297D01*
X90846042Y-65785010D01*
X90825975Y-66040000D01*
X90846042Y-66294989D01*
X90905752Y-66543702D01*
X91003634Y-66780012D01*
X91003636Y-66780015D01*
X91137275Y-66998095D01*
X91137286Y-66998110D01*
X91140533Y-67001911D01*
X91140535Y-67001911D01*
X91704766Y-66437679D01*
X91748316Y-66519822D01*
X91868009Y-66660735D01*
X92015195Y-66772623D01*
X92057402Y-66792150D01*
X91494087Y-67355464D01*
X91494087Y-67355465D01*
X91497888Y-67358712D01*
X91497898Y-67358719D01*
X91715984Y-67492363D01*
X91715987Y-67492365D01*
X91952297Y-67590247D01*
X92201011Y-67649957D01*
X92201010Y-67649957D01*
X92455999Y-67670024D01*
X92710989Y-67649957D01*
X92959702Y-67590247D01*
X93196012Y-67492365D01*
X93196015Y-67492363D01*
X93414103Y-67358719D01*
X93417912Y-67355464D01*
X92854609Y-66792161D01*
X92973431Y-66720669D01*
X93107658Y-66593523D01*
X93210861Y-66441309D01*
X93771464Y-67001912D01*
X93774719Y-66998103D01*
X93908363Y-66780015D01*
X93908365Y-66780012D01*
X94006247Y-66543702D01*
X94065957Y-66294989D01*
X94086024Y-66040000D01*
X94065957Y-65785010D01*
X94006247Y-65536297D01*
X93908365Y-65299987D01*
X93908363Y-65299984D01*
X93774719Y-65081898D01*
X93774712Y-65081888D01*
X93771465Y-65078087D01*
X93771464Y-65078087D01*
X93207232Y-65642319D01*
X93163684Y-65560178D01*
X93043991Y-65419265D01*
X92896805Y-65307377D01*
X92854596Y-65287849D01*
X93417911Y-64724535D01*
X93417911Y-64724533D01*
X93414110Y-64721286D01*
X93414095Y-64721275D01*
X93196015Y-64587636D01*
X93196012Y-64587634D01*
X92959702Y-64489752D01*
X92710988Y-64430042D01*
X92710989Y-64430042D01*
X92456000Y-64409975D01*
X92201010Y-64430042D01*
X91952297Y-64489752D01*
X91925032Y-64501046D01*
X91855563Y-64508513D01*
X91793084Y-64477237D01*
X91757433Y-64417147D01*
X91759928Y-64347322D01*
X91767486Y-64329433D01*
X91778153Y-64308847D01*
X91778153Y-64308846D01*
X91870946Y-64047750D01*
X91927323Y-63776450D01*
X91946233Y-63500000D01*
X91927323Y-63223550D01*
X91870946Y-62952250D01*
X91778153Y-62691153D01*
X91778153Y-62691152D01*
X91778152Y-62691150D01*
X91767485Y-62670564D01*
X91754119Y-62601985D01*
X91779952Y-62537066D01*
X91836782Y-62496420D01*
X91906565Y-62492950D01*
X91925035Y-62498954D01*
X91952300Y-62510247D01*
X92201011Y-62569957D01*
X92201010Y-62569957D01*
X92456000Y-62590024D01*
X92710989Y-62569957D01*
X92959702Y-62510247D01*
X93196012Y-62412365D01*
X93196015Y-62412363D01*
X93414103Y-62278719D01*
X93417912Y-62275464D01*
X92854609Y-61712161D01*
X92973431Y-61640669D01*
X93107658Y-61513523D01*
X93210861Y-61361309D01*
X93771464Y-61921912D01*
X93774719Y-61918103D01*
X93908363Y-61700015D01*
X93908365Y-61700012D01*
X94006247Y-61463702D01*
X94065957Y-61214989D01*
X94086024Y-60960000D01*
X94065957Y-60705010D01*
X94006247Y-60456297D01*
X93908365Y-60219987D01*
X93908363Y-60219984D01*
X93774719Y-60001898D01*
X93774712Y-60001888D01*
X93771465Y-59998087D01*
X93771464Y-59998087D01*
X93207232Y-60562319D01*
X93163684Y-60480178D01*
X93043991Y-60339265D01*
X92896805Y-60227377D01*
X92854597Y-60207849D01*
X93417911Y-59644535D01*
X93417911Y-59644533D01*
X93414110Y-59641286D01*
X93414095Y-59641275D01*
X93196015Y-59507636D01*
X93196012Y-59507634D01*
X92959702Y-59409752D01*
X92710988Y-59350042D01*
X92710989Y-59350042D01*
X92455999Y-59329975D01*
X92201010Y-59350042D01*
X91952297Y-59409752D01*
X91715987Y-59507634D01*
X91715984Y-59507636D01*
X91497897Y-59641280D01*
X91494087Y-59644534D01*
X92057390Y-60207837D01*
X91938569Y-60279331D01*
X91804342Y-60406477D01*
X91701138Y-60558691D01*
X91140534Y-59998087D01*
X91137280Y-60001897D01*
X91003636Y-60219984D01*
X91003634Y-60219987D01*
X90905752Y-60456297D01*
X90846042Y-60705010D01*
X90825975Y-60960000D01*
X90846042Y-61214989D01*
X90905752Y-61463699D01*
X90918622Y-61494771D01*
X90926090Y-61564240D01*
X90894814Y-61626719D01*
X90834725Y-61662371D01*
X90764899Y-61659876D01*
X90754658Y-61655956D01*
X90595885Y-61586991D01*
X90329068Y-61512232D01*
X90329064Y-61512231D01*
X90329063Y-61512231D01*
X90191805Y-61493365D01*
X90054549Y-61474500D01*
X90054548Y-61474500D01*
X89777452Y-61474500D01*
X89777451Y-61474500D01*
X89502937Y-61512231D01*
X89502931Y-61512232D01*
X89236111Y-61586992D01*
X89077340Y-61655956D01*
X89008009Y-61664610D01*
X88945005Y-61634406D01*
X88908332Y-61574934D01*
X88909633Y-61505077D01*
X88913379Y-61494768D01*
X88926246Y-61463703D01*
X88985957Y-61214989D01*
X89006024Y-60960000D01*
X88985957Y-60705010D01*
X88926247Y-60456297D01*
X88828365Y-60219987D01*
X88828363Y-60219984D01*
X88694719Y-60001898D01*
X88694712Y-60001888D01*
X88691465Y-59998087D01*
X88691464Y-59998087D01*
X88127232Y-60562319D01*
X88083684Y-60480178D01*
X87963991Y-60339265D01*
X87816805Y-60227377D01*
X87774597Y-60207849D01*
X88337911Y-59644535D01*
X88337911Y-59644533D01*
X88334110Y-59641286D01*
X88334095Y-59641275D01*
X88116015Y-59507636D01*
X88116012Y-59507634D01*
X87879702Y-59409752D01*
X87630988Y-59350042D01*
X87630989Y-59350042D01*
X87375999Y-59329975D01*
X87121010Y-59350042D01*
X86872297Y-59409752D01*
X86635987Y-59507634D01*
X86635984Y-59507636D01*
X86417897Y-59641280D01*
X86414087Y-59644534D01*
X86977390Y-60207837D01*
X86858569Y-60279331D01*
X86724342Y-60406477D01*
X86621138Y-60558691D01*
X86060534Y-59998087D01*
X86057280Y-60001897D01*
X85923636Y-60219984D01*
X85923634Y-60219987D01*
X85825752Y-60456297D01*
X85766042Y-60705010D01*
X85745975Y-60960000D01*
X85766042Y-61214989D01*
X85825752Y-61463702D01*
X85923634Y-61700012D01*
X85923636Y-61700015D01*
X86057275Y-61918095D01*
X86057286Y-61918110D01*
X86060533Y-61921911D01*
X86060535Y-61921911D01*
X86624766Y-61357679D01*
X86668316Y-61439822D01*
X86788009Y-61580735D01*
X86935195Y-61692623D01*
X86977402Y-61712150D01*
X86414087Y-62275464D01*
X86414087Y-62275465D01*
X86417888Y-62278712D01*
X86417898Y-62278719D01*
X86635984Y-62412363D01*
X86635987Y-62412365D01*
X86872297Y-62510247D01*
X87121011Y-62569957D01*
X87121010Y-62569957D01*
X87376000Y-62590024D01*
X87630989Y-62569957D01*
X87879700Y-62510247D01*
X87906962Y-62498955D01*
X87976432Y-62491485D01*
X88038911Y-62522759D01*
X88074565Y-62582847D01*
X88072072Y-62652672D01*
X88064516Y-62670561D01*
X88053846Y-62691153D01*
X87961055Y-62952245D01*
X87961050Y-62952264D01*
X87904677Y-63223547D01*
X87904676Y-63223549D01*
X87885767Y-63500000D01*
X87904676Y-63776450D01*
X87904677Y-63776452D01*
X87961050Y-64047735D01*
X87961055Y-64047754D01*
X88053846Y-64308846D01*
X88064515Y-64329436D01*
X88077880Y-64398016D01*
X88052046Y-64462934D01*
X87995215Y-64503580D01*
X87925432Y-64507049D01*
X87906966Y-64501046D01*
X87879699Y-64489752D01*
X87630988Y-64430042D01*
X87630989Y-64430042D01*
X87376000Y-64409975D01*
X87121010Y-64430042D01*
X86872297Y-64489752D01*
X86635987Y-64587634D01*
X86635984Y-64587636D01*
X86417897Y-64721280D01*
X86414087Y-64724534D01*
X86977390Y-65287837D01*
X86858569Y-65359331D01*
X86724342Y-65486477D01*
X86621138Y-65638691D01*
X86060534Y-65078087D01*
X86057280Y-65081897D01*
X85923636Y-65299984D01*
X85923634Y-65299987D01*
X85825752Y-65536297D01*
X85766042Y-65785010D01*
X85745975Y-66040000D01*
X85090500Y-66040000D01*
X85090500Y-49530002D01*
X85595153Y-49530002D01*
X85614526Y-49887314D01*
X85614527Y-49887331D01*
X85672415Y-50240431D01*
X85672421Y-50240457D01*
X85768147Y-50585232D01*
X85768149Y-50585239D01*
X85900597Y-50917659D01*
X85900606Y-50917677D01*
X86068218Y-51233827D01*
X86269033Y-51530007D01*
X86396441Y-51680003D01*
X86396442Y-51680004D01*
X87602266Y-50474179D01*
X87765130Y-50664870D01*
X87955818Y-50827732D01*
X86747255Y-52036295D01*
X86747256Y-52036296D01*
X86760485Y-52048828D01*
X86760486Y-52048829D01*
X87045367Y-52265388D01*
X87045370Y-52265390D01*
X87351990Y-52449876D01*
X87676739Y-52600122D01*
X87676744Y-52600123D01*
X88015855Y-52714383D01*
X88365339Y-52791311D01*
X88721075Y-52829999D01*
X88721085Y-52830000D01*
X89078915Y-52830000D01*
X89078924Y-52829999D01*
X89434660Y-52791311D01*
X89784144Y-52714383D01*
X90123255Y-52600123D01*
X90123260Y-52600122D01*
X90448009Y-52449876D01*
X90754629Y-52265390D01*
X90754632Y-52265388D01*
X91039504Y-52048836D01*
X91052742Y-52036294D01*
X89844180Y-50827733D01*
X90034870Y-50664870D01*
X90197733Y-50474180D01*
X91403556Y-51680003D01*
X91530964Y-51530008D01*
X91530975Y-51529994D01*
X91731781Y-51233827D01*
X91899393Y-50917677D01*
X91899402Y-50917659D01*
X92031850Y-50585239D01*
X92031852Y-50585232D01*
X92127578Y-50240457D01*
X92127584Y-50240431D01*
X92185472Y-49887331D01*
X92185473Y-49887314D01*
X92204847Y-49530002D01*
X92204847Y-49529997D01*
X92185473Y-49172685D01*
X92185472Y-49172668D01*
X92127584Y-48819568D01*
X92127578Y-48819542D01*
X92031852Y-48474767D01*
X92031850Y-48474760D01*
X91899402Y-48142340D01*
X91899393Y-48142322D01*
X91731781Y-47826172D01*
X91530966Y-47529992D01*
X91403557Y-47379995D01*
X91403556Y-47379994D01*
X90197732Y-48585818D01*
X90034870Y-48395130D01*
X89844180Y-48232266D01*
X91052743Y-47023703D01*
X91052742Y-47023702D01*
X91039514Y-47011171D01*
X91039513Y-47011170D01*
X90754632Y-46794611D01*
X90754629Y-46794609D01*
X90448009Y-46610123D01*
X90123260Y-46459877D01*
X90123255Y-46459876D01*
X89784144Y-46345616D01*
X89434660Y-46268688D01*
X89078924Y-46230000D01*
X88721075Y-46230000D01*
X88365339Y-46268688D01*
X88015855Y-46345616D01*
X87676744Y-46459876D01*
X87676739Y-46459877D01*
X87351990Y-46610123D01*
X87045370Y-46794609D01*
X87045367Y-46794611D01*
X86760491Y-47011166D01*
X86747256Y-47023703D01*
X86747255Y-47023703D01*
X87955819Y-48232266D01*
X87765130Y-48395130D01*
X87602267Y-48585818D01*
X86396442Y-47379994D01*
X86396441Y-47379995D01*
X86269040Y-47529983D01*
X86269033Y-47529993D01*
X86068218Y-47826172D01*
X85900606Y-48142322D01*
X85900597Y-48142340D01*
X85768149Y-48474760D01*
X85768147Y-48474767D01*
X85672421Y-48819542D01*
X85672415Y-48819568D01*
X85614527Y-49172668D01*
X85614526Y-49172685D01*
X85595153Y-49529997D01*
X85595153Y-49530002D01*
X85090500Y-49530002D01*
X85090500Y-45844500D01*
X85110185Y-45777461D01*
X85162989Y-45731706D01*
X85214500Y-45720500D01*
X121161000Y-45720500D01*
X121228039Y-45740185D01*
G37*
G04 #@! TD.AperFunction*
G04 #@! TA.AperFunction,Conductor*
G36*
X179319999Y-64334498D02*
G01*
X179212315Y-64285320D01*
X179105763Y-64270000D01*
X179034237Y-64270000D01*
X178927685Y-64285320D01*
X178820000Y-64334498D01*
X178820000Y-62665501D01*
X178927685Y-62714680D01*
X179034237Y-62730000D01*
X179105763Y-62730000D01*
X179212315Y-62714680D01*
X179319999Y-62665501D01*
X179319999Y-64334498D01*
G37*
G04 #@! TD.AperFunction*
G04 #@! TA.AperFunction,Conductor*
G36*
X179319999Y-61794498D02*
G01*
X179212315Y-61745320D01*
X179105763Y-61730000D01*
X179034237Y-61730000D01*
X178927685Y-61745320D01*
X178820000Y-61794498D01*
X178820000Y-60125501D01*
X178927685Y-60174680D01*
X179034237Y-60190000D01*
X179105763Y-60190000D01*
X179212315Y-60174680D01*
X179319999Y-60125501D01*
X179319999Y-61794498D01*
G37*
G04 #@! TD.AperFunction*
G04 #@! TA.AperFunction,Conductor*
G36*
X179319999Y-59254498D02*
G01*
X179212315Y-59205320D01*
X179105763Y-59190000D01*
X179034237Y-59190000D01*
X178927685Y-59205320D01*
X178820000Y-59254498D01*
X178820000Y-57585501D01*
X178927685Y-57634680D01*
X179034237Y-57650000D01*
X179105763Y-57650000D01*
X179212315Y-57634680D01*
X179319999Y-57585501D01*
X179319999Y-59254498D01*
G37*
G04 #@! TD.AperFunction*
G04 #@! TA.AperFunction,Conductor*
G36*
X184092539Y-45740185D02*
G01*
X184138294Y-45792989D01*
X184149500Y-45844500D01*
X184149500Y-133225500D01*
X184129815Y-133292539D01*
X184077011Y-133338294D01*
X184025500Y-133349500D01*
X85214500Y-133349500D01*
X85147461Y-133329815D01*
X85101706Y-133277011D01*
X85090500Y-133225500D01*
X85090500Y-129540002D01*
X85594652Y-129540002D01*
X85614028Y-129897368D01*
X85614029Y-129897385D01*
X85671926Y-130250539D01*
X85671932Y-130250565D01*
X85767672Y-130595392D01*
X85767674Y-130595399D01*
X85900142Y-130927870D01*
X85900151Y-130927888D01*
X86067784Y-131244077D01*
X86067790Y-131244086D01*
X86268634Y-131540309D01*
X86268641Y-131540319D01*
X86500331Y-131813085D01*
X86500332Y-131813086D01*
X86760163Y-132059211D01*
X87045081Y-132275800D01*
X87351747Y-132460315D01*
X87351749Y-132460316D01*
X87351751Y-132460317D01*
X87351755Y-132460319D01*
X87676552Y-132610585D01*
X87676565Y-132610591D01*
X88015726Y-132724868D01*
X88365254Y-132801805D01*
X88721052Y-132840500D01*
X88721058Y-132840500D01*
X89078942Y-132840500D01*
X89078948Y-132840500D01*
X89434746Y-132801805D01*
X89784274Y-132724868D01*
X90123435Y-132610591D01*
X90448253Y-132460315D01*
X90754919Y-132275800D01*
X91039837Y-132059211D01*
X91299668Y-131813086D01*
X91531365Y-131540311D01*
X91732211Y-131244085D01*
X91899853Y-130927880D01*
X92032324Y-130595403D01*
X92128071Y-130250552D01*
X92145891Y-130141848D01*
X92185970Y-129897385D01*
X92185970Y-129897382D01*
X92185972Y-129897371D01*
X92205348Y-129540000D01*
X92185972Y-129182629D01*
X92156113Y-129000499D01*
X92128073Y-128829460D01*
X92128072Y-128829459D01*
X92128071Y-128829448D01*
X92049893Y-128547876D01*
X92049891Y-128547870D01*
X94519500Y-128547870D01*
X94519501Y-128547876D01*
X94525908Y-128607483D01*
X94576202Y-128742328D01*
X94576206Y-128742335D01*
X94662452Y-128857544D01*
X94662455Y-128857547D01*
X94777664Y-128943793D01*
X94777671Y-128943797D01*
X94912517Y-128994091D01*
X94912516Y-128994091D01*
X94919444Y-128994835D01*
X94972127Y-129000500D01*
X98067872Y-129000499D01*
X98127483Y-128994091D01*
X98262331Y-128943796D01*
X98377546Y-128857546D01*
X98463796Y-128742331D01*
X98514091Y-128607483D01*
X98520500Y-128547873D01*
X98520499Y-125452128D01*
X98514091Y-125392517D01*
X98502789Y-125362216D01*
X98463797Y-125257671D01*
X98463793Y-125257664D01*
X98377547Y-125142455D01*
X98377544Y-125142452D01*
X98262335Y-125056206D01*
X98262328Y-125056202D01*
X98127482Y-125005908D01*
X98127483Y-125005908D01*
X98067883Y-124999501D01*
X98067881Y-124999500D01*
X98067873Y-124999500D01*
X98067864Y-124999500D01*
X94972129Y-124999500D01*
X94972123Y-124999501D01*
X94912516Y-125005908D01*
X94777671Y-125056202D01*
X94777664Y-125056206D01*
X94662455Y-125142452D01*
X94662452Y-125142455D01*
X94576206Y-125257664D01*
X94576202Y-125257671D01*
X94525908Y-125392517D01*
X94520002Y-125447454D01*
X94519501Y-125452123D01*
X94519500Y-125452135D01*
X94519500Y-128547870D01*
X92049891Y-128547870D01*
X92032327Y-128484607D01*
X92032325Y-128484600D01*
X91899857Y-128152129D01*
X91899848Y-128152111D01*
X91732215Y-127835922D01*
X91732213Y-127835919D01*
X91732211Y-127835915D01*
X91531365Y-127539689D01*
X91531361Y-127539684D01*
X91531358Y-127539680D01*
X91299668Y-127266914D01*
X91249565Y-127219454D01*
X91039837Y-127020789D01*
X91039830Y-127020783D01*
X91039827Y-127020781D01*
X90972245Y-126969407D01*
X90754919Y-126804200D01*
X90448253Y-126619685D01*
X90448252Y-126619684D01*
X90448248Y-126619682D01*
X90448244Y-126619680D01*
X90123447Y-126469414D01*
X90123441Y-126469411D01*
X90123435Y-126469409D01*
X89930104Y-126404268D01*
X89784273Y-126355131D01*
X89434744Y-126278194D01*
X89078949Y-126239500D01*
X89078948Y-126239500D01*
X88721052Y-126239500D01*
X88721050Y-126239500D01*
X88365255Y-126278194D01*
X88015726Y-126355131D01*
X87778823Y-126434954D01*
X87676565Y-126469409D01*
X87676562Y-126469410D01*
X87676563Y-126469410D01*
X87676552Y-126469414D01*
X87351755Y-126619680D01*
X87351751Y-126619682D01*
X87123367Y-126757096D01*
X87045081Y-126804200D01*
X86962299Y-126867129D01*
X86760172Y-127020781D01*
X86760163Y-127020789D01*
X86500331Y-127266914D01*
X86268641Y-127539680D01*
X86268634Y-127539690D01*
X86067790Y-127835913D01*
X86067784Y-127835922D01*
X85900151Y-128152111D01*
X85900142Y-128152129D01*
X85767674Y-128484600D01*
X85767672Y-128484607D01*
X85671932Y-128829434D01*
X85671926Y-128829460D01*
X85614029Y-129182614D01*
X85614028Y-129182631D01*
X85594652Y-129539997D01*
X85594652Y-129540002D01*
X85090500Y-129540002D01*
X85090500Y-119007870D01*
X96439500Y-119007870D01*
X96439501Y-119007876D01*
X96445908Y-119067483D01*
X96496202Y-119202328D01*
X96496206Y-119202335D01*
X96582452Y-119317544D01*
X96582455Y-119317547D01*
X96697664Y-119403793D01*
X96697671Y-119403797D01*
X96832517Y-119454091D01*
X96832516Y-119454091D01*
X96839444Y-119454835D01*
X96892127Y-119460500D01*
X98687872Y-119460499D01*
X98747483Y-119454091D01*
X98882331Y-119403796D01*
X98997546Y-119317546D01*
X99083796Y-119202331D01*
X99132810Y-119070916D01*
X99174681Y-119014984D01*
X99240145Y-118990566D01*
X99308418Y-119005417D01*
X99336673Y-119026569D01*
X99393181Y-119083077D01*
X99426666Y-119144400D01*
X99429500Y-119170758D01*
X99429500Y-123528053D01*
X99427972Y-123547452D01*
X99425781Y-123561292D01*
X99427281Y-123589924D01*
X99429415Y-123630636D01*
X99429500Y-123633881D01*
X99429500Y-123655869D01*
X99431797Y-123677739D01*
X99432051Y-123680970D01*
X99435686Y-123750323D01*
X99435688Y-123750333D01*
X99439315Y-123763869D01*
X99442860Y-123782994D01*
X99444325Y-123796929D01*
X99444326Y-123796936D01*
X99444328Y-123796942D01*
X99465784Y-123862978D01*
X99466705Y-123866089D01*
X99484679Y-123933166D01*
X99484684Y-123933178D01*
X99491043Y-123945658D01*
X99498488Y-123963629D01*
X99502820Y-123976962D01*
X99537537Y-124037094D01*
X99539085Y-124039946D01*
X99560992Y-124082939D01*
X99570617Y-124101829D01*
X99570619Y-124101831D01*
X99570620Y-124101833D01*
X99579438Y-124112723D01*
X99590454Y-124128750D01*
X99597465Y-124140893D01*
X99597470Y-124140900D01*
X99643939Y-124192511D01*
X99646043Y-124194975D01*
X99659882Y-124212062D01*
X99675423Y-124227602D01*
X99677657Y-124229957D01*
X99724128Y-124281567D01*
X99735468Y-124289806D01*
X99750265Y-124302444D01*
X100556967Y-125109146D01*
X100590452Y-125170469D01*
X100585468Y-125240161D01*
X100543596Y-125296094D01*
X100528721Y-125305655D01*
X100515681Y-125312776D01*
X100286612Y-125484254D01*
X100286594Y-125484270D01*
X100084270Y-125686594D01*
X100084254Y-125686612D01*
X99912775Y-125915682D01*
X99912770Y-125915690D01*
X99775635Y-126166833D01*
X99675628Y-126434962D01*
X99614804Y-126714566D01*
X99594390Y-126999998D01*
X99594390Y-127000001D01*
X99614804Y-127285433D01*
X99675628Y-127565037D01*
X99675630Y-127565043D01*
X99675631Y-127565046D01*
X99748345Y-127760000D01*
X99775635Y-127833166D01*
X99912770Y-128084309D01*
X99912775Y-128084317D01*
X100084254Y-128313387D01*
X100084270Y-128313405D01*
X100286594Y-128515729D01*
X100286612Y-128515745D01*
X100515682Y-128687224D01*
X100515690Y-128687229D01*
X100766833Y-128824364D01*
X100766832Y-128824364D01*
X100766836Y-128824365D01*
X100766839Y-128824367D01*
X101034954Y-128924369D01*
X101034960Y-128924370D01*
X101034962Y-128924371D01*
X101314566Y-128985195D01*
X101314568Y-128985195D01*
X101314572Y-128985196D01*
X101568220Y-129003337D01*
X101599999Y-129005610D01*
X101600000Y-129005610D01*
X101600001Y-129005610D01*
X101628595Y-129003564D01*
X101885428Y-128985196D01*
X102075742Y-128943796D01*
X102165037Y-128924371D01*
X102165037Y-128924370D01*
X102165046Y-128924369D01*
X102433161Y-128824367D01*
X102684315Y-128687226D01*
X102870473Y-128547870D01*
X106584500Y-128547870D01*
X106584501Y-128547876D01*
X106590908Y-128607483D01*
X106641202Y-128742328D01*
X106641206Y-128742335D01*
X106727452Y-128857544D01*
X106727455Y-128857547D01*
X106842664Y-128943793D01*
X106842671Y-128943797D01*
X106977517Y-128994091D01*
X106977516Y-128994091D01*
X106984444Y-128994835D01*
X107037127Y-129000500D01*
X110132872Y-129000499D01*
X110192483Y-128994091D01*
X110327331Y-128943796D01*
X110442546Y-128857546D01*
X110528796Y-128742331D01*
X110579091Y-128607483D01*
X110585500Y-128547873D01*
X110585500Y-127000001D01*
X111659891Y-127000001D01*
X111680300Y-127285362D01*
X111741109Y-127564895D01*
X111841091Y-127832958D01*
X111978191Y-128084038D01*
X111978196Y-128084046D01*
X112084882Y-128226561D01*
X112084883Y-128226562D01*
X112980195Y-127331250D01*
X113002340Y-127382587D01*
X113108433Y-127525094D01*
X113244530Y-127639294D01*
X113334216Y-127684335D01*
X112438436Y-128580115D01*
X112580960Y-128686807D01*
X112580961Y-128686808D01*
X112832042Y-128823908D01*
X112832041Y-128823908D01*
X113100104Y-128923890D01*
X113379637Y-128984699D01*
X113664999Y-129005109D01*
X113665001Y-129005109D01*
X113950362Y-128984699D01*
X114229895Y-128923890D01*
X114497958Y-128823908D01*
X114749047Y-128686803D01*
X114791530Y-128655000D01*
X120299551Y-128655000D01*
X120319317Y-128906151D01*
X120378126Y-129151110D01*
X120474533Y-129383859D01*
X120606160Y-129598653D01*
X120606161Y-129598656D01*
X120606164Y-129598659D01*
X120769776Y-129790224D01*
X120918066Y-129916875D01*
X120961343Y-129953838D01*
X120961346Y-129953839D01*
X121176140Y-130085466D01*
X121408888Y-130181872D01*
X121408889Y-130181873D01*
X121653852Y-130240683D01*
X121842118Y-130255500D01*
X121842126Y-130255500D01*
X123267874Y-130255500D01*
X123267882Y-130255500D01*
X123456148Y-130240683D01*
X123701111Y-130181873D01*
X123933859Y-130085466D01*
X124148659Y-129953836D01*
X124340224Y-129790224D01*
X124503836Y-129598659D01*
X124635466Y-129383859D01*
X124731873Y-129151111D01*
X124790683Y-128906148D01*
X124810449Y-128655000D01*
X127919551Y-128655000D01*
X127939317Y-128906151D01*
X127998126Y-129151110D01*
X128094533Y-129383859D01*
X128226160Y-129598653D01*
X128226161Y-129598656D01*
X128226164Y-129598659D01*
X128389776Y-129790224D01*
X128538066Y-129916875D01*
X128581343Y-129953838D01*
X128581346Y-129953839D01*
X128796140Y-130085466D01*
X129028889Y-130181872D01*
X129028889Y-130181873D01*
X129273852Y-130240683D01*
X129462118Y-130255500D01*
X129462126Y-130255500D01*
X130887874Y-130255500D01*
X130887882Y-130255500D01*
X131076148Y-130240683D01*
X131321111Y-130181873D01*
X131553859Y-130085466D01*
X131768659Y-129953836D01*
X131960224Y-129790224D01*
X132123836Y-129598659D01*
X132159781Y-129540002D01*
X177034652Y-129540002D01*
X177054028Y-129897368D01*
X177054029Y-129897385D01*
X177111926Y-130250539D01*
X177111932Y-130250565D01*
X177207672Y-130595392D01*
X177207674Y-130595399D01*
X177340142Y-130927870D01*
X177340151Y-130927888D01*
X177507784Y-131244077D01*
X177507790Y-131244086D01*
X177708634Y-131540309D01*
X177708641Y-131540319D01*
X177940331Y-131813085D01*
X177940332Y-131813086D01*
X178200163Y-132059211D01*
X178485081Y-132275800D01*
X178791747Y-132460315D01*
X178791749Y-132460316D01*
X178791751Y-132460317D01*
X178791755Y-132460319D01*
X179116552Y-132610585D01*
X179116565Y-132610591D01*
X179455726Y-132724868D01*
X179805254Y-132801805D01*
X180161052Y-132840500D01*
X180161058Y-132840500D01*
X180518942Y-132840500D01*
X180518948Y-132840500D01*
X180874746Y-132801805D01*
X181224274Y-132724868D01*
X181563435Y-132610591D01*
X181888253Y-132460315D01*
X182194919Y-132275800D01*
X182479837Y-132059211D01*
X182739668Y-131813086D01*
X182971365Y-131540311D01*
X183172211Y-131244085D01*
X183339853Y-130927880D01*
X183472324Y-130595403D01*
X183568071Y-130250552D01*
X183585891Y-130141848D01*
X183625970Y-129897385D01*
X183625970Y-129897382D01*
X183625972Y-129897371D01*
X183645348Y-129540000D01*
X183625972Y-129182629D01*
X183596113Y-129000499D01*
X183568073Y-128829460D01*
X183568072Y-128829459D01*
X183568071Y-128829448D01*
X183489893Y-128547876D01*
X183472327Y-128484607D01*
X183472325Y-128484600D01*
X183339857Y-128152129D01*
X183339848Y-128152111D01*
X183172215Y-127835922D01*
X183172213Y-127835919D01*
X183172211Y-127835915D01*
X182971365Y-127539689D01*
X182971361Y-127539684D01*
X182971358Y-127539680D01*
X182739668Y-127266914D01*
X182689565Y-127219454D01*
X182479837Y-127020789D01*
X182479830Y-127020783D01*
X182479827Y-127020781D01*
X182412245Y-126969407D01*
X182194919Y-126804200D01*
X181888253Y-126619685D01*
X181888252Y-126619684D01*
X181888248Y-126619682D01*
X181888244Y-126619680D01*
X181563447Y-126469414D01*
X181563441Y-126469411D01*
X181563435Y-126469409D01*
X181370104Y-126404268D01*
X181224273Y-126355131D01*
X180874744Y-126278194D01*
X180518949Y-126239500D01*
X180518948Y-126239500D01*
X180161052Y-126239500D01*
X180161050Y-126239500D01*
X179805255Y-126278194D01*
X179455726Y-126355131D01*
X179218823Y-126434954D01*
X179116565Y-126469409D01*
X179116562Y-126469410D01*
X179116563Y-126469410D01*
X179116552Y-126469414D01*
X178791755Y-126619680D01*
X178791751Y-126619682D01*
X178563367Y-126757096D01*
X178485081Y-126804200D01*
X178402299Y-126867129D01*
X178200172Y-127020781D01*
X178200163Y-127020789D01*
X177940331Y-127266914D01*
X177708641Y-127539680D01*
X177708634Y-127539690D01*
X177507790Y-127835913D01*
X177507784Y-127835922D01*
X177340151Y-128152111D01*
X177340142Y-128152129D01*
X177207674Y-128484600D01*
X177207672Y-128484607D01*
X177111932Y-128829434D01*
X177111926Y-128829460D01*
X177054029Y-129182614D01*
X177054028Y-129182631D01*
X177034652Y-129539997D01*
X177034652Y-129540002D01*
X132159781Y-129540002D01*
X132255466Y-129383859D01*
X132351873Y-129151111D01*
X132410683Y-128906148D01*
X132430449Y-128655000D01*
X132422018Y-128547870D01*
X136429500Y-128547870D01*
X136429501Y-128547876D01*
X136435908Y-128607483D01*
X136486202Y-128742328D01*
X136486206Y-128742335D01*
X136572452Y-128857544D01*
X136572455Y-128857547D01*
X136687664Y-128943793D01*
X136687671Y-128943797D01*
X136822517Y-128994091D01*
X136822516Y-128994091D01*
X136829444Y-128994835D01*
X136882127Y-129000500D01*
X139977872Y-129000499D01*
X140037483Y-128994091D01*
X140172331Y-128943796D01*
X140287546Y-128857546D01*
X140373796Y-128742331D01*
X140424091Y-128607483D01*
X140430500Y-128547873D01*
X140430500Y-127000001D01*
X141504390Y-127000001D01*
X141524804Y-127285433D01*
X141585628Y-127565037D01*
X141585630Y-127565043D01*
X141585631Y-127565046D01*
X141658345Y-127760000D01*
X141685635Y-127833166D01*
X141822770Y-128084309D01*
X141822775Y-128084317D01*
X141994254Y-128313387D01*
X141994270Y-128313405D01*
X142196594Y-128515729D01*
X142196612Y-128515745D01*
X142425682Y-128687224D01*
X142425690Y-128687229D01*
X142676833Y-128824364D01*
X142676832Y-128824364D01*
X142676836Y-128824365D01*
X142676839Y-128824367D01*
X142944954Y-128924369D01*
X142944960Y-128924370D01*
X142944962Y-128924371D01*
X143224566Y-128985195D01*
X143224568Y-128985195D01*
X143224572Y-128985196D01*
X143478220Y-129003337D01*
X143509999Y-129005610D01*
X143510000Y-129005610D01*
X143510001Y-129005610D01*
X143538595Y-129003564D01*
X143795428Y-128985196D01*
X143985742Y-128943796D01*
X144075037Y-128924371D01*
X144075037Y-128924370D01*
X144075046Y-128924369D01*
X144343161Y-128824367D01*
X144594315Y-128687226D01*
X144780473Y-128547870D01*
X147859500Y-128547870D01*
X147859501Y-128547876D01*
X147865908Y-128607483D01*
X147916202Y-128742328D01*
X147916206Y-128742335D01*
X148002452Y-128857544D01*
X148002455Y-128857547D01*
X148117664Y-128943793D01*
X148117671Y-128943797D01*
X148252517Y-128994091D01*
X148252516Y-128994091D01*
X148259444Y-128994835D01*
X148312127Y-129000500D01*
X151407872Y-129000499D01*
X151467483Y-128994091D01*
X151602331Y-128943796D01*
X151717546Y-128857546D01*
X151803796Y-128742331D01*
X151854091Y-128607483D01*
X151860500Y-128547873D01*
X151860499Y-125452128D01*
X151854091Y-125392517D01*
X151842789Y-125362216D01*
X151803797Y-125257671D01*
X151803793Y-125257664D01*
X151717547Y-125142455D01*
X151717544Y-125142452D01*
X151602335Y-125056206D01*
X151602328Y-125056202D01*
X151467482Y-125005908D01*
X151467483Y-125005908D01*
X151407883Y-124999501D01*
X151407881Y-124999500D01*
X151407873Y-124999500D01*
X151407864Y-124999500D01*
X148312129Y-124999500D01*
X148312123Y-124999501D01*
X148252516Y-125005908D01*
X148117671Y-125056202D01*
X148117664Y-125056206D01*
X148002455Y-125142452D01*
X148002452Y-125142455D01*
X147916206Y-125257664D01*
X147916202Y-125257671D01*
X147865908Y-125392517D01*
X147860002Y-125447454D01*
X147859501Y-125452123D01*
X147859500Y-125452135D01*
X147859500Y-128547870D01*
X144780473Y-128547870D01*
X144823395Y-128515739D01*
X145025739Y-128313395D01*
X145197226Y-128084315D01*
X145334367Y-127833161D01*
X145434369Y-127565046D01*
X145480524Y-127352873D01*
X145495195Y-127285433D01*
X145495195Y-127285432D01*
X145495196Y-127285428D01*
X145515610Y-127000000D01*
X145495196Y-126714572D01*
X145491358Y-126696930D01*
X145434371Y-126434962D01*
X145434370Y-126434960D01*
X145434369Y-126434954D01*
X145334367Y-126166839D01*
X145197372Y-125915953D01*
X145197229Y-125915690D01*
X145197224Y-125915682D01*
X145025745Y-125686612D01*
X145025729Y-125686594D01*
X144823405Y-125484270D01*
X144823387Y-125484254D01*
X144594317Y-125312775D01*
X144594309Y-125312770D01*
X144343166Y-125175635D01*
X144343167Y-125175635D01*
X144164903Y-125109146D01*
X144075046Y-125075631D01*
X144075043Y-125075630D01*
X144075037Y-125075628D01*
X143795433Y-125014804D01*
X143510001Y-124994390D01*
X143509999Y-124994390D01*
X143224566Y-125014804D01*
X142944962Y-125075628D01*
X142676833Y-125175635D01*
X142425690Y-125312770D01*
X142425682Y-125312775D01*
X142196612Y-125484254D01*
X142196594Y-125484270D01*
X141994270Y-125686594D01*
X141994254Y-125686612D01*
X141822775Y-125915682D01*
X141822770Y-125915690D01*
X141685635Y-126166833D01*
X141585628Y-126434962D01*
X141524804Y-126714566D01*
X141504390Y-126999998D01*
X141504390Y-127000001D01*
X140430500Y-127000001D01*
X140430499Y-125452128D01*
X140424091Y-125392517D01*
X140412789Y-125362216D01*
X140373797Y-125257671D01*
X140373793Y-125257664D01*
X140287547Y-125142455D01*
X140287544Y-125142452D01*
X140172335Y-125056206D01*
X140172328Y-125056202D01*
X140037482Y-125005908D01*
X140037483Y-125005908D01*
X139977883Y-124999501D01*
X139977881Y-124999500D01*
X139977873Y-124999500D01*
X139977864Y-124999500D01*
X136882129Y-124999500D01*
X136882123Y-124999501D01*
X136822516Y-125005908D01*
X136687671Y-125056202D01*
X136687664Y-125056206D01*
X136572455Y-125142452D01*
X136572452Y-125142455D01*
X136486206Y-125257664D01*
X136486202Y-125257671D01*
X136435908Y-125392517D01*
X136430002Y-125447454D01*
X136429501Y-125452123D01*
X136429500Y-125452135D01*
X136429500Y-128547870D01*
X132422018Y-128547870D01*
X132410683Y-128403852D01*
X132351873Y-128158889D01*
X132349065Y-128152111D01*
X132255466Y-127926140D01*
X132123839Y-127711346D01*
X132123838Y-127711343D01*
X132062302Y-127639294D01*
X131960224Y-127519776D01*
X131960221Y-127519774D01*
X131960220Y-127519772D01*
X131956779Y-127516331D01*
X131957908Y-127515201D01*
X131923545Y-127462566D01*
X131918979Y-127413522D01*
X131925499Y-127352880D01*
X131925499Y-127352879D01*
X131925500Y-127352873D01*
X131925499Y-125757128D01*
X131919091Y-125697517D01*
X131892870Y-125627216D01*
X131868797Y-125562671D01*
X131868793Y-125562664D01*
X131782547Y-125447455D01*
X131743401Y-125418150D01*
X131701531Y-125362216D01*
X131696547Y-125292524D01*
X131714224Y-125250576D01*
X131780635Y-125149968D01*
X131869103Y-124942988D01*
X131919191Y-124723537D01*
X131929290Y-124498670D01*
X131899075Y-124275613D01*
X131829517Y-124061536D01*
X131722852Y-123863319D01*
X131582508Y-123687334D01*
X131571526Y-123677739D01*
X131538489Y-123648875D01*
X131500955Y-123589943D01*
X131501241Y-123520074D01*
X131530448Y-123469803D01*
X131538747Y-123461123D01*
X131656632Y-123337825D01*
X131780635Y-123149968D01*
X131869103Y-122942988D01*
X131919191Y-122723537D01*
X131929290Y-122498670D01*
X131899075Y-122275613D01*
X131829517Y-122061536D01*
X131774897Y-121960035D01*
X131744313Y-121903200D01*
X131729879Y-121834837D01*
X131754697Y-121769523D01*
X131772975Y-121750150D01*
X131792269Y-121733670D01*
X131960224Y-121590224D01*
X132123836Y-121398659D01*
X132255466Y-121183859D01*
X132351873Y-120951111D01*
X132410683Y-120706148D01*
X132430449Y-120455000D01*
X132410683Y-120203852D01*
X132351873Y-119958889D01*
X132255466Y-119726141D01*
X132255466Y-119726140D01*
X132123839Y-119511346D01*
X132123838Y-119511343D01*
X132074940Y-119454091D01*
X131960224Y-119319776D01*
X131822708Y-119202326D01*
X131768656Y-119156161D01*
X131768653Y-119156160D01*
X131553859Y-119024533D01*
X131321110Y-118928126D01*
X131076151Y-118869317D01*
X130887887Y-118854500D01*
X130887882Y-118854500D01*
X129462118Y-118854500D01*
X129462112Y-118854500D01*
X129273848Y-118869317D01*
X129028889Y-118928126D01*
X128796140Y-119024533D01*
X128581346Y-119156160D01*
X128581343Y-119156161D01*
X128389776Y-119319776D01*
X128226161Y-119511343D01*
X128226160Y-119511346D01*
X128094533Y-119726140D01*
X127998126Y-119958889D01*
X127939317Y-120203848D01*
X127919551Y-120454999D01*
X127939317Y-120706151D01*
X127998126Y-120951110D01*
X128094533Y-121183859D01*
X128226160Y-121398653D01*
X128226161Y-121398656D01*
X128226164Y-121398659D01*
X128389776Y-121590224D01*
X128577405Y-121750474D01*
X128615598Y-121808981D01*
X128616097Y-121878849D01*
X128600361Y-121913074D01*
X128569363Y-121960035D01*
X128569361Y-121960039D01*
X128480899Y-122167004D01*
X128480895Y-122167017D01*
X128430810Y-122386457D01*
X128430808Y-122386468D01*
X128425769Y-122498674D01*
X128420710Y-122611330D01*
X128450925Y-122834387D01*
X128450926Y-122834390D01*
X128520483Y-123048465D01*
X128627146Y-123246678D01*
X128627148Y-123246681D01*
X128767489Y-123422663D01*
X128767491Y-123422664D01*
X128767492Y-123422666D01*
X128811510Y-123461124D01*
X128849044Y-123520055D01*
X128848758Y-123589924D01*
X128819552Y-123640195D01*
X128693369Y-123772173D01*
X128569363Y-123960033D01*
X128480899Y-124167004D01*
X128480895Y-124167017D01*
X128430810Y-124386457D01*
X128430808Y-124386468D01*
X128420710Y-124611325D01*
X128420710Y-124611330D01*
X128450925Y-124834387D01*
X128450926Y-124834390D01*
X128520483Y-125048465D01*
X128627146Y-125246678D01*
X128630214Y-125251325D01*
X128628612Y-125252382D01*
X128651785Y-125309153D01*
X128639025Y-125377848D01*
X128602741Y-125421038D01*
X128567452Y-125447455D01*
X128481206Y-125562664D01*
X128481202Y-125562671D01*
X128430908Y-125697517D01*
X128424501Y-125757116D01*
X128424501Y-125757123D01*
X128424500Y-125757135D01*
X128424500Y-127352870D01*
X128424501Y-127352879D01*
X128431020Y-127413525D01*
X128418613Y-127482284D01*
X128392530Y-127515628D01*
X128393227Y-127516325D01*
X128389776Y-127519776D01*
X128226161Y-127711343D01*
X128226160Y-127711346D01*
X128094533Y-127926140D01*
X127998126Y-128158889D01*
X127939317Y-128403848D01*
X127919551Y-128655000D01*
X124810449Y-128655000D01*
X124790683Y-128403852D01*
X124731873Y-128158889D01*
X124729065Y-128152111D01*
X124635466Y-127926140D01*
X124503839Y-127711346D01*
X124503838Y-127711343D01*
X124442302Y-127639294D01*
X124340224Y-127519776D01*
X124340221Y-127519774D01*
X124340220Y-127519772D01*
X124336779Y-127516331D01*
X124337908Y-127515201D01*
X124303545Y-127462566D01*
X124298979Y-127413522D01*
X124305499Y-127352880D01*
X124305499Y-127352879D01*
X124305500Y-127352873D01*
X124305499Y-125757128D01*
X124299091Y-125697517D01*
X124272870Y-125627216D01*
X124248797Y-125562671D01*
X124248793Y-125562664D01*
X124162547Y-125447455D01*
X124123401Y-125418150D01*
X124081531Y-125362216D01*
X124076547Y-125292524D01*
X124094224Y-125250576D01*
X124160635Y-125149968D01*
X124249103Y-124942988D01*
X124299191Y-124723537D01*
X124309290Y-124498670D01*
X124279075Y-124275613D01*
X124209517Y-124061536D01*
X124102852Y-123863319D01*
X123962508Y-123687334D01*
X123951526Y-123677739D01*
X123918489Y-123648875D01*
X123880955Y-123589943D01*
X123881241Y-123520074D01*
X123910448Y-123469803D01*
X123918747Y-123461123D01*
X124036632Y-123337825D01*
X124160635Y-123149968D01*
X124249103Y-122942988D01*
X124299191Y-122723537D01*
X124309290Y-122498670D01*
X124279075Y-122275613D01*
X124209517Y-122061536D01*
X124154897Y-121960035D01*
X124124313Y-121903200D01*
X124109879Y-121834837D01*
X124134697Y-121769523D01*
X124152975Y-121750150D01*
X124172269Y-121733670D01*
X124340224Y-121590224D01*
X124503836Y-121398659D01*
X124635466Y-121183859D01*
X124731873Y-120951111D01*
X124790683Y-120706148D01*
X124810449Y-120455000D01*
X124790683Y-120203852D01*
X124731873Y-119958889D01*
X124635466Y-119726141D01*
X124635466Y-119726140D01*
X124503839Y-119511346D01*
X124503838Y-119511343D01*
X124454940Y-119454091D01*
X124340224Y-119319776D01*
X124202708Y-119202326D01*
X124148656Y-119156161D01*
X124148653Y-119156160D01*
X123933859Y-119024533D01*
X123701110Y-118928126D01*
X123456151Y-118869317D01*
X123267887Y-118854500D01*
X123267882Y-118854500D01*
X121842118Y-118854500D01*
X121842112Y-118854500D01*
X121653848Y-118869317D01*
X121408889Y-118928126D01*
X121176140Y-119024533D01*
X120961346Y-119156160D01*
X120961343Y-119156161D01*
X120769776Y-119319776D01*
X120606161Y-119511343D01*
X120606160Y-119511346D01*
X120474533Y-119726140D01*
X120378126Y-119958889D01*
X120319317Y-120203848D01*
X120299551Y-120455000D01*
X120319317Y-120706151D01*
X120378126Y-120951110D01*
X120474533Y-121183859D01*
X120606160Y-121398653D01*
X120606161Y-121398656D01*
X120606164Y-121398659D01*
X120769776Y-121590224D01*
X120957405Y-121750474D01*
X120995598Y-121808981D01*
X120996097Y-121878849D01*
X120980361Y-121913074D01*
X120949363Y-121960035D01*
X120949361Y-121960039D01*
X120860899Y-122167004D01*
X120860895Y-122167017D01*
X120810810Y-122386457D01*
X120810808Y-122386468D01*
X120805769Y-122498674D01*
X120800710Y-122611330D01*
X120830925Y-122834387D01*
X120830926Y-122834390D01*
X120900483Y-123048465D01*
X121007146Y-123246678D01*
X121007148Y-123246681D01*
X121147489Y-123422663D01*
X121147491Y-123422664D01*
X121147492Y-123422666D01*
X121191510Y-123461124D01*
X121229044Y-123520055D01*
X121228758Y-123589924D01*
X121199552Y-123640195D01*
X121073369Y-123772173D01*
X120949363Y-123960033D01*
X120860899Y-124167004D01*
X120860895Y-124167017D01*
X120810810Y-124386457D01*
X120810808Y-124386468D01*
X120800710Y-124611325D01*
X120800710Y-124611330D01*
X120830925Y-124834387D01*
X120830926Y-124834390D01*
X120900483Y-125048465D01*
X121007146Y-125246678D01*
X121010214Y-125251325D01*
X121008612Y-125252382D01*
X121031785Y-125309153D01*
X121019025Y-125377848D01*
X120982741Y-125421038D01*
X120947452Y-125447455D01*
X120861206Y-125562664D01*
X120861202Y-125562671D01*
X120810908Y-125697517D01*
X120804501Y-125757116D01*
X120804501Y-125757123D01*
X120804500Y-125757135D01*
X120804500Y-127352870D01*
X120804501Y-127352879D01*
X120811020Y-127413525D01*
X120798613Y-127482284D01*
X120772530Y-127515628D01*
X120773227Y-127516325D01*
X120769776Y-127519776D01*
X120606161Y-127711343D01*
X120606160Y-127711346D01*
X120474533Y-127926140D01*
X120378126Y-128158889D01*
X120319317Y-128403848D01*
X120299551Y-128655000D01*
X114791530Y-128655000D01*
X114891561Y-128580116D01*
X114891562Y-128580115D01*
X113998748Y-127687300D01*
X114008409Y-127683784D01*
X114156844Y-127586157D01*
X114278764Y-127456930D01*
X114350768Y-127332215D01*
X115245115Y-128226562D01*
X115245116Y-128226561D01*
X115351803Y-128084047D01*
X115488908Y-127832958D01*
X115588890Y-127564895D01*
X115649699Y-127285362D01*
X115670108Y-127000001D01*
X115670108Y-126999998D01*
X115649699Y-126714637D01*
X115588890Y-126435104D01*
X115488908Y-126167041D01*
X115351808Y-125915961D01*
X115351807Y-125915960D01*
X115245115Y-125773436D01*
X114349803Y-126668747D01*
X114327660Y-126617413D01*
X114221567Y-126474906D01*
X114085470Y-126360706D01*
X113995782Y-126315663D01*
X114891562Y-125419883D01*
X114891561Y-125419882D01*
X114749046Y-125313196D01*
X114749038Y-125313191D01*
X114497957Y-125176091D01*
X114497958Y-125176091D01*
X114229895Y-125076109D01*
X113950362Y-125015300D01*
X113665001Y-124994891D01*
X113664999Y-124994891D01*
X113379637Y-125015300D01*
X113100104Y-125076109D01*
X112832041Y-125176091D01*
X112580961Y-125313191D01*
X112580953Y-125313196D01*
X112438437Y-125419882D01*
X112438436Y-125419883D01*
X113331252Y-126312699D01*
X113321591Y-126316216D01*
X113173156Y-126413843D01*
X113051236Y-126543070D01*
X112979231Y-126667784D01*
X112084883Y-125773436D01*
X112084882Y-125773437D01*
X111978196Y-125915953D01*
X111978191Y-125915961D01*
X111841091Y-126167041D01*
X111741109Y-126435104D01*
X111680300Y-126714637D01*
X111659891Y-126999998D01*
X111659891Y-127000001D01*
X110585500Y-127000001D01*
X110585499Y-125452128D01*
X110579091Y-125392517D01*
X110567789Y-125362216D01*
X110528797Y-125257671D01*
X110528793Y-125257664D01*
X110442547Y-125142455D01*
X110442544Y-125142452D01*
X110327335Y-125056206D01*
X110327328Y-125056202D01*
X110192482Y-125005908D01*
X110192483Y-125005908D01*
X110132883Y-124999501D01*
X110132881Y-124999500D01*
X110132873Y-124999500D01*
X110132864Y-124999500D01*
X107037129Y-124999500D01*
X107037123Y-124999501D01*
X106977516Y-125005908D01*
X106842671Y-125056202D01*
X106842664Y-125056206D01*
X106727455Y-125142452D01*
X106727452Y-125142455D01*
X106641206Y-125257664D01*
X106641202Y-125257671D01*
X106590908Y-125392517D01*
X106585002Y-125447454D01*
X106584501Y-125452123D01*
X106584500Y-125452135D01*
X106584500Y-128547870D01*
X102870473Y-128547870D01*
X102913395Y-128515739D01*
X103115739Y-128313395D01*
X103287226Y-128084315D01*
X103424367Y-127833161D01*
X103524369Y-127565046D01*
X103570524Y-127352873D01*
X103585195Y-127285433D01*
X103585195Y-127285432D01*
X103585196Y-127285428D01*
X103605610Y-127000000D01*
X103585196Y-126714572D01*
X103581358Y-126696930D01*
X103524371Y-126434962D01*
X103524370Y-126434960D01*
X103524369Y-126434954D01*
X103424367Y-126166839D01*
X103287372Y-125915953D01*
X103287229Y-125915690D01*
X103287224Y-125915682D01*
X103115745Y-125686612D01*
X103115729Y-125686594D01*
X102913405Y-125484270D01*
X102913387Y-125484254D01*
X102684317Y-125312775D01*
X102684309Y-125312770D01*
X102565073Y-125247662D01*
X102515668Y-125198257D01*
X102500500Y-125138830D01*
X102500500Y-124959306D01*
X102502027Y-124939905D01*
X102504219Y-124926068D01*
X102500585Y-124856727D01*
X102500500Y-124853482D01*
X102500500Y-124831493D01*
X102500500Y-124831488D01*
X102498199Y-124809601D01*
X102497946Y-124806391D01*
X102494312Y-124737034D01*
X102494311Y-124737028D01*
X102490687Y-124723505D01*
X102487139Y-124704364D01*
X102485674Y-124690428D01*
X102485674Y-124690427D01*
X102485674Y-124690424D01*
X102464214Y-124624379D01*
X102463291Y-124621265D01*
X102460628Y-124611325D01*
X102445320Y-124554192D01*
X102438954Y-124541699D01*
X102431508Y-124523722D01*
X102427178Y-124510394D01*
X102427175Y-124510387D01*
X102403670Y-124469678D01*
X102392443Y-124450232D01*
X102390920Y-124447427D01*
X102359383Y-124385531D01*
X102359382Y-124385529D01*
X102350560Y-124374635D01*
X102339538Y-124358598D01*
X102332532Y-124346463D01*
X102332531Y-124346461D01*
X102286060Y-124294850D01*
X102283952Y-124292382D01*
X102270118Y-124275299D01*
X102254577Y-124259758D01*
X102252341Y-124257402D01*
X102205872Y-124205793D01*
X102205871Y-124205792D01*
X102194525Y-124197549D01*
X102179734Y-124184915D01*
X101266819Y-123272000D01*
X101233334Y-123210677D01*
X101230500Y-123184319D01*
X101230500Y-119170758D01*
X101250185Y-119103719D01*
X101266819Y-119083077D01*
X101282413Y-119067483D01*
X101342026Y-119007870D01*
X109139500Y-119007870D01*
X109139501Y-119007876D01*
X109145908Y-119067483D01*
X109196202Y-119202328D01*
X109196206Y-119202335D01*
X109282452Y-119317544D01*
X109282455Y-119317547D01*
X109397664Y-119403793D01*
X109397671Y-119403797D01*
X109532517Y-119454091D01*
X109532516Y-119454091D01*
X109539444Y-119454835D01*
X109592127Y-119460500D01*
X111387872Y-119460499D01*
X111447483Y-119454091D01*
X111582331Y-119403796D01*
X111697546Y-119317546D01*
X111783796Y-119202331D01*
X111833002Y-119070401D01*
X111874872Y-119014468D01*
X111940337Y-118990050D01*
X112008610Y-119004901D01*
X112036865Y-119026053D01*
X112158917Y-119148105D01*
X112352421Y-119283600D01*
X112566507Y-119383429D01*
X112566516Y-119383433D01*
X112780000Y-119440634D01*
X112780000Y-118545501D01*
X112887685Y-118594680D01*
X112994237Y-118610000D01*
X113065763Y-118610000D01*
X113172315Y-118594680D01*
X113280000Y-118545501D01*
X113280000Y-119440634D01*
X113493483Y-119383433D01*
X113493492Y-119383429D01*
X113707578Y-119283600D01*
X113901082Y-119148105D01*
X114068105Y-118981082D01*
X114203600Y-118787578D01*
X114303429Y-118573492D01*
X114303432Y-118573486D01*
X114360636Y-118360000D01*
X113463686Y-118360000D01*
X113489493Y-118319844D01*
X113530000Y-118181889D01*
X113530000Y-118038111D01*
X113489493Y-117900156D01*
X113463686Y-117860000D01*
X114360636Y-117860000D01*
X114360635Y-117859999D01*
X114303432Y-117646513D01*
X114303429Y-117646507D01*
X114203600Y-117432422D01*
X114203599Y-117432420D01*
X114068113Y-117238926D01*
X114068108Y-117238920D01*
X113901082Y-117071894D01*
X113707578Y-116936399D01*
X113493492Y-116836570D01*
X113493486Y-116836567D01*
X113280000Y-116779364D01*
X113280000Y-117674498D01*
X113172315Y-117625320D01*
X113065763Y-117610000D01*
X112994237Y-117610000D01*
X112887685Y-117625320D01*
X112780000Y-117674498D01*
X112780000Y-116779364D01*
X112779999Y-116779364D01*
X112566513Y-116836567D01*
X112566507Y-116836570D01*
X112352422Y-116936399D01*
X112352420Y-116936400D01*
X112158926Y-117071886D01*
X112036865Y-117193947D01*
X111975542Y-117227431D01*
X111905850Y-117222447D01*
X111849917Y-117180575D01*
X111833002Y-117149598D01*
X111783797Y-117017671D01*
X111783793Y-117017664D01*
X111697547Y-116902455D01*
X111697544Y-116902452D01*
X111582335Y-116816206D01*
X111582328Y-116816202D01*
X111447482Y-116765908D01*
X111447483Y-116765908D01*
X111387883Y-116759501D01*
X111387881Y-116759500D01*
X111387873Y-116759500D01*
X111387864Y-116759500D01*
X109592129Y-116759500D01*
X109592123Y-116759501D01*
X109532516Y-116765908D01*
X109397671Y-116816202D01*
X109397664Y-116816206D01*
X109282455Y-116902452D01*
X109282452Y-116902455D01*
X109196206Y-117017664D01*
X109196202Y-117017671D01*
X109145908Y-117152517D01*
X109139501Y-117212116D01*
X109139500Y-117212135D01*
X109139500Y-119007870D01*
X101342026Y-119007870D01*
X101368495Y-118981401D01*
X101504035Y-118787830D01*
X101603903Y-118573663D01*
X101665063Y-118345408D01*
X101685659Y-118110000D01*
X101665063Y-117874592D01*
X101603903Y-117646337D01*
X101504035Y-117432171D01*
X101414054Y-117303663D01*
X101368494Y-117238597D01*
X101201402Y-117071506D01*
X101201395Y-117071501D01*
X101007834Y-116935967D01*
X101007830Y-116935965D01*
X101007828Y-116935964D01*
X100793663Y-116836097D01*
X100793659Y-116836096D01*
X100793655Y-116836094D01*
X100565413Y-116774938D01*
X100565403Y-116774936D01*
X100330001Y-116754341D01*
X100329999Y-116754341D01*
X100094596Y-116774936D01*
X100094586Y-116774938D01*
X99866344Y-116836094D01*
X99866335Y-116836098D01*
X99652171Y-116935964D01*
X99652169Y-116935965D01*
X99458600Y-117071503D01*
X99336673Y-117193430D01*
X99275350Y-117226914D01*
X99205658Y-117221930D01*
X99149725Y-117180058D01*
X99132810Y-117149081D01*
X99083797Y-117017671D01*
X99083793Y-117017664D01*
X98997547Y-116902455D01*
X98997544Y-116902452D01*
X98882335Y-116816206D01*
X98882328Y-116816202D01*
X98747482Y-116765908D01*
X98747483Y-116765908D01*
X98687883Y-116759501D01*
X98687881Y-116759500D01*
X98687873Y-116759500D01*
X98687864Y-116759500D01*
X96892129Y-116759500D01*
X96892123Y-116759501D01*
X96832516Y-116765908D01*
X96697671Y-116816202D01*
X96697664Y-116816206D01*
X96582455Y-116902452D01*
X96582452Y-116902455D01*
X96496206Y-117017664D01*
X96496202Y-117017671D01*
X96445908Y-117152517D01*
X96439501Y-117212116D01*
X96439500Y-117212135D01*
X96439500Y-119007870D01*
X85090500Y-119007870D01*
X85090500Y-116840000D01*
X86274341Y-116840000D01*
X86294936Y-117075403D01*
X86294938Y-117075413D01*
X86356094Y-117303655D01*
X86356096Y-117303659D01*
X86356097Y-117303663D01*
X86431487Y-117465337D01*
X86455965Y-117517830D01*
X86455967Y-117517834D01*
X86546066Y-117646507D01*
X86591505Y-117711401D01*
X86758599Y-117878495D01*
X86855384Y-117946265D01*
X86952165Y-118014032D01*
X86952167Y-118014033D01*
X86952170Y-118014035D01*
X87166337Y-118113903D01*
X87394592Y-118175063D01*
X87582918Y-118191539D01*
X87629999Y-118195659D01*
X87630000Y-118195659D01*
X87630001Y-118195659D01*
X87669234Y-118192226D01*
X87865408Y-118175063D01*
X88093663Y-118113903D01*
X88307830Y-118014035D01*
X88501401Y-117878495D01*
X88668495Y-117711401D01*
X88804035Y-117517830D01*
X88903903Y-117303663D01*
X88965063Y-117075408D01*
X88985659Y-116840000D01*
X88965063Y-116604592D01*
X88903903Y-116376337D01*
X88804035Y-116162171D01*
X88668495Y-115968599D01*
X88668494Y-115968597D01*
X88501402Y-115801506D01*
X88501396Y-115801501D01*
X88315842Y-115671575D01*
X88272217Y-115616998D01*
X88265023Y-115547500D01*
X88296546Y-115485145D01*
X88315842Y-115468425D01*
X88338026Y-115452891D01*
X88501401Y-115338495D01*
X88668495Y-115171401D01*
X88804035Y-114977830D01*
X88903903Y-114763663D01*
X88965063Y-114535408D01*
X88985659Y-114300000D01*
X88965063Y-114064592D01*
X88903903Y-113836337D01*
X88804035Y-113622171D01*
X88668495Y-113428599D01*
X88668494Y-113428597D01*
X88501402Y-113261506D01*
X88501401Y-113261505D01*
X88315842Y-113131575D01*
X88315841Y-113131574D01*
X88272216Y-113076997D01*
X88265024Y-113007498D01*
X88296546Y-112945144D01*
X88315836Y-112928428D01*
X88501401Y-112798495D01*
X88668495Y-112631401D01*
X88804035Y-112437830D01*
X88903903Y-112223663D01*
X88965063Y-111995408D01*
X88985659Y-111760000D01*
X88965063Y-111524592D01*
X88903903Y-111296337D01*
X88804035Y-111082171D01*
X88762054Y-111022216D01*
X88668496Y-110888600D01*
X88638173Y-110858277D01*
X88546179Y-110766283D01*
X88512696Y-110704963D01*
X88517680Y-110635271D01*
X88559551Y-110579337D01*
X88590529Y-110562422D01*
X88722086Y-110513354D01*
X88722093Y-110513350D01*
X88837187Y-110427190D01*
X88837190Y-110427187D01*
X88923350Y-110312093D01*
X88923354Y-110312086D01*
X88973596Y-110177379D01*
X88973598Y-110177372D01*
X88979999Y-110117844D01*
X88980000Y-110117827D01*
X88980000Y-109470000D01*
X88063686Y-109470000D01*
X88089493Y-109429844D01*
X88130000Y-109291889D01*
X88130000Y-109220000D01*
X114664540Y-109220000D01*
X114684326Y-109408256D01*
X114684327Y-109408259D01*
X114742818Y-109588277D01*
X114742821Y-109588284D01*
X114837467Y-109752216D01*
X114895899Y-109817111D01*
X114964129Y-109892888D01*
X115117265Y-110004148D01*
X115117270Y-110004151D01*
X115290192Y-110081142D01*
X115290197Y-110081144D01*
X115475354Y-110120500D01*
X115475355Y-110120500D01*
X115664644Y-110120500D01*
X115664646Y-110120500D01*
X115849803Y-110081144D01*
X116022730Y-110004151D01*
X116175871Y-109892888D01*
X116302533Y-109752216D01*
X116397179Y-109588284D01*
X116455674Y-109408256D01*
X116475460Y-109220000D01*
X116455674Y-109031744D01*
X116397179Y-108851716D01*
X116302533Y-108687784D01*
X116302532Y-108687784D01*
X116227350Y-108604284D01*
X116197120Y-108541292D01*
X116195500Y-108521312D01*
X116195500Y-100005451D01*
X116215185Y-99938412D01*
X116231815Y-99917774D01*
X116928998Y-99220590D01*
X116990319Y-99187107D01*
X117060010Y-99192091D01*
X117115944Y-99233962D01*
X117140361Y-99299427D01*
X117140411Y-99300161D01*
X117143964Y-99354364D01*
X117143965Y-99354374D01*
X117143966Y-99354380D01*
X117192642Y-99599096D01*
X117201518Y-99643716D01*
X117201521Y-99643730D01*
X117296349Y-99923080D01*
X117426825Y-100187660D01*
X117426829Y-100187667D01*
X117590725Y-100432955D01*
X117785241Y-100654758D01*
X118007044Y-100849274D01*
X118182246Y-100966340D01*
X118252335Y-101013172D01*
X118516923Y-101143652D01*
X118796278Y-101238481D01*
X119085620Y-101296034D01*
X119113888Y-101297886D01*
X119379993Y-101315329D01*
X119380000Y-101315329D01*
X119380007Y-101315329D01*
X119615675Y-101299881D01*
X119674380Y-101296034D01*
X119963722Y-101238481D01*
X120243077Y-101143652D01*
X120507665Y-101013172D01*
X120752957Y-100849273D01*
X120974758Y-100654758D01*
X121169273Y-100432957D01*
X121333172Y-100187665D01*
X121463652Y-99923077D01*
X121558481Y-99643722D01*
X121616034Y-99354380D01*
X121631759Y-99114467D01*
X121635329Y-99060007D01*
X121635329Y-99059992D01*
X121616035Y-98765636D01*
X121616034Y-98765620D01*
X121558481Y-98476278D01*
X121463652Y-98196923D01*
X121333172Y-97932336D01*
X121313157Y-97902382D01*
X121278042Y-97849829D01*
X121169273Y-97687043D01*
X121040432Y-97540128D01*
X120974758Y-97465241D01*
X120752955Y-97270725D01*
X120507667Y-97106829D01*
X120507660Y-97106825D01*
X120243080Y-96976349D01*
X119963730Y-96881521D01*
X119963724Y-96881519D01*
X119963722Y-96881519D01*
X119674380Y-96823966D01*
X119674374Y-96823965D01*
X119674364Y-96823964D01*
X119620161Y-96820411D01*
X119554553Y-96796383D01*
X119512350Y-96740699D01*
X119506953Y-96671038D01*
X119540073Y-96609518D01*
X119540410Y-96609178D01*
X122987821Y-93161768D01*
X123049142Y-93128285D01*
X123118834Y-93133269D01*
X123174767Y-93175141D01*
X123199184Y-93240605D01*
X123199500Y-93249451D01*
X123199500Y-109959141D01*
X123182887Y-110021141D01*
X123124821Y-110121714D01*
X123078856Y-110263181D01*
X123066326Y-110301744D01*
X123046540Y-110490000D01*
X123066326Y-110678256D01*
X123066327Y-110678259D01*
X123124818Y-110858277D01*
X123124820Y-110858281D01*
X123124821Y-110858284D01*
X123148246Y-110898857D01*
X123164361Y-110926769D01*
X123180833Y-110994669D01*
X123157980Y-111060696D01*
X123103058Y-111103886D01*
X123033505Y-111110527D01*
X122984088Y-111089086D01*
X122828234Y-110975851D01*
X122828229Y-110975848D01*
X122655307Y-110898857D01*
X122655302Y-110898855D01*
X122509501Y-110867865D01*
X122470146Y-110859500D01*
X122280854Y-110859500D01*
X122248397Y-110866398D01*
X122095697Y-110898855D01*
X122095692Y-110898857D01*
X121922770Y-110975848D01*
X121922765Y-110975851D01*
X121769629Y-111087111D01*
X121642966Y-111227785D01*
X121548321Y-111391715D01*
X121548318Y-111391722D01*
X121490950Y-111568284D01*
X121489826Y-111571744D01*
X121470040Y-111760000D01*
X121489826Y-111948256D01*
X121489827Y-111948259D01*
X121548318Y-112128277D01*
X121548321Y-112128284D01*
X121642967Y-112292216D01*
X121763901Y-112426526D01*
X121769629Y-112432888D01*
X121922765Y-112544148D01*
X121922770Y-112544151D01*
X122095692Y-112621142D01*
X122095697Y-112621144D01*
X122280854Y-112660500D01*
X122280855Y-112660500D01*
X122470144Y-112660500D01*
X122470146Y-112660500D01*
X122655303Y-112621144D01*
X122828230Y-112544151D01*
X122981371Y-112432888D01*
X122984288Y-112429647D01*
X122987100Y-112426526D01*
X123046587Y-112389879D01*
X123079248Y-112385500D01*
X138757257Y-112385500D01*
X138772877Y-112387224D01*
X138772904Y-112386939D01*
X138780666Y-112387673D01*
X138780666Y-112387672D01*
X138780667Y-112387673D01*
X138783999Y-112387568D01*
X138848847Y-112385531D01*
X138850794Y-112385500D01*
X138879347Y-112385500D01*
X138879350Y-112385500D01*
X138886228Y-112384630D01*
X138892041Y-112384172D01*
X138938627Y-112382709D01*
X138957869Y-112377117D01*
X138976912Y-112373174D01*
X138996792Y-112370664D01*
X139040122Y-112353507D01*
X139045646Y-112351617D01*
X139049396Y-112350527D01*
X139090390Y-112338618D01*
X139107629Y-112328422D01*
X139125103Y-112319862D01*
X139143727Y-112312488D01*
X139143727Y-112312487D01*
X139143732Y-112312486D01*
X139181449Y-112285082D01*
X139186305Y-112281892D01*
X139226420Y-112258170D01*
X139240589Y-112243999D01*
X139255379Y-112231368D01*
X139271587Y-112219594D01*
X139301299Y-112183676D01*
X139305212Y-112179376D01*
X139622772Y-111861816D01*
X139684094Y-111828334D01*
X139710452Y-111825500D01*
X140445252Y-111825500D01*
X140512291Y-111845185D01*
X140537400Y-111866526D01*
X140543126Y-111872885D01*
X140543130Y-111872889D01*
X140696265Y-111984148D01*
X140696270Y-111984151D01*
X140869192Y-112061142D01*
X140869197Y-112061144D01*
X141054354Y-112100500D01*
X141054355Y-112100500D01*
X141243644Y-112100500D01*
X141243646Y-112100500D01*
X141428803Y-112061144D01*
X141601730Y-111984151D01*
X141754871Y-111872888D01*
X141881533Y-111732216D01*
X141976179Y-111568284D01*
X142034674Y-111388256D01*
X142052321Y-111220345D01*
X142078905Y-111155732D01*
X142087952Y-111145636D01*
X149354788Y-103878801D01*
X149367042Y-103868986D01*
X149366859Y-103868764D01*
X149372868Y-103863791D01*
X149372877Y-103863786D01*
X149419607Y-103814022D01*
X149420846Y-103812743D01*
X149441120Y-103792471D01*
X149445379Y-103786978D01*
X149449152Y-103782561D01*
X149481062Y-103748582D01*
X149490713Y-103731024D01*
X149501396Y-103714761D01*
X149513673Y-103698936D01*
X149532185Y-103656153D01*
X149534738Y-103650941D01*
X149557197Y-103610092D01*
X149562180Y-103590680D01*
X149568481Y-103572280D01*
X149576437Y-103553896D01*
X149583729Y-103507852D01*
X149584906Y-103502171D01*
X149596500Y-103457019D01*
X149596500Y-103436983D01*
X149598027Y-103417582D01*
X149601160Y-103397804D01*
X149596775Y-103351415D01*
X149596500Y-103345577D01*
X149596500Y-81209451D01*
X149616185Y-81142412D01*
X149632815Y-81121774D01*
X149658984Y-81095605D01*
X149720306Y-81062121D01*
X149789998Y-81067105D01*
X149845931Y-81108977D01*
X149870348Y-81174441D01*
X149870192Y-81194093D01*
X149862677Y-81279996D01*
X149862677Y-81280002D01*
X149881929Y-81500062D01*
X149881930Y-81500070D01*
X149939104Y-81713445D01*
X149939105Y-81713447D01*
X149939106Y-81713450D01*
X149980355Y-81801909D01*
X150032466Y-81913662D01*
X150032468Y-81913666D01*
X150159170Y-82094615D01*
X150159175Y-82094621D01*
X150315378Y-82250824D01*
X150315384Y-82250829D01*
X150496333Y-82377531D01*
X150496335Y-82377532D01*
X150496338Y-82377534D01*
X150615748Y-82433215D01*
X150625189Y-82437618D01*
X150677628Y-82483790D01*
X150696780Y-82550984D01*
X150676564Y-82617865D01*
X150625189Y-82662382D01*
X150496340Y-82722465D01*
X150496338Y-82722466D01*
X150315377Y-82849175D01*
X150159175Y-83005377D01*
X150032466Y-83186338D01*
X150032465Y-83186340D01*
X149939107Y-83386548D01*
X149939104Y-83386554D01*
X149881930Y-83599929D01*
X149881929Y-83599937D01*
X149862677Y-83819997D01*
X149862677Y-83820002D01*
X149881929Y-84040062D01*
X149881930Y-84040070D01*
X149939104Y-84253445D01*
X149939105Y-84253447D01*
X149939106Y-84253450D01*
X150032465Y-84453662D01*
X150032466Y-84453662D01*
X150032468Y-84453666D01*
X150159170Y-84634615D01*
X150159175Y-84634621D01*
X150315378Y-84790824D01*
X150315384Y-84790829D01*
X150496333Y-84917531D01*
X150496335Y-84917532D01*
X150496338Y-84917534D01*
X150615748Y-84973215D01*
X150625189Y-84977618D01*
X150677628Y-85023790D01*
X150696780Y-85090984D01*
X150676564Y-85157865D01*
X150625189Y-85202382D01*
X150496340Y-85262465D01*
X150496338Y-85262466D01*
X150315377Y-85389175D01*
X150159175Y-85545377D01*
X150032466Y-85726338D01*
X150032465Y-85726340D01*
X149939107Y-85926548D01*
X149939104Y-85926554D01*
X149881930Y-86139929D01*
X149881929Y-86139937D01*
X149862677Y-86359997D01*
X149862677Y-86360002D01*
X149881929Y-86580062D01*
X149881930Y-86580070D01*
X149939104Y-86793445D01*
X149939105Y-86793447D01*
X149939106Y-86793450D01*
X150028998Y-86986225D01*
X150032466Y-86993662D01*
X150032468Y-86993666D01*
X150159170Y-87174615D01*
X150159175Y-87174621D01*
X150315378Y-87330824D01*
X150315384Y-87330829D01*
X150496333Y-87457531D01*
X150496335Y-87457532D01*
X150496338Y-87457534D01*
X150615748Y-87513215D01*
X150625189Y-87517618D01*
X150677628Y-87563790D01*
X150696780Y-87630984D01*
X150676564Y-87697865D01*
X150625189Y-87742382D01*
X150496340Y-87802465D01*
X150496338Y-87802466D01*
X150315377Y-87929175D01*
X150159175Y-88085377D01*
X150032466Y-88266338D01*
X150032465Y-88266340D01*
X149939107Y-88466548D01*
X149939104Y-88466554D01*
X149881930Y-88679929D01*
X149881929Y-88679937D01*
X149862677Y-88899997D01*
X149862677Y-88900002D01*
X149881929Y-89120062D01*
X149881930Y-89120070D01*
X149939104Y-89333445D01*
X149939105Y-89333447D01*
X149939106Y-89333450D01*
X149986016Y-89434049D01*
X150032466Y-89533662D01*
X150032468Y-89533666D01*
X150159170Y-89714615D01*
X150159175Y-89714621D01*
X150315378Y-89870824D01*
X150315384Y-89870829D01*
X150496333Y-89997531D01*
X150496335Y-89997532D01*
X150496338Y-89997534D01*
X150615748Y-90053215D01*
X150625189Y-90057618D01*
X150677628Y-90103790D01*
X150696780Y-90170984D01*
X150676564Y-90237865D01*
X150625189Y-90282382D01*
X150496340Y-90342465D01*
X150496338Y-90342466D01*
X150315377Y-90469175D01*
X150159175Y-90625377D01*
X150032466Y-90806338D01*
X150032465Y-90806340D01*
X149968965Y-90942517D01*
X149941169Y-91002127D01*
X149939107Y-91006548D01*
X149939104Y-91006554D01*
X149881930Y-91219929D01*
X149881929Y-91219937D01*
X149862677Y-91439997D01*
X149862677Y-91440002D01*
X149881929Y-91660062D01*
X149881930Y-91660070D01*
X149939104Y-91873445D01*
X149939105Y-91873447D01*
X149939106Y-91873450D01*
X149995036Y-91993393D01*
X150032466Y-92073662D01*
X150032468Y-92073666D01*
X150159170Y-92254615D01*
X150159175Y-92254621D01*
X150315378Y-92410824D01*
X150315384Y-92410829D01*
X150496333Y-92537531D01*
X150496335Y-92537532D01*
X150496338Y-92537534D01*
X150615682Y-92593185D01*
X150625189Y-92597618D01*
X150677628Y-92643790D01*
X150696780Y-92710984D01*
X150676564Y-92777865D01*
X150625189Y-92822382D01*
X150496340Y-92882465D01*
X150496338Y-92882466D01*
X150315377Y-93009175D01*
X150159175Y-93165377D01*
X150032466Y-93346338D01*
X150032465Y-93346340D01*
X149939107Y-93546548D01*
X149939104Y-93546554D01*
X149881930Y-93759929D01*
X149881929Y-93759937D01*
X149862677Y-93979997D01*
X149862677Y-93980002D01*
X149881929Y-94200062D01*
X149881930Y-94200070D01*
X149939104Y-94413445D01*
X149939105Y-94413447D01*
X149939106Y-94413450D01*
X149953813Y-94444989D01*
X150032466Y-94613662D01*
X150032468Y-94613666D01*
X150159170Y-94794615D01*
X150159175Y-94794621D01*
X150315378Y-94950824D01*
X150315384Y-94950829D01*
X150496333Y-95077531D01*
X150496335Y-95077532D01*
X150496338Y-95077534D01*
X150582762Y-95117834D01*
X150625189Y-95137618D01*
X150677628Y-95183790D01*
X150696780Y-95250984D01*
X150676564Y-95317865D01*
X150625189Y-95362382D01*
X150496340Y-95422465D01*
X150496338Y-95422466D01*
X150315377Y-95549175D01*
X150159175Y-95705377D01*
X150032466Y-95886338D01*
X150032465Y-95886340D01*
X149939107Y-96086548D01*
X149939104Y-96086554D01*
X149881930Y-96299929D01*
X149881929Y-96299937D01*
X149862677Y-96519997D01*
X149862677Y-96520002D01*
X149881929Y-96740062D01*
X149881930Y-96740070D01*
X149939104Y-96953445D01*
X149939105Y-96953447D01*
X149939106Y-96953450D01*
X149949784Y-96976349D01*
X150032466Y-97153662D01*
X150032468Y-97153666D01*
X150159170Y-97334615D01*
X150159175Y-97334621D01*
X150315378Y-97490824D01*
X150315384Y-97490829D01*
X150496333Y-97617531D01*
X150496335Y-97617532D01*
X150496338Y-97617534D01*
X150615748Y-97673215D01*
X150625189Y-97677618D01*
X150677628Y-97723790D01*
X150696780Y-97790984D01*
X150676564Y-97857865D01*
X150625189Y-97902382D01*
X150496340Y-97962465D01*
X150496338Y-97962466D01*
X150315377Y-98089175D01*
X150159175Y-98245377D01*
X150032466Y-98426338D01*
X150032465Y-98426340D01*
X149939107Y-98626548D01*
X149939104Y-98626554D01*
X149881930Y-98839929D01*
X149881929Y-98839937D01*
X149862677Y-99059997D01*
X149862677Y-99060002D01*
X149881929Y-99280062D01*
X149881930Y-99280070D01*
X149939104Y-99493445D01*
X149939105Y-99493447D01*
X149939106Y-99493450D01*
X150010135Y-99645773D01*
X150032466Y-99693662D01*
X150032468Y-99693666D01*
X150159170Y-99874615D01*
X150159175Y-99874621D01*
X150315378Y-100030824D01*
X150315384Y-100030829D01*
X150496333Y-100157531D01*
X150496335Y-100157532D01*
X150496338Y-100157534D01*
X150615748Y-100213215D01*
X150625189Y-100217618D01*
X150677628Y-100263790D01*
X150696780Y-100330984D01*
X150676564Y-100397865D01*
X150625189Y-100442382D01*
X150496340Y-100502465D01*
X150496338Y-100502466D01*
X150315377Y-100629175D01*
X150159175Y-100785377D01*
X150032466Y-100966338D01*
X150032465Y-100966340D01*
X149939107Y-101166548D01*
X149939104Y-101166554D01*
X149881930Y-101379929D01*
X149881929Y-101379937D01*
X149862677Y-101599997D01*
X149862677Y-101600002D01*
X149881929Y-101820062D01*
X149881930Y-101820070D01*
X149939104Y-102033445D01*
X149939105Y-102033447D01*
X149939106Y-102033450D01*
X150012890Y-102191680D01*
X150032466Y-102233662D01*
X150032468Y-102233666D01*
X150159170Y-102414615D01*
X150159175Y-102414621D01*
X150315378Y-102570824D01*
X150315384Y-102570829D01*
X150496333Y-102697531D01*
X150496335Y-102697532D01*
X150496338Y-102697534D01*
X150615748Y-102753215D01*
X150625189Y-102757618D01*
X150677628Y-102803790D01*
X150696780Y-102870984D01*
X150676564Y-102937865D01*
X150625189Y-102982382D01*
X150496340Y-103042465D01*
X150496338Y-103042466D01*
X150315377Y-103169175D01*
X150159175Y-103325377D01*
X150032466Y-103506338D01*
X150032465Y-103506340D01*
X149997541Y-103581235D01*
X149942657Y-103698936D01*
X149939107Y-103706548D01*
X149939104Y-103706554D01*
X149881930Y-103919929D01*
X149881929Y-103919937D01*
X149862677Y-104139997D01*
X149862677Y-104140002D01*
X149881929Y-104360062D01*
X149881930Y-104360070D01*
X149939104Y-104573445D01*
X149939105Y-104573447D01*
X149939106Y-104573450D01*
X149973759Y-104647763D01*
X150032466Y-104773662D01*
X150032468Y-104773666D01*
X150159170Y-104954615D01*
X150159175Y-104954621D01*
X150315378Y-105110824D01*
X150315384Y-105110829D01*
X150496333Y-105237531D01*
X150496335Y-105237532D01*
X150496338Y-105237534D01*
X150696550Y-105330894D01*
X150909932Y-105388070D01*
X151067123Y-105401822D01*
X151129998Y-105407323D01*
X151130000Y-105407323D01*
X151130002Y-105407323D01*
X151185016Y-105402509D01*
X151350068Y-105388070D01*
X151563450Y-105330894D01*
X151763662Y-105237534D01*
X151939378Y-105114496D01*
X152005582Y-105092170D01*
X152073350Y-105109180D01*
X152121163Y-105160128D01*
X152134500Y-105216072D01*
X152134500Y-125014373D01*
X152132973Y-125033772D01*
X152130781Y-125047611D01*
X152134415Y-125116956D01*
X152134500Y-125120201D01*
X152134500Y-125142192D01*
X152134528Y-125142454D01*
X152136797Y-125164059D01*
X152137051Y-125167290D01*
X152140686Y-125236643D01*
X152140688Y-125236653D01*
X152144315Y-125250189D01*
X152147860Y-125269314D01*
X152149325Y-125283249D01*
X152149326Y-125283256D01*
X152158917Y-125312776D01*
X152170784Y-125349298D01*
X152171705Y-125352409D01*
X152189679Y-125419486D01*
X152189684Y-125419498D01*
X152196043Y-125431978D01*
X152203488Y-125449949D01*
X152207820Y-125463282D01*
X152242537Y-125523414D01*
X152244085Y-125526266D01*
X152262632Y-125562664D01*
X152275617Y-125588149D01*
X152275619Y-125588151D01*
X152275620Y-125588153D01*
X152284438Y-125599043D01*
X152295454Y-125615070D01*
X152302465Y-125627213D01*
X152302470Y-125627220D01*
X152348939Y-125678831D01*
X152351043Y-125681295D01*
X152364882Y-125698382D01*
X152380423Y-125713922D01*
X152382657Y-125716277D01*
X152419447Y-125757135D01*
X152429129Y-125767888D01*
X152436767Y-125773437D01*
X152440468Y-125776126D01*
X152455265Y-125788764D01*
X152983087Y-126316587D01*
X153016572Y-126377910D01*
X153019406Y-126404268D01*
X153019406Y-126404269D01*
X153016572Y-126430627D01*
X152954804Y-126714566D01*
X152934390Y-126999998D01*
X152934390Y-127000001D01*
X152954804Y-127285433D01*
X153015628Y-127565037D01*
X153015630Y-127565043D01*
X153015631Y-127565046D01*
X153088345Y-127760000D01*
X153115635Y-127833166D01*
X153252770Y-128084309D01*
X153252775Y-128084317D01*
X153424254Y-128313387D01*
X153424270Y-128313405D01*
X153626594Y-128515729D01*
X153626612Y-128515745D01*
X153855682Y-128687224D01*
X153855690Y-128687229D01*
X154106833Y-128824364D01*
X154106832Y-128824364D01*
X154106836Y-128824365D01*
X154106839Y-128824367D01*
X154374954Y-128924369D01*
X154374960Y-128924370D01*
X154374962Y-128924371D01*
X154654566Y-128985195D01*
X154654568Y-128985195D01*
X154654572Y-128985196D01*
X154908220Y-129003337D01*
X154939999Y-129005610D01*
X154940000Y-129005610D01*
X154940001Y-129005610D01*
X154968595Y-129003564D01*
X155225428Y-128985196D01*
X155415742Y-128943796D01*
X155505037Y-128924371D01*
X155505037Y-128924370D01*
X155505046Y-128924369D01*
X155773161Y-128824367D01*
X156024315Y-128687226D01*
X156253395Y-128515739D01*
X156455739Y-128313395D01*
X156627226Y-128084315D01*
X156764367Y-127833161D01*
X156864369Y-127565046D01*
X156910524Y-127352873D01*
X156925195Y-127285433D01*
X156925195Y-127285432D01*
X156925196Y-127285428D01*
X156945610Y-127000000D01*
X156925196Y-126714572D01*
X156921358Y-126696930D01*
X156864371Y-126434962D01*
X156864370Y-126434960D01*
X156864369Y-126434954D01*
X156764367Y-126166839D01*
X156627372Y-125915953D01*
X156627229Y-125915690D01*
X156627224Y-125915682D01*
X156455745Y-125686612D01*
X156455729Y-125686594D01*
X156253405Y-125484270D01*
X156253387Y-125484254D01*
X156024317Y-125312775D01*
X156024309Y-125312770D01*
X155773166Y-125175635D01*
X155773167Y-125175635D01*
X155594903Y-125109146D01*
X155505046Y-125075631D01*
X155505043Y-125075630D01*
X155505037Y-125075628D01*
X155225433Y-125014804D01*
X154940001Y-124994390D01*
X154939999Y-124994390D01*
X154654566Y-125014804D01*
X154370627Y-125076572D01*
X154344269Y-125079406D01*
X154344268Y-125079406D01*
X154277229Y-125059721D01*
X154256587Y-125043087D01*
X153971819Y-124758318D01*
X153938334Y-124696995D01*
X153935500Y-124670637D01*
X153935500Y-103330000D01*
X172116841Y-103330000D01*
X172137436Y-103565403D01*
X172137438Y-103565413D01*
X172198594Y-103793655D01*
X172198596Y-103793659D01*
X172198597Y-103793663D01*
X172257480Y-103919937D01*
X172298465Y-104007830D01*
X172298467Y-104007834D01*
X172391013Y-104140002D01*
X172434005Y-104201401D01*
X172601099Y-104368495D01*
X172667262Y-104414823D01*
X172794665Y-104504032D01*
X172794667Y-104504033D01*
X172794670Y-104504035D01*
X173008837Y-104603903D01*
X173237092Y-104665063D01*
X173425418Y-104681539D01*
X173472499Y-104685659D01*
X173472500Y-104685659D01*
X173472501Y-104685659D01*
X173511734Y-104682226D01*
X173707908Y-104665063D01*
X173936163Y-104603903D01*
X174150330Y-104504035D01*
X174343901Y-104368495D01*
X174510995Y-104201401D01*
X174646535Y-104007830D01*
X174746403Y-103793663D01*
X174774627Y-103688330D01*
X176545710Y-103688330D01*
X176575925Y-103911387D01*
X176578700Y-103919929D01*
X176645483Y-104125465D01*
X176752146Y-104323678D01*
X176752148Y-104323681D01*
X176892489Y-104499663D01*
X176892491Y-104499664D01*
X176892492Y-104499666D01*
X177062004Y-104647765D01*
X177255236Y-104763215D01*
X177449014Y-104835941D01*
X177465976Y-104842307D01*
X177687450Y-104882500D01*
X177687453Y-104882500D01*
X177856148Y-104882500D01*
X177856155Y-104882500D01*
X178024188Y-104867377D01*
X178024192Y-104867376D01*
X178241160Y-104807496D01*
X178241162Y-104807495D01*
X178241170Y-104807493D01*
X178443973Y-104709829D01*
X178626078Y-104577522D01*
X178781632Y-104414825D01*
X178905635Y-104226968D01*
X178916563Y-104201402D01*
X178994100Y-104019995D01*
X178994099Y-104019995D01*
X178994103Y-104019988D01*
X179044191Y-103800537D01*
X179049230Y-103688330D01*
X181117710Y-103688330D01*
X181147925Y-103911387D01*
X181150700Y-103919929D01*
X181217483Y-104125465D01*
X181324146Y-104323678D01*
X181324148Y-104323681D01*
X181464489Y-104499663D01*
X181464491Y-104499664D01*
X181464492Y-104499666D01*
X181634004Y-104647765D01*
X181827236Y-104763215D01*
X182021014Y-104835941D01*
X182037976Y-104842307D01*
X182259450Y-104882500D01*
X182259453Y-104882500D01*
X182428148Y-104882500D01*
X182428155Y-104882500D01*
X182596188Y-104867377D01*
X182596192Y-104867376D01*
X182813160Y-104807496D01*
X182813162Y-104807495D01*
X182813170Y-104807493D01*
X183015973Y-104709829D01*
X183198078Y-104577522D01*
X183353632Y-104414825D01*
X183477635Y-104226968D01*
X183488563Y-104201402D01*
X183566100Y-104019995D01*
X183566099Y-104019995D01*
X183566103Y-104019988D01*
X183616191Y-103800537D01*
X183626290Y-103575670D01*
X183596075Y-103352613D01*
X183526517Y-103138536D01*
X183419852Y-102940319D01*
X183360853Y-102866337D01*
X183279510Y-102764336D01*
X183279508Y-102764334D01*
X183109996Y-102616235D01*
X182916764Y-102500785D01*
X182811394Y-102461239D01*
X182706023Y-102421692D01*
X182484550Y-102381500D01*
X182484547Y-102381500D01*
X182315845Y-102381500D01*
X182277399Y-102384960D01*
X182147813Y-102396622D01*
X182147807Y-102396623D01*
X181930839Y-102456503D01*
X181930826Y-102456508D01*
X181728033Y-102554167D01*
X181728025Y-102554171D01*
X181545927Y-102686473D01*
X181545925Y-102686474D01*
X181390366Y-102849176D01*
X181266363Y-103037033D01*
X181177899Y-103244004D01*
X181177895Y-103244017D01*
X181127810Y-103463457D01*
X181127808Y-103463468D01*
X181119154Y-103656169D01*
X181117710Y-103688330D01*
X179049230Y-103688330D01*
X179054290Y-103575670D01*
X179024075Y-103352613D01*
X178954517Y-103138536D01*
X178847852Y-102940319D01*
X178788853Y-102866337D01*
X178707510Y-102764336D01*
X178707508Y-102764334D01*
X178537996Y-102616235D01*
X178344764Y-102500785D01*
X178239394Y-102461239D01*
X178134023Y-102421692D01*
X177912550Y-102381500D01*
X177912547Y-102381500D01*
X177743845Y-102381500D01*
X177705399Y-102384960D01*
X177575813Y-102396622D01*
X177575807Y-102396623D01*
X177358839Y-102456503D01*
X177358826Y-102456508D01*
X177156033Y-102554167D01*
X177156025Y-102554171D01*
X176973927Y-102686473D01*
X176973925Y-102686474D01*
X176818366Y-102849176D01*
X176694363Y-103037033D01*
X176605899Y-103244004D01*
X176605895Y-103244017D01*
X176555810Y-103463457D01*
X176555808Y-103463468D01*
X176547154Y-103656169D01*
X176545710Y-103688330D01*
X174774627Y-103688330D01*
X174807563Y-103565408D01*
X174828159Y-103330000D01*
X174807563Y-103094592D01*
X174746403Y-102866337D01*
X174646535Y-102652171D01*
X174624098Y-102620128D01*
X174510996Y-102458600D01*
X174467011Y-102414615D01*
X174389067Y-102336671D01*
X174355584Y-102275351D01*
X174360568Y-102205659D01*
X174402439Y-102149725D01*
X174433415Y-102132810D01*
X174564831Y-102083796D01*
X174680046Y-101997546D01*
X174766296Y-101882331D01*
X174816591Y-101747483D01*
X174823000Y-101687873D01*
X174822999Y-100640330D01*
X176545710Y-100640330D01*
X176575925Y-100863387D01*
X176575926Y-100863390D01*
X176645483Y-101077465D01*
X176752146Y-101275678D01*
X176752148Y-101275681D01*
X176892489Y-101451663D01*
X176892491Y-101451664D01*
X176892492Y-101451666D01*
X177062004Y-101599765D01*
X177255236Y-101715215D01*
X177439555Y-101784391D01*
X177465976Y-101794307D01*
X177687450Y-101834500D01*
X177687453Y-101834500D01*
X177856148Y-101834500D01*
X177856155Y-101834500D01*
X178024188Y-101819377D01*
X178047686Y-101812892D01*
X178241160Y-101759496D01*
X178241162Y-101759495D01*
X178241170Y-101759493D01*
X178443973Y-101661829D01*
X178626078Y-101529522D01*
X178781632Y-101366825D01*
X178905635Y-101178968D01*
X178994103Y-100971988D01*
X179044191Y-100752537D01*
X179049230Y-100640330D01*
X181117710Y-100640330D01*
X181147925Y-100863387D01*
X181147926Y-100863390D01*
X181217483Y-101077465D01*
X181324146Y-101275678D01*
X181324148Y-101275681D01*
X181464489Y-101451663D01*
X181464491Y-101451664D01*
X181464492Y-101451666D01*
X181634004Y-101599765D01*
X181827236Y-101715215D01*
X182011555Y-101784391D01*
X182037976Y-101794307D01*
X182259450Y-101834500D01*
X182259453Y-101834500D01*
X182428148Y-101834500D01*
X182428155Y-101834500D01*
X182596188Y-101819377D01*
X182619686Y-101812892D01*
X182813160Y-101759496D01*
X182813162Y-101759495D01*
X182813170Y-101759493D01*
X183015973Y-101661829D01*
X183198078Y-101529522D01*
X183353632Y-101366825D01*
X183477635Y-101178968D01*
X183566103Y-100971988D01*
X183616191Y-100752537D01*
X183626290Y-100527670D01*
X183596075Y-100304613D01*
X183526517Y-100090536D01*
X183419852Y-99892319D01*
X183279508Y-99716334D01*
X183109996Y-99568235D01*
X182916764Y-99452785D01*
X182757950Y-99393181D01*
X182706023Y-99373692D01*
X182484550Y-99333500D01*
X182484547Y-99333500D01*
X182315845Y-99333500D01*
X182277399Y-99336960D01*
X182147813Y-99348622D01*
X182147807Y-99348623D01*
X181930839Y-99408503D01*
X181930826Y-99408508D01*
X181728033Y-99506167D01*
X181728025Y-99506171D01*
X181545927Y-99638473D01*
X181545925Y-99638474D01*
X181390366Y-99801176D01*
X181266363Y-99989033D01*
X181177899Y-100196004D01*
X181177895Y-100196017D01*
X181127810Y-100415457D01*
X181127808Y-100415468D01*
X181122769Y-100527674D01*
X181117710Y-100640330D01*
X179049230Y-100640330D01*
X179054290Y-100527670D01*
X179024075Y-100304613D01*
X178954517Y-100090536D01*
X178847852Y-99892319D01*
X178707508Y-99716334D01*
X178537996Y-99568235D01*
X178344764Y-99452785D01*
X178185950Y-99393181D01*
X178134023Y-99373692D01*
X177912550Y-99333500D01*
X177912547Y-99333500D01*
X177743845Y-99333500D01*
X177705399Y-99336960D01*
X177575813Y-99348622D01*
X177575807Y-99348623D01*
X177358839Y-99408503D01*
X177358826Y-99408508D01*
X177156033Y-99506167D01*
X177156025Y-99506171D01*
X176973927Y-99638473D01*
X176973925Y-99638474D01*
X176818366Y-99801176D01*
X176694363Y-99989033D01*
X176605899Y-100196004D01*
X176605895Y-100196017D01*
X176555810Y-100415457D01*
X176555808Y-100415468D01*
X176550769Y-100527674D01*
X176545710Y-100640330D01*
X174822999Y-100640330D01*
X174822999Y-99892128D01*
X174816591Y-99832517D01*
X174814557Y-99827064D01*
X174766297Y-99697671D01*
X174766293Y-99697664D01*
X174680047Y-99582455D01*
X174680044Y-99582452D01*
X174564835Y-99496206D01*
X174564828Y-99496202D01*
X174429982Y-99445908D01*
X174429983Y-99445908D01*
X174370383Y-99439501D01*
X174370381Y-99439500D01*
X174370373Y-99439500D01*
X174370364Y-99439500D01*
X172574629Y-99439500D01*
X172574623Y-99439501D01*
X172515016Y-99445908D01*
X172380171Y-99496202D01*
X172380164Y-99496206D01*
X172264955Y-99582452D01*
X172264952Y-99582455D01*
X172178706Y-99697664D01*
X172178702Y-99697671D01*
X172128408Y-99832517D01*
X172123882Y-99874620D01*
X172122001Y-99892123D01*
X172122000Y-99892135D01*
X172122000Y-101687870D01*
X172122001Y-101687876D01*
X172128408Y-101747483D01*
X172178702Y-101882328D01*
X172178706Y-101882335D01*
X172264952Y-101997544D01*
X172264955Y-101997547D01*
X172380164Y-102083793D01*
X172380171Y-102083797D01*
X172511581Y-102132810D01*
X172567515Y-102174681D01*
X172591932Y-102240145D01*
X172577080Y-102308418D01*
X172555930Y-102336673D01*
X172434003Y-102458600D01*
X172298465Y-102652169D01*
X172298464Y-102652171D01*
X172198598Y-102866335D01*
X172198594Y-102866344D01*
X172137438Y-103094586D01*
X172137436Y-103094596D01*
X172116841Y-103329999D01*
X172116841Y-103330000D01*
X153935500Y-103330000D01*
X153935500Y-74850195D01*
X154369840Y-74850195D01*
X154374225Y-74896583D01*
X154374500Y-74902421D01*
X154374500Y-98494656D01*
X154372775Y-98510273D01*
X154373061Y-98510300D01*
X154372326Y-98518067D01*
X154374469Y-98586247D01*
X154374500Y-98588194D01*
X154374500Y-98616744D01*
X154374501Y-98616761D01*
X154375368Y-98623632D01*
X154375826Y-98629451D01*
X154377290Y-98676025D01*
X154377291Y-98676028D01*
X154382880Y-98695268D01*
X154386824Y-98714312D01*
X154389336Y-98734193D01*
X154401785Y-98765636D01*
X154406490Y-98777520D01*
X154408382Y-98783048D01*
X154421380Y-98827787D01*
X154421381Y-98827789D01*
X154421382Y-98827791D01*
X154427940Y-98838881D01*
X154445123Y-98906603D01*
X154444529Y-98914960D01*
X154443347Y-98926208D01*
X154463133Y-99114464D01*
X154463134Y-99114467D01*
X154521625Y-99294485D01*
X154521628Y-99294492D01*
X154616274Y-99458424D01*
X154727952Y-99582455D01*
X154742936Y-99599096D01*
X154896072Y-99710356D01*
X154896077Y-99710359D01*
X155068999Y-99787350D01*
X155069004Y-99787352D01*
X155254161Y-99826708D01*
X155254162Y-99826708D01*
X155443451Y-99826708D01*
X155443453Y-99826708D01*
X155628610Y-99787352D01*
X155801537Y-99710359D01*
X155954678Y-99599096D01*
X156081340Y-99458424D01*
X156175986Y-99294492D01*
X156234481Y-99114464D01*
X156254267Y-98926208D01*
X156242413Y-98813427D01*
X156254982Y-98744699D01*
X156292850Y-98700148D01*
X156330371Y-98672888D01*
X156457033Y-98532216D01*
X156551679Y-98368284D01*
X156610174Y-98188256D01*
X156629960Y-98000000D01*
X156610174Y-97811744D01*
X156551679Y-97631716D01*
X156457033Y-97467784D01*
X156454743Y-97465241D01*
X156381850Y-97384284D01*
X156351620Y-97321292D01*
X156350000Y-97301312D01*
X156350000Y-93699230D01*
X156369685Y-93632191D01*
X156422489Y-93586436D01*
X156491647Y-93576492D01*
X156524436Y-93585951D01*
X156692192Y-93660642D01*
X156692197Y-93660644D01*
X156877354Y-93700000D01*
X156877355Y-93700000D01*
X157066644Y-93700000D01*
X157066646Y-93700000D01*
X157251803Y-93660644D01*
X157424730Y-93583651D01*
X157577871Y-93472388D01*
X157704533Y-93331716D01*
X157799179Y-93167784D01*
X157857674Y-92987756D01*
X157877460Y-92799500D01*
X157871995Y-92747500D01*
X162162540Y-92747500D01*
X162182326Y-92935756D01*
X162182327Y-92935759D01*
X162240818Y-93115777D01*
X162240821Y-93115784D01*
X162335467Y-93279716D01*
X162367831Y-93315659D01*
X162410650Y-93363215D01*
X162440880Y-93426206D01*
X162442500Y-93446187D01*
X162442500Y-95967755D01*
X162440775Y-95983372D01*
X162441061Y-95983399D01*
X162440326Y-95991166D01*
X162442469Y-96059346D01*
X162442500Y-96061293D01*
X162442500Y-96089843D01*
X162442501Y-96089860D01*
X162443368Y-96096731D01*
X162443826Y-96102550D01*
X162445290Y-96149124D01*
X162445291Y-96149127D01*
X162450880Y-96168367D01*
X162454824Y-96187411D01*
X162457336Y-96207291D01*
X162474490Y-96250619D01*
X162476382Y-96256147D01*
X162489381Y-96300888D01*
X162499580Y-96318134D01*
X162508138Y-96335603D01*
X162515514Y-96354232D01*
X162542898Y-96391923D01*
X162546106Y-96396807D01*
X162569827Y-96436916D01*
X162569833Y-96436924D01*
X162583990Y-96451080D01*
X162596628Y-96465876D01*
X162608405Y-96482086D01*
X162608406Y-96482087D01*
X162644309Y-96511788D01*
X162648620Y-96515710D01*
X165474885Y-99341976D01*
X166408538Y-100275629D01*
X166442023Y-100336952D01*
X166444178Y-100350348D01*
X166450354Y-100409106D01*
X166461826Y-100518256D01*
X166461827Y-100518259D01*
X166520318Y-100698277D01*
X166520321Y-100698284D01*
X166614967Y-100862216D01*
X166713813Y-100971995D01*
X166741629Y-101002888D01*
X166894765Y-101114148D01*
X166894770Y-101114151D01*
X167067692Y-101191142D01*
X167067697Y-101191144D01*
X167252854Y-101230500D01*
X167252855Y-101230500D01*
X167442144Y-101230500D01*
X167442146Y-101230500D01*
X167627303Y-101191144D01*
X167800230Y-101114151D01*
X167953371Y-101002888D01*
X168080033Y-100862216D01*
X168174679Y-100698284D01*
X168233174Y-100518256D01*
X168252960Y-100330000D01*
X168233174Y-100141744D01*
X168174679Y-99961716D01*
X168080033Y-99797784D01*
X167953371Y-99657112D01*
X167953370Y-99657111D01*
X167800234Y-99545851D01*
X167800229Y-99545848D01*
X167627307Y-99468857D01*
X167627302Y-99468855D01*
X167472298Y-99435909D01*
X167442146Y-99429500D01*
X167442145Y-99429500D01*
X167382952Y-99429500D01*
X167315913Y-99409815D01*
X167295271Y-99393181D01*
X163729819Y-95827728D01*
X163696334Y-95766405D01*
X163693500Y-95740047D01*
X163693500Y-94440000D01*
X172116841Y-94440000D01*
X172137436Y-94675403D01*
X172137438Y-94675413D01*
X172198594Y-94903655D01*
X172198596Y-94903659D01*
X172198597Y-94903663D01*
X172269667Y-95056072D01*
X172298465Y-95117830D01*
X172298467Y-95117834D01*
X172392886Y-95252677D01*
X172434005Y-95311401D01*
X172601099Y-95478495D01*
X172696795Y-95545502D01*
X172794665Y-95614032D01*
X172794667Y-95614033D01*
X172794670Y-95614035D01*
X173008837Y-95713903D01*
X173237092Y-95775063D01*
X173423923Y-95791409D01*
X173472499Y-95795659D01*
X173472500Y-95795659D01*
X173472501Y-95795659D01*
X173511734Y-95792226D01*
X173707908Y-95775063D01*
X173936163Y-95713903D01*
X174150330Y-95614035D01*
X174343901Y-95478495D01*
X174510995Y-95311401D01*
X174646535Y-95117830D01*
X174746403Y-94903663D01*
X174807563Y-94675408D01*
X174819031Y-94544330D01*
X176545710Y-94544330D01*
X176575925Y-94767387D01*
X176575926Y-94767390D01*
X176645483Y-94981465D01*
X176752146Y-95179678D01*
X176752148Y-95179681D01*
X176892489Y-95355663D01*
X176892491Y-95355664D01*
X176892492Y-95355666D01*
X177062004Y-95503765D01*
X177255236Y-95619215D01*
X177465976Y-95698307D01*
X177687450Y-95738500D01*
X177687453Y-95738500D01*
X177856148Y-95738500D01*
X177856155Y-95738500D01*
X178024188Y-95723377D01*
X178058516Y-95713903D01*
X178241160Y-95663496D01*
X178241162Y-95663495D01*
X178241170Y-95663493D01*
X178443973Y-95565829D01*
X178626078Y-95433522D01*
X178781632Y-95270825D01*
X178905635Y-95082968D01*
X178960547Y-94954497D01*
X178994100Y-94875995D01*
X178994099Y-94875995D01*
X178994103Y-94875988D01*
X179044191Y-94656537D01*
X179049230Y-94544330D01*
X181117710Y-94544330D01*
X181147925Y-94767387D01*
X181147926Y-94767390D01*
X181217483Y-94981465D01*
X181324146Y-95179678D01*
X181324148Y-95179681D01*
X181464489Y-95355663D01*
X181464491Y-95355664D01*
X181464492Y-95355666D01*
X181634004Y-95503765D01*
X181827236Y-95619215D01*
X182037976Y-95698307D01*
X182259450Y-95738500D01*
X182259453Y-95738500D01*
X182428148Y-95738500D01*
X182428155Y-95738500D01*
X182596188Y-95723377D01*
X182630516Y-95713903D01*
X182813160Y-95663496D01*
X182813162Y-95663495D01*
X182813170Y-95663493D01*
X183015973Y-95565829D01*
X183198078Y-95433522D01*
X183353632Y-95270825D01*
X183477635Y-95082968D01*
X183532547Y-94954497D01*
X183566100Y-94875995D01*
X183566099Y-94875995D01*
X183566103Y-94875988D01*
X183616191Y-94656537D01*
X183626290Y-94431670D01*
X183596075Y-94208613D01*
X183526517Y-93994536D01*
X183516727Y-93976344D01*
X183419853Y-93796321D01*
X183419851Y-93796318D01*
X183279510Y-93620336D01*
X183279508Y-93620334D01*
X183109996Y-93472235D01*
X182916764Y-93356785D01*
X182774398Y-93303354D01*
X182706023Y-93277692D01*
X182484550Y-93237500D01*
X182484547Y-93237500D01*
X182315845Y-93237500D01*
X182281345Y-93240605D01*
X182147813Y-93252622D01*
X182147807Y-93252623D01*
X181930839Y-93312503D01*
X181930826Y-93312508D01*
X181728033Y-93410167D01*
X181728025Y-93410171D01*
X181545927Y-93542473D01*
X181545925Y-93542474D01*
X181390366Y-93705176D01*
X181266363Y-93893033D01*
X181177899Y-94100004D01*
X181177895Y-94100017D01*
X181127810Y-94319457D01*
X181127808Y-94319468D01*
X181119858Y-94496500D01*
X181117710Y-94544330D01*
X179049230Y-94544330D01*
X179054290Y-94431670D01*
X179024075Y-94208613D01*
X178954517Y-93994536D01*
X178944727Y-93976344D01*
X178847853Y-93796321D01*
X178847851Y-93796318D01*
X178707510Y-93620336D01*
X178707508Y-93620334D01*
X178537996Y-93472235D01*
X178344764Y-93356785D01*
X178202398Y-93303354D01*
X178134023Y-93277692D01*
X177912550Y-93237500D01*
X177912547Y-93237500D01*
X177743845Y-93237500D01*
X177709345Y-93240605D01*
X177575813Y-93252622D01*
X177575807Y-93252623D01*
X177358839Y-93312503D01*
X177358826Y-93312508D01*
X177156033Y-93410167D01*
X177156025Y-93410171D01*
X176973927Y-93542473D01*
X176973925Y-93542474D01*
X176818366Y-93705176D01*
X176694363Y-93893033D01*
X176605899Y-94100004D01*
X176605895Y-94100017D01*
X176555810Y-94319457D01*
X176555808Y-94319468D01*
X176547858Y-94496500D01*
X176545710Y-94544330D01*
X174819031Y-94544330D01*
X174828159Y-94440000D01*
X174807563Y-94204592D01*
X174747385Y-93980002D01*
X174746405Y-93976344D01*
X174746404Y-93976343D01*
X174746403Y-93976337D01*
X174646535Y-93762171D01*
X174644967Y-93759932D01*
X174510996Y-93568600D01*
X174484869Y-93542473D01*
X174389067Y-93446671D01*
X174355584Y-93385351D01*
X174360568Y-93315659D01*
X174402439Y-93259725D01*
X174433415Y-93242810D01*
X174564831Y-93193796D01*
X174680046Y-93107546D01*
X174766296Y-92992331D01*
X174816591Y-92857483D01*
X174823000Y-92797873D01*
X174822999Y-91496330D01*
X176545710Y-91496330D01*
X176575925Y-91719387D01*
X176575926Y-91719390D01*
X176645483Y-91933465D01*
X176752146Y-92131678D01*
X176752148Y-92131681D01*
X176892489Y-92307663D01*
X176892491Y-92307664D01*
X176892492Y-92307666D01*
X177062004Y-92455765D01*
X177255236Y-92571215D01*
X177444202Y-92642135D01*
X177465976Y-92650307D01*
X177687450Y-92690500D01*
X177687453Y-92690500D01*
X177856148Y-92690500D01*
X177856155Y-92690500D01*
X178024188Y-92675377D01*
X178024192Y-92675376D01*
X178241160Y-92615496D01*
X178241162Y-92615495D01*
X178241170Y-92615493D01*
X178443973Y-92517829D01*
X178626078Y-92385522D01*
X178781632Y-92222825D01*
X178905635Y-92034968D01*
X178974672Y-91873450D01*
X178994100Y-91827995D01*
X178994099Y-91827995D01*
X178994103Y-91827988D01*
X179044191Y-91608537D01*
X179049230Y-91496330D01*
X181117710Y-91496330D01*
X181147925Y-91719387D01*
X181147926Y-91719390D01*
X181217483Y-91933465D01*
X181324146Y-92131678D01*
X181324148Y-92131681D01*
X181464489Y-92307663D01*
X181464491Y-92307664D01*
X181464492Y-92307666D01*
X181634004Y-92455765D01*
X181827236Y-92571215D01*
X182016202Y-92642135D01*
X182037976Y-92650307D01*
X182259450Y-92690500D01*
X182259453Y-92690500D01*
X182428148Y-92690500D01*
X182428155Y-92690500D01*
X182596188Y-92675377D01*
X182596192Y-92675376D01*
X182813160Y-92615496D01*
X182813162Y-92615495D01*
X182813170Y-92615493D01*
X183015973Y-92517829D01*
X183198078Y-92385522D01*
X183353632Y-92222825D01*
X183477635Y-92034968D01*
X183546672Y-91873450D01*
X183566100Y-91827995D01*
X183566099Y-91827995D01*
X183566103Y-91827988D01*
X183616191Y-91608537D01*
X183626290Y-91383670D01*
X183596075Y-91160613D01*
X183526517Y-90946536D01*
X183419852Y-90748319D01*
X183279508Y-90572334D01*
X183109996Y-90424235D01*
X182916764Y-90308785D01*
X182798775Y-90264503D01*
X182706023Y-90229692D01*
X182484550Y-90189500D01*
X182484547Y-90189500D01*
X182315845Y-90189500D01*
X182277399Y-90192960D01*
X182147813Y-90204622D01*
X182147807Y-90204623D01*
X181930839Y-90264503D01*
X181930826Y-90264508D01*
X181728033Y-90362167D01*
X181728025Y-90362171D01*
X181545927Y-90494473D01*
X181545925Y-90494474D01*
X181390366Y-90657176D01*
X181266363Y-90845033D01*
X181177899Y-91052004D01*
X181177895Y-91052017D01*
X181127810Y-91271457D01*
X181127808Y-91271468D01*
X181118538Y-91477884D01*
X181117710Y-91496330D01*
X179049230Y-91496330D01*
X179054290Y-91383670D01*
X179024075Y-91160613D01*
X178954517Y-90946536D01*
X178847852Y-90748319D01*
X178707508Y-90572334D01*
X178537996Y-90424235D01*
X178344764Y-90308785D01*
X178226775Y-90264503D01*
X178134023Y-90229692D01*
X177912550Y-90189500D01*
X177912547Y-90189500D01*
X177743845Y-90189500D01*
X177705399Y-90192960D01*
X177575813Y-90204622D01*
X177575807Y-90204623D01*
X177358839Y-90264503D01*
X177358826Y-90264508D01*
X177156033Y-90362167D01*
X177156025Y-90362171D01*
X176973927Y-90494473D01*
X176973925Y-90494474D01*
X176818366Y-90657176D01*
X176694363Y-90845033D01*
X176605899Y-91052004D01*
X176605895Y-91052017D01*
X176555810Y-91271457D01*
X176555808Y-91271468D01*
X176546538Y-91477884D01*
X176545710Y-91496330D01*
X174822999Y-91496330D01*
X174822999Y-91002128D01*
X174816591Y-90942517D01*
X174780231Y-90845032D01*
X174766297Y-90807671D01*
X174766293Y-90807664D01*
X174680047Y-90692455D01*
X174680044Y-90692452D01*
X174564835Y-90606206D01*
X174564828Y-90606202D01*
X174429982Y-90555908D01*
X174429983Y-90555908D01*
X174370383Y-90549501D01*
X174370381Y-90549500D01*
X174370373Y-90549500D01*
X174370364Y-90549500D01*
X172574629Y-90549500D01*
X172574623Y-90549501D01*
X172515016Y-90555908D01*
X172380171Y-90606202D01*
X172380164Y-90606206D01*
X172264955Y-90692452D01*
X172264952Y-90692455D01*
X172178706Y-90807664D01*
X172178702Y-90807671D01*
X172128408Y-90942517D01*
X172122001Y-91002116D01*
X172122001Y-91002123D01*
X172122000Y-91002135D01*
X172122000Y-92797870D01*
X172122001Y-92797876D01*
X172128408Y-92857483D01*
X172178702Y-92992328D01*
X172178706Y-92992335D01*
X172264952Y-93107544D01*
X172264955Y-93107547D01*
X172380164Y-93193793D01*
X172380171Y-93193797D01*
X172511581Y-93242810D01*
X172567515Y-93284681D01*
X172591932Y-93350145D01*
X172577080Y-93418418D01*
X172555930Y-93446673D01*
X172434003Y-93568600D01*
X172298465Y-93762169D01*
X172298464Y-93762171D01*
X172198598Y-93976335D01*
X172198594Y-93976344D01*
X172137438Y-94204586D01*
X172137436Y-94204596D01*
X172116841Y-94439999D01*
X172116841Y-94440000D01*
X163693500Y-94440000D01*
X163693500Y-93446187D01*
X163713185Y-93379148D01*
X163725350Y-93363215D01*
X163750866Y-93334876D01*
X163800533Y-93279716D01*
X163895179Y-93115784D01*
X163953674Y-92935756D01*
X163973460Y-92747500D01*
X163953674Y-92559244D01*
X163895179Y-92379216D01*
X163800533Y-92215284D01*
X163673871Y-92074612D01*
X163672569Y-92073666D01*
X163520734Y-91963351D01*
X163520729Y-91963348D01*
X163347807Y-91886357D01*
X163347802Y-91886355D01*
X163187237Y-91852227D01*
X163162646Y-91847000D01*
X162973354Y-91847000D01*
X162948763Y-91852227D01*
X162788197Y-91886355D01*
X162788192Y-91886357D01*
X162615270Y-91963348D01*
X162615265Y-91963351D01*
X162462129Y-92074611D01*
X162335466Y-92215285D01*
X162240821Y-92379215D01*
X162240818Y-92379222D01*
X162182327Y-92559240D01*
X162182326Y-92559244D01*
X162170120Y-92675377D01*
X162164154Y-92732148D01*
X162162540Y-92747500D01*
X157871995Y-92747500D01*
X157857674Y-92611244D01*
X157799179Y-92431216D01*
X157704533Y-92267284D01*
X157664502Y-92222825D01*
X157629350Y-92183784D01*
X157599120Y-92120792D01*
X157597500Y-92100812D01*
X157597500Y-89546843D01*
X157617185Y-89479804D01*
X157669989Y-89434049D01*
X157670958Y-89433611D01*
X157678730Y-89430151D01*
X157831871Y-89318888D01*
X157958533Y-89178216D01*
X158053179Y-89014284D01*
X158111674Y-88834256D01*
X158131460Y-88646000D01*
X158111674Y-88457744D01*
X158053179Y-88277716D01*
X157958533Y-88113784D01*
X157831871Y-87973112D01*
X157831870Y-87973111D01*
X157678734Y-87861851D01*
X157678729Y-87861848D01*
X157505807Y-87784857D01*
X157505802Y-87784855D01*
X157360001Y-87753865D01*
X157320646Y-87745500D01*
X157131354Y-87745500D01*
X157098897Y-87752398D01*
X156946197Y-87784855D01*
X156946192Y-87784857D01*
X156773270Y-87861848D01*
X156773265Y-87861851D01*
X156620129Y-87973111D01*
X156620128Y-87973112D01*
X156566149Y-88033062D01*
X156506663Y-88069710D01*
X156436806Y-88068379D01*
X156378758Y-88029492D01*
X156350948Y-87965395D01*
X156350000Y-87950089D01*
X156350000Y-76995951D01*
X156369685Y-76928912D01*
X156386314Y-76908275D01*
X157043732Y-76250857D01*
X157105053Y-76217374D01*
X157174745Y-76222358D01*
X157230678Y-76264230D01*
X157254987Y-76328299D01*
X157264890Y-76447813D01*
X157264892Y-76447824D01*
X157325936Y-76688881D01*
X157425826Y-76916606D01*
X157561833Y-77124782D01*
X157561836Y-77124785D01*
X157730256Y-77307738D01*
X157813008Y-77372147D01*
X157853821Y-77428857D01*
X157857496Y-77498630D01*
X157822864Y-77559313D01*
X157813014Y-77567848D01*
X157794342Y-77582382D01*
X157730257Y-77632261D01*
X157561833Y-77815217D01*
X157425826Y-78023393D01*
X157325936Y-78251118D01*
X157264892Y-78492175D01*
X157264890Y-78492187D01*
X157244357Y-78739994D01*
X157244357Y-78740005D01*
X157264890Y-78987812D01*
X157264892Y-78987824D01*
X157325936Y-79228881D01*
X157425826Y-79456606D01*
X157561833Y-79664782D01*
X157561836Y-79664785D01*
X157730256Y-79847738D01*
X157926491Y-80000474D01*
X157926493Y-80000475D01*
X158090268Y-80089106D01*
X158145190Y-80118828D01*
X158380386Y-80199571D01*
X158625665Y-80240500D01*
X158874335Y-80240500D01*
X159119614Y-80199571D01*
X159354810Y-80118828D01*
X159537428Y-80020000D01*
X177714341Y-80020000D01*
X177734936Y-80255403D01*
X177734938Y-80255413D01*
X177796094Y-80483655D01*
X177796096Y-80483659D01*
X177796097Y-80483663D01*
X177817366Y-80529274D01*
X177895965Y-80697830D01*
X177895967Y-80697834D01*
X177995525Y-80840016D01*
X178031505Y-80891401D01*
X178198599Y-81058495D01*
X178241431Y-81088486D01*
X178392165Y-81194032D01*
X178392167Y-81194033D01*
X178392170Y-81194035D01*
X178606337Y-81293903D01*
X178834592Y-81355063D01*
X179022918Y-81371539D01*
X179069999Y-81375659D01*
X179070000Y-81375659D01*
X179070001Y-81375659D01*
X179109234Y-81372226D01*
X179305408Y-81355063D01*
X179533663Y-81293903D01*
X179747830Y-81194035D01*
X179941401Y-81058495D01*
X180108495Y-80891401D01*
X180244035Y-80697830D01*
X180343903Y-80483663D01*
X180405063Y-80255408D01*
X180425659Y-80020000D01*
X180405063Y-79784592D01*
X180343903Y-79556337D01*
X180244035Y-79342171D01*
X180233553Y-79327200D01*
X180108494Y-79148597D01*
X179941402Y-78981506D01*
X179941396Y-78981501D01*
X179755842Y-78851575D01*
X179712217Y-78796998D01*
X179705023Y-78727500D01*
X179736546Y-78665145D01*
X179755842Y-78648425D01*
X179828332Y-78597667D01*
X179941401Y-78518495D01*
X180108495Y-78351401D01*
X180244035Y-78157830D01*
X180343903Y-77943663D01*
X180405063Y-77715408D01*
X180425659Y-77480000D01*
X180405063Y-77244592D01*
X180343903Y-77016337D01*
X180244035Y-76802171D01*
X180214398Y-76759844D01*
X180108494Y-76608597D01*
X179941402Y-76441506D01*
X179941401Y-76441505D01*
X179799770Y-76342334D01*
X179755841Y-76311574D01*
X179712216Y-76256997D01*
X179705024Y-76187498D01*
X179736546Y-76125144D01*
X179755836Y-76108428D01*
X179941401Y-75978495D01*
X180108495Y-75811401D01*
X180244035Y-75617830D01*
X180343903Y-75403663D01*
X180405063Y-75175408D01*
X180425659Y-74940000D01*
X180405063Y-74704592D01*
X180350088Y-74499420D01*
X180343905Y-74476344D01*
X180343904Y-74476343D01*
X180343903Y-74476337D01*
X180244035Y-74262171D01*
X180194038Y-74190768D01*
X180108496Y-74068600D01*
X180089396Y-74049500D01*
X179986567Y-73946671D01*
X179953084Y-73885351D01*
X179958068Y-73815659D01*
X179999939Y-73759725D01*
X180030915Y-73742810D01*
X180162331Y-73693796D01*
X180277546Y-73607546D01*
X180363796Y-73492331D01*
X180414091Y-73357483D01*
X180420500Y-73297873D01*
X180420499Y-71502128D01*
X180414091Y-71442517D01*
X180386232Y-71367824D01*
X180363797Y-71307671D01*
X180363793Y-71307664D01*
X180277547Y-71192455D01*
X180277544Y-71192452D01*
X180162335Y-71106206D01*
X180162328Y-71106202D01*
X180027482Y-71055908D01*
X180027483Y-71055908D01*
X179967883Y-71049501D01*
X179967881Y-71049500D01*
X179967873Y-71049500D01*
X179967864Y-71049500D01*
X178172129Y-71049500D01*
X178172123Y-71049501D01*
X178112516Y-71055908D01*
X177977671Y-71106202D01*
X177977664Y-71106206D01*
X177862455Y-71192452D01*
X177862452Y-71192455D01*
X177776206Y-71307664D01*
X177776202Y-71307671D01*
X177725908Y-71442517D01*
X177719501Y-71502116D01*
X177719501Y-71502123D01*
X177719500Y-71502135D01*
X177719500Y-73297870D01*
X177719501Y-73297876D01*
X177725908Y-73357483D01*
X177776202Y-73492328D01*
X177776206Y-73492335D01*
X177862452Y-73607544D01*
X177862455Y-73607547D01*
X177977664Y-73693793D01*
X177977671Y-73693797D01*
X178109081Y-73742810D01*
X178165015Y-73784681D01*
X178189432Y-73850145D01*
X178174580Y-73918418D01*
X178153430Y-73946673D01*
X178031503Y-74068600D01*
X177895965Y-74262169D01*
X177895964Y-74262171D01*
X177796098Y-74476335D01*
X177796094Y-74476344D01*
X177734938Y-74704586D01*
X177734936Y-74704596D01*
X177714341Y-74939999D01*
X177714341Y-74940000D01*
X177734936Y-75175403D01*
X177734938Y-75175413D01*
X177796094Y-75403655D01*
X177796096Y-75403659D01*
X177796097Y-75403663D01*
X177871954Y-75566338D01*
X177895965Y-75617830D01*
X177895967Y-75617834D01*
X178031501Y-75811395D01*
X178031506Y-75811402D01*
X178198597Y-75978493D01*
X178198603Y-75978498D01*
X178384158Y-76108425D01*
X178427783Y-76163002D01*
X178434977Y-76232500D01*
X178403454Y-76294855D01*
X178384158Y-76311575D01*
X178198597Y-76441505D01*
X178031505Y-76608597D01*
X177895965Y-76802169D01*
X177895964Y-76802171D01*
X177796098Y-77016335D01*
X177796094Y-77016344D01*
X177734938Y-77244586D01*
X177734936Y-77244596D01*
X177714341Y-77479999D01*
X177714341Y-77480000D01*
X177734936Y-77715403D01*
X177734938Y-77715413D01*
X177796094Y-77943655D01*
X177796096Y-77943659D01*
X177796097Y-77943663D01*
X177809997Y-77973471D01*
X177895965Y-78157830D01*
X177895967Y-78157834D01*
X178000099Y-78306548D01*
X178018676Y-78333080D01*
X178031501Y-78351395D01*
X178031506Y-78351402D01*
X178198597Y-78518493D01*
X178198603Y-78518498D01*
X178384158Y-78648425D01*
X178427783Y-78703002D01*
X178434977Y-78772500D01*
X178403454Y-78834855D01*
X178384158Y-78851575D01*
X178198597Y-78981505D01*
X178031505Y-79148597D01*
X177895965Y-79342169D01*
X177895964Y-79342171D01*
X177796098Y-79556335D01*
X177796094Y-79556344D01*
X177734938Y-79784586D01*
X177734936Y-79784596D01*
X177714341Y-80019999D01*
X177714341Y-80020000D01*
X159537428Y-80020000D01*
X159573509Y-80000474D01*
X159769744Y-79847738D01*
X159938164Y-79664785D01*
X160074173Y-79456607D01*
X160174063Y-79228881D01*
X160235108Y-78987821D01*
X160235109Y-78987812D01*
X160255643Y-78740005D01*
X160255643Y-78739994D01*
X160235109Y-78492187D01*
X160235107Y-78492175D01*
X160174063Y-78251118D01*
X160074173Y-78023393D01*
X159938166Y-77815217D01*
X159895780Y-77769174D01*
X159769744Y-77632262D01*
X159686991Y-77567852D01*
X159646179Y-77511143D01*
X159644012Y-77470007D01*
X164124671Y-77470007D01*
X164143964Y-77764363D01*
X164143965Y-77764373D01*
X164143966Y-77764380D01*
X164143968Y-77764390D01*
X164201518Y-78053716D01*
X164201521Y-78053730D01*
X164296349Y-78333080D01*
X164426825Y-78597660D01*
X164426829Y-78597667D01*
X164590725Y-78842955D01*
X164785241Y-79064758D01*
X165007044Y-79259274D01*
X165152736Y-79356622D01*
X165252335Y-79423172D01*
X165516923Y-79553652D01*
X165796278Y-79648481D01*
X166085620Y-79706034D01*
X166113888Y-79707886D01*
X166379993Y-79725329D01*
X166380000Y-79725329D01*
X166380007Y-79725329D01*
X166626382Y-79709180D01*
X166674380Y-79706034D01*
X166963722Y-79648481D01*
X167243077Y-79553652D01*
X167507665Y-79423172D01*
X167752957Y-79259273D01*
X167974758Y-79064758D01*
X168169273Y-78842957D01*
X168333172Y-78597665D01*
X168463652Y-78333077D01*
X168558481Y-78053722D01*
X168616034Y-77764380D01*
X168630881Y-77537865D01*
X168635329Y-77470007D01*
X168635329Y-77469992D01*
X168616035Y-77175636D01*
X168616034Y-77175620D01*
X168558481Y-76886278D01*
X168463652Y-76606923D01*
X168333172Y-76342336D01*
X168169273Y-76097043D01*
X168116355Y-76036702D01*
X167974758Y-75875241D01*
X167752955Y-75680725D01*
X167507667Y-75516829D01*
X167507660Y-75516825D01*
X167243080Y-75386349D01*
X166963730Y-75291521D01*
X166963724Y-75291519D01*
X166963722Y-75291519D01*
X166674380Y-75233966D01*
X166674373Y-75233965D01*
X166674363Y-75233964D01*
X166380007Y-75214671D01*
X166379993Y-75214671D01*
X166085636Y-75233964D01*
X166085624Y-75233965D01*
X166085620Y-75233966D01*
X166085612Y-75233967D01*
X166085609Y-75233968D01*
X165796283Y-75291518D01*
X165796269Y-75291521D01*
X165516919Y-75386349D01*
X165252334Y-75516828D01*
X165007041Y-75680728D01*
X164785241Y-75875241D01*
X164590728Y-76097041D01*
X164426828Y-76342334D01*
X164296349Y-76606919D01*
X164201521Y-76886269D01*
X164201518Y-76886283D01*
X164143968Y-77175609D01*
X164143964Y-77175636D01*
X164124671Y-77469992D01*
X164124671Y-77470007D01*
X159644012Y-77470007D01*
X159642504Y-77441370D01*
X159677136Y-77380687D01*
X159686985Y-77372151D01*
X159769744Y-77307738D01*
X159938164Y-77124785D01*
X160074173Y-76916607D01*
X160174063Y-76688881D01*
X160235108Y-76447821D01*
X160235109Y-76447812D01*
X160255643Y-76200005D01*
X160255643Y-76199994D01*
X160235109Y-75952187D01*
X160235107Y-75952175D01*
X160174063Y-75711118D01*
X160074173Y-75483393D01*
X159938166Y-75275217D01*
X159900190Y-75233964D01*
X159769744Y-75092262D01*
X159686991Y-75027852D01*
X159646179Y-74971143D01*
X159642504Y-74901370D01*
X159677136Y-74840687D01*
X159686985Y-74832151D01*
X159769744Y-74767738D01*
X159938164Y-74584785D01*
X160074173Y-74376607D01*
X160174063Y-74148881D01*
X160235108Y-73907821D01*
X160235109Y-73907812D01*
X160255643Y-73660005D01*
X160255643Y-73659994D01*
X160235109Y-73412187D01*
X160235108Y-73412183D01*
X160235108Y-73412179D01*
X160230321Y-73393277D01*
X160184734Y-73213259D01*
X160181136Y-73199049D01*
X160183760Y-73129230D01*
X160213658Y-73080930D01*
X162308788Y-70985801D01*
X162321042Y-70975986D01*
X162320859Y-70975764D01*
X162326868Y-70970791D01*
X162326877Y-70970786D01*
X162373607Y-70921022D01*
X162374846Y-70919743D01*
X162395120Y-70899471D01*
X162399379Y-70893978D01*
X162403152Y-70889561D01*
X162435062Y-70855582D01*
X162444715Y-70838020D01*
X162455389Y-70821770D01*
X162467673Y-70805936D01*
X162486180Y-70763167D01*
X162488749Y-70757924D01*
X162511196Y-70717093D01*
X162511197Y-70717092D01*
X162516177Y-70697691D01*
X162522478Y-70679288D01*
X162530438Y-70660896D01*
X162537730Y-70614849D01*
X162538911Y-70609152D01*
X162550500Y-70564019D01*
X162550500Y-70543983D01*
X162552027Y-70524582D01*
X162555160Y-70504804D01*
X162550775Y-70458415D01*
X162550500Y-70452577D01*
X162550500Y-68334500D01*
X162570185Y-68267461D01*
X162622989Y-68221706D01*
X162674500Y-68210500D01*
X162744144Y-68210500D01*
X162744146Y-68210500D01*
X162929303Y-68171144D01*
X163102230Y-68094151D01*
X163255371Y-67982888D01*
X163382033Y-67842216D01*
X163476679Y-67678284D01*
X163535174Y-67498256D01*
X163554960Y-67310000D01*
X163550644Y-67268943D01*
X163563213Y-67200218D01*
X163586281Y-67168307D01*
X163955484Y-66799104D01*
X164016805Y-66765621D01*
X164086497Y-66770605D01*
X164142430Y-66812477D01*
X164166847Y-66877941D01*
X164164780Y-66910978D01*
X164143968Y-67015609D01*
X164143964Y-67015636D01*
X164124671Y-67309992D01*
X164124671Y-67310007D01*
X164143964Y-67604363D01*
X164143965Y-67604373D01*
X164143966Y-67604380D01*
X164143968Y-67604390D01*
X164201518Y-67893716D01*
X164201521Y-67893730D01*
X164296349Y-68173080D01*
X164426825Y-68437660D01*
X164426829Y-68437667D01*
X164590725Y-68682955D01*
X164785241Y-68904758D01*
X165007044Y-69099274D01*
X165177856Y-69213407D01*
X165252335Y-69263172D01*
X165516923Y-69393652D01*
X165796278Y-69488481D01*
X166085620Y-69546034D01*
X166113888Y-69547886D01*
X166379993Y-69565329D01*
X166380000Y-69565329D01*
X166380007Y-69565329D01*
X166615675Y-69549881D01*
X166674380Y-69546034D01*
X166963722Y-69488481D01*
X167243077Y-69393652D01*
X167507665Y-69263172D01*
X167752957Y-69099273D01*
X167974758Y-68904758D01*
X168169273Y-68682957D01*
X168333172Y-68437665D01*
X168463652Y-68173077D01*
X168558481Y-67893722D01*
X168616034Y-67604380D01*
X168623996Y-67482900D01*
X168635329Y-67310007D01*
X168635329Y-67309992D01*
X168616035Y-67015636D01*
X168616034Y-67015620D01*
X168558481Y-66726278D01*
X168463652Y-66446923D01*
X168333172Y-66182336D01*
X168307819Y-66144393D01*
X168278042Y-66099828D01*
X168169273Y-65937043D01*
X168126655Y-65888447D01*
X167974758Y-65715241D01*
X167752955Y-65520725D01*
X167507667Y-65356829D01*
X167507660Y-65356825D01*
X167243080Y-65226349D01*
X166963730Y-65131521D01*
X166963724Y-65131519D01*
X166963722Y-65131519D01*
X166674380Y-65073966D01*
X166674373Y-65073965D01*
X166674363Y-65073964D01*
X166380007Y-65054671D01*
X166379993Y-65054671D01*
X166085636Y-65073964D01*
X166085624Y-65073965D01*
X166085620Y-65073966D01*
X166085612Y-65073967D01*
X166085609Y-65073968D01*
X165980979Y-65094780D01*
X165911387Y-65088553D01*
X165856210Y-65045690D01*
X165832966Y-64979800D01*
X165849034Y-64911803D01*
X165869107Y-64885482D01*
X165984589Y-64770000D01*
X172634341Y-64770000D01*
X172654936Y-65005403D01*
X172654938Y-65005413D01*
X172716094Y-65233655D01*
X172716096Y-65233659D01*
X172716097Y-65233663D01*
X172815847Y-65447578D01*
X172815965Y-65447830D01*
X172815967Y-65447834D01*
X172867008Y-65520727D01*
X172951505Y-65641401D01*
X173118599Y-65808495D01*
X173215384Y-65876264D01*
X173312165Y-65944032D01*
X173312167Y-65944033D01*
X173312170Y-65944035D01*
X173526337Y-66043903D01*
X173754592Y-66105063D01*
X173942918Y-66121539D01*
X173989999Y-66125659D01*
X173990000Y-66125659D01*
X173990001Y-66125659D01*
X174029234Y-66122226D01*
X174225408Y-66105063D01*
X174453663Y-66043903D01*
X174667830Y-65944035D01*
X174861401Y-65808495D01*
X175028495Y-65641401D01*
X175164035Y-65447830D01*
X175263903Y-65233663D01*
X175325063Y-65005408D01*
X175345659Y-64770000D01*
X175325063Y-64534592D01*
X175263903Y-64306337D01*
X175164035Y-64092171D01*
X175038874Y-63913421D01*
X175028494Y-63898597D01*
X174861402Y-63731506D01*
X174861396Y-63731501D01*
X174675842Y-63601575D01*
X174632217Y-63546998D01*
X174625023Y-63477500D01*
X174656546Y-63415145D01*
X174675842Y-63398425D01*
X174701871Y-63380199D01*
X174861401Y-63268495D01*
X175028495Y-63101401D01*
X175164035Y-62907830D01*
X175263903Y-62693663D01*
X175325063Y-62465408D01*
X175345659Y-62230000D01*
X175325063Y-61994592D01*
X175263903Y-61766337D01*
X175164035Y-61552171D01*
X175093280Y-61451121D01*
X175028494Y-61358597D01*
X174861402Y-61191506D01*
X174861396Y-61191501D01*
X174675842Y-61061575D01*
X174632217Y-61006998D01*
X174625023Y-60937500D01*
X174656546Y-60875145D01*
X174675842Y-60858425D01*
X174698026Y-60842891D01*
X174861401Y-60728495D01*
X175028495Y-60561401D01*
X175164035Y-60367830D01*
X175263903Y-60153663D01*
X175325063Y-59925408D01*
X175345659Y-59690000D01*
X175325063Y-59454592D01*
X175263903Y-59226337D01*
X175164035Y-59012171D01*
X175042842Y-58839089D01*
X175028496Y-58818600D01*
X175012666Y-58802770D01*
X174906567Y-58696671D01*
X174873084Y-58635351D01*
X174878068Y-58565659D01*
X174919939Y-58509725D01*
X174950915Y-58492810D01*
X175082331Y-58443796D01*
X175197546Y-58357546D01*
X175283796Y-58242331D01*
X175334091Y-58107483D01*
X175340500Y-58047873D01*
X175340500Y-58047844D01*
X177720000Y-58047844D01*
X177726401Y-58107372D01*
X177726403Y-58107379D01*
X177776645Y-58242086D01*
X177776649Y-58242093D01*
X177862809Y-58357187D01*
X177862812Y-58357190D01*
X177977906Y-58443350D01*
X177977913Y-58443354D01*
X178109986Y-58492614D01*
X178165920Y-58534485D01*
X178190337Y-58599949D01*
X178175486Y-58668222D01*
X178154335Y-58696477D01*
X178031886Y-58818926D01*
X177896400Y-59012420D01*
X177896399Y-59012422D01*
X177796570Y-59226507D01*
X177796567Y-59226513D01*
X177739364Y-59439999D01*
X177739364Y-59440000D01*
X178636314Y-59440000D01*
X178610507Y-59480156D01*
X178570000Y-59618111D01*
X178570000Y-59761889D01*
X178610507Y-59899844D01*
X178636314Y-59940000D01*
X177739364Y-59940000D01*
X177796567Y-60153486D01*
X177796570Y-60153492D01*
X177896399Y-60367578D01*
X178031894Y-60561082D01*
X178198917Y-60728105D01*
X178385031Y-60858425D01*
X178428656Y-60913003D01*
X178435848Y-60982501D01*
X178404326Y-61044856D01*
X178385031Y-61061575D01*
X178198922Y-61191890D01*
X178198920Y-61191891D01*
X178031891Y-61358920D01*
X178031886Y-61358926D01*
X177896400Y-61552420D01*
X177896399Y-61552422D01*
X177796570Y-61766507D01*
X177796567Y-61766513D01*
X177739364Y-61979999D01*
X177739364Y-61980000D01*
X178636314Y-61980000D01*
X178610507Y-62020156D01*
X178570000Y-62158111D01*
X178570000Y-62301889D01*
X178610507Y-62439844D01*
X178636314Y-62480000D01*
X177739364Y-62480000D01*
X177796567Y-62693486D01*
X177796570Y-62693492D01*
X177896399Y-62907578D01*
X178031894Y-63101082D01*
X178198917Y-63268105D01*
X178385031Y-63398425D01*
X178428656Y-63453003D01*
X178435848Y-63522501D01*
X178404326Y-63584856D01*
X178385031Y-63601575D01*
X178198922Y-63731890D01*
X178198920Y-63731891D01*
X178031891Y-63898920D01*
X178031886Y-63898926D01*
X177896400Y-64092420D01*
X177896399Y-64092422D01*
X177796570Y-64306507D01*
X177796567Y-64306513D01*
X177739364Y-64519999D01*
X177739364Y-64520000D01*
X178636314Y-64520000D01*
X178610507Y-64560156D01*
X178570000Y-64698111D01*
X178570000Y-64841889D01*
X178610507Y-64979844D01*
X178636314Y-65020000D01*
X177739364Y-65020000D01*
X177796567Y-65233486D01*
X177796570Y-65233492D01*
X177896399Y-65447578D01*
X178031894Y-65641082D01*
X178198917Y-65808105D01*
X178392421Y-65943600D01*
X178606507Y-66043429D01*
X178606516Y-66043433D01*
X178820000Y-66100634D01*
X178820000Y-65205501D01*
X178927685Y-65254680D01*
X179034237Y-65270000D01*
X179105763Y-65270000D01*
X179212315Y-65254680D01*
X179320000Y-65205501D01*
X179320000Y-66100633D01*
X179533483Y-66043433D01*
X179533492Y-66043429D01*
X179747578Y-65943600D01*
X179941082Y-65808105D01*
X180108105Y-65641082D01*
X180243600Y-65447578D01*
X180343429Y-65233492D01*
X180343432Y-65233486D01*
X180400636Y-65020000D01*
X179503686Y-65020000D01*
X179529493Y-64979844D01*
X179570000Y-64841889D01*
X179570000Y-64698111D01*
X179529493Y-64560156D01*
X179503686Y-64520000D01*
X180400636Y-64520000D01*
X180400635Y-64519999D01*
X180343432Y-64306513D01*
X180343429Y-64306507D01*
X180243600Y-64092422D01*
X180243599Y-64092420D01*
X180108113Y-63898926D01*
X180108108Y-63898920D01*
X179941082Y-63731894D01*
X179754968Y-63601575D01*
X179711344Y-63546998D01*
X179704151Y-63477499D01*
X179735673Y-63415145D01*
X179754968Y-63398425D01*
X179941082Y-63268105D01*
X180108105Y-63101082D01*
X180243600Y-62907578D01*
X180343429Y-62693492D01*
X180343432Y-62693486D01*
X180400636Y-62480000D01*
X179503686Y-62480000D01*
X179529493Y-62439844D01*
X179570000Y-62301889D01*
X179570000Y-62158111D01*
X179529493Y-62020156D01*
X179503686Y-61980000D01*
X180400636Y-61980000D01*
X180400635Y-61979999D01*
X180343432Y-61766513D01*
X180343429Y-61766507D01*
X180243600Y-61552422D01*
X180243599Y-61552420D01*
X180108113Y-61358926D01*
X180108108Y-61358920D01*
X179941082Y-61191894D01*
X179754968Y-61061575D01*
X179711344Y-61006998D01*
X179704151Y-60937499D01*
X179735673Y-60875145D01*
X179754968Y-60858425D01*
X179941082Y-60728105D01*
X180108105Y-60561082D01*
X180243600Y-60367578D01*
X180343429Y-60153492D01*
X180343432Y-60153486D01*
X180400636Y-59940000D01*
X179503686Y-59940000D01*
X179529493Y-59899844D01*
X179570000Y-59761889D01*
X179570000Y-59618111D01*
X179529493Y-59480156D01*
X179503686Y-59440000D01*
X180400636Y-59440000D01*
X180400635Y-59439999D01*
X180343432Y-59226513D01*
X180343429Y-59226507D01*
X180243600Y-59012422D01*
X180243599Y-59012420D01*
X180108113Y-58818926D01*
X180108108Y-58818920D01*
X179985665Y-58696477D01*
X179952180Y-58635154D01*
X179957164Y-58565462D01*
X179999036Y-58509529D01*
X180030013Y-58492614D01*
X180162086Y-58443354D01*
X180162093Y-58443350D01*
X180277187Y-58357190D01*
X180277190Y-58357187D01*
X180363350Y-58242093D01*
X180363354Y-58242086D01*
X180413596Y-58107379D01*
X180413598Y-58107372D01*
X180419999Y-58047844D01*
X180420000Y-58047827D01*
X180420000Y-57400000D01*
X179503686Y-57400000D01*
X179529493Y-57359844D01*
X179570000Y-57221889D01*
X179570000Y-57078111D01*
X179529493Y-56940156D01*
X179503686Y-56900000D01*
X180420000Y-56900000D01*
X180420000Y-56252172D01*
X180419999Y-56252155D01*
X180413598Y-56192627D01*
X180413596Y-56192620D01*
X180363354Y-56057913D01*
X180363350Y-56057906D01*
X180277190Y-55942812D01*
X180277187Y-55942809D01*
X180162093Y-55856649D01*
X180162086Y-55856645D01*
X180027379Y-55806403D01*
X180027372Y-55806401D01*
X179967844Y-55800000D01*
X179320000Y-55800000D01*
X179320000Y-56714498D01*
X179212315Y-56665320D01*
X179105763Y-56650000D01*
X179034237Y-56650000D01*
X178927685Y-56665320D01*
X178820000Y-56714498D01*
X178820000Y-55800000D01*
X178172155Y-55800000D01*
X178112627Y-55806401D01*
X178112620Y-55806403D01*
X177977913Y-55856645D01*
X177977906Y-55856649D01*
X177862812Y-55942809D01*
X177862809Y-55942812D01*
X177776649Y-56057906D01*
X177776645Y-56057913D01*
X177726403Y-56192620D01*
X177726401Y-56192627D01*
X177720000Y-56252155D01*
X177720000Y-56900000D01*
X178636314Y-56900000D01*
X178610507Y-56940156D01*
X178570000Y-57078111D01*
X178570000Y-57221889D01*
X178610507Y-57359844D01*
X178636314Y-57400000D01*
X177720000Y-57400000D01*
X177720000Y-58047844D01*
X175340500Y-58047844D01*
X175340499Y-56252128D01*
X175334091Y-56192517D01*
X175295729Y-56089664D01*
X175283797Y-56057671D01*
X175283793Y-56057664D01*
X175197547Y-55942455D01*
X175197544Y-55942452D01*
X175082335Y-55856206D01*
X175082328Y-55856202D01*
X174947482Y-55805908D01*
X174947483Y-55805908D01*
X174887883Y-55799501D01*
X174887881Y-55799500D01*
X174887873Y-55799500D01*
X174887864Y-55799500D01*
X173092129Y-55799500D01*
X173092123Y-55799501D01*
X173032516Y-55805908D01*
X172897671Y-55856202D01*
X172897664Y-55856206D01*
X172782455Y-55942452D01*
X172782452Y-55942455D01*
X172696206Y-56057664D01*
X172696202Y-56057671D01*
X172645908Y-56192517D01*
X172640439Y-56243395D01*
X172639501Y-56252123D01*
X172639500Y-56252135D01*
X172639500Y-58047870D01*
X172639501Y-58047876D01*
X172645908Y-58107483D01*
X172696202Y-58242328D01*
X172696206Y-58242335D01*
X172782452Y-58357544D01*
X172782455Y-58357547D01*
X172897664Y-58443793D01*
X172897671Y-58443797D01*
X173029081Y-58492810D01*
X173085015Y-58534681D01*
X173109432Y-58600145D01*
X173094580Y-58668418D01*
X173073430Y-58696673D01*
X172951503Y-58818600D01*
X172815965Y-59012169D01*
X172815964Y-59012171D01*
X172716098Y-59226335D01*
X172716094Y-59226344D01*
X172654938Y-59454586D01*
X172654936Y-59454596D01*
X172634341Y-59689999D01*
X172634341Y-59690000D01*
X172654936Y-59925403D01*
X172654938Y-59925413D01*
X172716094Y-60153655D01*
X172716096Y-60153659D01*
X172716097Y-60153663D01*
X172815847Y-60367578D01*
X172815965Y-60367830D01*
X172815967Y-60367834D01*
X172951501Y-60561395D01*
X172951506Y-60561402D01*
X173118597Y-60728493D01*
X173118603Y-60728498D01*
X173304158Y-60858425D01*
X173347783Y-60913002D01*
X173354977Y-60982500D01*
X173323454Y-61044855D01*
X173304158Y-61061575D01*
X173118597Y-61191505D01*
X172951505Y-61358597D01*
X172815965Y-61552169D01*
X172815964Y-61552171D01*
X172716098Y-61766335D01*
X172716094Y-61766344D01*
X172654938Y-61994586D01*
X172654936Y-61994596D01*
X172634341Y-62229999D01*
X172634341Y-62230000D01*
X172654936Y-62465403D01*
X172654938Y-62465413D01*
X172716094Y-62693655D01*
X172716096Y-62693659D01*
X172716097Y-62693663D01*
X172813661Y-62902888D01*
X172815965Y-62907830D01*
X172815967Y-62907834D01*
X172951501Y-63101395D01*
X172951506Y-63101402D01*
X173118597Y-63268493D01*
X173118603Y-63268498D01*
X173304158Y-63398425D01*
X173347783Y-63453002D01*
X173354977Y-63522500D01*
X173323454Y-63584855D01*
X173304158Y-63601575D01*
X173118597Y-63731505D01*
X172951505Y-63898597D01*
X172815965Y-64092169D01*
X172815964Y-64092171D01*
X172716098Y-64306335D01*
X172716094Y-64306344D01*
X172654938Y-64534586D01*
X172654936Y-64534596D01*
X172634341Y-64769999D01*
X172634341Y-64770000D01*
X165984589Y-64770000D01*
X166662168Y-64092422D01*
X167587770Y-63166819D01*
X167649094Y-63133334D01*
X167675452Y-63130500D01*
X167734644Y-63130500D01*
X167734646Y-63130500D01*
X167919803Y-63091144D01*
X168092730Y-63014151D01*
X168245871Y-62902888D01*
X168372533Y-62762216D01*
X168467179Y-62598284D01*
X168525674Y-62418256D01*
X168545460Y-62230000D01*
X168525674Y-62041744D01*
X168467179Y-61861716D01*
X168372533Y-61697784D01*
X168245871Y-61557112D01*
X168239413Y-61552420D01*
X168092734Y-61445851D01*
X168092729Y-61445848D01*
X167919807Y-61368857D01*
X167919802Y-61368855D01*
X167774001Y-61337865D01*
X167734646Y-61329500D01*
X167545354Y-61329500D01*
X167512897Y-61336398D01*
X167360197Y-61368855D01*
X167360192Y-61368857D01*
X167187270Y-61445848D01*
X167187265Y-61445851D01*
X167034129Y-61557111D01*
X166907466Y-61697785D01*
X166812821Y-61861715D01*
X166812818Y-61861722D01*
X166769645Y-61994596D01*
X166754326Y-62041744D01*
X166746405Y-62117105D01*
X166736678Y-62209651D01*
X166710093Y-62274266D01*
X166701038Y-62284370D01*
X162762181Y-66223228D01*
X162700858Y-66256713D01*
X162631166Y-66251729D01*
X162575233Y-66209857D01*
X162550816Y-66144393D01*
X162550500Y-66135547D01*
X162550500Y-62928687D01*
X162570185Y-62861648D01*
X162582350Y-62845715D01*
X162600891Y-62825122D01*
X162657533Y-62762216D01*
X162752179Y-62598284D01*
X162810674Y-62418256D01*
X162830460Y-62230000D01*
X162810674Y-62041744D01*
X162752179Y-61861716D01*
X162657533Y-61697784D01*
X162530871Y-61557112D01*
X162524413Y-61552420D01*
X162377734Y-61445851D01*
X162377729Y-61445848D01*
X162204807Y-61368857D01*
X162204802Y-61368855D01*
X162059000Y-61337865D01*
X162019646Y-61329500D01*
X161830354Y-61329500D01*
X161797897Y-61336398D01*
X161645197Y-61368855D01*
X161645192Y-61368857D01*
X161472270Y-61445848D01*
X161472265Y-61445851D01*
X161319129Y-61557111D01*
X161192466Y-61697785D01*
X161097821Y-61861715D01*
X161097818Y-61861722D01*
X161054645Y-61994596D01*
X161039326Y-62041744D01*
X161019540Y-62230000D01*
X161039326Y-62418256D01*
X161039327Y-62418259D01*
X161097818Y-62598277D01*
X161097821Y-62598284D01*
X161192467Y-62762216D01*
X161235772Y-62810310D01*
X161267650Y-62845715D01*
X161297880Y-62908706D01*
X161299500Y-62928687D01*
X161299500Y-70174546D01*
X161279815Y-70241585D01*
X161263181Y-70262227D01*
X160456269Y-71069139D01*
X160394946Y-71102624D01*
X160325254Y-71097640D01*
X160269321Y-71055768D01*
X160245012Y-70991698D01*
X160235109Y-70872186D01*
X160235107Y-70872175D01*
X160174063Y-70631118D01*
X160074173Y-70403393D01*
X159938166Y-70195217D01*
X159895780Y-70149174D01*
X159769744Y-70012262D01*
X159686991Y-69947852D01*
X159646179Y-69891143D01*
X159642504Y-69821370D01*
X159677136Y-69760687D01*
X159686985Y-69752151D01*
X159769744Y-69687738D01*
X159938164Y-69504785D01*
X160074173Y-69296607D01*
X160174063Y-69068881D01*
X160235108Y-68827821D01*
X160237408Y-68800062D01*
X160255643Y-68580005D01*
X160255643Y-68579994D01*
X160235109Y-68332187D01*
X160235107Y-68332175D01*
X160174063Y-68091118D01*
X160074173Y-67863393D01*
X159938166Y-67655217D01*
X159911043Y-67625754D01*
X159880121Y-67563099D01*
X159887981Y-67493673D01*
X159932128Y-67439518D01*
X159941717Y-67433632D01*
X160057187Y-67347190D01*
X160057190Y-67347187D01*
X160143350Y-67232093D01*
X160143354Y-67232086D01*
X160193596Y-67097379D01*
X160193598Y-67097372D01*
X160199999Y-67037844D01*
X160200000Y-67037827D01*
X160200000Y-66290000D01*
X159183686Y-66290000D01*
X159209493Y-66249844D01*
X159250000Y-66111889D01*
X159250000Y-65968111D01*
X159209493Y-65830156D01*
X159183686Y-65790000D01*
X160200000Y-65790000D01*
X160200000Y-65042172D01*
X160199999Y-65042155D01*
X160193598Y-64982627D01*
X160193596Y-64982620D01*
X160143354Y-64847913D01*
X160143350Y-64847906D01*
X160057190Y-64732812D01*
X160057187Y-64732809D01*
X159942093Y-64646649D01*
X159942086Y-64646645D01*
X159807379Y-64596403D01*
X159807372Y-64596401D01*
X159747844Y-64590000D01*
X159000000Y-64590000D01*
X159000000Y-65604498D01*
X158892315Y-65555320D01*
X158785763Y-65540000D01*
X158714237Y-65540000D01*
X158607685Y-65555320D01*
X158500000Y-65604498D01*
X158500000Y-64590000D01*
X157752155Y-64590000D01*
X157692627Y-64596401D01*
X157692620Y-64596403D01*
X157557913Y-64646645D01*
X157557906Y-64646649D01*
X157442812Y-64732809D01*
X157442809Y-64732812D01*
X157356649Y-64847906D01*
X157356645Y-64847913D01*
X157306403Y-64982620D01*
X157306401Y-64982627D01*
X157300000Y-65042155D01*
X157300000Y-65790000D01*
X158316314Y-65790000D01*
X158290507Y-65830156D01*
X158250000Y-65968111D01*
X158250000Y-66111889D01*
X158290507Y-66249844D01*
X158316314Y-66290000D01*
X157300000Y-66290000D01*
X157300000Y-67037844D01*
X157306401Y-67097372D01*
X157306403Y-67097379D01*
X157356645Y-67232086D01*
X157356649Y-67232093D01*
X157442809Y-67347187D01*
X157442812Y-67347190D01*
X157565011Y-67438669D01*
X157564099Y-67439887D01*
X157606555Y-67482338D01*
X157621411Y-67550610D01*
X157596997Y-67616076D01*
X157588957Y-67625752D01*
X157561837Y-67655212D01*
X157561835Y-67655214D01*
X157425826Y-67863393D01*
X157325936Y-68091118D01*
X157264892Y-68332175D01*
X157264890Y-68332187D01*
X157244357Y-68579994D01*
X157244357Y-68580005D01*
X157264890Y-68827812D01*
X157264892Y-68827824D01*
X157325936Y-69068881D01*
X157425826Y-69296606D01*
X157561833Y-69504782D01*
X157561836Y-69504785D01*
X157730256Y-69687738D01*
X157813008Y-69752147D01*
X157853821Y-69808857D01*
X157857496Y-69878630D01*
X157822864Y-69939313D01*
X157813014Y-69947848D01*
X157771904Y-69979846D01*
X157730257Y-70012261D01*
X157561833Y-70195217D01*
X157425826Y-70403393D01*
X157325936Y-70631118D01*
X157264892Y-70872175D01*
X157264890Y-70872187D01*
X157244357Y-71119994D01*
X157244357Y-71120005D01*
X157264890Y-71367812D01*
X157264892Y-71367824D01*
X157318863Y-71580949D01*
X157316238Y-71650769D01*
X157286338Y-71699070D01*
X154616208Y-74369199D01*
X154603951Y-74379020D01*
X154604134Y-74379241D01*
X154598122Y-74384214D01*
X154551432Y-74433932D01*
X154550079Y-74435329D01*
X154529889Y-74455519D01*
X154529877Y-74455532D01*
X154525621Y-74461017D01*
X154521837Y-74465447D01*
X154489937Y-74499418D01*
X154489936Y-74499420D01*
X154480284Y-74516976D01*
X154469610Y-74533226D01*
X154457329Y-74549061D01*
X154457324Y-74549068D01*
X154438815Y-74591838D01*
X154436245Y-74597084D01*
X154413803Y-74637906D01*
X154408822Y-74657307D01*
X154402521Y-74675710D01*
X154394562Y-74694102D01*
X154394561Y-74694105D01*
X154387271Y-74740127D01*
X154386087Y-74745846D01*
X154374501Y-74790972D01*
X154374500Y-74790982D01*
X154374500Y-74811016D01*
X154372973Y-74830415D01*
X154369840Y-74850194D01*
X154369840Y-74850195D01*
X153935500Y-74850195D01*
X153935500Y-70565626D01*
X153937027Y-70546225D01*
X153937382Y-70543983D01*
X153939219Y-70532388D01*
X153935584Y-70463040D01*
X153935500Y-70459797D01*
X153935500Y-70437809D01*
X153935499Y-70437800D01*
X153933201Y-70415936D01*
X153932947Y-70412720D01*
X153929313Y-70343355D01*
X153925685Y-70329814D01*
X153922139Y-70310688D01*
X153920674Y-70296744D01*
X153899209Y-70230682D01*
X153898296Y-70227601D01*
X153880320Y-70160512D01*
X153873956Y-70148022D01*
X153866511Y-70130050D01*
X153862179Y-70116716D01*
X153843404Y-70084197D01*
X153827453Y-70056569D01*
X153825903Y-70053714D01*
X153821471Y-70045016D01*
X153794383Y-69991851D01*
X153785557Y-69980952D01*
X153774540Y-69964920D01*
X153768725Y-69954849D01*
X153767533Y-69952784D01*
X153741514Y-69923887D01*
X153721058Y-69901168D01*
X153718964Y-69898716D01*
X153705120Y-69881620D01*
X153689568Y-69866068D01*
X153687348Y-69863730D01*
X153649207Y-69821370D01*
X153640874Y-69812115D01*
X153640869Y-69812110D01*
X153629529Y-69803871D01*
X153614736Y-69791236D01*
X152428643Y-68605144D01*
X152395158Y-68543821D01*
X152392797Y-68528278D01*
X152378070Y-68359932D01*
X152320894Y-68146550D01*
X152227534Y-67946339D01*
X152100826Y-67765380D01*
X151944620Y-67609174D01*
X151944616Y-67609171D01*
X151944615Y-67609170D01*
X151763666Y-67482468D01*
X151763662Y-67482466D01*
X151741779Y-67472262D01*
X151563450Y-67389106D01*
X151563447Y-67389105D01*
X151563445Y-67389104D01*
X151350070Y-67331930D01*
X151350062Y-67331929D01*
X151130002Y-67312677D01*
X151129998Y-67312677D01*
X150909937Y-67331929D01*
X150909929Y-67331930D01*
X150696554Y-67389104D01*
X150696548Y-67389107D01*
X150496340Y-67482465D01*
X150496338Y-67482466D01*
X150315377Y-67609175D01*
X150159175Y-67765377D01*
X150032466Y-67946338D01*
X150032465Y-67946340D01*
X149939107Y-68146548D01*
X149939104Y-68146554D01*
X149881930Y-68359929D01*
X149881929Y-68359937D01*
X149862677Y-68579997D01*
X149862677Y-68580002D01*
X149881929Y-68800062D01*
X149881930Y-68800070D01*
X149939104Y-69013445D01*
X149939105Y-69013447D01*
X149939106Y-69013450D01*
X150032347Y-69213407D01*
X150032466Y-69213662D01*
X150032468Y-69213666D01*
X150159170Y-69394615D01*
X150159175Y-69394621D01*
X150315378Y-69550824D01*
X150315384Y-69550829D01*
X150496333Y-69677531D01*
X150496335Y-69677532D01*
X150496338Y-69677534D01*
X150543331Y-69699447D01*
X150625189Y-69737618D01*
X150677628Y-69783790D01*
X150696780Y-69850984D01*
X150676564Y-69917865D01*
X150625189Y-69962382D01*
X150496340Y-70022465D01*
X150496338Y-70022466D01*
X150315377Y-70149175D01*
X150159175Y-70305377D01*
X150032466Y-70486338D01*
X150032465Y-70486340D01*
X149939107Y-70686548D01*
X149939104Y-70686554D01*
X149881930Y-70899929D01*
X149881929Y-70899937D01*
X149862677Y-71119997D01*
X149862677Y-71120002D01*
X149881929Y-71340062D01*
X149881930Y-71340070D01*
X149939104Y-71553445D01*
X149939105Y-71553447D01*
X149939106Y-71553450D01*
X150032465Y-71753661D01*
X150032466Y-71753662D01*
X150032468Y-71753666D01*
X150159170Y-71934615D01*
X150159175Y-71934621D01*
X150315378Y-72090824D01*
X150315384Y-72090829D01*
X150496333Y-72217531D01*
X150496335Y-72217532D01*
X150496338Y-72217534D01*
X150615748Y-72273215D01*
X150625189Y-72277618D01*
X150677628Y-72323790D01*
X150696780Y-72390984D01*
X150676564Y-72457865D01*
X150625189Y-72502382D01*
X150496340Y-72562465D01*
X150496338Y-72562466D01*
X150315377Y-72689175D01*
X150159175Y-72845377D01*
X150032466Y-73026338D01*
X150032465Y-73026340D01*
X149939107Y-73226548D01*
X149939104Y-73226554D01*
X149881930Y-73439929D01*
X149881929Y-73439937D01*
X149862677Y-73659997D01*
X149862677Y-73660002D01*
X149881929Y-73880062D01*
X149881930Y-73880070D01*
X149939104Y-74093445D01*
X149939105Y-74093447D01*
X149939106Y-74093450D01*
X149984486Y-74190768D01*
X150032466Y-74293662D01*
X150032468Y-74293666D01*
X150159170Y-74474615D01*
X150159175Y-74474621D01*
X150315378Y-74630824D01*
X150315384Y-74630829D01*
X150496333Y-74757531D01*
X150496335Y-74757532D01*
X150496338Y-74757534D01*
X150568066Y-74790981D01*
X150625189Y-74817618D01*
X150677628Y-74863790D01*
X150696780Y-74930984D01*
X150676564Y-74997865D01*
X150625189Y-75042382D01*
X150496340Y-75102465D01*
X150496338Y-75102466D01*
X150315377Y-75229175D01*
X150159175Y-75385377D01*
X150032466Y-75566338D01*
X150032465Y-75566340D01*
X149939107Y-75766548D01*
X149939104Y-75766554D01*
X149881930Y-75979929D01*
X149881929Y-75979937D01*
X149862677Y-76199997D01*
X149862677Y-76200002D01*
X149881929Y-76420062D01*
X149881930Y-76420070D01*
X149939104Y-76633445D01*
X149939105Y-76633447D01*
X149939106Y-76633450D01*
X149995472Y-76754327D01*
X150032466Y-76833662D01*
X150032468Y-76833666D01*
X150159170Y-77014615D01*
X150159175Y-77014621D01*
X150315378Y-77170824D01*
X150315384Y-77170829D01*
X150496333Y-77297531D01*
X150496335Y-77297532D01*
X150496338Y-77297534D01*
X150615748Y-77353215D01*
X150625189Y-77357618D01*
X150677628Y-77403790D01*
X150696780Y-77470984D01*
X150676564Y-77537865D01*
X150625189Y-77582382D01*
X150496340Y-77642465D01*
X150496338Y-77642466D01*
X150315377Y-77769175D01*
X150159175Y-77925377D01*
X150032466Y-78106338D01*
X150032465Y-78106340D01*
X149939107Y-78306548D01*
X149939104Y-78306554D01*
X149881930Y-78519929D01*
X149881929Y-78519937D01*
X149862677Y-78739997D01*
X149862677Y-78740002D01*
X149868849Y-78810546D01*
X149881930Y-78960068D01*
X149889367Y-78987824D01*
X149893707Y-79004019D01*
X149892044Y-79073869D01*
X149861613Y-79123794D01*
X148587208Y-80398199D01*
X148574951Y-80408020D01*
X148575134Y-80408241D01*
X148569122Y-80413214D01*
X148522432Y-80462932D01*
X148521079Y-80464329D01*
X148500889Y-80484519D01*
X148500877Y-80484532D01*
X148496621Y-80490017D01*
X148492837Y-80494447D01*
X148460937Y-80528418D01*
X148460936Y-80528420D01*
X148451284Y-80545976D01*
X148440610Y-80562226D01*
X148428329Y-80578061D01*
X148428324Y-80578068D01*
X148409815Y-80620838D01*
X148407245Y-80626084D01*
X148384803Y-80666906D01*
X148379822Y-80686307D01*
X148373521Y-80704710D01*
X148365562Y-80723102D01*
X148365561Y-80723105D01*
X148358271Y-80769127D01*
X148357087Y-80774846D01*
X148345501Y-80819972D01*
X148345500Y-80819982D01*
X148345500Y-80840016D01*
X148343973Y-80859415D01*
X148340840Y-80879194D01*
X148340840Y-80879195D01*
X148345225Y-80925583D01*
X148345500Y-80931421D01*
X148345500Y-92387047D01*
X148325815Y-92454086D01*
X148273011Y-92499841D01*
X148203853Y-92509785D01*
X148140297Y-92480760D01*
X148133819Y-92474728D01*
X147223303Y-91564212D01*
X147213480Y-91551950D01*
X147213259Y-91552134D01*
X147208286Y-91546122D01*
X147158566Y-91499432D01*
X147157166Y-91498075D01*
X147136976Y-91477884D01*
X147131486Y-91473625D01*
X147127061Y-91469847D01*
X147093082Y-91437938D01*
X147093080Y-91437936D01*
X147093077Y-91437935D01*
X147075529Y-91428288D01*
X147059263Y-91417604D01*
X147056917Y-91415784D01*
X147043436Y-91405327D01*
X147043435Y-91405326D01*
X147043433Y-91405325D01*
X147000668Y-91386818D01*
X146995422Y-91384248D01*
X146954593Y-91361803D01*
X146954592Y-91361802D01*
X146935193Y-91356822D01*
X146916781Y-91350518D01*
X146898398Y-91342562D01*
X146898392Y-91342560D01*
X146852374Y-91335272D01*
X146846652Y-91334087D01*
X146801521Y-91322500D01*
X146801519Y-91322500D01*
X146781484Y-91322500D01*
X146762086Y-91320973D01*
X146754662Y-91319797D01*
X146742305Y-91317840D01*
X146742304Y-91317840D01*
X146695916Y-91322225D01*
X146690078Y-91322500D01*
X143451748Y-91322500D01*
X143384709Y-91302815D01*
X143359600Y-91281474D01*
X143353873Y-91275114D01*
X143353869Y-91275110D01*
X143200734Y-91163851D01*
X143200729Y-91163848D01*
X143027807Y-91086857D01*
X143027802Y-91086855D01*
X142863873Y-91052012D01*
X142842646Y-91047500D01*
X142653354Y-91047500D01*
X142632127Y-91052012D01*
X142468197Y-91086855D01*
X142468192Y-91086857D01*
X142295270Y-91163848D01*
X142295265Y-91163851D01*
X142142129Y-91275111D01*
X142015466Y-91415785D01*
X141920821Y-91579715D01*
X141920818Y-91579722D01*
X141862327Y-91759740D01*
X141862326Y-91759744D01*
X141842540Y-91948000D01*
X141862326Y-92136256D01*
X141863551Y-92140026D01*
X141920818Y-92316277D01*
X141920821Y-92316284D01*
X142015467Y-92480216D01*
X142136401Y-92614526D01*
X142142129Y-92620888D01*
X142295265Y-92732148D01*
X142295270Y-92732151D01*
X142468192Y-92809142D01*
X142468197Y-92809144D01*
X142653354Y-92848500D01*
X142653355Y-92848500D01*
X142842644Y-92848500D01*
X142842646Y-92848500D01*
X143027803Y-92809144D01*
X143200730Y-92732151D01*
X143353871Y-92620888D01*
X143358729Y-92615493D01*
X143359600Y-92614526D01*
X143419087Y-92577879D01*
X143451748Y-92573500D01*
X146412048Y-92573500D01*
X146479087Y-92593185D01*
X146499729Y-92609819D01*
X147307538Y-93417629D01*
X147341023Y-93478952D01*
X147343178Y-93492348D01*
X147348447Y-93542473D01*
X147360826Y-93660256D01*
X147360827Y-93660259D01*
X147419318Y-93840277D01*
X147419321Y-93840284D01*
X147513967Y-94004216D01*
X147600227Y-94100017D01*
X147640629Y-94144888D01*
X147793765Y-94256148D01*
X147793770Y-94256151D01*
X147966692Y-94333142D01*
X147966697Y-94333144D01*
X148151854Y-94372500D01*
X148151855Y-94372500D01*
X148221500Y-94372500D01*
X148288539Y-94392185D01*
X148334294Y-94444989D01*
X148345500Y-94496500D01*
X148345500Y-103067546D01*
X148325815Y-103134585D01*
X148309181Y-103155227D01*
X141201228Y-110263181D01*
X141139905Y-110296666D01*
X141113547Y-110299500D01*
X141054354Y-110299500D01*
X141043816Y-110301740D01*
X140869197Y-110338855D01*
X140869192Y-110338857D01*
X140696270Y-110415848D01*
X140696265Y-110415851D01*
X140543130Y-110527110D01*
X140543126Y-110527114D01*
X140537400Y-110533474D01*
X140477913Y-110570121D01*
X140445252Y-110574500D01*
X139482743Y-110574500D01*
X139467122Y-110572775D01*
X139467095Y-110573061D01*
X139459333Y-110572326D01*
X139391140Y-110574469D01*
X139389193Y-110574500D01*
X139360649Y-110574500D01*
X139353778Y-110575367D01*
X139347959Y-110575825D01*
X139301374Y-110577289D01*
X139301368Y-110577290D01*
X139282126Y-110582880D01*
X139263087Y-110586823D01*
X139243217Y-110589334D01*
X139243203Y-110589337D01*
X139199883Y-110606488D01*
X139194358Y-110608380D01*
X139149613Y-110621380D01*
X139149610Y-110621381D01*
X139132366Y-110631579D01*
X139114905Y-110640133D01*
X139096274Y-110647510D01*
X139096262Y-110647517D01*
X139058570Y-110674902D01*
X139053687Y-110678109D01*
X139013580Y-110701829D01*
X138999414Y-110715995D01*
X138984624Y-110728627D01*
X138968414Y-110740404D01*
X138968411Y-110740407D01*
X138938710Y-110776309D01*
X138934777Y-110780631D01*
X138617228Y-111098181D01*
X138555905Y-111131666D01*
X138529547Y-111134500D01*
X124834480Y-111134500D01*
X124767441Y-111114815D01*
X124721686Y-111062011D01*
X124711742Y-110992853D01*
X124727093Y-110948500D01*
X124755754Y-110898857D01*
X124779179Y-110858284D01*
X124837674Y-110678256D01*
X124857460Y-110490000D01*
X124837674Y-110301744D01*
X124779179Y-110121716D01*
X124684533Y-109957784D01*
X124557871Y-109817112D01*
X124501614Y-109776239D01*
X124458948Y-109720909D01*
X124450499Y-109675921D01*
X124450499Y-104907064D01*
X124470184Y-104840025D01*
X124522988Y-104794270D01*
X124592146Y-104784326D01*
X124655702Y-104813351D01*
X124676074Y-104835941D01*
X124759170Y-104954615D01*
X124759175Y-104954621D01*
X124915378Y-105110824D01*
X124915384Y-105110829D01*
X125096333Y-105237531D01*
X125096335Y-105237532D01*
X125096338Y-105237534D01*
X125296550Y-105330894D01*
X125509932Y-105388070D01*
X125667123Y-105401822D01*
X125729998Y-105407323D01*
X125730000Y-105407323D01*
X125730002Y-105407323D01*
X125785017Y-105402509D01*
X125950068Y-105388070D01*
X126163450Y-105330894D01*
X126363662Y-105237534D01*
X126544620Y-105110826D01*
X126700826Y-104954620D01*
X126827534Y-104773662D01*
X126920894Y-104573450D01*
X126978070Y-104360068D01*
X126997323Y-104140000D01*
X126996051Y-104125465D01*
X126986824Y-104019995D01*
X126978070Y-103919932D01*
X126966291Y-103875976D01*
X126967955Y-103806126D01*
X126998384Y-103756204D01*
X128468787Y-102285801D01*
X128481042Y-102275986D01*
X128480859Y-102275764D01*
X128486868Y-102270791D01*
X128486877Y-102270786D01*
X128533607Y-102221022D01*
X128534846Y-102219743D01*
X128555120Y-102199471D01*
X128559379Y-102193978D01*
X128563152Y-102189561D01*
X128595062Y-102155582D01*
X128604715Y-102138020D01*
X128615389Y-102121770D01*
X128627673Y-102105936D01*
X128646180Y-102063167D01*
X128648749Y-102057924D01*
X128662204Y-102033450D01*
X128671197Y-102017092D01*
X128676177Y-101997691D01*
X128682478Y-101979288D01*
X128690438Y-101960896D01*
X128697730Y-101914849D01*
X128698911Y-101909152D01*
X128710500Y-101864019D01*
X128710500Y-101843983D01*
X128712027Y-101824582D01*
X128712743Y-101820062D01*
X128715160Y-101804804D01*
X128710775Y-101758415D01*
X128710500Y-101752577D01*
X128710500Y-94290451D01*
X128730185Y-94223412D01*
X128746814Y-94202775D01*
X135511788Y-87437801D01*
X135524042Y-87427986D01*
X135523859Y-87427764D01*
X135529868Y-87422791D01*
X135529877Y-87422786D01*
X135576607Y-87373022D01*
X135577846Y-87371743D01*
X135598120Y-87351471D01*
X135602379Y-87345978D01*
X135606152Y-87341561D01*
X135638062Y-87307582D01*
X135647713Y-87290024D01*
X135658396Y-87273761D01*
X135670673Y-87257936D01*
X135689185Y-87215153D01*
X135691738Y-87209941D01*
X135714197Y-87169092D01*
X135719180Y-87149680D01*
X135725481Y-87131280D01*
X135733437Y-87112896D01*
X135740729Y-87066852D01*
X135741906Y-87061171D01*
X135753500Y-87016019D01*
X135753500Y-86995982D01*
X135755027Y-86976582D01*
X135758160Y-86956804D01*
X135753775Y-86910415D01*
X135753500Y-86904577D01*
X135753500Y-86842741D01*
X135773185Y-86775702D01*
X135825989Y-86729947D01*
X135895147Y-86720003D01*
X135903266Y-86721448D01*
X136049354Y-86752500D01*
X136049355Y-86752500D01*
X136238644Y-86752500D01*
X136238646Y-86752500D01*
X136423803Y-86713144D01*
X136596730Y-86636151D01*
X136749871Y-86524888D01*
X136876533Y-86384216D01*
X136971179Y-86220284D01*
X137029674Y-86040256D01*
X137049460Y-85852000D01*
X137029674Y-85663744D01*
X136971179Y-85483716D01*
X136876533Y-85319784D01*
X136858579Y-85299844D01*
X136801350Y-85236284D01*
X136771120Y-85173292D01*
X136769500Y-85153312D01*
X136769500Y-82606451D01*
X136789185Y-82539412D01*
X136805814Y-82518775D01*
X137543788Y-81780801D01*
X137556042Y-81770986D01*
X137555859Y-81770764D01*
X137561868Y-81765791D01*
X137561877Y-81765786D01*
X137608607Y-81716022D01*
X137609846Y-81714743D01*
X137630120Y-81694471D01*
X137634379Y-81688978D01*
X137638152Y-81684561D01*
X137670062Y-81650582D01*
X137679715Y-81633020D01*
X137690389Y-81616770D01*
X137702673Y-81600936D01*
X137721180Y-81558167D01*
X137723749Y-81552924D01*
X137746196Y-81512093D01*
X137746197Y-81512092D01*
X137751177Y-81492691D01*
X137757478Y-81474288D01*
X137765438Y-81455896D01*
X137772730Y-81409849D01*
X137773911Y-81404152D01*
X137785500Y-81359019D01*
X137785500Y-81338982D01*
X137787027Y-81319582D01*
X137790160Y-81299804D01*
X137785775Y-81253415D01*
X137785500Y-81247577D01*
X137785500Y-69398451D01*
X137805185Y-69331412D01*
X137821814Y-69310775D01*
X150420354Y-56712235D01*
X150481675Y-56678752D01*
X150540123Y-56680142D01*
X150640592Y-56707063D01*
X150817034Y-56722500D01*
X150875999Y-56727659D01*
X150876000Y-56727659D01*
X150876001Y-56727659D01*
X150934966Y-56722500D01*
X151111408Y-56707063D01*
X151339663Y-56645903D01*
X151553830Y-56546035D01*
X151747401Y-56410495D01*
X151914495Y-56243401D01*
X152050035Y-56049830D01*
X152149903Y-55835663D01*
X152206081Y-55626000D01*
X157775341Y-55626000D01*
X157795936Y-55861403D01*
X157795938Y-55861413D01*
X157857094Y-56089655D01*
X157857096Y-56089659D01*
X157857097Y-56089663D01*
X157936801Y-56260588D01*
X157956965Y-56303830D01*
X157956967Y-56303834D01*
X158031655Y-56410498D01*
X158092505Y-56497401D01*
X158259599Y-56664495D01*
X158349875Y-56727707D01*
X158453165Y-56800032D01*
X158453167Y-56800033D01*
X158453170Y-56800035D01*
X158667337Y-56899903D01*
X158895592Y-56961063D01*
X159072034Y-56976500D01*
X159130999Y-56981659D01*
X159131000Y-56981659D01*
X159131001Y-56981659D01*
X159189966Y-56976500D01*
X159366408Y-56961063D01*
X159594663Y-56899903D01*
X159808830Y-56800035D01*
X160002401Y-56664495D01*
X160169495Y-56497401D01*
X160299730Y-56311405D01*
X160354307Y-56267781D01*
X160423805Y-56260587D01*
X160486160Y-56292110D01*
X160502879Y-56311405D01*
X160632890Y-56497078D01*
X160799917Y-56664105D01*
X160993421Y-56799600D01*
X161207507Y-56899429D01*
X161207516Y-56899433D01*
X161421000Y-56956634D01*
X161421000Y-56061501D01*
X161528685Y-56110680D01*
X161635237Y-56126000D01*
X161706763Y-56126000D01*
X161813315Y-56110680D01*
X161921000Y-56061501D01*
X161921000Y-56956633D01*
X162134483Y-56899433D01*
X162134492Y-56899429D01*
X162348578Y-56799600D01*
X162542082Y-56664105D01*
X162709105Y-56497082D01*
X162839119Y-56311405D01*
X162893696Y-56267781D01*
X162963195Y-56260588D01*
X163025549Y-56292110D01*
X163042269Y-56311405D01*
X163172505Y-56497401D01*
X163339599Y-56664495D01*
X163429875Y-56727707D01*
X163533165Y-56800032D01*
X163533167Y-56800033D01*
X163533170Y-56800035D01*
X163747337Y-56899903D01*
X163975592Y-56961063D01*
X164152034Y-56976500D01*
X164210999Y-56981659D01*
X164211000Y-56981659D01*
X164211001Y-56981659D01*
X164269966Y-56976500D01*
X164446408Y-56961063D01*
X164674663Y-56899903D01*
X164888830Y-56800035D01*
X165082401Y-56664495D01*
X165204329Y-56542566D01*
X165265648Y-56509084D01*
X165335340Y-56514068D01*
X165391274Y-56555939D01*
X165408189Y-56586917D01*
X165457202Y-56718328D01*
X165457206Y-56718335D01*
X165543452Y-56833544D01*
X165543455Y-56833547D01*
X165658664Y-56919793D01*
X165658671Y-56919797D01*
X165793517Y-56970091D01*
X165793516Y-56970091D01*
X165800444Y-56970835D01*
X165853127Y-56976500D01*
X167648872Y-56976499D01*
X167708483Y-56970091D01*
X167843331Y-56919796D01*
X167958546Y-56833546D01*
X168044796Y-56718331D01*
X168095091Y-56583483D01*
X168101500Y-56523873D01*
X168101499Y-54728128D01*
X168095091Y-54668517D01*
X168093810Y-54665083D01*
X168044797Y-54533671D01*
X168044793Y-54533664D01*
X167958547Y-54418455D01*
X167958544Y-54418452D01*
X167843335Y-54332206D01*
X167843328Y-54332202D01*
X167708482Y-54281908D01*
X167708483Y-54281908D01*
X167648883Y-54275501D01*
X167648881Y-54275500D01*
X167648873Y-54275500D01*
X167648864Y-54275500D01*
X165853129Y-54275500D01*
X165853123Y-54275501D01*
X165793516Y-54281908D01*
X165658671Y-54332202D01*
X165658664Y-54332206D01*
X165543455Y-54418452D01*
X165543452Y-54418455D01*
X165457206Y-54533664D01*
X165457203Y-54533669D01*
X165408189Y-54665083D01*
X165366317Y-54721016D01*
X165300853Y-54745433D01*
X165232580Y-54730581D01*
X165204326Y-54709430D01*
X165082402Y-54587506D01*
X165082395Y-54587501D01*
X164888834Y-54451967D01*
X164888830Y-54451965D01*
X164867584Y-54442058D01*
X164674663Y-54352097D01*
X164674659Y-54352096D01*
X164674655Y-54352094D01*
X164446413Y-54290938D01*
X164446403Y-54290936D01*
X164211001Y-54270341D01*
X164210999Y-54270341D01*
X163975596Y-54290936D01*
X163975586Y-54290938D01*
X163747344Y-54352094D01*
X163747335Y-54352098D01*
X163533171Y-54451964D01*
X163533169Y-54451965D01*
X163339597Y-54587505D01*
X163172508Y-54754594D01*
X163042269Y-54940595D01*
X162987692Y-54984219D01*
X162918193Y-54991412D01*
X162855839Y-54959890D01*
X162839119Y-54940594D01*
X162709113Y-54754926D01*
X162709108Y-54754920D01*
X162542082Y-54587894D01*
X162348578Y-54452399D01*
X162134492Y-54352570D01*
X162134486Y-54352567D01*
X161921000Y-54295364D01*
X161921000Y-55190498D01*
X161813315Y-55141320D01*
X161706763Y-55126000D01*
X161635237Y-55126000D01*
X161528685Y-55141320D01*
X161421000Y-55190498D01*
X161421000Y-54295364D01*
X161420999Y-54295364D01*
X161207513Y-54352567D01*
X161207507Y-54352570D01*
X160993422Y-54452399D01*
X160993420Y-54452400D01*
X160799926Y-54587886D01*
X160799920Y-54587891D01*
X160632891Y-54754920D01*
X160632890Y-54754922D01*
X160502880Y-54940595D01*
X160448303Y-54984219D01*
X160378804Y-54991412D01*
X160316450Y-54959890D01*
X160299730Y-54940594D01*
X160169494Y-54754597D01*
X160002402Y-54587506D01*
X160002395Y-54587501D01*
X159808834Y-54451967D01*
X159808830Y-54451965D01*
X159787584Y-54442058D01*
X159594663Y-54352097D01*
X159594659Y-54352096D01*
X159594655Y-54352094D01*
X159366413Y-54290938D01*
X159366403Y-54290936D01*
X159131001Y-54270341D01*
X159130999Y-54270341D01*
X158895596Y-54290936D01*
X158895586Y-54290938D01*
X158667344Y-54352094D01*
X158667335Y-54352098D01*
X158453171Y-54451964D01*
X158453169Y-54451965D01*
X158259597Y-54587505D01*
X158092505Y-54754597D01*
X157956965Y-54948169D01*
X157956964Y-54948171D01*
X157857098Y-55162335D01*
X157857094Y-55162344D01*
X157795938Y-55390586D01*
X157795936Y-55390596D01*
X157775341Y-55625999D01*
X157775341Y-55626000D01*
X152206081Y-55626000D01*
X152211063Y-55607408D01*
X152231659Y-55372000D01*
X152229999Y-55353032D01*
X152219419Y-55232098D01*
X152211063Y-55136592D01*
X152149903Y-54908337D01*
X152050035Y-54694171D01*
X152044425Y-54686158D01*
X151914494Y-54500597D01*
X151747402Y-54333506D01*
X151747395Y-54333501D01*
X151553834Y-54197967D01*
X151553830Y-54197965D01*
X151533009Y-54188256D01*
X151339663Y-54098097D01*
X151339659Y-54098096D01*
X151339655Y-54098094D01*
X151111413Y-54036938D01*
X151111403Y-54036936D01*
X150876001Y-54016341D01*
X150875999Y-54016341D01*
X150640596Y-54036936D01*
X150640586Y-54036938D01*
X150412344Y-54098094D01*
X150412335Y-54098098D01*
X150198171Y-54197964D01*
X150198169Y-54197965D01*
X150004597Y-54333505D01*
X149837505Y-54500597D01*
X149707575Y-54686158D01*
X149652998Y-54729783D01*
X149583500Y-54736977D01*
X149521145Y-54705454D01*
X149504425Y-54686158D01*
X149374494Y-54500597D01*
X149207402Y-54333506D01*
X149207395Y-54333501D01*
X149013834Y-54197967D01*
X149013830Y-54197965D01*
X148993009Y-54188256D01*
X148799663Y-54098097D01*
X148799659Y-54098096D01*
X148799655Y-54098094D01*
X148571413Y-54036938D01*
X148571403Y-54036936D01*
X148336001Y-54016341D01*
X148335999Y-54016341D01*
X148100596Y-54036936D01*
X148100586Y-54036938D01*
X147872344Y-54098094D01*
X147872335Y-54098098D01*
X147658171Y-54197964D01*
X147658169Y-54197965D01*
X147464597Y-54333505D01*
X147297505Y-54500597D01*
X147167575Y-54686158D01*
X147112998Y-54729783D01*
X147043500Y-54736977D01*
X146981145Y-54705454D01*
X146964425Y-54686158D01*
X146834494Y-54500597D01*
X146667402Y-54333506D01*
X146667395Y-54333501D01*
X146473834Y-54197967D01*
X146473830Y-54197965D01*
X146453009Y-54188256D01*
X146259663Y-54098097D01*
X146259659Y-54098096D01*
X146259655Y-54098094D01*
X146031413Y-54036938D01*
X146031403Y-54036936D01*
X145796001Y-54016341D01*
X145795999Y-54016341D01*
X145560596Y-54036936D01*
X145560586Y-54036938D01*
X145332344Y-54098094D01*
X145332335Y-54098098D01*
X145118171Y-54197964D01*
X145118169Y-54197965D01*
X144924600Y-54333503D01*
X144802673Y-54455430D01*
X144741350Y-54488914D01*
X144671658Y-54483930D01*
X144615725Y-54442058D01*
X144598810Y-54411081D01*
X144549797Y-54279671D01*
X144549793Y-54279664D01*
X144463547Y-54164455D01*
X144463544Y-54164452D01*
X144348335Y-54078206D01*
X144348328Y-54078202D01*
X144213482Y-54027908D01*
X144213483Y-54027908D01*
X144153883Y-54021501D01*
X144153881Y-54021500D01*
X144153873Y-54021500D01*
X144153864Y-54021500D01*
X142358129Y-54021500D01*
X142358123Y-54021501D01*
X142298516Y-54027908D01*
X142163671Y-54078202D01*
X142163664Y-54078206D01*
X142048455Y-54164452D01*
X142048452Y-54164455D01*
X141962206Y-54279664D01*
X141962202Y-54279671D01*
X141911908Y-54414517D01*
X141905501Y-54474116D01*
X141905500Y-54474135D01*
X141905500Y-56269870D01*
X141905501Y-56269876D01*
X141911908Y-56329483D01*
X141962202Y-56464328D01*
X141962206Y-56464335D01*
X142048452Y-56579544D01*
X142048455Y-56579547D01*
X142163664Y-56665793D01*
X142163671Y-56665797D01*
X142198406Y-56678752D01*
X142298517Y-56716091D01*
X142358127Y-56722500D01*
X142506500Y-56722499D01*
X142573539Y-56742183D01*
X142619294Y-56794987D01*
X142630500Y-56846499D01*
X142630500Y-59125546D01*
X142610815Y-59192585D01*
X142594181Y-59213227D01*
X132204208Y-69603199D01*
X132191951Y-69613020D01*
X132192134Y-69613241D01*
X132186122Y-69618214D01*
X132139432Y-69667932D01*
X132138079Y-69669329D01*
X132117889Y-69689519D01*
X132117877Y-69689532D01*
X132113621Y-69695017D01*
X132109837Y-69699447D01*
X132077937Y-69733418D01*
X132077936Y-69733420D01*
X132068284Y-69750976D01*
X132057610Y-69767226D01*
X132045329Y-69783061D01*
X132045324Y-69783068D01*
X132026815Y-69825838D01*
X132024245Y-69831084D01*
X132001803Y-69871906D01*
X131996822Y-69891307D01*
X131990521Y-69909710D01*
X131982562Y-69928102D01*
X131982561Y-69928105D01*
X131975271Y-69974127D01*
X131974087Y-69979846D01*
X131962501Y-70024972D01*
X131962500Y-70024982D01*
X131962500Y-70045016D01*
X131960973Y-70064415D01*
X131957840Y-70084194D01*
X131957839Y-70084197D01*
X131962224Y-70130585D01*
X131962499Y-70136421D01*
X131962499Y-74948567D01*
X131950224Y-74996382D01*
X131952175Y-74997155D01*
X131949301Y-75004414D01*
X131944321Y-75023808D01*
X131938021Y-75042210D01*
X131930062Y-75060602D01*
X131930061Y-75060605D01*
X131922771Y-75106627D01*
X131921587Y-75112346D01*
X131910001Y-75157472D01*
X131910000Y-75157482D01*
X131910000Y-75177516D01*
X131908473Y-75196915D01*
X131905661Y-75214671D01*
X131905340Y-75216696D01*
X131906519Y-75229170D01*
X131909725Y-75263083D01*
X131910000Y-75268921D01*
X131910000Y-85639546D01*
X131890315Y-85706585D01*
X131873681Y-85727227D01*
X126918452Y-90682455D01*
X126857129Y-90715940D01*
X126787437Y-90710956D01*
X126731504Y-90669084D01*
X126729195Y-90665896D01*
X126724283Y-90658881D01*
X126700826Y-90625380D01*
X126544620Y-90469174D01*
X126544616Y-90469171D01*
X126544615Y-90469170D01*
X126363666Y-90342468D01*
X126363658Y-90342464D01*
X126234811Y-90282382D01*
X126182371Y-90236210D01*
X126163219Y-90169017D01*
X126183435Y-90102135D01*
X126234811Y-90057618D01*
X126240802Y-90054824D01*
X126363662Y-89997534D01*
X126544620Y-89870826D01*
X126700826Y-89714620D01*
X126827534Y-89533662D01*
X126920894Y-89333450D01*
X126978070Y-89120068D01*
X126994743Y-88929492D01*
X126997323Y-88900002D01*
X126997323Y-88899997D01*
X126983127Y-88737738D01*
X126978070Y-88679932D01*
X126920894Y-88466550D01*
X126827534Y-88266339D01*
X126764180Y-88175859D01*
X126700827Y-88085381D01*
X126644938Y-88029492D01*
X126544620Y-87929174D01*
X126544616Y-87929171D01*
X126544615Y-87929170D01*
X126363666Y-87802468D01*
X126363658Y-87802464D01*
X126234811Y-87742382D01*
X126182371Y-87696210D01*
X126163219Y-87629017D01*
X126183435Y-87562135D01*
X126234811Y-87517618D01*
X126240802Y-87514824D01*
X126363662Y-87457534D01*
X126544620Y-87330826D01*
X126700826Y-87174620D01*
X126827534Y-86993662D01*
X126920894Y-86793450D01*
X126978070Y-86580068D01*
X126992509Y-86415017D01*
X126997323Y-86360002D01*
X126997323Y-86359997D01*
X126978070Y-86139937D01*
X126978070Y-86139932D01*
X126920894Y-85926550D01*
X126827534Y-85726339D01*
X126764180Y-85635859D01*
X126700827Y-85545381D01*
X126639161Y-85483715D01*
X126544620Y-85389174D01*
X126544616Y-85389171D01*
X126544615Y-85389170D01*
X126363666Y-85262468D01*
X126363658Y-85262464D01*
X126234811Y-85202382D01*
X126182371Y-85156210D01*
X126163219Y-85089017D01*
X126183435Y-85022135D01*
X126234811Y-84977618D01*
X126240802Y-84974824D01*
X126363662Y-84917534D01*
X126544620Y-84790826D01*
X126700826Y-84634620D01*
X126827534Y-84453662D01*
X126920894Y-84253450D01*
X126978070Y-84040068D01*
X126997323Y-83820000D01*
X126978070Y-83599932D01*
X126966292Y-83555976D01*
X126967955Y-83486128D01*
X126998384Y-83436205D01*
X127200788Y-83233801D01*
X127213042Y-83223986D01*
X127212859Y-83223764D01*
X127218868Y-83218791D01*
X127218877Y-83218786D01*
X127265607Y-83169022D01*
X127266846Y-83167743D01*
X127287120Y-83147471D01*
X127291379Y-83141978D01*
X127295152Y-83137561D01*
X127327062Y-83103582D01*
X127336713Y-83086024D01*
X127347396Y-83069761D01*
X127359673Y-83053936D01*
X127378185Y-83011153D01*
X127380738Y-83005941D01*
X127403197Y-82965092D01*
X127408180Y-82945680D01*
X127414481Y-82927280D01*
X127422437Y-82908896D01*
X127429729Y-82862852D01*
X127430906Y-82857171D01*
X127442500Y-82812019D01*
X127442500Y-82791983D01*
X127444027Y-82772582D01*
X127447160Y-82752804D01*
X127442775Y-82706415D01*
X127442500Y-82700577D01*
X127442500Y-81139848D01*
X127462185Y-81072809D01*
X127478819Y-81052167D01*
X128068054Y-80462932D01*
X128722788Y-79808197D01*
X128735042Y-79798382D01*
X128734859Y-79798160D01*
X128740868Y-79793187D01*
X128740877Y-79793182D01*
X128787607Y-79743418D01*
X128788846Y-79742139D01*
X128809120Y-79721867D01*
X128813379Y-79716374D01*
X128817152Y-79711957D01*
X128849062Y-79677978D01*
X128858715Y-79660416D01*
X128869389Y-79644166D01*
X128881673Y-79628332D01*
X128900180Y-79585563D01*
X128902749Y-79580320D01*
X128916878Y-79554620D01*
X128925197Y-79539488D01*
X128930177Y-79520087D01*
X128936478Y-79501684D01*
X128944438Y-79483292D01*
X128951730Y-79437245D01*
X128952911Y-79431548D01*
X128964500Y-79386415D01*
X128964500Y-79366379D01*
X128966027Y-79346978D01*
X128969160Y-79327200D01*
X128964775Y-79280811D01*
X128964500Y-79274973D01*
X128964500Y-71934615D01*
X128964500Y-64503448D01*
X128984184Y-64436413D01*
X129000813Y-64415776D01*
X131955788Y-61460801D01*
X131968042Y-61450986D01*
X131967859Y-61450764D01*
X131973868Y-61445791D01*
X131973877Y-61445786D01*
X132020607Y-61396022D01*
X132021846Y-61394743D01*
X132042120Y-61374471D01*
X132046379Y-61368978D01*
X132050152Y-61364561D01*
X132082062Y-61330582D01*
X132091713Y-61313024D01*
X132102396Y-61296761D01*
X132114673Y-61280936D01*
X132133185Y-61238153D01*
X132135738Y-61232941D01*
X132158197Y-61192092D01*
X132163180Y-61172680D01*
X132169481Y-61154280D01*
X132177437Y-61135896D01*
X132184729Y-61089852D01*
X132185906Y-61084171D01*
X132197500Y-61039019D01*
X132197500Y-61018982D01*
X132199027Y-60999582D01*
X132202160Y-60979804D01*
X132197775Y-60933415D01*
X132197500Y-60927577D01*
X132197500Y-53396452D01*
X132217185Y-53329413D01*
X132233819Y-53308771D01*
X132531473Y-53011118D01*
X132592796Y-52977633D01*
X132619154Y-52974799D01*
X132678345Y-52974799D01*
X132678347Y-52974799D01*
X132863504Y-52935443D01*
X133036431Y-52858450D01*
X133189572Y-52747187D01*
X133316234Y-52606515D01*
X133410880Y-52442583D01*
X133469375Y-52262555D01*
X133489161Y-52074299D01*
X133469375Y-51886043D01*
X133410880Y-51706015D01*
X133316234Y-51542083D01*
X133189572Y-51401411D01*
X133189571Y-51401410D01*
X133036435Y-51290150D01*
X133036433Y-51290149D01*
X132886788Y-51223521D01*
X132833552Y-51178270D01*
X132813231Y-51111421D01*
X132829838Y-51048242D01*
X132907179Y-50914284D01*
X132965674Y-50734256D01*
X132985460Y-50546000D01*
X132965674Y-50357744D01*
X132907179Y-50177716D01*
X132812533Y-50013784D01*
X132685871Y-49873112D01*
X132685870Y-49873111D01*
X132532734Y-49761851D01*
X132532729Y-49761848D01*
X132359807Y-49684857D01*
X132359802Y-49684855D01*
X132214001Y-49653865D01*
X132174646Y-49645500D01*
X131985354Y-49645500D01*
X131952897Y-49652398D01*
X131800197Y-49684855D01*
X131800192Y-49684857D01*
X131627270Y-49761848D01*
X131627265Y-49761851D01*
X131474129Y-49873111D01*
X131347466Y-50013785D01*
X131252821Y-50177715D01*
X131252818Y-50177722D01*
X131194327Y-50357740D01*
X131194326Y-50357744D01*
X131176679Y-50525649D01*
X131150094Y-50590263D01*
X131141039Y-50600368D01*
X130680208Y-51061199D01*
X130667951Y-51071020D01*
X130668134Y-51071241D01*
X130662122Y-51076214D01*
X130615432Y-51125932D01*
X130614079Y-51127329D01*
X130593889Y-51147519D01*
X130593877Y-51147532D01*
X130589621Y-51153017D01*
X130585837Y-51157447D01*
X130553937Y-51191418D01*
X130553936Y-51191420D01*
X130544284Y-51208976D01*
X130533610Y-51225226D01*
X130521329Y-51241061D01*
X130521324Y-51241068D01*
X130502815Y-51283838D01*
X130500245Y-51289084D01*
X130477803Y-51329906D01*
X130472822Y-51349307D01*
X130466521Y-51367710D01*
X130458562Y-51386102D01*
X130458561Y-51386105D01*
X130451271Y-51432127D01*
X130450087Y-51437846D01*
X130438501Y-51482972D01*
X130438500Y-51482982D01*
X130438500Y-51503016D01*
X130436973Y-51522415D01*
X130433840Y-51542194D01*
X130433840Y-51542195D01*
X130438225Y-51588583D01*
X130438500Y-51594421D01*
X130438500Y-60395546D01*
X130418815Y-60462585D01*
X130402181Y-60483227D01*
X127505208Y-63380199D01*
X127492951Y-63390020D01*
X127493134Y-63390241D01*
X127487122Y-63395214D01*
X127440432Y-63444932D01*
X127439079Y-63446329D01*
X127418889Y-63466519D01*
X127418877Y-63466532D01*
X127414621Y-63472017D01*
X127410837Y-63476447D01*
X127378937Y-63510418D01*
X127378936Y-63510420D01*
X127369284Y-63527976D01*
X127358610Y-63544226D01*
X127346329Y-63560061D01*
X127346324Y-63560068D01*
X127327815Y-63602838D01*
X127325245Y-63608084D01*
X127302803Y-63648906D01*
X127297822Y-63668307D01*
X127291521Y-63686710D01*
X127283562Y-63705102D01*
X127283561Y-63705105D01*
X127276271Y-63751127D01*
X127275087Y-63756846D01*
X127263501Y-63801972D01*
X127263500Y-63801982D01*
X127263500Y-63822016D01*
X127261973Y-63841415D01*
X127258840Y-63861194D01*
X127258839Y-63861197D01*
X127263224Y-63907585D01*
X127263499Y-63913421D01*
X127263500Y-78810546D01*
X127243815Y-78877585D01*
X127227181Y-78898227D01*
X127201016Y-78924392D01*
X127139693Y-78957877D01*
X127070001Y-78952893D01*
X127014068Y-78911021D01*
X126989651Y-78845557D01*
X126989806Y-78825911D01*
X126997323Y-78740000D01*
X126997322Y-78739994D01*
X126984871Y-78597667D01*
X126978070Y-78519932D01*
X126920894Y-78306550D01*
X126827534Y-78106339D01*
X126764180Y-78015859D01*
X126700827Y-77925381D01*
X126652365Y-77876919D01*
X126544620Y-77769174D01*
X126544616Y-77769171D01*
X126544615Y-77769170D01*
X126363666Y-77642468D01*
X126363658Y-77642464D01*
X126234811Y-77582382D01*
X126182371Y-77536210D01*
X126163219Y-77469017D01*
X126183435Y-77402135D01*
X126234811Y-77357618D01*
X126240802Y-77354824D01*
X126363662Y-77297534D01*
X126544620Y-77170826D01*
X126700826Y-77014620D01*
X126827534Y-76833662D01*
X126920894Y-76633450D01*
X126978070Y-76420068D01*
X126997323Y-76200000D01*
X126997322Y-76199994D01*
X126986245Y-76073379D01*
X126978070Y-75979932D01*
X126920894Y-75766550D01*
X126827534Y-75566339D01*
X126739139Y-75440097D01*
X126700827Y-75385381D01*
X126626434Y-75310988D01*
X126544620Y-75229174D01*
X126544616Y-75229171D01*
X126544615Y-75229170D01*
X126363666Y-75102468D01*
X126363658Y-75102464D01*
X126234811Y-75042382D01*
X126182371Y-74996210D01*
X126163219Y-74929017D01*
X126183435Y-74862135D01*
X126234811Y-74817618D01*
X126248969Y-74811016D01*
X126363662Y-74757534D01*
X126544620Y-74630826D01*
X126700826Y-74474620D01*
X126827534Y-74293662D01*
X126920894Y-74093450D01*
X126978070Y-73880068D01*
X126997323Y-73660000D01*
X126997322Y-73659994D01*
X126988331Y-73557214D01*
X126978070Y-73439932D01*
X126920894Y-73226550D01*
X126827534Y-73026339D01*
X126764180Y-72935859D01*
X126700827Y-72845381D01*
X126692186Y-72836740D01*
X126544620Y-72689174D01*
X126544616Y-72689171D01*
X126544615Y-72689170D01*
X126363666Y-72562468D01*
X126363658Y-72562464D01*
X126234811Y-72502382D01*
X126182371Y-72456210D01*
X126163219Y-72389017D01*
X126183435Y-72322135D01*
X126234811Y-72277618D01*
X126240802Y-72274824D01*
X126363662Y-72217534D01*
X126544620Y-72090826D01*
X126700826Y-71934620D01*
X126827534Y-71753662D01*
X126920894Y-71553450D01*
X126978070Y-71340068D01*
X126997323Y-71120000D01*
X126997322Y-71119994D01*
X126985583Y-70985806D01*
X126978070Y-70899932D01*
X126920894Y-70686550D01*
X126827534Y-70486339D01*
X126700826Y-70305380D01*
X126544620Y-70149174D01*
X126544616Y-70149171D01*
X126544615Y-70149170D01*
X126363666Y-70022468D01*
X126363658Y-70022464D01*
X126234219Y-69962106D01*
X126181779Y-69915934D01*
X126162627Y-69848741D01*
X126182843Y-69781859D01*
X126234219Y-69737342D01*
X126363408Y-69677100D01*
X126363420Y-69677093D01*
X126428186Y-69631742D01*
X126428187Y-69631740D01*
X125757448Y-68961000D01*
X125761569Y-68961000D01*
X125855421Y-68945339D01*
X125967251Y-68884820D01*
X126053371Y-68791269D01*
X126104448Y-68674823D01*
X126110105Y-68606552D01*
X126781740Y-69278187D01*
X126781742Y-69278186D01*
X126827093Y-69213420D01*
X126827100Y-69213408D01*
X126920419Y-69013284D01*
X126920424Y-69013270D01*
X126977573Y-68799986D01*
X126977575Y-68799976D01*
X126996821Y-68580000D01*
X126996821Y-68579999D01*
X126977575Y-68360023D01*
X126977573Y-68360013D01*
X126920424Y-68146729D01*
X126920420Y-68146720D01*
X126827098Y-67946590D01*
X126781740Y-67881811D01*
X126114903Y-68548648D01*
X126114949Y-68548102D01*
X126083734Y-68424838D01*
X126014187Y-68318388D01*
X125913843Y-68240287D01*
X125793578Y-68199000D01*
X125757447Y-68199000D01*
X126428187Y-67528258D01*
X126363409Y-67482900D01*
X126363407Y-67482899D01*
X126163284Y-67389580D01*
X126163270Y-67389575D01*
X125949986Y-67332426D01*
X125949976Y-67332424D01*
X125730001Y-67313179D01*
X125729999Y-67313179D01*
X125510023Y-67332424D01*
X125510013Y-67332426D01*
X125296729Y-67389575D01*
X125296720Y-67389579D01*
X125096586Y-67482903D01*
X125031812Y-67528257D01*
X125031811Y-67528258D01*
X125702554Y-68199000D01*
X125698431Y-68199000D01*
X125604579Y-68214661D01*
X125492749Y-68275180D01*
X125406629Y-68368731D01*
X125355552Y-68485177D01*
X125349894Y-68553446D01*
X124678258Y-67881811D01*
X124678257Y-67881812D01*
X124632903Y-67946586D01*
X124539579Y-68146720D01*
X124539575Y-68146729D01*
X124482426Y-68360013D01*
X124482424Y-68360023D01*
X124463179Y-68579999D01*
X124463179Y-68580000D01*
X124482424Y-68799976D01*
X124482426Y-68799986D01*
X124539575Y-69013270D01*
X124539580Y-69013284D01*
X124632899Y-69213407D01*
X124632900Y-69213409D01*
X124678258Y-69278187D01*
X125345096Y-68611347D01*
X125345051Y-68611898D01*
X125376266Y-68735162D01*
X125445813Y-68841612D01*
X125546157Y-68919713D01*
X125666422Y-68961000D01*
X125702553Y-68961000D01*
X125031811Y-69631741D01*
X125096582Y-69677094D01*
X125096588Y-69677098D01*
X125225781Y-69737342D01*
X125278220Y-69783514D01*
X125297372Y-69850708D01*
X125277156Y-69917589D01*
X125225781Y-69962106D01*
X125096340Y-70022465D01*
X125096338Y-70022466D01*
X124915377Y-70149175D01*
X124759175Y-70305377D01*
X124632466Y-70486338D01*
X124632465Y-70486340D01*
X124539107Y-70686548D01*
X124539104Y-70686554D01*
X124481930Y-70899929D01*
X124481929Y-70899937D01*
X124462677Y-71119997D01*
X124462677Y-71120002D01*
X124481929Y-71340062D01*
X124481930Y-71340070D01*
X124539104Y-71553445D01*
X124539105Y-71553447D01*
X124539106Y-71553450D01*
X124632465Y-71753662D01*
X124632466Y-71753662D01*
X124632468Y-71753666D01*
X124759170Y-71934615D01*
X124759175Y-71934621D01*
X124915378Y-72090824D01*
X124915384Y-72090829D01*
X125096333Y-72217531D01*
X125096335Y-72217532D01*
X125096338Y-72217534D01*
X125215748Y-72273215D01*
X125225189Y-72277618D01*
X125277628Y-72323790D01*
X125296780Y-72390984D01*
X125276564Y-72457865D01*
X125225189Y-72502382D01*
X125096340Y-72562465D01*
X125096338Y-72562466D01*
X124915377Y-72689175D01*
X124759175Y-72845377D01*
X124632466Y-73026338D01*
X124632465Y-73026340D01*
X124539107Y-73226548D01*
X124539104Y-73226554D01*
X124481930Y-73439929D01*
X124481929Y-73439937D01*
X124462677Y-73659997D01*
X124462677Y-73660002D01*
X124481929Y-73880062D01*
X124481930Y-73880070D01*
X124539104Y-74093445D01*
X124539105Y-74093447D01*
X124539106Y-74093450D01*
X124584486Y-74190768D01*
X124632466Y-74293662D01*
X124632468Y-74293666D01*
X124759170Y-74474615D01*
X124759175Y-74474621D01*
X124915378Y-74630824D01*
X124915384Y-74630829D01*
X125096333Y-74757531D01*
X125096335Y-74757532D01*
X125096338Y-74757534D01*
X125168066Y-74790981D01*
X125225189Y-74817618D01*
X125277628Y-74863790D01*
X125296780Y-74930984D01*
X125276564Y-74997865D01*
X125225189Y-75042382D01*
X125096340Y-75102465D01*
X125096338Y-75102466D01*
X124915377Y-75229175D01*
X124759175Y-75385377D01*
X124632466Y-75566338D01*
X124632465Y-75566340D01*
X124539107Y-75766548D01*
X124539104Y-75766554D01*
X124481930Y-75979929D01*
X124481929Y-75979937D01*
X124462677Y-76199997D01*
X124462677Y-76200002D01*
X124481929Y-76420062D01*
X124481930Y-76420070D01*
X124539104Y-76633445D01*
X124539105Y-76633447D01*
X124539106Y-76633450D01*
X124595472Y-76754327D01*
X124632466Y-76833662D01*
X124632468Y-76833666D01*
X124759170Y-77014615D01*
X124759175Y-77014621D01*
X124915378Y-77170824D01*
X124915384Y-77170829D01*
X125096333Y-77297531D01*
X125096335Y-77297532D01*
X125096338Y-77297534D01*
X125215748Y-77353215D01*
X125225189Y-77357618D01*
X125277628Y-77403790D01*
X125296780Y-77470984D01*
X125276564Y-77537865D01*
X125225189Y-77582382D01*
X125096340Y-77642465D01*
X125096338Y-77642466D01*
X124915377Y-77769175D01*
X124759175Y-77925377D01*
X124632466Y-78106338D01*
X124632465Y-78106340D01*
X124539107Y-78306548D01*
X124539104Y-78306554D01*
X124481930Y-78519929D01*
X124481929Y-78519937D01*
X124462677Y-78739997D01*
X124462677Y-78740002D01*
X124481929Y-78960062D01*
X124481930Y-78960070D01*
X124539104Y-79173445D01*
X124539105Y-79173447D01*
X124539106Y-79173450D01*
X124610801Y-79327200D01*
X124632466Y-79373662D01*
X124632468Y-79373666D01*
X124759170Y-79554615D01*
X124759175Y-79554621D01*
X124915378Y-79710824D01*
X124915384Y-79710829D01*
X125096333Y-79837531D01*
X125096335Y-79837532D01*
X125096338Y-79837534D01*
X125160959Y-79867667D01*
X125225189Y-79897618D01*
X125277628Y-79943790D01*
X125296780Y-80010984D01*
X125276564Y-80077865D01*
X125225189Y-80122382D01*
X125096340Y-80182465D01*
X125096338Y-80182466D01*
X124915377Y-80309175D01*
X124759175Y-80465377D01*
X124632466Y-80646338D01*
X124632465Y-80646340D01*
X124539107Y-80846548D01*
X124539104Y-80846554D01*
X124481930Y-81059929D01*
X124481929Y-81059937D01*
X124462677Y-81279997D01*
X124462677Y-81280002D01*
X124481929Y-81500062D01*
X124481930Y-81500070D01*
X124539104Y-81713445D01*
X124539105Y-81713447D01*
X124539106Y-81713450D01*
X124580355Y-81801909D01*
X124632466Y-81913662D01*
X124632468Y-81913666D01*
X124759170Y-82094615D01*
X124759175Y-82094621D01*
X124915378Y-82250824D01*
X124915384Y-82250829D01*
X125096333Y-82377531D01*
X125096335Y-82377532D01*
X125096338Y-82377534D01*
X125215748Y-82433215D01*
X125225189Y-82437618D01*
X125277628Y-82483790D01*
X125296780Y-82550984D01*
X125276564Y-82617865D01*
X125225189Y-82662382D01*
X125096340Y-82722465D01*
X125096338Y-82722466D01*
X124915377Y-82849175D01*
X124759175Y-83005377D01*
X124632466Y-83186338D01*
X124632465Y-83186340D01*
X124539107Y-83386548D01*
X124539104Y-83386554D01*
X124481930Y-83599929D01*
X124481929Y-83599937D01*
X124462677Y-83819997D01*
X124462677Y-83820002D01*
X124481929Y-84040062D01*
X124481930Y-84040070D01*
X124539104Y-84253445D01*
X124539105Y-84253447D01*
X124539106Y-84253450D01*
X124632465Y-84453662D01*
X124632466Y-84453662D01*
X124632468Y-84453666D01*
X124759170Y-84634615D01*
X124759175Y-84634621D01*
X124915378Y-84790824D01*
X124915384Y-84790829D01*
X125096333Y-84917531D01*
X125096335Y-84917532D01*
X125096338Y-84917534D01*
X125215748Y-84973215D01*
X125225189Y-84977618D01*
X125277628Y-85023790D01*
X125296780Y-85090984D01*
X125276564Y-85157865D01*
X125225189Y-85202382D01*
X125096340Y-85262465D01*
X125096338Y-85262466D01*
X124915377Y-85389175D01*
X124759175Y-85545377D01*
X124632466Y-85726338D01*
X124632465Y-85726340D01*
X124539107Y-85926548D01*
X124539104Y-85926554D01*
X124481930Y-86139929D01*
X124481929Y-86139937D01*
X124462677Y-86359997D01*
X124462677Y-86360002D01*
X124470305Y-86447187D01*
X124481930Y-86580068D01*
X124483342Y-86585339D01*
X124493707Y-86624019D01*
X124492044Y-86693869D01*
X124461613Y-86743794D01*
X122806208Y-88399199D01*
X122793951Y-88409020D01*
X122794134Y-88409241D01*
X122788122Y-88414214D01*
X122741432Y-88463932D01*
X122740079Y-88465329D01*
X122719889Y-88485519D01*
X122719877Y-88485532D01*
X122715621Y-88491017D01*
X122711837Y-88495447D01*
X122679937Y-88529418D01*
X122679936Y-88529420D01*
X122670284Y-88546976D01*
X122659610Y-88563226D01*
X122647329Y-88579061D01*
X122647324Y-88579068D01*
X122628815Y-88621838D01*
X122626245Y-88627084D01*
X122603803Y-88667906D01*
X122598822Y-88687307D01*
X122592521Y-88705710D01*
X122584562Y-88724102D01*
X122584561Y-88724105D01*
X122577271Y-88770127D01*
X122576087Y-88775846D01*
X122564501Y-88820972D01*
X122564500Y-88820982D01*
X122564500Y-88841016D01*
X122562973Y-88860415D01*
X122559840Y-88880194D01*
X122559839Y-88880197D01*
X122564224Y-88926585D01*
X122564499Y-88932421D01*
X122564500Y-91764546D01*
X122544815Y-91831585D01*
X122528181Y-91852227D01*
X122228381Y-92152026D01*
X122167058Y-92185511D01*
X122097366Y-92180527D01*
X122041433Y-92138655D01*
X122027144Y-92114155D01*
X122009798Y-92074611D01*
X121974173Y-91993393D01*
X121954544Y-91963348D01*
X121838166Y-91785217D01*
X121777565Y-91719387D01*
X121669744Y-91602262D01*
X121586991Y-91537852D01*
X121546179Y-91481143D01*
X121542504Y-91411370D01*
X121577136Y-91350687D01*
X121586985Y-91342151D01*
X121669744Y-91277738D01*
X121838164Y-91094785D01*
X121974173Y-90886607D01*
X122074063Y-90658881D01*
X122135108Y-90417821D01*
X122139574Y-90363927D01*
X122155643Y-90170005D01*
X122155643Y-90169994D01*
X122135109Y-89922187D01*
X122135107Y-89922175D01*
X122074063Y-89681118D01*
X121974173Y-89453393D01*
X121838166Y-89245217D01*
X121776485Y-89178214D01*
X121669744Y-89062262D01*
X121586991Y-88997852D01*
X121546179Y-88941143D01*
X121542504Y-88871370D01*
X121577136Y-88810687D01*
X121586985Y-88802151D01*
X121669744Y-88737738D01*
X121838164Y-88554785D01*
X121974173Y-88346607D01*
X122074063Y-88118881D01*
X122135108Y-87877821D01*
X122135109Y-87877812D01*
X122155643Y-87630005D01*
X122155643Y-87629994D01*
X122135109Y-87382187D01*
X122135107Y-87382175D01*
X122074063Y-87141118D01*
X121974174Y-86913396D01*
X121974173Y-86913393D01*
X121842979Y-86712585D01*
X121822793Y-86645698D01*
X121841973Y-86578512D01*
X121887366Y-86535932D01*
X121892092Y-86533351D01*
X122007187Y-86447190D01*
X122007190Y-86447187D01*
X122093350Y-86332093D01*
X122093354Y-86332086D01*
X122143596Y-86197379D01*
X122143598Y-86197372D01*
X122149999Y-86137844D01*
X122150000Y-86137827D01*
X122150000Y-85340000D01*
X121083686Y-85340000D01*
X121109493Y-85299844D01*
X121150000Y-85161889D01*
X121150000Y-85018111D01*
X121109493Y-84880156D01*
X121083686Y-84840000D01*
X122150000Y-84840000D01*
X122150000Y-84042172D01*
X122149999Y-84042155D01*
X122143598Y-83982627D01*
X122143596Y-83982620D01*
X122093354Y-83847913D01*
X122093350Y-83847906D01*
X122007190Y-83732812D01*
X122007187Y-83732809D01*
X121892093Y-83646649D01*
X121892086Y-83646645D01*
X121757379Y-83596403D01*
X121757372Y-83596401D01*
X121697844Y-83590000D01*
X120900000Y-83590000D01*
X120900000Y-84654498D01*
X120792315Y-84605320D01*
X120685763Y-84590000D01*
X120614237Y-84590000D01*
X120507685Y-84605320D01*
X120399999Y-84654498D01*
X120400000Y-83590000D01*
X119602155Y-83590000D01*
X119542627Y-83596401D01*
X119542620Y-83596403D01*
X119407913Y-83646645D01*
X119407906Y-83646649D01*
X119292812Y-83732809D01*
X119292809Y-83732812D01*
X119206649Y-83847906D01*
X119206645Y-83847913D01*
X119156403Y-83982620D01*
X119156401Y-83982627D01*
X119150000Y-84042155D01*
X119150000Y-84840000D01*
X120216314Y-84840000D01*
X120190507Y-84880156D01*
X120150000Y-85018111D01*
X120150000Y-85161889D01*
X120190507Y-85299844D01*
X120216314Y-85340000D01*
X119150000Y-85340000D01*
X119150000Y-86137844D01*
X119156401Y-86197372D01*
X119156403Y-86197379D01*
X119206645Y-86332086D01*
X119206649Y-86332093D01*
X119292809Y-86447187D01*
X119292812Y-86447190D01*
X119407908Y-86533352D01*
X119412637Y-86535934D01*
X119462042Y-86585339D01*
X119476894Y-86653612D01*
X119457019Y-86712587D01*
X119325826Y-86913393D01*
X119225936Y-87141118D01*
X119164892Y-87382175D01*
X119164890Y-87382187D01*
X119144357Y-87629994D01*
X119144357Y-87630005D01*
X119164890Y-87877812D01*
X119164892Y-87877824D01*
X119225936Y-88118881D01*
X119325826Y-88346606D01*
X119461833Y-88554782D01*
X119461836Y-88554785D01*
X119630256Y-88737738D01*
X119713010Y-88802148D01*
X119753821Y-88858855D01*
X119757496Y-88928628D01*
X119722865Y-88989311D01*
X119713009Y-88997852D01*
X119630258Y-89062260D01*
X119461833Y-89245217D01*
X119325826Y-89453393D01*
X119225936Y-89681118D01*
X119164892Y-89922175D01*
X119164890Y-89922187D01*
X119144357Y-90169994D01*
X119144357Y-90170005D01*
X119164890Y-90417812D01*
X119164892Y-90417824D01*
X119225936Y-90658881D01*
X119325826Y-90886606D01*
X119461833Y-91094782D01*
X119461836Y-91094785D01*
X119630256Y-91277738D01*
X119713008Y-91342146D01*
X119753820Y-91398856D01*
X119757495Y-91468629D01*
X119722864Y-91529312D01*
X119713009Y-91537852D01*
X119630255Y-91602262D01*
X119461833Y-91785217D01*
X119325826Y-91993393D01*
X119225936Y-92221118D01*
X119164892Y-92462175D01*
X119164890Y-92462187D01*
X119144357Y-92709994D01*
X119144357Y-92710005D01*
X119164890Y-92957812D01*
X119164892Y-92957824D01*
X119225936Y-93198881D01*
X119325826Y-93426606D01*
X119461833Y-93634782D01*
X119485284Y-93660256D01*
X119630256Y-93817738D01*
X119826491Y-93970474D01*
X119826493Y-93970475D01*
X120045188Y-94088827D01*
X120049881Y-94090885D01*
X120048915Y-94093086D01*
X120097765Y-94127708D01*
X120123879Y-94192514D01*
X120110810Y-94261150D01*
X120088148Y-94292259D01*
X115186208Y-99194199D01*
X115173951Y-99204020D01*
X115174134Y-99204241D01*
X115168122Y-99209214D01*
X115121432Y-99258932D01*
X115120079Y-99260329D01*
X115099889Y-99280519D01*
X115099877Y-99280532D01*
X115095621Y-99286017D01*
X115091837Y-99290447D01*
X115059937Y-99324418D01*
X115059936Y-99324420D01*
X115050284Y-99341976D01*
X115039610Y-99358226D01*
X115027329Y-99374061D01*
X115027324Y-99374068D01*
X115008815Y-99416838D01*
X115006245Y-99422084D01*
X114983803Y-99462906D01*
X114978822Y-99482307D01*
X114972521Y-99500710D01*
X114964562Y-99519102D01*
X114964561Y-99519105D01*
X114957271Y-99565127D01*
X114956087Y-99570846D01*
X114944501Y-99615972D01*
X114944500Y-99615982D01*
X114944500Y-99636016D01*
X114942973Y-99655415D01*
X114939840Y-99675194D01*
X114939839Y-99675197D01*
X114944224Y-99721585D01*
X114944499Y-99727421D01*
X114944500Y-108521312D01*
X114924815Y-108588351D01*
X114912650Y-108604284D01*
X114837466Y-108687784D01*
X114742821Y-108851715D01*
X114742818Y-108851722D01*
X114691340Y-109010156D01*
X114684326Y-109031744D01*
X114664540Y-109220000D01*
X88130000Y-109220000D01*
X88130000Y-109148111D01*
X88089493Y-109010156D01*
X88063686Y-108970000D01*
X88980000Y-108970000D01*
X88980000Y-108322172D01*
X88979999Y-108322155D01*
X88973598Y-108262627D01*
X88973596Y-108262620D01*
X88923354Y-108127913D01*
X88923350Y-108127906D01*
X88837190Y-108012812D01*
X88837187Y-108012809D01*
X88722093Y-107926649D01*
X88722086Y-107926645D01*
X88587379Y-107876403D01*
X88587372Y-107876401D01*
X88527844Y-107870000D01*
X87880000Y-107870000D01*
X87880000Y-108784498D01*
X87772315Y-108735320D01*
X87665763Y-108720000D01*
X87594237Y-108720000D01*
X87487685Y-108735320D01*
X87380000Y-108784498D01*
X87380000Y-107870000D01*
X86732155Y-107870000D01*
X86672627Y-107876401D01*
X86672620Y-107876403D01*
X86537913Y-107926645D01*
X86537906Y-107926649D01*
X86422812Y-108012809D01*
X86422809Y-108012812D01*
X86336649Y-108127906D01*
X86336645Y-108127913D01*
X86286403Y-108262620D01*
X86286401Y-108262627D01*
X86280000Y-108322155D01*
X86280000Y-108970000D01*
X87196314Y-108970000D01*
X87170507Y-109010156D01*
X87130000Y-109148111D01*
X87130000Y-109291889D01*
X87170507Y-109429844D01*
X87196314Y-109470000D01*
X86280000Y-109470000D01*
X86280000Y-110117844D01*
X86286401Y-110177372D01*
X86286403Y-110177379D01*
X86336645Y-110312086D01*
X86336649Y-110312093D01*
X86422809Y-110427187D01*
X86422812Y-110427190D01*
X86537906Y-110513350D01*
X86537913Y-110513354D01*
X86669470Y-110562421D01*
X86725403Y-110604292D01*
X86749821Y-110669756D01*
X86734970Y-110738029D01*
X86713819Y-110766284D01*
X86591503Y-110888600D01*
X86455965Y-111082169D01*
X86455964Y-111082171D01*
X86356098Y-111296335D01*
X86356094Y-111296344D01*
X86294938Y-111524586D01*
X86294936Y-111524596D01*
X86274341Y-111759999D01*
X86274341Y-111760000D01*
X86294936Y-111995403D01*
X86294938Y-111995413D01*
X86356094Y-112223655D01*
X86356096Y-112223659D01*
X86356097Y-112223663D01*
X86402630Y-112323453D01*
X86455965Y-112437830D01*
X86455967Y-112437834D01*
X86591501Y-112631395D01*
X86591506Y-112631402D01*
X86758597Y-112798493D01*
X86758603Y-112798498D01*
X86944158Y-112928425D01*
X86987783Y-112983002D01*
X86994977Y-113052500D01*
X86963454Y-113114855D01*
X86944158Y-113131575D01*
X86758597Y-113261505D01*
X86591505Y-113428597D01*
X86455965Y-113622169D01*
X86455964Y-113622171D01*
X86356098Y-113836335D01*
X86356094Y-113836344D01*
X86294938Y-114064586D01*
X86294936Y-114064596D01*
X86274341Y-114299999D01*
X86274341Y-114300000D01*
X86294936Y-114535403D01*
X86294938Y-114535413D01*
X86356094Y-114763655D01*
X86356096Y-114763659D01*
X86356097Y-114763663D01*
X86455965Y-114977830D01*
X86455967Y-114977834D01*
X86591501Y-115171395D01*
X86591506Y-115171402D01*
X86758597Y-115338493D01*
X86758603Y-115338498D01*
X86944158Y-115468425D01*
X86987783Y-115523002D01*
X86994977Y-115592500D01*
X86963454Y-115654855D01*
X86944158Y-115671575D01*
X86758597Y-115801505D01*
X86591505Y-115968597D01*
X86455965Y-116162169D01*
X86455964Y-116162171D01*
X86356098Y-116376335D01*
X86356094Y-116376344D01*
X86294938Y-116604586D01*
X86294936Y-116604596D01*
X86274341Y-116839999D01*
X86274341Y-116840000D01*
X85090500Y-116840000D01*
X85090500Y-99060007D01*
X86644671Y-99060007D01*
X86663964Y-99354363D01*
X86663965Y-99354373D01*
X86663966Y-99354380D01*
X86712642Y-99599096D01*
X86721518Y-99643716D01*
X86721521Y-99643730D01*
X86816349Y-99923080D01*
X86946825Y-100187660D01*
X86946829Y-100187667D01*
X87110725Y-100432955D01*
X87305241Y-100654758D01*
X87527044Y-100849274D01*
X87702246Y-100966340D01*
X87772335Y-101013172D01*
X88036923Y-101143652D01*
X88316278Y-101238481D01*
X88605620Y-101296034D01*
X88633888Y-101297886D01*
X88899993Y-101315329D01*
X88900000Y-101315329D01*
X88900007Y-101315329D01*
X89135675Y-101299881D01*
X89194380Y-101296034D01*
X89483722Y-101238481D01*
X89763077Y-101143652D01*
X90027665Y-101013172D01*
X90272957Y-100849273D01*
X90494758Y-100654758D01*
X90689273Y-100432957D01*
X90853172Y-100187665D01*
X90983652Y-99923077D01*
X91078481Y-99643722D01*
X91136034Y-99354380D01*
X91151759Y-99114467D01*
X91155329Y-99060007D01*
X91155329Y-99059992D01*
X91136035Y-98765636D01*
X91136034Y-98765620D01*
X91078481Y-98476278D01*
X90983652Y-98196923D01*
X90853172Y-97932336D01*
X90833157Y-97902382D01*
X90798042Y-97849829D01*
X90689273Y-97687043D01*
X90560432Y-97540128D01*
X90494758Y-97465241D01*
X90272955Y-97270725D01*
X90027667Y-97106829D01*
X90027660Y-97106825D01*
X89763080Y-96976349D01*
X89483730Y-96881521D01*
X89483724Y-96881519D01*
X89483722Y-96881519D01*
X89194380Y-96823966D01*
X89194373Y-96823965D01*
X89194363Y-96823964D01*
X88900007Y-96804671D01*
X88899993Y-96804671D01*
X88605636Y-96823964D01*
X88605624Y-96823965D01*
X88605620Y-96823966D01*
X88605612Y-96823967D01*
X88605609Y-96823968D01*
X88316283Y-96881518D01*
X88316269Y-96881521D01*
X88036919Y-96976349D01*
X87772334Y-97106828D01*
X87527041Y-97270728D01*
X87305241Y-97465241D01*
X87110728Y-97687041D01*
X86946828Y-97932334D01*
X86816349Y-98196919D01*
X86721521Y-98476269D01*
X86721518Y-98476283D01*
X86663968Y-98765609D01*
X86663964Y-98765636D01*
X86644671Y-99059992D01*
X86644671Y-99060007D01*
X85090500Y-99060007D01*
X85090500Y-76826883D01*
X85110185Y-76759844D01*
X85162989Y-76714089D01*
X85214072Y-76702884D01*
X85419757Y-76702174D01*
X87500567Y-76694999D01*
X87567673Y-76714452D01*
X87613610Y-76767098D01*
X87623792Y-76836222D01*
X87594986Y-76899877D01*
X87569886Y-76922099D01*
X87527043Y-76950726D01*
X87305241Y-77145241D01*
X87110728Y-77367041D01*
X86946828Y-77612334D01*
X86816349Y-77876919D01*
X86721521Y-78156269D01*
X86721518Y-78156283D01*
X86663968Y-78445609D01*
X86663964Y-78445636D01*
X86644671Y-78739992D01*
X86644671Y-78740007D01*
X86663964Y-79034363D01*
X86663965Y-79034373D01*
X86663966Y-79034380D01*
X86711822Y-79274973D01*
X86721518Y-79323716D01*
X86721521Y-79323730D01*
X86816349Y-79603080D01*
X86946825Y-79867660D01*
X86946829Y-79867667D01*
X87110725Y-80112955D01*
X87305241Y-80334758D01*
X87527044Y-80529274D01*
X87772332Y-80693170D01*
X87772339Y-80693174D01*
X87781789Y-80697834D01*
X88036923Y-80823652D01*
X88316278Y-80918481D01*
X88605620Y-80976034D01*
X88633888Y-80977886D01*
X88899993Y-80995329D01*
X88900000Y-80995329D01*
X88900007Y-80995329D01*
X89135675Y-80979881D01*
X89194380Y-80976034D01*
X89483722Y-80918481D01*
X89763077Y-80823652D01*
X90027665Y-80693172D01*
X90272957Y-80529273D01*
X90494758Y-80334758D01*
X90689273Y-80112957D01*
X90853172Y-79867665D01*
X90983652Y-79603077D01*
X91078481Y-79323722D01*
X91136034Y-79034380D01*
X91148384Y-78845965D01*
X91155329Y-78740007D01*
X91155329Y-78739992D01*
X91136035Y-78445636D01*
X91136034Y-78445620D01*
X91078481Y-78156278D01*
X90983652Y-77876923D01*
X90853172Y-77612336D01*
X90833157Y-77582382D01*
X90777196Y-77498630D01*
X90689273Y-77367043D01*
X90609493Y-77276072D01*
X90494758Y-77145241D01*
X90297254Y-76972035D01*
X90272957Y-76950727D01*
X90215748Y-76912501D01*
X90170943Y-76858889D01*
X90162236Y-76789564D01*
X90192390Y-76726536D01*
X90251833Y-76689817D01*
X90284209Y-76685400D01*
X118138680Y-76589351D01*
X118205787Y-76608804D01*
X118251724Y-76661450D01*
X118261906Y-76730574D01*
X118233100Y-76794229D01*
X118207999Y-76816452D01*
X118007041Y-76950728D01*
X117785241Y-77145241D01*
X117590728Y-77367041D01*
X117426828Y-77612334D01*
X117296349Y-77876919D01*
X117201521Y-78156269D01*
X117201518Y-78156283D01*
X117143968Y-78445609D01*
X117143964Y-78445636D01*
X117124671Y-78739992D01*
X117124671Y-78740007D01*
X117143964Y-79034363D01*
X117143965Y-79034373D01*
X117143966Y-79034380D01*
X117191822Y-79274973D01*
X117201518Y-79323716D01*
X117201521Y-79323730D01*
X117296349Y-79603080D01*
X117426825Y-79867660D01*
X117426829Y-79867667D01*
X117590725Y-80112955D01*
X117785241Y-80334758D01*
X118007044Y-80529274D01*
X118252332Y-80693170D01*
X118252339Y-80693174D01*
X118261789Y-80697834D01*
X118516923Y-80823652D01*
X118796278Y-80918481D01*
X119085620Y-80976034D01*
X119113888Y-80977886D01*
X119379993Y-80995329D01*
X119380000Y-80995329D01*
X119380007Y-80995329D01*
X119615675Y-80979881D01*
X119674380Y-80976034D01*
X119963722Y-80918481D01*
X120243077Y-80823652D01*
X120507665Y-80693172D01*
X120752957Y-80529273D01*
X120974758Y-80334758D01*
X121169273Y-80112957D01*
X121333172Y-79867665D01*
X121463652Y-79603077D01*
X121558481Y-79323722D01*
X121616034Y-79034380D01*
X121628384Y-78845965D01*
X121635329Y-78740007D01*
X121635329Y-78739992D01*
X121616035Y-78445636D01*
X121616034Y-78445620D01*
X121558481Y-78156278D01*
X121463652Y-77876923D01*
X121333172Y-77612336D01*
X121313157Y-77582382D01*
X121257196Y-77498630D01*
X121169273Y-77367043D01*
X121089493Y-77276072D01*
X120974758Y-77145241D01*
X120777254Y-76972035D01*
X120752957Y-76950727D01*
X120539257Y-76807937D01*
X120494454Y-76754327D01*
X120485747Y-76685002D01*
X120515901Y-76621975D01*
X120575344Y-76585255D01*
X120607722Y-76580838D01*
X121163171Y-76578923D01*
X121269734Y-76567187D01*
X121320817Y-76555982D01*
X121422504Y-76522040D01*
X121543543Y-76444252D01*
X121596347Y-76398497D01*
X121690567Y-76289763D01*
X121750338Y-76158886D01*
X121770023Y-76091847D01*
X121770024Y-76091843D01*
X121790500Y-75949427D01*
X121790500Y-74049500D01*
X121810185Y-73982461D01*
X121862989Y-73936706D01*
X121914500Y-73925500D01*
X122014644Y-73925500D01*
X122014646Y-73925500D01*
X122199803Y-73886144D01*
X122372730Y-73809151D01*
X122525871Y-73697888D01*
X122652533Y-73557216D01*
X122747179Y-73393284D01*
X122805674Y-73213256D01*
X122825460Y-73025000D01*
X122805674Y-72836744D01*
X122747179Y-72656716D01*
X122652533Y-72492784D01*
X122577348Y-72409283D01*
X122547118Y-72346292D01*
X122545499Y-72326323D01*
X122545499Y-58890451D01*
X122565184Y-58823412D01*
X122581818Y-58802770D01*
X124178137Y-57206451D01*
X125883786Y-55500802D01*
X125896048Y-55490980D01*
X125895865Y-55490759D01*
X125901873Y-55485788D01*
X125901877Y-55485786D01*
X125948649Y-55435977D01*
X125949891Y-55434697D01*
X125970120Y-55414470D01*
X125974373Y-55408986D01*
X125978150Y-55404563D01*
X126010062Y-55370582D01*
X126019714Y-55353023D01*
X126030389Y-55336772D01*
X126042674Y-55320936D01*
X126061186Y-55278152D01*
X126063742Y-55272935D01*
X126086197Y-55232092D01*
X126091180Y-55212680D01*
X126097477Y-55194291D01*
X126105438Y-55175895D01*
X126112729Y-55129853D01*
X126113908Y-55124162D01*
X126125500Y-55079019D01*
X126125500Y-55058982D01*
X126127027Y-55039582D01*
X126130160Y-55019804D01*
X126125775Y-54973415D01*
X126125500Y-54967577D01*
X126125500Y-54698687D01*
X126145185Y-54631648D01*
X126157350Y-54615715D01*
X126182400Y-54587894D01*
X126232533Y-54532216D01*
X126327179Y-54368284D01*
X126385674Y-54188256D01*
X126405460Y-54000000D01*
X126385674Y-53811744D01*
X126327179Y-53631716D01*
X126232533Y-53467784D01*
X126105871Y-53327112D01*
X126080627Y-53308771D01*
X125952734Y-53215851D01*
X125952729Y-53215848D01*
X125779807Y-53138857D01*
X125779802Y-53138855D01*
X125634000Y-53107865D01*
X125594646Y-53099500D01*
X125405354Y-53099500D01*
X125372897Y-53106398D01*
X125220197Y-53138855D01*
X125220192Y-53138857D01*
X125047270Y-53215848D01*
X125047265Y-53215851D01*
X124894129Y-53327111D01*
X124767466Y-53467785D01*
X124672821Y-53631715D01*
X124672818Y-53631722D01*
X124614327Y-53811740D01*
X124614326Y-53811744D01*
X124594540Y-54000000D01*
X124614326Y-54188256D01*
X124614327Y-54188259D01*
X124672818Y-54368277D01*
X124672821Y-54368284D01*
X124767467Y-54532216D01*
X124807893Y-54577113D01*
X124838319Y-54610905D01*
X124868549Y-54673896D01*
X124859924Y-54743232D01*
X124833850Y-54781558D01*
X122002181Y-57613228D01*
X121940858Y-57646713D01*
X121871166Y-57641729D01*
X121815233Y-57599857D01*
X121790816Y-57534393D01*
X121790500Y-57525547D01*
X121790500Y-49530002D01*
X177034652Y-49530002D01*
X177054028Y-49887368D01*
X177054029Y-49887385D01*
X177111926Y-50240539D01*
X177111932Y-50240565D01*
X177207672Y-50585392D01*
X177207674Y-50585399D01*
X177340142Y-50917870D01*
X177340151Y-50917888D01*
X177507784Y-51234077D01*
X177507787Y-51234082D01*
X177507789Y-51234085D01*
X177703281Y-51522415D01*
X177708634Y-51530309D01*
X177708641Y-51530319D01*
X177763090Y-51594421D01*
X177940332Y-51803086D01*
X178200163Y-52049211D01*
X178485081Y-52265800D01*
X178791747Y-52450315D01*
X178791749Y-52450316D01*
X178791751Y-52450317D01*
X178791755Y-52450319D01*
X179116552Y-52600585D01*
X179116565Y-52600591D01*
X179455726Y-52714868D01*
X179805254Y-52791805D01*
X180161052Y-52830500D01*
X180161058Y-52830500D01*
X180518942Y-52830500D01*
X180518948Y-52830500D01*
X180874746Y-52791805D01*
X181224274Y-52714868D01*
X181563435Y-52600591D01*
X181888253Y-52450315D01*
X182194919Y-52265800D01*
X182479837Y-52049211D01*
X182739668Y-51803086D01*
X182971365Y-51530311D01*
X183172211Y-51234085D01*
X183339853Y-50917880D01*
X183472324Y-50585403D01*
X183568071Y-50240552D01*
X183625972Y-49887371D01*
X183645348Y-49530000D01*
X183625972Y-49172629D01*
X183568071Y-48819448D01*
X183472324Y-48474597D01*
X183339853Y-48142120D01*
X183172211Y-47825915D01*
X182971365Y-47529689D01*
X182971361Y-47529684D01*
X182971358Y-47529680D01*
X182739668Y-47256914D01*
X182739667Y-47256913D01*
X182479837Y-47010789D01*
X182479830Y-47010783D01*
X182479827Y-47010781D01*
X182412245Y-46959407D01*
X182194919Y-46794200D01*
X181888253Y-46609685D01*
X181888252Y-46609684D01*
X181888248Y-46609682D01*
X181888244Y-46609680D01*
X181563447Y-46459414D01*
X181563441Y-46459411D01*
X181563435Y-46459409D01*
X181393854Y-46402270D01*
X181224273Y-46345131D01*
X180874744Y-46268194D01*
X180518949Y-46229500D01*
X180518948Y-46229500D01*
X180161052Y-46229500D01*
X180161050Y-46229500D01*
X179805255Y-46268194D01*
X179455726Y-46345131D01*
X179199970Y-46431306D01*
X179116565Y-46459409D01*
X179116562Y-46459410D01*
X179116563Y-46459410D01*
X179116552Y-46459414D01*
X178791755Y-46609680D01*
X178791751Y-46609682D01*
X178563367Y-46747096D01*
X178485081Y-46794200D01*
X178396768Y-46861333D01*
X178200172Y-47010781D01*
X178200163Y-47010789D01*
X177940331Y-47256914D01*
X177708641Y-47529680D01*
X177708634Y-47529690D01*
X177507790Y-47825913D01*
X177507784Y-47825922D01*
X177340151Y-48142111D01*
X177340142Y-48142129D01*
X177207674Y-48474600D01*
X177207672Y-48474607D01*
X177111932Y-48819434D01*
X177111926Y-48819460D01*
X177054029Y-49172614D01*
X177054028Y-49172631D01*
X177034652Y-49529997D01*
X177034652Y-49530002D01*
X121790500Y-49530002D01*
X121790500Y-45844500D01*
X121810185Y-45777461D01*
X121862989Y-45731706D01*
X121914500Y-45720500D01*
X184025500Y-45720500D01*
X184092539Y-45740185D01*
G37*
G04 #@! TD.AperFunction*
M02*
