G04 #@! TF.GenerationSoftware,KiCad,Pcbnew,7.0.5*
G04 #@! TF.CreationDate,2023-07-24T04:44:54-06:00*
G04 #@! TF.ProjectId,Project-Supernova-PCB,50726f6a-6563-4742-9d53-757065726e6f,rev?*
G04 #@! TF.SameCoordinates,Original*
G04 #@! TF.FileFunction,Paste,Top*
G04 #@! TF.FilePolarity,Positive*
%FSLAX46Y46*%
G04 Gerber Fmt 4.6, Leading zero omitted, Abs format (unit mm)*
G04 Created by KiCad (PCBNEW 7.0.5) date 2023-07-24 04:44:54*
%MOMM*%
%LPD*%
G01*
G04 APERTURE LIST*
G04 Aperture macros list*
%AMRoundRect*
0 Rectangle with rounded corners*
0 $1 Rounding radius*
0 $2 $3 $4 $5 $6 $7 $8 $9 X,Y pos of 4 corners*
0 Add a 4 corners polygon primitive as box body*
4,1,4,$2,$3,$4,$5,$6,$7,$8,$9,$2,$3,0*
0 Add four circle primitives for the rounded corners*
1,1,$1+$1,$2,$3*
1,1,$1+$1,$4,$5*
1,1,$1+$1,$6,$7*
1,1,$1+$1,$8,$9*
0 Add four rect primitives between the rounded corners*
20,1,$1+$1,$2,$3,$4,$5,0*
20,1,$1+$1,$4,$5,$6,$7,0*
20,1,$1+$1,$6,$7,$8,$9,0*
20,1,$1+$1,$8,$9,$2,$3,0*%
G04 Aperture macros list end*
%ADD10RoundRect,0.250000X-0.400000X-0.625000X0.400000X-0.625000X0.400000X0.625000X-0.400000X0.625000X0*%
%ADD11RoundRect,0.250001X-0.462499X-0.624999X0.462499X-0.624999X0.462499X0.624999X-0.462499X0.624999X0*%
%ADD12RoundRect,0.300000X-0.550000X-0.300000X0.550000X-0.300000X0.550000X0.300000X-0.550000X0.300000X0*%
%ADD13RoundRect,0.325000X-0.525000X-0.325000X0.525000X-0.325000X0.525000X0.325000X-0.525000X0.325000X0*%
%ADD14RoundRect,0.250001X0.462499X0.624999X-0.462499X0.624999X-0.462499X-0.624999X0.462499X-0.624999X0*%
%ADD15RoundRect,0.100000X-0.712500X-0.100000X0.712500X-0.100000X0.712500X0.100000X-0.712500X0.100000X0*%
%ADD16RoundRect,0.250000X0.650000X-0.412500X0.650000X0.412500X-0.650000X0.412500X-0.650000X-0.412500X0*%
%ADD17RoundRect,0.250000X-0.412500X-0.650000X0.412500X-0.650000X0.412500X0.650000X-0.412500X0.650000X0*%
%ADD18R,2.300000X0.800000*%
%ADD19R,0.800000X2.300000*%
%ADD20RoundRect,0.381000X-1.369000X-0.381000X1.369000X-0.381000X1.369000X0.381000X-1.369000X0.381000X0*%
G04 APERTURE END LIST*
D10*
X167372500Y-104330000D03*
X170472500Y-104330000D03*
X164465000Y-62230000D03*
X167565000Y-62230000D03*
D11*
X97355000Y-114935000D03*
X100330000Y-114935000D03*
D12*
X140208000Y-115128000D03*
X140208000Y-117028000D03*
D13*
X142494000Y-116078000D03*
D10*
X117550000Y-109855000D03*
X120650000Y-109855000D03*
X167372500Y-95440000D03*
X170472500Y-95440000D03*
D14*
X98896500Y-63500000D03*
X95921500Y-63500000D03*
D10*
X145900000Y-114200000D03*
X149000000Y-114200000D03*
X155500000Y-105200000D03*
X158600000Y-105200000D03*
D15*
X156887500Y-99025000D03*
X156887500Y-99675000D03*
X156887500Y-100325000D03*
X156887500Y-100975000D03*
X161112500Y-100975000D03*
X161112500Y-100325000D03*
X161112500Y-99675000D03*
X161112500Y-99025000D03*
D10*
X131500000Y-114600000D03*
X134600000Y-114600000D03*
D11*
X117675000Y-106045000D03*
X120650000Y-106045000D03*
D16*
X117094000Y-71158500D03*
X117094000Y-68033500D03*
D17*
X167347500Y-91440000D03*
X170472500Y-91440000D03*
D10*
X145900000Y-118000000D03*
X149000000Y-118000000D03*
D16*
X120015000Y-71158500D03*
X120015000Y-68033500D03*
D10*
X131500000Y-117200000D03*
X134600000Y-117200000D03*
X97230000Y-111760000D03*
X100330000Y-111760000D03*
X122500000Y-114800000D03*
X125600000Y-114800000D03*
D17*
X167347500Y-100330000D03*
X170472500Y-100330000D03*
D11*
X110055000Y-114935000D03*
X113030000Y-114935000D03*
D16*
X95758000Y-60236500D03*
X95758000Y-57111500D03*
D10*
X161200000Y-105200000D03*
X164300000Y-105200000D03*
D18*
X113696000Y-71314000D03*
X113696000Y-70064000D03*
X113696000Y-68814000D03*
X113696000Y-67564000D03*
X113696000Y-66314000D03*
X113696000Y-65064000D03*
X113696000Y-63814000D03*
D19*
X111446000Y-61564000D03*
X110196000Y-61564000D03*
X108946000Y-61564000D03*
X107696000Y-61564000D03*
X106446000Y-61564000D03*
X105196000Y-61564000D03*
X103946000Y-61564000D03*
D18*
X101696000Y-63814000D03*
X101696000Y-65064000D03*
X101696000Y-66314000D03*
X101696000Y-67564000D03*
X101696000Y-68814000D03*
X101696000Y-70064000D03*
X101696000Y-71314000D03*
D19*
X103946000Y-73564000D03*
X105196000Y-73564000D03*
X106446000Y-73564000D03*
X107696000Y-73564000D03*
X108946000Y-73564000D03*
X110196000Y-73564000D03*
X111446000Y-73564000D03*
D16*
X98933000Y-60236500D03*
X98933000Y-57111500D03*
D11*
X104721000Y-105410000D03*
X107696000Y-105410000D03*
D20*
X160655000Y-108966000D03*
X160655000Y-117221000D03*
X160655000Y-119471000D03*
X179680000Y-108839000D03*
X179680000Y-117094000D03*
D17*
X90601000Y-104394000D03*
X93726000Y-104394000D03*
D10*
X104596000Y-109220000D03*
X107696000Y-109220000D03*
X109930000Y-111760000D03*
X113030000Y-111760000D03*
X158750000Y-62230000D03*
X161850000Y-62230000D03*
D17*
X151675000Y-116200000D03*
X154800000Y-116200000D03*
M02*
